<?xml version="1.0" encoding="UTF-8" standalone="no"?>
<svg
   width="1000"
   height="1000"
   viewBox="0 0 264.58333 264.58334"
   version="1.1"
   id="svg221"
   inkscape:version="1.1.1 (3bf5ae0d25, 2021-09-20, custom)"
   sodipodi:docname="8.svg"
   xmlns:inkscape="http://www.inkscape.org/namespaces/inkscape"
   xmlns:sodipodi="http://sodipodi.sourceforge.net/DTD/sodipodi-0.dtd"
   xmlns="http://www.w3.org/2000/svg"
   xmlns:svg="http://www.w3.org/2000/svg"
   xmlns:rdf="http://www.w3.org/1999/02/22-rdf-syntax-ns#"
   xmlns:cc="http://creativecommons.org/ns#"
   xmlns:dc="http://purl.org/dc/elements/1.1/">
  <defs
     id="defs215" />
  <sodipodi:namedview
     id="base"
     pagecolor="#ffffff"
     bordercolor="#666666"
     borderopacity="1.0"
     inkscape:pageopacity="0.0"
     inkscape:pageshadow="2"
     inkscape:zoom="0.24748737"
     inkscape:cx="573.76665"
     inkscape:cy="325.26912"
     inkscape:document-units="mm"
     inkscape:current-layer="layer1"
     inkscape:document-rotation="0"
     showgrid="false"
     units="px"
     showguides="true"
     inkscape:guide-bbox="true"
     inkscape:window-width="605"
     inkscape:window-height="728"
     inkscape:window-x="752"
     inkscape:window-y="32"
     inkscape:window-maximized="0"
     inkscape:pagecheckerboard="0"
     inkscape:snap-intersection-paths="true"
     inkscape:snap-bbox="true"
     inkscape:bbox-nodes="true"
     inkscape:snap-nodes="false">
    <sodipodi:guide
       position="-5.0862631e-06,52.916663"
       orientation="0,-1"
       id="guide1048" />
    <sodipodi:guide
       position="-5.0862631e-06,211.66667"
       orientation="0,-1"
       id="guide144" />
    <sodipodi:guide
       position="211.66667,269.38659"
       orientation="1,0"
       id="guide146" />
    <sodipodi:guide
       position="52.916667,269.38659"
       orientation="1,0"
       id="guide148" />
  </sodipodi:namedview>
  <metadata
     id="metadata218">
    <rdf:RDF>
      <cc:Work
         rdf:about="">
        <dc:format>image/svg+xml</dc:format>
        <dc:type
           rdf:resource="http://purl.org/dc/dcmitype/StillImage" />
      </cc:Work>
    </rdf:RDF>
  </metadata>
  <g
     inkscape:label="Layer 1"
     inkscape:groupmode="layer"
     id="layer1">
    <path
       id="rect12-1-6-31-9-8-2-9"
       style="display:inline;fill:#000000;fill-opacity:1;stroke:none;stroke-width:0.302968"
       d="m 67.850952,52.916665 c -8.273503,0 -14.934285,6.660678 -14.934285,14.934235 v 128.88154 c 0,8.27357 6.660782,14.93423 14.934285,14.93423 H 196.73238 c 8.27351,0 14.93429,-6.66066 14.93429,-14.93423 V 67.8509 c 0,-8.273557 -6.66078,-14.934235 -14.93429,-14.934235 z m 64.440188,26.458492 c 9.05543,0 16.36621,2.546732 21.93091,7.640304 5.61251,5.093572 8.41885,11.979692 8.41885,20.657619 0,5.14074 -1.36789,9.7149 -4.10368,13.72373 -2.68816,4.00884 -6.3424,7.14575 -10.96449,9.40956 5.37668,2.31097 9.62129,5.68266 12.73367,10.11596 3.16,4.43329 4.74026,9.45585 4.74026,15.06822 0,8.91374 -3.01906,16.01255 -9.05614,21.29477 -5.98962,5.28222 -13.88936,7.92286 -23.69938,7.92286 -9.90404,0 -17.85105,-2.64064 -23.8405,-7.92286 -5.94252,-5.32939 -8.913436,-12.4282 -8.913436,-21.29477 0,-5.5652 1.508826,-10.58776 4.527366,-15.06822 3.06528,-4.48045 7.28696,-7.87609 12.66328,-10.18707 -4.57446,-2.2638 -8.18301,-5.3998 -10.82408,-9.40863 -2.64089,-4.00884 -3.96116,-8.55998 -3.96116,-13.65355 0,-8.677927 2.78236,-15.564047 8.34777,-20.657619 5.56488,-5.093572 12.8984,-7.640304 22.00076,-7.640304 z m 0,10.753121 c -5.14049,0 -9.3142,1.603901 -12.52129,4.810962 -3.16,3.159894 -4.73974,7.47445 -4.73974,12.94531 0,5.23506 1.55681,9.48052 4.66971,12.73474 3.15947,3.20706 7.35646,4.81007 12.59132,4.81007 5.23504,0 9.40962,-1.60301 12.52235,-4.81007 3.16,-3.25422 4.73991,-7.49968 4.73991,-12.73474 0,-5.23507 -1.62789,-9.502629 -4.88226,-12.804023 -3.25366,-3.301394 -7.38062,-4.952249 -12.38,-4.952249 z m -0.14111,46.054192 c -5.89526,0 -10.635,1.79263 -14.21921,5.37701 -3.53765,3.58435 -5.30647,8.30033 -5.30647,14.14851 0,5.84816 1.72226,10.44628 5.16501,13.79482 3.48984,3.34856 8.32395,5.02335 14.50195,5.02335 6.1311,0 10.94227,-1.67479 14.43211,-5.02335 3.49003,-3.39571 5.23504,-7.99382 5.23504,-13.79482 0,-5.75386 -1.83885,-10.4468 -5.51779,-14.07833 -3.63131,-3.63152 -8.39538,-5.44719 -14.29064,-5.44719 z" />
  </g>
</svg>
