<?xml version="1.0" encoding="UTF-8" standalone="no"?>
<svg
   width="1000"
   height="1000"
   viewBox="0 0 264.58333 264.58334"
   version="1.1"
   id="svg221"
   inkscape:version="1.1.1 (3bf5ae0d25, 2021-09-20, custom)"
   sodipodi:docname="avatar circle.svg"
   xmlns:inkscape="http://www.inkscape.org/namespaces/inkscape"
   xmlns:sodipodi="http://sodipodi.sourceforge.net/DTD/sodipodi-0.dtd"
   xmlns="http://www.w3.org/2000/svg"
   xmlns:svg="http://www.w3.org/2000/svg"
   xmlns:rdf="http://www.w3.org/1999/02/22-rdf-syntax-ns#"
   xmlns:cc="http://creativecommons.org/ns#"
   xmlns:dc="http://purl.org/dc/elements/1.1/">
  <defs
     id="defs215" />
  <sodipodi:namedview
     id="base"
     pagecolor="#ffffff"
     bordercolor="#666666"
     borderopacity="1.0"
     inkscape:pageopacity="0.0"
     inkscape:pageshadow="2"
     inkscape:zoom="0.69999999"
     inkscape:cx="507.85715"
     inkscape:cy="449.28572"
     inkscape:document-units="mm"
     inkscape:current-layer="layer1"
     inkscape:document-rotation="0"
     showgrid="false"
     units="px"
     showguides="true"
     inkscape:guide-bbox="true"
     inkscape:window-width="1366"
     inkscape:window-height="740"
     inkscape:window-x="0"
     inkscape:window-y="28"
     inkscape:window-maximized="0"
     inkscape:pagecheckerboard="0"
     inkscape:snap-bbox="true"
     inkscape:bbox-nodes="true"
     inkscape:snap-midpoints="true">
    <sodipodi:guide
       position="-5.0862631e-06,52.916663"
       orientation="0,-1"
       id="guide1048" />
    <sodipodi:guide
       position="75.848259,211.66667"
       orientation="0,-1"
       id="guide144" />
    <sodipodi:guide
       position="211.66667,269.38659"
       orientation="1,0"
       id="guide146" />
    <sodipodi:guide
       position="52.916667,269.38659"
       orientation="1,0"
       id="guide148" />
    <sodipodi:guide
       position="132.29166,211.66667"
       orientation="1,0"
       id="guide133" />
    <sodipodi:guide
       position="52.916666,132.29167"
       orientation="0,-1"
       id="guide135" />
  </sodipodi:namedview>
  <metadata
     id="metadata218">
    <rdf:RDF>
      <cc:Work
         rdf:about="">
        <dc:format>image/svg+xml</dc:format>
        <dc:type
           rdf:resource="http://purl.org/dc/dcmitype/StillImage" />
      </cc:Work>
    </rdf:RDF>
  </metadata>
  <g
     inkscape:label="Layer 1"
     inkscape:groupmode="layer"
     id="layer1">
    <path
       id="rect12-1-6-31-9-8-8-0-4-2-4-7"
       style="display:inline;fill:#000000;fill-opacity:0.979723;stroke:none;stroke-width:0.302968"
       d="m 67.850919,52.916658 c -8.273485,0 -14.934252,6.660607 -14.934252,14.934286 V 196.73238 c 0,8.27351 6.660767,14.93429 14.934252,14.93429 H 196.73259 c 8.27349,0 14.93408,-6.66078 14.93408,-14.93429 V 67.850944 c 0,-8.273679 -6.66059,-14.934286 -14.93408,-14.934286 z m 64.441101,26.458453 c 7.20052,0 14.05531,1.395057 20.56668,4.1857 6.54541,2.790466 12.17889,6.545601 16.89851,11.265405 4.71961,4.719803 8.47474,10.352774 11.26502,16.898544 2.79082,6.51121 4.18587,13.3662 4.18587,20.56638 0,7.16578 -1.39505,14.00507 -4.18587,20.51627 -2.79028,6.51138 -6.54541,12.12601 -11.26502,16.84581 -4.71962,4.7542 -10.3531,8.5268 -16.89851,11.31726 -6.51137,2.82504 -13.36616,4.23756 -20.56668,4.23756 -7.16559,0 -14.02144,-1.39506 -20.56721,-4.18552 -6.54593,-2.79064 -12.178888,-6.56324 -16.898505,-11.31744 -4.719617,-4.71981 -8.474743,-10.33531 -11.265556,-16.84652 -2.790283,-6.54577 -4.185337,-13.40164 -4.185337,-20.56742 0,-7.20018 1.395054,-14.05517 4.185337,-20.56638 2.790813,-6.54577 6.545939,-12.178741 11.265556,-16.898544 4.719617,-4.719804 10.335285,-8.474939 16.846655,-11.265405 6.54541,-2.790643 13.4189,-4.1857 20.61906,-4.1857 z m 0,15.089155 c -4.09943,0 -7.88949,1.016351 -11.36909,3.049052 -3.47979,2.032525 -6.2355,4.788772 -8.26855,8.268392 -2.03234,3.47944 -3.04887,7.26861 -3.04887,11.36824 0,4.09979 1.01653,7.88985 3.04887,11.36947 2.03305,3.47944 4.78876,6.23569 8.26855,8.26821 3.4796,2.0327 7.26966,3.04905 11.36909,3.04905 4.09979,0 7.88896,-1.01635 11.36857,-3.04905 3.47978,-2.03252 6.23549,-4.78877 8.26837,-8.26821 2.03252,-3.47962 3.04904,-7.26968 3.04904,-11.36947 0,-4.09963 -1.01652,-7.8888 -3.04904,-11.36824 -2.03288,-3.47962 -4.78859,-6.235867 -8.26837,-8.268392 -3.47961,-2.032701 -7.26878,-3.049052 -11.36857,-3.049052 z m -20.98119,41.754514 c -3.20391,0.41345 -5.96015,1.73954 -8.26801,3.97879 -2.30822,2.20486 -4.048111,4.82388 -5.219505,7.85547 -1.171393,2.99719 -2.031991,6.45934 -2.583027,10.38663 4.202976,5.8912 9.542952,10.5595 16.019742,14.00455 6.51119,3.44504 13.52191,5.1673 21.03199,5.1673 7.51043,0 14.50387,-1.72226 20.98066,-5.1673 6.51084,-3.44505 11.86845,-8.11335 16.07143,-14.00455 -0.55104,-3.92729 -1.4127,-7.38944 -2.58409,-10.38663 -1.17139,-3.03159 -2.91111,-5.65061 -5.2195,-7.85547 -2.30821,-2.23925 -5.0641,-3.56534 -8.26784,-3.97879 -2.65323,2.894 -5.80528,5.16818 -9.45705,6.82182 -3.61736,1.65365 -7.45822,2.4802 -11.52361,2.4802 -4.06486,0 -7.92406,-0.82655 -11.576,-2.4802 -3.61719,-1.65364 -6.75249,-3.92782 -9.40519,-6.82182 z" />
  </g>
</svg>
