<?xml version="1.0" encoding="UTF-8" standalone="no"?>
<svg
   width="1000"
   height="1000"
   viewBox="0 0 264.58333 264.58334"
   version="1.1"
   id="svg221"
   inkscape:version="1.1.1 (3bf5ae0d25, 2021-09-20, custom)"
   sodipodi:docname="battery v more mid.svg"
   xmlns:inkscape="http://www.inkscape.org/namespaces/inkscape"
   xmlns:sodipodi="http://sodipodi.sourceforge.net/DTD/sodipodi-0.dtd"
   xmlns="http://www.w3.org/2000/svg"
   xmlns:svg="http://www.w3.org/2000/svg"
   xmlns:rdf="http://www.w3.org/1999/02/22-rdf-syntax-ns#"
   xmlns:cc="http://creativecommons.org/ns#"
   xmlns:dc="http://purl.org/dc/elements/1.1/">
  <defs
     id="defs215" />
  <sodipodi:namedview
     id="base"
     pagecolor="#ffffff"
     bordercolor="#666666"
     borderopacity="1.0"
     inkscape:pageopacity="0.0"
     inkscape:pageshadow="2"
     inkscape:zoom="0.49497474"
     inkscape:cx="439.41636"
     inkscape:cy="502.04582"
     inkscape:document-units="mm"
     inkscape:current-layer="layer1"
     inkscape:document-rotation="0"
     showgrid="false"
     units="px"
     showguides="true"
     inkscape:guide-bbox="true"
     inkscape:window-width="1366"
     inkscape:window-height="740"
     inkscape:window-x="0"
     inkscape:window-y="28"
     inkscape:window-maximized="0"
     inkscape:pagecheckerboard="0"
     inkscape:snap-bbox="true"
     inkscape:bbox-nodes="true"
     inkscape:snap-midpoints="true">
    <sodipodi:guide
       position="-5.0862631e-06,52.916663"
       orientation="0,-1"
       id="guide1048" />
    <sodipodi:guide
       position="75.848259,211.66667"
       orientation="0,-1"
       id="guide144" />
    <sodipodi:guide
       position="211.66667,269.38659"
       orientation="1,0"
       id="guide146" />
    <sodipodi:guide
       position="52.916667,269.38659"
       orientation="1,0"
       id="guide148" />
    <sodipodi:guide
       position="132.29166,211.66667"
       orientation="1,0"
       id="guide133" />
    <sodipodi:guide
       position="52.916666,132.29167"
       orientation="0,-1"
       id="guide135" />
  </sodipodi:namedview>
  <metadata
     id="metadata218">
    <rdf:RDF>
      <cc:Work
         rdf:about="">
        <dc:format>image/svg+xml</dc:format>
        <dc:type
           rdf:resource="http://purl.org/dc/dcmitype/StillImage" />
      </cc:Work>
    </rdf:RDF>
  </metadata>
  <g
     inkscape:label="Layer 1"
     inkscape:groupmode="layer"
     id="layer1">
    <path
       id="rect12-1-6-31-9-48-1-4-5-6"
       style="display:inline;fill:#000000;fill-opacity:0.979723;stroke:none;stroke-width:0.302968"
       d="m 67.850742,52.916665 c -8.273484,0 -14.934075,6.660787 -14.934075,14.934295 v 128.88142 c 0,8.27368 6.660591,14.93429 14.934075,14.93429 H 196.73242 c 8.27348,0 14.93425,-6.66061 14.93425,-14.93429 V 67.85096 c 0,-8.273508 -6.66077,-14.934295 -14.93425,-14.934295 z m 18.880229,49.992945 h 85.252789 c 2.03657,0 3.76518,0.70996 5.18581,2.13007 1.44673,1.42028 2.1701,3.14818 2.1701,5.18476 v 7.39589 c 1.63441,0 3.01482,0.56268 4.14,1.68821 1.15235,1.12536 1.72825,2.51883 1.72825,4.18024 v 17.60587 c 0,1.6614 -0.5759,3.05469 -1.72825,4.18005 -1.12518,1.12554 -2.50559,1.68822 -4.14,1.68822 v 7.39597 c 0,2.03659 -0.72337,3.76449 -2.1701,5.18477 -1.42063,1.4201 -3.14924,2.13113 -5.18581,2.13113 H 86.730971 c -2.036224,0 -3.778409,-0.71103 -5.225673,-2.13113 -1.420101,-1.42028 -2.129887,-3.14818 -2.129887,-5.18477 v -44.13445 c 0,-2.03658 0.709786,-3.76448 2.129887,-5.18476 1.447264,-1.42011 3.189449,-2.13007 5.225673,-2.13007 z m 0,5.86827 c -0.428446,0 -0.790571,0.13406 -1.085668,0.40199 -0.267757,0.26793 -0.401812,0.61577 -0.401812,1.04457 v 44.13445 c 0,0.4288 0.134055,0.77664 0.401812,1.04458 0.295097,0.26793 0.657222,0.40199 1.085668,0.40199 h 85.252789 c 0.4288,0 0.77734,-0.13406 1.0458,-0.40199 0.29439,-0.26794 0.44185,-0.61578 0.44185,-1.04458 v -13.26424 h 5.86826 v -17.60587 h -5.86826 v -13.26434 c 0,-0.4288 -0.14816,-0.77664 -0.44185,-1.04457 -0.26846,-0.26793 -0.617,-0.40199 -1.0458,-0.40199 z m 4.420992,5.86818 h 58.765117 v 35.29112 H 91.151963 Z" />
  </g>
</svg>
