<?xml version="1.0" encoding="UTF-8" standalone="no"?>
<svg
   width="1000"
   height="1000"
   viewBox="0 0 264.58333 264.58334"
   version="1.1"
   id="svg221"
   inkscape:version="1.1.1 (3bf5ae0d25, 2021-09-20, custom)"
   sodipodi:docname="bt speacker.svg"
   xmlns:inkscape="http://www.inkscape.org/namespaces/inkscape"
   xmlns:sodipodi="http://sodipodi.sourceforge.net/DTD/sodipodi-0.dtd"
   xmlns="http://www.w3.org/2000/svg"
   xmlns:svg="http://www.w3.org/2000/svg"
   xmlns:rdf="http://www.w3.org/1999/02/22-rdf-syntax-ns#"
   xmlns:cc="http://creativecommons.org/ns#"
   xmlns:dc="http://purl.org/dc/elements/1.1/">
  <defs
     id="defs215" />
  <sodipodi:namedview
     id="base"
     pagecolor="#ffffff"
     bordercolor="#666666"
     borderopacity="1.0"
     inkscape:pageopacity="0.0"
     inkscape:pageshadow="2"
     inkscape:zoom="0.49497474"
     inkscape:cx="439.41636"
     inkscape:cy="502.04582"
     inkscape:document-units="mm"
     inkscape:current-layer="layer1"
     inkscape:document-rotation="0"
     showgrid="false"
     units="px"
     showguides="true"
     inkscape:guide-bbox="true"
     inkscape:window-width="1366"
     inkscape:window-height="740"
     inkscape:window-x="0"
     inkscape:window-y="28"
     inkscape:window-maximized="0"
     inkscape:pagecheckerboard="0"
     inkscape:snap-bbox="true"
     inkscape:bbox-nodes="true"
     inkscape:snap-midpoints="true">
    <sodipodi:guide
       position="-5.0862631e-06,52.916663"
       orientation="0,-1"
       id="guide1048" />
    <sodipodi:guide
       position="75.848259,211.66667"
       orientation="0,-1"
       id="guide144" />
    <sodipodi:guide
       position="211.66667,269.38659"
       orientation="1,0"
       id="guide146" />
    <sodipodi:guide
       position="52.916667,269.38659"
       orientation="1,0"
       id="guide148" />
    <sodipodi:guide
       position="132.29166,211.66667"
       orientation="1,0"
       id="guide133" />
    <sodipodi:guide
       position="52.916666,132.29167"
       orientation="0,-1"
       id="guide135" />
  </sodipodi:namedview>
  <metadata
     id="metadata218">
    <rdf:RDF>
      <cc:Work
         rdf:about="">
        <dc:format>image/svg+xml</dc:format>
        <dc:type
           rdf:resource="http://purl.org/dc/dcmitype/StillImage" />
      </cc:Work>
    </rdf:RDF>
  </metadata>
  <g
     inkscape:label="Layer 1"
     inkscape:groupmode="layer"
     id="layer1">
    <path
       id="rect12-1-6-31-9-8-2-3-8-8"
       style="display:inline;fill:#000000;fill-opacity:0.979723;stroke:none;stroke-width:0.302969"
       d="m 67.850952,52.916665 c -8.273503,0 -14.934285,6.660715 -14.934285,14.934318 V 196.73235 c 0,8.27362 6.660782,14.93432 14.934285,14.93432 H 196.73238 c 8.27351,0 14.93429,-6.6607 14.93429,-14.93432 V 67.850983 c 0,-8.273603 -6.66078,-14.934318 -14.93429,-14.934318 z m 48.541938,26.458656 h 5.21616 l 30.3099,30.060019 -22.85625,22.85631 22.85625,22.85631 -30.3099,30.06094 h -5.21616 v -40.24713 l -24.347611,24.34662 -7.45259,-7.45255 29.564121,-29.56419 -29.564121,-29.56416 7.45259,-7.452577 24.347611,24.097807 z m 10.68156,20.122675 v 19.874724 l 9.93738,-9.93738 z m 45.21578,4.720744 c 4.96886,8.11558 7.53567,17.30747 7.7013,27.57616 -0.16581,10.43431 -2.89806,19.79174 -8.19783,28.07291 l -6.21135,-6.459 c 3.31258,-6.29375 4.96904,-13.33284 4.96904,-21.11716 0,-7.78432 -1.65646,-14.82343 -4.96904,-21.11711 z m -15.90036,15.89958 c 1.49066,3.80938 2.23607,7.86711 2.23607,12.17333 0,4.3062 -0.74541,8.44721 -2.23607,12.42217 l -12.17328,-12.42217 z m -29.31542,24.84345 v 20.12357 l 9.93738,-9.93738 z" />
  </g>
</svg>
