<?xml version="1.0" encoding="UTF-8" standalone="no"?>
<svg
   width="1000"
   height="1000"
   viewBox="0 0 264.58333 264.58334"
   version="1.1"
   id="svg221"
   inkscape:version="1.1.1 (3bf5ae0d25, 2021-09-20, custom)"
   sodipodi:docname="check.svg"
   xmlns:inkscape="http://www.inkscape.org/namespaces/inkscape"
   xmlns:sodipodi="http://sodipodi.sourceforge.net/DTD/sodipodi-0.dtd"
   xmlns="http://www.w3.org/2000/svg"
   xmlns:svg="http://www.w3.org/2000/svg"
   xmlns:rdf="http://www.w3.org/1999/02/22-rdf-syntax-ns#"
   xmlns:cc="http://creativecommons.org/ns#"
   xmlns:dc="http://purl.org/dc/elements/1.1/">
  <defs
     id="defs215" />
  <sodipodi:namedview
     id="base"
     pagecolor="#ffffff"
     bordercolor="#666666"
     borderopacity="1.0"
     inkscape:pageopacity="0.0"
     inkscape:pageshadow="2"
     inkscape:zoom="0.49497474"
     inkscape:cx="439.41636"
     inkscape:cy="502.04582"
     inkscape:document-units="mm"
     inkscape:current-layer="layer1"
     inkscape:document-rotation="0"
     showgrid="false"
     units="px"
     showguides="true"
     inkscape:guide-bbox="true"
     inkscape:window-width="1366"
     inkscape:window-height="740"
     inkscape:window-x="0"
     inkscape:window-y="28"
     inkscape:window-maximized="0"
     inkscape:pagecheckerboard="0"
     inkscape:snap-bbox="true"
     inkscape:bbox-nodes="true"
     inkscape:snap-midpoints="true">
    <sodipodi:guide
       position="-5.0862631e-06,52.916663"
       orientation="0,-1"
       id="guide1048" />
    <sodipodi:guide
       position="75.848259,211.66667"
       orientation="0,-1"
       id="guide144" />
    <sodipodi:guide
       position="211.66667,269.38659"
       orientation="1,0"
       id="guide146" />
    <sodipodi:guide
       position="52.916667,269.38659"
       orientation="1,0"
       id="guide148" />
    <sodipodi:guide
       position="132.29166,211.66667"
       orientation="1,0"
       id="guide133" />
    <sodipodi:guide
       position="52.916666,132.29167"
       orientation="0,-1"
       id="guide135" />
  </sodipodi:namedview>
  <metadata
     id="metadata218">
    <rdf:RDF>
      <cc:Work
         rdf:about="">
        <dc:format>image/svg+xml</dc:format>
        <dc:type
           rdf:resource="http://purl.org/dc/dcmitype/StillImage" />
      </cc:Work>
    </rdf:RDF>
  </metadata>
  <g
     inkscape:label="Layer 1"
     inkscape:groupmode="layer"
     id="layer1">
    <path
       id="rect12-1-6-31-9-4-3-4-0-9"
       style="display:inline;fill:#000000;fill-opacity:0.979723;stroke:none;stroke-width:0.302969"
       d="m 67.850968,52.916665 c -8.273688,0 -14.934301,6.660661 -14.934301,14.934219 V 196.73245 c 0,8.27356 6.660613,14.93422 14.934301,14.93422 H 196.73254 c 8.27352,0 14.93413,-6.66066 14.93413,-14.93422 V 67.850884 c 0,-8.273558 -6.66061,-14.934219 -14.93413,-14.934219 z M 169.38048,91.738004 c 1.79211,0 3.32563,0.637309 4.59969,1.911434 l 9.31667,9.317482 c 1.27406,1.27416 1.911,2.80683 1.911,4.59857 0,1.83158 -0.63694,3.38461 -1.911,4.65877 l -49.45251,49.45233 -9.25723,9.25731 c -1.27424,1.27412 -2.82734,1.91143 -4.65861,1.91143 -1.83179,0 -3.3849,-0.63731 -4.65913,-1.91143 l -9.25723,-9.25731 -24.725635,-24.72666 c -1.274056,-1.27412 -1.911525,-2.82713 -1.911525,-4.65872 0,-1.83154 0.637469,-3.38368 1.911525,-4.65785 l 9.316674,-9.25732 c 1.274055,-1.27412 2.806697,-1.91143 4.598453,-1.91143 1.831796,0 3.38437,0.63731 4.658954,1.91143 l 20.067914,20.12715 44.79339,-44.853752 c 1.27405,-1.274125 2.82716,-1.911434 4.6586,-1.911434 z" />
  </g>
</svg>
