<?xml version="1.0" encoding="UTF-8" standalone="no"?>
<svg
   width="1000"
   height="1000"
   viewBox="0 0 264.58333 264.58334"
   version="1.1"
   id="svg221"
   inkscape:version="1.1.1 (3bf5ae0d25, 2021-09-20, custom)"
   sodipodi:docname="clock.svg"
   xmlns:inkscape="http://www.inkscape.org/namespaces/inkscape"
   xmlns:sodipodi="http://sodipodi.sourceforge.net/DTD/sodipodi-0.dtd"
   xmlns="http://www.w3.org/2000/svg"
   xmlns:svg="http://www.w3.org/2000/svg"
   xmlns:rdf="http://www.w3.org/1999/02/22-rdf-syntax-ns#"
   xmlns:cc="http://creativecommons.org/ns#"
   xmlns:dc="http://purl.org/dc/elements/1.1/">
  <defs
     id="defs215" />
  <sodipodi:namedview
     id="base"
     pagecolor="#ffffff"
     bordercolor="#666666"
     borderopacity="1.0"
     inkscape:pageopacity="0.0"
     inkscape:pageshadow="2"
     inkscape:zoom="0.49497474"
     inkscape:cx="439.41636"
     inkscape:cy="502.04582"
     inkscape:document-units="mm"
     inkscape:current-layer="layer1"
     inkscape:document-rotation="0"
     showgrid="false"
     units="px"
     showguides="true"
     inkscape:guide-bbox="true"
     inkscape:window-width="1366"
     inkscape:window-height="740"
     inkscape:window-x="0"
     inkscape:window-y="28"
     inkscape:window-maximized="0"
     inkscape:pagecheckerboard="0"
     inkscape:snap-bbox="true"
     inkscape:bbox-nodes="true"
     inkscape:snap-midpoints="true">
    <sodipodi:guide
       position="-5.0862631e-06,52.916663"
       orientation="0,-1"
       id="guide1048" />
    <sodipodi:guide
       position="75.848259,211.66667"
       orientation="0,-1"
       id="guide144" />
    <sodipodi:guide
       position="211.66667,269.38659"
       orientation="1,0"
       id="guide146" />
    <sodipodi:guide
       position="52.916667,269.38659"
       orientation="1,0"
       id="guide148" />
    <sodipodi:guide
       position="132.29166,211.66667"
       orientation="1,0"
       id="guide133" />
    <sodipodi:guide
       position="52.916666,132.29167"
       orientation="0,-1"
       id="guide135" />
  </sodipodi:namedview>
  <metadata
     id="metadata218">
    <rdf:RDF>
      <cc:Work
         rdf:about="">
        <dc:format>image/svg+xml</dc:format>
        <dc:type
           rdf:resource="http://purl.org/dc/dcmitype/StillImage" />
      </cc:Work>
    </rdf:RDF>
  </metadata>
  <g
     inkscape:label="Layer 1"
     inkscape:groupmode="layer"
     id="layer1">
    <path
       id="rect12-1-6-31-9-8-8-0-7-4-2"
       style="display:inline;fill:#000000;fill-opacity:0.979723;stroke:none;stroke-width:0.302969"
       d="m 67.850918,52.916665 c -8.273484,0 -14.934251,6.660715 -14.934251,14.934318 V 196.73235 c 0,8.27362 6.660767,14.93432 14.934251,14.93432 H 196.73259 c 8.27349,0 14.93408,-6.6607 14.93408,-14.93432 V 67.850983 c 0,-8.273603 -6.66059,-14.934318 -14.93408,-14.934318 z m 64.441102,26.458656 c 15.07184,0.33126 27.57599,5.465412 37.51317,15.402826 9.93735,9.937433 15.07148,22.441753 15.40291,37.513503 -0.33143,15.0718 -5.46556,27.57611 -15.40291,37.51354 -9.93718,9.93743 -22.44133,15.0725 -37.51317,15.40376 -15.07148,-0.33126 -27.57652,-5.5075 -37.513871,-15.52771 C 84.840444,159.66096 79.706315,147.19782 79.375411,132.29165 79.706315,117.2199 84.840444,104.71558 94.778149,94.778147 104.7155,84.840733 117.22054,79.706581 132.29202,79.375321 Z m 0,10.434145 c -12.09017,0.33126 -22.1106,4.471281 -30.06077,12.421244 -7.949633,7.94995 -12.09052,17.9704 -12.421953,30.06094 0.331433,12.09059 4.47232,22.11103 12.421953,30.06099 7.95017,7.94995 17.9706,12.09092 30.06077,12.42213 12.09053,-0.33121 22.11008,-4.47218 30.06006,-12.42213 7.94982,-7.94996 12.0907,-17.9704 12.42214,-30.06099 -0.33144,-12.09054 -4.47232,-22.11099 -12.42214,-30.06094 -7.94998,-7.949963 -17.96953,-12.089984 -30.06006,-12.421244 z m -5.21721,15.899624 h 7.95017 v 27.82501 l 23.84944,14.16042 -3.97491,6.70784 -27.8247,-16.89317 z" />
  </g>
</svg>
