<?xml version="1.0" encoding="UTF-8" standalone="no"?>
<svg
   width="1000"
   height="1000"
   viewBox="0 0 264.58333 264.58334"
   version="1.1"
   id="svg221"
   inkscape:version="1.1.1 (3bf5ae0d25, 2021-09-20, custom)"
   sodipodi:docname="download disk.svg"
   xmlns:inkscape="http://www.inkscape.org/namespaces/inkscape"
   xmlns:sodipodi="http://sodipodi.sourceforge.net/DTD/sodipodi-0.dtd"
   xmlns="http://www.w3.org/2000/svg"
   xmlns:svg="http://www.w3.org/2000/svg"
   xmlns:rdf="http://www.w3.org/1999/02/22-rdf-syntax-ns#"
   xmlns:cc="http://creativecommons.org/ns#"
   xmlns:dc="http://purl.org/dc/elements/1.1/">
  <defs
     id="defs215" />
  <sodipodi:namedview
     id="base"
     pagecolor="#ffffff"
     bordercolor="#666666"
     borderopacity="1.0"
     inkscape:pageopacity="0.0"
     inkscape:pageshadow="2"
     inkscape:zoom="0.69999999"
     inkscape:cx="507.85715"
     inkscape:cy="563.57144"
     inkscape:document-units="mm"
     inkscape:current-layer="layer1"
     inkscape:document-rotation="0"
     showgrid="false"
     units="px"
     showguides="true"
     inkscape:guide-bbox="true"
     inkscape:window-width="1366"
     inkscape:window-height="740"
     inkscape:window-x="0"
     inkscape:window-y="28"
     inkscape:window-maximized="0"
     inkscape:pagecheckerboard="0"
     inkscape:snap-bbox="true"
     inkscape:bbox-nodes="true"
     inkscape:snap-midpoints="true">
    <sodipodi:guide
       position="-5.0862631e-06,52.916663"
       orientation="0,-1"
       id="guide1048" />
    <sodipodi:guide
       position="75.848259,211.66667"
       orientation="0,-1"
       id="guide144" />
    <sodipodi:guide
       position="211.66667,269.38659"
       orientation="1,0"
       id="guide146" />
    <sodipodi:guide
       position="52.916667,269.38659"
       orientation="1,0"
       id="guide148" />
    <sodipodi:guide
       position="132.29166,211.66667"
       orientation="1,0"
       id="guide133" />
    <sodipodi:guide
       position="52.916666,132.29167"
       orientation="0,-1"
       id="guide135" />
  </sodipodi:namedview>
  <metadata
     id="metadata218">
    <rdf:RDF>
      <cc:Work
         rdf:about="">
        <dc:format>image/svg+xml</dc:format>
        <dc:type
           rdf:resource="http://purl.org/dc/dcmitype/StillImage" />
      </cc:Work>
    </rdf:RDF>
  </metadata>
  <g
     inkscape:label="Layer 1"
     inkscape:groupmode="layer"
     id="layer1">
    <path
       id="rect12-1-6-31-2-9-6-9-1-1"
       style="display:inline;fill:#000000;fill-opacity:0.979723;stroke:none;stroke-width:0.302968"
       d="m 67.850918,52.916665 c -8.27366,0 -14.934251,6.660783 -14.934251,14.934286 V 196.73256 c 0,8.2735 6.660591,14.93411 14.934251,14.93411 H 196.73242 c 8.27366,0 14.93425,-6.66061 14.93425,-14.93411 V 67.850951 c 0,-8.273503 -6.66059,-14.934286 -14.93425,-14.934286 z m 56.316842,30.57589 h 16.24782 c 1.11265,0 2.05862,0.389466 2.83755,1.168574 0.8158,0.778932 1.22414,1.724551 1.22414,2.837562 v 28.489219 h 16.30302 c 1.78081,0 3.02311,0.81615 3.72831,2.44827 0.70485,1.78064 0.40834,3.26477 -0.88987,4.45187 l -28.48933,28.48938 c -0.77893,0.81597 -1.72543,1.22414 -2.83844,1.22414 -1.14987,0 -2.11419,-0.40817 -2.89312,-1.22414 l -28.48932,-28.48938 c -1.298219,-1.1871 -1.594198,-2.67123 -0.88935,-4.45187 0.29668,-0.74189 0.79745,-1.33491 1.50212,-1.78011 0.70485,-0.44521 1.46543,-0.66816 2.28123,-0.66816 h 16.24799 V 87.498691 c 0,-1.113011 0.40781,-2.05863 1.22413,-2.837562 0.81632,-0.779108 1.78046,-1.168574 2.89312,-1.168574 z M 85.496078,148.59543 H 115.0425 l 8.5684,8.56825 c 2.44827,2.37419 5.34174,3.56128 8.68006,3.56128 3.30181,0 6.17659,-1.18709 8.62503,-3.56128 l 8.68041,-8.56825 h 29.49086 c 1.7062,0 3.15346,0.59319 4.34073,1.78029 1.18674,1.18692 1.77993,2.6333 1.77993,4.33969 v 20.25469 c 0,1.70638 -0.59319,3.15259 -1.77993,4.33969 -1.18727,1.18709 -2.63453,1.78117 -4.34073,1.78117 H 85.496078 c -1.706202,0 -3.153466,-0.59408 -4.340734,-1.78117 -1.18674,-1.1871 -1.779933,-2.63331 -1.779933,-4.33969 v -20.25469 c 0,-1.70639 0.593193,-3.15277 1.779933,-4.33969 1.187268,-1.1871 2.634532,-1.78029 4.340734,-1.78029 z m 71.222522,16.24785 c -1.11266,0 -2.07679,0.40799 -2.89294,1.22414 -0.77893,0.81597 -1.16875,1.78029 -1.16875,2.89312 0,1.11284 0.38982,2.05846 1.16875,2.83756 0.81615,0.77894 1.78028,1.1684 2.89294,1.1684 1.11301,0 2.05863,-0.38946 2.83756,-1.1684 0.81614,-0.7791 1.22413,-1.72472 1.22413,-2.83756 0,-1.11283 -0.40799,-2.07715 -1.22413,-2.89312 -0.77893,-0.81615 -1.72455,-1.22414 -2.83756,-1.22414 z m 16.24799,0 c -1.11319,0 -2.07732,0.40799 -2.89347,1.22414 -0.77893,0.81597 -1.16822,1.78029 -1.16822,2.89312 0,1.11284 0.38929,2.05846 1.16822,2.83756 0.81615,0.77894 1.78028,1.1684 2.89347,1.1684 1.11248,0 2.05863,-0.38946 2.83738,-1.1684 0.81579,-0.7791 1.22413,-1.72472 1.22413,-2.83756 0,-1.11283 -0.40834,-2.07715 -1.22413,-2.89312 -0.77875,-0.81615 -1.7249,-1.22414 -2.83738,-1.22414 z" />
  </g>
</svg>
