<?xml version="1.0" encoding="UTF-8" standalone="no"?>
<svg
   width="1000"
   height="1000"
   viewBox="0 0 264.58333 264.58334"
   version="1.1"
   id="svg221"
   inkscape:version="1.1.1 (3bf5ae0d25, 2021-09-20, custom)"
   sodipodi:docname="file move from.svg"
   xmlns:inkscape="http://www.inkscape.org/namespaces/inkscape"
   xmlns:sodipodi="http://sodipodi.sourceforge.net/DTD/sodipodi-0.dtd"
   xmlns="http://www.w3.org/2000/svg"
   xmlns:svg="http://www.w3.org/2000/svg"
   xmlns:rdf="http://www.w3.org/1999/02/22-rdf-syntax-ns#"
   xmlns:cc="http://creativecommons.org/ns#"
   xmlns:dc="http://purl.org/dc/elements/1.1/">
  <defs
     id="defs215" />
  <sodipodi:namedview
     id="base"
     pagecolor="#ffffff"
     bordercolor="#666666"
     borderopacity="1.0"
     inkscape:pageopacity="0.0"
     inkscape:pageshadow="2"
     inkscape:zoom="0.69999999"
     inkscape:cx="507.85715"
     inkscape:cy="449.28572"
     inkscape:document-units="mm"
     inkscape:current-layer="layer1"
     inkscape:document-rotation="0"
     showgrid="false"
     units="px"
     showguides="true"
     inkscape:guide-bbox="true"
     inkscape:window-width="1366"
     inkscape:window-height="740"
     inkscape:window-x="0"
     inkscape:window-y="28"
     inkscape:window-maximized="0"
     inkscape:pagecheckerboard="0"
     inkscape:snap-bbox="true"
     inkscape:bbox-nodes="true"
     inkscape:snap-midpoints="true">
    <sodipodi:guide
       position="-5.0862631e-06,52.916663"
       orientation="0,-1"
       id="guide1048" />
    <sodipodi:guide
       position="75.848259,211.66667"
       orientation="0,-1"
       id="guide144" />
    <sodipodi:guide
       position="211.66667,269.38659"
       orientation="1,0"
       id="guide146" />
    <sodipodi:guide
       position="52.916667,269.38659"
       orientation="1,0"
       id="guide148" />
    <sodipodi:guide
       position="132.29166,211.66667"
       orientation="1,0"
       id="guide133" />
    <sodipodi:guide
       position="52.916666,132.29167"
       orientation="0,-1"
       id="guide135" />
  </sodipodi:namedview>
  <metadata
     id="metadata218">
    <rdf:RDF>
      <cc:Work
         rdf:about="">
        <dc:format>image/svg+xml</dc:format>
        <dc:type
           rdf:resource="http://purl.org/dc/dcmitype/StillImage" />
      </cc:Work>
    </rdf:RDF>
  </metadata>
  <g
     inkscape:label="Layer 1"
     inkscape:groupmode="layer"
     id="layer1">
    <path
       id="rect12-1-6-31-9-8-8-1-8-8-7-4-1"
       style="display:inline;fill:#000000;fill-opacity:0.979723;stroke:none;stroke-width:0.302968"
       d="m 67.850952,52.916665 c -8.273503,0 -14.934285,6.660607 -14.934285,14.934286 V 196.73238 c 0,8.27368 6.660782,14.93429 14.934285,14.93429 H 196.73238 c 8.27351,0 14.93429,-6.66061 14.93429,-14.93429 V 67.850951 c 0,-8.273679 -6.66078,-14.934286 -14.93429,-14.934286 z m 21.49964,26.458453 h 37.519068 v 37.518722 c 0,1.73513 0.64999,3.25278 1.95121,4.554 1.01229,1.30121 2.53082,1.95156 4.55488,1.95156 h 16.26532 l -17.56689,17.34974 c -2.31334,2.74707 -3.47027,5.78343 -3.47027,9.1087 0,3.61456 1.22925,6.65091 3.68723,9.10871 l 19.73523,19.73522 c 2.7469,2.45798 5.78325,3.68705 9.10852,3.68705 3.61456,0 6.65126,-1.30157 9.10888,-3.904 l 0.65105,-0.6507 v 0.86765 c 0,1.73496 -0.65158,3.25367 -1.95262,4.55488 -1.30122,1.30122 -2.81886,1.95157 -4.554,1.95157 H 89.350592 c -1.879243,0 -3.469385,-0.65035 -4.770956,-1.95157 -1.301218,-1.30121 -1.952268,-2.81992 -1.952268,-4.55488 V 85.880679 c 0,-1.734957 0.65105,-3.25278 1.952268,-4.553998 1.301571,-1.301218 2.891713,-1.951563 4.770956,-1.951563 z m 46.194028,0.216958 c 3.75867,0.578378 6.79502,2.023706 9.10836,4.337041 l 21.68696,21.687673 c 2.31334,2.31316 3.75955,5.34863 4.33792,9.10782 h -35.13324 z m 25.59027,46.843494 c 1.01212,0 1.87978,0.36195 2.60262,1.08479 l 2.3853,2.16852 c 0.72301,1.01194 1.08461,1.95174 1.08461,2.81922 0,0.86748 -0.3616,1.80728 -1.08461,2.81939 l -8.89104,8.67478 h 21.25287 c 0.86766,0 1.66282,0.36178 2.38583,1.08479 0.72284,1.01212 1.08444,1.95174 1.08444,2.81922 v 3.90313 c 0,1.01211 -0.3616,1.88047 -1.08444,2.60331 -0.57873,0.86748 -1.37353,1.30069 -2.38583,1.30069 h -21.25287 l 8.89104,8.67497 c 0.72301,1.01194 1.08461,1.95173 1.08461,2.81921 0,1.01212 -0.3616,1.87942 -1.08461,2.60244 l -2.3853,2.3853 c -0.72284,0.72302 -1.5905,1.08479 -2.60262,1.08479 -0.86712,0 -1.8071,-0.36177 -2.81939,-1.08479 l -19.51809,-19.73505 c -0.72284,-0.72302 -1.08462,-1.59032 -1.08462,-2.60244 0,-0.86748 0.36178,-1.80727 1.08462,-2.81921 l 19.51809,-19.51827 c 1.01229,-0.72284 1.95227,-1.08479 2.81939,-1.08479 z" />
  </g>
</svg>
