<?xml version="1.0" encoding="UTF-8" standalone="no"?>
<svg
   width="1000"
   height="1000"
   viewBox="0 0 264.58333 264.58334"
   version="1.1"
   id="svg221"
   inkscape:version="1.1.1 (3bf5ae0d25, 2021-09-20, custom)"
   sodipodi:docname="folder error.svg"
   xmlns:inkscape="http://www.inkscape.org/namespaces/inkscape"
   xmlns:sodipodi="http://sodipodi.sourceforge.net/DTD/sodipodi-0.dtd"
   xmlns="http://www.w3.org/2000/svg"
   xmlns:svg="http://www.w3.org/2000/svg"
   xmlns:rdf="http://www.w3.org/1999/02/22-rdf-syntax-ns#"
   xmlns:cc="http://creativecommons.org/ns#"
   xmlns:dc="http://purl.org/dc/elements/1.1/">
  <defs
     id="defs215" />
  <sodipodi:namedview
     id="base"
     pagecolor="#ffffff"
     bordercolor="#666666"
     borderopacity="1.0"
     inkscape:pageopacity="0.0"
     inkscape:pageshadow="2"
     inkscape:zoom="0.69999999"
     inkscape:cx="507.85715"
     inkscape:cy="563.57144"
     inkscape:document-units="mm"
     inkscape:current-layer="layer1"
     inkscape:document-rotation="0"
     showgrid="false"
     units="px"
     showguides="true"
     inkscape:guide-bbox="true"
     inkscape:window-width="1366"
     inkscape:window-height="740"
     inkscape:window-x="0"
     inkscape:window-y="28"
     inkscape:window-maximized="0"
     inkscape:pagecheckerboard="0"
     inkscape:snap-bbox="true"
     inkscape:bbox-nodes="true"
     inkscape:snap-midpoints="true">
    <sodipodi:guide
       position="-5.0862631e-06,52.916663"
       orientation="0,-1"
       id="guide1048" />
    <sodipodi:guide
       position="75.848259,211.66667"
       orientation="0,-1"
       id="guide144" />
    <sodipodi:guide
       position="211.66667,269.38659"
       orientation="1,0"
       id="guide146" />
    <sodipodi:guide
       position="52.916667,269.38659"
       orientation="1,0"
       id="guide148" />
    <sodipodi:guide
       position="132.29166,211.66667"
       orientation="1,0"
       id="guide133" />
    <sodipodi:guide
       position="52.916666,132.29167"
       orientation="0,-1"
       id="guide135" />
  </sodipodi:namedview>
  <metadata
     id="metadata218">
    <rdf:RDF>
      <cc:Work
         rdf:about="">
        <dc:format>image/svg+xml</dc:format>
        <dc:type
           rdf:resource="http://purl.org/dc/dcmitype/StillImage" />
      </cc:Work>
    </rdf:RDF>
  </metadata>
  <g
     inkscape:label="Layer 1"
     inkscape:groupmode="layer"
     id="layer1">
    <path
       id="rect12-1-6-31-9-8-8-1-8-8-7-1-7"
       style="display:inline;fill:#000000;fill-opacity:0.979723;stroke:none;stroke-width:0.302969"
       d="m 67.850952,52.916665 c -8.273503,0 -14.934285,6.660644 -14.934285,14.934369 V 196.7323 c 0,8.27373 6.660782,14.93437 14.934285,14.93437 H 196.73238 c 8.27351,0 14.93429,-6.66064 14.93429,-14.93437 V 67.851034 c 0,-8.273725 -6.66078,-14.934369 -14.93429,-14.934369 z m 21.958074,36.892744 h 31.800024 l 10.68314,10.683031 h 42.48177 c 2.98132,0 5.46592,1.03523 7.45365,3.10551 1.98719,2.07029 2.98078,4.5953 2.98078,7.57664 v 52.91719 c 0,2.98133 -0.99359,5.46507 -2.98078,7.45263 -1.98773,1.98738 -4.47233,3.06477 -7.45365,3.2304 H 89.809026 c -2.980789,-0.16581 -5.465045,-1.24302 -7.452238,-3.2304 -1.987722,-1.98756 -2.981671,-4.4713 -2.981671,-7.45263 v -63.59934 c 0,-2.98116 0.993949,-5.465959 2.981671,-7.453515 1.987193,-1.987381 4.471449,-3.063886 7.452238,-3.229516 z m 52.420374,29.066521 -7.45348,7.45351 11.17969,11.17974 -11.17969,11.42774 7.45348,7.45352 11.17968,-11.42863 11.4275,11.42863 7.45365,-7.45352 -11.42839,-11.42774 11.42839,-11.17974 -7.45365,-7.45351 -11.4275,11.17974 z" />
  </g>
</svg>
