<?xml version="1.0" encoding="UTF-8" standalone="no"?>
<svg
   width="1000"
   height="1000"
   viewBox="0 0 264.58333 264.58334"
   version="1.1"
   id="svg221"
   inkscape:version="1.1.1 (3bf5ae0d25, 2021-09-20, custom)"
   sodipodi:docname="G.svg"
   xmlns:inkscape="http://www.inkscape.org/namespaces/inkscape"
   xmlns:sodipodi="http://sodipodi.sourceforge.net/DTD/sodipodi-0.dtd"
   xmlns="http://www.w3.org/2000/svg"
   xmlns:svg="http://www.w3.org/2000/svg"
   xmlns:rdf="http://www.w3.org/1999/02/22-rdf-syntax-ns#"
   xmlns:cc="http://creativecommons.org/ns#"
   xmlns:dc="http://purl.org/dc/elements/1.1/">
  <defs
     id="defs215" />
  <sodipodi:namedview
     id="base"
     pagecolor="#ffffff"
     bordercolor="#666666"
     borderopacity="1.0"
     inkscape:pageopacity="0.0"
     inkscape:pageshadow="2"
     inkscape:zoom="0.24748737"
     inkscape:cx="573.76665"
     inkscape:cy="325.26912"
     inkscape:document-units="mm"
     inkscape:current-layer="layer1"
     inkscape:document-rotation="0"
     showgrid="false"
     units="px"
     showguides="true"
     inkscape:guide-bbox="true"
     inkscape:window-width="605"
     inkscape:window-height="728"
     inkscape:window-x="752"
     inkscape:window-y="32"
     inkscape:window-maximized="0"
     inkscape:pagecheckerboard="0"
     inkscape:snap-intersection-paths="true"
     inkscape:snap-bbox="true"
     inkscape:bbox-nodes="true"
     inkscape:snap-nodes="false">
    <sodipodi:guide
       position="-5.0862631e-06,52.916663"
       orientation="0,-1"
       id="guide1048" />
    <sodipodi:guide
       position="-5.0862631e-06,211.66667"
       orientation="0,-1"
       id="guide144" />
    <sodipodi:guide
       position="211.66667,269.38659"
       orientation="1,0"
       id="guide146" />
    <sodipodi:guide
       position="52.916667,269.38659"
       orientation="1,0"
       id="guide148" />
  </sodipodi:namedview>
  <metadata
     id="metadata218">
    <rdf:RDF>
      <cc:Work
         rdf:about="">
        <dc:format>image/svg+xml</dc:format>
        <dc:type
           rdf:resource="http://purl.org/dc/dcmitype/StillImage" />
      </cc:Work>
    </rdf:RDF>
  </metadata>
  <g
     inkscape:label="Layer 1"
     inkscape:groupmode="layer"
     id="layer1">
    <path
       id="rect12-1-6-31-9-4-8"
       style="display:inline;fill:#000000;fill-opacity:1;stroke:none;stroke-width:0.302969"
       d="m 67.850792,52.916665 c -8.273512,0 -14.934125,6.660678 -14.934125,14.934235 v 128.88155 c 0,8.27356 6.660613,14.93422 14.934125,14.93422 H 196.73237 c 8.27369,0 14.9343,-6.66066 14.9343,-14.93422 V 67.8509 c 0,-8.273557 -6.66061,-14.934235 -14.9343,-14.934235 z m 66.138178,26.458509 c 10.75318,0 19.40717,2.759387 25.96283,8.277438 6.55566,5.470884 10.56445,13.252868 12.02671,23.345658 H 158.3957 C 155.849,97.368269 147.73741,90.553021 134.0604,90.553021 c -9.10236,0 -16.01274,3.206903 -20.72867,9.621059 -4.66936,6.36692 -7.02715,15.61102 -7.07424,27.73184 v 8.41873 c 0,11.55485 2.6416,20.75113 7.92355,27.58969 5.28214,6.79144 12.42712,10.18706 21.43529,10.18706 5.09358,0 9.55092,-0.56531 13.37079,-1.69723 3.82041,-1.13192 6.98041,-3.04244 9.48001,-5.73069 v -23.1333 h -23.84158 v -11.03563 h 37.35296 v 37.77671 c -3.49003,4.99924 -8.37123,8.74937 -14.64361,11.24899 -6.22564,2.45243 -13.48933,3.67793 -21.79001,3.67793 -8.39487,0 -15.84605,-1.95654 -22.35462,-5.87102 -6.50857,-3.96169 -11.55487,-9.57444 -15.139089,-16.83751 -3.537651,-7.26302 -5.353044,-15.68127 -5.447235,-25.25527 v -8.98475 c 0,-15.51653 3.60803,-27.54307 10.823914,-36.079513 7.26333,-8.536446 17.45031,-12.804943 30.56111,-12.804943 z" />
  </g>
</svg>
