<?xml version="1.0" encoding="UTF-8" standalone="no"?>
<svg
   width="1000"
   height="1000"
   viewBox="0 0 264.58333 264.58334"
   version="1.1"
   id="svg221"
   inkscape:version="1.1.1 (3bf5ae0d25, 2021-09-20, custom)"
   sodipodi:docname="glob.svg"
   xmlns:inkscape="http://www.inkscape.org/namespaces/inkscape"
   xmlns:sodipodi="http://sodipodi.sourceforge.net/DTD/sodipodi-0.dtd"
   xmlns="http://www.w3.org/2000/svg"
   xmlns:svg="http://www.w3.org/2000/svg"
   xmlns:rdf="http://www.w3.org/1999/02/22-rdf-syntax-ns#"
   xmlns:cc="http://creativecommons.org/ns#"
   xmlns:dc="http://purl.org/dc/elements/1.1/">
  <defs
     id="defs215" />
  <sodipodi:namedview
     id="base"
     pagecolor="#ffffff"
     bordercolor="#666666"
     borderopacity="1.0"
     inkscape:pageopacity="0.0"
     inkscape:pageshadow="2"
     inkscape:zoom="0.49497474"
     inkscape:cx="439.41636"
     inkscape:cy="502.04582"
     inkscape:document-units="mm"
     inkscape:current-layer="layer1"
     inkscape:document-rotation="0"
     showgrid="false"
     units="px"
     showguides="true"
     inkscape:guide-bbox="true"
     inkscape:window-width="1366"
     inkscape:window-height="740"
     inkscape:window-x="0"
     inkscape:window-y="28"
     inkscape:window-maximized="0"
     inkscape:pagecheckerboard="0"
     inkscape:snap-bbox="true"
     inkscape:bbox-nodes="true"
     inkscape:snap-midpoints="true">
    <sodipodi:guide
       position="-5.0862631e-06,52.916663"
       orientation="0,-1"
       id="guide1048" />
    <sodipodi:guide
       position="75.848259,211.66667"
       orientation="0,-1"
       id="guide144" />
    <sodipodi:guide
       position="211.66667,269.38659"
       orientation="1,0"
       id="guide146" />
    <sodipodi:guide
       position="52.916667,269.38659"
       orientation="1,0"
       id="guide148" />
    <sodipodi:guide
       position="132.29166,211.66667"
       orientation="1,0"
       id="guide133" />
    <sodipodi:guide
       position="52.916666,132.29167"
       orientation="0,-1"
       id="guide135" />
  </sodipodi:namedview>
  <metadata
     id="metadata218">
    <rdf:RDF>
      <cc:Work
         rdf:about="">
        <dc:format>image/svg+xml</dc:format>
        <dc:type
           rdf:resource="http://purl.org/dc/dcmitype/StillImage" />
      </cc:Work>
    </rdf:RDF>
  </metadata>
  <g
     inkscape:label="Layer 1"
     inkscape:groupmode="layer"
     id="layer1">
    <path
       id="rect12-1-6-5-7-4-3"
       style="display:inline;fill:#000000;fill-opacity:0.979723;stroke:none;stroke-width:0.302969"
       d="m 67.850968,52.916665 c -8.273688,0 -14.934301,6.660698 -14.934301,14.934302 V 196.73237 c 0,8.2736 6.660613,14.9343 14.934301,14.9343 H 196.73254 c 8.27352,0 14.93413,-6.6607 14.93413,-14.9343 V 67.850967 c 0,-8.273604 -6.66061,-14.934302 -14.93413,-14.934302 z m 64.471122,26.457724 c 7.20055,0 14.05907,1.388239 20.57557,4.163816 6.55655,2.775595 12.18864,6.537085 16.89486,11.283674 4.70658,4.746642 8.44708,10.377521 11.22256,16.894111 2.81604,6.51654 4.22415,13.37532 4.22415,20.5757 0,7.20039 -1.40811,14.07903 -4.22415,20.63586 -2.77548,6.55676 -6.51598,12.18855 -11.22256,16.89496 -4.70622,4.7064 -10.33831,8.44703 -16.89486,11.22262 -6.5165,2.77558 -13.37502,4.16382 -20.57557,4.16382 -7.20018,0 -14.07793,-1.38824 -20.635,-4.16382 -6.51651,-2.77559 -12.14807,-6.51622 -16.894866,-11.22262 -4.706051,-4.70641 -8.467716,-10.3382 -11.283761,-16.89496 -2.7753,-6.55683 -4.16242,-13.43547 -4.16242,-20.63586 0,-7.20038 1.38712,-14.05916 4.16242,-20.5757 2.816045,-6.51659 6.57771,-12.147469 11.283761,-16.894111 4.746796,-4.746589 10.378356,-8.508079 16.894866,-11.283674 6.55707,-2.775577 13.43482,-4.163816 20.635,-4.163816 z m -5.79172,9.952868 c -0.39211,0.02258 -0.69409,0.124354 -0.90487,0.305365 -0.20126,0.321788 -0.32209,0.582756 -0.36231,0.783911 -0.0406,0.201154 0.06,0.382359 0.30198,0.543279 0.2413,0.160868 0.48207,0.301344 0.7239,0.42203 0.2413,0.120651 0.50218,0.221263 0.78352,0.301679 0.28187,0.08043 0.48313,0.161044 0.60342,0.241566 0.64365,0.402238 0.82515,0.723937 0.54328,0.965309 -1.12606,0.482708 -1.70991,0.764507 -1.75013,0.844959 -0.11994,0.160867 -0.14111,0.462687 -0.06,0.90516 0.12171,0.442473 0.0811,0.784105 -0.11994,1.025423 -0.20109,-0.241318 -0.40235,-0.643663 -0.60343,-1.206822 -0.16404,-0.458542 -0.29457,-0.782093 -0.40516,-1.027292 0.0441,0.296775 -0.54046,0.379696 -1.76742,0.243382 l -0.72372,-0.06015 c -0.16052,0 -0.52317,0.03986 -1.08656,0.120298 -0.56285,0.08043 -1.0458,0.100365 -1.44815,0.06015 -0.36212,-0.04022 -0.66357,-0.221458 -0.9054,-0.543245 -0.20108,-0.442526 -0.20108,-0.904649 0,-1.387357 0.0811,-0.08043 0.16228,-0.100365 0.24183,-0.06015 -0.20108,-0.160868 -0.46196,-0.38199 -0.78405,-0.663595 l -0.66463,-0.664477 c -2.09162,0.724079 -4.24268,1.690041 -6.4553,2.896774 0.28187,0 0.56286,-0.04075 0.8442,-0.121179 0.0794,0 0.60342,-0.280901 1.56862,-0.84406 1.48837,-0.643627 2.45427,-0.804918 2.89683,-0.48313 l 0.36213,-0.361881 c 0.52264,0.563159 0.98478,1.166693 1.38694,1.810268 -0.28134,-0.160867 -0.9846,-0.201649 -2.11084,-0.12118 -0.92498,0.241336 -1.42804,0.523172 -1.5083,0.844959 0.32156,0.643628 0.44185,1.045955 0.3616,1.20684 -0.20109,-0.08043 -0.48295,-0.281606 -0.84508,-0.603394 -0.32156,-0.32184 -0.64311,-0.582773 -0.9652,-0.78391 -0.32191,-0.201155 -0.66357,-0.342513 -1.02535,-0.422982 -0.72425,0 -1.22696,0.04075 -1.50883,0.121179 -6.75762,3.700776 -12.168522,8.808826 -16.231106,15.325356 0.321909,0.32179 0.603425,0.48313 0.845078,0.48313 0.160513,0.0804 0.261408,0.30154 0.301624,0.66355 0.08114,0.36207 0.160514,0.62394 0.241653,0.78484 0.07937,0.16087 0.341136,0.0803 0.783695,-0.24155 0.402166,0.40224 0.462844,0.84443 0.181504,1.32714 0.04057,-0.0804 1.045808,0.52308 3.017132,1.81027 0.92498,0.80455 1.40705,1.28754 1.44727,1.44844 0.0406,0.24134 -0.0194,0.50232 -0.1801,0.78393 -0.12171,0.28155 -0.28204,0.46277 -0.48313,0.54322 -0.0406,-0.16086 -0.2614,-0.38198 -0.66357,-0.66359 -0.36213,-0.28155 -0.563386,-0.38213 -0.603426,-0.30168 -0.121708,0.24134 -0.121708,0.6636 0,1.26699 0.160514,0.60339 0.422806,0.90512 0.784396,0.90516 -0.32155,0 -0.54363,0.36156 -0.664099,1.08559 -0.08114,0.72408 -0.119944,1.52877 -0.119944,2.41371 0,0.88495 -0.04057,1.44858 -0.119944,1.68996 h 0.119944 c -0.121708,0.56316 -5.29e-4,1.36784 0.361593,2.41371 0.40235,1.04587 0.90541,1.48806 1.50883,1.32716 -0.56321,0.12065 -0.16051,1.06578 1.2065,2.83574 l 0.72372,0.78479 c 0.16052,0.0804 0.44292,0.24086 0.84526,0.4822 0.44238,0.24137 0.78405,0.46244 1.02535,0.66359 0.28134,0.20114 0.52352,0.46301 0.72478,0.7848 0.16051,0.24137 0.3817,0.76422 0.66357,1.56875 0.28152,0.8045 0.60307,1.32738 0.9652,1.56872 -0.0811,0.32179 0.14111,0.80475 0.66357,1.44838 0.52264,0.64363 0.76394,1.16646 0.7239,1.5687 h -0.18062 c -0.0811,0 -0.14111,0.0399 -0.1815,0.1203 0.12171,0.32179 0.46337,0.64349 1.02623,0.96527 0.60342,0.32183 0.98513,0.60363 1.14617,0.845 0.0811,0.16087 0.12171,0.40192 0.12171,0.72371 0.0406,0.32184 0.10054,0.5837 0.18062,0.78484 0.0811,0.2011 0.26194,0.26182 0.54328,0.18142 0.0811,-0.96547 -0.46249,-2.41442 -1.62877,-4.34523 -0.28134,-0.40226 -0.66411,-1.04564 -1.14671,-1.9306 -0.12171,-0.24137 -0.26123,-0.60291 -0.42192,-1.08562 -0.12171,-0.48271 -0.22154,-0.84519 -0.3018,-1.08653 0.0811,0 0.18097,0.0408 0.3018,0.12118 0.11994,0.0804 0.26088,0.14023 0.42192,0.18049 0.20126,0.0402 0.36213,0.10089 0.48313,0.1814 0.16051,0.0804 0.28134,0.16016 0.3616,0.24063 0.11994,0.0804 0.16051,0.12118 0.11994,0.12118 -0.11994,0.24137 -0.11994,0.54313 0,0.90516 0.11995,0.36202 0.32191,0.74442 0.60343,1.14666 0.28187,0.40226 0.54363,0.74387 0.78493,1.02548 0.28151,0.28155 0.58331,0.60325 0.90487,0.96532 l 0.66375,0.66355 c 0.2413,0.24137 0.54328,0.68358 0.90541,1.32719 0.40216,0.64362 0.42192,0.9662 0.06,0.9662 0.80415,0 1.64888,0.68325 2.53364,2.0509 0.2413,0.40224 0.42281,1.00578 0.54328,1.81027 0.12171,0.80455 0.2413,1.36818 0.36213,1.68997 0.0811,0.32182 0.26141,0.62266 0.54327,0.90423 0.32156,0.2816 0.60343,0.50361 0.84473,0.66447 0.28187,0.16087 0.64311,0.34125 1.0855,0.5424 0.48312,0.2011 0.80468,0.34246 0.96555,0.42291 0.20126,0.16087 0.62353,0.42191 1.26717,0.78391 0.64347,0.36203 1.14618,0.62395 1.5083,0.78481 0.44239,0.16087 0.80504,0.24157 1.08656,0.24157 0.28187,0 0.60342,-0.0607 0.96555,-0.18142 0.40181,-0.12065 0.7239,-0.18134 0.96502,-0.18134 0.68386,-0.16087 1.34691,0.16175 1.99108,0.96619 0.68368,0.80449 1.16663,1.2866 1.44815,1.44747 1.68927,0.885 2.95645,1.16678 3.80118,0.84499 -0.0811,0 -0.06,0.16122 0.06,0.48313 0.11994,0.32179 0.30092,0.68334 0.54275,1.08559 0.2413,0.40224 0.44238,0.72394 0.60342,0.96531 0.16051,0.24134 0.28187,0.44253 0.36266,0.6034 0.20108,0.24137 0.60255,0.58393 1.20597,1.02641 0.64347,0.44247 1.0668,0.78408 1.26788,1.02542 0.21714,-0.124 0.36036,-0.27288 0.43357,-0.4448 0.0176,-0.0556 0.0229,-0.10884 0.0494,-0.15858 -0.0176,0.0552 -0.0265,0.1076 -0.0494,0.15858 -0.0512,0.30358 0.12347,0.69257 0.53163,1.16856 0.4826,0.56316 0.90488,0.80509 1.267,0.72463 0.64364,-0.0804 0.9652,-0.80538 0.9652,-2.17303 -1.40811,0.64362 -2.53418,0.24216 -3.3789,-1.20594 0,-0.0804 -0.06,-0.22183 -0.18151,-0.42293 l -0.24041,-0.60343 -0.24166,-0.60345 c -0.0406,-0.2011 -0.0406,-0.36151 0,-0.48219 0.0406,-0.12066 0.16052,-0.18135 0.3616,-0.18135 0.40234,0 0.62354,-0.0806 0.66375,-0.24157 0.0811,-0.16086 0.0406,-0.46268 -0.11994,-0.90516 -0.12171,-0.44247 -0.20161,-0.74424 -0.24183,-0.9051 -0.0406,-0.32184 -0.30198,-0.76404 -0.78493,-1.32721 -0.44238,-0.56316 -0.70326,-0.92471 -0.7837,-1.08563 -0.24165,0.40229 -0.62389,0.58258 -1.14653,0.5424 -0.48313,-0.0402 -0.84437,-0.22056 -1.08602,-0.5424 l -0.12171,0.30172 c -0.0406,0.20115 -0.06,0.34158 -0.06,0.42204 h -1.0257 c 0.0406,-0.16086 0.0811,-0.58314 0.11994,-1.267 0.0811,-0.68385 0.16228,-1.18675 0.24183,-1.50854 0.0406,-0.24139 0.16051,-0.54315 0.3616,-0.90516 0.2413,-0.36202 0.42298,-0.68372 0.54327,-0.96533 0.11995,-0.28155 0.20162,-0.56338 0.24183,-0.84495 0.0811,-0.28156 -5.3e-4,-0.50268 -0.24183,-0.6636 -0.2413,-0.16087 -0.64346,-0.20077 -1.20685,-0.1203 -0.84472,0 -1.44815,0.44221 -1.81027,1.32721 -0.0811,0.16087 -0.16052,0.36206 -0.2413,0.60339 -0.0406,0.24138 -0.0811,0.44251 -0.11995,0.60343 -0.0406,0.16087 -0.12171,0.32128 -0.2413,0.4822 -0.11994,0.16087 -0.3018,0.28235 -0.54363,0.36276 -0.32155,0.16087 -0.88441,0.22075 -1.68892,0.18052 -0.76394,-0.0402 -1.30686,-0.18071 -1.62877,-0.42203 -0.64365,-0.32184 -1.18728,-0.96519 -1.62966,-1.93058 -0.40234,-0.96547 -0.6036,-1.85079 -0.6036,-2.65528 0,-0.40226 0.06,-0.98581 0.18168,-1.75012 0.11994,-0.76432 0.18097,-1.34693 0.18097,-1.74919 0.0406,-0.40229 -0.0811,-0.96592 -0.36265,-1.68995 0.12171,-0.16087 0.32209,-0.40197 0.6036,-0.72376 0.32156,-0.32182 0.56374,-0.52298 0.72478,-0.60343 0.0811,-0.0804 0.26035,-0.14111 0.54222,-0.18142 0.28134,-0.0402 0.46249,-0.2205 0.54328,-0.54234 -0.0406,0 -0.10054,-0.0408 -0.18062,-0.12118 -0.0811,-0.0804 -0.16052,-0.14023 -0.2413,-0.18052 l -0.12171,-0.061 c 0.32156,0.16087 0.96608,0.14094 1.9311,-0.0602 1.00577,-0.20114 1.64941,-0.18121 1.93075,0.0602 0.68369,0.48271 1.18692,0.44284 1.50883,-0.1203 l -0.1815,-0.66358 c -0.11995,-0.44248 -0.11995,-0.74424 0,-0.90516 0.20108,1.20678 0.86518,1.40797 1.99143,0.60344 0.16051,0.16087 0.52264,0.28141 1.08602,0.36188 0.56268,0.0804 0.96502,0.20096 1.20685,0.36187 0.11995,0.0804 0.26176,0.20096 0.42281,0.36187 0.20108,0.16087 0.34167,0.2615 0.42192,0.30171 0.0811,0.0402 0.20109,0.0203 0.36213,-0.0601 0.16051,-0.0804 0.34202,-0.24086 0.54328,-0.48218 0.48242,0.80448 0.76429,1.36724 0.84472,1.68902 0.40217,1.76995 0.84473,2.77577 1.32715,3.01709 0.60343,0.40231 0.94509,0.24097 1.02535,-0.48307 0.11994,-0.72408 0.10054,-1.32757 -0.06,-1.81027 l -0.06,-0.60343 c -0.0406,-0.40226 -0.06,-0.8037 -0.06,-1.20596 l -0.06,-0.60338 c -0.52317,-0.0804 -0.90435,-0.26173 -1.14617,-0.54328 -0.20073,-0.28156 -0.28134,-0.58332 -0.2413,-0.90516 0.0811,-0.32179 0.22083,-0.64349 0.42192,-0.96528 0.2413,-0.32182 0.52317,-0.64347 0.84525,-0.96531 0.0406,0 0.22119,-0.0806 0.5431,-0.24156 0.32156,-0.16087 0.66322,-0.32216 1.02535,-0.48308 0.40234,-0.16087 0.70432,-0.32128 0.9054,-0.4822 0.9652,-0.88494 1.30687,-1.68961 1.02535,-2.41369 0.40234,0 0.6641,-0.20116 0.78458,-0.60345 -0.0406,0 -0.16052,-0.0607 -0.36178,-0.18136 l -0.48295,-0.36188 c -0.16051,-0.12065 -0.26141,-0.18047 -0.30197,-0.18047 0.44291,-0.24137 0.48348,-0.60385 0.1217,-1.08656 0.20109,-0.16087 0.3616,-0.42185 0.48207,-0.78391 0.12171,-0.36202 0.30198,-0.58402 0.54328,-0.66449 0.40234,0.52294 0.86483,0.58365 1.38747,0.18141 0.44239,-0.36202 0.48349,-0.74443 0.12171,-1.14669 0.2413,-0.32182 0.72425,-0.56287 1.44815,-0.72374 0.72426,-0.16087 1.14671,-0.36206 1.267,-0.60345 0.28187,0.0804 0.44203,0.0198 0.48207,-0.1814 0.0811,-0.2011 0.10055,-0.482 0.06,-0.84407 0,-0.36201 0.0811,-0.62388 0.24165,-0.7848 0.20126,-0.24133 0.54275,-0.44252 1.02535,-0.60344 0.4826,-0.16087 0.78457,-0.28141 0.9054,-0.36186 l 1.20685,-0.78481 c 0.16051,-0.16087 0.16051,-0.26148 0,-0.30172 0.76394,0.12065 1.44815,-0.1203 2.05158,-0.72376 0.52317,-0.52292 0.40234,-1.00591 -0.3616,-1.44839 0.11994,-0.24133 0.0406,-0.44252 -0.24183,-0.60339 -0.2413,-0.16087 -0.56285,-0.28147 -0.96502,-0.36188 0.11994,-0.0804 0.38117,-0.10037 0.78352,-0.0601 0.40234,0.0402 0.64452,0.0203 0.72478,-0.0602 0.72425,-0.48274 0.56285,-0.84519 -0.48295,-1.08656 -0.7239,-0.24134 -1.70921,6e-4 -2.9561,0.72468 -0.0811,0.0804 -0.30251,0.32147 -0.66463,0.72371 -0.36213,0.40229 -0.6627,0.60344 -0.904,0.60344 0.11995,0 0.2212,-0.10054 0.30145,-0.30171 0.12171,-0.2011 0.22031,-0.44216 0.3011,-0.72376 0.11994,-0.28155 0.20108,-0.46278 0.2413,-0.54323 0.16051,-0.16087 0.68368,-0.48262 1.56897,-0.96533 0.80416,-0.32178 1.99143,-0.60362 3.56006,-0.84495 1.52876,-0.40224 2.69504,-0.16122 3.49973,0.72376 -0.0811,-0.0804 0.14111,-0.38222 0.66304,-0.90516 0.56339,-0.52295 0.90593,-0.78391 1.02676,-0.78391 0.11994,-0.0804 0.44238,-0.18103 0.9652,-0.30172 0.56321,-0.12065 0.92445,-0.30191 1.08549,-0.54324 l 0.12171,-1.56876 c -0.52317,0.0804 -0.92551,-0.0799 -1.20685,-0.48219 -0.2413,-0.40224 -0.38276,-0.88523 -0.4228,-1.44839 0,0.0804 -0.14111,0.28166 -0.42245,0.60345 0,-0.32179 -0.10055,-0.50307 -0.30145,-0.5433 -0.20109,-0.0402 -0.46196,-0.0203 -0.78405,0.0602 -0.32156,0.0804 -0.54363,0.0804 -0.66463,0 -0.48243,-0.0804 -0.82409,-0.24083 -1.02535,-0.4822 -0.20108,-0.24132 -0.36107,-0.62373 -0.48207,-1.14667 -0.12171,-0.52294 -0.22119,-0.86456 -0.30198,-1.02548 -0.11994,-0.16087 -0.34254,-0.38287 -0.6641,-0.66448 -0.32191,-0.28157 -0.5431,-0.54253 -0.66358,-0.78391 l -0.18062,-0.36188 c -0.0811,-0.16086 -0.16051,-0.30224 -0.24165,-0.42293 -0.0406,-0.12065 -0.12171,-0.24117 -0.2413,-0.36186 -0.12171,-0.12065 -0.2413,-0.18048 -0.36177,-0.18048 -0.11995,0 -0.2824,0.12047 -0.48348,0.36188 -0.20109,0.24134 -0.38136,0.46244 -0.54222,0.66354 -0.16052,0.20116 -0.26141,0.30173 -0.30163,0.30173 -0.16051,-0.0804 -0.30233,-0.12029 -0.4228,-0.12029 -0.12171,0 -0.22172,0.0199 -0.30198,0.0602 -0.0811,0.0402 -0.20108,0.11994 -0.3616,0.24063 l -0.30197,0.30171 c -0.16052,0.0804 -0.36213,0.14111 -0.60343,0.18142 -0.2413,0.0402 -0.42245,0.0601 -0.54328,0.0601 0.68369,-0.20114 0.62407,-0.46207 -0.18062,-0.78391 -0.40181,-0.16087 -0.74348,-0.22159 -1.02535,-0.1814 0.44256,-0.16087 0.62319,-0.42186 0.5424,-0.78388 -0.0811,-0.36206 -0.28152,-0.66377 -0.60343,-0.90516 h 0.36213 c -0.0406,-0.16087 -0.24077,-0.36206 -0.60254,-0.60343 -0.32191,-0.24133 -0.72426,-0.46246 -1.20685,-0.66356 -0.48296,-0.20113 -0.78458,-0.34249 -0.90541,-0.42296 -0.32155,-0.24132 -1.08638,-0.462445 -2.2934,-0.663599 -1.20686,-0.201102 -1.97027,-0.18117 -2.29235,0.06015 -0.2413,0.241371 -0.3616,0.483309 -0.3616,0.724679 0.0406,0.24134 0.14111,0.56302 0.30145,0.96527 0.16051,0.4023 0.24077,0.6832 0.24077,0.84406 0.0406,0.24139 -0.10054,0.54316 -0.42192,0.90516 -0.28187,0.36203 -0.42228,0.62393 -0.42228,0.78481 0,0.32183 0.32191,0.68339 0.96556,1.08563 0.68368,0.40224 0.92445,0.88523 0.72337,1.44839 -0.11995,0.40225 -0.48207,0.78467 -1.0855,1.14669 -0.60343,0.36205 -0.98566,0.62302 -1.1467,0.78391 -0.20109,0.40224 -0.22119,0.84536 -0.06,1.32807 0.16051,0.48271 0.40216,0.84431 0.72372,1.08564 0.0811,0.16087 0.10054,0.28141 0.06,0.36186 0,0.0804 -0.0811,0.18105 -0.24183,0.30174 -0.11994,0.12065 -0.24077,0.22126 -0.3616,0.30171 -0.1217,0.0804 -0.2614,0.16104 -0.42192,0.24151 l -0.24183,0.1203 c -0.52264,0.24132 -1.00559,0.1009 -1.44815,-0.42205 -0.40216,-0.52292 -0.70326,-1.14639 -0.90434,-1.87047 l -0.0617,-0.30167 c -0.0406,-0.20114 -0.0794,-0.34162 -0.11994,-0.42203 0,-0.0804 -0.0388,-0.201 -0.11995,-0.36189 -0.0406,-0.16086 -0.10054,-0.28234 -0.1815,-0.36279 -0.0406,-0.0804 -0.12171,-0.18105 -0.24165,-0.30174 -0.11995,-0.12065 -0.24095,-0.22126 -0.36178,-0.30166 -1.08602,-0.32184 -1.7496,-0.28106 -1.9909,0.12118 -0.2413,-0.64357 -1.18727,-1.24711 -2.83651,-1.81027 -1.04598,-0.40225 -2.37313,-0.4829 -3.98232,-0.24156 0.28134,-0.0402 0.28134,-0.40178 0,-1.08559 -0.40235,-0.64363 -0.84438,-0.92546 -1.32733,-0.84499 0.12171,-0.16087 0.20161,-0.36208 0.24183,-0.6034 0.0406,-0.24139 0.06,-0.52322 0.06,-0.84501 0,-0.32179 0.0194,-0.56284 0.06,-0.72374 0.11995,-0.56318 0.38224,-1.08602 0.78458,-1.56872 0.0406,-0.0804 0.20073,-0.28161 0.48207,-0.603433 0.28187,-0.321787 0.50394,-0.623554 0.66463,-0.905125 0.20109,-0.281606 0.22119,-0.42203 0.06,-0.42203 1.60919,0.160868 2.75536,-0.08114 3.43905,-0.724678 0.20108,-0.241337 0.44238,-0.643681 0.72389,-1.20684 0.32191,-0.563159 0.58385,-0.924722 0.78493,-1.085625 0.40235,-0.321787 0.7239,-0.463163 0.9652,-0.422929 0.24131,0.04022 0.5828,0.161749 1.02536,0.362763 0.44273,0.201155 0.76429,0.301714 0.96555,0.301714 0.64346,0.08043 1.00612,-0.161396 1.08638,-0.724626 0.0811,-0.563176 -0.10055,-1.005367 -0.5431,-1.327207 0.52263,0 0.62335,-0.362428 0.30144,-1.086507 -0.20126,-0.442473 -0.40234,-0.683527 -0.60342,-0.723762 -0.52282,-0.160867 -1.12624,-0.06033 -1.81046,0.301715 -0.44238,0.201154 -0.42139,0.382377 0.0617,0.543297 -0.0406,0 -0.26229,0.260968 -0.66464,0.783911 -0.40181,0.522924 -0.78352,0.905301 -1.14564,1.146673 -0.32156,0.241318 -0.68421,0.120826 -1.08656,-0.361881 -0.0406,0 -0.16051,-0.301767 -0.36159,-0.905161 -0.20109,-0.60334 -0.42245,-0.905107 -0.66375,-0.905107 -0.40217,0 -0.76483,0.361545 -1.08638,1.085624 0.16051,-0.402291 -0.10054,-0.763837 -0.78405,-1.085624 -0.64364,-0.321788 -1.18727,-0.522978 -1.62965,-0.603447 0.88476,-0.563158 0.70467,-1.16664 -0.5424,-1.810268 -0.32191,-0.241336 -0.80504,-0.381812 -1.4485,-0.422029 -0.1517,-0.01058 -0.29122,-0.01058 -0.42193,-0.0035 z m 21.54818,66.526253 c -0.0759,0 -0.15875,0.0106 -0.24871,0.03 -0.36213,0.0804 -0.644,0.18103 -0.84526,0.30171 -0.16051,0.12065 -0.4228,0.30191 -0.7844,0.54328 -0.32208,0.24134 -0.52317,0.40266 -0.60342,0.48308 -0.0811,0.0804 -0.26088,0.20101 -0.5424,0.36188 -0.28187,0.16087 -0.48295,0.32221 -0.60342,0.48311 -0.12171,0.16087 -0.26229,0.44184 -0.42334,0.84408 -0.16051,0.40224 -0.28134,0.64418 -0.36159,0.72465 -0.0794,-0.16087 -0.34167,-0.30228 -0.78405,-0.42293 -0.44238,-0.12065 -0.66463,-0.22127 -0.66463,-0.30172 0.0811,0.48271 0.18115,1.28738 0.30197,2.41372 0.11995,1.12628 0.24219,1.97085 0.36266,2.53397 0.28187,1.44816 0,2.5745 -0.84473,3.37903 -1.24706,1.12633 -1.91152,2.05151 -1.99195,2.77554 -0.16052,0.96547 0.10054,1.52908 0.7851,1.68997 0,0.32182 -0.1815,0.80388 -0.54327,1.4475 -0.36213,0.64361 -0.52264,1.1266 -0.4826,1.44839 0,0.0804 0.06,0.4828 0.18062,1.20688 9.45302,-1.60903 17.51875,-5.95319 24.19629,-13.0329 -0.16051,-0.16086 -0.46249,-0.28141 -0.9054,-0.36186 -0.40181,-0.0804 -0.68368,-0.16104 -0.84473,-0.24157 l -1.62877,-0.60344 c 0.0406,-0.32179 -0.0406,-0.62356 -0.24165,-0.90511 -0.16052,-0.2816 -0.3422,-0.48276 -0.54328,-0.60345 -0.16051,-0.12065 -0.44291,-0.3019 -0.84525,-0.54327 l -0.72337,-0.4822 c -0.0811,-0.0804 -0.30145,-0.24174 -0.66358,-0.48308 -0.32208,-0.24137 -0.52317,-0.38179 -0.60342,-0.42203 -0.0406,-0.0402 -0.26141,-0.12083 -0.66375,-0.24156 -0.36213,-0.12065 -0.644,-0.10072 -0.84508,0.0601 h -0.1801 c -0.1217,0.0804 -0.24235,0.14112 -0.36318,0.1814 -0.11994,0.0402 -0.26088,0.10002 -0.42192,0.18047 -0.12171,0.0804 -0.20108,0.14111 -0.24165,0.18141 -0.0406,0.0402 -0.0406,0.10002 0,0.18047 -0.84473,-0.72408 -1.6891,-1.20614 -2.53383,-1.44751 -0.20108,-0.0804 -0.46284,-0.22182 -0.78493,-0.42293 -0.28134,-0.20113 -0.52264,-0.36149 -0.72372,-0.48217 -0.16051,-0.12065 -0.38188,-0.1614 -0.66375,-0.12118 -0.28134,0.0402 -0.54328,0.22144 -0.78458,0.54328 -0.20108,0.16086 -0.32138,0.48256 -0.36212,0.96527 -0.0406,0.48271 -0.10054,0.80439 -0.1801,0.96531 -0.32208,-0.24137 -0.34254,-0.64278 -0.0617,-1.20594 0.32155,-0.56316 0.38276,-1.0063 0.18168,-1.32809 -0.09,-0.18103 -0.24889,-0.27161 -0.47519,-0.27161 z" />
  </g>
</svg>
