<?xml version="1.0" encoding="UTF-8" standalone="no"?>
<svg
   width="1000"
   height="1000"
   viewBox="0 0 264.58333 264.58334"
   version="1.1"
   id="svg221"
   inkscape:version="1.1.1 (3bf5ae0d25, 2021-09-20, custom)"
   sodipodi:docname="headphone on.svg"
   xmlns:inkscape="http://www.inkscape.org/namespaces/inkscape"
   xmlns:sodipodi="http://sodipodi.sourceforge.net/DTD/sodipodi-0.dtd"
   xmlns="http://www.w3.org/2000/svg"
   xmlns:svg="http://www.w3.org/2000/svg"
   xmlns:rdf="http://www.w3.org/1999/02/22-rdf-syntax-ns#"
   xmlns:cc="http://creativecommons.org/ns#"
   xmlns:dc="http://purl.org/dc/elements/1.1/">
  <defs
     id="defs215" />
  <sodipodi:namedview
     id="base"
     pagecolor="#ffffff"
     bordercolor="#666666"
     borderopacity="1.0"
     inkscape:pageopacity="0.0"
     inkscape:pageshadow="2"
     inkscape:zoom="0.69999999"
     inkscape:cx="507.85715"
     inkscape:cy="449.28572"
     inkscape:document-units="mm"
     inkscape:current-layer="layer1"
     inkscape:document-rotation="0"
     showgrid="false"
     units="px"
     showguides="true"
     inkscape:guide-bbox="true"
     inkscape:window-width="1366"
     inkscape:window-height="740"
     inkscape:window-x="0"
     inkscape:window-y="28"
     inkscape:window-maximized="0"
     inkscape:pagecheckerboard="0"
     inkscape:snap-bbox="true"
     inkscape:bbox-nodes="true"
     inkscape:snap-midpoints="true">
    <sodipodi:guide
       position="-5.0862631e-06,52.916663"
       orientation="0,-1"
       id="guide1048" />
    <sodipodi:guide
       position="75.848259,211.66667"
       orientation="0,-1"
       id="guide144" />
    <sodipodi:guide
       position="211.66667,269.38659"
       orientation="1,0"
       id="guide146" />
    <sodipodi:guide
       position="52.916667,269.38659"
       orientation="1,0"
       id="guide148" />
    <sodipodi:guide
       position="132.29166,211.66667"
       orientation="1,0"
       id="guide133" />
    <sodipodi:guide
       position="52.916666,132.29167"
       orientation="0,-1"
       id="guide135" />
  </sodipodi:namedview>
  <metadata
     id="metadata218">
    <rdf:RDF>
      <cc:Work
         rdf:about="">
        <dc:format>image/svg+xml</dc:format>
        <dc:type
           rdf:resource="http://purl.org/dc/dcmitype/StillImage" />
      </cc:Work>
    </rdf:RDF>
  </metadata>
  <g
     inkscape:label="Layer 1"
     inkscape:groupmode="layer"
     id="layer1">
    <path
       id="rect12-1-6-31-0-1-0-3-0-3"
       style="display:inline;fill:#000000;fill-opacity:0.979723;stroke:none;stroke-width:0.302969"
       d="m 67.850792,52.916665 c -8.273512,0 -14.934125,6.66082 -14.934125,14.934369 V 196.7323 c 0,8.27355 6.660613,14.93437 14.934125,14.93437 H 196.73237 c 8.27369,0 14.9343,-6.66082 14.9343,-14.93437 V 67.851034 c 0,-8.273549 -6.66061,-14.934369 -14.9343,-14.934369 z m 64.441318,26.457718 c 14.25009,0.347664 26.06725,5.213721 35.45166,14.597995 9.38423,9.384272 14.24991,21.201492 14.59775,35.451642 v 39.10148 c -0.17462,4.69197 -1.82527,8.60217 -4.95317,11.73026 -3.12825,3.12809 -7.03826,4.77839 -11.73038,4.95231 h -16.68249 v -44.57521 h 22.15689 v -11.20884 c -0.17286,-10.94832 -3.91001,-20.07207 -11.20862,-27.37106 -7.29914,-7.298824 -16.5098,-11.122066 -27.63164,-11.469554 -11.12219,0.347488 -20.33303,4.17073 -27.63164,11.469554 -7.299145,7.29899 -11.035057,16.42274 -11.208977,27.37106 v 11.20884 h 22.158127 v 44.57521 H 98.926245 c -4.692115,-0.17463 -8.602652,-1.82422 -11.730377,-4.95231 -3.128253,-3.12809 -4.779428,-7.03829 -4.952994,-11.73026 v -39.10148 c 0.347133,-14.25015 5.213344,-26.06737 14.597752,-35.451642 9.384234,-9.384274 21.201394,-14.250331 35.451484,-14.597995 z" />
  </g>
</svg>
