<?xml version="1.0" encoding="UTF-8" standalone="no"?>
<svg
   width="1000"
   height="1000"
   viewBox="0 0 264.58333 264.58334"
   version="1.1"
   id="svg221"
   inkscape:version="1.1.1 (3bf5ae0d25, 2021-09-20, custom)"
   sodipodi:docname="light.svg"
   xmlns:inkscape="http://www.inkscape.org/namespaces/inkscape"
   xmlns:sodipodi="http://sodipodi.sourceforge.net/DTD/sodipodi-0.dtd"
   xmlns="http://www.w3.org/2000/svg"
   xmlns:svg="http://www.w3.org/2000/svg"
   xmlns:rdf="http://www.w3.org/1999/02/22-rdf-syntax-ns#"
   xmlns:cc="http://creativecommons.org/ns#"
   xmlns:dc="http://purl.org/dc/elements/1.1/">
  <defs
     id="defs215" />
  <sodipodi:namedview
     id="base"
     pagecolor="#ffffff"
     bordercolor="#666666"
     borderopacity="1.0"
     inkscape:pageopacity="0.0"
     inkscape:pageshadow="2"
     inkscape:zoom="0.49497474"
     inkscape:cx="439.41636"
     inkscape:cy="502.04582"
     inkscape:document-units="mm"
     inkscape:current-layer="layer1"
     inkscape:document-rotation="0"
     showgrid="false"
     units="px"
     showguides="true"
     inkscape:guide-bbox="true"
     inkscape:window-width="1366"
     inkscape:window-height="740"
     inkscape:window-x="0"
     inkscape:window-y="28"
     inkscape:window-maximized="0"
     inkscape:pagecheckerboard="0"
     inkscape:snap-bbox="true"
     inkscape:bbox-nodes="true"
     inkscape:snap-midpoints="true">
    <sodipodi:guide
       position="-5.0862631e-06,52.916663"
       orientation="0,-1"
       id="guide1048" />
    <sodipodi:guide
       position="75.848259,211.66667"
       orientation="0,-1"
       id="guide144" />
    <sodipodi:guide
       position="211.66667,269.38659"
       orientation="1,0"
       id="guide146" />
    <sodipodi:guide
       position="52.916667,269.38659"
       orientation="1,0"
       id="guide148" />
    <sodipodi:guide
       position="132.29166,211.66667"
       orientation="1,0"
       id="guide133" />
    <sodipodi:guide
       position="52.916666,132.29167"
       orientation="0,-1"
       id="guide135" />
  </sodipodi:namedview>
  <metadata
     id="metadata218">
    <rdf:RDF>
      <cc:Work
         rdf:about="">
        <dc:format>image/svg+xml</dc:format>
        <dc:type
           rdf:resource="http://purl.org/dc/dcmitype/StillImage" />
      </cc:Work>
    </rdf:RDF>
  </metadata>
  <g
     inkscape:label="Layer 1"
     inkscape:groupmode="layer"
     id="layer1">
    <path
       id="rect12-1-6-31-9-4-3-2-2-9"
       style="display:inline;fill:#000000;fill-opacity:0.979723;stroke:none;stroke-width:0.302969"
       d="m 67.850968,52.916665 c -8.273688,0 -14.934301,6.660678 -14.934301,14.934235 v 128.88155 c 0,8.27356 6.660613,14.93422 14.934301,14.93422 H 196.73254 c 8.27352,0 14.93413,-6.66066 14.93413,-14.93422 V 67.8509 c 0,-8.273557 -6.66061,-14.934235 -14.93413,-14.934235 z m 59.711272,26.458509 h 9.45797 v 14.411032 h -9.45797 z m -29.272581,12.159591 10.132471,10.133295 -6.75498,6.75522 -10.132473,-10.133293 z m 68.003491,0 6.75551,6.755222 -10.13336,10.133293 -6.75551,-6.75522 z m -34.00193,11.934415 c 8.10648,0.1501 14.89921,2.96495 20.37872,8.44428 5.47899,5.47928 8.29415,12.27234 8.44444,20.37868 0,5.40424 -1.31375,10.28272 -3.94088,14.63615 -2.62696,4.35342 -6.11698,7.80644 -10.47026,10.35843 v 8.55638 c 0,1.35108 -0.45137,2.47736 -1.35202,3.37807 -0.90081,0.90073 -2.026,1.42589 -3.37696,1.57603 h -19.36519 c -1.35096,-0.15011 -2.47755,-0.6753 -3.37837,-1.57603 -0.90064,-0.90071 -1.35061,-2.02699 -1.35061,-3.37807 v -8.55638 c -4.35327,-2.55199 -7.84365,-6.00501 -10.47078,-10.35843 -2.62696,-4.35343 -3.94017,-9.23191 -3.94017,-14.63615 0.14993,-8.10634 2.96386,-14.8994 8.44337,-20.37868 5.47899,-5.47933 12.27224,-8.29414 20.37871,-8.44428 z m -52.91625,24.09404 h 14.411133 v 9.45695 H 79.37497 Z m 91.42138,0 h 14.41149 v 9.45695 h -14.41149 z m -48.18728,47.9629 h 19.36519 v 4.72799 c -0.14993,1.35109 -0.67539,2.47736 -1.57603,3.37807 -0.90082,0.90073 -2.02688,1.42591 -3.37802,1.57603 h -9.45797 c -1.35113,-0.1501 -2.47632,-0.6753 -3.37713,-1.57603 -0.90065,-0.90071 -1.42611,-2.02698 -1.57604,-3.37807 z" />
  </g>
</svg>
