<?xml version="1.0" encoding="UTF-8" standalone="no"?>
<svg
   width="1000"
   height="1000"
   viewBox="0 0 264.58333 264.58334"
   version="1.1"
   id="svg221"
   inkscape:version="1.1.1 (3bf5ae0d25, 2021-09-20, custom)"
   sodipodi:docname="mic.svg"
   xmlns:inkscape="http://www.inkscape.org/namespaces/inkscape"
   xmlns:sodipodi="http://sodipodi.sourceforge.net/DTD/sodipodi-0.dtd"
   xmlns="http://www.w3.org/2000/svg"
   xmlns:svg="http://www.w3.org/2000/svg"
   xmlns:rdf="http://www.w3.org/1999/02/22-rdf-syntax-ns#"
   xmlns:cc="http://creativecommons.org/ns#"
   xmlns:dc="http://purl.org/dc/elements/1.1/">
  <defs
     id="defs215" />
  <sodipodi:namedview
     id="base"
     pagecolor="#ffffff"
     bordercolor="#666666"
     borderopacity="1.0"
     inkscape:pageopacity="0.0"
     inkscape:pageshadow="2"
     inkscape:zoom="0.49497474"
     inkscape:cx="439.41636"
     inkscape:cy="502.04582"
     inkscape:document-units="mm"
     inkscape:current-layer="layer1"
     inkscape:document-rotation="0"
     showgrid="false"
     units="px"
     showguides="true"
     inkscape:guide-bbox="true"
     inkscape:window-width="1366"
     inkscape:window-height="740"
     inkscape:window-x="0"
     inkscape:window-y="28"
     inkscape:window-maximized="0"
     inkscape:pagecheckerboard="0"
     inkscape:snap-bbox="true"
     inkscape:bbox-nodes="true"
     inkscape:snap-midpoints="true">
    <sodipodi:guide
       position="-5.0862631e-06,52.916663"
       orientation="0,-1"
       id="guide1048" />
    <sodipodi:guide
       position="75.848259,211.66667"
       orientation="0,-1"
       id="guide144" />
    <sodipodi:guide
       position="211.66667,269.38659"
       orientation="1,0"
       id="guide146" />
    <sodipodi:guide
       position="52.916667,269.38659"
       orientation="1,0"
       id="guide148" />
    <sodipodi:guide
       position="132.29166,211.66667"
       orientation="1,0"
       id="guide133" />
    <sodipodi:guide
       position="52.916666,132.29167"
       orientation="0,-1"
       id="guide135" />
  </sodipodi:namedview>
  <metadata
     id="metadata218">
    <rdf:RDF>
      <cc:Work
         rdf:about="">
        <dc:format>image/svg+xml</dc:format>
        <dc:type
           rdf:resource="http://purl.org/dc/dcmitype/StillImage" />
      </cc:Work>
    </rdf:RDF>
  </metadata>
  <g
     inkscape:label="Layer 1"
     inkscape:groupmode="layer"
     id="layer1">
    <path
       id="rect12-1-6-31-2-9-6-9-7"
       style="display:inline;fill:#000000;fill-opacity:0.979723;stroke:none;stroke-width:0.302968"
       d="m 67.850918,52.916665 c -8.27366,0 -14.934251,6.660678 -14.934251,14.934235 v 128.88155 c 0,8.27356 6.660591,14.93422 14.934251,14.93422 H 196.73242 c 8.27366,0 14.93425,-6.66066 14.93425,-14.93422 V 67.8509 c 0,-8.273557 -6.66059,-14.934235 -14.93425,-14.934235 z M 132.2638,79.375174 c 5.60138,0 10.38626,1.984812 14.35552,5.953995 4.00613,3.969201 6.00972,8.772507 6.00972,14.411031 v 32.49636 c 0,5.63846 -2.00359,10.44177 -6.00972,14.411 -3.96926,3.96921 -8.75414,5.95402 -14.35552,5.95402 -5.60121,0 -10.38715,-1.98481 -14.35641,-5.95402 -3.96926,-3.96923 -5.95398,-8.77254 -5.95398,-14.411 V 99.7402 c 0,-5.638524 1.98472,-10.44183 5.95398,-14.411031 3.96926,-3.969183 8.7552,-5.953995 14.35641,-5.953995 z M 99.712959,120.10614 c 1.112661,0 2.058621,0.38956 2.837551,1.16856 0.81615,0.779 1.22414,1.72467 1.22414,2.83754 v 8.12432 c 0,3.85787 0.74189,7.54808 2.22566,11.07215 1.52082,3.52404 3.56128,6.56648 6.12102,9.12606 2.55939,2.55954 5.58269,4.58135 9.06935,6.06517 3.52388,1.48385 7.21498,2.22502 11.07312,2.22502 3.85779,0 7.53071,-0.74117 11.01738,-2.22502 3.52388,-1.48382 6.56587,-3.50563 9.12526,-6.06517 2.55922,-2.55958 4.5815,-5.60202 6.06511,-9.12606 1.52099,-3.52407 2.28158,-7.21428 2.28158,-11.07215 v -8.12432 c 0,-1.11287 0.38928,-2.05854 1.16857,-2.83754 0.81579,-0.779 1.78011,-1.16856 2.89311,-1.16856 1.11266,0 2.0768,0.38956 2.89312,1.16856 0.81615,0.779 1.22414,1.72467 1.22414,2.83754 v 8.12432 c 0,4.67399 -0.85319,9.12476 -2.5594,13.35363 -1.66933,4.22889 -3.96873,7.93847 -6.89924,11.12865 -2.89347,3.19023 -6.34415,5.84312 -10.35028,7.95752 -4.00648,2.11446 -8.27207,3.43118 -12.79766,3.95052 v 8.4579 h 16.30355 c 1.11248,0 2.0581,0.38956 2.83738,1.16858 0.8158,0.779 1.22413,1.72465 1.22413,2.83754 0,1.11287 -0.40833,2.07703 -1.22413,2.89313 -0.77928,0.81611 -1.7249,1.22418 -2.83738,1.22418 h -40.67563 c -1.11265,0 -2.07679,-0.40807 -2.89312,-1.22418 -0.81614,-0.8161 -1.22413,-1.78026 -1.22413,-2.89313 0,-1.11289 0.40799,-2.05854 1.22413,-2.83754 0.81633,-0.77902 1.78047,-1.16858 2.89312,-1.16858 h 16.24887 v -8.4579 c -4.52559,-0.51934 -8.79259,-1.83606 -12.79872,-3.95052 -4.00648,-2.1144 -7.45575,-4.76729 -10.34939,-7.95752 -2.89347,-3.19018 -5.19375,-6.89976 -6.899952,-11.12865 -1.669337,-4.22887 -2.503829,-8.67964 -2.503829,-13.35363 v -8.12432 c 0,-1.11287 0.389112,-2.05854 1.168571,-2.83754 0.815795,-0.779 1.78099,-1.16856 2.893999,-1.16856 z" />
  </g>
</svg>
