<?xml version="1.0" encoding="UTF-8" standalone="no"?>
<svg
   width="1000"
   height="1000"
   viewBox="0 0 264.58333 264.58334"
   version="1.1"
   id="svg221"
   inkscape:version="1.1.1 (3bf5ae0d25, 2021-09-20, custom)"
   sodipodi:docname="O.svg"
   xmlns:inkscape="http://www.inkscape.org/namespaces/inkscape"
   xmlns:sodipodi="http://sodipodi.sourceforge.net/DTD/sodipodi-0.dtd"
   xmlns="http://www.w3.org/2000/svg"
   xmlns:svg="http://www.w3.org/2000/svg"
   xmlns:rdf="http://www.w3.org/1999/02/22-rdf-syntax-ns#"
   xmlns:cc="http://creativecommons.org/ns#"
   xmlns:dc="http://purl.org/dc/elements/1.1/">
  <defs
     id="defs215" />
  <sodipodi:namedview
     id="base"
     pagecolor="#ffffff"
     bordercolor="#666666"
     borderopacity="1.0"
     inkscape:pageopacity="0.0"
     inkscape:pageshadow="2"
     inkscape:zoom="0.24748737"
     inkscape:cx="573.76665"
     inkscape:cy="325.26912"
     inkscape:document-units="mm"
     inkscape:current-layer="layer1"
     inkscape:document-rotation="0"
     showgrid="false"
     units="px"
     showguides="true"
     inkscape:guide-bbox="true"
     inkscape:window-width="605"
     inkscape:window-height="728"
     inkscape:window-x="752"
     inkscape:window-y="32"
     inkscape:window-maximized="0"
     inkscape:pagecheckerboard="0"
     inkscape:snap-intersection-paths="true"
     inkscape:snap-bbox="true"
     inkscape:bbox-nodes="true"
     inkscape:snap-nodes="false">
    <sodipodi:guide
       position="-5.0862631e-06,52.916663"
       orientation="0,-1"
       id="guide1048" />
    <sodipodi:guide
       position="-5.0862631e-06,211.66667"
       orientation="0,-1"
       id="guide144" />
    <sodipodi:guide
       position="211.66667,269.38659"
       orientation="1,0"
       id="guide146" />
    <sodipodi:guide
       position="52.916667,269.38659"
       orientation="1,0"
       id="guide148" />
  </sodipodi:namedview>
  <metadata
     id="metadata218">
    <rdf:RDF>
      <cc:Work
         rdf:about="">
        <dc:format>image/svg+xml</dc:format>
        <dc:type
           rdf:resource="http://purl.org/dc/dcmitype/StillImage" />
      </cc:Work>
    </rdf:RDF>
  </metadata>
  <g
     inkscape:label="Layer 1"
     inkscape:groupmode="layer"
     id="layer1">
    <path
       id="rect12-1-6-31-9-8-1-0"
       style="display:inline;fill:#000000;fill-opacity:1;stroke:none;stroke-width:0.302969"
       d="m 67.850952,52.916665 c -8.273503,0 -14.934285,6.660716 -14.934285,14.934304 V 196.73235 c 0,8.27362 6.660782,14.93432 14.934285,14.93432 H 196.73238 c 8.27351,0 14.93429,-6.6607 14.93429,-14.93432 V 67.850969 c 0,-8.273588 -6.66078,-14.934304 -14.93429,-14.934304 z m 64.405788,26.458644 c 8.2534,0 15.5162,2.004438 21.78857,6.013279 6.32,3.961692 11.17774,9.739279 14.57339,17.332512 3.39566,7.54609 5.09357,16.34184 5.09357,26.38756 v 6.50823 c 0,10.09286 -1.69791,18.91257 -5.09357,26.45863 -3.39565,7.49892 -8.20629,13.22956 -14.4321,17.19125 -6.2251,3.96167 -13.4879,5.94217 -21.78857,5.94217 -8.11211,0 -15.3047,-1.9805 -21.57761,-5.94217 -6.27237,-4.00886 -11.153041,-9.69254 -14.643417,-17.04996 -3.44275,-7.40458 -5.211574,-15.96463 -5.305942,-25.6802 v -7.42795 c 0,-9.90424 1.720846,-18.65304 5.164126,-26.24627 3.44275,-7.593235 8.300493,-13.394758 14.572863,-17.403617 6.32,-4.056007 13.53658,-6.083464 21.64869,-6.083464 z m 0,11.672897 c -8.58342,0 -15.35197,3.277811 -20.30408,9.833474 -4.90501,6.50847 -7.42789,15.56387 -7.56936,27.16596 v 7.56925 c 0,11.8379 2.47579,21.15294 7.4279,27.9444 4.99938,6.74431 11.86159,10.11603 20.58683,10.11603 8.77198,0 15.56347,-3.18297 20.37411,-9.54996 4.81064,-6.41418 7.28643,-15.58742 7.42789,-27.51965 v -7.64034 c 0,-12.2152 -2.45197,-21.57722 -7.35698,-28.08569 -4.90501,-6.555663 -11.7667,-9.833474 -20.58631,-9.833474 z" />
  </g>
</svg>
