<?xml version="1.0" encoding="UTF-8" standalone="no"?>
<svg
   width="1000"
   height="1000"
   viewBox="0 0 264.58333 264.58334"
   version="1.1"
   id="svg221"
   inkscape:version="1.1.1 (3bf5ae0d25, 2021-09-20, custom)"
   sodipodi:docname="paper plane.svg"
   xmlns:inkscape="http://www.inkscape.org/namespaces/inkscape"
   xmlns:sodipodi="http://sodipodi.sourceforge.net/DTD/sodipodi-0.dtd"
   xmlns="http://www.w3.org/2000/svg"
   xmlns:svg="http://www.w3.org/2000/svg"
   xmlns:rdf="http://www.w3.org/1999/02/22-rdf-syntax-ns#"
   xmlns:cc="http://creativecommons.org/ns#"
   xmlns:dc="http://purl.org/dc/elements/1.1/">
  <defs
     id="defs215" />
  <sodipodi:namedview
     id="base"
     pagecolor="#ffffff"
     bordercolor="#666666"
     borderopacity="1.0"
     inkscape:pageopacity="0.0"
     inkscape:pageshadow="2"
     inkscape:zoom="0.69999999"
     inkscape:cx="507.85715"
     inkscape:cy="449.28572"
     inkscape:document-units="mm"
     inkscape:current-layer="layer1"
     inkscape:document-rotation="0"
     showgrid="false"
     units="px"
     showguides="true"
     inkscape:guide-bbox="true"
     inkscape:window-width="1366"
     inkscape:window-height="740"
     inkscape:window-x="0"
     inkscape:window-y="28"
     inkscape:window-maximized="0"
     inkscape:pagecheckerboard="0"
     inkscape:snap-bbox="true"
     inkscape:bbox-nodes="true"
     inkscape:snap-midpoints="true">
    <sodipodi:guide
       position="-5.0862631e-06,52.916663"
       orientation="0,-1"
       id="guide1048" />
    <sodipodi:guide
       position="75.848259,211.66667"
       orientation="0,-1"
       id="guide144" />
    <sodipodi:guide
       position="211.66667,269.38659"
       orientation="1,0"
       id="guide146" />
    <sodipodi:guide
       position="52.916667,269.38659"
       orientation="1,0"
       id="guide148" />
    <sodipodi:guide
       position="132.29166,211.66667"
       orientation="1,0"
       id="guide133" />
    <sodipodi:guide
       position="52.916666,132.29167"
       orientation="0,-1"
       id="guide135" />
  </sodipodi:namedview>
  <metadata
     id="metadata218">
    <rdf:RDF>
      <cc:Work
         rdf:about="">
        <dc:format>image/svg+xml</dc:format>
        <dc:type
           rdf:resource="http://purl.org/dc/dcmitype/StillImage" />
      </cc:Work>
    </rdf:RDF>
  </metadata>
  <g
     inkscape:label="Layer 1"
     inkscape:groupmode="layer"
     id="layer1">
    <path
       id="rect12-1-6-31-0-1-0-2-4-8"
       style="display:inline;fill:#000000;fill-opacity:0.979723;stroke:none;stroke-width:0.302969"
       d="m 67.850968,52.916665 c -8.273688,0 -14.934301,6.660614 -14.934301,14.934126 V 196.73254 c 0,8.27352 6.660613,14.93413 14.934301,14.93413 H 196.73254 c 8.27352,0 14.93413,-6.66061 14.93413,-14.93413 V 67.850791 c 0,-8.273512 -6.66061,-14.934126 -14.93413,-14.934126 z M 181.41689,79.386966 c 0.86166,0 1.56774,0.207433 2.11896,0.620712 1.34302,0.964493 1.87695,2.221086 1.60108,3.771014 l -15.13715,90.723758 c -0.13758,1.13665 -0.75741,2.01436 -1.85984,2.63437 -0.51665,0.30991 -1.13683,0.46478 -1.8602,0.46478 -0.41345,0 -0.87788,-0.0864 -1.39453,-0.25788 l -26.76222,-10.95286 -14.25979,17.4108 c -0.75742,0.9301 -1.72209,1.39471 -2.89313,1.39471 -0.4475,0 -0.89606,-0.0864 -1.34355,-0.25788 -0.75795,-0.24112 -1.36084,-0.70573 -1.80852,-1.39471 -0.44749,-0.6544 -0.67151,-1.37812 -0.67151,-2.17028 v -20.56287 l 51.04478,-62.565418 -63.13446,54.609758 -23.300769,-9.55815 c -0.688798,-0.27552 -1.256769,-0.6895 -1.704796,-1.24054 -0.412926,-0.58561 -0.63694,-1.25677 -0.671512,-2.01454 -0.06879,-1.51553 0.567971,-2.66964 1.910995,-3.4618 L 179.5059,79.903785 c 0.55103,-0.344487 1.18815,-0.516819 1.91099,-0.516819 z" />
  </g>
</svg>
