<?xml version="1.0" encoding="UTF-8" standalone="no"?>
<svg
   width="1000"
   height="1000"
   viewBox="0 0 264.58333 264.58334"
   version="1.1"
   id="svg221"
   inkscape:version="1.1.1 (3bf5ae0d25, 2021-09-20, custom)"
   sodipodi:docname="progress.svg"
   xmlns:inkscape="http://www.inkscape.org/namespaces/inkscape"
   xmlns:sodipodi="http://sodipodi.sourceforge.net/DTD/sodipodi-0.dtd"
   xmlns="http://www.w3.org/2000/svg"
   xmlns:svg="http://www.w3.org/2000/svg"
   xmlns:rdf="http://www.w3.org/1999/02/22-rdf-syntax-ns#"
   xmlns:cc="http://creativecommons.org/ns#"
   xmlns:dc="http://purl.org/dc/elements/1.1/">
  <defs
     id="defs215" />
  <sodipodi:namedview
     id="base"
     pagecolor="#ffffff"
     bordercolor="#666666"
     borderopacity="1.0"
     inkscape:pageopacity="0.0"
     inkscape:pageshadow="2"
     inkscape:zoom="0.69999999"
     inkscape:cx="507.85715"
     inkscape:cy="563.57144"
     inkscape:document-units="mm"
     inkscape:current-layer="layer1"
     inkscape:document-rotation="0"
     showgrid="false"
     units="px"
     showguides="true"
     inkscape:guide-bbox="true"
     inkscape:window-width="1366"
     inkscape:window-height="740"
     inkscape:window-x="0"
     inkscape:window-y="28"
     inkscape:window-maximized="0"
     inkscape:pagecheckerboard="0"
     inkscape:snap-bbox="true"
     inkscape:bbox-nodes="true"
     inkscape:snap-midpoints="true">
    <sodipodi:guide
       position="-5.0862631e-06,52.916663"
       orientation="0,-1"
       id="guide1048" />
    <sodipodi:guide
       position="75.848259,211.66667"
       orientation="0,-1"
       id="guide144" />
    <sodipodi:guide
       position="211.66667,269.38659"
       orientation="1,0"
       id="guide146" />
    <sodipodi:guide
       position="52.916667,269.38659"
       orientation="1,0"
       id="guide148" />
    <sodipodi:guide
       position="132.29166,211.66667"
       orientation="1,0"
       id="guide133" />
    <sodipodi:guide
       position="52.916666,132.29167"
       orientation="0,-1"
       id="guide135" />
  </sodipodi:namedview>
  <metadata
     id="metadata218">
    <rdf:RDF>
      <cc:Work
         rdf:about="">
        <dc:format>image/svg+xml</dc:format>
        <dc:type
           rdf:resource="http://purl.org/dc/dcmitype/StillImage" />
      </cc:Work>
    </rdf:RDF>
  </metadata>
  <g
     inkscape:label="Layer 1"
     inkscape:groupmode="layer"
     id="layer1">
    <path
       id="rect12-1-6-31-9-4-3-2-2-4-7"
       style="display:inline;fill:#000000;fill-opacity:0.979723;stroke:none;stroke-width:0.302969"
       d="m 67.850968,52.916665 c -8.273688,0 -14.934301,6.660783 -14.934301,14.934286 V 196.73256 c 0,8.2735 6.660613,14.93411 14.934301,14.93411 H 196.73254 c 8.27352,0 14.93413,-6.66061 14.93413,-14.93411 V 67.850951 c 0,-8.273503 -6.66061,-14.934286 -14.93413,-14.934286 z m 89.137672,30.847529 c 0.32156,0 1.1901,0.868537 2.60509,2.605082 1.41517,1.736545 2.34809,2.958564 2.79841,3.666059 0.70749,-0.06526 1.25394,-0.09701 1.63953,-0.09701 0.41804,0 0.9809,0.03175 1.68839,0.09701 1.83286,-2.572627 3.52178,-4.630905 5.06518,-6.174657 l 0.33725,-0.09701 c 0.0317,0 2.29958,1.286577 6.80173,3.859204 0.16051,0.09701 0.24165,0.224895 0.24165,0.385585 0,0.803979 -0.93327,3.345032 -2.79823,7.622101 0.61083,0.803978 1.15746,1.752419 1.63953,2.845852 1.38271,0.128763 3.08769,0.353835 5.11351,0.675391 2.0581,0.321557 3.08716,0.658812 3.08716,1.012639 v 7.71771 c 0,0.35383 -1.04493,0.7082 -3.13514,1.06203 -2.0581,0.32156 -3.7472,0.54681 -5.06553,0.67539 -0.41821,1.02906 -0.96414,1.9775 -1.63953,2.84568 1.86496,4.27707 2.79823,6.81724 2.79823,7.62122 0,0.16051 -0.0811,0.28998 -0.24165,0.38647 -0.0653,0.0318 -0.69162,0.40181 -1.88119,1.1093 -1.19009,0.7075 -2.2837,1.35079 -3.28047,1.92969 -0.99731,0.57891 -1.54341,0.86784 -1.64007,0.86784 -0.32138,0 -1.18991,-0.86766 -2.60508,-2.6042 -1.41499,-1.76883 -2.34738,-3.00708 -2.79735,-3.71457 -0.70749,0.0635 -1.27035,0.0952 -1.68839,0.0952 -0.38559,0 -0.93204,-0.0318 -1.63953,-0.0952 -0.45032,0.70749 -1.38324,1.94574 -2.79841,3.71457 -1.41499,1.73654 -2.28353,2.6042 -2.60509,2.6042 -0.097,0 -0.64311,-0.27288 -1.63988,-0.81951 -0.99695,-0.5789 -2.10573,-1.23842 -3.32793,-1.97802 -1.22184,-0.73959 -1.84908,-1.1093 -1.88136,-1.1093 -0.12876,-0.097 -0.19314,-0.2256 -0.19314,-0.38647 0,-0.80398 0.93203,-3.34415 2.79734,-7.62122 -0.67539,-0.86818 -1.22184,-1.81662 -1.64006,-2.84568 -1.31833,-0.12876 -3.02224,-0.35383 -5.11262,-0.67539 -2.05811,-0.35383 -3.08716,-0.7082 -3.08716,-1.06203 v -7.71771 c 0,-0.353827 1.01318,-0.691082 3.03918,-1.012639 2.0581,-0.321556 3.77789,-0.546804 5.1606,-0.675391 0.4826,-1.093433 1.02923,-2.041874 1.64006,-2.845852 -1.86531,-4.277069 -2.79734,-6.818122 -2.79734,-7.622101 0,-0.160513 0.0653,-0.289101 0.19314,-0.385585 0.16052,-0.09701 0.80416,-0.466019 1.92987,-1.109308 1.12518,-0.643112 2.20186,-1.254122 3.23091,-1.833029 1.02958,-0.61101 1.59191,-0.916867 1.68839,-0.916867 z M 109.5235,96.980985 h 10.27429 c 0.38594,0 0.73977,0.144639 1.06133,0.434798 0.35366,0.257351 0.54645,0.578554 0.57856,0.964492 l 1.25412,8.441425 c 1.41499,0.41804 2.79788,0.98072 4.14848,1.68821 l 6.51175,-4.91947 c 0.28927,-0.25718 0.65987,-0.38647 1.11019,-0.38647 0.45049,0 0.83643,0.14464 1.15799,0.43392 0.83573,0.7717 1.7519,1.64023 2.74884,2.60508 1.02906,0.96467 2.13872,2.13836 3.32881,3.52107 1.22185,1.35078 1.83321,2.2516 1.83321,2.70174 0,0.35384 -0.12876,0.70732 -0.38647,1.06098 -0.48242,0.64329 -1.27035,1.65628 -2.36378,3.03899 -1.06116,1.38289 -1.86478,2.46045 -2.41177,3.23232 0.86854,1.80075 1.49578,3.31187 1.88119,4.53389 l 8.34495,1.25413 c 0.38594,0.0635 0.70802,0.2734 0.96555,0.62723 0.25718,0.32156 0.38559,0.67504 0.38559,1.06098 v 10.17884 c 0,0.38594 -0.12877,0.75548 -0.38559,1.10931 -0.22542,0.32156 -0.51523,0.4983 -0.86889,0.53058 l -8.58625,1.35078 c -0.38594,1.31851 -0.96467,2.71727 -1.73655,4.19664 1.31833,1.89723 2.97462,4.00313 4.96887,6.31859 0.25718,0.35366 0.38541,0.72337 0.38541,1.1093 0,0.45015 -0.12876,0.80469 -0.38541,1.06186 -0.83643,1.12554 -2.34791,2.78183 -4.53495,4.96869 -2.18687,2.15459 -3.63326,3.23126 -4.34075,3.23126 -0.41804,0 -0.80363,-0.12876 -1.15729,-0.38541 l -6.36816,-4.96869 c -1.35061,0.7075 -2.7656,1.27 -4.24497,1.68804 -0.44997,4.24497 -0.86801,7.10723 -1.25412,8.58642 -0.257,0.86836 -0.80363,1.30263 -1.63989,1.30263 H 109.5235 c -0.38594,0 -0.75565,-0.14464 -1.10931,-0.43392 -0.32155,-0.25717 -0.49847,-0.57943 -0.53075,-0.9652 l -1.25448,-8.39327 c -1.25394,-0.38593 -2.63771,-0.96467 -4.14884,-1.73636 l -6.511737,4.92035 c -0.257703,0.25718 -0.627238,0.38541 -1.109308,0.38541 -0.418218,0 -0.804156,-0.14464 -1.157992,-0.43391 -5.273669,-4.75932 -7.910856,-7.70236 -7.910856,-8.8279 0,-0.35366 0.128764,-0.70731 0.385409,-1.06097 0.128764,-0.16052 0.804685,-1.02852 2.026353,-2.6042 1.222374,-1.57586 2.154412,-2.79788 2.797525,-3.66624 -0.868185,-1.67216 -1.510769,-3.18399 -1.928987,-4.53477 l -8.393985,-1.30245 c -0.385938,-0.0317 -0.706965,-0.20885 -0.96414,-0.53058 -0.225425,-0.32156 -0.337432,-0.67504 -0.337432,-1.06098 v -10.22611 c 0,-0.38594 0.112889,-0.74048 0.337432,-1.06204 0.257175,-0.35366 0.562327,-0.54663 0.916163,-0.57873 l 8.537741,-1.3499 c 0.32191,-1.09343 0.916516,-2.47614 1.785054,-4.1483 -1.447269,-2.05828 -3.102501,-4.18112 -4.967987,-6.36798 -0.257175,-0.35366 -0.386468,-0.72337 -0.386468,-1.10931 0,-0.45014 0.128764,-0.81985 0.386468,-1.10931 0.836258,-1.09325 2.347027,-2.71726 4.533894,-4.87202 2.187044,-2.18669 3.634137,-3.28048 4.341808,-3.28048 0.418041,0 0.803627,0.12877 1.157286,0.38647 l 6.368159,4.96781 c 1.25395,-0.64329 2.66894,-1.22202 4.24444,-1.73655 0.4505,-4.18058 0.86854,-7.010561 1.25448,-8.489755 0.28945,-0.900464 0.83591,-1.35096 1.64006,-1.35096 z m 54.50817,0 c -1.92934,0 -3.58563,0.691796 -4.96852,2.074682 -1.38271,1.382713 -2.07451,3.039173 -2.07451,4.968683 0,1.96162 0.6918,3.63414 2.07451,5.01685 1.38289,1.38288 3.03918,2.0738 4.96852,2.0738 1.96197,0 3.63413,-0.69092 5.01685,-2.0738 1.38288,-1.41482 2.07397,-3.08733 2.07397,-5.01685 0,-1.92951 -0.70696,-3.58597 -2.12195,-4.968683 -1.38289,-1.382886 -3.03918,-2.074682 -4.96887,-2.074682 z m -49.39554,21.176325 c -3.89131,0 -7.21924,1.38359 -9.98501,4.14918 -2.73332,2.7656 -4.09981,6.09352 -4.09981,9.98483 0,3.89112 1.36649,7.21993 4.09981,9.98552 2.76577,2.73349 6.0937,4.09998 9.98501,4.09998 3.89078,0 7.21976,-1.36649 9.98536,-4.09998 2.76578,-2.76559 4.14849,-6.0944 4.14849,-9.98552 0,-3.89131 -1.38271,-7.21923 -4.14849,-9.98483 -2.7656,-2.76559 -6.09458,-4.14918 -9.98536,-4.14918 z m 42.35251,22.04485 c 0.32156,0 1.1901,0.86871 2.60509,2.60526 1.41517,1.73654 2.34809,2.95856 2.79841,3.66606 0.70749,-0.0653 1.25394,-0.097 1.63953,-0.097 0.41804,0 0.9809,0.0317 1.68839,0.097 1.83286,-2.57263 3.52178,-4.63108 5.06518,-6.17466 l 0.33725,-0.097 c 0.0317,0 2.29958,1.28675 6.80173,3.85938 0.16051,0.097 0.24165,0.22489 0.24165,0.38558 0,0.80398 -0.93327,3.34415 -2.79823,7.62122 0.61083,0.80398 1.15746,1.7533 1.63953,2.84656 1.31833,0.12876 3.00743,0.37006 5.06553,0.7239 2.09021,0.32155 3.13514,0.65881 3.13514,1.01264 v 7.71771 c 0,0.35383 -1.02906,0.69214 -3.08716,1.0137 -2.02582,0.32156 -3.7308,0.54575 -5.11351,0.67451 -0.44996,1.09343 -0.99642,2.05881 -1.63953,2.89489 1.86496,4.27707 2.79823,6.80101 2.79823,7.57289 0,0.16051 -0.0811,0.2891 -0.24165,0.38558 -0.0653,0.0317 -0.69162,0.4027 -1.88119,1.11019 -1.19009,0.7075 -2.2837,1.3499 -3.28047,1.92881 -0.99731,0.57873 -1.54341,0.86854 -1.64007,0.86854 -0.32138,0 -1.18991,-0.88459 -2.60508,-2.65324 -1.41499,-1.73672 -2.34738,-2.95874 -2.79735,-3.66623 -0.70749,0.0635 -1.27035,0.097 -1.68839,0.097 -0.38559,0 -0.93204,-0.0317 -1.63953,-0.097 -0.45032,0.70749 -1.38324,1.92951 -2.79841,3.66623 -1.41499,1.76865 -2.28353,2.65324 -2.60509,2.65324 -0.097,0 -0.64311,-0.28981 -1.63988,-0.86854 -0.99695,-0.5468 -2.10573,-1.18921 -3.32793,-1.92881 -1.22184,-0.7396 -1.84908,-1.11019 -1.88136,-1.11019 -0.12876,-0.097 -0.19314,-0.22472 -0.19314,-0.38558 0,-0.77188 0.93203,-3.29582 2.79734,-7.57289 -0.64311,-0.83608 -1.18956,-1.80146 -1.64006,-2.89489 -1.38271,-0.12876 -3.1025,-0.35295 -5.1606,-0.67451 -2.026,-0.32156 -3.03918,-0.65987 -3.03918,-1.0137 v -7.71771 c 0,-0.35383 1.02905,-0.69109 3.08716,-1.01264 2.09038,-0.35384 3.79429,-0.59514 5.11262,-0.7239 0.4826,-1.09326 1.02923,-2.04258 1.64006,-2.84656 -1.86531,-4.27707 -2.79734,-6.81724 -2.79734,-7.62122 0,-0.16051 0.0653,-0.2891 0.19314,-0.38558 0.16052,-0.097 0.80416,-0.46602 1.92987,-1.10931 1.12518,-0.64311 2.20186,-1.25412 3.23091,-1.83303 1.02958,-0.61101 1.59191,-0.91704 1.68839,-0.91704 z m 7.04303,13.21697 c -1.92934,0 -3.58563,0.70802 -4.96852,2.12301 -1.38271,1.38271 -2.07451,3.03917 -2.07451,4.96869 0,1.96161 0.6918,3.63325 2.07451,5.01596 1.38289,1.3506 3.03918,2.02635 4.96852,2.02635 1.96197,0 3.63413,-0.6918 5.01685,-2.07468 1.38288,-1.38271 2.07397,-3.03812 2.07397,-4.96763 0,-1.92952 -0.70696,-3.58598 -2.12195,-4.96869 -1.38289,-1.41499 -3.03918,-2.12301 -4.96887,-2.12301 z" />
  </g>
</svg>
