<?xml version="1.0" encoding="UTF-8" standalone="no"?>
<svg
   width="1000"
   height="1000"
   viewBox="0 0 264.58333 264.58334"
   version="1.1"
   id="svg221"
   inkscape:version="1.1.1 (3bf5ae0d25, 2021-09-20, custom)"
   sodipodi:docname="Q.svg"
   xmlns:inkscape="http://www.inkscape.org/namespaces/inkscape"
   xmlns:sodipodi="http://sodipodi.sourceforge.net/DTD/sodipodi-0.dtd"
   xmlns="http://www.w3.org/2000/svg"
   xmlns:svg="http://www.w3.org/2000/svg"
   xmlns:rdf="http://www.w3.org/1999/02/22-rdf-syntax-ns#"
   xmlns:cc="http://creativecommons.org/ns#"
   xmlns:dc="http://purl.org/dc/elements/1.1/">
  <defs
     id="defs215" />
  <sodipodi:namedview
     id="base"
     pagecolor="#ffffff"
     bordercolor="#666666"
     borderopacity="1.0"
     inkscape:pageopacity="0.0"
     inkscape:pageshadow="2"
     inkscape:zoom="0.24748737"
     inkscape:cx="573.76665"
     inkscape:cy="325.26912"
     inkscape:document-units="mm"
     inkscape:current-layer="layer1"
     inkscape:document-rotation="0"
     showgrid="false"
     units="px"
     showguides="true"
     inkscape:guide-bbox="true"
     inkscape:window-width="605"
     inkscape:window-height="728"
     inkscape:window-x="752"
     inkscape:window-y="32"
     inkscape:window-maximized="0"
     inkscape:pagecheckerboard="0"
     inkscape:snap-intersection-paths="true"
     inkscape:snap-bbox="true"
     inkscape:bbox-nodes="true"
     inkscape:snap-nodes="false">
    <sodipodi:guide
       position="-5.0862631e-06,52.916663"
       orientation="0,-1"
       id="guide1048" />
    <sodipodi:guide
       position="-5.0862631e-06,211.66667"
       orientation="0,-1"
       id="guide144" />
    <sodipodi:guide
       position="211.66667,269.38659"
       orientation="1,0"
       id="guide146" />
    <sodipodi:guide
       position="52.916667,269.38659"
       orientation="1,0"
       id="guide148" />
  </sodipodi:namedview>
  <metadata
     id="metadata218">
    <rdf:RDF>
      <cc:Work
         rdf:about="">
        <dc:format>image/svg+xml</dc:format>
        <dc:type
           rdf:resource="http://purl.org/dc/dcmitype/StillImage" />
      </cc:Work>
    </rdf:RDF>
  </metadata>
  <g
     inkscape:label="Layer 1"
     inkscape:groupmode="layer"
     id="layer1">
    <path
       id="rect12-1-6-31-9-4-9-0"
       style="display:inline;fill:#000000;fill-opacity:1;stroke:none;stroke-width:0.302969"
       d="m 67.850792,52.916665 c -8.273512,0 -14.934125,6.660677 -14.934125,14.934251 V 196.73244 c 0,8.27357 6.660613,14.93423 14.934125,14.93423 H 196.73237 c 8.27369,0 14.9343,-6.66066 14.9343,-14.93423 V 67.850916 c 0,-8.273574 -6.66061,-14.934251 -14.9343,-14.934251 z m 64.226118,26.458506 c 7.21148,0 13.54119,1.742084 18.99037,5.224787 5.49062,3.482703 9.7109,8.501609 12.661,15.057282 2.94992,6.5147 4.42559,14.13533 4.42559,22.86258 v 5.71608 c 0,8.64529 -1.37301,16.10239 -4.1185,22.37126 -2.74513,6.22789 -6.59641,11.10337 -11.55399,14.62705 l 15.97958,12.53786 -8.05143,7.43613 -18.86848,-14.9953 c -2.94992,0.7375 -6.06336,1.10566 -9.34137,1.10566 -7.04708,0 -13.29565,-1.72108 -18.74518,-5.16281 -5.44918,-3.4827 -9.69009,-8.41939 -12.72168,-14.81118 -2.991025,-6.43275 -4.527899,-13.86977 -4.609567,-22.31018 v -6.45259 c 0,-8.60434 1.495247,-16.20486 4.486267,-22.801494 2.99103,-6.596648 7.21042,-11.636562 12.66012,-15.119265 5.4901,-3.523678 11.75966,-5.28587 18.80727,-5.28587 z m 0,10.141493 c -7.41626,0 -13.27554,2.847457 -17.57748,8.542707 -4.26155,5.654259 -6.45407,13.520619 -6.57683,23.599969 v 6.57656 c 0,10.24324 2.13148,18.31515 6.39232,24.21524 4.30248,5.90011 10.26406,8.84989 17.88476,8.84989 7.62123,0 13.52055,-2.76616 17.6999,-8.29749 4.17918,-5.57233 6.33077,-13.54101 6.45354,-23.90716 v -6.63764 c 0,-10.53005 -2.10997,-18.64307 -6.33042,-24.338303 -4.17917,-5.736207 -10.16087,-8.603773 -17.94579,-8.603773 z" />
  </g>
</svg>
