<?xml version="1.0" encoding="UTF-8" standalone="no"?>
<svg
   width="1000"
   height="1000"
   viewBox="0 0 264.58333 264.58334"
   version="1.1"
   id="svg221"
   inkscape:version="1.1.1 (3bf5ae0d25, 2021-09-20, custom)"
   sodipodi:docname="R.svg"
   xmlns:inkscape="http://www.inkscape.org/namespaces/inkscape"
   xmlns:sodipodi="http://sodipodi.sourceforge.net/DTD/sodipodi-0.dtd"
   xmlns="http://www.w3.org/2000/svg"
   xmlns:svg="http://www.w3.org/2000/svg"
   xmlns:rdf="http://www.w3.org/1999/02/22-rdf-syntax-ns#"
   xmlns:cc="http://creativecommons.org/ns#"
   xmlns:dc="http://purl.org/dc/elements/1.1/">
  <defs
     id="defs215" />
  <sodipodi:namedview
     id="base"
     pagecolor="#ffffff"
     bordercolor="#666666"
     borderopacity="1.0"
     inkscape:pageopacity="0.0"
     inkscape:pageshadow="2"
     inkscape:zoom="0.24748737"
     inkscape:cx="573.76665"
     inkscape:cy="325.26912"
     inkscape:document-units="mm"
     inkscape:current-layer="layer1"
     inkscape:document-rotation="0"
     showgrid="false"
     units="px"
     showguides="true"
     inkscape:guide-bbox="true"
     inkscape:window-width="605"
     inkscape:window-height="728"
     inkscape:window-x="752"
     inkscape:window-y="32"
     inkscape:window-maximized="0"
     inkscape:pagecheckerboard="0"
     inkscape:snap-intersection-paths="true"
     inkscape:snap-bbox="true"
     inkscape:bbox-nodes="true"
     inkscape:snap-nodes="false">
    <sodipodi:guide
       position="-5.0862631e-06,52.916663"
       orientation="0,-1"
       id="guide1048" />
    <sodipodi:guide
       position="-5.0862631e-06,211.66667"
       orientation="0,-1"
       id="guide144" />
    <sodipodi:guide
       position="211.66667,269.38659"
       orientation="1,0"
       id="guide146" />
    <sodipodi:guide
       position="52.916667,269.38659"
       orientation="1,0"
       id="guide148" />
  </sodipodi:namedview>
  <metadata
     id="metadata218">
    <rdf:RDF>
      <cc:Work
         rdf:about="">
        <dc:format>image/svg+xml</dc:format>
        <dc:type
           rdf:resource="http://purl.org/dc/dcmitype/StillImage" />
      </cc:Work>
    </rdf:RDF>
  </metadata>
  <g
     inkscape:label="Layer 1"
     inkscape:groupmode="layer"
     id="layer1">
    <path
       id="rect12-1-6-31-0-0-4-4"
       style="display:inline;fill:#000000;fill-opacity:1;stroke:none;stroke-width:0.302969"
       d="m 67.851051,52.916665 c -8.273557,0 -14.934384,6.660677 -14.934384,14.934251 V 196.73244 c 0,8.27357 6.660827,14.93423 14.934384,14.93423 H 196.73246 c 8.27356,0 14.93421,-6.66066 14.93421,-14.93423 V 67.850916 c 0,-8.273574 -6.66065,-14.934251 -14.93421,-14.934251 z m 26.024885,26.458506 h 35.035924 c 11.92095,0 21.07946,2.713385 27.47587,8.140718 6.44511,5.427334 9.66775,13.326501 9.66775,23.696601 0,6.59035 -1.79318,12.33239 -5.37918,17.22668 -3.53715,4.89431 -8.48047,8.55351 -14.82838,10.97644 l 24.86001,44.92026 v 0.87233 H 155.7335 L 132.76404,142.39534 H 107.90491 V 185.2082 H 93.875936 Z M 107.90491,90.860233 V 130.9832 h 21.44281 c 6.92965,0 12.42966,-1.79291 16.5002,-5.37882 4.11905,-3.58593 6.17805,-8.38304 6.17805,-14.39189 0,-6.54188 -1.96198,-11.557332 -5.88736,-15.046332 -3.87687,-3.489017 -9.49735,-5.257471 -16.86321,-5.305925 z" />
  </g>
</svg>
