<?xml version="1.0" encoding="UTF-8" standalone="no"?>
<svg
   width="1000"
   height="1000"
   viewBox="0 0 264.58333 264.58334"
   version="1.1"
   id="svg221"
   inkscape:version="1.1.1 (3bf5ae0d25, 2021-09-20, custom)"
   sodipodi:docname="search.svg"
   xmlns:inkscape="http://www.inkscape.org/namespaces/inkscape"
   xmlns:sodipodi="http://sodipodi.sourceforge.net/DTD/sodipodi-0.dtd"
   xmlns="http://www.w3.org/2000/svg"
   xmlns:svg="http://www.w3.org/2000/svg"
   xmlns:rdf="http://www.w3.org/1999/02/22-rdf-syntax-ns#"
   xmlns:cc="http://creativecommons.org/ns#"
   xmlns:dc="http://purl.org/dc/elements/1.1/">
  <defs
     id="defs215" />
  <sodipodi:namedview
     id="base"
     pagecolor="#ffffff"
     bordercolor="#666666"
     borderopacity="1.0"
     inkscape:pageopacity="0.0"
     inkscape:pageshadow="2"
     inkscape:zoom="0.49497474"
     inkscape:cx="439.41636"
     inkscape:cy="502.04582"
     inkscape:document-units="mm"
     inkscape:current-layer="layer1"
     inkscape:document-rotation="0"
     showgrid="false"
     units="px"
     showguides="true"
     inkscape:guide-bbox="true"
     inkscape:window-width="1366"
     inkscape:window-height="740"
     inkscape:window-x="0"
     inkscape:window-y="28"
     inkscape:window-maximized="0"
     inkscape:pagecheckerboard="0"
     inkscape:snap-bbox="true"
     inkscape:bbox-nodes="true"
     inkscape:snap-midpoints="true">
    <sodipodi:guide
       position="-5.0862631e-06,52.916663"
       orientation="0,-1"
       id="guide1048" />
    <sodipodi:guide
       position="75.848259,211.66667"
       orientation="0,-1"
       id="guide144" />
    <sodipodi:guide
       position="211.66667,269.38659"
       orientation="1,0"
       id="guide146" />
    <sodipodi:guide
       position="52.916667,269.38659"
       orientation="1,0"
       id="guide148" />
    <sodipodi:guide
       position="132.29166,211.66667"
       orientation="1,0"
       id="guide133" />
    <sodipodi:guide
       position="52.916666,132.29167"
       orientation="0,-1"
       id="guide135" />
  </sodipodi:namedview>
  <metadata
     id="metadata218">
    <rdf:RDF>
      <cc:Work
         rdf:about="">
        <dc:format>image/svg+xml</dc:format>
        <dc:type
           rdf:resource="http://purl.org/dc/dcmitype/StillImage" />
      </cc:Work>
    </rdf:RDF>
  </metadata>
  <g
     inkscape:label="Layer 1"
     inkscape:groupmode="layer"
     id="layer1">
    <path
       id="rect12-1-6-31-9-8-2-3-0-9"
       style="display:inline;fill:#000000;fill-opacity:0.979723;stroke:none;stroke-width:0.302968"
       d="m 67.85095,52.916665 c -8.273501,0 -14.934283,6.660661 -14.934283,14.934219 V 196.73245 c 0,8.27356 6.660782,14.93422 14.934283,14.93422 h 128.88142 c 8.2735,0 14.93428,-6.66066 14.93428,-14.93422 V 67.850884 c 0,-8.273558 -6.66078,-14.934219 -14.93428,-14.934219 z m 56.31696,26.458494 c 6.08346,0 11.88912,1.187131 17.41607,3.561268 5.52766,2.337007 10.27534,5.509002 14.24443,9.515298 4.00614,3.969183 7.17831,8.717015 9.5151,14.244225 2.37401,5.5272 3.56128,11.33259 3.56128,17.41625 0,9.31097 -2.63348,17.76925 -7.90061,25.3738 l 21.81131,21.81159 c 1.59526,1.59512 2.39289,3.50585 2.39289,5.73157 0,2.22576 -0.81633,4.13561 -2.44827,5.73069 -1.59526,1.63221 -3.50502,2.44833 -5.73104,2.44833 -2.22567,0 -4.11761,-0.81612 -5.676,-2.44833 l -21.81238,-21.75596 c -7.60428,5.26753 -16.06176,7.90096 -25.37278,7.90096 -6.08382,0 -11.88911,-1.16867 -17.4166,-3.50567 -5.52696,-2.37409 -10.294383,-5.56367 -14.300342,-9.56996 -4.006135,-4.00633 -7.195944,-8.77353 -9.570133,-14.30074 -2.337147,-5.52721 -3.505721,-11.33264 -3.505721,-17.41628 0,-6.08366 1.168574,-11.88905 3.505721,-17.41625 2.374189,-5.52721 5.563998,-10.275042 9.570133,-14.244225 4.005959,-4.006296 8.773382,-7.178291 14.300342,-9.515298 5.52749,-2.374137 11.33278,-3.561268 17.4166,-3.561268 z m 0,16.247697 c -7.82742,0 -14.54129,2.800927 -20.14251,8.402344 -5.564347,5.5643 -8.346875,12.25986 -8.346875,20.087 0,7.82712 2.782528,14.54122 8.346875,20.14263 5.60122,5.5643 12.31509,8.34674 20.14251,8.34669 7.82688,0 14.5226,-2.78239 20.08695,-8.34669 5.60139,-5.60141 8.40244,-12.31551 8.40244,-20.14263 0,-7.82714 -2.80105,-14.5227 -8.40244,-20.087 -5.56435,-5.601417 -12.26007,-8.402344 -20.08695,-8.402344 z" />
  </g>
</svg>
