<?xml version="1.0" encoding="UTF-8" standalone="no"?>
<svg
   width="1000"
   height="1000"
   viewBox="0 0 264.58333 264.58334"
   version="1.1"
   id="svg221"
   inkscape:version="1.1.1 (3bf5ae0d25, 2021-09-20, custom)"
   sodipodi:docname="upload disk.svg"
   xmlns:inkscape="http://www.inkscape.org/namespaces/inkscape"
   xmlns:sodipodi="http://sodipodi.sourceforge.net/DTD/sodipodi-0.dtd"
   xmlns="http://www.w3.org/2000/svg"
   xmlns:svg="http://www.w3.org/2000/svg"
   xmlns:rdf="http://www.w3.org/1999/02/22-rdf-syntax-ns#"
   xmlns:cc="http://creativecommons.org/ns#"
   xmlns:dc="http://purl.org/dc/elements/1.1/">
  <defs
     id="defs215" />
  <sodipodi:namedview
     id="base"
     pagecolor="#ffffff"
     bordercolor="#666666"
     borderopacity="1.0"
     inkscape:pageopacity="0.0"
     inkscape:pageshadow="2"
     inkscape:zoom="0.69999999"
     inkscape:cx="507.85715"
     inkscape:cy="563.57144"
     inkscape:document-units="mm"
     inkscape:current-layer="layer1"
     inkscape:document-rotation="0"
     showgrid="false"
     units="px"
     showguides="true"
     inkscape:guide-bbox="true"
     inkscape:window-width="1366"
     inkscape:window-height="740"
     inkscape:window-x="0"
     inkscape:window-y="28"
     inkscape:window-maximized="0"
     inkscape:pagecheckerboard="0"
     inkscape:snap-bbox="true"
     inkscape:bbox-nodes="true"
     inkscape:snap-midpoints="true">
    <sodipodi:guide
       position="-5.0862631e-06,52.916663"
       orientation="0,-1"
       id="guide1048" />
    <sodipodi:guide
       position="75.848259,211.66667"
       orientation="0,-1"
       id="guide144" />
    <sodipodi:guide
       position="211.66667,269.38659"
       orientation="1,0"
       id="guide146" />
    <sodipodi:guide
       position="52.916667,269.38659"
       orientation="1,0"
       id="guide148" />
    <sodipodi:guide
       position="132.29166,211.66667"
       orientation="1,0"
       id="guide133" />
    <sodipodi:guide
       position="52.916666,132.29167"
       orientation="0,-1"
       id="guide135" />
  </sodipodi:namedview>
  <metadata
     id="metadata218">
    <rdf:RDF>
      <cc:Work
         rdf:about="">
        <dc:format>image/svg+xml</dc:format>
        <dc:type
           rdf:resource="http://purl.org/dc/dcmitype/StillImage" />
      </cc:Work>
    </rdf:RDF>
  </metadata>
  <g
     inkscape:label="Layer 1"
     inkscape:groupmode="layer"
     id="layer1">
    <path
       id="rect12-1-6-31-9-8-2-9-6-3-2"
       style="display:inline;fill:#000000;fill-opacity:0.979723;stroke:none;stroke-width:0.302969"
       d="m 67.850952,52.916665 c -8.273503,0 -14.934285,6.660819 -14.934285,14.934368 V 196.73248 c 0,8.27355 6.660782,14.93419 14.934285,14.93419 H 196.73238 c 8.27351,0 14.93429,-6.66064 14.93429,-14.93419 V 67.851033 c 0,-8.273549 -6.66078,-14.934368 -14.93429,-14.934368 z M 132.2922,81.433552 c 1.14987,0 2.09549,0.389645 2.83738,1.168581 l 28.48939,28.489547 c 1.2984,1.26118 1.59473,2.72592 0.88953,4.39527 -0.70467,1.70639 -1.94751,2.55959 -3.72797,2.55959 h -16.30341 v 28.48937 c 0,1.11302 -0.40799,2.07805 -1.22414,2.8942 -0.77893,0.77894 -1.72455,1.16858 -2.83756,1.16858 h -16.2475 c -1.11301,0 -2.07733,-0.38964 -2.89295,-1.16858 -0.81632,-0.81615 -1.22413,-1.78118 -1.22413,-2.8942 v -28.48937 h -16.24803 c -0.81633,0 -1.57656,-0.24059 -2.28176,-0.72284 -0.70467,-0.48225 -1.20491,-1.09485 -1.50177,-1.83675 -0.705206,-1.66935 -0.408873,-3.13409 0.88952,-4.39527 l 28.48939,-28.489547 c 0.74207,-0.778936 1.70709,-1.168581 2.89401,-1.168581 z M 85.496152,150.59869 h 27.153778 c 0.89041,2.41107 2.37366,4.37658 4.45081,5.89741 2.11472,1.48379 4.47056,2.22603 7.06718,2.22603 h 16.2475 c 2.59679,0 4.93447,-0.74224 7.01162,-2.22603 2.11419,-1.52083 3.61596,-3.48634 4.50637,-5.89741 h 27.15413 c 1.70638,0 3.15347,0.59302 4.34039,1.78012 1.18727,1.1871 1.78046,2.6342 1.78046,4.3406 v 20.36522 c 0,1.70639 -0.59319,3.13409 -1.78046,4.28415 -1.18692,1.1871 -2.63401,1.781 -4.34039,1.781 H 85.496152 c -1.706559,0 -3.153826,-0.5939 -4.340568,-1.781 -1.187271,-1.15006 -1.780466,-2.57776 -1.780466,-4.28415 v -20.36522 c 0,-1.7064 0.593195,-3.1535 1.780466,-4.3406 1.186742,-1.1871 2.634009,-1.78012 4.340568,-1.78012 z m 71.222858,16.30333 c -1.11319,0 -2.07733,0.40816 -2.89313,1.22414 -0.77928,0.77911 -1.16857,1.72474 -1.16857,2.83758 0,1.11284 0.38929,2.05864 1.16857,2.83758 0.8158,0.81615 1.77994,1.22414 2.89313,1.22414 1.11248,0 2.05845,-0.40799 2.83738,-1.22414 0.81633,-0.77894 1.22414,-1.72474 1.22414,-2.83758 0,-1.11284 -0.40781,-2.05847 -1.22414,-2.83758 -0.77893,-0.81598 -1.7249,-1.22414 -2.83738,-1.22414 z m 16.24749,0 c -1.11265,0 -2.07679,0.40816 -2.89312,1.22414 -0.77893,0.77911 -1.16857,1.72474 -1.16857,2.83758 0,1.11284 0.38964,2.05864 1.16857,2.83758 0.81633,0.81615 1.78047,1.22414 2.89312,1.22414 1.11302,0 2.05952,-0.40799 2.83845,-1.22414 0.81615,-0.77894 1.22413,-1.72474 1.22413,-2.83758 0,-1.11284 -0.40798,-2.05847 -1.22413,-2.83758 -0.77893,-0.81598 -1.72543,-1.22414 -2.83845,-1.22414 z" />
  </g>
</svg>
