<?xml version="1.0" encoding="UTF-8" standalone="no"?>
<svg
   width="1000"
   height="1000"
   viewBox="0 0 264.58333 264.58334"
   version="1.1"
   id="svg221"
   inkscape:version="1.1.1 (3bf5ae0d25, 2021-09-20, custom)"
   sodipodi:docname="volom high.svg"
   xmlns:inkscape="http://www.inkscape.org/namespaces/inkscape"
   xmlns:sodipodi="http://sodipodi.sourceforge.net/DTD/sodipodi-0.dtd"
   xmlns="http://www.w3.org/2000/svg"
   xmlns:svg="http://www.w3.org/2000/svg"
   xmlns:rdf="http://www.w3.org/1999/02/22-rdf-syntax-ns#"
   xmlns:cc="http://creativecommons.org/ns#"
   xmlns:dc="http://purl.org/dc/elements/1.1/">
  <defs
     id="defs215" />
  <sodipodi:namedview
     id="base"
     pagecolor="#ffffff"
     bordercolor="#666666"
     borderopacity="1.0"
     inkscape:pageopacity="0.0"
     inkscape:pageshadow="2"
     inkscape:zoom="0.49497474"
     inkscape:cx="439.41636"
     inkscape:cy="502.04582"
     inkscape:document-units="mm"
     inkscape:current-layer="layer1"
     inkscape:document-rotation="0"
     showgrid="false"
     units="px"
     showguides="true"
     inkscape:guide-bbox="true"
     inkscape:window-width="1366"
     inkscape:window-height="740"
     inkscape:window-x="0"
     inkscape:window-y="28"
     inkscape:window-maximized="0"
     inkscape:pagecheckerboard="0"
     inkscape:snap-bbox="true"
     inkscape:bbox-nodes="true"
     inkscape:snap-midpoints="true">
    <sodipodi:guide
       position="-5.0862631e-06,52.916663"
       orientation="0,-1"
       id="guide1048" />
    <sodipodi:guide
       position="75.848259,211.66667"
       orientation="0,-1"
       id="guide144" />
    <sodipodi:guide
       position="211.66667,269.38659"
       orientation="1,0"
       id="guide146" />
    <sodipodi:guide
       position="52.916667,269.38659"
       orientation="1,0"
       id="guide148" />
    <sodipodi:guide
       position="132.29166,211.66667"
       orientation="1,0"
       id="guide133" />
    <sodipodi:guide
       position="52.916666,132.29167"
       orientation="0,-1"
       id="guide135" />
  </sodipodi:namedview>
  <metadata
     id="metadata218">
    <rdf:RDF>
      <cc:Work
         rdf:about="">
        <dc:format>image/svg+xml</dc:format>
        <dc:type
           rdf:resource="http://purl.org/dc/dcmitype/StillImage" />
      </cc:Work>
    </rdf:RDF>
  </metadata>
  <g
     inkscape:label="Layer 1"
     inkscape:groupmode="layer"
     id="layer1">
    <path
       id="rect12-1-6-31-6-6-1-4"
       style="display:inline;fill:#000000;fill-opacity:0.979723;stroke:none;stroke-width:0.302968"
       d="m 67.850952,52.916665 c -8.273503,0 -14.934285,6.660675 -14.934285,14.934228 V 196.73239 c 0,8.2735 6.660782,14.93428 14.934285,14.93428 H 196.73238 c 8.27351,0 14.93429,-6.66078 14.93429,-14.93428 V 67.850893 c 0,-8.273553 -6.66078,-14.934228 -14.93429,-14.934228 z M 153.99257,87.05374 c 0.40834,0 0.94544,0.112007 1.61325,0.334521 8.97729,3.857933 16.1556,9.866905 21.53474,18.027889 5.37862,8.161 8.06766,17.11989 8.06766,26.87595 0,9.75611 -2.68904,18.71407 -8.06766,26.87502 -5.37914,8.161 -12.55745,14.17089 -21.53474,18.02882 -0.66781,0.22257 -1.20491,0.3336 -1.61325,0.3336 -1.11266,0 -2.0768,-0.40804 -2.89312,-1.22415 -0.81615,-0.8161 -1.22414,-1.78029 -1.22414,-2.89312 0,-1.48382 0.83449,-2.70799 2.50383,-3.67252 0.29687,-0.22256 0.76024,-0.46402 1.39118,-0.7237 0.66745,-0.25966 1.14952,-0.46323 1.44639,-0.61165 1.81768,-0.96447 3.56075,-2.07762 5.23009,-3.33887 5.19341,-3.85793 9.25564,-8.66124 12.18633,-14.41101 2.93052,-5.74977 4.39631,-11.85223 4.39631,-18.30678 0,-6.52883 -1.46579,-12.66829 -4.39631,-18.41804 -2.93069,-5.74977 -6.99292,-10.55403 -12.18633,-14.411964 -1.4836,-1.112835 -3.22703,-2.188046 -5.23009,-3.226727 -0.29687,-0.148342 -0.77894,-0.371386 -1.44639,-0.668159 -0.63094,-0.296721 -1.09431,-0.518829 -1.39118,-0.66719 -1.66934,-1.038663 -2.50383,-2.299911 -2.50383,-3.783726 0,-1.112835 0.40799,-2.077944 1.22414,-2.894005 0.81632,-0.816114 1.78046,-1.224189 2.89312,-1.224189 z m -29.82465,6.566519 c 1.11266,0 2.05863,0.408092 2.83756,1.224189 0.81615,0.816114 1.22413,1.780253 1.22413,2.893141 v 69.109041 c 0,1.11287 -0.40798,2.07706 -1.22413,2.89312 -0.77893,0.81612 -1.7249,1.22419 -2.83756,1.22419 -1.14988,0 -2.1142,-0.40807 -2.89313,-1.22419 L 100.1304,148.59542 H 83.437168 c -1.113011,0 -2.077327,-0.40808 -2.893477,-1.22414 -0.778931,-0.81611 -1.168574,-1.78031 -1.168574,-2.89318 v -24.37199 c 0,-1.11288 0.389643,-2.07708 1.168574,-2.89314 0.81615,-0.81611 1.780466,-1.22419 2.893477,-1.22419 H 100.1304 l 21.14439,-21.144332 c 0.77893,-0.816097 1.74325,-1.224189 2.89313,-1.224189 z m 23.37024,8.457011 c 0.55633,0 1.11248,0.075 1.66881,0.22333 5.93548,2.52248 10.70273,6.52821 14.30088,12.01831 3.59832,5.4901 5.39696,11.48152 5.39696,17.97319 0,6.49167 -1.79864,12.48216 -5.39696,17.9723 -3.59815,5.49011 -8.3654,9.49672 -14.30088,12.01922 -0.66727,0.22257 -1.20491,0.33358 -1.61324,0.33358 -1.15006,0 -2.13237,-0.40804 -2.94869,-1.22413 -0.77893,-0.81612 -1.16858,-1.78031 -1.16858,-2.89314 0,-1.63221 0.8345,-2.89341 2.50384,-3.78373 2.41141,-1.18702 4.00649,-2.11421 4.78542,-2.78191 3.15312,-2.22572 5.60175,-5.08216 7.34482,-8.56913 1.78099,-3.48699 2.67105,-7.15955 2.67105,-11.01742 0,-3.85794 -0.89006,-7.54902 -2.67105,-11.07307 -1.74307,-3.52407 -4.1917,-6.39904 -7.34482,-8.62476 -0.77893,-0.66768 -2.37401,-1.59487 -4.78542,-2.78191 -1.66934,-0.89032 -2.50384,-2.15152 -2.50384,-3.78367 0,-1.11289 0.38965,-2.05948 1.16858,-2.8385 0.81632,-0.779 1.78046,-1.16856 2.89312,-1.16856 z m -6.34328,14.91234 c 0.63094,0 1.14988,0.11201 1.55769,0.33454 2.93087,1.18708 5.30506,3.17189 7.12274,5.95403 1.85473,2.78216 2.782,5.80512 2.782,9.06956 0,3.19018 -0.90875,6.17618 -2.72644,8.95833 -1.81786,2.78214 -4.21057,4.7669 -7.1783,5.954 -0.40781,0.22256 -0.92675,0.33358 -1.55769,0.33358 -1.11266,0 -2.0768,-0.38955 -2.89312,-1.16855 -0.77894,-0.779 -1.16858,-1.76168 -1.16858,-2.94872 0,-0.89031 0.24077,-1.63241 0.72284,-2.22594 0.51947,-0.59349 1.13171,-1.1126 1.83691,-1.55777 0.74154,-0.44514 1.46456,-0.92724 2.16923,-1.44658 0.74206,-0.51934 1.35431,-1.27991 1.83691,-2.28147 0.51893,-1.00162 0.77893,-2.20727 0.77893,-3.61688 0,-1.40965 -0.26,-2.61531 -0.77893,-3.61688 -0.4826,-1.00163 -1.09485,-1.78073 -1.83691,-2.33717 -0.70467,-0.55638 -1.42769,-1.03848 -2.16923,-1.44656 -0.7052,-0.40804 -1.31744,-0.92713 -1.83691,-1.55777 -0.48207,-0.63061 -0.72284,-1.39123 -0.72284,-2.2815 0,-1.18708 0.38964,-2.17069 1.16858,-2.94964 0.81632,-0.779 1.78046,-1.16861 2.89312,-1.16861 z" />
  </g>
</svg>
