<?xml version="1.0" encoding="UTF-8" standalone="no"?>
<svg
   width="1000"
   height="1000"
   viewBox="0 0 264.58333 264.58334"
   version="1.1"
   id="svg221"
   inkscape:version="1.1.1 (3bf5ae0d25, 2021-09-20, custom)"
   sodipodi:docname="volom mid.svg"
   xmlns:inkscape="http://www.inkscape.org/namespaces/inkscape"
   xmlns:sodipodi="http://sodipodi.sourceforge.net/DTD/sodipodi-0.dtd"
   xmlns="http://www.w3.org/2000/svg"
   xmlns:svg="http://www.w3.org/2000/svg"
   xmlns:rdf="http://www.w3.org/1999/02/22-rdf-syntax-ns#"
   xmlns:cc="http://creativecommons.org/ns#"
   xmlns:dc="http://purl.org/dc/elements/1.1/">
  <defs
     id="defs215" />
  <sodipodi:namedview
     id="base"
     pagecolor="#ffffff"
     bordercolor="#666666"
     borderopacity="1.0"
     inkscape:pageopacity="0.0"
     inkscape:pageshadow="2"
     inkscape:zoom="0.49497474"
     inkscape:cx="439.41636"
     inkscape:cy="502.04582"
     inkscape:document-units="mm"
     inkscape:current-layer="layer1"
     inkscape:document-rotation="0"
     showgrid="false"
     units="px"
     showguides="true"
     inkscape:guide-bbox="true"
     inkscape:window-width="1366"
     inkscape:window-height="740"
     inkscape:window-x="0"
     inkscape:window-y="28"
     inkscape:window-maximized="0"
     inkscape:pagecheckerboard="0"
     inkscape:snap-bbox="true"
     inkscape:bbox-nodes="true"
     inkscape:snap-midpoints="true">
    <sodipodi:guide
       position="-5.0862631e-06,52.916663"
       orientation="0,-1"
       id="guide1048" />
    <sodipodi:guide
       position="75.848259,211.66667"
       orientation="0,-1"
       id="guide144" />
    <sodipodi:guide
       position="211.66667,269.38659"
       orientation="1,0"
       id="guide146" />
    <sodipodi:guide
       position="52.916667,269.38659"
       orientation="1,0"
       id="guide148" />
    <sodipodi:guide
       position="132.29166,211.66667"
       orientation="1,0"
       id="guide133" />
    <sodipodi:guide
       position="52.916666,132.29167"
       orientation="0,-1"
       id="guide135" />
  </sodipodi:namedview>
  <metadata
     id="metadata218">
    <rdf:RDF>
      <cc:Work
         rdf:about="">
        <dc:format>image/svg+xml</dc:format>
        <dc:type
           rdf:resource="http://purl.org/dc/dcmitype/StillImage" />
      </cc:Work>
    </rdf:RDF>
  </metadata>
  <g
     inkscape:label="Layer 1"
     inkscape:groupmode="layer"
     id="layer1">
    <path
       id="rect12-1-6-5-7-2-1"
       style="display:inline;fill:#000000;fill-opacity:0.979723;stroke:none;stroke-width:0.302969"
       d="m 67.850968,52.916665 c -8.273688,0 -14.934301,6.660675 -14.934301,14.934228 V 196.73239 c 0,8.2735 6.660613,14.93428 14.934301,14.93428 H 196.73254 c 8.27352,0 14.93413,-6.66078 14.93413,-14.93428 V 67.850893 c 0,-8.273553 -6.66061,-14.934228 -14.93413,-14.934228 z m 64.469182,40.703594 c 1.11301,0 2.05863,0.408039 2.83757,1.224189 0.81615,0.816167 1.22414,1.780306 1.22414,2.893141 v 69.109041 c 0,1.11282 -0.40799,2.07701 -1.22414,2.89312 -0.77894,0.81615 -1.72456,1.22419 -2.83757,1.22419 -1.14988,0 -2.11419,-0.40804 -2.89313,-1.22419 L 108.28261,148.59542 H 91.589358 c -1.113013,0 -2.07733,-0.40804 -2.893127,-1.22414 -0.779286,-0.81617 -1.168575,-1.78034 -1.168575,-2.89318 v -24.37199 c 0,-1.11283 0.389289,-2.07702 1.168575,-2.89314 0.815797,-0.81615 1.780114,-1.22419 2.893127,-1.22419 h 16.693252 l 21.14441,-21.144332 c 0.77894,-0.81615 1.74325,-1.224189 2.89313,-1.224189 z m 23.37063,8.457951 c 0.55633,0 1.11266,0.0739 1.66899,0.22239 5.93495,2.52253 10.7022,6.52914 14.30053,12.0192 3.59816,5.4901 5.39732,11.48049 5.39732,17.9723 0,6.49162 -1.79916,12.48221 -5.39732,17.9723 -3.59833,5.49011 -8.36558,9.49669 -14.30053,12.01922 -0.66781,0.2226 -1.20544,0.33358 -1.61343,0.33358 -1.14988,0 -2.13377,-0.40798 -2.94993,-1.22413 -0.77893,-0.81617 -1.16857,-1.78031 -1.16857,-2.89314 0,-1.63212 0.83573,-2.89346 2.50525,-3.78373 2.41088,-1.18708 4.00561,-2.11426 4.78454,-2.78191 3.15295,-2.22567 5.60122,-5.08212 7.34483,-8.56913 1.78046,-3.48704 2.67087,-7.1595 2.67087,-11.01742 0,-3.85797 -0.89041,-7.54902 -2.67087,-11.07307 -1.74361,-3.52407 -4.19188,-6.39909 -7.34483,-8.62476 -0.77893,-0.6676 -2.37366,-1.59483 -4.78454,-2.78191 -1.66952,-0.89022 -2.50525,-2.15155 -2.50525,-3.78367 0,-1.11284 0.38964,-2.05865 1.16857,-2.83757 0.81616,-0.77909 1.78135,-1.16855 2.89437,-1.16855 z m -6.34329,14.91234 c 0.63059,0 1.14952,0.11112 1.55786,0.3336 2.93035,1.18713 5.30489,3.17184 7.12222,5.95403 1.85508,2.78216 2.78201,5.80512 2.78201,9.06956 0,3.19014 -0.90876,6.17612 -2.72644,8.95833 -1.81734,2.78214 -4.21005,4.7669 -7.17779,5.954 -0.40834,0.22242 -0.92727,0.33358 -1.55786,0.33358 -1.11302,0 -2.07821,-0.38959 -2.89401,-1.16855 -0.77929,-0.77909 -1.16858,-1.76163 -1.16858,-2.94872 0,-0.89025 0.2413,-1.63241 0.72337,-2.22594 0.51947,-0.59355 1.13136,-1.11255 1.83603,-1.55777 0.74207,-0.445 1.46544,-0.9271 2.17011,-1.44658 0.74207,-0.51929 1.35484,-1.27995 1.83691,-2.28147 0.51947,-1.00171 0.77841,-2.20738 0.77841,-3.61688 0,-1.40956 -0.25894,-2.61523 -0.77841,-3.61688 -0.48207,-1.00157 -1.09484,-1.78063 -1.83691,-2.33717 -0.70467,-0.55649 -1.42804,-1.03857 -2.17011,-1.44656 -0.70467,-0.40799 -1.31656,-0.92719 -1.83603,-1.55777 -0.48207,-0.63056 -0.72337,-1.39127 -0.72337,-2.2815 0,-1.18713 0.38929,-2.17055 1.16858,-2.94964 0.8158,-0.77897 1.78099,-1.16767 2.89401,-1.16767 z" />
  </g>
</svg>
