<?xml version="1.0" encoding="UTF-8" standalone="no"?>
<svg
   width="1000"
   height="1000"
   viewBox="0 0 264.58333 264.58334"
   version="1.1"
   id="svg221"
   inkscape:version="1.1.1 (3bf5ae0d25, 2021-09-20, custom)"
   sodipodi:docname="weather party cloudy.svg"
   xmlns:inkscape="http://www.inkscape.org/namespaces/inkscape"
   xmlns:sodipodi="http://sodipodi.sourceforge.net/DTD/sodipodi-0.dtd"
   xmlns="http://www.w3.org/2000/svg"
   xmlns:svg="http://www.w3.org/2000/svg"
   xmlns:rdf="http://www.w3.org/1999/02/22-rdf-syntax-ns#"
   xmlns:cc="http://creativecommons.org/ns#"
   xmlns:dc="http://purl.org/dc/elements/1.1/">
  <defs
     id="defs215" />
  <sodipodi:namedview
     id="base"
     pagecolor="#ffffff"
     bordercolor="#666666"
     borderopacity="1.0"
     inkscape:pageopacity="0.0"
     inkscape:pageshadow="2"
     inkscape:zoom="0.69999999"
     inkscape:cx="507.85715"
     inkscape:cy="563.57144"
     inkscape:document-units="mm"
     inkscape:current-layer="layer1"
     inkscape:document-rotation="0"
     showgrid="false"
     units="px"
     showguides="true"
     inkscape:guide-bbox="true"
     inkscape:window-width="1366"
     inkscape:window-height="740"
     inkscape:window-x="0"
     inkscape:window-y="28"
     inkscape:window-maximized="0"
     inkscape:pagecheckerboard="0"
     inkscape:snap-bbox="true"
     inkscape:bbox-nodes="true"
     inkscape:snap-midpoints="true">
    <sodipodi:guide
       position="-5.0862631e-06,52.916663"
       orientation="0,-1"
       id="guide1048" />
    <sodipodi:guide
       position="75.848259,211.66667"
       orientation="0,-1"
       id="guide144" />
    <sodipodi:guide
       position="211.66667,269.38659"
       orientation="1,0"
       id="guide146" />
    <sodipodi:guide
       position="52.916667,269.38659"
       orientation="1,0"
       id="guide148" />
    <sodipodi:guide
       position="132.29166,211.66667"
       orientation="1,0"
       id="guide133" />
    <sodipodi:guide
       position="52.916666,132.29167"
       orientation="0,-1"
       id="guide135" />
  </sodipodi:namedview>
  <metadata
     id="metadata218">
    <rdf:RDF>
      <cc:Work
         rdf:about="">
        <dc:format>image/svg+xml</dc:format>
        <dc:type
           rdf:resource="http://purl.org/dc/dcmitype/StillImage" />
      </cc:Work>
    </rdf:RDF>
  </metadata>
  <g
     inkscape:label="Layer 1"
     inkscape:groupmode="layer"
     id="layer1">
    <path
       id="rect12-1-6-31-9-8-8-0-7-4-3-3"
       style="display:inline;fill:#000000;fill-opacity:0.979723;stroke:none;stroke-width:0.302968"
       d="m 67.850918,52.916665 c -8.273484,0 -14.934251,6.660607 -14.934251,14.934286 V 196.73238 c 0,8.27368 6.660767,14.93429 14.934251,14.93429 H 196.73259 c 8.27349,0 14.93408,-6.66061 14.93408,-14.93429 V 67.850951 c 0,-8.273679 -6.66059,-14.934286 -14.93408,-14.934286 z m 75.311732,38.14137 c 0.98477,0 1.78504,0.308151 2.40028,0.923394 0.63976,0.615243 0.95991,1.390118 0.95991,2.325153 v 8.047898 c 0,0.98425 -0.3085,1.78382 -0.92357,2.39906 -0.61506,0.61525 -1.42768,0.92252 -2.43662,0.92252 -0.93469,0 -1.70991,-0.30727 -2.32498,-0.92252 -0.61524,-0.61524 -0.92374,-1.41481 -0.92374,-2.39906 v -8.047898 c 0,-0.935035 0.3085,-1.70991 0.92374,-2.325153 0.61507,-0.615243 1.39029,-0.923394 2.32498,-0.923394 z m -27.24227,11.296445 c 0.88617,0 1.68574,0.31997 2.39923,0.95973 l 2.32603,2.58321 c 0.68933,0.59073 1.03275,1.36649 1.03275,2.32622 0,0.95973 -0.31873,1.772 -0.95849,2.43645 -0.63994,0.66446 -1.36648,0.99624 -2.17857,0.99624 -0.68932,0.0988 -1.52611,-0.22154 -2.51035,-0.95973 l -2.58409,-2.51036 c -0.63976,-0.68897 -0.95902,-1.52594 -0.95902,-2.51018 0,-0.93522 0.33178,-1.72191 0.99641,-2.36185 0.66411,-0.63976 1.47655,-0.95973 2.4361,-0.95973 z m 54.70713,0 c 0.91051,0 1.68539,0.31997 2.32515,0.95973 0.63976,0.63994 0.9599,1.42663 0.9599,2.36185 0,0.93503 -0.32014,1.772 -0.9599,2.51018 l -5.64742,5.61127 c -0.83679,0.63994 -1.61254,0.95991 -2.32656,0.95991 -0.78722,0 -1.59843,-0.31997 -2.43522,-0.95991 -0.59072,-0.59055 -0.88617,-1.40281 -0.88617,-2.43645 0,-0.88582 0.29545,-1.69827 0.88617,-2.43646 l 5.79541,-5.61039 c 0.59037,-0.63976 1.35343,-0.95973 2.28864,-0.95973 z m -27.46486,10.11412 c 2.8058,0 5.47579,0.54151 8.01031,1.62419 2.55992,1.08285 4.76212,2.54705 6.60803,4.3926 1.84572,1.84573 3.31062,4.04829 4.39329,6.60769 1.08285,2.5594 1.62419,5.24227 1.62419,8.04773 0,5.02036 -1.50142,9.3514 -4.50355,12.99365 1.10737,2.65782 1.66052,5.29148 1.66052,7.89991 0,3.54382 -0.8733,6.81653 -2.6206,9.81884 -1.7473,3.00249 -4.12183,5.36539 -7.12396,7.088 -3.00283,1.72261 -6.26354,2.58321 -9.78248,2.58321 H 98.792213 c -3.518766,0 -6.768011,-0.8606 -9.745971,-2.58321 -2.977431,-1.72261 -5.339444,-4.08551 -7.086745,-7.088 -1.722606,-3.00231 -2.584086,-6.27502 -2.584086,-9.81884 0,-4.57728 1.390291,-8.62575 4.170873,-12.14488 2.805806,-3.51913 6.411002,-5.7709 10.816119,-6.75514 1.205965,-5.36503 3.937864,-9.77087 8.195517,-13.21609 4.25731,-3.44539 9.15419,-5.16747 14.69154,-5.16747 4.03594,0 7.57958,0.86148 10.63092,2.58426 4.35608,-4.57745 9.44999,-6.86645 15.28227,-6.86645 z m 0,6.71864 c -3.6911,0 -6.90278,1.30369 -9.63433,3.9123 3.44504,3.44539 5.66048,7.30971 6.64472,11.59172 h 1.25536 c 5.33997,0 9.91724,1.89441 13.73163,5.68411 1.32909,-2.36237 1.99372,-4.77359 1.99372,-7.23456 0,-3.88831 -1.3656,-7.1866 -4.09714,-9.89364 -2.70738,-2.70703 -6.00549,-4.05993 -9.89396,-4.05993 z m -25.91319,4.20757 c -4.23278,0 -7.92494,1.42769 -11.07452,4.28236 -3.15029,2.85467 -4.99549,6.42284 -5.537,10.70484 l -0.25841,2.141 c 0,0.44309 -0.24641,0.66463 -0.738361,0.66463 l -1.95632,0.14817 c -3.322446,0.3937 -6.090858,1.78487 -8.305763,4.17194 -2.190211,2.38724 -3.285052,5.22957 -3.285052,8.52715 0,3.49461 1.254472,6.52126 3.764828,9.08048 2.509826,2.5594 5.488315,3.83945 8.933351,3.83945 H 141.4284 c 3.49425,0 6.4842,-1.26806 8.96986,-3.80294 2.51036,-2.5347 3.76571,-5.57317 3.76571,-9.11699 0,-3.44522 -1.25535,-6.42354 -3.76571,-8.93373 -2.50982,-2.51018 -5.49996,-3.76536 -8.96986,-3.76536 h -6.3498 c -0.44291,0 -0.71349,-0.22155 -0.81209,-0.66446 l -0.29545,-2.28881 c -0.39388,-4.23297 -2.20221,-7.78825 -5.42623,-10.66744 -3.19915,-2.87937 -6.96398,-4.31976 -11.29537,-4.31976 z m 56.73683,6.34964 h 8.04682 c 0.91105,0 1.66193,0.33178 2.25266,0.99624 0.61524,0.66445 0.92233,1.4649 0.92233,2.40012 0,0.93521 -0.30709,1.70991 -0.92233,2.32515 -0.59073,0.61523 -1.34161,0.92338 -2.25266,0.92338 h -8.04682 c -0.95938,0 -1.75894,-0.31996 -2.3987,-0.95972 -0.68933,-0.63993 -1.03381,-1.41569 -1.03381,-2.32621 0,-0.91052 0.33196,-1.69827 0.99641,-2.36272 0.6888,-0.66446 1.50089,-0.99624 2.4361,-0.99624 z m -5.83263,24.87976 c 0.86148,0 1.61237,0.31997 2.2523,0.95973 l 2.5467,2.58427 c 0.63976,0.63976 0.9599,1.40282 0.9599,2.28882 0,0.98442 -0.32014,1.79652 -0.9599,2.43645 -0.61507,0.63976 -1.38977,0.95973 -2.32515,0.95973 -0.93521,0 -1.69827,-0.31997 -2.28864,-0.95973 l -2.54757,-2.43645 c -0.66463,-0.73836 -0.99642,-1.57515 -0.99642,-2.51036 0,-0.93521 0.32015,-1.72279 0.95991,-2.36273 0.6641,-0.63976 1.46366,-0.95973 2.39887,-0.95973 z" />
  </g>
</svg>
