<?xml version="1.0" encoding="UTF-8" standalone="no"?>
<svg
   width="1000"
   height="1000"
   viewBox="0 0 264.58333 264.58334"
   version="1.1"
   id="svg221"
   inkscape:version="1.1.1 (3bf5ae0d25, 2021-09-20, custom)"
   sodipodi:docname="wifi on.svg"
   xmlns:inkscape="http://www.inkscape.org/namespaces/inkscape"
   xmlns:sodipodi="http://sodipodi.sourceforge.net/DTD/sodipodi-0.dtd"
   xmlns="http://www.w3.org/2000/svg"
   xmlns:svg="http://www.w3.org/2000/svg"
   xmlns:rdf="http://www.w3.org/1999/02/22-rdf-syntax-ns#"
   xmlns:cc="http://creativecommons.org/ns#"
   xmlns:dc="http://purl.org/dc/elements/1.1/">
  <defs
     id="defs215" />
  <sodipodi:namedview
     id="base"
     pagecolor="#ffffff"
     bordercolor="#666666"
     borderopacity="1.0"
     inkscape:pageopacity="0.0"
     inkscape:pageshadow="2"
     inkscape:zoom="0.49497474"
     inkscape:cx="439.41636"
     inkscape:cy="502.04582"
     inkscape:document-units="mm"
     inkscape:current-layer="layer1"
     inkscape:document-rotation="0"
     showgrid="false"
     units="px"
     showguides="true"
     inkscape:guide-bbox="true"
     inkscape:window-width="1366"
     inkscape:window-height="740"
     inkscape:window-x="0"
     inkscape:window-y="28"
     inkscape:window-maximized="0"
     inkscape:pagecheckerboard="0"
     inkscape:snap-bbox="true"
     inkscape:bbox-nodes="true"
     inkscape:snap-midpoints="true">
    <sodipodi:guide
       position="-5.0862631e-06,52.916663"
       orientation="0,-1"
       id="guide1048" />
    <sodipodi:guide
       position="75.848259,211.66667"
       orientation="0,-1"
       id="guide144" />
    <sodipodi:guide
       position="211.66667,269.38659"
       orientation="1,0"
       id="guide146" />
    <sodipodi:guide
       position="52.916667,269.38659"
       orientation="1,0"
       id="guide148" />
    <sodipodi:guide
       position="132.29166,211.66667"
       orientation="1,0"
       id="guide133" />
    <sodipodi:guide
       position="52.916666,132.29167"
       orientation="0,-1"
       id="guide135" />
  </sodipodi:namedview>
  <metadata
     id="metadata218">
    <rdf:RDF>
      <cc:Work
         rdf:about="">
        <dc:format>image/svg+xml</dc:format>
        <dc:type
           rdf:resource="http://purl.org/dc/dcmitype/StillImage" />
      </cc:Work>
    </rdf:RDF>
  </metadata>
  <g
     inkscape:label="Layer 1"
     inkscape:groupmode="layer"
     id="layer1">
    <path
       id="rect12-1-6-31-0-0-9-4-6-1"
       style="display:inline;fill:#000000;fill-opacity:0.979723;stroke:none;stroke-width:0.30297"
       d="m 67.851051,52.916665 c -8.273557,0 -14.934384,6.66075 -14.934384,14.934318 V 196.73235 c 0,8.27362 6.660827,14.93432 14.934384,14.93432 H 196.73246 c 8.27356,0 14.93421,-6.6607 14.93421,-14.93432 V 67.850983 c 0,-8.273568 -6.66065,-14.934318 -14.93421,-14.934318 z m 64.440619,35.201014 c 9.97007,0 19.44132,1.533707 28.41408,4.601368 8.97259,3.067643 17.14085,7.438873 24.50335,13.113993 l -8.74346,11.73398 c -6.13518,-4.60144 -12.96023,-8.20583 -20.47637,-10.81331 -7.51579,-2.60753 -15.41505,-3.91135 -23.6976,-3.91135 -8.28238,0 -16.18182,1.30382 -23.69743,3.91135 -7.51579,2.60748 -14.341183,6.21187 -20.476369,10.81331 l -8.742577,-11.73398 c 7.362504,-5.67512 15.529699,-10.04635 24.502466,-13.113993 8.97312,-3.067661 18.44436,-4.601368 28.41391,-4.601368 z m 0,29.449341 c 6.59539,0 12.88456,1.03579 18.86682,3.10643 5.98155,2.07069 11.50307,4.94639 16.56493,8.62756 l -8.97312,11.73397 c -3.6809,-2.76088 -7.7458,-4.90881 -12.194,-6.4426 -4.44802,-1.53385 -9.20278,-2.30068 -14.26463,-2.30068 -5.06168,0 -9.81591,0.76683 -14.26411,2.30068 -4.44802,1.53379 -8.51345,3.68172 -12.19435,6.4426 l -8.972232,-11.73397 c 5.061852,-3.68117 10.583382,-6.55687 16.564932,-8.62756 5.98208,-2.07064 12.27037,-3.10643 18.86576,-3.10643 z m 0,29.67994 c 6.74902,0 12.65455,1.91715 17.7164,5.75166 l -17.7164,23.46704 -17.71535,-23.46704 c 5.06186,-3.83451 10.9665,-5.75166 17.71535,-5.75166 z" />
  </g>
</svg>
