<?xml version="1.0" encoding="UTF-8" standalone="no"?>
<svg
   width="1000"
   height="1000"
   viewBox="0 0 264.58333 264.58334"
   version="1.1"
   id="svg221"
   inkscape:version="1.1.1 (3bf5ae0d25, 2021-09-20, custom)"
   sodipodi:docname="wifi off.svg"
   xmlns:inkscape="http://www.inkscape.org/namespaces/inkscape"
   xmlns:sodipodi="http://sodipodi.sourceforge.net/DTD/sodipodi-0.dtd"
   xmlns="http://www.w3.org/2000/svg"
   xmlns:svg="http://www.w3.org/2000/svg"
   xmlns:rdf="http://www.w3.org/1999/02/22-rdf-syntax-ns#"
   xmlns:cc="http://creativecommons.org/ns#"
   xmlns:dc="http://purl.org/dc/elements/1.1/">
  <defs
     id="defs215" />
  <sodipodi:namedview
     id="base"
     pagecolor="#ffffff"
     bordercolor="#666666"
     borderopacity="1.0"
     inkscape:pageopacity="0.0"
     inkscape:pageshadow="2"
     inkscape:zoom="0.49497474"
     inkscape:cx="439.41636"
     inkscape:cy="502.04582"
     inkscape:document-units="mm"
     inkscape:current-layer="layer1"
     inkscape:document-rotation="0"
     showgrid="false"
     units="px"
     showguides="true"
     inkscape:guide-bbox="true"
     inkscape:window-width="1366"
     inkscape:window-height="740"
     inkscape:window-x="0"
     inkscape:window-y="28"
     inkscape:window-maximized="0"
     inkscape:pagecheckerboard="0"
     inkscape:snap-bbox="true"
     inkscape:bbox-nodes="true"
     inkscape:snap-midpoints="true">
    <sodipodi:guide
       position="-5.0862631e-06,52.916663"
       orientation="0,-1"
       id="guide1048" />
    <sodipodi:guide
       position="75.848259,211.66667"
       orientation="0,-1"
       id="guide144" />
    <sodipodi:guide
       position="211.66667,269.38659"
       orientation="1,0"
       id="guide146" />
    <sodipodi:guide
       position="52.916667,269.38659"
       orientation="1,0"
       id="guide148" />
    <sodipodi:guide
       position="132.29166,211.66667"
       orientation="1,0"
       id="guide133" />
    <sodipodi:guide
       position="52.916666,132.29167"
       orientation="0,-1"
       id="guide135" />
  </sodipodi:namedview>
  <metadata
     id="metadata218">
    <rdf:RDF>
      <cc:Work
         rdf:about="">
        <dc:format>image/svg+xml</dc:format>
        <dc:type
           rdf:resource="http://purl.org/dc/dcmitype/StillImage" />
      </cc:Work>
    </rdf:RDF>
  </metadata>
  <g
     inkscape:label="Layer 1"
     inkscape:groupmode="layer"
     id="layer1">
    <path
       id="rect12-1-6-31-9-4-3-4-3-2"
       style="display:inline;fill:#000000;fill-opacity:0.979723;stroke:none;stroke-width:0.302969"
       d="m 67.850968,52.916665 c -8.273688,5.3e-5 -14.934301,6.660711 -14.934301,14.93423 V 196.73244 c 0,8.27357 6.660613,14.93423 14.934301,14.93423 H 196.73254 c 8.27352,0 14.93413,-6.66066 14.93413,-14.93423 V 67.850895 c 0,-8.273519 -6.66061,-14.93423 -14.93413,-14.93423 z m 17.897278,35.675715 81.024684,81.25315 -6.14539,6.14449 -15.9316,-15.93141 -11.83533,15.93141 -17.5244,-23.21436 c 4.70341,-3.48985 10.16511,-5.46238 16.38616,-5.91755 l -12.51778,-12.29085 c -4.55206,1.5173 -8.72489,3.64211 -12.51812,6.37331 l -8.876059,-11.60813 c 3.186109,-2.27598 6.599939,-4.24846 10.241659,-5.91755 L 97.12761,112.49041 c -2.731026,1.51733 -5.386205,3.26234 -7.965537,5.23482 l -8.648866,-11.60721 c 1.972731,-1.51731 4.020603,-2.9595 6.1445,-4.32508 L 79.37497,94.737825 Z m 47.112364,0 c 9.8626,0 19.23201,1.51747 28.1086,4.552093 8.87641,3.03464 16.95589,7.359487 24.23863,12.973547 l -8.64834,11.60721 c -6.06936,-4.55195 -12.82152,-8.11805 -20.2563,-10.69748 -7.43496,-2.57946 -15.2488,-3.86847 -23.44259,-3.86847 -6.22053,0 -12.21439,0.7587 -17.98036,2.27607 L 103.27299,93.827202 c 9.25547,-3.489846 19.11824,-5.234822 29.58762,-5.234822 z m 0,29.13285 c 6.5248,0 12.74585,1.02434 18.66351,3.07272 5.91731,2.04837 11.3799,4.89291 16.38722,8.53449 l -8.87659,11.60813 c -4.7034,-3.48986 -10.09084,-5.99356 -16.15985,-7.51089 l -15.47705,-15.47656 c 1.82104,-0.15169 3.64207,-0.22789 5.46276,-0.22789 z" />
  </g>
</svg>
