<?xml version="1.0" encoding="UTF-8" standalone="no"?>
<svg
   width="1000"
   height="1000"
   viewBox="0 0 264.58333 264.58334"
   version="1.1"
   id="svg221"
   xmlns="http://www.w3.org/2000/svg"
   xmlns:svg="http://www.w3.org/2000/svg"
   xmlns:rdf="http://www.w3.org/1999/02/22-rdf-syntax-ns#"
   xmlns:cc="http://creativecommons.org/ns#"
   xmlns:dc="http://purl.org/dc/elements/1.1/">
  <defs
     id="defs215" />
  <metadata
     id="metadata218">
    <rdf:RDF>
      <cc:Work
         rdf:about="">
        <dc:format>image/svg+xml</dc:format>
        <dc:type
           rdf:resource="http://purl.org/dc/dcmitype/StillImage" />
      </cc:Work>
    </rdf:RDF>
  </metadata>
  <g
     id="layer1">
    <path
       id="rect12-1-6-67-3-7-6-2"
       style="display:inline;fill:#000000;fill-opacity:1;stroke:none;stroke-width:0.302968"
       d="m 67.850775,52.916665 c -8.273502,0 -14.934108,6.660606 -14.934108,14.934285 v 128.88143 c 0,8.27368 6.660606,14.93429 14.934108,14.93429 H 196.73238 c 8.27351,0 14.93429,-6.66061 14.93429,-14.93429 V 67.85095 c 0,-8.273679 -6.66078,-14.934285 -14.93429,-14.934285 z M 169.38053,91.73801 c 1.79193,0 3.32545,0.637292 4.5995,1.911346 l 9.31667,9.317544 c 1.27405,1.27423 1.91134,2.80687 1.91134,4.59863 0,1.83162 -0.63729,3.38454 -1.91134,4.65877 l -49.45229,49.45228 -9.25739,9.25722 c -1.27406,1.27423 -2.82716,1.91152 -4.65878,1.91152 -1.83144,0 -3.38454,-0.63729 -4.65877,-1.91152 l -9.25722,-9.25722 -24.725787,-24.72667 c -1.274054,-1.27405 -1.911346,-2.82627 -1.911346,-4.65771 0,-1.83162 0.637292,-3.38472 1.911346,-4.65878 l 9.316664,-9.25739 c 1.274054,-1.27406 2.807752,-1.91135 4.599506,-1.91135 1.831442,0 3.383661,0.63729 4.657715,1.91135 l 20.067892,20.12716 44.79457,-44.853834 c 1.27406,-1.274054 2.82627,-1.911346 4.65772,-1.911346 z" />
  </g>
</svg>
