<?xml version="1.0" encoding="UTF-8" standalone="no"?>
<svg
   width="1000"
   height="1000"
   viewBox="0 0 264.58333 264.58334"
   version="1.1"
   id="svg221"
   xmlns="http://www.w3.org/2000/svg"
   xmlns:svg="http://www.w3.org/2000/svg"
   xmlns:rdf="http://www.w3.org/1999/02/22-rdf-syntax-ns#"
   xmlns:cc="http://creativecommons.org/ns#"
   xmlns:dc="http://purl.org/dc/elements/1.1/">
  <defs
     id="defs215" />
  <metadata
     id="metadata218">
    <rdf:RDF>
      <cc:Work
         rdf:about="">
        <dc:format>image/svg+xml</dc:format>
        <dc:type
           rdf:resource="http://purl.org/dc/dcmitype/StillImage" />
      </cc:Work>
    </rdf:RDF>
  </metadata>
  <g
     id="layer1">
    <path
       id="rect12-1-6-67-3-7-4-6"
       style="display:inline;fill:#000000;fill-opacity:1;stroke:none;stroke-width:0.30297"
       d="m 67.850989,52.916665 c -8.273615,0 -14.934322,6.660699 -14.934322,14.934322 V 196.73235 c 0,8.27362 6.660707,14.93432 14.934322,14.93432 H 196.73236 c 8.27361,0 14.93431,-6.6607 14.93431,-14.93432 V 67.850987 c 0,-8.273623 -6.6607,-14.934322 -14.93431,-14.934322 z m 52.184271,26.457728 h 24.51283 a 6.4026915,6.4026876 0 0 1 6.40309,6.403418 v 30.915939 h 18.37902 a 2.6520816,2.65208 0 0 1 1.87518,4.5266 L 136.8191,155.6074 a 6.4026915,6.4026876 0 0 1 -9.05487,0 L 93.377951,121.22035 a 2.6520816,2.65208 0 0 1 1.875191,-4.5266 H 113.63216 V 85.777811 a 6.4026915,6.4026876 0 0 1 6.4031,-6.403418 z M 95.253142,172.67191 H 169.3302 a 6.2697988,6.269795 0 0 1 6.40261,6.13361 6.4026915,6.4026876 0 0 1 -6.40261,6.40254 H 95.253142 a 6.2697988,6.269795 0 0 1 -6.402626,-6.13361 6.4026915,6.4026876 0 0 1 6.402626,-6.40254 z" />
  </g>
</svg>
