<?xml version="1.0" encoding="UTF-8" standalone="no"?>
<svg
   width="1000"
   height="1000"
   viewBox="0 0 264.58333 264.58334"
   version="1.1"
   id="svg221"
   xmlns="http://www.w3.org/2000/svg"
   xmlns:svg="http://www.w3.org/2000/svg"
   xmlns:rdf="http://www.w3.org/1999/02/22-rdf-syntax-ns#"
   xmlns:cc="http://creativecommons.org/ns#"
   xmlns:dc="http://purl.org/dc/elements/1.1/">
  <defs
     id="defs215" />
  <metadata
     id="metadata218">
    <rdf:RDF>
      <cc:Work
         rdf:about="">
        <dc:format>image/svg+xml</dc:format>
        <dc:type
           rdf:resource="http://purl.org/dc/dcmitype/StillImage" />
      </cc:Work>
    </rdf:RDF>
  </metadata>
  <g
     id="layer1">
    <path
       id="rect12-1-6-67-3-7-2-3"
       style="display:inline;fill:#000000;fill-opacity:1;stroke:none;stroke-width:0.302969"
       d="m 67.850893,52.916665 c -8.273562,0 -14.934226,6.660699 -14.934226,14.934304 V 196.73235 c 0,8.2736 6.660664,14.93432 14.934226,14.93432 H 196.73244 c 8.27356,0 14.93423,-6.66072 14.93423,-14.93432 V 67.850969 c 0,-8.273605 -6.66067,-14.934304 -14.93423,-14.934304 z m 39.743747,38.821561 c 1.83178,0 3.38447,0.637277 4.65854,1.911463 l 20.06788,20.067051 20.0679,-20.067051 c 1.27453,-1.274186 2.80717,-1.911463 4.5988,-1.911463 1.83132,0 3.38448,0.637277 4.65855,1.911463 l 9.25737,9.257351 c 1.27407,1.27413 1.91158,2.82623 1.91158,4.65788 0,1.83151 -0.63751,3.38453 -1.91158,4.65877 l -20.06789,20.06798 20.06789,20.06798 c 1.27407,1.27413 1.91158,2.80685 1.91158,4.5986 0,1.83164 -0.63751,3.38468 -1.91158,4.65876 l -9.25737,9.31757 c -1.27407,1.27413 -2.82723,1.91051 -4.65855,1.91051 -1.79163,0 -3.32427,-0.63638 -4.5988,-1.91051 l -20.0679,-20.06798 -20.06788,20.06798 c -1.27407,1.27413 -2.82676,1.91051 -4.65854,1.91051 -1.83132,0 -3.38448,-0.63638 -4.65855,-1.91051 l -9.257369,-9.31757 c -1.274072,-1.27408 -1.910641,-2.82712 -1.910641,-4.65876 0,-1.79175 0.636569,-3.32447 1.910641,-4.5986 L 113.74661,132.29167 93.678721,112.22369 c -1.274072,-1.27424 -1.910641,-2.82726 -1.910641,-4.65877 0,-1.83165 0.636569,-3.38375 1.910641,-4.65788 l 9.257369,-9.257351 c 1.27407,-1.274186 2.82723,-1.911463 4.65855,-1.911463 z" />
  </g>
</svg>
