<?xml version="1.0" encoding="UTF-8" standalone="no"?>
<svg
   width="1000"
   height="1000"
   viewBox="0 0 264.58333 264.58334"
   version="1.1"
   id="svg221"
   xmlns="http://www.w3.org/2000/svg"
   xmlns:svg="http://www.w3.org/2000/svg"
   xmlns:rdf="http://www.w3.org/1999/02/22-rdf-syntax-ns#"
   xmlns:cc="http://creativecommons.org/ns#"
   xmlns:dc="http://purl.org/dc/elements/1.1/">
  <defs
     id="defs215" />
  <metadata
     id="metadata218">
    <rdf:RDF>
      <cc:Work
         rdf:about="">
        <dc:format>image/svg+xml</dc:format>
        <dc:type
           rdf:resource="http://purl.org/dc/dcmitype/StillImage" />
      </cc:Work>
    </rdf:RDF>
  </metadata>
  <g
     id="layer1">
    <path
       id="rect12-1-6-67-3-7-8-7"
       style="display:inline;fill:#000000;fill-opacity:1;stroke:none;stroke-width:0.302968"
       d="m 67.850884,52.916665 c -8.273557,0 -14.934217,6.660606 -14.934217,14.934285 v 128.88143 c 0,8.27368 6.66066,14.93429 14.934217,14.93429 H 196.73245 c 8.27356,0 14.93422,-6.66061 14.93422,-14.93429 V 67.85095 c 0,-8.273679 -6.66066,-14.934285 -14.93422,-14.934285 z M 132.3213,79.375116 c 7.20036,0 14.05903,1.388354 20.57558,4.163827 6.55675,2.775474 12.18854,6.536076 16.89487,11.282691 4.70638,4.746615 8.44703,10.378346 11.22256,16.894846 2.8158,6.51667 4.22396,13.37536 4.22396,20.57572 0,7.20035 -1.40816,14.07792 -4.22396,20.63481 -2.77553,6.55671 -6.51618,12.18844 -11.22256,16.89484 -4.70633,4.7064 -10.33812,8.44795 -16.89487,11.22342 -6.51655,2.77565 -13.37522,4.16295 -20.57558,4.16295 -7.20036,0 -14.07808,-1.3873 -20.63485,-4.16295 -6.51651,-2.77547 -12.148301,-6.51702 -16.894863,-11.22342 -4.706381,-4.7064 -8.467849,-10.33813 -11.283645,-16.89484 -2.775527,-6.55689 -4.162875,-13.43446 -4.162875,-20.63481 0,-7.20036 1.387348,-14.05905 4.162875,-20.57572 2.815796,-6.5165 6.577264,-12.148231 11.283645,-16.894846 4.746562,-4.746615 10.378353,-8.507217 16.894863,-11.282691 6.55677,-2.775473 13.43449,-4.163827 20.63485,-4.163827 z m -5.79177,9.952016 c -0.39222,0.02293 -0.69393,0.125236 -0.9051,0.305329 -0.20116,0.321732 -0.32165,0.583669 -0.36188,0.784752 -0.0402,0.201083 0.0603,0.38241 0.30171,0.543277 0.24133,0.160513 0.48237,0.301271 0.7237,0.422097 0.24137,0.119945 0.50236,0.221192 0.78391,0.301625 0.2816,0.08114 0.48276,0.160513 0.60344,0.241652 0.64361,0.402166 0.82483,0.723898 0.54328,0.965198 -1.12633,0.482775 -1.70899,0.764468 -1.74923,0.845077 -0.12065,0.160514 -0.14146,0.462491 -0.061,0.90505 0.12065,0.442558 0.0808,0.784047 -0.1203,1.025522 -0.2011,-0.241475 -0.40228,-0.643818 -0.60339,-1.20685 -0.16368,-0.45861 -0.2943,-0.782106 -0.40472,-1.027286 0.0434,0.296685 -0.54056,0.378706 -1.76741,0.242357 l -0.72376,-0.05997 c -0.16087,0 -0.52334,0.04057 -1.0865,0.121708 -0.56316,0.08114 -1.04614,0.100542 -1.4484,0.05997 -0.36205,-0.04057 -0.66376,-0.221543 -0.90515,-0.543276 -0.20114,-0.442559 -0.20114,-0.904697 0,-1.387296 0.0804,-0.08114 0.16104,-0.100541 0.24156,-0.06174 -0.20113,-0.160513 -0.46212,-0.381881 -0.7839,-0.663573 l -0.6636,-0.663574 c -2.09172,0.724075 -4.24383,1.689097 -6.45624,2.895947 0.28161,0 0.5625,-0.04057 0.84406,-0.119945 0.0804,0 0.6033,-0.281868 1.56874,-0.845077 1.48833,-0.643641 2.45431,-0.803979 2.89678,-0.48207 l 0.36188,-0.361949 c 0.52292,0.563209 0.98504,1.165752 1.38729,1.809393 -0.28155,-0.160513 -0.98472,-0.200906 -2.11105,-0.119944 -0.92518,0.2413 -1.42808,0.523169 -1.50855,0.844901 0.32179,0.643642 0.4423,1.045984 0.36188,1.20685 -0.20113,-0.08114 -0.48298,-0.281516 -0.84499,-0.603425 -0.32178,-0.321732 -0.64348,-0.583669 -0.96526,-0.784752 -0.32184,-0.201259 -0.66345,-0.341665 -1.02547,-0.422098 -0.72408,0 -1.227,0.04057 -1.50855,0.119944 -6.75789,3.700807 -12.168551,8.809724 -16.231308,15.326224 0.321786,0.32173 0.603619,0.48225 0.844954,0.48225 0.160866,0.0811 0.261478,0.3025 0.301712,0.66445 0.08043,0.36195 0.161043,0.62301 0.241565,0.78387 0.08043,0.16052 0.341435,0.0794 0.783905,-0.24147 0.402237,0.40216 0.46295,0.84525 0.181346,1.32803 0.04022,-0.0811 1.046107,0.52299 3.017146,1.81027 0.92517,0.80451 1.40726,1.28658 1.44744,1.44745 0.0402,0.2413 -0.0196,0.50323 -0.18046,0.78475 -0.12065,0.28169 -0.28198,0.46284 -0.48308,0.54327 -0.04,-0.16051 -0.26135,-0.38293 -0.66359,-0.66445 -0.36202,-0.28152 -0.563207,-0.38206 -0.603441,-0.30163 -0.12065,0.2413 -0.12065,0.66446 0,1.26789 0.160866,0.60324 0.422781,0.90416 0.784841,0.90416 -0.32182,0 -0.54384,0.36248 -0.664527,1.08656 -0.08043,0.72407 -0.120297,1.52876 -0.120297,2.4137 0,0.88494 -0.03969,1.44762 -0.120297,1.68892 h 0.120297 c -0.120649,0.5632 -1.41e-4,1.36789 0.361884,2.4137 0.40225,1.04598 0.9052,1.48819 1.50854,1.32714 -0.56312,0.12171 -0.16087,1.0668 1.20687,2.83668 l 0.72376,0.78387 c 0.16086,0.0811 0.4427,0.24183 0.84495,0.48313 0.44247,0.2413 0.78408,0.46249 1.02547,0.66358 0.28155,0.20108 0.52349,0.46213 0.72462,0.78404 0.16087,0.2413 0.38201,0.76412 0.66361,1.56863 0.28155,0.8045 0.60325,1.3282 0.96525,1.56968 -0.0804,0.32173 0.14058,0.8038 0.66359,1.44744 0.52294,0.64364 0.76488,1.16646 0.72464,1.56862 h -0.18134 c -0.0804,0 -0.14111,0.0406 -0.18142,0.12171 0.12065,0.32173 0.4632,0.64347 1.02635,0.9652 0.60339,0.32191 0.98487,0.6036 1.14579,0.84508 0.0804,0.16051 0.12118,0.40181 0.12118,0.72372 0.0402,0.32173 0.10001,0.58279 0.18048,0.78387 0.0804,0.20108 0.26167,0.26176 0.54327,0.18133 0.0804,-0.96538 -0.46236,-2.41335 -1.62891,-4.34428 -0.28155,-0.40216 -0.66396,-1.04563 -1.14666,-1.93057 -0.12065,-0.2413 -0.26111,-0.60378 -0.42203,-1.08655 -0.12065,-0.4826 -0.22126,-0.8442 -0.30173,-1.0855 0.0804,0 0.18104,0.0406 0.30173,0.11995 0.12065,0.0811 0.26111,0.14111 0.42203,0.18133 0.2011,0.0406 0.36244,0.10054 0.48307,0.18044 0.16087,0.0811 0.28141,0.16051 0.36188,0.24165 0.12065,0.0811 0.16051,0.11995 0.1203,0.11995 -0.12065,0.2413 -0.12065,0.5431 0,0.90505 0.12065,0.36212 0.32187,0.74453 0.60342,1.1467 0.28161,0.40234 0.54347,0.74401 0.78484,1.02552 0.28157,0.28152 0.58334,0.60413 0.90512,0.96626 l 0.66359,0.66357 c 0.24132,0.2413 0.54309,0.68351 0.90511,1.32715 0.40229,0.64346 0.42222,0.9652 0.0601,0.9652 0.80453,0 1.64906,0.68421 2.534,2.05192 0.24139,0.40217 0.42259,1.00577 0.5433,1.81028 0.12065,0.80433 0.24117,1.36719 0.36186,1.68892 0.0804,0.32191 0.26167,0.62353 0.54324,0.90522 0.32182,0.28152 0.60362,0.50271 0.84499,0.66358 0.28157,0.16051 0.64311,0.34202 1.08563,0.54327 0.48269,0.20109 0.80439,0.34149 0.96526,0.42193 0.20115,0.16051 0.62341,0.4228 1.26703,0.78492 0.64357,0.36195 1.14652,0.62301 1.50854,0.78388 0.44248,0.16051 0.80495,0.24147 1.08652,0.24147 0.28161,0 0.60325,-0.06 0.96531,-0.18044 0.40225,-0.11995 0.72393,-0.18133 0.96527,-0.18133 0.68384,-0.16052 1.34804,0.16051 1.99165,0.9652 0.68386,0.8045 1.16591,1.28746 1.44752,1.4485 1.68943,0.88494 2.95715,1.16663 3.80191,0.8449 -0.0804,0 -0.0605,0.16051 0.0602,0.48225 0.12065,0.32173 0.3019,0.68421 0.54322,1.08655 0.24139,0.40216 0.44164,0.7239 0.60251,0.9652 0.16087,0.2413 0.28234,0.44256 0.36281,0.60342 0.2011,0.2413 0.60343,0.58297 1.20682,1.02552 0.64363,0.44239 1.0659,0.78405 1.26704,1.02535 0.21706,-0.12347 0.36024,-0.27199 0.43388,-0.44379 0.009,-0.0565 0.0233,-0.10936 0.0483,-0.16052 -0.009,0.0547 -0.0266,0.10936 -0.0483,0.16052 -0.0519,0.30339 0.12347,0.6925 0.53139,1.16857 0.4827,0.56303 0.90496,0.80416 1.26703,0.72372 0.64357,-0.0811 0.96525,-0.8045 0.96525,-2.17222 -1.40786,0.64364 -2.53424,0.2413 -3.37895,-1.20685 0,-0.0811 -0.0598,-0.22084 -0.18048,-0.4221 l -0.24155,-0.60325 -0.24156,-0.60342 c -0.0402,-0.20126 -0.0402,-0.36248 0,-0.48313 0.04,-0.11994 0.16069,-0.18062 0.36186,-0.18062 0.40225,0 0.62337,-0.0811 0.66361,-0.24148 0.0804,-0.16051 0.0406,-0.46267 -0.1203,-0.90505 -0.12065,-0.44256 -0.20133,-0.74436 -0.24156,-0.90522 -0.0402,-0.32174 -0.3012,-0.76394 -0.78391,-1.32715 -0.44247,-0.56321 -0.70439,-0.92569 -0.7848,-1.08655 -0.24138,0.40234 -0.62379,0.58349 -1.14671,0.54327 -0.48271,-0.0406 -0.84425,-0.22136 -1.08558,-0.54327 l -0.12118,0.3018 c -0.04,0.20108 -0.0602,0.34237 -0.0602,0.42298 h -1.02547 c 0.04,-0.16052 0.0801,-0.5842 0.1203,-1.26806 0.0804,-0.68386 0.16104,-1.18568 0.24154,-1.50759 0.0402,-0.2413 0.16069,-0.5431 0.36188,-0.90505 0.24137,-0.36213 0.42259,-0.68386 0.54328,-0.96538 0.12065,-0.28151 0.20134,-0.56338 0.24153,-0.8449 0.0804,-0.28169 -2e-4,-0.5027 -0.24153,-0.66357 -0.24137,-0.16051 -0.64372,-0.20179 -1.20687,-0.12171 -0.84471,0 -1.4482,0.44309 -1.81026,1.32803 -0.0804,0.16051 -0.16104,0.36213 -0.24156,0.60342 -0.0402,0.24148 -0.0801,0.44168 -0.1203,0.60255 -0.04,0.16051 -0.12083,0.32226 -0.24151,0.48313 -0.12065,0.16051 -0.30196,0.28151 -0.54328,0.36195 -0.32178,0.16051 -0.88453,0.22154 -1.68902,0.18132 -0.7643,-0.0406 -1.30706,-0.18168 -1.6289,-0.42298 -0.64362,-0.32173 -1.18732,-0.96519 -1.62979,-1.93057 -0.40224,-0.96537 -0.60339,-1.84979 -0.60339,-2.65429 0,-0.40235 0.0607,-0.98584 0.18136,-1.75013 0.12065,-0.76429 0.1814,-1.34778 0.1814,-1.75013 0.0402,-0.40216 -0.0811,-0.96484 -0.36276,-1.68892 0.12065,-0.16051 0.32183,-0.40287 0.60339,-0.72478 0.32183,-0.32173 0.56377,-0.52299 0.72469,-0.60342 0.0804,-0.0811 0.26167,-0.14111 0.54322,-0.18045 0.28161,-0.0406 0.46195,-0.22136 0.54234,-0.54327 -0.04,0 -0.10001,-0.0406 -0.18046,-0.11995 -0.0804,-0.0811 -0.16104,-0.14111 -0.24156,-0.18133 l -0.1203,-0.06 c 0.32184,0.16052 0.96518,0.14111 1.93057,-0.06 1.00568,-0.20126 1.64902,-0.18133 1.93063,0.06 0.6838,0.4826 1.18676,0.44274 1.50854,-0.11994 l -0.18139,-0.66463 c -0.12065,-0.44239 -0.12065,-0.74419 0,-0.90505 0.20113,1.20667 0.86534,1.40793 1.99165,0.60342 0.16087,0.16052 0.52246,0.2824 1.08564,0.36283 0.56315,0.0811 0.9655,0.20091 1.20681,0.36178 0.12065,0.0811 0.26206,0.20108 0.42297,0.36195 0.2011,0.16051 0.34158,0.2614 0.42204,0.30162 0.0804,0.0406 0.20096,0.0194 0.36183,-0.06 0.16087,-0.0811 0.34212,-0.24165 0.54328,-0.48313 0.4827,0.80451 0.76454,1.36824 0.84499,1.68998 0.40225,1.76988 0.84444,2.77494 1.32714,3.01624 0.60339,0.40217 0.94502,0.24183 1.02547,-0.48225 0.12065,-0.72407 0.10072,-1.3275 -0.0601,-1.81027 l -0.0601,-0.60343 c -0.0402,-0.40216 -0.0601,-0.8045 -0.0601,-1.20685 l -0.0602,-0.60342 c -0.52292,-0.0811 -0.9053,-0.26158 -1.14667,-0.54328 -0.20113,-0.28151 -0.28178,-0.58331 -0.24156,-0.90505 0.0804,-0.32191 0.22094,-0.64346 0.42204,-0.96537 0.24137,-0.32173 0.52315,-0.64347 0.84499,-0.9652 0.0402,0 0.22146,-0.0811 0.54324,-0.24147 0.32183,-0.16052 0.66345,-0.32138 1.02547,-0.48225 0.40224,-0.16051 0.70401,-0.32226 0.90514,-0.48313 0.96541,-0.88494 1.30704,-1.68962 1.02544,-2.4137 0.40223,0 0.66415,-0.20108 0.78484,-0.60342 -0.0402,0 -0.16087,-0.06 -0.36188,-0.18045 l -0.48313,-0.36195 c -0.16087,-0.11994 -0.26148,-0.18133 -0.30171,-0.18133 0.44247,-0.2413 0.48327,-0.60289 0.12118,-1.08567 0.20113,-0.16051 0.36149,-0.4228 0.48219,-0.78475 0.12065,-0.36213 0.30189,-0.58314 0.54328,-0.66357 0.40223,0.52299 0.86435,0.58367 1.38729,0.18132 0.44247,-0.36195 0.48325,-0.74436 0.12118,-1.1467 0.24132,-0.32173 0.72431,-0.56374 1.44838,-0.7246 0.72408,-0.16052 1.14635,-0.36213 1.26698,-0.60343 0.28161,0.0811 0.44201,0.0212 0.4822,-0.18044 0.0804,-0.20126 0.10036,-0.48295 0.0601,-0.8449 0,-0.36213 0.0806,-0.62318 0.24152,-0.78405 0.20115,-0.2413 0.54364,-0.44238 1.0264,-0.60343 0.4827,-0.16051 0.78354,-0.28222 0.90417,-0.36265 l 1.20688,-0.78405 c 0.16087,-0.16051 0.16087,-0.2614 0,-0.30162 0.76426,0.11994 1.44844,-0.11995 2.05183,-0.72372 0.52292,-0.523 0.40237,-1.00595 -0.36188,-1.44851 0.12065,-0.2413 0.04,-0.44238 -0.24157,-0.60342 -0.24133,-0.16051 -0.56301,-0.28134 -0.9653,-0.36177 0.12065,-0.0811 0.38259,-0.10055 0.78484,-0.06 0.40224,0.0406 0.64329,0.0194 0.72374,-0.0617 0.72404,-0.48278 0.56275,-0.84437 -0.48311,-1.08567 -0.72404,-0.2413 -1.70905,-3.6e-4 -2.95606,0.72372 -0.0804,0.0811 -0.30152,0.32244 -0.66354,0.7246 -0.36206,0.40235 -0.66382,0.60343 -0.90516,0.60343 0.12065,0 0.22127,-0.10054 0.30172,-0.30163 0.12065,-0.20126 0.22126,-0.44308 0.30173,-0.7246 0.12065,-0.28169 0.20039,-0.46284 0.24063,-0.54328 0.16086,-0.16051 0.68375,-0.4826 1.56869,-0.96537 0.80454,-0.32173 1.99157,-0.60272 3.56037,-0.84402 1.52856,-0.40234 2.69479,-0.16051 3.49932,0.72372 -0.0804,-0.0811 0.14058,-0.38223 0.66355,-0.90505 0.56316,-0.52299 0.9057,-0.78493 1.02639,-0.78493 0.12065,-0.0811 0.44235,-0.18097 0.96527,-0.30162 0.56317,-0.11994 0.92472,-0.3011 1.08563,-0.5424 l 0.12118,-1.56879 c -0.52292,0.0811 -0.92526,-0.0811 -1.20686,-0.48296 -0.24132,-0.40234 -0.3818,-0.88529 -0.42203,-1.4485 0,0.0811 -0.14129,0.28169 -0.42293,0.60343 0,-0.32174 -0.10054,-0.50218 -0.30171,-0.5424 -0.20114,-0.0406 -0.46212,-0.0194 -0.78391,0.06 -0.32178,0.0811 -0.5429,0.0811 -0.66359,0 -0.4827,-0.0811 -0.82521,-0.24165 -1.02635,-0.48312 -0.2011,-0.2413 -0.36151,-0.62371 -0.48219,-1.14653 -0.12065,-0.52299 -0.22127,-0.86466 -0.30172,-1.02552 -0.12065,-0.16052 -0.34177,-0.38206 -0.66359,-0.66358 -0.32178,-0.28151 -0.5438,-0.54345 -0.66449,-0.78475 l -0.1805,-0.36193 c -0.0804,-0.16051 -0.16104,-0.30127 -0.24157,-0.4221 -0.0402,-0.11994 -0.12082,-0.24112 -0.24156,-0.36177 -0.12065,-0.11994 -0.24119,-0.18133 -0.36183,-0.18133 -0.12064,0 -0.28197,0.11995 -0.48312,0.36178 -0.20114,0.2413 -0.38143,0.46249 -0.54235,0.66357 -0.16086,0.20108 -0.26149,0.3018 -0.30171,0.3018 -0.16086,-0.0811 -0.30227,-0.11994 -0.42292,-0.11994 -0.12065,0 -0.22127,0.0194 -0.30172,0.06 -0.0804,0.0406 -0.20101,0.12171 -0.36188,0.24148 l -0.30171,0.3018 c -0.16086,0.0811 -0.36207,0.14111 -0.60344,0.18132 -0.24132,0.0406 -0.42166,0.06 -0.54234,0.06 0.68384,-0.20109 0.62312,-0.46302 -0.1814,-0.78476 -0.40226,-0.16051 -0.74387,-0.22084 -1.02544,-0.18062 0.44249,-0.16051 0.62281,-0.42263 0.54236,-0.78475 -0.0804,-0.36195 -0.2816,-0.66375 -0.60344,-0.90505 h 0.36281 c -0.0402,-0.16051 -0.24142,-0.36213 -0.60344,-0.60343 -0.32178,-0.24147 -0.72413,-0.46249 -1.20683,-0.66357 -0.48269,-0.20126 -0.78445,-0.34166 -0.90514,-0.4221 -0.3218,-0.2413 -1.08661,-0.462487 -2.29338,-0.66357 -1.20675,-0.201083 -1.97064,-0.181151 -2.29246,0.05997 -0.24133,0.241299 -0.36187,0.48242 -0.36187,0.72372 0.04,0.2413 0.14093,0.56304 0.30171,0.96538 0.16086,0.40216 0.24068,0.68403 0.24068,0.8449 0.04,0.2413 -0.10019,0.5431 -0.42204,0.90505 -0.28159,0.36212 -0.42203,0.62318 -0.42203,0.78405 0,0.32173 0.32164,0.68421 0.96527,1.08655 0.68384,0.40216 0.92489,0.88512 0.72375,1.44832 -0.12065,0.40217 -0.48224,0.7837 -1.08563,1.14582 -0.60339,0.36195 -0.98575,0.62389 -1.14667,0.78476 -0.20113,0.40216 -0.22107,0.84437 -0.0601,1.32714 0.16087,0.48278 0.4019,0.84526 0.72374,1.08656 0.0804,0.16051 0.10037,0.28134 0.0601,0.36195 0,0.0794 -0.0797,0.18097 -0.24063,0.30162 -0.12065,0.11994 -0.24213,0.22119 -0.36281,0.30162 -0.12065,0.0811 -0.26111,0.16052 -0.42203,0.24166 l -0.24156,0.11994 c -0.52294,0.2413 -1.00498,0.10054 -1.44747,-0.4221 -0.40223,-0.52281 -0.704,-1.14635 -0.90515,-1.87042 l -0.061,-0.30162 c -0.0402,-0.20109 -0.0801,-0.34255 -0.1203,-0.42298 0,-0.0811 -0.0397,-0.20091 -0.12029,-0.36178 -0.04,-0.16051 -0.1009,-0.28151 -0.18137,-0.36195 -0.04,-0.0811 -0.12082,-0.18097 -0.24154,-0.3018 -0.12065,-0.11994 -0.2412,-0.22119 -0.36188,-0.30162 -1.0861,-0.32173 -1.74941,-0.28187 -1.99075,0.11994 -0.24137,-0.64364 -1.18741,-1.24618 -2.83666,-1.80939 -1.04586,-0.40217 -2.37244,-0.48278 -3.98146,-0.24148 0.28155,-0.0406 0.28155,-0.40269 0,-1.08655 -0.40225,-0.64364 -0.84538,-0.92533 -1.32808,-0.8449 0.12065,-0.16051 0.20133,-0.36124 0.24156,-0.60254 0.0402,-0.2413 0.0601,-0.52317 0.0601,-0.8449 0,-0.32191 0.0201,-0.56392 0.0602,-0.72478 0.12065,-0.56321 0.38255,-1.08603 0.78479,-1.56863 0.0402,-0.0811 0.20152,-0.281692 0.48313,-0.603425 0.28155,-0.321909 0.50267,-0.623533 0.66359,-0.905225 0.2011,-0.281516 0.22103,-0.421922 0.0601,-0.421922 1.60896,0.160514 2.75526,-0.07937 3.43911,-0.723722 0.20114,-0.241476 0.44214,-0.643818 0.72374,-1.20685 0.32179,-0.563208 0.58371,-0.925687 0.78481,-1.086553 0.40224,-0.321909 0.72393,-0.462314 0.9653,-0.422098 0.24134,0.04057 0.58295,0.160514 1.02543,0.361949 0.44252,0.201083 0.76416,0.301625 0.96532,0.301625 0.6436,0.08114 1.00605,-0.160514 1.0865,-0.723722 0.0804,-0.563209 -0.10072,-1.006297 -0.54323,-1.328029 0.52292,0 0.6235,-0.361597 0.30172,-1.085671 -0.20114,-0.442383 -0.40235,-0.683506 -0.60343,-0.723723 -0.52294,-0.160513 -1.12647,-0.05997 -1.81027,0.301801 -0.44248,0.201083 -0.42167,0.381352 0.061,0.542218 -0.04,0 -0.26224,0.261937 -0.66448,0.784929 -0.40226,0.522816 -0.78373,0.905226 -1.14579,1.146702 -0.32178,0.241299 -0.68426,0.119944 -1.08652,-0.362831 -0.04,0 -0.16069,-0.301801 -0.36187,-0.905226 -0.20109,-0.603249 -0.42221,-0.904167 -0.6636,-0.904167 -0.40223,0 -0.76468,0.361596 -1.0865,1.085671 0.16087,-0.402342 -0.10001,-0.763939 -0.7839,-1.085671 -0.64357,-0.321733 -1.18639,-0.522992 -1.62886,-0.603426 0.88494,-0.563208 0.70372,-1.166633 -0.54328,-1.810275 -0.32178,-0.241299 -0.80477,-0.382763 -1.4484,-0.422979 -0.15081,-0.01764 -0.2913,-0.01764 -0.42202,0 z m 21.54817,66.526688 c -0.0753,0 -0.15839,0.0176 -0.24883,0.03 -0.36202,0.0811 -0.64385,0.18097 -0.845,0.30162 -0.16087,0.11994 -0.42277,0.30198 -0.78479,0.54328 -0.32179,0.24147 -0.52204,0.40181 -0.60251,0.48224 -0.0804,0.0811 -0.26167,0.20179 -0.54328,0.36283 -0.28155,0.16052 -0.48274,0.32121 -0.60339,0.48207 -0.12065,0.16052 -0.26204,0.44274 -0.42296,0.84508 -0.16087,0.40217 -0.28141,0.64329 -0.36188,0.72372 -0.0804,-0.16051 -0.34143,-0.30144 -0.7839,-0.42209 -0.44247,-0.11995 -0.66354,-0.2212 -0.66354,-0.30163 0.0804,0.4826 0.18103,1.28728 0.30166,2.4137 0.12065,1.12624 0.24124,1.97079 0.36188,2.534 0.2816,1.44815 -2.3e-4,2.57439 -0.84496,3.3789 -1.24699,1.12641 -1.91032,2.05157 -1.99072,2.77565 -0.16087,0.96537 0.10001,1.52805 0.78385,1.68892 0,0.32191 -0.18122,0.80486 -0.54322,1.4485 -0.36202,0.64346 -0.52243,1.12659 -0.48219,1.44832 0,0.0811 0.0598,0.48278 0.18046,1.20685 9.453,-1.60901 17.5187,-5.95399 24.19611,-13.03369 -0.16086,-0.16052 -0.46263,-0.28134 -0.90515,-0.36195 -0.40224,-0.0811 -0.68404,-0.16052 -0.84495,-0.24148 l -1.62886,-0.60342 c 0.0402,-0.32174 -0.0406,-0.62266 -0.24155,-0.90417 -0.16087,-0.28169 -0.34214,-0.48278 -0.5433,-0.60343 -0.16086,-0.11994 -0.44176,-0.30197 -0.84405,-0.54327 l -0.72464,-0.48313 c -0.0804,-0.0811 -0.30154,-0.24077 -0.66359,-0.48225 -0.32179,-0.2413 -0.52297,-0.38258 -0.60339,-0.42298 -0.0402,-0.0406 -0.26136,-0.11994 -0.66359,-0.24059 -0.36206,-0.11995 -0.64386,-0.10054 -0.84501,0.06 h -0.18046 c -0.12065,0.0811 -0.24213,0.14111 -0.36276,0.18045 -0.12065,0.0406 -0.26116,0.10054 -0.42203,0.1815 -0.12065,0.0811 -0.20133,0.13935 -0.24156,0.18045 -0.0402,0.0406 -0.0402,0.10054 0,0.18132 -0.84473,-0.72407 -1.68929,-1.20702 -2.53402,-1.44832 -0.20115,-0.0811 -0.46207,-0.22084 -0.7839,-0.42192 -0.28156,-0.20126 -0.52354,-0.36248 -0.72464,-0.48313 -0.16087,-0.12171 -0.38199,-0.16052 -0.6636,-0.11995 -0.28155,0.0406 -0.54347,0.22155 -0.78478,0.54328 -0.20116,0.16051 -0.32165,0.4826 -0.36188,0.96537 -0.0402,0.4826 -0.10001,0.80434 -0.18048,0.9652 -0.32182,-0.2413 -0.34176,-0.64364 -0.0601,-1.20685 0.32178,-0.56303 0.38156,-1.00524 0.18046,-1.32715 -0.0905,-0.18097 -0.24865,-0.27163 -0.47491,-0.27163 z" />
  </g>
</svg>
