<?xml version="1.0" encoding="UTF-8" standalone="no"?>
<svg
   width="1000"
   height="1000"
   viewBox="0 0 264.58333 264.58334"
   version="1.1"
   id="svg221"
   inkscape:version="1.1 (c4e8f9ed74, 2021-05-24)"
   sodipodi:docname="mic.svg"
   xmlns:inkscape="http://www.inkscape.org/namespaces/inkscape"
   xmlns:sodipodi="http://sodipodi.sourceforge.net/DTD/sodipodi-0.dtd"
   xmlns="http://www.w3.org/2000/svg"
   xmlns:svg="http://www.w3.org/2000/svg"
   xmlns:rdf="http://www.w3.org/1999/02/22-rdf-syntax-ns#"
   xmlns:cc="http://creativecommons.org/ns#"
   xmlns:dc="http://purl.org/dc/elements/1.1/">
  <defs
     id="defs215" />
  <sodipodi:namedview
     id="base"
     pagecolor="#ffffff"
     bordercolor="#666666"
     borderopacity="1.0"
     inkscape:pageopacity="0.0"
     inkscape:pageshadow="2"
     inkscape:zoom="0.24748737"
     inkscape:cx="529.31994"
     inkscape:cy="393.9595"
     inkscape:document-units="mm"
     inkscape:current-layer="layer1"
     inkscape:document-rotation="0"
     showgrid="false"
     units="px"
     showguides="true"
     inkscape:guide-bbox="true"
     inkscape:window-width="610"
     inkscape:window-height="738"
     inkscape:window-x="751"
     inkscape:window-y="26"
     inkscape:window-maximized="0"
     inkscape:pagecheckerboard="0"
     inkscape:snap-bbox="true"
     inkscape:bbox-paths="true"
     inkscape:bbox-nodes="true">
    <sodipodi:guide
       position="-5.0862631e-06,52.916663"
       orientation="0,-1"
       id="guide1048" />
    <sodipodi:guide
       position="-5.0862631e-06,211.66667"
       orientation="0,-1"
       id="guide144" />
    <sodipodi:guide
       position="211.66667,269.38659"
       orientation="1,0"
       id="guide146" />
    <sodipodi:guide
       position="52.916667,269.38659"
       orientation="1,0"
       id="guide148" />
  </sodipodi:namedview>
  <metadata
     id="metadata218">
    <rdf:RDF>
      <cc:Work
         rdf:about="">
        <dc:format>image/svg+xml</dc:format>
        <dc:type
           rdf:resource="http://purl.org/dc/dcmitype/StillImage" />
      </cc:Work>
    </rdf:RDF>
  </metadata>
  <g
     inkscape:label="Layer 1"
     inkscape:groupmode="layer"
     id="layer1">
    <path
       id="rect12-1-6-67-3-7-8-1-4-13"
       style="display:inline;fill:#000000;fill-opacity:1;stroke:none;stroke-width:0.302969"
       d="m 67.851034,52.916665 c -8.273724,0 -14.934367,6.660606 -14.934367,14.934109 V 196.73238 c 0,8.27351 6.660643,14.93429 14.934367,14.93429 H 196.7323 c 8.27355,0 14.93437,-6.66078 14.93437,-14.93429 V 67.850774 c 0,-8.273503 -6.66082,-14.934109 -14.93437,-14.934109 z m 64.412316,26.458451 c 5.60143,0 10.38723,1.984724 14.35653,5.953994 4.00633,3.969271 6.00958,8.772506 6.00958,14.411117 v 32.495353 c 0,5.63843 -2.00325,10.44272 -6.00958,14.41182 -3.9693,3.96927 -8.7551,5.95399 -14.35653,5.95399 -5.60142,0 -10.38616,-1.98472 -14.35545,-5.95399 -3.96912,-3.9691 -5.95403,-8.77339 -5.95403,-14.41182 V 99.740227 c 0,-5.638611 1.98491,-10.441846 5.95403,-14.411117 3.96929,-3.96927 8.75403,-5.953994 14.35545,-5.953994 z M 99.712265,120.10604 c 1.112845,0 2.058465,0.38859 2.837405,1.1677 0.81615,0.77893 1.22414,1.7256 1.22414,2.83844 v 8.1234 c 0,3.85797 0.74225,7.54889 2.22603,11.07296 1.52101,3.52407 3.56131,6.56659 6.1209,9.12617 2.55958,2.55957 5.58255,4.58045 9.06959,6.06423 3.52408,1.48396 7.21521,2.22602 11.07302,2.22602 3.858,0 7.53061,-0.74206 11.01765,-2.22602 3.52408,-1.48378 6.56645,-3.50466 9.12604,-6.06423 2.55959,-2.55958 4.58048,-5.6021 6.06427,-9.12617 1.521,-3.52407 2.2816,-7.21499 2.2816,-11.07296 v -8.1234 c 0,-1.11284 0.38946,-2.05951 1.16858,-2.83844 0.81615,-0.77911 1.78118,-1.1677 2.89402,-1.1677 1.11284,0 2.07716,0.38859 2.89314,1.1677 0.81615,0.77893 1.22414,1.7256 1.22414,2.83844 v 8.1234 c 0,4.67394 -0.85302,9.12563 -2.55941,13.35455 -1.66935,4.22891 -3.96965,7.93854 -6.90018,11.1287 -2.89349,3.19016 -6.34314,5.84216 -10.34948,7.95653 -4.00633,2.11455 -8.27196,3.43217 -12.79776,3.95146 v 8.45694 h 16.3035 c 1.11285,0 2.05847,0.38965 2.83758,1.16858 0.81616,0.77911 1.22415,1.72561 1.22415,2.83844 0,1.11284 -0.40799,2.07715 -1.22415,2.89313 -0.77911,0.81615 -1.72473,1.22413 -2.83758,1.22413 h -40.67559 c -1.11284,0 -2.07699,-0.40798 -2.89314,-1.22413 -0.81615,-0.81598 -1.22414,-1.78029 -1.22414,-2.89313 0,-1.11283 0.40799,-2.05933 1.22414,-2.83844 0.81615,-0.77893 1.7803,-1.16858 2.89314,-1.16858 h 16.24776 v -8.45694 c -4.52562,-0.51929 -8.79125,-1.83691 -12.79758,-3.95146 -4.00634,-2.11437 -7.45687,-4.76637 -10.35036,-7.95653 -2.89349,-3.19016 -5.192905,-6.89979 -6.899297,-11.1287 -1.66935,-4.22892 -2.503848,-8.68061 -2.503848,-13.35455 v -8.1234 c 0,-1.11284 0.389468,-2.05951 1.168403,-2.83844 0.816155,-0.77911 1.780299,-1.1677 2.893317,-1.1677 z" />
  </g>
</svg>
