<?xml version="1.0" encoding="UTF-8" standalone="no"?>
<svg
   width="1000"
   height="1000"
   viewBox="0 0 264.58333 264.58334"
   version="1.1"
   id="svg221"
   xmlns="http://www.w3.org/2000/svg"
   xmlns:svg="http://www.w3.org/2000/svg"
   xmlns:rdf="http://www.w3.org/1999/02/22-rdf-syntax-ns#"
   xmlns:cc="http://creativecommons.org/ns#"
   xmlns:dc="http://purl.org/dc/elements/1.1/">
  <defs
     id="defs215" />
  <metadata
     id="metadata218">
    <rdf:RDF>
      <cc:Work
         rdf:about="">
        <dc:format>image/svg+xml</dc:format>
        <dc:type
           rdf:resource="http://purl.org/dc/dcmitype/StillImage" />
      </cc:Work>
    </rdf:RDF>
  </metadata>
  <g
     id="layer1">
    <path
       id="rect12-1-6-67-3-7-8-1-45-1-9-7"
       style="display:inline;fill:#000000;fill-opacity:1;stroke:none;stroke-width:0.302969"
       d="m 67.850903,52.916665 c -8.273567,0 -14.934236,6.660677 -14.934236,14.934234 V 196.73244 c 0,8.27357 6.660669,14.93423 14.934236,14.93423 H 196.73244 c 8.27356,0 14.93423,-6.66066 14.93423,-14.93423 V 67.850899 c 0,-8.273557 -6.66067,-14.934234 -14.93423,-14.934234 z M 176.04573,79.375172 h 0.54883 a 8.6136638,8.6136585 0 0 1 8.61378,8.613775 v 88.605443 a 8.6136638,8.6136585 0 0 1 -8.61378,8.61383 h -0.54883 a 8.6136638,8.6136585 0 0 1 -8.6138,-8.61383 V 87.988947 a 8.6136638,8.6136585 0 0 1 8.6138,-8.613775 z m -92.71549,4.18383 a 4.458487,4.4584843 0 0 1 3.07832,0.789357 l 60.76134,42.969651 a 6.0914275,6.0914238 0 0 1 0,9.94736 L 86.40856,180.23498 A 4.458487,4.4584843 0 0 1 79.375,176.59439 V 87.988947 a 4.458487,4.4584843 0 0 1 3.95524,-4.429945 z" />
  </g>
</svg>
