<?xml version="1.0" encoding="UTF-8" standalone="no"?>
<svg
   width="1000"
   height="1000"
   viewBox="0 0 264.58333 264.58334"
   version="1.1"
   id="svg221"
   xmlns="http://www.w3.org/2000/svg"
   xmlns:svg="http://www.w3.org/2000/svg"
   xmlns:rdf="http://www.w3.org/1999/02/22-rdf-syntax-ns#"
   xmlns:cc="http://creativecommons.org/ns#"
   xmlns:dc="http://purl.org/dc/elements/1.1/">
  <defs
     id="defs215" />
  <metadata
     id="metadata218">
    <rdf:RDF>
      <cc:Work
         rdf:about="">
        <dc:format>image/svg+xml</dc:format>
        <dc:type
           rdf:resource="http://purl.org/dc/dcmitype/StillImage" />
      </cc:Work>
    </rdf:RDF>
  </metadata>
  <g
     id="layer1">
    <path
       id="rect12-1-6-67-2-39"
       style="display:inline;fill:#000000;fill-opacity:1;stroke:none;stroke-width:0.302968"
       d="m 67.850952,52.916665 c -8.273503,0 -14.934285,6.660606 -14.934285,14.934285 v 128.88143 c 0,8.27368 6.660782,14.93429 14.934285,14.93429 H 196.73256 c 8.2735,0 14.93411,-6.66061 14.93411,-14.93429 V 67.85095 c 0,-8.273679 -6.66061,-14.934285 -14.93411,-14.934285 z m 64.440358,26.458451 c 1.28623,0 2.3883,0.331082 3.30693,0.993597 l 46.57839,23.352957 c 1.83726,0.99377 2.84797,2.56769 3.03159,4.72068 v 47.69951 c -0.18362,2.15318 -1.19433,3.72603 -3.03159,4.71981 l -46.57839,23.35295 c -0.91863,0.66252 -2.0207,0.9936 -3.30693,0.9936 -1.28622,0 -2.3883,-0.33108 -3.30693,-0.9936 L 82.406001,160.86167 c -1.837439,-0.99378 -2.847087,-2.56663 -3.030707,-4.71981 v -47.69951 c 0.18362,-2.15299 1.193268,-3.72691 3.030707,-4.72068 L 128.98438,80.368713 c 0.91863,-0.662515 2.02071,-0.993597 3.30693,-0.993597 z m 0,11.427682 -11.02393,5.465398 34.45062,18.136444 11.57532,-5.96229 z m -23.15063,11.428562 -11.851547,6.21099 35.002177,17.63868 11.57533,-5.71428 z m -17.914902,15.15389 v 35.52623 l 35.277342,18.13645 v -35.77512 z m 82.131072,0 -35.27752,17.88756 v 35.77512 l 35.27752,-18.13645 z" />
  </g>
</svg>
