<?xml version="1.0" encoding="UTF-8" standalone="no"?>
<svg
   width="1000"
   height="1000"
   viewBox="0 0 264.58333 264.58334"
   version="1.1"
   id="svg221"
   xmlns="http://www.w3.org/2000/svg"
   xmlns:svg="http://www.w3.org/2000/svg"
   xmlns:rdf="http://www.w3.org/1999/02/22-rdf-syntax-ns#"
   xmlns:cc="http://creativecommons.org/ns#"
   xmlns:dc="http://purl.org/dc/elements/1.1/">
  <defs
     id="defs215" />
  <metadata
     id="metadata218">
    <rdf:RDF>
      <cc:Work
         rdf:about="">
        <dc:format>image/svg+xml</dc:format>
        <dc:type
           rdf:resource="http://purl.org/dc/dcmitype/StillImage" />
      </cc:Work>
    </rdf:RDF>
  </metadata>
  <g
     id="layer1">
    <path
       id="rect12-1-6-67-3-7-8-1-6-6-94-1-2"
       style="display:inline;fill:#000000;fill-opacity:1;stroke:none;stroke-width:0.302969"
       d="m 67.850903,52.916665 c -8.273567,0 -14.934236,6.66066 -14.934236,14.934218 V 196.73245 c 0,8.27356 6.660669,14.93422 14.934236,14.93422 H 196.73244 c 8.27356,0 14.93423,-6.66066 14.93423,-14.93422 V 67.850883 c 0,-8.273558 -6.66067,-14.934218 -14.93423,-14.934218 z M 101.9005,79.375158 h 0.0527 a 15.066992,15.066985 0 0 1 15.06724,15.067285 v 75.698447 a 15.066992,15.066985 0 0 1 -15.06724,15.06732 h -0.0527 A 15.066992,15.066985 0 0 1 86.834186,170.14089 V 94.442443 A 15.066992,15.066985 0 0 1 101.9005,79.375158 Z m 60.7296,0 h 0.0527 a 15.066992,15.066985 0 0 1 15.06724,15.067285 v 75.698447 a 15.066992,15.066985 0 0 1 -15.06724,15.06732 h -0.0527 A 15.066992,15.066985 0 0 1 147.56332,170.14089 V 94.442443 A 15.066992,15.066985 0 0 1 162.6301,79.375158 Z" />
  </g>
</svg>
