<?xml version="1.0" encoding="UTF-8" standalone="no"?>
<svg
   width="1000"
   height="1000"
   viewBox="0 0 264.58333 264.58334"
   version="1.1"
   id="svg221"
   xmlns="http://www.w3.org/2000/svg"
   xmlns:svg="http://www.w3.org/2000/svg"
   xmlns:rdf="http://www.w3.org/1999/02/22-rdf-syntax-ns#"
   xmlns:cc="http://creativecommons.org/ns#"
   xmlns:dc="http://purl.org/dc/elements/1.1/">
  <defs
     id="defs215" />
  <metadata
     id="metadata218">
    <rdf:RDF>
      <cc:Work
         rdf:about="">
        <dc:format>image/svg+xml</dc:format>
        <dc:type
           rdf:resource="http://purl.org/dc/dcmitype/StillImage" />
      </cc:Work>
    </rdf:RDF>
  </metadata>
  <g
     id="layer1">
    <path
       id="rect12-1-6-67-3-7-8-6-5-3-0-4-7"
       style="display:inline;fill:#000000;fill-opacity:1;stroke:none;stroke-width:0.302968"
       d="m 67.850865,52.916665 c -8.273554,0 -14.934198,6.66066 -14.934198,14.934218 V 196.73245 c 0,8.27356 6.660644,14.93422 14.934198,14.93422 H 196.73247 c 8.27355,0 14.9342,-6.66066 14.9342,-14.93422 V 67.850883 c 0,-8.273558 -6.66065,-14.934218 -14.9342,-14.934218 z m 30.902102,26.462144 a 4.8383988,4.8384109 0 0 1 2.989183,0.884148 l 65.93865,46.631203 a 6.6104831,6.6104997 0 0 1 0,10.79507 l -65.93865,46.63115 a 4.8383988,4.8384109 0 0 1 -7.632318,-3.95049 V 84.213478 a 4.8383988,4.8384109 0 0 1 4.643135,-4.834669 z" />
  </g>
</svg>
