<?xml version="1.0" encoding="UTF-8" standalone="no"?>
<svg
   width="1000"
   height="1000"
   viewBox="0 0 264.58333 264.58334"
   version="1.1"
   id="svg221"
   inkscape:version="1.1 (c4e8f9ed74, 2021-05-24)"
   sodipodi:docname="power.svg"
   xmlns:inkscape="http://www.inkscape.org/namespaces/inkscape"
   xmlns:sodipodi="http://sodipodi.sourceforge.net/DTD/sodipodi-0.dtd"
   xmlns="http://www.w3.org/2000/svg"
   xmlns:svg="http://www.w3.org/2000/svg"
   xmlns:rdf="http://www.w3.org/1999/02/22-rdf-syntax-ns#"
   xmlns:cc="http://creativecommons.org/ns#"
   xmlns:dc="http://purl.org/dc/elements/1.1/">
  <defs
     id="defs215" />
  <sodipodi:namedview
     id="base"
     pagecolor="#ffffff"
     bordercolor="#666666"
     borderopacity="1.0"
     inkscape:pageopacity="0.0"
     inkscape:pageshadow="2"
     inkscape:zoom="0.24748737"
     inkscape:cx="529.31994"
     inkscape:cy="393.9595"
     inkscape:document-units="mm"
     inkscape:current-layer="layer1"
     inkscape:document-rotation="0"
     showgrid="false"
     units="px"
     showguides="true"
     inkscape:guide-bbox="true"
     inkscape:window-width="610"
     inkscape:window-height="738"
     inkscape:window-x="751"
     inkscape:window-y="26"
     inkscape:window-maximized="0"
     inkscape:pagecheckerboard="0"
     inkscape:snap-bbox="true"
     inkscape:bbox-paths="true"
     inkscape:bbox-nodes="true">
    <sodipodi:guide
       position="-5.0862631e-06,52.916663"
       orientation="0,-1"
       id="guide1048" />
    <sodipodi:guide
       position="-5.0862631e-06,211.66667"
       orientation="0,-1"
       id="guide144" />
    <sodipodi:guide
       position="211.66667,269.38659"
       orientation="1,0"
       id="guide146" />
    <sodipodi:guide
       position="52.916667,269.38659"
       orientation="1,0"
       id="guide148" />
  </sodipodi:namedview>
  <metadata
     id="metadata218">
    <rdf:RDF>
      <cc:Work
         rdf:about="">
        <dc:format>image/svg+xml</dc:format>
        <dc:type
           rdf:resource="http://purl.org/dc/dcmitype/StillImage" />
      </cc:Work>
    </rdf:RDF>
  </metadata>
  <g
     inkscape:label="Layer 1"
     inkscape:groupmode="layer"
     id="layer1">
    <path
       id="rect12-1-6-67-3-7-8-1-6-0"
       style="display:inline;fill:#000000;fill-opacity:1;stroke:none;stroke-width:0.302969"
       d="m 67.851034,52.916665 c -8.273548,0 -14.934367,6.660606 -14.934367,14.934109 V 196.73238 c 0,8.27351 6.660819,14.93429 14.934367,14.93429 H 196.7323 c 8.27373,0 14.93437,-6.66078 14.93437,-14.93429 V 67.850774 c 0,-8.273503 -6.66064,-14.934109 -14.93437,-14.934109 z M 175.05368,79.375116 c 1.70639,0 3.13427,0.593195 4.28415,1.780113 1.1871,1.187095 1.78118,2.634363 1.78118,4.340745 v 71.222856 c 0,2.11437 -0.72373,4.00666 -2.1703,5.676 -1.4097,1.63213 -3.20852,2.91183 -5.39716,3.83928 -2.18864,0.89023 -4.39651,1.55751 -6.62219,2.00254 -2.18864,0.4452 -4.22894,0.66816 -6.12089,0.66816 -1.89178,0 -3.9506,-0.22296 -6.17646,-0.66816 -2.18864,-0.44503 -4.37692,-1.11231 -6.56556,-2.00254 -2.18864,-0.92745 -4.00599,-2.20715 -5.45273,-3.83928 -1.44675,-1.66934 -2.1703,-3.56163 -2.1703,-5.676 0,-2.11455 0.72355,-4.00667 2.1703,-5.67601 1.44674,-1.66934 3.26409,-2.94904 5.45273,-3.83927 2.18864,-0.89023 4.37692,-1.55751 6.56556,-2.00271 2.22586,-0.48225 4.28468,-0.72373 6.17646,-0.72373 4.4145,0 8.47657,0.83467 12.18622,2.50402 v -34.16452 l -48.85478,15.07928 v 45.07061 c 0,1.70639 -0.48207,3.2646 -1.44657,4.6743 -0.96449,1.44674 -2.20716,2.61531 -3.72799,3.50554 -1.48396,0.92745 -3.15314,1.70656 -5.00787,2.33715 -1.85491,0.63077 -3.63609,1.07579 -5.34249,1.33544 -1.70639,0.25964 -3.30165,0.38911 -4.78544,0.38911 -1.89196,0 -3.949891,-0.24147 -6.175574,-0.72372 -2.18864,-0.44503 -4.377987,-1.11231 -6.566451,-2.00254 -2.188817,-0.89023 -4.006157,-2.16993 -5.452727,-3.83927 -1.446747,-1.66934 -2.170473,-3.56164 -2.170473,-5.67601 0,-2.11437 0.723726,-3.98726 2.170473,-5.61956 1.44657,-1.66916 3.26391,-2.94974 5.452727,-3.84015 2.188464,-0.92728 4.377811,-1.61307 6.566451,-2.0581 2.225683,-0.44521 4.283614,-0.66816 6.175574,-0.66816 4.48858,0 8.55065,0.81615 12.18604,2.44827 v -61.48515 c 0,-1.33544 0.38965,-2.541055 1.16858,-3.616848 0.81616,-1.075794 1.87379,-1.81786 3.17201,-2.226023 l 52.9165,-16.303237 c 0.48225,-0.148166 1.07633,-0.222426 1.781,-0.222426 z" />
  </g>
</svg>
