<?xml version="1.0" encoding="UTF-8" standalone="no"?>
<svg
   width="1000"
   height="1000"
   viewBox="0 0 264.58333 264.58334"
   version="1.1"
   id="svg221"
   xmlns="http://www.w3.org/2000/svg"
   xmlns:svg="http://www.w3.org/2000/svg"
   xmlns:rdf="http://www.w3.org/1999/02/22-rdf-syntax-ns#"
   xmlns:cc="http://creativecommons.org/ns#"
   xmlns:dc="http://purl.org/dc/elements/1.1/">
  <defs
     id="defs215" />
  <metadata
     id="metadata218">
    <rdf:RDF>
      <cc:Work
         rdf:about="">
        <dc:format>image/svg+xml</dc:format>
        <dc:type
           rdf:resource="http://purl.org/dc/dcmitype/StillImage" />
      </cc:Work>
    </rdf:RDF>
  </metadata>
  <g
     id="layer1">
    <path
       id="rect12-1-6-67-3-7-8-1-45-1-9-7"
       style="display:inline;fill:#000000;fill-opacity:1;stroke:none;stroke-width:0.302969"
       d="m 196.73243,211.66667 c 8.27357,0 14.93424,-6.66068 14.93424,-14.93423 V 67.850895 c 0,-8.27357 -6.66067,-14.93423 -14.93424,-14.93423 H 67.850897 c -8.27356,0 -14.93423,6.66066 -14.93423,14.93423 V 196.73244 c 0,8.27355 6.66067,14.93423 14.93423,14.93423 z M 88.537607,185.20816 h -0.54883 a -8.6136638,-8.6136585 0 0 1 -8.61378,-8.61377 V 87.988945 a -8.6136638,-8.6136585 0 0 1 8.61378,-8.61383 h 0.54883 a -8.6136638,-8.6136585 0 0 1 8.6138,8.61383 v 88.605445 a -8.6136638,-8.6136585 0 0 1 -8.6138,8.61377 z m 92.715493,-4.18383 a -4.458487,-4.4584843 0 0 1 -3.07832,-0.78935 l -60.76134,-42.96965 a -6.0914275,-6.0914238 0 0 1 0,-9.94736 l 60.76134,-42.969615 a -4.458487,-4.4584843 0 0 1 7.03356,3.64059 v 88.605445 a -4.458487,-4.4584843 0 0 1 -3.95524,4.42994 z" />
  </g>
</svg>
