<?xml version="1.0" encoding="UTF-8" standalone="no"?>
<svg
   width="1000"
   height="1000"
   viewBox="0 0 264.58333 264.58334"
   version="1.1"
   id="svg221"
   xmlns="http://www.w3.org/2000/svg"
   xmlns:svg="http://www.w3.org/2000/svg"
   xmlns:rdf="http://www.w3.org/1999/02/22-rdf-syntax-ns#"
   xmlns:cc="http://creativecommons.org/ns#"
   xmlns:dc="http://purl.org/dc/elements/1.1/">
  <defs
     id="defs215" />
  <metadata
     id="metadata218">
    <rdf:RDF>
      <cc:Work
         rdf:about="">
        <dc:format>image/svg+xml</dc:format>
        <dc:type
           rdf:resource="http://purl.org/dc/dcmitype/StillImage" />
      </cc:Work>
    </rdf:RDF>
  </metadata>
  <g
     id="layer1">
    <path
       id="rect12-1-6-67-3-7-8-6-77-7"
       style="display:inline;fill:#000000;fill-opacity:1;stroke:none;stroke-width:0.30297"
       d="m 67.850995,52.916665 c -8.27362,0 -14.934328,6.660716 -14.934328,14.934322 V 196.73237 c 0,8.2736 6.660708,14.9343 14.934328,14.9343 H 196.73234 c 8.27361,0 14.93433,-6.6607 14.93433,-14.9343 V 67.850987 c 0,-8.273606 -6.66072,-14.934322 -14.93433,-14.934322 z m 62.485665,29.440211 a 2.1050113,2.1050103 0 0 1 1.95499,2.10013 v 16.233234 c 12.06229,0.16528 22.05849,4.25507 29.99001,12.26906 7.93152,8.01394 12.06226,17.96981 12.39269,29.86681 -0.33043,12.06221 -4.46117,22.05854 -12.39269,29.98982 -7.93152,7.93143 -17.92772,12.0626 -29.99001,12.39301 -12.06226,-0.33041 -22.05939,-4.46158 -29.99091,-12.39301 -6.792783,-6.79295 -10.797975,-15.10129 -12.015592,-24.92453 -0.344895,-2.78431 1.898517,-5.06529 4.705246,-5.06529 h 0.494227 c 2.806729,0 5.079069,2.28798 5.500959,5.06072 1.04354,6.85607 4.0024,12.6874 8.87566,17.49388 6.03068,5.94842 13.50764,9.00463 22.43041,9.16986 8.92281,-0.16528 16.39977,-3.22144 22.43044,-9.16986 6.03114,-5.94858 9.12954,-13.46669 9.29521,-22.5546 -0.16563,-8.92274 -3.26407,-16.35906 -9.29521,-22.30762 -6.03067,-5.94843 -13.50763,-9.08725 -22.43044,-9.41777 v 16.23322 a 2.1050113,2.1050103 0 0 1 -3.59309,1.4885 l -19.33341,-19.33332 a 5.0819468,5.0819443 0 0 1 0,-7.18733 l 19.33341,-19.333265 a 2.1050113,2.1050103 0 0 1 1.6381,-0.611649 z" />
  </g>
</svg>
