<?xml version="1.0" encoding="UTF-8" standalone="no"?>
<svg
   width="1000"
   height="1000"
   viewBox="0 0 264.58333 264.58334"
   version="1.1"
   id="svg221"
   xmlns="http://www.w3.org/2000/svg"
   xmlns:svg="http://www.w3.org/2000/svg"
   xmlns:rdf="http://www.w3.org/1999/02/22-rdf-syntax-ns#"
   xmlns:cc="http://creativecommons.org/ns#"
   xmlns:dc="http://purl.org/dc/elements/1.1/">
  <defs
     id="defs215" />
  <metadata
     id="metadata218">
    <rdf:RDF>
      <cc:Work
         rdf:about="">
        <dc:format>image/svg+xml</dc:format>
        <dc:type
           rdf:resource="http://purl.org/dc/dcmitype/StillImage" />
      </cc:Work>
    </rdf:RDF>
  </metadata>
  <g
     id="layer1">
    <path
       id="rect12-1-6-67-3-7-8-1-5-5"
       style="display:inline;fill:#000000;fill-opacity:0.981373;stroke:none;stroke-width:0.302969"
       d="m 67.850792,52.916665 c -8.273512,0 -14.934125,6.660643 -14.934125,14.934368 V 196.7323 c 0,8.27373 6.660613,14.93437 14.934125,14.93437 H 196.73237 c 8.27369,0 14.9343,-6.66064 14.9343,-14.93437 V 67.851033 c 0,-8.273725 -6.66061,-14.934368 -14.9343,-14.934368 z m 90.647738,31.183896 a 3.3866374,3.3866527 0 0 1 2.39307,0.979138 l 12.9083,12.76566 a 8.067899,8.0679354 0 0 1 0.0317,11.441501 l -12.97074,12.9708 a 3.3603492,3.3603643 0 0 1 -5.73722,-2.37632 V 109.45902 H 97.909717 v 17.6744 a 19.264024,19.264111 0 0 1 -5.803364,13.78114 3.3999592,3.3999745 0 0 1 -5.747273,-2.49927 v -28.95627 c 0.179211,-3.22334 1.3432,-5.9542 3.49232,-8.19259 2.148591,-2.238556 4.835343,-3.357218 8.058317,-3.357218 H 155.12369 V 87.486887 a 3.3866374,3.3866527 0 0 1 3.37484,-3.386326 z m 16.58301,38.637589 a 3.3998971,3.3999124 0 0 1 3.14272,3.42989 v 28.95522 c -0.17922,3.22352 -1.34215,5.95438 -3.49091,8.19276 -2.14912,2.23856 -4.83535,3.3581 -8.05885,3.3581 h -57.21503 v 10.42145 a 3.3866374,3.3866527 0 0 1 -5.76791,2.40824 L 90.784673,166.73798 a 8.067899,8.0679354 0 0 1 -0.03175,-11.44151 l 12.970737,-12.9708 a 3.3603492,3.3603643 0 0 1 5.73617,2.37632 v 10.42127 h 57.21502 v -17.67423 a 19.264229,19.264316 0 0 1 5.80372,-13.78113 3.3998971,3.3999124 0 0 1 2.60332,-0.92975 z" />
  </g>
</svg>
