<?xml version="1.0" encoding="UTF-8" standalone="no"?>
<svg
   width="1000"
   height="1000"
   viewBox="0 0 264.58333 264.58334"
   version="1.1"
   id="svg221"
   xmlns="http://www.w3.org/2000/svg"
   xmlns:svg="http://www.w3.org/2000/svg"
   xmlns:rdf="http://www.w3.org/1999/02/22-rdf-syntax-ns#"
   xmlns:cc="http://creativecommons.org/ns#"
   xmlns:dc="http://purl.org/dc/elements/1.1/">
  <defs
     id="defs215" />
  <metadata
     id="metadata218">
    <rdf:RDF>
      <cc:Work
         rdf:about="">
        <dc:format>image/svg+xml</dc:format>
        <dc:type
           rdf:resource="http://purl.org/dc/dcmitype/StillImage" />
      </cc:Work>
    </rdf:RDF>
  </metadata>
  <g
     id="layer1">
    <path
       id="rect12-1-6-67-3-7-8-1-6-4-1-9"
       style="display:inline;fill:#000000;fill-opacity:1;stroke:none;stroke-width:0.30297"
       d="m 67.850991,52.916665 c -8.273616,0 -14.934324,6.660716 -14.934324,14.934322 V 196.73237 c 0,8.2736 6.660708,14.9343 14.934324,14.9343 H 196.73236 c 8.27361,0 14.93431,-6.6607 14.93431,-14.9343 V 67.850987 c 0,-8.273606 -6.6607,-14.934322 -14.93431,-14.934322 z m 87.194069,26.457728 h 23.81137 a 6.3522317,6.3522278 0 0 1 6.35175,6.35237 v 23.811587 a 2.6311803,2.6311787 0 0 1 -4.49104,1.8604 l -9.12439,-9.1243 -78.442545,78.44254 a 6.3522582,6.3522543 0 0 1 -8.98393,0 l -0.300086,-0.30078 a 6.3522045,6.3522007 0 0 1 0,-8.98305 L 162.30873,92.990662 153.1848,83.866365 a 2.6311803,2.6311787 0 0 1 1.86026,-4.491972 z m -66.386819,2.631574 a 6.3522573,6.3522534 0 0 1 4.491964,1.860398 l 25.365485,25.365705 a 6.3522054,6.3522016 0 0 1 0,8.98392 l -0.29962,0.2999 a 6.3522573,6.3522534 0 0 1 -8.98393,0 L 83.866189,93.150189 a 6.3522054,6.3522016 0 0 1 0,-8.983926 l 0.300086,-0.299898 a 6.3522573,6.3522534 0 0 1 4.491966,-1.860398 z m 62.200999,62.200163 a 6.3522582,6.3522543 0 0 1 4.49102,1.8604 l 16.24249,16.24237 9.12439,-9.12431 a 2.6311803,2.6311787 0 0 1 4.49104,1.8604 v 23.8116 a 6.3522317,6.3522278 0 0 1 -6.35175,6.35147 h -23.81137 a 2.6311803,2.6311787 0 0 1 -1.86026,-4.49107 l 9.12393,-9.12432 -16.24201,-16.24232 a 6.3522045,6.3522007 0 0 1 0,-8.98299 l 0.30055,-0.30083 a 6.3522582,6.3522543 0 0 1 4.49197,-1.8604 z" />
  </g>
</svg>
