<?xml version="1.0" encoding="UTF-8" standalone="no"?>
<svg
   width="1000"
   height="1000"
   viewBox="0 0 264.58333 264.58334"
   version="1.1"
   id="svg221"
   xmlns="http://www.w3.org/2000/svg"
   xmlns:svg="http://www.w3.org/2000/svg"
   xmlns:rdf="http://www.w3.org/1999/02/22-rdf-syntax-ns#"
   xmlns:cc="http://creativecommons.org/ns#"
   xmlns:dc="http://purl.org/dc/elements/1.1/">
  <defs
     id="defs215" />
  <metadata
     id="metadata218">
    <rdf:RDF>
      <cc:Work
         rdf:about="">
        <dc:format>image/svg+xml</dc:format>
        <dc:type
           rdf:resource="http://purl.org/dc/dcmitype/StillImage" />
      </cc:Work>
    </rdf:RDF>
  </metadata>
  <g
     id="layer1">
    <path
       id="rect12-1-6-67-3-7-3-74"
       style="display:inline;fill:#000000;fill-opacity:1;stroke:none;stroke-width:0.30297"
       d="m 67.850991,52.916665 c -8.273616,0 -14.934324,6.660699 -14.934324,14.934304 V 196.73235 c 0,8.2736 6.660708,14.93432 14.934324,14.93432 H 196.73234 c 8.27361,0 14.93433,-6.66072 14.93433,-14.93432 V 67.850969 c 0,-8.273605 -6.66072,-14.934304 -14.93433,-14.934304 z m 64.440669,29.043687 a 6.242453,6.2424499 0 0 1 4.41355,1.828525 l 34.61404,34.613083 a 2.585696,2.5856948 0 0 1 -1.82851,4.41448 h -18.5391 v 31.0764 a 6.2424403,6.2424372 0 0 1 -6.24301,6.24208 h -24.83346 a 6.2424403,6.2424372 0 0 1 -6.24301,-6.24208 v -31.0764 H 95.092596 a 2.5857035,2.5857022 0 0 1 -1.82852,-4.41448 L 127.87717,83.788877 a 6.242453,6.2424499 0 0 1 4.41449,-1.828525 z M 95.092596,172.67191 h 74.398144 a 6.2424403,6.2424372 0 0 1 6.24208,6.24208 v 0.052 a 6.2424403,6.2424372 0 0 1 -6.24208,6.24297 H 95.092596 a 6.2424403,6.2424372 0 0 1 -6.24208,-6.24297 v -0.052 a 6.2424403,6.2424372 0 0 1 6.24208,-6.24208 z" />
  </g>
</svg>
