<?xml version="1.0" encoding="UTF-8" standalone="no"?>
<svg
   width="1000"
   height="1000"
   viewBox="0 0 264.58333 264.58334"
   version="1.1"
   id="svg221"
   xmlns="http://www.w3.org/2000/svg"
   xmlns:svg="http://www.w3.org/2000/svg"
   xmlns:rdf="http://www.w3.org/1999/02/22-rdf-syntax-ns#"
   xmlns:cc="http://creativecommons.org/ns#"
   xmlns:dc="http://purl.org/dc/elements/1.1/">
  <defs
     id="defs215" />
  <metadata
     id="metadata218">
    <rdf:RDF>
      <cc:Work
         rdf:about="">
        <dc:format>image/svg+xml</dc:format>
        <dc:type
           rdf:resource="http://purl.org/dc/dcmitype/StillImage" />
      </cc:Work>
    </rdf:RDF>
  </metadata>
  <g
     id="layer1">
    <path
       id="rect12-1-6-67-3-7-8-1-4-2-93-6-2-4"
       style="display:inline;fill:#000000;fill-opacity:1;stroke-width:0.30297"
       d="m 67.850991,52.916665 c -8.273616,0 -14.934324,6.660664 -14.934324,14.934244 V 196.73244 c 0,8.27357 6.660708,14.93423 14.934324,14.93423 H 196.73236 c 8.27361,0 14.93431,-6.66066 14.93431,-14.93423 V 67.850909 c 0,-8.27358 -6.6607,-14.934244 -14.93431,-14.934244 z m 56.317329,40.70279 c 1.11262,0 2.05861,0.407898 2.83753,1.224154 0.81626,0.816239 1.22415,1.780432 1.22415,2.893039 v 69.109122 c 0,1.11306 -0.40789,2.07678 -1.22415,2.89304 -0.77892,0.81625 -1.72491,1.22414 -2.83753,1.22414 -1.14993,0 -2.11507,-0.40789 -2.89399,-1.22414 L 100.12968,148.59473 H 83.436826 c -1.11214,0 -2.076805,-0.40836 -2.893058,-1.22415 -0.778919,-0.81624 -1.168612,-1.78044 -1.168612,-2.8935 v -24.37174 c 0,-1.11307 0.389693,-2.07726 1.168612,-2.89352 0.816253,-0.81578 1.780918,-1.22413 2.893058,-1.22413 h 16.692854 l 21.14465,-21.144081 c 0.77892,-0.816256 1.74406,-1.224154 2.89399,-1.224154 z m 19.53271,18.767205 a 5.5361693,5.536137 0 0 1 4.30996,1.60683 l 10.45775,10.45771 10.45776,-10.45771 a 5.5361753,5.536143 0 0 1 7.83025,0 l 0.009,0.009 a 5.5362411,5.5362088 0 0 1 0,7.83019 l -10.45775,10.45771 10.45775,10.4577 a 5.5362127,5.5361804 0 0 1 0,7.82927 l -0.009,0.009 a 5.5362715,5.5362392 0 0 1 -7.83025,0 L 158.46874,140.12831 148.01099,150.586 a 5.5362655,5.5362332 0 0 1 -7.82932,0 l -0.009,-0.009 a 5.5362224,5.5361901 0 0 1 0,-7.82927 l 10.45775,-10.4577 -10.45775,-10.45771 a 5.536251,5.5362187 0 0 1 0,-7.83019 l 0.009,-0.009 a 5.5361693,5.536137 0 0 1 3.51936,-1.60683 z" />
  </g>
</svg>
