<?xml version="1.0" encoding="UTF-8" standalone="no"?>
<svg
   width="1000"
   height="1000"
   viewBox="0 0 264.58333 264.58334"
   version="1.1"
   id="svg221"
   xmlns="http://www.w3.org/2000/svg"
   xmlns:svg="http://www.w3.org/2000/svg"
   xmlns:rdf="http://www.w3.org/1999/02/22-rdf-syntax-ns#"
   xmlns:cc="http://creativecommons.org/ns#"
   xmlns:dc="http://purl.org/dc/elements/1.1/">
  <defs
     id="defs215" />
  <metadata
     id="metadata218">
    <rdf:RDF>
      <cc:Work
         rdf:about="">
        <dc:format>image/svg+xml</dc:format>
        <dc:type
           rdf:resource="http://purl.org/dc/dcmitype/StillImage" />
      </cc:Work>
    </rdf:RDF>
  </metadata>
  <g
     id="layer1">
    <path
       id="rect12-1-6-67-3-7-8-1-6-43-3-1-6-3"
       style="display:inline;fill:#000000;fill-opacity:1;stroke:none;stroke-width:0.302968"
       d="m 67.850952,52.916665 c -8.273503,0 -14.934285,6.660782 -14.934285,14.934285 v 128.88143 c 0,8.27351 6.660782,14.93429 14.934285,14.93429 H 196.73256 c 8.2735,0 14.93411,-6.66078 14.93411,-14.93429 V 67.85095 c 0,-8.273503 -6.66061,-14.934285 -14.93411,-14.934285 z m 56.316968,40.703763 c 1.11283,0 2.05845,0.407811 2.83738,1.224137 0.81615,0.815796 1.22431,1.779936 1.22431,2.892947 v 69.108138 c 0,1.11265 -0.40816,2.07785 -1.22431,2.894 -0.77893,0.81633 -1.72455,1.22414 -2.83738,1.22414 -1.15006,0 -2.1142,-0.40781 -2.8933,-1.22414 L 100.1304,148.59508 H 83.436992 c -1.113012,0 -2.077151,-0.40781 -2.893301,-1.22414 -0.778931,-0.81579 -1.168574,-1.78081 -1.168574,-2.89383 v -24.37089 c 0,-1.11301 0.389643,-2.07715 1.168574,-2.89348 0.81615,-0.81579 1.780289,-1.22413 2.893301,-1.22413 H 100.1304 l 21.14422,-21.144045 c 0.7791,-0.816326 1.74324,-1.224137 2.8933,-1.224137 z m 17.02696,23.369182 c 0.63059,0 1.1497,0.11113 1.55786,0.33461 2.93052,1.18692 5.30489,3.17076 7.12257,5.95276 1.85473,2.78235 2.78182,5.80618 2.78182,9.0706 0,3.19034 -0.90857,6.17625 -2.72626,8.95825 -1.81768,2.78252 -4.21057,4.76725 -7.17813,5.95417 -0.40816,0.2226 -0.92727,0.33355 -1.55786,0.33355 -1.11284,0 -2.07786,-0.38912 -2.89401,-1.16858 -0.77893,-0.77893 -1.16857,-1.76177 -1.16857,-2.94851 0,-0.89041 0.24148,-1.63247 0.72372,-2.2262 0.51929,-0.59354 1.131,-1.11248 1.83585,-1.55786 0.74189,-0.4452 1.46544,-0.92816 2.17029,-1.44709 0.74189,-0.51947 1.35448,-1.27917 1.83673,-2.2807 0.51929,-1.00154 0.7784,-2.20751 0.7784,-3.61703 0,-1.40987 -0.25911,-2.61531 -0.7784,-3.61684 -0.48225,-1.00154 -1.09484,-1.78082 -1.83673,-2.33715 -0.70485,-0.55633 -1.4284,-1.0384 -2.17029,-1.44639 -0.70485,-0.40834 -1.31656,-0.92727 -1.83585,-1.55768 -0.48224,-0.63059 -0.72372,-1.39136 -0.72372,-2.28177 0,-1.18727 0.38964,-2.17063 1.16857,-2.94956 0.81615,-0.77929 1.78117,-1.16858 2.89401,-1.16858 z" />
  </g>
</svg>
