<?xml version="1.0" encoding="UTF-8" standalone="no"?>
<svg
   width="1000"
   height="1000"
   viewBox="0 0 264.58333 264.58334"
   version="1.1"
   id="svg221"
   xmlns="http://www.w3.org/2000/svg"
   xmlns:svg="http://www.w3.org/2000/svg"
   xmlns:rdf="http://www.w3.org/1999/02/22-rdf-syntax-ns#"
   xmlns:cc="http://creativecommons.org/ns#"
   xmlns:dc="http://purl.org/dc/elements/1.1/">
  <defs
     id="defs215" />
  <metadata
     id="metadata218">
    <rdf:RDF>
      <cc:Work
         rdf:about="">
        <dc:format>image/svg+xml</dc:format>
        <dc:type
           rdf:resource="http://purl.org/dc/dcmitype/StillImage" />
      </cc:Work>
    </rdf:RDF>
  </metadata>
  <g
     id="layer1">
    <path
       id="rect12-1-6-67-3-7-8-1-4-2-9"
       style="display:inline;fill:#000000;fill-opacity:1;stroke-width:0.302969"
       d="m 67.850909,52.916665 c -8.274037,0 -14.934242,6.660681 -14.934242,14.934242 V 196.73243 c 0,8.27358 6.660205,14.93424 14.934242,14.93424 H 196.73243 c 8.27356,0 14.93424,-6.66066 14.93424,-14.93424 V 67.850907 c 0,-8.273561 -6.66068,-14.934242 -14.93424,-14.934242 z M 132.3192,93.619468 c 1.11306,0 2.05953,0.407881 2.83844,1.224137 0.81625,0.816256 1.22367,1.780449 1.22367,2.893038 v 69.109117 c 0,1.11306 -0.40742,2.07726 -1.22367,2.89351 -0.77891,0.81578 -1.72538,1.22414 -2.83844,1.22414 -1.14947,0 -2.11412,-0.40836 -2.89304,-1.22414 L 108.28207,148.59472 H 91.588406 c -1.112607,0 -2.077258,-0.40696 -2.893038,-1.2232 -0.779391,-0.81626 -1.16861,-1.78139 -1.16861,-2.89397 v -24.37222 c 0,-1.11261 0.389219,-2.07678 1.16861,-2.89304 0.81578,-0.81625 1.780431,-1.22413 2.893038,-1.22413 h 16.693664 l 21.14409,-21.144555 c 0.77892,-0.816256 1.74357,-1.224137 2.89304,-1.224137 z" />
  </g>
</svg>
