<?xml version="1.0" encoding="UTF-8" standalone="no"?>
<svg
   width="1000"
   height="1000"
   viewBox="0 0 264.58333 264.58334"
   version="1.1"
   id="svg221"
   xmlns="http://www.w3.org/2000/svg"
   xmlns:svg="http://www.w3.org/2000/svg"
   xmlns:rdf="http://www.w3.org/1999/02/22-rdf-syntax-ns#"
   xmlns:cc="http://creativecommons.org/ns#"
   xmlns:dc="http://purl.org/dc/elements/1.1/">
  <defs
     id="defs215" />
  <metadata
     id="metadata218">
    <rdf:RDF>
      <cc:Work
         rdf:about="">
        <dc:format>image/svg+xml</dc:format>
        <dc:type
           rdf:resource="http://purl.org/dc/dcmitype/StillImage" />
      </cc:Work>
    </rdf:RDF>
  </metadata>
  <g
     id="layer1">
    <path
       id="rect12-1-6-67-3-7-8-1-4-2-7"
       style="display:inline;fill:#000000;fill-opacity:1;stroke:none;stroke-width:0.30297"
       d="m 67.850858,52.916665 c -8.273548,0 -14.934191,6.660629 -14.934191,14.934336 V 196.73233 c 0,8.27354 6.660643,14.93434 14.934191,14.93434 H 196.7323 c 8.27355,0 14.93437,-6.6608 14.93437,-14.93434 V 67.851001 c 0,-8.273707 -6.66082,-14.934336 -14.93437,-14.934336 z m 56.317282,40.702843 c 1.11284,0 2.05846,0.408341 2.83758,1.224141 0.81597,0.816329 1.22414,1.780471 1.22414,2.893487 v 69.109414 c 0,1.11249 -0.40817,2.07681 -1.22414,2.89296 -0.77912,0.81633 -1.72474,1.22414 -2.83758,1.22414 -1.14988,0 -2.11509,-0.40781 -2.89402,-1.22414 L 100.1296,148.59487 H 83.436986 c -1.112842,0 -2.077163,-0.40781 -2.893141,-1.22414 -0.779112,-0.81616 -1.16858,-1.7803 -1.16858,-2.89296 v -24.3722 c 0,-1.11267 0.389468,-2.07681 1.16858,-2.89314 0.815978,-0.81615 1.780299,-1.22414 2.893141,-1.22414 H 100.1296 l 21.14452,-21.144641 c 0.77893,-0.8158 1.74414,-1.224141 2.89402,-1.224141 z m 23.37037,8.458032 c 0.55633,0 1.11267,0.0741 1.669,0.22261 5.93533,2.52236 10.70155,6.52816 14.29989,12.01827 3.59817,5.49028 5.39805,11.48116 5.39805,17.97352 0,6.49111 -1.79988,12.48216 -5.39805,17.97192 -3.59834,5.49029 -8.36456,9.49679 -14.29989,12.01933 -0.66764,0.2226 -1.20527,0.33373 -1.61326,0.33373 -1.15006,0 -2.13378,-0.40799 -2.94976,-1.22414 -0.77911,-0.81633 -1.16858,-1.78047 -1.16858,-2.89314 0,-1.63195 0.83467,-2.89348 2.50402,-3.78389 2.41125,-1.18693 4.00651,-2.1142 4.78545,-2.78166 3.15314,-2.22603 5.6016,-5.0823 7.34503,-8.56934 1.78066,-3.48721 2.67072,-7.15963 2.67072,-11.01743 0,-3.85816 -0.89006,-7.54927 -2.67072,-11.07318 -1.74343,-3.52407 -4.19189,-6.39886 -7.34503,-8.62454 -0.77894,-0.66781 -2.3742,-1.59526 -4.78545,-2.78201 -1.66935,-0.89041 -2.50402,-2.15142 -2.50402,-3.7839 0,-1.11266 0.38947,-2.05864 1.16858,-2.83757 0.81598,-0.77893 1.781,-1.16858 2.89402,-1.16858 z m -6.3442,14.91229 c 0.63095,0 1.15076,0.11112 1.55875,0.33373 2.93054,1.18727 5.30404,3.17112 7.12173,5.95313 1.85473,2.78236 2.7829,5.8062 2.7829,9.07063 0,3.19 -0.90964,6.17626 -2.72734,8.95827 -1.81769,2.78254 -4.20953,4.76691 -7.17729,5.95419 -0.40799,0.22207 -0.9278,0.33373 -1.55875,0.33373 -1.11266,0 -2.07716,-0.38982 -2.89314,-1.16876 -0.77911,-0.77929 -1.1684,-1.76177 -1.1684,-2.94905 0,-0.88988 0.2413,-1.63195 0.72372,-2.22568 0.51929,-0.59354 1.13083,-1.11248 1.83569,-1.55769 0.74189,-0.44538 1.46562,-0.92745 2.17047,-1.44692 0.74172,-0.51893 1.35344,-1.27952 1.83569,-2.28105 0.51929,-1.00207 0.77928,-2.20751 0.77928,-3.61704 0,-1.40935 -0.25999,-2.61532 -0.77928,-3.61686 -0.48225,-1.00153 -1.09397,-1.78082 -1.83569,-2.33715 -0.70485,-0.55686 -1.42858,-1.0384 -2.17047,-1.44674 -0.70486,-0.40799 -1.3164,-0.92693 -1.83569,-1.55787 -0.48242,-0.63042 -0.72372,-1.39118 -0.72372,-2.28124 0,-1.18728 0.38929,-2.17065 1.1684,-2.94993 0.81598,-0.77894 1.78048,-1.16717 2.89314,-1.1677 z" />
  </g>
</svg>
