<?xml version="1.0" encoding="UTF-8" standalone="no"?>
<svg
   width="1000"
   height="1000"
   viewBox="0 0 264.58333 264.58334"
   version="1.1"
   id="svg221"
   xmlns="http://www.w3.org/2000/svg"
   xmlns:svg="http://www.w3.org/2000/svg"
   xmlns:rdf="http://www.w3.org/1999/02/22-rdf-syntax-ns#"
   xmlns:cc="http://creativecommons.org/ns#"
   xmlns:dc="http://purl.org/dc/elements/1.1/">
  <defs
     id="defs215" />
  <metadata
     id="metadata218">
    <rdf:RDF>
      <cc:Work
         rdf:about="">
        <dc:format>image/svg+xml</dc:format>
        <dc:type
           rdf:resource="http://purl.org/dc/dcmitype/StillImage" />
      </cc:Work>
    </rdf:RDF>
  </metadata>
  <g
     id="layer1">
    <path
       id="rect12-1-6-67-3-7-8-1-7-5"
       style="display:inline;fill:#000000;fill-opacity:1;stroke:none;stroke-width:0.30297"
       d="m 67.851038,52.916665 c -8.273548,0 -14.934371,6.660606 -14.934371,14.934285 v 128.88143 c 0,8.27368 6.660823,14.93429 14.934371,14.93429 H 196.73229 c 8.27373,0 14.93438,-6.66061 14.93438,-14.93429 V 67.85095 c 0,-8.273679 -6.66065,-14.934285 -14.93438,-14.934285 z m 17.896833,35.67669 81.024679,81.252125 -6.14453,6.14555 -15.93238,-15.93247 -11.8352,15.93247 -17.52483,-23.21537 c 4.70378,-3.48984 10.16621,-5.4624 16.38729,-5.91748 l -12.51871,-12.29004 c -4.55208,1.51728 -8.72458,3.64118 -12.518,6.37238 l -8.876279,-11.60725 c 3.186299,-2.27593 6.601209,-4.24831 10.242759,-5.91748 L 97.127111,112.49046 c -2.731209,1.5173 -5.386225,3.26231 -7.96575,5.23487 l -8.648376,-11.60725 c 1.972563,-1.51729 4.020268,-2.95874 6.144527,-4.32416 l -7.283121,-7.056071 z m 47.112569,0 c 9.86264,0 19.2321,1.516412 28.10854,4.551176 8.87645,3.034588 16.95579,7.359459 24.23909,12.973549 l -8.64856,11.60725 c -6.0692,-4.55206 -12.82175,-8.11723 -20.25656,-10.69673 -7.435,-2.57933 -15.24886,-3.86944 -23.44251,-3.86944 -6.2209,0 -12.2148,0.75883 -17.98062,2.27612 L 103.27269,93.828037 c 9.25568,-3.489847 19.11832,-5.234682 29.58775,-5.234682 z m 0,29.131975 c 6.52465,0 12.74573,1.02428 18.66342,3.07268 5.91751,2.0484 11.37993,4.89373 16.38728,8.53526 l -8.87644,11.60725 c -4.70378,-3.48984 -10.09089,-5.9935 -16.16028,-7.5108 l -15.47659,-15.4765 c 1.8207,-0.15169 3.64192,-0.22789 5.46261,-0.22789 z" />
  </g>
</svg>
