<?xml version="1.0" encoding="UTF-8" standalone="no"?>
<svg
   width="1000"
   height="1000"
   viewBox="0 0 264.58333 264.58334"
   version="1.1"
   id="svg221"
   xmlns="http://www.w3.org/2000/svg"
   xmlns:svg="http://www.w3.org/2000/svg"
   xmlns:rdf="http://www.w3.org/1999/02/22-rdf-syntax-ns#"
   xmlns:cc="http://creativecommons.org/ns#"
   xmlns:dc="http://purl.org/dc/elements/1.1/">
  <defs
     id="defs215" />
  <metadata
     id="metadata218">
    <rdf:RDF>
      <cc:Work
         rdf:about="">
        <dc:format>image/svg+xml</dc:format>
        <dc:type
           rdf:resource="http://purl.org/dc/dcmitype/StillImage" />
      </cc:Work>
    </rdf:RDF>
  </metadata>
  <g
     id="layer1">
    <path
       id="rect12-1-6-67-3-7-8-6-68-6"
       style="display:inline;fill:#000000;fill-opacity:1;stroke:none;stroke-width:0.302969"
       d="m 67.850858,52.916665 c -8.273548,0 -14.934191,6.660607 -14.934191,14.934286 V 196.73238 c 0,8.27368 6.660643,14.93429 14.934191,14.93429 H 196.7323 c 8.27355,0 14.93437,-6.66061 14.93437,-14.93429 V 67.850951 c 0,-8.273679 -6.66082,-14.934286 -14.93437,-14.934286 z m 64.440722,35.201679 c 9.96989,0 19.44094,1.533698 28.41388,4.601447 8.97275,3.067573 17.14011,7.438829 24.50243,13.113779 l -8.74239,11.73407 c -6.13518,-4.60162 -12.96057,-8.20595 -20.47617,-10.81332 -7.51578,-2.60755 -15.41503,-3.91142 -23.69775,-3.91142 -8.28255,0 -16.1818,1.30387 -23.69758,3.91142 -7.51577,2.60737 -14.341166,6.2117 -20.476344,10.81332 l -8.743274,-11.73407 c 7.362321,-5.67495 15.530564,-10.046206 24.503318,-13.113779 8.97293,-3.067749 18.44399,-4.601447 28.41388,-4.601447 z m 0,29.449296 c 6.59538,0 12.88384,1.0347 18.86574,3.1055 5.98189,2.07062 11.50341,4.94628 16.56491,8.62734 l -8.97205,11.73406 c -3.68107,-2.76101 -7.74614,-4.90801 -12.19416,-6.4417 -4.44819,-1.53388 -9.20277,-2.30064 -14.26444,-2.30064 -5.06168,0 -9.81625,0.76676 -14.26427,2.30064 -4.44819,1.53369 -8.51308,3.68069 -12.19433,6.4417 l -8.972933,-11.73406 c 5.061493,-3.68106 10.583013,-6.55672 16.564913,-8.62734 5.9819,-2.0708 12.27124,-3.1055 18.86662,-3.1055 z m 0,29.67877 c 6.74884,0 12.65383,1.91717 17.71533,5.75168 l -17.71533,23.46778 -17.71533,-23.46778 c 5.06168,-3.83451 10.96649,-5.75168 17.71533,-5.75168 z" />
  </g>
</svg>
