<?xml version="1.0" encoding="UTF-8" standalone="no"?>
<svg
   xmlns:dc="http://purl.org/dc/elements/1.1/"
   xmlns:cc="http://creativecommons.org/ns#"
   xmlns:rdf="http://www.w3.org/1999/02/22-rdf-syntax-ns#"
   xmlns:svg="http://www.w3.org/2000/svg"
   xmlns="http://www.w3.org/2000/svg"
   width="1000"
   height="1000"
   viewBox="0 0 264.58333 264.58334"
   version="1.1"
   id="svg221">
  <defs
     id="defs215" />
  <metadata
     id="metadata218">
    <rdf:RDF>
      <cc:Work
         rdf:about="">
        <dc:format>image/svg+xml</dc:format>
        <dc:type
           rdf:resource="http://purl.org/dc/dcmitype/StillImage" />
        <dc:title></dc:title>
      </cc:Work>
    </rdf:RDF>
  </metadata>
  <g
     id="layer1">
    <g
       aria-label="2"
       id="text1950-3-3-7"
       style="font-size:80.8422px;line-height:1.25;font-family:sans-serif;direction:rtl;display:inline;stroke-width:0.3;stroke-miterlimit:4;stroke-dasharray:none"
       transform="matrix(1.6659475,0,0,1.6659475,5905.553,-1963.1889)">
      <path
         id="path2928"
         style="font-style:normal;font-variant:normal;font-weight:normal;font-stretch:normal;font-size:80.8422px;font-family:'Hack Nerd Font';-inkscape-font-specification:'Hack Nerd Font';stroke-width:0.3;stroke-miterlimit:4;stroke-dasharray:none"
         d="m -3483.3535,1282.5417 q 0,-1.4605 0.9869,-2.4474 2.25,-2.3684 5.3289,-5.6052 3.079,-3.2764 6.5921,-7.1053 2.6842,-2.9211 4.0264,-4.3816 1.3815,-1.5 2.0921,-2.2895 0.7105,-0.8289 1.4605,-1.7368 2.0921,-2.5263 3.3158,-4.3027 1.2631,-1.7763 2.0526,-3.5131 1.3816,-3.079 1.3816,-6.1579 0,-4.8948 -2.8816,-7.6579 -2.921,-2.8027 -8.0132,-2.8027 -7.0657,0 -15.8684,5.25 v -8.0526 q 4.0263,-1.9342 8.0132,-2.9211 3.9079,-0.9868 7.7368,-0.9868 4.1053,0 7.6974,1.1053 3.5921,1.1052 6.2763,3.4737 2.3685,2.0921 3.7895,5.1315 1.4211,3 1.4211,6.7895 0,3.8685 -1.7369,7.7764 -0.8684,1.9736 -2.25,3.8684 -1.3421,1.8552 -3.4737,4.421 -1.1447,1.3421 -2.7237,3.1185 -1.5789,1.7763 -3.671,4.0263 -1.5,1.6184 -2.8027,2.921 -1.2631,1.3027 -2.6842,2.7237 -1.421,1.3816 -3.2763,3.2763 -1.8158,1.8553 -4.4605,4.6579 h 27.4737 v 6.7106 h -35.8027 z m -18.6328,-72.3562 c -6.1106,0 -11.1114,5.0008 -11.1114,11.1114 v 73.0683 c 0,6.1106 5.0008,11.1114 11.1114,11.1114 h 73.0664 c 6.1105,0 11.1133,-5.0008 11.1133,-11.1114 v -73.0683 c 0,-6.1106 -5.0028,-11.1114 -11.1133,-11.1114 z m 0,5.2911 h 73.0664 c 3.2705,0 5.8222,2.5498 5.8222,5.8203 v 73.0683 c 0,3.2705 -2.5517,5.8203 -5.8222,5.8203 h -73.0664 c -3.2705,0 -5.8203,-2.5498 -5.8203,-5.8203 v -73.0683 c 0,-3.2705 2.5498,-5.8203 5.8203,-5.8203 z" />
    </g>
  </g>
</svg>
