<?xml version="1.0" encoding="UTF-8" standalone="no"?>
<svg
   xmlns:dc="http://purl.org/dc/elements/1.1/"
   xmlns:cc="http://creativecommons.org/ns#"
   xmlns:rdf="http://www.w3.org/1999/02/22-rdf-syntax-ns#"
   xmlns:svg="http://www.w3.org/2000/svg"
   xmlns="http://www.w3.org/2000/svg"
   width="1000"
   height="1000"
   viewBox="0 0 264.58333 264.58334"
   version="1.1"
   id="svg221">
  <defs
     id="defs215" />
  <metadata
     id="metadata218">
    <rdf:RDF>
      <cc:Work
         rdf:about="">
        <dc:format>image/svg+xml</dc:format>
        <dc:type
           rdf:resource="http://purl.org/dc/dcmitype/StillImage" />
        <dc:title></dc:title>
      </cc:Work>
    </rdf:RDF>
  </metadata>
  <g
     id="layer1">
    <g
       aria-label="0"
       id="text1950-3-2-7-9"
       style="font-size:79.3287px;line-height:1.25;font-family:sans-serif;direction:rtl;display:inline;fill:#000000;stroke-width:0.3;stroke-miterlimit:4;stroke-dasharray:none"
       transform="matrix(1.6659475,0,0,1.6659475,6405.3373,-1963.1889)">
      <path
         id="path2920"
         style="font-style:normal;font-variant:normal;font-weight:normal;font-stretch:normal;font-size:79.3287px;font-family:'Hack Nerd Font';-inkscape-font-specification:'Hack Nerd Font';fill:#000000;stroke-width:0.3;stroke-miterlimit:4;stroke-dasharray:none"
         d="m -3765.4716,1287.8311 q -9.2963,0 -13.9832,-7.592 -4.7257,-7.6308 -4.7257,-22.3887 0,-14.7967 4.7257,-22.4274 4.6869,-7.592 13.9832,-7.592 9.2963,0 14.022,7.592 2.3241,3.7185 3.5248,9.2963 1.2008,5.5391 1.2008,13.1311 0,7.592 -1.2008,13.1311 -1.2007,5.539 -3.5248,9.2576 -4.7644,7.592 -14.022,7.592 z m 0,-6.1976 q 5.5391,0 8.2118,-5.8877 2.6727,-5.8489 2.6727,-17.8954 0,-12.0852 -2.6727,-17.8954 -2.6727,-5.9264 -8.2118,-5.9264 -5.4616,0 -8.1343,5.8876 -1.3557,2.9051 -2.0529,7.3209 -0.6585,4.377 -0.6585,10.6133 0,12.124 2.7114,17.8954 2.7115,5.8877 8.1343,5.8877 z m 0.077,-10.2647 q -1.2395,0 -1.9368,-1.6656 -0.6584,-1.6656 -1.1233,-3.9122 -0.3873,-1.7818 -0.6584,-4.2995 -0.2325,-2.5178 -0.2325,-3.8348 0,-0.9296 0.155,-3.3312 0.1549,-2.4015 0.6197,-4.5319 1.1233,-5.5391 3.0213,-5.5391 1.0846,0 1.8206,1.4719 0.7747,1.472 1.317,4.1834 0.3873,1.9367 0.6197,4.3383 0.2324,2.4015 0.2324,3.7185 0,0.7747 -0.1549,3.06 -0.1162,2.2854 -0.5036,4.6869 -0.9683,5.6553 -3.1762,5.6553 z m -36.5917,-61.1833 c -6.1106,0 -11.1114,5.0008 -11.1114,11.1114 v 73.0683 c 0,6.1106 5.0008,11.1114 11.1114,11.1114 h 73.0664 c 6.1105,0 11.1133,-5.0008 11.1133,-11.1114 v -73.0683 c 0,-6.1106 -5.0028,-11.1114 -11.1133,-11.1114 z m 0,5.2911 h 73.0664 c 3.2705,0 5.8222,2.5498 5.8222,5.8203 v 73.0683 c 0,3.2705 -2.5517,5.8203 -5.8222,5.8203 h -73.0664 c -3.2705,0 -5.8203,-2.5498 -5.8203,-5.8203 v -73.0683 c 0,-3.2705 2.5498,-5.8203 5.8203,-5.8203 z" />
    </g>
  </g>
</svg>
