<?xml version="1.0" encoding="UTF-8" standalone="no"?>
<svg
   xmlns:dc="http://purl.org/dc/elements/1.1/"
   xmlns:cc="http://creativecommons.org/ns#"
   xmlns:rdf="http://www.w3.org/1999/02/22-rdf-syntax-ns#"
   xmlns:svg="http://www.w3.org/2000/svg"
   xmlns="http://www.w3.org/2000/svg"
   width="1000"
   height="1000"
   viewBox="0 0 264.58333 264.58334"
   version="1.1"
   id="svg221">
  <defs
     id="defs215" />
  <metadata
     id="metadata218">
    <rdf:RDF>
      <cc:Work
         rdf:about="">
        <dc:format>image/svg+xml</dc:format>
        <dc:type
           rdf:resource="http://purl.org/dc/dcmitype/StillImage" />
        <dc:title></dc:title>
      </cc:Work>
    </rdf:RDF>
  </metadata>
  <g
     id="layer1">
    <g
       aria-label="1"
       id="text1950-3-6-6-7"
       style="font-size:82.3042px;line-height:1.25;font-family:sans-serif;direction:rtl;display:inline;stroke-width:0.3;stroke-miterlimit:4;stroke-dasharray:none"
       transform="matrix(1.6659475,0,0,1.6659475,6155.4452,-1963.1889)">
      <path
         id="path2924"
         style="font-style:normal;font-variant:normal;font-weight:normal;font-stretch:normal;font-size:82.3042px;font-family:'Hack Nerd Font';-inkscape-font-specification:'Hack Nerd Font';stroke-width:0.3;stroke-miterlimit:4;stroke-dasharray:none"
         d="m -3631.3264,1280.9993 h 12.6189 v -43.0409 l -9.5646,10.8908 -4.4207,-5.3851 13.9049,-15.633 h 8.1179 v 53.1682 h 12.4582 v 6.8319 h -33.1146 z m -20.6599,-70.8138 c -6.1106,0 -11.1114,5.0008 -11.1114,11.1114 v 73.0683 c 0,6.1106 5.0008,11.1114 11.1114,11.1114 h 73.0664 c 6.1105,0 11.1133,-5.0008 11.1133,-11.1114 v -73.0683 c 0,-6.1106 -5.0028,-11.1114 -11.1133,-11.1114 z m 0,5.2911 h 73.0664 c 3.2705,0 5.8222,2.5498 5.8222,5.8203 v 73.0683 c 0,3.2705 -2.5517,5.8203 -5.8222,5.8203 h -73.0664 c -3.2705,0 -5.8203,-2.5498 -5.8203,-5.8203 v -73.0683 c 0,-3.2705 2.5498,-5.8203 5.8203,-5.8203 z" />
    </g>
  </g>
</svg>
