<?xml version="1.0" encoding="UTF-8" standalone="no"?>
<svg
   xmlns:dc="http://purl.org/dc/elements/1.1/"
   xmlns:cc="http://creativecommons.org/ns#"
   xmlns:rdf="http://www.w3.org/1999/02/22-rdf-syntax-ns#"
   xmlns:svg="http://www.w3.org/2000/svg"
   xmlns="http://www.w3.org/2000/svg"
   width="1000"
   height="1000"
   viewBox="0 0 264.58333 264.58334"
   version="1.1"
   id="svg221">
  <defs
     id="defs215" />
  <metadata
     id="metadata218">
    <rdf:RDF>
      <cc:Work
         rdf:about="">
        <dc:format>image/svg+xml</dc:format>
        <dc:type
           rdf:resource="http://purl.org/dc/dcmitype/StillImage" />
        <dc:title></dc:title>
      </cc:Work>
    </rdf:RDF>
  </metadata>
  <g
     id="layer1">
    <path
       id="rect12-1-6-67-3-7-2-8-2"
       style="display:inline;fill:#000000;fill-opacity:0.974904;stroke:none;stroke-width:0.302969"
       d="m 67.850882,52.917082 c -8.273576,0 -14.934237,6.660785 -14.934237,14.93429 V 196.73213 c 0,8.2735 6.660661,14.93411 14.934237,14.93411 H 196.73243 c 8.27358,0 14.93424,-6.66061 14.93424,-14.93411 V 67.851372 c 0,-8.273505 -6.66066,-14.93429 -14.93424,-14.93429 z m 64.406618,26.45757 c 9.51972,0 17.03574,2.369075 22.54718,7.106166 5.51144,4.691583 8.2674,11.067852 8.2674,19.130042 0,6.01238 -1.63987,11.04616 -4.91942,15.1001 -3.23396,4.00825 -7.83432,6.78619 -13.80124,8.33488 6.87792,1.50301 12.11615,4.53284 15.71449,9.08772 3.59841,4.55488 5.3971,10.43021 5.3971,17.62686 0,4.78278 -0.77389,8.99599 -2.32256,12.64 -1.50313,3.59833 -3.66682,6.62727 -6.49089,9.08684 -5.92136,5.14701 -14.07527,7.72052 -24.46043,7.72052 -10.33963,0 -18.447,-2.55075 -24.32284,-7.65209 -5.83027,-5.10151 -8.745059,-12.32091 -8.745059,-21.65857 0,-7.24234 1.821509,-13.16299 5.465469,-17.76356 3.59834,-4.55488 8.81377,-7.58471 15.64612,-9.08772 -2.7785,-0.68332 -5.35196,-1.7309 -7.72052,-3.14289 -2.36858,-1.41199 -4.3726,-3.14236 -6.01235,-5.19199 -1.73086,-2.14083 -3.00668,-4.48698 -3.82652,-7.03773 -0.77434,-2.55093 -1.16127,-5.26114 -1.16127,-8.13081 0,-7.879979 2.75597,-14.233318 8.2674,-19.061602 2.68742,-2.322861 5.87596,-4.076869 9.56543,-5.261141 3.73504,-1.229781 8.03877,-1.845025 12.91251,-1.845025 z m 0,10.658455 c -5.51144,0 -9.7248,1.458204 -12.63997,4.373378 -2.91516,2.915173 -4.37252,7.150435 -4.37252,12.707385 0,5.46593 1.45736,9.63364 4.37252,12.5033 2.91517,2.86949 7.12853,4.30494 12.63997,4.30494 5.55698,0 9.79316,-1.43545 12.70828,-4.30494 2.91516,-2.86966 4.37255,-7.03737 4.37255,-12.5033 0,-5.55695 -1.43457,-9.792212 -4.30418,-12.707385 -2.91512,-2.915174 -7.17413,-4.373378 -12.77665,-4.373378 z m 0,44.752593 c -6.10358,0 -10.84077,1.70745 -14.21142,5.12356 -3.37061,3.46163 -5.05524,8.31302 -5.05524,14.55312 0,6.28578 1.68463,11.18268 5.05524,14.68999 3.46175,3.50731 8.26735,5.26043 14.41647,5.26043 6.05803,0 10.74961,-1.73037 14.07467,-5.19199 3.37067,-3.50731 5.05618,-8.3587 5.05618,-14.55329 0,-3.37061 -0.45536,-6.2625 -1.36634,-8.67673 -0.86545,-2.41406 -2.0956,-4.41889 -3.68984,-6.01327 -3.41615,-3.46162 -8.17615,-5.19182 -14.27972,-5.19182 z" />
  </g>
</svg>
