<?xml version="1.0" encoding="UTF-8" standalone="no"?>
<svg
   xmlns:dc="http://purl.org/dc/elements/1.1/"
   xmlns:cc="http://creativecommons.org/ns#"
   xmlns:rdf="http://www.w3.org/1999/02/22-rdf-syntax-ns#"
   xmlns:svg="http://www.w3.org/2000/svg"
   xmlns="http://www.w3.org/2000/svg"
   width="1000"
   height="1000"
   viewBox="0 0 264.58333 264.58334"
   version="1.1"
   id="svg221">
  <defs
     id="defs215" />
  <metadata
     id="metadata218">
    <rdf:RDF>
      <cc:Work
         rdf:about="">
        <dc:format>image/svg+xml</dc:format>
        <dc:type
           rdf:resource="http://purl.org/dc/dcmitype/StillImage" />
        <dc:title></dc:title>
      </cc:Work>
    </rdf:RDF>
  </metadata>
  <g
     id="layer1">
    <path
       id="rect12-1-6-67-3-7-3-5-1"
       style="display:inline;fill:#000000;fill-opacity:0.974904;stroke:none;stroke-width:0.302969"
       d="m 67.850866,52.917085 c -8.27356,0 -14.934221,6.660785 -14.934221,14.93429 V 196.73213 c 0,8.2735 6.660661,14.93411 14.934221,14.93411 H 196.73243 c 8.27356,0 14.93424,-6.66061 14.93424,-14.93411 V 67.851375 c 0,-8.273505 -6.66068,-14.93429 -14.93424,-14.93429 z m 63.313704,26.457567 c 6.24023,0 11.43277,1.116186 15.57776,3.348031 4.14495,2.186336 7.56074,5.352158 10.24816,9.497112 2.91512,4.554882 5.03321,10.088715 6.35413,16.602215 1.32094,6.51368 1.98164,13.86979 1.98164,22.06868 0,9.01875 -0.7967,16.92166 -2.39093,23.70856 -1.54862,6.78673 -4.03177,12.48037 -7.44792,17.08076 -6.69573,9.01875 -16.30608,13.52777 -28.83209,13.52777 -1.68532,0 -3.41648,-0.09 -5.19291,-0.27252 -1.73086,-0.13758 -3.39356,-0.3877 -4.98779,-0.75194 -3.00621,-0.63782 -6.26231,-1.66264 -9.7696,-3.07463 v -12.70827 c 2.86961,1.68522 5.92128,2.96104 9.15524,3.8264 3.37066,0.91105 6.71798,1.36648 10.04303,1.36648 8.791,0 15.44187,-3.3027 19.95121,-9.90721 4.46384,-6.65021 6.69505,-16.329 6.69505,-29.03726 -1.04759,2.32303 -2.3681,4.37267 -3.96232,6.14908 -1.59423,1.77641 -3.27975,3.23391 -5.05618,4.37249 -3.78055,2.41423 -8.47213,3.62161 -14.07466,3.62161 -9.29199,0 -16.64831,-3.02894 -22.06864,-9.08701 -5.42033,-6.10357 -8.130717,-14.59879 -8.130717,-25.48497 0,-5.37473 0.660698,-10.24888 1.981637,-14.621549 1.36648,-4.418181 3.48457,-8.175257 6.35419,-11.27264 5.42033,-5.967048 13.27761,-8.951189 23.57171,-8.951189 z m -0.0684,10.795155 c -2.82406,0 -5.39751,0.47819 -7.72053,1.434745 -2.32297,0.956555 -4.28141,2.482316 -5.87559,4.577635 -3.09737,4.053763 -4.64599,10.021163 -4.64599,17.901143 0,7.87998 1.54862,13.84739 4.64599,17.90115 3.00621,4.00843 7.5381,6.01238 13.59612,6.01238 3.18841,0 5.94443,-0.54663 8.2674,-1.63971 2.32302,-1.13877 4.2586,-2.68746 5.80727,-4.64608 3.32507,-4.19046 4.9878,-10.06667 4.9878,-17.62774 0,-7.56107 -1.66273,-13.43728 -4.9878,-17.62774 -1.54867,-1.958619 -3.48425,-3.48438 -5.80727,-4.577636 -2.32297,-1.138764 -5.07899,-1.708147 -8.2674,-1.708147 z" />
  </g>
</svg>
