<?xml version="1.0" encoding="UTF-8" standalone="no"?>
<svg
   xmlns:dc="http://purl.org/dc/elements/1.1/"
   xmlns:cc="http://creativecommons.org/ns#"
   xmlns:rdf="http://www.w3.org/1999/02/22-rdf-syntax-ns#"
   xmlns:svg="http://www.w3.org/2000/svg"
   xmlns="http://www.w3.org/2000/svg"
   width="1000"
   height="1000"
   viewBox="0 0 264.58333 264.58334"
   version="1.1"
   id="svg221">
  <defs
     id="defs215" />
  <metadata
     id="metadata218">
    <rdf:RDF>
      <cc:Work
         rdf:about="">
        <dc:format>image/svg+xml</dc:format>
        <dc:type
           rdf:resource="http://purl.org/dc/dcmitype/StillImage" />
        <dc:title></dc:title>
      </cc:Work>
    </rdf:RDF>
  </metadata>
  <g
     id="layer1">
    <path
       id="rect12-1-6-67-2-3-6"
       style="display:inline;fill:#000000;fill-opacity:0.974904;stroke:none;stroke-width:0.302971"
       d="m 67.850585,52.916665 c -8.273548,0 -14.934368,6.660819 -14.934368,14.934368 V 196.73246 c 0,8.27356 6.66082,14.9342 14.934368,14.9342 H 196.73291 c 8.27355,0 14.93419,-6.66064 14.93419,-14.9342 V 67.851033 c 0,-8.273549 -6.66064,-14.934368 -14.93419,-14.934368 z m 61.639655,26.457709 c 4.78262,0 9.17843,0.615247 13.18688,1.845034 4.05378,1.229787 7.58368,3.09687 10.59007,5.60213 5.87571,4.873817 8.81331,11.456315 8.81331,19.746272 0,2.96069 -0.40958,5.60248 -1.22962,7.92553 -0.77435,2.32305 -1.91312,4.39563 -3.41631,6.21756 -3.0974,3.68954 -7.65195,6.33132 -13.66454,7.92571 6.69574,1.77641 11.81985,4.91932 15.37269,9.42872 1.86761,2.36856 3.21188,4.98758 4.03174,7.85726 0.86537,2.86951 1.29787,5.94416 1.29787,9.22359 0,9.29202 -3.11997,16.62559 -9.36028,22.00036 -3.0974,2.64196 -6.85538,4.64592 -11.27358,6.01241 -4.37288,1.36649 -9.4513,2.04911 -15.23617,2.04911 -2.18635,0 -4.487,-0.11287 -6.90107,-0.34096 -2.36856,-0.18221 -4.78226,-0.50147 -7.24201,-0.95709 -2.09533,-0.36424 -4.39581,-0.86536 -6.90107,-1.50301 -2.50526,-0.63765 -4.98741,-1.38871 -7.44716,-2.25426 V 166.2148 c 2.32305,1.18428 4.60094,2.25478 6.8328,3.21116 2.23186,0.95656 4.53162,1.75331 6.90018,2.39096 2.27754,0.59214 4.50957,1.04758 6.69609,1.36649 2.23186,0.27323 4.48683,0.41011 6.76437,0.41011 7.60662,0 13.41336,-1.70833 17.42181,-5.12464 4.05378,-3.46165 6.08156,-8.312 6.08156,-14.55231 0,-6.10361 -2.00485,-10.88641 -6.0133,-14.34823 -4.00828,-3.46164 -9.51939,-5.1929 -16.53405,-5.1929 h -10.52162 v -11.34202 h 10.52162 c 6.42252,0 11.387,-1.3889 14.89433,-4.16739 3.50733,-2.73297 5.26117,-6.67263 5.26117,-11.81967 0,-5.14705 -1.63989,-9.110517 -4.91932,-11.889005 -3.1886,-2.778487 -7.9714,-4.167381 -14.34823,-4.167381 -3.78073,0 -7.90278,0.455261 -12.36667,1.366309 -4.3727,0.865367 -8.90449,2.231681 -13.5961,4.099117 V 83.74707 c 5.55698,-1.457684 10.47665,-2.550064 14.75833,-3.278728 4.05396,-0.728842 7.90225,-1.093968 11.54628,-1.093968 z" />
  </g>
</svg>
