<?xml version="1.0" encoding="UTF-8" standalone="no"?>
<svg
   xmlns:dc="http://purl.org/dc/elements/1.1/"
   xmlns:cc="http://creativecommons.org/ns#"
   xmlns:rdf="http://www.w3.org/1999/02/22-rdf-syntax-ns#"
   xmlns:svg="http://www.w3.org/2000/svg"
   xmlns="http://www.w3.org/2000/svg"
   width="1000"
   height="1000"
   viewBox="0 0 264.58333 264.58334"
   version="1.1"
   id="svg221">
  <defs
     id="defs215" />
  <metadata
     id="metadata218">
    <rdf:RDF>
      <cc:Work
         rdf:about="">
        <dc:format>image/svg+xml</dc:format>
        <dc:type
           rdf:resource="http://purl.org/dc/dcmitype/StillImage" />
        <dc:title></dc:title>
      </cc:Work>
    </rdf:RDF>
  </metadata>
  <g
     id="layer1">
    <path
       id="rect12-1-6-53-6-1"
       style="display:inline;fill:#000000;fill-opacity:0.974904;stroke:none;stroke-width:0.30297"
       d="m 67.850579,52.916665 c -8.273725,0 -14.934369,6.66082 -14.934369,14.934369 V 196.73247 c 0,8.27355 6.660644,14.93419 14.934369,14.93419 H 196.73275 c 8.27373,0 14.93437,-6.66064 14.93437,-14.93419 V 67.851034 c 0,-8.273549 -6.66064,-14.934369 -14.93437,-14.934369 z m 64.406871,26.45772 c 10.93192,0 19.17619,4.464418 24.73316,13.39202 2.73298,4.372872 4.80556,9.838295 6.21756,16.397345 1.41199,6.51353 2.11826,14.2341 2.11826,23.1617 0,8.92776 -0.70627,16.64904 -2.11826,23.16257 -1.412,6.51354 -3.48458,11.95621 -6.21756,16.32891 -5.60248,8.92777 -13.84675,13.39113 -24.73316,13.39113 -10.93174,0 -19.15413,-4.46336 -24.6656,-13.39113 -5.55697,-8.97311 -8.334931,-22.13724 -8.334931,-39.49148 0,-17.39976 2.777961,-30.58576 8.334931,-39.559045 5.51147,-8.927602 13.73386,-13.39202 24.6656,-13.39202 z m 0,10.931915 c -6.42234,0 -11.20532,3.46235 -14.34822,10.38581 -1.59421,3.41632 -2.80142,7.72004 -3.62128,12.9126 -0.77435,5.14704 -1.16135,11.38735 -1.16135,18.72074 0,14.25702 1.59421,24.779 4.78263,31.56577 3.18859,6.92364 7.97139,10.3851 14.34822,10.3851 6.51371,0 11.34114,-3.46146 14.48405,-10.3851 3.14291,-6.87778 4.71436,-17.39994 4.71436,-31.56577 0,-14.21135 -1.57145,-24.73263 -4.71436,-31.5649 -3.14291,-6.969146 -7.97034,-10.45425 -14.48405,-10.45425 z m -0.13758,18.03794 c 1.27547,0 2.3458,0.86519 3.21135,2.5961 0.91105,1.73091 1.68487,4.19031 2.32252,7.37873 0.45543,2.27736 0.82056,4.82813 1.09379,7.65213 0.2734,2.82417 0.40922,5.01069 0.40922,6.55939 0,0.91088 -0.0917,2.71058 -0.2734,5.39803 -0.13582,2.6873 -0.43233,5.4425 -0.88777,8.2665 -1.13877,6.65023 -3.00585,9.97553 -5.60213,9.97553 -1.45768,0 -2.59663,-0.97914 -3.41649,-2.93777 -0.77435,-1.95863 -1.4351,-4.2591 -1.98156,-6.90106 -0.45544,-2.09533 -0.84243,-4.62317 -1.16135,-7.58387 -0.27322,-2.96068 -0.4101,-5.21476 -0.4101,-6.76346 0,-1.09308 0.0917,-3.05242 0.2734,-5.87659 0.18221,-2.824 0.54628,-5.48871 1.09291,-7.99397 1.32098,-6.51354 3.09775,-9.76969 5.32961,-9.76969 z" />
  </g>
</svg>
