<?xml version="1.0" encoding="UTF-8" standalone="no"?>
<svg
   xmlns:dc="http://purl.org/dc/elements/1.1/"
   xmlns:cc="http://creativecommons.org/ns#"
   xmlns:rdf="http://www.w3.org/1999/02/22-rdf-syntax-ns#"
   xmlns:svg="http://www.w3.org/2000/svg"
   xmlns="http://www.w3.org/2000/svg"
   width="1000"
   height="1000"
   viewBox="0 0 264.58333 264.58334"
   version="1.1"
   id="svg221">
  <defs
     id="defs215" />
  <metadata
     id="metadata218">
    <rdf:RDF>
      <cc:Work
         rdf:about="">
        <dc:format>image/svg+xml</dc:format>
        <dc:type
           rdf:resource="http://purl.org/dc/dcmitype/StillImage" />
        <dc:title></dc:title>
      </cc:Work>
    </rdf:RDF>
  </metadata>
  <g
     id="layer1">
    <path
       id="rect12-1-6-67-3-7-1-4"
       style="display:inline;fill:#000000;fill-opacity:0.974904;stroke:none;stroke-width:0.30297"
       d="m 67.851026,52.916665 c -8.273549,0 -14.934368,6.660819 -14.934368,14.934368 V 196.73247 c 0,8.27355 6.660819,14.93419 14.934368,14.93419 H 196.73229 c 8.27373,0 14.93437,-6.66064 14.93437,-14.93419 V 67.851033 c 0,-8.273549 -6.66064,-14.934368 -14.93437,-14.934368 z m 36.695894,26.457709 h 52.569 v 11.821623 h -39.77406 v 25.519673 c 1.99338,-0.74171 4.01004,-1.29805 6.0498,-1.66899 1.76161,-0.32456 3.8012,-0.48666 6.11896,-0.48666 5.60936,0 10.5465,0.85796 14.81124,2.57317 4.26493,1.71521 7.85727,4.03261 10.77775,6.95309 6.2583,6.30452 9.3878,14.858 9.3878,25.65921 0,11.07937 -3.26885,19.77114 -9.80513,26.07583 -3.19865,3.05947 -7.11556,5.40069 -11.75142,7.02312 -4.58931,1.57622 -10.01328,2.3645 -16.2714,2.3645 -2.08616,0 -4.4272,-0.0935 -7.0233,-0.27887 -2.54954,-0.18538 -4.96043,-0.4632 -7.23197,-0.83397 -2.36415,-0.37095 -4.54309,-0.83485 -6.53647,-1.39101 -1.99337,-0.55633 -3.91655,-1.20526 -5.77076,-1.94716 v -14.25421 c 4.35753,2.31793 8.64556,4.03297 12.86409,5.14546 4.31131,1.15905 8.59952,1.73832 12.86426,1.73832 8.11251,0 14.20835,-2.03959 18.28789,-6.11895 4.17214,-4.12593 6.25759,-9.87429 6.25759,-17.24507 0,-4.03315 -0.57944,-7.48703 -1.73832,-10.3613 -1.15888,-2.87409 -2.73474,-5.26099 -4.72794,-7.16176 -1.94717,-1.85421 -4.45049,-3.33835 -7.51014,-4.45084 -3.05947,-1.11267 -6.69874,-1.66812 -10.91727,-1.66812 -3.61581,0 -7.18523,0.41699 -10.70843,1.25149 -3.61581,0.88071 -7.02312,2.17876 -10.22177,3.89397 z" />
  </g>
</svg>
