<?xml version="1.0" encoding="UTF-8" standalone="no"?>
<svg
   xmlns:dc="http://purl.org/dc/elements/1.1/"
   xmlns:cc="http://creativecommons.org/ns#"
   xmlns:rdf="http://www.w3.org/1999/02/22-rdf-syntax-ns#"
   xmlns:svg="http://www.w3.org/2000/svg"
   xmlns="http://www.w3.org/2000/svg"
   width="1000"
   height="1000"
   viewBox="0 0 264.58333 264.58334"
   version="1.1"
   id="svg221">
  <defs
     id="defs215" />
  <metadata
     id="metadata218">
    <rdf:RDF>
      <cc:Work
         rdf:about="">
        <dc:format>image/svg+xml</dc:format>
        <dc:type
           rdf:resource="http://purl.org/dc/dcmitype/StillImage" />
        <dc:title></dc:title>
      </cc:Work>
    </rdf:RDF>
  </metadata>
  <g
     id="layer1">
    <path
       id="rect12-1-6-67-9-3-30"
       style="display:inline;fill:#000000;fill-opacity:0.974904;stroke:none;stroke-width:0.30297"
       d="m 67.850583,52.916665 c -8.273726,0 -14.934369,6.660819 -14.934369,14.934368 V 196.73247 c 0,8.27355 6.660643,14.93419 14.934369,14.93419 H 196.73274 c 8.27372,0 14.93436,-6.66064 14.93436,-14.93419 V 67.851033 c 0,-8.273549 -6.66064,-14.934368 -14.93436,-14.934368 z m 61.481787,26.457724 c 4.82761,0 9.35394,0.650172 13.57794,1.949809 4.22417,1.299814 7.91406,3.342228 11.07038,6.127242 2.78519,2.460104 5.01316,5.477246 6.68428,9.051426 1.67111,3.527794 2.50667,7.520194 2.50667,11.976314 0,4.54909 -1.0213,9.12109 -3.06371,13.71656 -1.02112,2.32093 -2.34404,4.59548 -3.96876,6.82363 -1.57816,2.18158 -3.62057,4.78086 -6.12707,7.798 -1.3462,1.57833 -2.948,3.41226 -4.80467,5.50106 -1.85685,2.0888 -4.01533,4.45577 -6.47544,7.10162 -1.76389,1.90306 -3.41137,3.62092 -4.94314,5.15286 -1.48537,1.53177 -3.06335,3.13268 -4.73447,4.80362 -1.67111,1.62472 -3.59728,3.55107 -5.77904,5.77905 -2.1352,2.18176 -4.75811,4.92073 -7.86821,8.21639 h 48.46089 v 11.83697 h -63.15184 v -9.33029 c 0,-1.71751 0.57961,-3.15649 1.74008,-4.31696 2.64584,-2.78501 5.77905,-6.08085 9.39962,-9.88716 3.62057,-3.8527 7.49691,-8.02996 11.6283,-12.53247 l 7.10162,-7.72868 c 1.62454,-1.76408 2.85521,-3.11063 3.69059,-4.03897 0.83556,-0.97491 1.69405,-1.99602 2.576,-3.06371 2.46028,-2.97075 4.40938,-5.50053 5.84837,-7.58933 1.48537,-2.08881 2.69311,-4.15398 3.62145,-6.19639 1.62455,-3.62057 2.43647,-7.24112 2.43647,-10.86169 0,-5.75595 -1.69405,-10.258464 -5.08267,-13.507735 -3.43483,-3.295661 -8.1469,-4.944021 -14.13479,-4.944021 -8.309,0 -17.63877,3.087346 -27.99001,9.260976 V 86.268219 c 4.73464,-2.274366 9.44654,-3.992223 14.13479,-5.152689 4.59548,-1.160467 9.14386,-1.741141 13.64637,-1.741141 z" />
  </g>
</svg>
