<?xml version="1.0" encoding="UTF-8" standalone="no"?>
<svg
   xmlns:dc="http://purl.org/dc/elements/1.1/"
   xmlns:cc="http://creativecommons.org/ns#"
   xmlns:rdf="http://www.w3.org/1999/02/22-rdf-syntax-ns#"
   xmlns:svg="http://www.w3.org/2000/svg"
   xmlns="http://www.w3.org/2000/svg"
   width="1000"
   height="1000"
   viewBox="0 0 264.58333 264.58334"
   version="1.1"
   id="svg221">
  <defs
     id="defs215" />
  <metadata
     id="metadata218">
    <rdf:RDF>
      <cc:Work
         rdf:about="">
        <dc:format>image/svg+xml</dc:format>
        <dc:type
           rdf:resource="http://purl.org/dc/dcmitype/StillImage" />
        <dc:title></dc:title>
      </cc:Work>
    </rdf:RDF>
  </metadata>
  <g
     id="layer1">
    <path
       id="rect12-1-6-67-3-7-1-8-2"
       style="display:inline;fill:#000000;fill-opacity:0.974904;stroke:none;stroke-width:0.305558"
       d="m 67.300447,52.238728 c -8.344214,0 -15.061748,6.717711 -15.061748,15.061926 V 197.28289 c 0,8.34419 6.717534,15.06171 15.061748,15.06171 H 197.28269 c 8.34421,0 15.06193,-6.71752 15.06193,-15.06171 V 67.300654 c 0,-8.344215 -6.71772,-15.061926 -15.06193,-15.061926 z M 137.90758,78.92241 c 1.88355,0 3.69844,0.09251 5.44414,0.275917 1.79159,0.183767 3.42255,0.436735 4.8925,0.758371 1.83767,0.367534 3.55953,0.826862 5.16736,1.377985 1.65388,0.551283 3.21581,1.12571 4.68576,1.722907 v 12.816002 c -2.94009,-1.745696 -6.01767,-3.054479 -9.2335,-3.927415 -1.60783,-0.459329 -3.28468,-0.780431 -5.03038,-0.964198 -1.74569,-0.229842 -3.42165,-0.344763 -5.02946,-0.344763 -8.95797,0 -15.68883,3.307803 -20.19068,9.922854 -4.54791,6.70705 -6.82125,16.49168 -6.82125,29.35427 2.20502,-4.59381 5.25986,-8.13073 9.1645,-10.61149 3.95072,-2.43469 8.61337,-3.65239 13.98815,-3.65239 9.46335,0 16.92841,3.05483 22.39514,9.1645 5.51265,6.10983 8.26915,14.67767 8.26915,25.70295 0,11.20887 -2.77963,19.86778 -8.33817,25.97762 -5.55853,6.10985 -13.50587,9.16449 -23.84216,9.16449 -6.29343,0 -11.53032,-1.10171 -15.71089,-3.30672 -4.18038,-2.25092 -7.62621,-5.46675 -10.33664,-9.64714 -2.89402,-4.502 -5.0293,-10.015 -6.40747,-16.53828 -1.332261,-6.52326 -1.998661,-13.9885 -1.998661,-22.39515 0,-18.55918 3.330041,-32.3399 9.991191,-41.343921 6.70685,-9.003863 16.35432,-13.506399 28.94137,-13.506399 z m -4.40987,47.61528 c -3.21565,0 -5.99528,0.57443 -8.338,1.72293 -2.34287,1.10242 -4.29511,2.6414 -5.85704,4.61676 -1.60782,2.02126 -2.87142,4.52461 -3.79025,7.51059 -0.87276,2.94009 -1.30914,6.36299 -1.30914,10.26781 0,3.90463 0.43638,7.34959 1.30914,10.33558 0.91883,2.94009 2.18243,5.4205 3.79025,7.44193 1.56193,1.97534 3.51417,3.5371 5.85704,4.68559 2.34272,1.10243 5.0994,1.65391 8.26897,1.65391 6.10983,0 10.70347,-2.04421 13.78143,-6.1328 3.12368,-4.08839 4.68561,-10.08296 4.68561,-17.98421 0,-7.94734 -1.56193,-13.96573 -4.68561,-18.05432 -1.60782,-2.11305 -3.58301,-3.65203 -5.9259,-4.61676 -2.34288,-0.96455 -4.93838,-1.44701 -7.7865,-1.44701 z" />
  </g>
</svg>
