<?xml version="1.0" encoding="UTF-8" standalone="no"?>
<svg
   xmlns:dc="http://purl.org/dc/elements/1.1/"
   xmlns:cc="http://creativecommons.org/ns#"
   xmlns:rdf="http://www.w3.org/1999/02/22-rdf-syntax-ns#"
   xmlns:svg="http://www.w3.org/2000/svg"
   xmlns="http://www.w3.org/2000/svg"
   xmlns:sodipodi="http://sodipodi.sourceforge.net/DTD/sodipodi-0.dtd"
   xmlns:inkscape="http://www.inkscape.org/namespaces/inkscape"
   width="90.000214mm"
   height="89.99968mm"
   viewBox="0 0 90.000214 89.99968"
   version="1.1"
   id="svg229"
   inkscape:version="1.0.2 (e86c870879, 2021-01-15, custom)"
   sodipodi:docname="8.svg">
  <defs
     id="defs223" />
  <sodipodi:namedview
     id="base"
     pagecolor="#ffffff"
     bordercolor="#666666"
     borderopacity="1.0"
     inkscape:pageopacity="0.0"
     inkscape:pageshadow="2"
     inkscape:zoom="0.98994949"
     inkscape:cx="240.54117"
     inkscape:cy="259.66304"
     inkscape:document-units="mm"
     inkscape:current-layer="layer1"
     inkscape:document-rotation="0"
     showgrid="false"
     fit-margin-top="0"
     fit-margin-left="0"
     fit-margin-right="0"
     fit-margin-bottom="0"
     inkscape:window-width="679"
     inkscape:window-height="738"
     inkscape:window-x="683"
     inkscape:window-y="26"
     inkscape:window-maximized="0"
     showguides="true"
     inkscape:guide-bbox="true"
     inkscape:snap-bbox="true"
     inkscape:snap-bbox-midpoints="true"
     inkscape:snap-bbox-edge-midpoints="true">
    <sodipodi:guide
       position="45.000106,89.999677"
       orientation="1,0"
       id="guide509" />
    <sodipodi:guide
       position="-7.5199105e-15,44.999837"
       orientation="0,-1"
       id="guide511" />
  </sodipodi:namedview>
  <metadata
     id="metadata226">
    <rdf:RDF>
      <cc:Work
         rdf:about="">
        <dc:format>image/svg+xml</dc:format>
        <dc:type
           rdf:resource="http://purl.org/dc/dcmitype/StillImage" />
        <dc:title></dc:title>
      </cc:Work>
    </rdf:RDF>
  </metadata>
  <g
     inkscape:label="Layer 1"
     inkscape:groupmode="layer"
     id="layer1"
     transform="translate(-37.512846,-66.881107)">
    <path
       id="rect12-1-6-4"
       style="display:inline;fill:#000000;fill-opacity:1;stroke:none;stroke-width:0.171762"
       d="m 45.979791,66.880853 c -4.690534,0 -8.466667,3.77614 -8.466667,8.46667 v 73.066857 c 0,4.69053 3.776133,8.46666 8.466667,8.46666 h 73.066319 c 4.69054,0 8.46667,-3.77613 8.46667,-8.46666 V 75.347523 c 0,-4.69053 -3.77613,-8.46667 -8.46667,-8.46667 z m 36.514034,15.00013 c 5.397048,0 9.657578,1.34258 12.782178,4.02818 3.1246,2.65977 4.68704,6.27515 4.68704,10.84585 0,3.408647 -0.92969,6.261947 -2.78897,8.560197 -1.83343,2.27242 -4.44151,3.84781 -7.82434,4.7258 3.8993,0.85217 6.86901,2.56931 8.90902,5.15162 2.040047,2.58233 3.059777,5.91365 3.059777,9.99371 0,2.71142 -0.43873,5.10011 -1.31673,7.16598 -0.852167,2.04001 -2.078827,3.75716 -3.679867,5.15162 -3.35701,2.91801 -7.97918,4.377 -13.866843,4.377 -5.86187,0 -10.458688,-1.44605 -13.789872,-4.33824 -3.30536,-2.89219 -4.957842,-6.98511 -4.957842,-12.27884 0,-4.10588 1.032669,-7.4631 3.098536,-10.07123 2.040017,-2.58231 4.996788,-4.29945 8.870262,-5.15162 -1.575224,-0.38735 -3.034189,-0.98129 -4.377002,-1.78181 -1.342814,-0.8005 -2.478961,-1.78194 -3.408574,-2.94399 -0.981287,-1.2137 -1.704049,-2.54334 -2.168869,-3.98942 -0.438997,-1.446097 -0.658866,-2.982697 -0.658866,-4.609537 0,-4.46741 1.562444,-8.06985 4.687041,-10.80709 1.523577,-1.31699 3.331263,-2.31138 5.422926,-2.98276 2.117514,-0.69723 4.557925,-1.04542 7.320995,-1.04542 z m 0,6.04253 c -3.124597,0 -5.513282,0.82624 -7.165975,2.47891 -1.652667,1.65269 -2.479411,4.05431 -2.479411,7.20473 0,3.098777 0.826744,5.461587 2.479411,7.088457 1.652693,1.62684 4.041378,2.44017 7.165975,2.44017 3.15042,0 5.551538,-0.81333 7.204238,-2.44017 1.65266,-1.62687 2.47941,-3.98968 2.47941,-7.088457 0,-3.15042 -0.81381,-5.55204 -2.44068,-7.20473 -1.65267,-1.65267 -4.066725,-2.47891 -7.242968,-2.47891 z m 0,25.371047 c -3.4603,0 -6.145954,0.96851 -8.056854,2.90526 -1.910926,1.96255 -2.866495,4.71289 -2.866495,8.25066 0,3.5636 0.955569,6.33926 2.866495,8.32766 1.962547,1.98837 4.686485,2.98275 8.172609,2.98275 3.434477,0 6.094283,-0.98145 7.979353,-2.94402 1.91093,-1.98837 2.8665,-4.73869 2.8665,-8.25063 0,-1.91093 -0.25815,-3.55047 -0.77462,-4.91908 -0.49064,-1.36864 -1.18806,-2.50479 -2.09188,-3.4086 -1.93672,-1.96255 -4.634808,-2.944 -8.095108,-2.944 z" />
  </g>
</svg>
