<?xml version="1.0" encoding="UTF-8" standalone="no"?>
<svg
   xmlns:dc="http://purl.org/dc/elements/1.1/"
   xmlns:cc="http://creativecommons.org/ns#"
   xmlns:rdf="http://www.w3.org/1999/02/22-rdf-syntax-ns#"
   xmlns:svg="http://www.w3.org/2000/svg"
   xmlns="http://www.w3.org/2000/svg"
   xmlns:sodipodi="http://sodipodi.sourceforge.net/DTD/sodipodi-0.dtd"
   xmlns:inkscape="http://www.inkscape.org/namespaces/inkscape"
   width="90.000214mm"
   height="89.99968mm"
   viewBox="0 0 90.000214 89.99968"
   version="1.1"
   id="svg229"
   inkscape:version="1.0.2 (e86c870879, 2021-01-15, custom)"
   sodipodi:docname="3.svg">
  <defs
     id="defs223" />
  <sodipodi:namedview
     id="base"
     pagecolor="#ffffff"
     bordercolor="#666666"
     borderopacity="1.0"
     inkscape:pageopacity="0.0"
     inkscape:pageshadow="2"
     inkscape:zoom="0.35"
     inkscape:cx="258.21916"
     inkscape:cy="307.22101"
     inkscape:document-units="mm"
     inkscape:current-layer="layer1"
     inkscape:document-rotation="0"
     showgrid="false"
     fit-margin-top="0"
     fit-margin-left="0"
     fit-margin-right="0"
     fit-margin-bottom="0"
     inkscape:window-width="679"
     inkscape:window-height="738"
     inkscape:window-x="683"
     inkscape:window-y="26"
     inkscape:window-maximized="0"
     showguides="true"
     inkscape:guide-bbox="true"
     inkscape:snap-bbox="true"
     inkscape:snap-bbox-midpoints="true"
     inkscape:snap-bbox-edge-midpoints="true">
    <sodipodi:guide
       position="45.000106,89.999677"
       orientation="1,0"
       id="guide509" />
    <sodipodi:guide
       position="-7.5199105e-15,44.999837"
       orientation="0,-1"
       id="guide511" />
  </sodipodi:namedview>
  <metadata
     id="metadata226">
    <rdf:RDF>
      <cc:Work
         rdf:about="">
        <dc:format>image/svg+xml</dc:format>
        <dc:type
           rdf:resource="http://purl.org/dc/dcmitype/StillImage" />
        <dc:title></dc:title>
      </cc:Work>
    </rdf:RDF>
  </metadata>
  <g
     inkscape:label="Layer 1"
     inkscape:groupmode="layer"
     id="layer1"
     transform="translate(-37.512846,-66.881107)">
    <path
       id="rect12-1-6-1"
       style="display:inline;fill:#000000;fill-opacity:1;stroke:none;stroke-width:0.171762"
       d="m 45.979778,66.880854 c -4.690533,0 -8.466667,3.77614 -8.466667,8.46667 v 73.066856 c 0,4.69053 3.776134,8.46666 8.466667,8.46666 h 73.066352 c 4.69054,0 8.46667,-3.77613 8.46667,-8.46666 V 75.347524 c 0,-4.69053 -3.77613,-8.46667 -8.46667,-8.46667 z m 34.945161,15.00013 c 2.711423,0 5.203084,0.34819 7.475511,1.04542 2.298276,0.69721 4.299955,1.75625 6.004295,3.17654 3.331183,2.76307 4.996577,6.49433 4.996577,11.19415 0,1.67851 -0.232278,3.176286 -0.697098,4.493256 -0.438997,1.31699 -1.084686,2.49192 -1.936829,3.52486 -1.755987,2.09166 -4.338162,3.58944 -7.746815,4.49326 3.796003,1.00711 6.701023,2.78892 8.715216,5.3454 1.058757,1.34281 1.820333,2.82766 2.285124,4.45453 0.49065,1.62684 0.73589,3.36986 0.73589,5.22911 0,5.26794 -1.768873,9.42552 -5.306643,12.47265 -1.755987,1.49772 -3.885989,2.63387 -6.390826,3.40857 -2.47904,0.7747 -5.358712,1.16221 -8.638248,1.16221 -1.239494,0 -2.543281,-0.0647 -3.911891,-0.19381 -1.342814,-0.10329 -2.711768,-0.28384 -4.106228,-0.54208 -1.187847,-0.20658 -2.491634,-0.49061 -3.911891,-0.85214 -1.420283,-0.36153 -2.827523,-0.78782 -4.221982,-1.27847 v -7.90186 c 1.316989,0.67141 2.607839,1.27829 3.873156,1.82058 1.265343,0.54229 2.569633,0.99396 3.91242,1.35548 1.291166,0.33568 2.556642,0.59436 3.796162,0.77513 1.265317,0.15494 2.543228,0.23204 3.834394,0.23204 4.312471,0 7.604998,-0.96801 9.877425,-2.90473 2.29825,-1.96258 3.447336,-4.71289 3.447336,-8.25066 0,-3.4603 -1.136147,-6.17183 -3.408574,-8.13441 -2.272427,-1.96254 -5.396839,-2.94399 -9.373579,-2.94399 h -5.965534 v -6.42959 h 5.965534 c 3.641063,0 6.455542,-0.78795 8.443912,-2.36315 1.988397,-1.5494 2.982781,-3.78288 2.982781,-6.700886 0,-2.91801 -0.92972,-5.16443 -2.789,-6.73965 -1.807607,-1.5752 -4.519136,-2.36315 -8.134376,-2.36315 -2.14331,0 -4.480269,0.25815 -7.010929,0.77462 -2.47904,0.49064 -5.048277,1.26566 -7.70808,2.32442 v -7.20474 c 3.150447,-0.82635 5.939049,-1.44613 8.366416,-1.85931 2.298277,-0.41317 4.480533,-0.6196 6.546374,-0.6196 z" />
  </g>
</svg>
