<?xml version="1.0" encoding="UTF-8" standalone="no"?>
<svg
   xmlns:dc="http://purl.org/dc/elements/1.1/"
   xmlns:cc="http://creativecommons.org/ns#"
   xmlns:rdf="http://www.w3.org/1999/02/22-rdf-syntax-ns#"
   xmlns:svg="http://www.w3.org/2000/svg"
   xmlns="http://www.w3.org/2000/svg"
   xmlns:sodipodi="http://sodipodi.sourceforge.net/DTD/sodipodi-0.dtd"
   xmlns:inkscape="http://www.inkscape.org/namespaces/inkscape"
   width="90.000214mm"
   height="89.99968mm"
   viewBox="0 0 90.000214 89.99968"
   version="1.1"
   id="svg229"
   inkscape:version="1.0.2 (e86c870879, 2021-01-15, custom)"
   sodipodi:docname="6.svg">
  <defs
     id="defs223" />
  <sodipodi:namedview
     id="base"
     pagecolor="#ffffff"
     bordercolor="#666666"
     borderopacity="1.0"
     inkscape:pageopacity="0.0"
     inkscape:pageshadow="2"
     inkscape:zoom="0.35"
     inkscape:cx="258.21916"
     inkscape:cy="307.22101"
     inkscape:document-units="mm"
     inkscape:current-layer="layer1"
     inkscape:document-rotation="0"
     showgrid="false"
     fit-margin-top="0"
     fit-margin-left="0"
     fit-margin-right="0"
     fit-margin-bottom="0"
     inkscape:window-width="679"
     inkscape:window-height="738"
     inkscape:window-x="683"
     inkscape:window-y="26"
     inkscape:window-maximized="0"
     showguides="true"
     inkscape:guide-bbox="true"
     inkscape:snap-bbox="true"
     inkscape:snap-bbox-midpoints="true"
     inkscape:snap-bbox-edge-midpoints="true">
    <sodipodi:guide
       position="45.000106,89.999677"
       orientation="1,0"
       id="guide509" />
    <sodipodi:guide
       position="-7.5199105e-15,44.999837"
       orientation="0,-1"
       id="guide511" />
  </sodipodi:namedview>
  <metadata
     id="metadata226">
    <rdf:RDF>
      <cc:Work
         rdf:about="">
        <dc:format>image/svg+xml</dc:format>
        <dc:type
           rdf:resource="http://purl.org/dc/dcmitype/StillImage" />
        <dc:title></dc:title>
      </cc:Work>
    </rdf:RDF>
  </metadata>
  <g
     inkscape:label="Layer 1"
     inkscape:groupmode="layer"
     id="layer1"
     transform="translate(-37.512846,-66.881107)">
    <path
       id="rect12-1-6-8"
       style="display:inline;fill:#000000;fill-opacity:1;stroke:none;stroke-width:0.171762"
       d="m 45.979525,66.880854 c -4.690533,0 -8.466667,3.77614 -8.466667,8.46667 v 73.066856 c 0,4.69053 3.776134,8.46666 8.466667,8.46666 h 73.066855 c 4.69053,0 8.46667,-3.77613 8.46667,-8.46666 V 75.347524 c 0,-4.69053 -3.77614,-8.46667 -8.46667,-8.46667 z m 39.690066,15.00013 c 1.058757,0 2.079017,0.0512 3.060277,0.15452 1.00711,0.10329 1.923891,0.24556 2.750238,0.42632 1.032907,0.20659 2.000911,0.46474 2.904728,0.77462 0.92964,0.30988 1.807607,0.63273 2.633954,0.96843 v 7.20471 c -1.652694,-0.98126 -3.382778,-1.71749 -5.190385,-2.20813 -0.903816,-0.25821 -1.846447,-0.43879 -2.827734,-0.54208 -0.981287,-0.12912 -1.923415,-0.19378 -2.827232,-0.19378 -5.035497,0 -8.819012,1.85941 -11.349698,5.57794 -2.556484,3.77018 -3.834368,9.270336 -3.834368,16.500816 1.239493,-2.58233 2.956639,-4.57057 5.151622,-5.96503 2.22078,-1.36861 4.841769,-2.05309 7.863073,-2.05309 5.31958,0 9.515951,1.71765 12.588901,5.15213 3.098774,3.43448 4.647773,8.25016 4.647773,14.4477 0,6.30084 -1.561937,11.16878 -4.686534,14.60326 -3.124597,3.43447 -7.592087,5.15162 -13.402284,5.15162 -3.53777,0 -6.481603,-0.61981 -8.8315,-1.85933 -2.349897,-1.26532 -4.286938,-3.07301 -5.810488,-5.42293 -1.62687,-2.53066 -2.827153,-5.62917 -3.601853,-9.29605 -0.748876,-3.66689 -1.123447,-7.86326 -1.123447,-12.58891 0,-10.43254 1.871848,-18.179616 5.616205,-23.240966 3.770153,-5.06132 9.193212,-7.59177 16.268752,-7.59177 z m -2.478907,26.765276 c -1.807634,0 -3.370077,0.32284 -4.687067,0.96843 -1.316964,0.61976 -2.414297,1.48478 -3.29229,2.59519 -0.903817,1.13622 -1.61417,2.54397 -2.13061,4.22248 -0.490644,1.65267 -0.735886,3.57624 -0.735886,5.77123 0,2.19495 0.245242,4.13199 0.735886,5.81049 0.51644,1.65269 1.226793,3.04699 2.13061,4.18322 0.877993,1.11037 1.975326,1.98834 3.29229,2.63392 1.31699,0.61976 2.866522,0.92967 4.648305,0.92967 3.434477,0 6.016678,-1.14909 7.746815,-3.44734 1.755987,-2.29825 2.633954,-5.6684 2.633954,-10.10996 0,-4.46741 -0.877967,-7.84998 -2.633954,-10.14823 -0.903817,-1.18787 -2.014088,-2.0529 -3.331051,-2.59519 -1.31699,-0.54229 -2.775982,-0.81391 -4.377002,-0.81391 z" />
  </g>
</svg>
