<?xml version="1.0" encoding="UTF-8" standalone="no"?>
<svg
   xmlns:dc="http://purl.org/dc/elements/1.1/"
   xmlns:cc="http://creativecommons.org/ns#"
   xmlns:rdf="http://www.w3.org/1999/02/22-rdf-syntax-ns#"
   xmlns:svg="http://www.w3.org/2000/svg"
   xmlns="http://www.w3.org/2000/svg"
   xmlns:sodipodi="http://sodipodi.sourceforge.net/DTD/sodipodi-0.dtd"
   xmlns:inkscape="http://www.inkscape.org/namespaces/inkscape"
   width="90.000214mm"
   height="89.99968mm"
   viewBox="0 0 90.000214 89.99968"
   version="1.1"
   id="svg229"
   inkscape:version="1.0.2 (e86c870879, 2021-01-15, custom)"
   sodipodi:docname="5.svg">
  <defs
     id="defs223" />
  <sodipodi:namedview
     id="base"
     pagecolor="#ffffff"
     bordercolor="#666666"
     borderopacity="1.0"
     inkscape:pageopacity="0.0"
     inkscape:pageshadow="2"
     inkscape:zoom="0.35"
     inkscape:cx="258.21916"
     inkscape:cy="307.22101"
     inkscape:document-units="mm"
     inkscape:current-layer="layer1"
     inkscape:document-rotation="0"
     showgrid="false"
     fit-margin-top="0"
     fit-margin-left="0"
     fit-margin-right="0"
     fit-margin-bottom="0"
     inkscape:window-width="679"
     inkscape:window-height="738"
     inkscape:window-x="683"
     inkscape:window-y="26"
     inkscape:window-maximized="0"
     showguides="true"
     inkscape:guide-bbox="true"
     inkscape:snap-bbox="true"
     inkscape:snap-bbox-midpoints="true"
     inkscape:snap-bbox-edge-midpoints="true">
    <sodipodi:guide
       position="45.000106,89.999677"
       orientation="1,0"
       id="guide509" />
    <sodipodi:guide
       position="-7.5199105e-15,44.999837"
       orientation="0,-1"
       id="guide511" />
  </sodipodi:namedview>
  <metadata
     id="metadata226">
    <rdf:RDF>
      <cc:Work
         rdf:about="">
        <dc:format>image/svg+xml</dc:format>
        <dc:type
           rdf:resource="http://purl.org/dc/dcmitype/StillImage" />
        <dc:title></dc:title>
      </cc:Work>
    </rdf:RDF>
  </metadata>
  <g
     inkscape:label="Layer 1"
     inkscape:groupmode="layer"
     id="layer1"
     transform="translate(-37.512846,-66.881107)">
    <path
       id="rect12-1-6-70"
       style="display:inline;fill:#000000;fill-opacity:1;stroke:none;stroke-width:0.171762"
       d="m 45.979773,66.880856 c -4.690533,0 -8.466667,3.776134 -8.466667,8.466667 v 73.066857 c 0,4.69053 3.776134,8.46666 8.466667,8.46666 h 73.066357 c 4.69053,0 8.46667,-3.77613 8.46667,-8.46666 V 75.347523 c 0,-4.690533 -3.77614,-8.466667 -8.46667,-8.466667 z m 20.803896,15.000129 h 29.802852 v 6.701388 H 74.036983 v 14.467837 c 1.130088,-0.42047 2.273379,-0.73593 3.429767,-0.94617 0.998696,-0.18397 2.154978,-0.27596 3.469032,-0.27596 3.180027,0 5.979027,0.48641 8.396922,1.45883 2.417868,0.9724 4.455001,2.28616 6.110737,3.94187 3.547957,3.57426 5.321619,8.42338 5.321619,14.54692 0,6.28121 -1.85264,11.20884 -5.558315,14.78307 -1.813401,1.73458 -4.033996,3.06184 -6.662129,3.98169 -2.601833,0.89355 -5.676794,1.34048 -9.224751,1.34048 -1.182661,0 -2.509916,-0.0525 -3.981661,-0.15761 -1.445472,-0.10515 -2.81223,-0.26313 -4.10001,-0.47337 -1.340353,-0.21024 -2.575639,-0.4727 -3.705728,-0.78806 -1.130088,-0.31538 -2.220886,-0.68331 -3.272155,-1.10381 v -8.08168 c 2.470441,1.31406 4.901512,2.28637 7.293108,2.91714 2.444141,0.65701 4.875212,0.98547 7.29308,0.98547 4.599226,0 8.055108,-1.15628 10.367857,-3.46903 2.365322,-2.33905 3.548089,-5.59795 3.548089,-9.77667 0,-2.28648 -0.328427,-4.24411 -0.985467,-5.87354 -0.657014,-1.62944 -1.550353,-2.98321 -2.680441,-4.06075 -1.103815,-1.05124 -2.523067,-1.89209 -4.257622,-2.52283 -1.734556,-0.63076 -3.797697,-0.9462 -6.189292,-0.9462 -2.049939,0 -4.073578,0.23646 -6.070944,0.70951 -2.049939,0.49934 -3.981582,1.2352 -5.79501,2.20763 z" />
  </g>
</svg>
