<?xml version="1.0" encoding="UTF-8" standalone="no"?>
<svg
   xmlns:dc="http://purl.org/dc/elements/1.1/"
   xmlns:cc="http://creativecommons.org/ns#"
   xmlns:rdf="http://www.w3.org/1999/02/22-rdf-syntax-ns#"
   xmlns:svg="http://www.w3.org/2000/svg"
   xmlns="http://www.w3.org/2000/svg"
   xmlns:sodipodi="http://sodipodi.sourceforge.net/DTD/sodipodi-0.dtd"
   xmlns:inkscape="http://www.inkscape.org/namespaces/inkscape"
   width="90.000214mm"
   height="89.99968mm"
   viewBox="0 0 90.000214 89.99968"
   version="1.1"
   id="svg229"
   inkscape:version="1.0.2 (e86c870879, 2021-01-15, custom)"
   sodipodi:docname="0.svg">
  <defs
     id="defs223" />
  <sodipodi:namedview
     id="base"
     pagecolor="#ffffff"
     bordercolor="#666666"
     borderopacity="1.0"
     inkscape:pageopacity="0.0"
     inkscape:pageshadow="2"
     inkscape:zoom="0.35"
     inkscape:cx="258.21916"
     inkscape:cy="307.22101"
     inkscape:document-units="mm"
     inkscape:current-layer="layer1"
     inkscape:document-rotation="0"
     showgrid="false"
     fit-margin-top="0"
     fit-margin-left="0"
     fit-margin-right="0"
     fit-margin-bottom="0"
     inkscape:window-width="679"
     inkscape:window-height="738"
     inkscape:window-x="683"
     inkscape:window-y="26"
     inkscape:window-maximized="0"
     showguides="true"
     inkscape:guide-bbox="true"
     inkscape:snap-bbox="true"
     inkscape:snap-bbox-midpoints="true"
     inkscape:snap-bbox-edge-midpoints="true">
    <sodipodi:guide
       position="45.000106,89.999677"
       orientation="1,0"
       id="guide509" />
    <sodipodi:guide
       position="-7.5199105e-15,44.999837"
       orientation="0,-1"
       id="guide511" />
  </sodipodi:namedview>
  <metadata
     id="metadata226">
    <rdf:RDF>
      <cc:Work
         rdf:about="">
        <dc:format>image/svg+xml</dc:format>
        <dc:type
           rdf:resource="http://purl.org/dc/dcmitype/StillImage" />
        <dc:title></dc:title>
      </cc:Work>
    </rdf:RDF>
  </metadata>
  <g
     inkscape:label="Layer 1"
     inkscape:groupmode="layer"
     id="layer1"
     transform="translate(-37.512846,-66.881107)">
    <path
       id="rect12-1-6-7"
       style="display:inline;fill:#000000;fill-opacity:1;stroke:none;stroke-width:0.171762"
       d="m 45.979511,66.880855 c -4.690507,0 -8.466667,3.776134 -8.466667,8.466667 v 73.066858 c 0,4.69053 3.77616,8.46666 8.466667,8.46666 h 73.066879 c 4.69054,0 8.46667,-3.77613 8.46667,-8.46666 V 75.347522 c 0,-4.690533 -3.77613,-8.466667 -8.46667,-8.466667 z m 36.514061,15.000129 c 6.197547,0 10.871464,2.530448 14.021884,7.591768 1.5494,2.47904 2.724335,5.57808 3.524864,9.29661 0.80049,3.692708 1.20094,8.069638 1.20094,13.130978 0,5.06132 -0.40045,9.43827 -1.20094,13.13098 -0.800529,3.69271 -1.975464,6.77828 -3.524864,9.25732 -3.176243,5.06132 -7.850161,7.5923 -14.021884,7.5923 -6.197547,0 -10.858527,-2.53098 -13.983124,-7.5923 -3.15042,-5.08717 -4.725802,-12.54969 -4.725802,-22.3883 0,-9.86446 1.575382,-17.340418 4.725802,-22.427588 3.124597,-5.06132 7.785577,-7.591768 13.983124,-7.591768 z m 0,6.197547 c -3.641064,0 -6.352593,1.962391 -8.134377,5.887511 -0.903816,1.93672 -1.587791,4.37716 -2.052584,7.320988 -0.438997,2.91801 -0.658363,6.45578 -0.658363,10.61331 0,8.08263 0.903314,14.04789 2.710947,17.89555 1.807607,3.92512 4.519136,5.88748 8.134377,5.88748 3.69271,0 6.430115,-1.96236 8.211899,-5.88748 1.78181,-3.8993 2.672715,-9.86457 2.672715,-17.89555 0,-8.05683 -0.890905,-14.022088 -2.672715,-17.895568 -1.781784,-3.95091 -4.519189,-5.926241 -8.211899,-5.926241 z m -0.07752,10.225721 c 0.723053,0 1.329928,0.49049 1.820571,1.47175 0.516467,0.981278 0.955702,2.376108 1.317228,4.183718 0.258234,1.29117 0.464661,2.73722 0.619601,4.33824 0.15494,1.60105 0.232543,2.84065 0.232543,3.71864 0,0.51647 -0.05173,1.5362 -0.15502,3.05977 -0.07747,1.52355 -0.24511,3.08602 -0.503343,4.68704 -0.645557,3.77018 -1.704631,5.65497 -3.176535,5.65497 -0.826346,0 -1.472009,-0.55515 -1.936829,-1.66555 -0.438997,-1.11038 -0.813064,-2.41417 -1.122944,-3.91189 -0.258234,-1.18788 -0.478103,-2.62099 -0.658866,-4.29948 -0.15494,-1.67852 -0.232039,-2.95693 -0.232039,-3.83493 0,-0.61973 0.05122,-1.73 0.154516,-3.33105 0.103294,-1.60104 0.310251,-3.11173 0.620131,-4.53202 0.748876,-3.69271 1.755669,-5.539208 3.020986,-5.539208 z" />
  </g>
</svg>
