<?xml version="1.0" encoding="UTF-8" standalone="no"?>
<svg
   xmlns:dc="http://purl.org/dc/elements/1.1/"
   xmlns:cc="http://creativecommons.org/ns#"
   xmlns:rdf="http://www.w3.org/1999/02/22-rdf-syntax-ns#"
   xmlns:svg="http://www.w3.org/2000/svg"
   xmlns="http://www.w3.org/2000/svg"
   xmlns:sodipodi="http://sodipodi.sourceforge.net/DTD/sodipodi-0.dtd"
   xmlns:inkscape="http://www.inkscape.org/namespaces/inkscape"
   width="90.000214mm"
   height="89.99968mm"
   viewBox="0 0 90.000214 89.99968"
   version="1.1"
   id="svg229"
   inkscape:version="1.0.2 (e86c870879, 2021-01-15, custom)"
   sodipodi:docname="2.svg">
  <defs
     id="defs223" />
  <sodipodi:namedview
     id="base"
     pagecolor="#ffffff"
     bordercolor="#666666"
     borderopacity="1.0"
     inkscape:pageopacity="0.0"
     inkscape:pageshadow="2"
     inkscape:zoom="0.35"
     inkscape:cx="258.21916"
     inkscape:cy="307.22101"
     inkscape:document-units="mm"
     inkscape:current-layer="layer1"
     inkscape:document-rotation="0"
     showgrid="false"
     fit-margin-top="0"
     fit-margin-left="0"
     fit-margin-right="0"
     fit-margin-bottom="0"
     inkscape:window-width="679"
     inkscape:window-height="738"
     inkscape:window-x="683"
     inkscape:window-y="26"
     inkscape:window-maximized="0"
     showguides="true"
     inkscape:guide-bbox="true"
     inkscape:snap-bbox="true"
     inkscape:snap-bbox-midpoints="true"
     inkscape:snap-bbox-edge-midpoints="true">
    <sodipodi:guide
       position="45.000106,89.999677"
       orientation="1,0"
       id="guide509" />
    <sodipodi:guide
       position="-7.5199105e-15,44.999837"
       orientation="0,-1"
       id="guide511" />
  </sodipodi:namedview>
  <metadata
     id="metadata226">
    <rdf:RDF>
      <cc:Work
         rdf:about="">
        <dc:format>image/svg+xml</dc:format>
        <dc:type
           rdf:resource="http://purl.org/dc/dcmitype/StillImage" />
        <dc:title></dc:title>
      </cc:Work>
    </rdf:RDF>
  </metadata>
  <g
     inkscape:label="Layer 1"
     inkscape:groupmode="layer"
     id="layer1"
     transform="translate(-37.512846,-66.881107)">
    <path
       id="rect12-1-6-04"
       style="display:inline;fill:#000000;fill-opacity:1;stroke:none;stroke-width:0.171762"
       d="m 45.979523,66.880854 c -4.690533,0 -8.466667,3.77614 -8.466667,8.46667 v 73.066856 c 0,4.69053 3.776134,8.46666 8.466667,8.46666 h 73.066857 c 4.69053,0 8.46667,-3.77613 8.46667,-8.46666 V 75.347524 c 0,-4.69053 -3.77614,-8.46667 -8.46667,-8.46667 z m 34.855732,15.00013 c 2.736849,0 5.302488,0.36798 7.697205,1.10485 2.394744,0.73684 4.487148,1.89473 6.276631,3.47369 1.578954,1.39472 2.842075,3.10565 3.789442,5.13199 0.947367,1.99998 1.421107,4.26291 1.421107,6.78923 0,2.578946 -0.578965,5.171016 -1.736861,7.776266 -0.578961,1.31579 -1.328949,2.60535 -2.24999,3.86849 -0.894742,1.23685 -2.052638,2.7104 -3.473688,4.42093 -0.763165,0.89474 -1.671241,1.93447 -2.723859,3.11867 -1.052645,1.18422 -2.276369,2.52611 -3.671094,4.02611 -1.000019,1.07894 -1.933998,2.05285 -2.802414,2.92126 -0.842116,0.86845 -1.737227,1.7765 -2.684594,2.72389 -0.947368,0.92104 -2.039435,2.01311 -3.276283,3.27628 -1.210548,1.23682 -2.69703,2.78916 -4.460213,4.65759 h 27.473276 v 6.71071 H 64.611454 v -5.2896 c 0,-0.9737 0.329116,-1.78951 0.987002,-2.4474 1.500002,-1.57895 3.276256,-3.44744 5.328894,-5.60535 2.052637,-2.18422 4.249737,-4.55235 6.591829,-7.10499 l 4.02664,-4.38164 c 0.921042,-1.00001 1.618166,-1.76347 2.091849,-2.28978 0.473684,-0.55263 0.960914,-1.1316 1.460897,-1.73686 1.394751,-1.6842 2.499783,-3.11835 3.315573,-4.30257 0.84209,-1.18422 1.526276,-2.35506 2.052585,-3.51295 0.921041,-2.05264 1.381813,-4.10515 1.381813,-6.157776 0,-3.26316 -0.960941,-5.81581 -2.881974,-7.65792 -1.947387,-1.86843 -4.618223,-2.80294 -8.012959,-2.80294 -4.710536,0 -9.999848,1.75032 -15.86828,5.25034 v -8.05275 c 2.684225,-1.28948 5.355061,-2.26338 8.012959,-2.92127 2.605247,-0.65789 5.184352,-0.9865 7.736973,-0.9865 z" />
  </g>
</svg>
