<?xml version="1.0" encoding="UTF-8" standalone="no"?>
<svg
   xmlns:dc="http://purl.org/dc/elements/1.1/"
   xmlns:cc="http://creativecommons.org/ns#"
   xmlns:rdf="http://www.w3.org/1999/02/22-rdf-syntax-ns#"
   xmlns:svg="http://www.w3.org/2000/svg"
   xmlns="http://www.w3.org/2000/svg"
   xmlns:sodipodi="http://sodipodi.sourceforge.net/DTD/sodipodi-0.dtd"
   xmlns:inkscape="http://www.inkscape.org/namespaces/inkscape"
   width="90.000214mm"
   height="89.99968mm"
   viewBox="0 0 90.000214 89.99968"
   version="1.1"
   id="svg229"
   inkscape:version="1.0.2 (e86c870879, 2021-01-15, custom)"
   sodipodi:docname="9.svg">
  <defs
     id="defs223" />
  <sodipodi:namedview
     id="base"
     pagecolor="#ffffff"
     bordercolor="#666666"
     borderopacity="1.0"
     inkscape:pageopacity="0.0"
     inkscape:pageshadow="2"
     inkscape:zoom="0.35"
     inkscape:cx="258.21916"
     inkscape:cy="307.22101"
     inkscape:document-units="mm"
     inkscape:current-layer="layer1"
     inkscape:document-rotation="0"
     showgrid="false"
     fit-margin-top="0"
     fit-margin-left="0"
     fit-margin-right="0"
     fit-margin-bottom="0"
     inkscape:window-width="679"
     inkscape:window-height="738"
     inkscape:window-x="683"
     inkscape:window-y="26"
     inkscape:window-maximized="0"
     showguides="true"
     inkscape:guide-bbox="true"
     inkscape:snap-bbox="true"
     inkscape:snap-bbox-midpoints="true"
     inkscape:snap-bbox-edge-midpoints="true">
    <sodipodi:guide
       position="45.000106,89.999677"
       orientation="1,0"
       id="guide509" />
    <sodipodi:guide
       position="-7.5199105e-15,44.999837"
       orientation="0,-1"
       id="guide511" />
  </sodipodi:namedview>
  <metadata
     id="metadata226">
    <rdf:RDF>
      <cc:Work
         rdf:about="">
        <dc:format>image/svg+xml</dc:format>
        <dc:type
           rdf:resource="http://purl.org/dc/dcmitype/StillImage" />
        <dc:title></dc:title>
      </cc:Work>
    </rdf:RDF>
  </metadata>
  <g
     inkscape:label="Layer 1"
     inkscape:groupmode="layer"
     id="layer1"
     transform="translate(-37.512846,-66.881107)">
    <path
       id="rect12-1-6-79"
       style="display:inline;fill:#000000;fill-opacity:1;stroke:none;stroke-width:0.171762"
       d="m 45.979525,66.880854 c -4.690533,0 -8.466667,3.77614 -8.466667,8.46667 v 73.066856 c 0,4.69053 3.776134,8.46666 8.466667,8.46666 h 73.066855 c 4.69053,0 8.46667,-3.77613 8.46667,-8.46666 V 75.347524 c 0,-4.69053 -3.77614,-8.46667 -8.46667,-8.46667 z m 35.894433,15.00013 c 3.537771,0 6.481604,0.63273 8.831501,1.89807 2.349923,1.23952 4.286435,3.03374 5.809985,5.38366 1.652694,2.58231 2.853505,5.72013 3.602386,9.41284 0.74885,3.692716 1.12344,7.863236 1.12344,12.511376 0,5.113 -0.4522,9.5934 -1.355987,13.44105 -0.877993,3.84765 -2.285232,7.07551 -4.221982,9.68364 -3.796004,5.113 -9.24441,7.66932 -16.345773,7.66932 -0.955437,0 -1.936909,-0.0517 -2.943992,-0.15505 -0.981287,-0.0775 -1.923945,-0.21923 -2.827735,-0.42579 -1.70434,-0.36153 -3.550814,-0.94255 -5.539211,-1.74305 v -7.20473 c 1.62687,0.95546 3.356954,1.67822 5.190385,2.16886 1.910926,0.51644 3.809153,0.77463 5.69423,0.77463 4.983876,0 8.753924,-1.87185 11.310408,-5.61621 2.530686,-3.77018 3.796162,-9.2579 3.796162,-16.46256 -0.593937,1.31699 -1.342575,2.47899 -2.246365,3.4861 -0.903817,1.00711 -1.859386,1.83385 -2.866496,2.47943 -2.143337,1.36864 -4.803114,2.05259 -7.979357,2.05259 -5.267934,0 -9.438428,-1.71715 -12.511378,-5.15162 -3.072951,-3.4603 -4.609545,-8.27649 -4.609545,-14.44821 0,-3.047126 0.374571,-5.809876 1.123448,-8.288886 0.7747,-2.50487 1.975511,-4.63537 3.602354,-6.39136 3.072951,-3.38283 7.527502,-5.0741 13.363522,-5.0741 z m -0.03874,6.12003 c -1.601046,0 -3.060038,0.27111 -4.377002,0.8134 -1.31699,0.54227 -2.427763,1.40732 -3.33158,2.59517 -1.755987,2.29828 -2.633954,5.68082 -2.633954,10.148226 0,4.46741 0.877967,7.85047 2.633954,10.14872 1.704313,2.27246 4.274079,3.40861 7.708582,3.40861 1.807607,0 3.369548,-0.30991 4.686512,-0.92967 1.31699,-0.64558 2.414852,-1.52355 3.292845,-2.63395 1.885077,-2.37572 2.827735,-5.70707 2.827735,-9.99371 0,-4.286646 -0.942658,-7.617456 -2.827735,-9.993176 -0.877993,-1.11041 -1.975855,-1.97544 -3.292845,-2.5952 -1.316964,-0.64558 -2.878905,-0.96842 -4.686512,-0.96842 z" />
  </g>
</svg>
