<?xml version="1.0" encoding="UTF-8" standalone="no"?>
<svg
   xmlns:dc="http://purl.org/dc/elements/1.1/"
   xmlns:cc="http://creativecommons.org/ns#"
   xmlns:rdf="http://www.w3.org/1999/02/22-rdf-syntax-ns#"
   xmlns:svg="http://www.w3.org/2000/svg"
   xmlns="http://www.w3.org/2000/svg"
   xmlns:sodipodi="http://sodipodi.sourceforge.net/DTD/sodipodi-0.dtd"
   xmlns:inkscape="http://www.inkscape.org/namespaces/inkscape"
   width="1000"
   height="1000"
   viewBox="0 0 264.58333 264.58334"
   version="1.1"
   id="svg221"
   inkscape:version="1.0.2 (e86c870879, 2021-01-15, custom)"
   sodipodi:docname="3.svg">
  <defs
     id="defs215" />
  <sodipodi:namedview
     id="base"
     pagecolor="#ffffff"
     bordercolor="#666666"
     borderopacity="1.0"
     inkscape:pageopacity="0.0"
     inkscape:pageshadow="2"
     inkscape:zoom="0.35"
     inkscape:cx="654.01758"
     inkscape:cy="567.46867"
     inkscape:document-units="mm"
     inkscape:current-layer="layer1"
     inkscape:document-rotation="0"
     showgrid="false"
     units="px"
     showguides="true"
     inkscape:guide-bbox="true"
     inkscape:window-width="610"
     inkscape:window-height="738"
     inkscape:window-x="751"
     inkscape:window-y="26"
     inkscape:window-maximized="0"
     inkscape:snap-bbox="true"
     inkscape:snap-bbox-midpoints="true"
     inkscape:snap-global="true"
     inkscape:snap-nodes="true"
     inkscape:object-nodes="false"
     inkscape:snap-intersection-paths="false"
     inkscape:snap-smooth-nodes="true">
    <sodipodi:guide
       position="-5.0862631e-06,52.916663"
       orientation="0,-1"
       id="guide1048" />
    <sodipodi:guide
       position="-5.0862631e-06,211.66667"
       orientation="0,-1"
       id="guide144" />
    <sodipodi:guide
       position="211.66667,269.38659"
       orientation="1,0"
       id="guide146" />
    <sodipodi:guide
       position="52.916667,269.38659"
       orientation="1,0"
       id="guide148" />
    <sodipodi:guide
       position="132.29166,132.29167"
       orientation="1,0"
       id="guide161" />
    <sodipodi:guide
       position="132.29166,132.29167"
       orientation="0,-1"
       id="guide163" />
  </sodipodi:namedview>
  <metadata
     id="metadata218">
    <rdf:RDF>
      <cc:Work
         rdf:about="">
        <dc:format>image/svg+xml</dc:format>
        <dc:type
           rdf:resource="http://purl.org/dc/dcmitype/StillImage" />
        <dc:title></dc:title>
      </cc:Work>
    </rdf:RDF>
  </metadata>
  <g
     inkscape:label="Layer 1"
     inkscape:groupmode="layer"
     id="layer1">
    <path
       id="rect12-1-6-67-2-3-8-2-6"
       style="display:inline;fill:#000000;fill-opacity:0.974904;stroke:none;stroke-width:0.302968"
       d="m 67.850941,52.916665 c -8.273503,0 -14.934285,6.660605 -14.934285,14.934108 V 196.73237 c 0,8.27351 6.660782,14.93429 14.934285,14.93429 H 196.73255 c 8.27351,0 14.93411,-6.66078 14.93411,-14.93429 V 67.850773 c 0,-8.273503 -6.6606,-14.934108 -14.93411,-14.934108 z M 132.29219,79.37511 c 7.41343,0 13.20709,0.852485 17.38256,2.556751 4.26048,1.704266 7.28555,4.516251 9.07501,8.436133 1.87465,3.919705 2.81198,9.287558 2.81198,16.104626 0,6.39073 -0.80927,11.20578 -2.42815,14.44374 -1.61907,3.23814 -4.60164,6.04925 -8.94749,8.43508 4.26066,2.47121 7.20071,5.62432 8.81978,9.45883 1.70426,3.83452 2.55586,9.62922 2.55586,17.38344 0,7.32824 -0.93733,13.07957 -2.81198,17.25503 -1.78946,4.17529 -4.81453,7.20036 -9.07501,9.07501 -4.17547,1.78947 -9.96913,2.68446 -17.38256,2.68446 -7.58382,0 -13.46426,-0.85178 -17.63956,-2.55604 -4.17546,-1.70409 -7.15801,-4.47374 -8.94748,-8.30843 -1.78946,-3.83452 -2.6834,-9.16003 -2.6834,-15.97692 h 8.94731 c 0,4.94223 0.55404,8.73405 1.66176,11.37565 1.19291,2.64159 3.23725,4.51625 6.13444,5.62414 2.89718,1.10772 7.07335,1.66159 12.52693,1.66159 5.28319,0 9.37258,-0.63959 12.26976,-1.91788 2.89736,-1.27811 4.94258,-3.36567 6.1355,-6.26303 1.27811,-2.98238 1.91681,-7.2 1.91681,-12.65358 0,-5.79436 -0.55298,-10.22576 -1.6607,-13.29352 -1.02252,-3.15276 -2.81251,-5.4109 -5.36874,-6.7742 -2.47119,-1.44868 -6.05012,-2.34279 -10.73676,-2.68357 h -10.22542 v -8.1809 h 10.22542 c 4.68664,-0.34078 8.26557,-1.06521 10.73676,-2.17293 2.55623,-1.19309 4.34622,-3.06775 5.36874,-5.62415 1.10772,-2.55622 1.6607,-6.21999 1.6607,-10.99182 0,-4.94241 -0.6387,-8.734233 -1.91681,-11.375651 -1.19292,-2.726966 -3.23814,-4.643956 -6.1355,-5.751676 -2.89718,-1.193092 -6.98657,-1.789284 -12.26976,-1.789284 -5.53877,0 -9.75728,0.510468 -12.65447,1.533168 -2.81215,1.022524 -4.81399,2.770005 -6.0069,5.241031 -1.10772,2.386007 -1.66176,5.879202 -1.66176,10.480652 h -8.94731 c 0,-6.561299 0.89394,-11.63141 2.6834,-15.210333 1.78947,-3.664119 4.77202,-6.263379 8.94748,-7.797077 4.1753,-1.61907 10.05574,-2.42834 17.63956,-2.42834 z" />
  </g>
</svg>
