<?xml version="1.0" encoding="UTF-8" standalone="no"?>
<svg
   xmlns:dc="http://purl.org/dc/elements/1.1/"
   xmlns:cc="http://creativecommons.org/ns#"
   xmlns:rdf="http://www.w3.org/1999/02/22-rdf-syntax-ns#"
   xmlns:svg="http://www.w3.org/2000/svg"
   xmlns="http://www.w3.org/2000/svg"
   xmlns:sodipodi="http://sodipodi.sourceforge.net/DTD/sodipodi-0.dtd"
   xmlns:inkscape="http://www.inkscape.org/namespaces/inkscape"
   width="1000"
   height="1000"
   viewBox="0 0 264.58333 264.58334"
   version="1.1"
   id="svg221"
   inkscape:version="1.0.2 (e86c870879, 2021-01-15, custom)"
   sodipodi:docname="6.svg">
  <defs
     id="defs215" />
  <sodipodi:namedview
     id="base"
     pagecolor="#ffffff"
     bordercolor="#666666"
     borderopacity="1.0"
     inkscape:pageopacity="0.0"
     inkscape:pageshadow="2"
     inkscape:zoom="0.35"
     inkscape:cx="654.01758"
     inkscape:cy="567.46867"
     inkscape:document-units="mm"
     inkscape:current-layer="layer1"
     inkscape:document-rotation="0"
     showgrid="false"
     units="px"
     showguides="true"
     inkscape:guide-bbox="true"
     inkscape:window-width="610"
     inkscape:window-height="738"
     inkscape:window-x="751"
     inkscape:window-y="26"
     inkscape:window-maximized="0"
     inkscape:snap-bbox="true"
     inkscape:snap-bbox-midpoints="true"
     inkscape:snap-global="true"
     inkscape:snap-nodes="true"
     inkscape:object-nodes="false"
     inkscape:snap-intersection-paths="false"
     inkscape:snap-smooth-nodes="true">
    <sodipodi:guide
       position="-5.0862631e-06,52.916663"
       orientation="0,-1"
       id="guide1048" />
    <sodipodi:guide
       position="-5.0862631e-06,211.66667"
       orientation="0,-1"
       id="guide144" />
    <sodipodi:guide
       position="211.66667,269.38659"
       orientation="1,0"
       id="guide146" />
    <sodipodi:guide
       position="52.916667,269.38659"
       orientation="1,0"
       id="guide148" />
    <sodipodi:guide
       position="132.29166,132.29167"
       orientation="1,0"
       id="guide161" />
    <sodipodi:guide
       position="132.29166,132.29167"
       orientation="0,-1"
       id="guide163" />
  </sodipodi:namedview>
  <metadata
     id="metadata218">
    <rdf:RDF>
      <cc:Work
         rdf:about="">
        <dc:format>image/svg+xml</dc:format>
        <dc:type
           rdf:resource="http://purl.org/dc/dcmitype/StillImage" />
        <dc:title></dc:title>
      </cc:Work>
    </rdf:RDF>
  </metadata>
  <g
     inkscape:label="Layer 1"
     inkscape:groupmode="layer"
     id="layer1">
    <path
       id="rect12-1-6-67-3-7-6-7-4-7-2"
       style="display:inline;fill:#000000;fill-opacity:0.974904;stroke:none;stroke-width:0.302968"
       d="m 67.851207,52.916665 c -8.273502,0 -14.934108,6.660606 -14.934108,14.934108 V 196.73237 c 0,8.27351 6.660606,14.93429 14.934108,14.93429 H 196.73194 c 8.2735,0 14.93428,-6.66078 14.93428,-14.93429 V 67.850773 c 0,-8.273502 -6.66078,-14.934108 -14.93428,-14.934108 z m 64.440363,26.458444 c 7.83941,0 13.88954,0.852485 18.15003,2.556751 4.34586,1.704266 7.41325,4.516251 9.20271,8.436133 1.87466,3.919705 2.81199,9.372403 2.81199,16.359857 h -8.94643 c 0,-5.1128 -0.59742,-8.989464 -1.79034,-11.630881 -1.19291,-2.726967 -3.32298,-4.643957 -6.39055,-5.751677 -2.98238,-1.193091 -7.32824,-1.789285 -13.03741,-1.789285 -5.53877,0 -9.84212,0.851604 -12.9097,2.55587 -2.98237,1.618893 -5.11244,4.346212 -6.39055,8.180722 -1.27829,3.834511 -1.91699,9.287211 -1.91699,16.359861 v 12.90987 c 2.38583,-3.06775 5.1546,-5.19782 8.30754,-6.39073 3.15277,-1.19292 7.45612,-1.78929 12.9097,-1.78929 7.75439,0 13.76183,1.02217 18.0225,3.06722 4.34568,1.95986 7.45559,5.32588 9.33024,10.09772 1.87466,4.68664 2.81199,11.29062 2.81199,19.81178 0,8.35076 -0.93733,14.8699 -2.81199,19.55654 -1.87465,4.68664 -4.98456,8.095 -9.33024,10.22524 -4.34586,2.04523 -10.35348,3.0674 -18.0225,3.0674 -7.66902,0 -13.67663,-1.02217 -18.02249,-3.0674 -4.34569,-2.04505 -7.45559,-5.41107 -9.33025,-10.09771 -1.87448,-4.68664 -2.81198,-11.20579 -2.81198,-19.55655 v -37.83409 c 0,-8.94731 0.9375,-15.934588 2.81198,-20.962013 1.87466,-5.112797 4.98456,-8.776387 9.33025,-10.992002 4.34586,-2.21544 10.35347,-3.323336 18.02249,-3.323336 z m 0,48.187221 c -5.62397,0 -9.92732,0.72425 -12.9097,2.17293 -2.98237,1.44868 -5.11244,3.96204 -6.39055,7.54096 -1.27829,3.49373 -1.91699,8.56384 -1.91699,15.21033 0,6.39109 0.6387,11.33402 1.91699,14.82775 1.27811,3.49355 3.40818,6.00709 6.39055,7.54079 3.06758,1.44867 7.37093,2.1731 12.9097,2.1731 5.53878,0 9.79979,-0.72443 12.78217,-2.1731 3.06757,-1.5337 5.23997,-4.04724 6.51826,-7.54079 1.27811,-3.57892 1.91787,-8.56437 1.91787,-14.95527 0,-6.6465 -0.63976,-11.71679 -1.91787,-15.21034 -1.27829,-3.49372 -3.40818,-5.96475 -6.39073,-7.41343 -2.98238,-1.44868 -7.28573,-2.17293 -12.9097,-2.17293 z" />
  </g>
</svg>
