<?xml version="1.0" encoding="UTF-8" standalone="no"?>
<svg
   xmlns:dc="http://purl.org/dc/elements/1.1/"
   xmlns:cc="http://creativecommons.org/ns#"
   xmlns:rdf="http://www.w3.org/1999/02/22-rdf-syntax-ns#"
   xmlns:svg="http://www.w3.org/2000/svg"
   xmlns="http://www.w3.org/2000/svg"
   xmlns:sodipodi="http://sodipodi.sourceforge.net/DTD/sodipodi-0.dtd"
   xmlns:inkscape="http://www.inkscape.org/namespaces/inkscape"
   width="1000"
   height="1000"
   viewBox="0 0 264.58333 264.58334"
   version="1.1"
   id="svg221"
   inkscape:version="1.0.2 (e86c870879, 2021-01-15, custom)"
   sodipodi:docname="5.svg">
  <defs
     id="defs215" />
  <sodipodi:namedview
     id="base"
     pagecolor="#ffffff"
     bordercolor="#666666"
     borderopacity="1.0"
     inkscape:pageopacity="0.0"
     inkscape:pageshadow="2"
     inkscape:zoom="0.35"
     inkscape:cx="654.01758"
     inkscape:cy="567.46867"
     inkscape:document-units="mm"
     inkscape:current-layer="layer1"
     inkscape:document-rotation="0"
     showgrid="false"
     units="px"
     showguides="true"
     inkscape:guide-bbox="true"
     inkscape:window-width="610"
     inkscape:window-height="738"
     inkscape:window-x="751"
     inkscape:window-y="26"
     inkscape:window-maximized="0"
     inkscape:snap-bbox="true"
     inkscape:snap-bbox-midpoints="true"
     inkscape:snap-global="true"
     inkscape:snap-nodes="true"
     inkscape:object-nodes="false"
     inkscape:snap-intersection-paths="false"
     inkscape:snap-smooth-nodes="true">
    <sodipodi:guide
       position="-5.0862631e-06,52.916663"
       orientation="0,-1"
       id="guide1048" />
    <sodipodi:guide
       position="-5.0862631e-06,211.66667"
       orientation="0,-1"
       id="guide144" />
    <sodipodi:guide
       position="211.66667,269.38659"
       orientation="1,0"
       id="guide146" />
    <sodipodi:guide
       position="52.916667,269.38659"
       orientation="1,0"
       id="guide148" />
    <sodipodi:guide
       position="132.29166,132.29167"
       orientation="1,0"
       id="guide161" />
    <sodipodi:guide
       position="132.29166,132.29167"
       orientation="0,-1"
       id="guide163" />
  </sodipodi:namedview>
  <metadata
     id="metadata218">
    <rdf:RDF>
      <cc:Work
         rdf:about="">
        <dc:format>image/svg+xml</dc:format>
        <dc:type
           rdf:resource="http://purl.org/dc/dcmitype/StillImage" />
        <dc:title></dc:title>
      </cc:Work>
    </rdf:RDF>
  </metadata>
  <g
     inkscape:label="Layer 1"
     inkscape:groupmode="layer"
     id="layer1">
    <path
       id="rect12-1-6-67-3-7-1-0-7-0"
       style="display:inline;fill:#000000;fill-opacity:0.974904;stroke:none;stroke-width:0.302968"
       d="m 67.851384,52.916665 c -8.273503,0 -14.934285,6.660606 -14.934285,14.934108 V 196.73237 c 0,8.27351 6.660782,14.93429 14.934285,14.93429 H 196.73194 c 8.27367,0 14.93428,-6.66078 14.93428,-14.93429 V 67.850773 c 0,-8.273502 -6.66061,-14.934108 -14.93428,-14.934108 z m 35.577206,26.458444 h 57.0772 v 8.190776 h -47.97661 v 36.534465 c 2.68693,-2.42693 5.41724,-4.07369 8.19078,-4.94046 2.86049,-0.95338 6.45758,-1.43016 10.79145,-1.43016 8.23434,0 14.64906,1.04087 19.24292,3.12102 4.68065,2.08032 8.01757,5.54742 10.01128,10.40127 1.99355,4.76726 2.99067,11.5277 2.99067,20.28204 0,8.58112 -0.99712,15.2987 -2.99067,20.15273 -1.99371,4.76726 -5.33063,8.23435 -10.01128,10.40128 -4.59386,2.08015 -11.00858,3.12014 -19.24292,3.12014 -7.97435,0 -14.17159,-0.82338 -18.59206,-2.47032 -4.33386,-1.64677 -7.45435,-4.29065 -9.36129,-7.93096 -1.82015,-3.72726 -2.72996,-8.92737 -2.72996,-15.60156 h 9.10147 c 0,4.68064 0.60589,8.27773 1.81944,10.79145 1.21338,2.51371 3.33763,4.29047 6.37133,5.33046 3.12049,1.04016 7.58365,1.55962 13.39107,1.55962 6.06741,0 10.74823,-0.77963 14.04193,-2.33979 3.2937,-1.56016 5.63456,-4.11761 7.02132,-7.67131 1.38677,-3.64048 2.08015,-8.75416 2.08015,-15.34174 0,-6.7608 -0.69338,-11.91822 -2.08015,-15.47192 -1.38676,-3.64048 -3.72762,-6.19688 -7.02132,-7.67043 -3.2937,-1.56016 -7.97452,-2.34068 -14.04193,-2.34068 -3.38049,0 -6.5008,0.60678 -9.36112,1.82016 -2.77371,1.12677 -6.2408,3.20744 -10.40128,6.24115 h -8.32042 z" />
  </g>
</svg>
