<?xml version="1.0" encoding="UTF-8" standalone="no"?>
<svg
   xmlns:dc="http://purl.org/dc/elements/1.1/"
   xmlns:cc="http://creativecommons.org/ns#"
   xmlns:rdf="http://www.w3.org/1999/02/22-rdf-syntax-ns#"
   xmlns:svg="http://www.w3.org/2000/svg"
   xmlns="http://www.w3.org/2000/svg"
   xmlns:sodipodi="http://sodipodi.sourceforge.net/DTD/sodipodi-0.dtd"
   xmlns:inkscape="http://www.inkscape.org/namespaces/inkscape"
   width="1000"
   height="1000"
   viewBox="0 0 264.58333 264.58334"
   version="1.1"
   id="svg221"
   inkscape:version="1.0.2 (e86c870879, 2021-01-15, custom)"
   sodipodi:docname="8.svg">
  <defs
     id="defs215" />
  <sodipodi:namedview
     id="base"
     pagecolor="#ffffff"
     bordercolor="#666666"
     borderopacity="1.0"
     inkscape:pageopacity="0.0"
     inkscape:pageshadow="2"
     inkscape:zoom="0.35"
     inkscape:cx="654.01758"
     inkscape:cy="567.46867"
     inkscape:document-units="mm"
     inkscape:current-layer="layer1"
     inkscape:document-rotation="0"
     showgrid="false"
     units="px"
     showguides="true"
     inkscape:guide-bbox="true"
     inkscape:window-width="610"
     inkscape:window-height="738"
     inkscape:window-x="751"
     inkscape:window-y="26"
     inkscape:window-maximized="0"
     inkscape:snap-bbox="true"
     inkscape:snap-bbox-midpoints="true"
     inkscape:snap-global="true"
     inkscape:snap-nodes="true"
     inkscape:object-nodes="false"
     inkscape:snap-intersection-paths="false"
     inkscape:snap-smooth-nodes="true">
    <sodipodi:guide
       position="-5.0862631e-06,52.916663"
       orientation="0,-1"
       id="guide1048" />
    <sodipodi:guide
       position="-5.0862631e-06,211.66667"
       orientation="0,-1"
       id="guide144" />
    <sodipodi:guide
       position="211.66667,269.38659"
       orientation="1,0"
       id="guide146" />
    <sodipodi:guide
       position="52.916667,269.38659"
       orientation="1,0"
       id="guide148" />
    <sodipodi:guide
       position="132.29166,132.29167"
       orientation="1,0"
       id="guide161" />
    <sodipodi:guide
       position="132.29166,132.29167"
       orientation="0,-1"
       id="guide163" />
  </sodipodi:namedview>
  <metadata
     id="metadata218">
    <rdf:RDF>
      <cc:Work
         rdf:about="">
        <dc:format>image/svg+xml</dc:format>
        <dc:type
           rdf:resource="http://purl.org/dc/dcmitype/StillImage" />
        <dc:title></dc:title>
      </cc:Work>
    </rdf:RDF>
  </metadata>
  <g
     inkscape:label="Layer 1"
     inkscape:groupmode="layer"
     id="layer1">
    <path
       id="rect12-1-6-67-3-7-3-5-8-4-5"
       style="display:inline;fill:#000000;fill-opacity:0.974904;stroke:none;stroke-width:0.302968"
       d="m 67.851364,52.916665 c -8.273574,0 -14.934233,6.660606 -14.934233,14.934109 V 196.73238 c 0,8.2735 6.660659,14.93428 14.934233,14.93428 H 196.73196 c 8.27357,0 14.93423,-6.66078 14.93423,-14.93428 V 67.850774 c 0,-8.273503 -6.66066,-14.934109 -14.93423,-14.934109 z m 64.440296,26.458441 c 7.15779,0 12.73955,0.852486 16.74449,2.556752 4.09015,1.704265 7.02944,4.516251 8.8189,8.436133 1.78944,3.834509 2.68437,9.160031 2.68437,15.976919 0,6.39091 -0.7244,11.2049 -2.17302,14.44287 -1.44863,3.15294 -4.09015,5.88026 -7.92472,8.18089 3.32329,1.61907 5.92246,3.49373 7.79712,5.62398 1.87462,2.13042 3.19542,4.85668 3.96234,8.18001 0.85213,3.23797 1.27795,7.41326 1.27795,12.52606 0,7.58382 -0.97979,13.54893 -2.93967,17.89479 -1.95984,4.26048 -5.19777,7.32788 -9.71397,9.20254 -4.43103,1.87465 -10.60908,2.81216 -18.53379,2.81216 -7.92471,0 -14.14519,-0.93751 -18.66139,-2.81216 -4.43104,-1.87466 -7.62653,-4.94206 -9.58638,-9.20254 -1.95987,-4.34586 -2.93966,-10.31097 -2.93966,-17.89479 0,-5.1128 0.38344,-9.28809 1.15036,-12.52606 0.85209,-3.32333 2.21531,-6.04959 4.08992,-8.18001 1.87467,-2.13025 4.47383,-4.00491 7.79711,-5.62398 -3.83455,-2.30063 -6.47609,-5.02795 -7.9247,-8.18089 -1.44862,-3.23797 -2.17303,-8.05196 -2.17303,-14.44287 0,-6.816888 0.89494,-12.14241 2.68438,-15.976919 1.78945,-3.919882 4.68631,-6.731868 8.6913,-8.436133 4.09017,-1.704266 9.7143,-2.556752 16.87209,-2.556752 z m 0,8.180899 c -5.02751,0 -8.94743,0.596193 -11.75945,1.789285 -2.72676,1.10772 -4.68626,3.02471 -5.87922,5.751676 -1.10776,2.641418 -1.66172,6.390904 -1.66172,11.247944 0,5.0276 0.55396,8.90409 1.66172,11.63088 1.19296,2.64159 3.15246,4.51643 5.87922,5.62415 2.72681,1.10772 6.64672,1.66158 11.75945,1.66158 5.11273,0 9.03264,-0.55386 11.75943,-1.66158 2.72678,-1.10772 4.64391,-2.98256 5.75165,-5.62415 1.19296,-2.72679 1.7893,-6.60328 1.7893,-11.63088 0,-4.85704 -0.59634,-8.606526 -1.7893,-11.247944 C 148.695,92.37 146.73548,90.45301 143.92346,89.34529 c -2.72676,-1.193092 -6.60429,-1.789285 -11.6318,-1.789285 z m 0,45.886415 c -5.87961,0 -10.3959,0.6387 -13.5487,1.91699 -3.15286,1.27811 -5.411,3.45139 -6.7744,6.51896 -1.27819,3.06775 -1.9169,7.54061 -1.9169,13.42035 0,5.62397 0.63871,10.01304 1.9169,13.16581 1.3634,3.06757 3.62154,5.28248 6.7744,6.64579 3.23802,1.27829 7.75432,1.91787 13.5487,1.91787 5.79438,0 10.26826,-0.63958 13.4211,-1.91787 3.23807,-1.36331 5.49618,-3.57822 6.77436,-6.64579 1.3634,-3.15277 2.04454,-7.54184 2.04454,-13.16581 0,-5.87974 -0.68114,-10.3526 -2.04454,-13.42035 -1.27818,-3.06757 -3.4939,-5.24085 -6.64676,-6.51896 -3.1528,-1.27829 -7.66909,-1.91699 -13.5487,-1.91699 z" />
  </g>
</svg>
