<?xml version="1.0" encoding="UTF-8" standalone="no"?>
<svg
   xmlns:dc="http://purl.org/dc/elements/1.1/"
   xmlns:cc="http://creativecommons.org/ns#"
   xmlns:rdf="http://www.w3.org/1999/02/22-rdf-syntax-ns#"
   xmlns:svg="http://www.w3.org/2000/svg"
   xmlns="http://www.w3.org/2000/svg"
   xmlns:sodipodi="http://sodipodi.sourceforge.net/DTD/sodipodi-0.dtd"
   xmlns:inkscape="http://www.inkscape.org/namespaces/inkscape"
   width="1000"
   height="1000"
   viewBox="0 0 264.58333 264.58334"
   version="1.1"
   id="svg221"
   inkscape:version="1.0.2 (e86c870879, 2021-01-15, custom)"
   sodipodi:docname="2.svg">
  <defs
     id="defs215" />
  <sodipodi:namedview
     id="base"
     pagecolor="#ffffff"
     bordercolor="#666666"
     borderopacity="1.0"
     inkscape:pageopacity="0.0"
     inkscape:pageshadow="2"
     inkscape:zoom="0.35"
     inkscape:cx="654.01758"
     inkscape:cy="567.46867"
     inkscape:document-units="mm"
     inkscape:current-layer="layer1"
     inkscape:document-rotation="0"
     showgrid="false"
     units="px"
     showguides="true"
     inkscape:guide-bbox="true"
     inkscape:window-width="610"
     inkscape:window-height="738"
     inkscape:window-x="751"
     inkscape:window-y="26"
     inkscape:window-maximized="0"
     inkscape:snap-bbox="true"
     inkscape:snap-bbox-midpoints="true"
     inkscape:snap-global="true"
     inkscape:snap-nodes="true"
     inkscape:object-nodes="false"
     inkscape:snap-intersection-paths="false"
     inkscape:snap-smooth-nodes="true">
    <sodipodi:guide
       position="-5.0862631e-06,52.916663"
       orientation="0,-1"
       id="guide1048" />
    <sodipodi:guide
       position="-5.0862631e-06,211.66667"
       orientation="0,-1"
       id="guide144" />
    <sodipodi:guide
       position="211.66667,269.38659"
       orientation="1,0"
       id="guide146" />
    <sodipodi:guide
       position="52.916667,269.38659"
       orientation="1,0"
       id="guide148" />
    <sodipodi:guide
       position="132.29166,132.29167"
       orientation="1,0"
       id="guide161" />
    <sodipodi:guide
       position="132.29166,132.29167"
       orientation="0,-1"
       id="guide163" />
  </sodipodi:namedview>
  <metadata
     id="metadata218">
    <rdf:RDF>
      <cc:Work
         rdf:about="">
        <dc:format>image/svg+xml</dc:format>
        <dc:type
           rdf:resource="http://purl.org/dc/dcmitype/StillImage" />
        <dc:title></dc:title>
      </cc:Work>
    </rdf:RDF>
  </metadata>
  <g
     inkscape:label="Layer 1"
     inkscape:groupmode="layer"
     id="layer1">
    <path
       id="rect12-1-6-67-9-3-3-6-72"
       style="display:inline;fill:#000000;fill-opacity:0.974904;stroke:none;stroke-width:0.302968"
       d="m 67.850937,52.91666 c -8.27368,0 -14.934287,6.660607 -14.934287,14.93411 v 128.88161 c 0,8.2735 6.660607,14.93429 14.934287,14.93429 H 196.73238 c 8.27368,0 14.93429,-6.66079 14.93429,-14.93429 V 67.85077 c 0,-8.273503 -6.66061,-14.93411 -14.93429,-14.93411 z m 64.313543,26.458443 c 7.97435,0 14.21533,0.823382 18.72241,2.470145 4.50726,1.646939 7.71418,4.420825 9.62111,8.321304 1.99355,3.813697 2.99067,9.101295 2.99067,15.862088 0,6.84758 -1.56016,13.08838 -4.68065,18.72241 -3.0337,5.54742 -6.76097,10.35736 -11.18162,14.43123 -4.33386,4.07369 -9.88058,8.71165 -16.64137,13.91229 -4.85386,3.72726 -8.53844,6.71758 -11.05215,8.97112 -2.51354,2.16693 -4.68065,4.5069 -6.5008,7.02061 -1.82033,2.51354 -2.86014,5.11368 -3.12014,7.80061 h 52.91691 v 8.3213 H 101.091 v -7.15096 c 0,-3.98709 1.08356,-7.7581 3.25049,-11.3118 2.16693,-3.64048 4.85333,-6.93383 8.06043,-9.88076 3.29387,-2.94709 7.71435,-6.58793 13.26159,-10.9218 6.2408,-4.85386 11.26823,-9.05702 15.08192,-12.61072 3.81388,-3.55387 7.02168,-7.62774 9.622,-12.2216 2.68692,-4.68065 4.02977,-9.7079 4.02977,-15.08193 0,-4.85386 -0.69321,-8.581122 -2.08015,-11.181618 -1.30016,-2.600143 -3.55352,-4.420649 -6.76062,-5.460812 -3.12031,-1.12677 -7.58453,-1.689979 -13.39195,-1.689979 -5.89402,0 -10.44467,0.606953 -13.65176,1.82033 -3.12031,1.12677 -5.33011,3.076392 -6.63027,5.850101 -1.21355,2.77371 -1.77764,6.717408 -1.69086,11.831438 H 101.091 c -0.0864,-7.10758 0.82303,-12.65429 2.72997,-16.641376 1.90693,-3.987263 5.07099,-6.847579 9.49164,-8.581125 4.50725,-1.733546 10.79092,-2.600496 18.85187,-2.600496 z" />
  </g>
</svg>
