<?xml version="1.0" encoding="UTF-8" standalone="no"?>
<svg
   width="1000"
   height="1000"
   viewBox="0 0 264.58333 264.58334"
   version="1.1"
   id="svg221"
   inkscape:version="1.1.1 (3bf5ae0d25, 2021-09-20)"
   sodipodi:docname="0.svg"
   xmlns:inkscape="http://www.inkscape.org/namespaces/inkscape"
   xmlns:sodipodi="http://sodipodi.sourceforge.net/DTD/sodipodi-0.dtd"
   xmlns="http://www.w3.org/2000/svg"
   xmlns:svg="http://www.w3.org/2000/svg"
   xmlns:rdf="http://www.w3.org/1999/02/22-rdf-syntax-ns#"
   xmlns:cc="http://creativecommons.org/ns#"
   xmlns:dc="http://purl.org/dc/elements/1.1/">
  <defs
     id="defs215" />
  <sodipodi:namedview
     id="base"
     pagecolor="#ffffff"
     bordercolor="#666666"
     borderopacity="1.0"
     inkscape:pageopacity="0.0"
     inkscape:pageshadow="2"
     inkscape:zoom="0.49497474"
     inkscape:cx="344.46202"
     inkscape:cy="651.5484"
     inkscape:document-units="mm"
     inkscape:current-layer="layer1"
     inkscape:document-rotation="0"
     showgrid="false"
     units="px"
     showguides="true"
     inkscape:guide-bbox="true"
     inkscape:window-width="1366"
     inkscape:window-height="740"
     inkscape:window-x="0"
     inkscape:window-y="28"
     inkscape:window-maximized="0"
     inkscape:pagecheckerboard="0"
     inkscape:snap-bbox="true"
     inkscape:bbox-nodes="true"
     inkscape:snap-midpoints="true">
    <sodipodi:guide
       position="-5.0862631e-06,52.916663"
       orientation="0,-1"
       id="guide1048" />
    <sodipodi:guide
       position="-5.0862631e-06,211.66667"
       orientation="0,-1"
       id="guide144" />
    <sodipodi:guide
       position="211.66667,269.38659"
       orientation="1,0"
       id="guide146" />
    <sodipodi:guide
       position="52.916667,269.38659"
       orientation="1,0"
       id="guide148" />
    <sodipodi:guide
       position="132.29166,211.66667"
       orientation="1,0"
       id="guide133" />
    <sodipodi:guide
       position="52.916666,132.29167"
       orientation="0,-1"
       id="guide135" />
  </sodipodi:namedview>
  <metadata
     id="metadata218">
    <rdf:RDF>
      <cc:Work
         rdf:about="">
        <dc:format>image/svg+xml</dc:format>
        <dc:type
           rdf:resource="http://purl.org/dc/dcmitype/StillImage" />
      </cc:Work>
    </rdf:RDF>
  </metadata>
  <g
     inkscape:label="Layer 1"
     inkscape:groupmode="layer"
     id="layer1">
    <path
       id="rect12-3-4-2-80-4-1-4-42-43"
       style="color:#000000;font-style:normal;font-variant:normal;font-weight:normal;font-stretch:normal;font-size:medium;line-height:normal;font-family:sans-serif;font-variant-ligatures:normal;font-variant-position:normal;font-variant-caps:normal;font-variant-numeric:normal;font-variant-alternates:normal;font-variant-east-asian:normal;font-feature-settings:normal;font-variation-settings:normal;text-indent:0;text-align:start;text-decoration:none;text-decoration-line:none;text-decoration-style:solid;text-decoration-color:#000000;letter-spacing:normal;word-spacing:normal;text-transform:none;writing-mode:lr-tb;direction:ltr;text-orientation:mixed;dominant-baseline:auto;baseline-shift:baseline;text-anchor:start;white-space:normal;shape-padding:0;shape-margin:0;inline-size:0;clip-rule:nonzero;display:inline;overflow:visible;visibility:visible;isolation:auto;mix-blend-mode:normal;color-interpolation:sRGB;color-interpolation-filters:linearRGB;solid-color:#000000;solid-opacity:1;vector-effect:none;fill:#000000;fill-opacity:1;fill-rule:nonzero;stroke:none;stroke-width:1.66592;stroke-linecap:butt;stroke-linejoin:miter;stroke-miterlimit:4;stroke-dasharray:none;stroke-dashoffset:0;stroke-opacity:1;color-rendering:auto;image-rendering:auto;shape-rendering:auto;text-rendering:auto;enable-background:accumulate;stop-color:#000000"
       d="m 71.430403,52.916665 c -10.179556,0 -18.513736,8.334053 -18.513736,18.513845 v 121.72232 c 0,10.17979 8.33418,18.51384 18.513736,18.51384 H 193.15293 c 10.17974,0 18.51374,-8.33405 18.51374,-18.51384 V 71.43051 c 0,-10.179792 -8.334,-18.513845 -18.51374,-18.513845 z m 0,8.817113 H 193.15293 c 5.44847,0 9.69573,4.248412 9.69573,9.696732 v 121.72232 c 0,5.44832 -4.24726,9.69581 -9.69573,9.69581 H 71.430403 c -5.448288,0 -9.695722,-4.24749 -9.695722,-9.69581 V 71.43051 c 0,-5.44832 4.247434,-9.696732 9.695722,-9.696732 z m 60.826157,17.640611 c -11.17756,0 -19.38403,3.679239 -24.61907,11.036676 -5.23503,7.357419 -7.852637,18.605975 -7.852637,33.745315 v 17.47379 c 0.18856,14.47904 2.924167,25.37312 8.206297,32.68339 5.28213,7.2631 13.4177,10.89539 24.4067,10.89539 11.13047,0 19.31278,-3.7262 24.54799,-11.17797 5.23504,-7.45175 7.85264,-18.84209 7.85264,-34.17007 V 122.88298 C 164.65737,108.0738 161.96851,97.131841 156.73347,90.057386 151.49844,82.935782 143.33976,79.374389 132.25656,79.374389 Z m 0,10.753182 c 6.74422,0 11.67287,2.546748 14.7856,7.640348 3.11273,5.046451 4.66883,13.112041 4.66883,24.195331 v 21.43526 c -0.14112,10.75316 -1.79246,18.62909 -4.95229,23.62838 -3.11273,4.99927 -7.89956,7.49906 -14.36085,7.49906 -6.55565,0 -11.46031,-2.64066 -14.71468,-7.92292 -3.20692,-5.32942 -4.81082,-13.55983 -4.81082,-24.69029 v -20.9403 c 0.0935,-10.47018 1.67428,-18.22827 4.73974,-23.274706 3.06563,-5.046434 7.94736,-7.570163 14.64447,-7.570163 z" />
  </g>
</svg>
