<?xml version="1.0" encoding="UTF-8" standalone="no"?>
<svg
   width="1000"
   height="1000"
   viewBox="0 0 264.58333 264.58334"
   version="1.1"
   id="svg221"
   inkscape:version="1.1.1 (3bf5ae0d25, 2021-09-20)"
   sodipodi:docname="6.svg"
   xmlns:inkscape="http://www.inkscape.org/namespaces/inkscape"
   xmlns:sodipodi="http://sodipodi.sourceforge.net/DTD/sodipodi-0.dtd"
   xmlns="http://www.w3.org/2000/svg"
   xmlns:svg="http://www.w3.org/2000/svg"
   xmlns:rdf="http://www.w3.org/1999/02/22-rdf-syntax-ns#"
   xmlns:cc="http://creativecommons.org/ns#"
   xmlns:dc="http://purl.org/dc/elements/1.1/">
  <defs
     id="defs215" />
  <sodipodi:namedview
     id="base"
     pagecolor="#ffffff"
     bordercolor="#666666"
     borderopacity="1.0"
     inkscape:pageopacity="0.0"
     inkscape:pageshadow="2"
     inkscape:zoom="0.49497474"
     inkscape:cx="344.46202"
     inkscape:cy="651.5484"
     inkscape:document-units="mm"
     inkscape:current-layer="layer1"
     inkscape:document-rotation="0"
     showgrid="false"
     units="px"
     showguides="true"
     inkscape:guide-bbox="true"
     inkscape:window-width="1366"
     inkscape:window-height="740"
     inkscape:window-x="0"
     inkscape:window-y="28"
     inkscape:window-maximized="0"
     inkscape:pagecheckerboard="0"
     inkscape:snap-bbox="true"
     inkscape:bbox-nodes="true"
     inkscape:snap-midpoints="true">
    <sodipodi:guide
       position="-5.0862631e-06,52.916663"
       orientation="0,-1"
       id="guide1048" />
    <sodipodi:guide
       position="-5.0862631e-06,211.66667"
       orientation="0,-1"
       id="guide144" />
    <sodipodi:guide
       position="211.66667,269.38659"
       orientation="1,0"
       id="guide146" />
    <sodipodi:guide
       position="52.916667,269.38659"
       orientation="1,0"
       id="guide148" />
    <sodipodi:guide
       position="132.29166,211.66667"
       orientation="1,0"
       id="guide133" />
    <sodipodi:guide
       position="52.916666,132.29167"
       orientation="0,-1"
       id="guide135" />
  </sodipodi:namedview>
  <metadata
     id="metadata218">
    <rdf:RDF>
      <cc:Work
         rdf:about="">
        <dc:format>image/svg+xml</dc:format>
        <dc:type
           rdf:resource="http://purl.org/dc/dcmitype/StillImage" />
      </cc:Work>
    </rdf:RDF>
  </metadata>
  <g
     inkscape:label="Layer 1"
     inkscape:groupmode="layer"
     id="layer1">
    <path
       id="text1950-3-2-7-8-9-0-1-4-2-9-3-5-74-0-9-2"
       style="font-style:normal;font-variant:normal;font-weight:normal;font-stretch:normal;font-size:83.1957px;line-height:1.25;font-family:vi;-inkscape-font-specification:vi;direction:rtl;display:inline;fill:#000000;stroke-width:0.550302"
       d="m 71.430703,52.916665 c -10.179624,0 -18.514036,8.334054 -18.514036,18.513847 V 193.15282 c 0,10.1798 8.334412,18.51385 18.514036,18.51385 H 193.15281 c 10.18015,0 18.51386,-8.33405 18.51386,-18.51385 V 71.430512 c 0,-10.179793 -8.33371,-18.513847 -18.51386,-18.513847 z m 0,8.817114 H 193.15281 c 5.44868,0 9.69702,4.248413 9.69702,9.696733 V 193.15282 c 0,5.44832 -4.24834,9.69674 -9.69702,9.69674 H 71.430703 c -5.448324,0 -9.697198,-4.24842 -9.697198,-9.69674 V 71.430512 c 0,-5.44832 4.248874,-9.696733 9.697198,-9.696733 z m 76.767967,17.640613 c -16.19399,0.238849 -28.39945,5.445745 -36.61568,15.620688 -8.16861,10.12718 -12.252733,24.79282 -12.252733,43.99624 v 5.08718 c 0,12.08573 3.104983,21.97445 9.314783,29.66537 6.20998,7.64315 14.30715,11.46507 24.29115,11.46507 9.84044,0 17.67478,-3.22503 23.50252,-9.67394 5.87572,-6.44891 8.81349,-15.04688 8.81349,-25.79505 0,-10.12718 -2.72222,-18.39216 -8.16808,-24.79329 -5.39788,-6.40114 -12.63532,-9.60102 -21.71128,-9.60102 -9.50617,0 -17.00643,3.15231 -22.49991,9.45792 0.95532,-10.74819 4.49105,-19.08407 10.60525,-25.007509 6.11472,-5.923443 14.33131,-8.980627 24.64958,-9.17171 h 2.43523 V 79.374392 Z m -15.04728,47.006088 c 5.73249,0 10.31827,2.2206 13.75734,6.66318 3.48722,4.39481 5.23119,10.17527 5.23119,17.34073 0,7.11769 -1.7198,12.8739 -5.15887,17.26871 -3.39197,4.39482 -8.07388,6.5921 -14.04486,6.5921 -5.77993,0 -10.60472,-2.62723 -14.47418,-7.88189 -3.86928,-5.25468 -5.8034,-12.18134 -5.8034,-20.77989 v -4.87207 c 1.48097,-4.10819 4.13123,-7.5244 7.95306,-10.24728 3.82131,-2.72287 8.00157,-4.08359 12.53972,-4.08359 z" />
  </g>
</svg>
