<?xml version="1.0" encoding="UTF-8" standalone="no"?>
<svg
   width="1000"
   height="1000"
   viewBox="0 0 264.58333 264.58334"
   version="1.1"
   id="svg221"
   inkscape:version="1.1.1 (3bf5ae0d25, 2021-09-20)"
   sodipodi:docname="8.svg"
   xmlns:inkscape="http://www.inkscape.org/namespaces/inkscape"
   xmlns:sodipodi="http://sodipodi.sourceforge.net/DTD/sodipodi-0.dtd"
   xmlns="http://www.w3.org/2000/svg"
   xmlns:svg="http://www.w3.org/2000/svg"
   xmlns:rdf="http://www.w3.org/1999/02/22-rdf-syntax-ns#"
   xmlns:cc="http://creativecommons.org/ns#"
   xmlns:dc="http://purl.org/dc/elements/1.1/">
  <defs
     id="defs215" />
  <sodipodi:namedview
     id="base"
     pagecolor="#ffffff"
     bordercolor="#666666"
     borderopacity="1.0"
     inkscape:pageopacity="0.0"
     inkscape:pageshadow="2"
     inkscape:zoom="0.49497474"
     inkscape:cx="344.46202"
     inkscape:cy="651.5484"
     inkscape:document-units="mm"
     inkscape:current-layer="layer1"
     inkscape:document-rotation="0"
     showgrid="false"
     units="px"
     showguides="true"
     inkscape:guide-bbox="true"
     inkscape:window-width="1366"
     inkscape:window-height="740"
     inkscape:window-x="0"
     inkscape:window-y="28"
     inkscape:window-maximized="0"
     inkscape:pagecheckerboard="0"
     inkscape:snap-bbox="true"
     inkscape:bbox-nodes="true"
     inkscape:snap-midpoints="true">
    <sodipodi:guide
       position="-5.0862631e-06,52.916663"
       orientation="0,-1"
       id="guide1048" />
    <sodipodi:guide
       position="-5.0862631e-06,211.66667"
       orientation="0,-1"
       id="guide144" />
    <sodipodi:guide
       position="211.66667,269.38659"
       orientation="1,0"
       id="guide146" />
    <sodipodi:guide
       position="52.916667,269.38659"
       orientation="1,0"
       id="guide148" />
    <sodipodi:guide
       position="132.29166,211.66667"
       orientation="1,0"
       id="guide133" />
    <sodipodi:guide
       position="52.916666,132.29167"
       orientation="0,-1"
       id="guide135" />
  </sodipodi:namedview>
  <metadata
     id="metadata218">
    <rdf:RDF>
      <cc:Work
         rdf:about="">
        <dc:format>image/svg+xml</dc:format>
        <dc:type
           rdf:resource="http://purl.org/dc/dcmitype/StillImage" />
      </cc:Work>
    </rdf:RDF>
  </metadata>
  <g
     inkscape:label="Layer 1"
     inkscape:groupmode="layer"
     id="layer1">
    <path
       id="text1950-3-2-7-8-9-0-1-4-2-9-3-5-74-0-86-1"
       style="font-style:normal;font-variant:normal;font-weight:normal;font-stretch:normal;font-size:82.139px;line-height:1.25;font-family:vi;-inkscape-font-specification:vi;direction:rtl;display:inline;fill:#000000;stroke-width:0.543314"
       d="m 71.429997,52.916665 c -10.179624,0 -18.51333,8.334005 -18.51333,18.51374 V 193.15293 c 0,10.17974 8.333706,18.51374 18.51333,18.51374 H 193.15281 c 10.17962,0 18.51386,-8.334 18.51386,-18.51374 V 71.430405 c 0,-10.179735 -8.33424,-18.51374 -18.51386,-18.51374 z m 0,8.81798 H 193.15281 c 5.44815,0 9.69649,4.247471 9.69649,9.69576 V 193.15293 c 0,5.44829 -4.24834,9.69576 -9.69649,9.69576 H 71.429997 c -5.448147,0 -9.696492,-4.24747 -9.696492,-9.69576 V 71.430405 c 0,-5.448289 4.248345,-9.69576 9.696492,-9.69576 z m 60.861673,17.640512 c -9.10242,0 -16.43617,2.546732 -22.00162,7.640304 -5.56527,5.093572 -8.3487,11.979674 -8.3487,20.657619 0,5.09355 1.32116,9.64471 3.96277,13.65355 2.64109,4.00883 6.24861,7.14483 10.8231,9.40863 -5.37636,2.31098 -9.59719,5.70661 -12.66284,10.18707 -3.0182,4.48044 -4.527394,9.50302 -4.527394,15.06822 0,8.86657 2.970934,15.96538 8.913854,21.29477 5.98966,5.28222 13.93655,7.92286 23.84083,7.92286 9.80956,0 17.7097,-2.64064 23.69936,-7.92286 6.03676,-5.28222 9.05479,-12.38103 9.05479,-21.29477 0,-5.61237 -1.57975,-10.63493 -4.73977,-15.06822 -3.11274,-4.4333 -7.35739,-7.80499 -12.73374,-10.11596 4.62158,-2.26381 8.27726,-5.40072 10.96544,-9.40956 2.73527,-4.00883 4.10282,-8.58301 4.10282,-13.72373 0,-8.677945 -2.80636,-15.564047 -8.41872,-20.657619 -5.56545,-5.093572 -12.87486,-7.640304 -21.93018,-7.640304 z m 0,10.753121 c 4.99924,0 9.1257,1.650855 12.38009,4.952249 3.25421,3.301376 4.88123,7.568953 4.88123,12.804023 0,5.23506 -1.57993,9.48052 -4.73977,12.73474 -3.11292,3.20706 -7.28666,4.81005 -12.52155,4.81005 -5.23543,0 -9.43297,-1.60299 -12.59299,-4.81005 -3.11275,-3.25422 -4.66886,-7.49968 -4.66886,-12.73474 0,-5.47088 1.58027,-9.785416 4.7403,-12.94531 3.20676,-3.207061 7.38032,-4.810962 12.52155,-4.810962 z m -0.14112,46.054172 c 5.8953,0 10.65853,1.81567 14.28986,5.44721 3.67844,3.63153 5.51818,8.32447 5.51818,14.07831 0,5.80102 -1.74449,10.39913 -5.23489,13.79484 -3.49005,3.34856 -8.30072,5.02335 -14.43168,5.02335 -6.17858,0 -11.01324,-1.67479 -14.50364,-5.02335 -3.44278,-3.34854 -5.16346,-7.94666 -5.16346,-13.79484 0,-5.84816 1.76866,-10.56414 5.3058,-14.14849 3.58424,-3.58438 8.32454,-5.37703 14.21983,-5.37703 z" />
  </g>
</svg>
