<?xml version="1.0" encoding="UTF-8" standalone="no"?>
<svg
   width="1000"
   height="1000"
   viewBox="0 0 264.58333 264.58334"
   version="1.1"
   id="svg221"
   inkscape:version="1.1.1 (3bf5ae0d25, 2021-09-20)"
   sodipodi:docname="9.svg"
   xmlns:inkscape="http://www.inkscape.org/namespaces/inkscape"
   xmlns:sodipodi="http://sodipodi.sourceforge.net/DTD/sodipodi-0.dtd"
   xmlns="http://www.w3.org/2000/svg"
   xmlns:svg="http://www.w3.org/2000/svg"
   xmlns:rdf="http://www.w3.org/1999/02/22-rdf-syntax-ns#"
   xmlns:cc="http://creativecommons.org/ns#"
   xmlns:dc="http://purl.org/dc/elements/1.1/">
  <defs
     id="defs215" />
  <sodipodi:namedview
     id="base"
     pagecolor="#ffffff"
     bordercolor="#666666"
     borderopacity="1.0"
     inkscape:pageopacity="0.0"
     inkscape:pageshadow="2"
     inkscape:zoom="0.49497474"
     inkscape:cx="344.46202"
     inkscape:cy="651.5484"
     inkscape:document-units="mm"
     inkscape:current-layer="layer1"
     inkscape:document-rotation="0"
     showgrid="false"
     units="px"
     showguides="true"
     inkscape:guide-bbox="true"
     inkscape:window-width="1366"
     inkscape:window-height="740"
     inkscape:window-x="0"
     inkscape:window-y="28"
     inkscape:window-maximized="0"
     inkscape:pagecheckerboard="0"
     inkscape:snap-bbox="true"
     inkscape:bbox-nodes="true"
     inkscape:snap-midpoints="true">
    <sodipodi:guide
       position="-5.0862631e-06,52.916663"
       orientation="0,-1"
       id="guide1048" />
    <sodipodi:guide
       position="-5.0862631e-06,211.66667"
       orientation="0,-1"
       id="guide144" />
    <sodipodi:guide
       position="211.66667,269.38659"
       orientation="1,0"
       id="guide146" />
    <sodipodi:guide
       position="52.916667,269.38659"
       orientation="1,0"
       id="guide148" />
    <sodipodi:guide
       position="132.29166,211.66667"
       orientation="1,0"
       id="guide133" />
    <sodipodi:guide
       position="52.916666,132.29167"
       orientation="0,-1"
       id="guide135" />
  </sodipodi:namedview>
  <metadata
     id="metadata218">
    <rdf:RDF>
      <cc:Work
         rdf:about="">
        <dc:format>image/svg+xml</dc:format>
        <dc:type
           rdf:resource="http://purl.org/dc/dcmitype/StillImage" />
      </cc:Work>
    </rdf:RDF>
  </metadata>
  <g
     inkscape:label="Layer 1"
     inkscape:groupmode="layer"
     id="layer1">
    <path
       id="text1950-3-2-7-8-9-0-1-4-2-9-3-5-74-0-48-6"
       style="font-style:normal;font-variant:normal;font-weight:normal;font-stretch:normal;font-size:83.1957px;line-height:1.25;font-family:vi;-inkscape-font-specification:vi;direction:rtl;display:inline;fill:#000000;stroke-width:0.5503"
       d="m 71.430506,52.916665 c -10.179436,0 -18.513839,8.334005 -18.513839,18.51374 V 193.15293 c 0,10.17974 8.334403,18.51374 18.513839,18.51374 H 193.15283 c 10.17979,0 18.51384,-8.334 18.51384,-18.51374 V 71.430405 c 0,-10.179735 -8.33405,-18.51374 -18.51384,-18.51374 z m 0,8.81798 H 193.15283 c 5.44832,0 9.69666,4.247471 9.69666,9.69576 V 193.15293 c 0,5.44829 -4.24834,9.69576 -9.69666,9.69576 H 71.430506 c -5.448142,0 -9.697011,-4.24747 -9.697011,-9.69576 V 71.430405 c 0,-5.448289 4.248869,-9.69576 9.697011,-9.69576 z m 60.359944,17.640512 c -6.49695,0 -12.18233,1.481011 -17.05456,4.442715 -4.87276,2.961705 -8.64609,7.236869 -11.32121,12.825898 -2.6275,5.58901 -3.941246,11.87028 -3.941246,18.84461 0,6.49665 1.218676,12.44402 3.655146,17.84196 2.43629,5.35016 5.87482,9.50596 10.31737,12.46767 4.49052,2.9617 9.74552,4.44271 15.76446,4.44271 4.5863,0 8.78949,-1.00351 12.61114,-3.00982 3.86928,-2.00631 7.18946,-4.65685 9.96019,-7.95294 -0.52547,11.94235 -3.72623,20.68389 -9.60194,26.22513 -5.87553,5.49348 -14.2835,8.33612 -25.22247,8.52721 h -2.794 v 11.17788 h 2.57881 c 16.19396,-0.23885 28.30399,-5.01577 36.32936,-14.33081 8.02537,-9.36279 12.03752,-24.19532 12.03752,-44.49732 v -3.86938 c 0,-13.32767 -2.98539,-23.836527 -8.95653,-31.527402 -5.92351,-7.738641 -14.04395,-11.608111 -24.36204,-11.608111 z m 0.0706,11.034778 c 5.78011,0 10.55709,2.722345 14.33094,8.168059 3.77368,5.445716 5.66052,12.515966 5.66052,21.209996 v 5.30228 c -1.7198,4.01262 -4.46636,7.38034 -8.24021,10.10321 -3.72605,2.72283 -7.81,4.08448 -12.25255,4.08448 -5.73248,0 -10.31825,-2.29333 -13.75767,-6.87919 -3.39162,-4.63362 -5.08796,-10.5092 -5.08796,-17.62683 0,-7.30873 1.76831,-13.18428 5.30298,-17.626838 3.53537,-4.490323 8.21622,-6.735167 14.04395,-6.735167 z" />
  </g>
</svg>
