<?xml version="1.0" encoding="UTF-8" standalone="no"?>
<svg
   width="1000"
   height="1000"
   viewBox="0 0 264.58333 264.58334"
   version="1.1"
   id="svg221"
   inkscape:version="1.1.1 (3bf5ae0d25, 2021-09-20)"
   sodipodi:docname="A.svg"
   xmlns:inkscape="http://www.inkscape.org/namespaces/inkscape"
   xmlns:sodipodi="http://sodipodi.sourceforge.net/DTD/sodipodi-0.dtd"
   xmlns="http://www.w3.org/2000/svg"
   xmlns:svg="http://www.w3.org/2000/svg"
   xmlns:rdf="http://www.w3.org/1999/02/22-rdf-syntax-ns#"
   xmlns:cc="http://creativecommons.org/ns#"
   xmlns:dc="http://purl.org/dc/elements/1.1/">
  <defs
     id="defs215" />
  <sodipodi:namedview
     id="base"
     pagecolor="#ffffff"
     bordercolor="#666666"
     borderopacity="1.0"
     inkscape:pageopacity="0.0"
     inkscape:pageshadow="2"
     inkscape:zoom="0.49497474"
     inkscape:cx="344.46202"
     inkscape:cy="651.5484"
     inkscape:document-units="mm"
     inkscape:current-layer="layer1"
     inkscape:document-rotation="0"
     showgrid="false"
     units="px"
     showguides="true"
     inkscape:guide-bbox="true"
     inkscape:window-width="1366"
     inkscape:window-height="740"
     inkscape:window-x="0"
     inkscape:window-y="28"
     inkscape:window-maximized="0"
     inkscape:pagecheckerboard="0"
     inkscape:snap-bbox="true"
     inkscape:bbox-nodes="true">
    <sodipodi:guide
       position="-5.0862631e-06,52.916663"
       orientation="0,-1"
       id="guide1048" />
    <sodipodi:guide
       position="-5.0862631e-06,211.66667"
       orientation="0,-1"
       id="guide144" />
    <sodipodi:guide
       position="211.66667,269.38659"
       orientation="1,0"
       id="guide146" />
    <sodipodi:guide
       position="52.916667,269.38659"
       orientation="1,0"
       id="guide148" />
  </sodipodi:namedview>
  <metadata
     id="metadata218">
    <rdf:RDF>
      <cc:Work
         rdf:about="">
        <dc:format>image/svg+xml</dc:format>
        <dc:type
           rdf:resource="http://purl.org/dc/dcmitype/StillImage" />
      </cc:Work>
    </rdf:RDF>
  </metadata>
  <g
     inkscape:label="Layer 1"
     inkscape:groupmode="layer"
     id="layer1">
    <path
       id="path75348"
       style="font-size:84.3956px;line-height:1.25;font-family:'Open Sans';-inkscape-font-specification:'Open Sans';direction:rtl;fill:#000000;stroke-width:0.558243"
       d="m 71.430527,52.916665 c -10.179625,0 -18.51386,8.334004 -18.51386,18.513738 V 193.15295 c 0,10.17973 8.334235,18.51372 18.51386,18.51372 H 193.15316 c 10.17963,0 18.51351,-8.33399 18.51351,-18.51372 V 71.430403 c 0,-10.179734 -8.33388,-18.513738 -18.51351,-18.513738 z m 0,8.817962 H 193.15316 c 5.44833,0 9.69667,4.247488 9.69667,9.695776 V 193.15295 c 0,5.44829 -4.24834,9.69576 -9.69667,9.69576 H 71.430527 c -5.448148,0 -9.696493,-4.24747 -9.696493,-9.69576 V 71.430403 c 0,-5.448288 4.248345,-9.695776 9.696493,-9.695776 z M 126.14996,79.375171 85.734852,185.20822 h 14.391978 l 9.95844,-27.6216 h 44.33995 l 10.1036,27.6216 h 14.31967 L 138.36159,79.375171 Z m 6.10537,17.226692 18.02703,49.500617 h -35.98138 z" />
  </g>
</svg>
