<?xml version="1.0" encoding="UTF-8" standalone="no"?>
<svg
   width="1000"
   height="1000"
   viewBox="0 0 264.58333 264.58334"
   version="1.1"
   id="svg221"
   inkscape:version="1.1.1 (3bf5ae0d25, 2021-09-20)"
   sodipodi:docname="arrow double left.svg"
   xmlns:inkscape="http://www.inkscape.org/namespaces/inkscape"
   xmlns:sodipodi="http://sodipodi.sourceforge.net/DTD/sodipodi-0.dtd"
   xmlns="http://www.w3.org/2000/svg"
   xmlns:svg="http://www.w3.org/2000/svg"
   xmlns:rdf="http://www.w3.org/1999/02/22-rdf-syntax-ns#"
   xmlns:cc="http://creativecommons.org/ns#"
   xmlns:dc="http://purl.org/dc/elements/1.1/">
  <defs
     id="defs215" />
  <sodipodi:namedview
     id="base"
     pagecolor="#ffffff"
     bordercolor="#666666"
     borderopacity="1.0"
     inkscape:pageopacity="0.0"
     inkscape:pageshadow="2"
     inkscape:zoom="0.69999999"
     inkscape:cx="439.28572"
     inkscape:cy="502.14286"
     inkscape:document-units="mm"
     inkscape:current-layer="layer1"
     inkscape:document-rotation="0"
     showgrid="false"
     units="px"
     showguides="true"
     inkscape:guide-bbox="true"
     inkscape:window-width="1366"
     inkscape:window-height="740"
     inkscape:window-x="0"
     inkscape:window-y="28"
     inkscape:window-maximized="0"
     inkscape:pagecheckerboard="0"
     inkscape:snap-bbox="true"
     inkscape:bbox-nodes="true"
     inkscape:snap-midpoints="true">
    <sodipodi:guide
       position="-5.0862631e-06,52.916663"
       orientation="0,-1"
       id="guide1048" />
    <sodipodi:guide
       position="75.848259,211.66667"
       orientation="0,-1"
       id="guide144" />
    <sodipodi:guide
       position="211.66667,269.38659"
       orientation="1,0"
       id="guide146" />
    <sodipodi:guide
       position="52.916667,269.38659"
       orientation="1,0"
       id="guide148" />
    <sodipodi:guide
       position="132.29166,211.66667"
       orientation="1,0"
       id="guide133" />
    <sodipodi:guide
       position="52.916666,132.29167"
       orientation="0,-1"
       id="guide135" />
  </sodipodi:namedview>
  <metadata
     id="metadata218">
    <rdf:RDF>
      <cc:Work
         rdf:about="">
        <dc:format>image/svg+xml</dc:format>
        <dc:type
           rdf:resource="http://purl.org/dc/dcmitype/StillImage" />
      </cc:Work>
    </rdf:RDF>
  </metadata>
  <g
     inkscape:label="Layer 1"
     inkscape:groupmode="layer"
     id="layer1">
    <path
       id="text1814-7-9-3-8-1-8-0-1-8-9"
       style="font-size:107.413px;line-height:1.25;font-family:sans-serif;direction:rtl;display:inline;stroke-width:0.645898"
       d="m 71.429997,52.916665 c -10.179624,0 -18.51333,8.334004 -18.51333,18.513738 V 193.15293 c 0,10.17974 8.333706,18.51374 18.51333,18.51374 H 193.15281 c 10.17962,0 18.51386,-8.334 18.51386,-18.51374 V 71.430403 c 0,-10.179734 -8.33424,-18.513738 -18.51386,-18.513738 z m 0,8.818015 H 193.15281 c 5.44815,0 9.69649,4.247435 9.69649,9.695723 V 193.15293 c 0,5.44829 -4.24834,9.69573 -9.69649,9.69573 H 71.429997 c -5.448147,0 -9.696492,-4.24744 -9.696492,-9.69573 V 71.430403 c 0,-5.448288 4.248345,-9.695723 9.696492,-9.695723 z m 55.311213,23.190679 -47.366093,47.365781 47.366093,47.36684 11.10127,-11.10225 -36.26467,-36.26459 36.26467,-36.264593 z m 47.3661,0 -47.3661,47.365781 47.3661,47.36684 11.10126,-11.10225 -36.26466,-36.26459 36.26466,-36.264593 z" />
  </g>
</svg>
