<?xml version="1.0" encoding="UTF-8" standalone="no"?>
<svg
   width="1000"
   height="1000"
   viewBox="0 0 264.58333 264.58334"
   version="1.1"
   id="svg221"
   inkscape:version="1.1.1 (3bf5ae0d25, 2021-09-20)"
   sodipodi:docname="arrow double down.svg"
   xmlns:inkscape="http://www.inkscape.org/namespaces/inkscape"
   xmlns:sodipodi="http://sodipodi.sourceforge.net/DTD/sodipodi-0.dtd"
   xmlns="http://www.w3.org/2000/svg"
   xmlns:svg="http://www.w3.org/2000/svg"
   xmlns:rdf="http://www.w3.org/1999/02/22-rdf-syntax-ns#"
   xmlns:cc="http://creativecommons.org/ns#"
   xmlns:dc="http://purl.org/dc/elements/1.1/">
  <defs
     id="defs215" />
  <sodipodi:namedview
     id="base"
     pagecolor="#ffffff"
     bordercolor="#666666"
     borderopacity="1.0"
     inkscape:pageopacity="0.0"
     inkscape:pageshadow="2"
     inkscape:zoom="0.69999999"
     inkscape:cx="702.14287"
     inkscape:cy="495.00001"
     inkscape:document-units="mm"
     inkscape:current-layer="layer1"
     inkscape:document-rotation="0"
     showgrid="false"
     units="px"
     showguides="true"
     inkscape:guide-bbox="true"
     inkscape:window-width="1362"
     inkscape:window-height="736"
     inkscape:window-x="0"
     inkscape:window-y="28"
     inkscape:window-maximized="0"
     inkscape:pagecheckerboard="0"
     inkscape:snap-bbox="true"
     inkscape:bbox-nodes="true"
     inkscape:snap-midpoints="true">
    <sodipodi:guide
       position="-5.0862631e-06,52.916663"
       orientation="0,-1"
       id="guide1048" />
    <sodipodi:guide
       position="75.848259,211.66667"
       orientation="0,-1"
       id="guide144" />
    <sodipodi:guide
       position="211.66667,269.38659"
       orientation="1,0"
       id="guide146" />
    <sodipodi:guide
       position="52.916667,269.38659"
       orientation="1,0"
       id="guide148" />
    <sodipodi:guide
       position="132.29166,211.66667"
       orientation="1,0"
       id="guide133" />
    <sodipodi:guide
       position="52.916666,132.29167"
       orientation="0,-1"
       id="guide135" />
  </sodipodi:namedview>
  <metadata
     id="metadata218">
    <rdf:RDF>
      <cc:Work
         rdf:about="">
        <dc:format>image/svg+xml</dc:format>
        <dc:type
           rdf:resource="http://purl.org/dc/dcmitype/StillImage" />
      </cc:Work>
    </rdf:RDF>
  </metadata>
  <g
     inkscape:label="Layer 1"
     inkscape:groupmode="layer"
     id="layer1">
    <path
       id="text1814-7-9-3-8-1-8-0-1-8-9"
       style="font-size:107.413px;line-height:1.25;font-family:sans-serif;direction:rtl;display:inline;stroke-width:0.645898"
       d="m 52.916666,193.15334 c 0,10.17962 8.334,18.51333 18.51374,18.51333 H 193.15293 c 10.17974,0 18.51374,-8.33371 18.51374,-18.51333 V 71.430526 c 0,-10.17962 -8.334,-18.51386 -18.51374,-18.51386 H 71.430406 c -10.17974,0 -18.51374,8.33424 -18.51374,18.51386 z m 8.81801,0 V 71.430526 c 0,-5.44815 4.24744,-9.69649 9.69573,-9.69649 H 193.15293 c 5.44829,0 9.69573,4.24834 9.69573,9.69649 V 193.15334 c 0,5.44815 -4.24744,9.69649 -9.69573,9.69649 H 71.430406 c -5.44829,0 -9.69573,-4.24834 -9.69573,-9.69649 z m 23.19068,-55.31121 47.365784,47.36609 47.36684,-47.36609 -11.10225,-11.10127 -36.26459,36.26467 -36.264594,-36.26467 z m 0,-47.366104 47.365784,47.366104 47.36684,-47.366104 -11.10225,-11.10126 -36.26459,36.264664 -36.264594,-36.264664 z" />
  </g>
</svg>
