<?xml version="1.0" encoding="UTF-8" standalone="no"?>
<svg
   width="1000"
   height="1000"
   viewBox="0 0 264.58333 264.58334"
   version="1.1"
   id="svg221"
   inkscape:version="1.1.1 (3bf5ae0d25, 2021-09-20)"
   sodipodi:docname="avatar circle.svg"
   xmlns:inkscape="http://www.inkscape.org/namespaces/inkscape"
   xmlns:sodipodi="http://sodipodi.sourceforge.net/DTD/sodipodi-0.dtd"
   xmlns="http://www.w3.org/2000/svg"
   xmlns:svg="http://www.w3.org/2000/svg"
   xmlns:rdf="http://www.w3.org/1999/02/22-rdf-syntax-ns#"
   xmlns:cc="http://creativecommons.org/ns#"
   xmlns:dc="http://purl.org/dc/elements/1.1/">
  <defs
     id="defs215" />
  <sodipodi:namedview
     id="base"
     pagecolor="#ffffff"
     bordercolor="#666666"
     borderopacity="1.0"
     inkscape:pageopacity="0.0"
     inkscape:pageshadow="2"
     inkscape:zoom="0.69999999"
     inkscape:cx="507.85715"
     inkscape:cy="449.28572"
     inkscape:document-units="mm"
     inkscape:current-layer="layer1"
     inkscape:document-rotation="0"
     showgrid="false"
     units="px"
     showguides="true"
     inkscape:guide-bbox="true"
     inkscape:window-width="1366"
     inkscape:window-height="740"
     inkscape:window-x="0"
     inkscape:window-y="28"
     inkscape:window-maximized="0"
     inkscape:pagecheckerboard="0"
     inkscape:snap-bbox="true"
     inkscape:bbox-nodes="true"
     inkscape:snap-midpoints="true">
    <sodipodi:guide
       position="-5.0862631e-06,52.916663"
       orientation="0,-1"
       id="guide1048" />
    <sodipodi:guide
       position="75.848259,211.66667"
       orientation="0,-1"
       id="guide144" />
    <sodipodi:guide
       position="211.66667,269.38659"
       orientation="1,0"
       id="guide146" />
    <sodipodi:guide
       position="52.916667,269.38659"
       orientation="1,0"
       id="guide148" />
    <sodipodi:guide
       position="132.29166,211.66667"
       orientation="1,0"
       id="guide133" />
    <sodipodi:guide
       position="52.916666,132.29167"
       orientation="0,-1"
       id="guide135" />
  </sodipodi:namedview>
  <metadata
     id="metadata218">
    <rdf:RDF>
      <cc:Work
         rdf:about="">
        <dc:format>image/svg+xml</dc:format>
        <dc:type
           rdf:resource="http://purl.org/dc/dcmitype/StillImage" />
      </cc:Work>
    </rdf:RDF>
  </metadata>
  <g
     inkscape:label="Layer 1"
     inkscape:groupmode="layer"
     id="layer1">
    <path
       id="text1814-7-9-1-7-6-9-63-8-0-6"
       style="font-size:60.0001px;line-height:1.25;font-family:sans-serif;direction:rtl;display:inline;stroke-width:0.360794"
       d="m 71.430247,52.916665 c -10.179567,0 -18.51358,8.334004 -18.51358,18.513738 V 193.15293 c 0,10.17974 8.334013,18.51374 18.51358,18.51374 H 193.15291 c 10.17975,0 18.51376,-8.334 18.51376,-18.51374 V 71.430403 c 0,-10.179734 -8.33401,-18.513738 -18.51376,-18.513738 z m 0,8.818015 H 193.15291 c 5.44847,0 9.69574,4.247435 9.69574,9.695723 V 193.15293 c 0,5.44829 -4.24727,9.69573 -9.69574,9.69573 H 71.430247 c -5.448293,0 -9.695733,-4.24744 -9.695733,-9.69573 V 71.430403 c 0,-5.448288 4.24744,-9.695723 9.695733,-9.695723 z m 60.861863,17.640438 c -7.20019,0 -14.0737,1.395233 -20.61931,4.1857 -6.51121,2.790642 -12.126901,6.545601 -16.84671,11.265405 -4.719808,4.719804 -8.474771,10.352947 -11.265416,16.898547 -2.790469,6.51121 -4.185527,13.36619 -4.185527,20.56655 0,7.16577 1.395058,14.02164 4.185527,20.56724 2.790645,6.51121 6.545608,12.12689 11.265416,16.84669 4.719809,4.7542 10.35296,8.5268 16.89857,11.31727 6.54578,2.79046 13.40166,4.1857 20.56745,4.1857 7.20019,0 14.05518,-1.4127 20.56639,-4.23756 6.54579,-2.79064 12.17894,-6.56324 16.89857,-11.31744 4.71981,-4.7198 8.47495,-10.33443 11.26542,-16.84563 2.79064,-6.51121 4.1857,-13.3505 4.1857,-20.51627 0,-7.20036 -1.39506,-14.05534 -4.1857,-20.56655 -2.79047,-6.5456 -6.54561,-12.178743 -11.26542,-16.898547 -4.71963,-4.719804 -10.35278,-8.474763 -16.89857,-11.265405 -6.51121,-2.790467 -13.3662,-4.1857 -20.56639,-4.1857 z m 0,15.089332 c 4.09963,0 7.88881,1.016351 11.36843,3.048876 3.47944,2.032701 6.23569,4.788774 8.26822,8.268384 2.0327,3.47962 3.04905,7.2688 3.04905,11.36842 0,4.09962 -1.01635,7.88968 -3.04905,11.3693 -2.03253,3.47961 -4.78878,6.23568 -8.26822,8.26838 -3.47962,2.03252 -7.2688,3.04887 -11.36843,3.04887 -4.09963,0 -7.88987,-1.01635 -11.36931,-3.04887 -3.47962,-2.0327 -6.2357,-4.78877 -8.2684,-8.26838 -2.03253,-3.47962 -3.04905,-7.26968 -3.04905,-11.3693 0,-4.09962 1.01652,-7.8888 3.04905,-11.36842 2.0327,-3.47961 4.78878,-6.235683 8.2684,-8.268384 3.47944,-2.032525 7.26968,-3.048876 11.36931,-3.048876 z m -20.98126,41.7545 c 2.65271,2.89383 5.78766,5.16819 9.40504,6.82183 3.65178,1.65364 7.51099,2.4802 11.57622,2.4802 4.06523,0 7.90592,-0.82656 11.5233,-2.4802 3.65195,-1.65364 6.80437,-3.928 9.45708,-6.82183 3.20392,0.41346 5.96,1.73955 8.26822,3.9788 2.30822,2.20486 4.04812,4.8237 5.21934,7.85529 1.1714,2.99737 2.032,6.45934 2.58321,10.38681 -4.20299,5.89102 -9.55956,10.55932 -16.07077,14.00437 -6.47682,3.44522 -13.4701,5.16747 -20.98038,5.16747 -7.51028,0 -14.52191,-1.72225 -21.03312,-5.16747 -6.47682,-3.44505 -11.815926,-8.11335 -16.018915,-14.00437 0.551214,-3.92747 1.411815,-7.38944 2.583036,-10.38681 1.171397,-3.03159 2.911119,-5.65043 5.219339,-7.85529 2.30822,-2.23925 5.06447,-3.56534 8.2684,-3.9788 z" />
  </g>
</svg>
