<?xml version="1.0" encoding="UTF-8" standalone="no"?>
<svg
   width="1000"
   height="1000"
   viewBox="0 0 264.58333 264.58334"
   version="1.1"
   id="svg221"
   inkscape:version="1.1.1 (3bf5ae0d25, 2021-09-20)"
   sodipodi:docname="battery v zero.svg.svg"
   xmlns:inkscape="http://www.inkscape.org/namespaces/inkscape"
   xmlns:sodipodi="http://sodipodi.sourceforge.net/DTD/sodipodi-0.dtd"
   xmlns="http://www.w3.org/2000/svg"
   xmlns:svg="http://www.w3.org/2000/svg"
   xmlns:rdf="http://www.w3.org/1999/02/22-rdf-syntax-ns#"
   xmlns:cc="http://creativecommons.org/ns#"
   xmlns:dc="http://purl.org/dc/elements/1.1/">
  <defs
     id="defs215" />
  <sodipodi:namedview
     id="base"
     pagecolor="#ffffff"
     bordercolor="#666666"
     borderopacity="1.0"
     inkscape:pageopacity="0.0"
     inkscape:pageshadow="2"
     inkscape:zoom="0.49497474"
     inkscape:cx="439.41636"
     inkscape:cy="502.04582"
     inkscape:document-units="mm"
     inkscape:current-layer="layer1"
     inkscape:document-rotation="0"
     showgrid="false"
     units="px"
     showguides="true"
     inkscape:guide-bbox="true"
     inkscape:window-width="1366"
     inkscape:window-height="740"
     inkscape:window-x="0"
     inkscape:window-y="28"
     inkscape:window-maximized="0"
     inkscape:pagecheckerboard="0"
     inkscape:snap-bbox="true"
     inkscape:bbox-nodes="true"
     inkscape:snap-midpoints="true">
    <sodipodi:guide
       position="-5.0862631e-06,52.916663"
       orientation="0,-1"
       id="guide1048" />
    <sodipodi:guide
       position="75.848259,211.66667"
       orientation="0,-1"
       id="guide144" />
    <sodipodi:guide
       position="211.66667,269.38659"
       orientation="1,0"
       id="guide146" />
    <sodipodi:guide
       position="52.916667,269.38659"
       orientation="1,0"
       id="guide148" />
    <sodipodi:guide
       position="132.29166,211.66667"
       orientation="1,0"
       id="guide133" />
    <sodipodi:guide
       position="52.916666,132.29167"
       orientation="0,-1"
       id="guide135" />
  </sodipodi:namedview>
  <metadata
     id="metadata218">
    <rdf:RDF>
      <cc:Work
         rdf:about="">
        <dc:format>image/svg+xml</dc:format>
        <dc:type
           rdf:resource="http://purl.org/dc/dcmitype/StillImage" />
      </cc:Work>
    </rdf:RDF>
  </metadata>
  <g
     inkscape:label="Layer 1"
     inkscape:groupmode="layer"
     id="layer1">
    <path
       id="text1814-7-9-3-8-0-7-9-06-7-0"
       style="font-size:46.6692px;line-height:1.25;font-family:sans-serif;direction:rtl;display:inline;stroke-width:0.280636"
       d="m 71.430527,52.916665 c -10.179625,0 -18.51386,8.334048 -18.51386,18.513817 V 193.15266 c 0,10.17996 8.334235,18.51401 18.51386,18.51401 H 193.15316 c 10.17963,0 18.51351,-8.33405 18.51351,-18.51401 V 71.430482 c 0,-10.179769 -8.33388,-18.513817 -18.51351,-18.513817 z m 0,8.817126 H 193.15316 c 5.44833,0 9.69667,4.248375 9.69667,9.696691 V 193.15266 c 0,5.44832 -4.24834,9.69683 -9.69667,9.69683 H 71.430527 c -5.448148,0 -9.696493,-4.24851 -9.696493,-9.69683 V 71.430482 c 0,-5.448316 4.248345,-9.696691 9.696493,-9.696691 z m 15.299687,41.175079 c -2.036066,0 -3.778267,0.70999 -5.225544,2.1302 -1.420113,1.42025 -2.129905,3.14908 -2.129905,5.1856 v 44.13378 c 0,2.03659 0.709792,3.76556 2.129905,5.18567 1.447277,1.42029 3.189478,2.13026 5.225544,2.13026 h 85.254596 c 2.0366,0 3.76434,-0.70997 5.18445,-2.13026 1.44728,-1.42011 2.17065,-3.14908 2.17065,-5.18567 v -7.39513 c 1.63443,0 3.01432,-0.56356 4.14004,-1.68893 1.15236,-1.12554 1.72827,-2.51884 1.72827,-4.18025 v -17.60507 c 0,-1.66141 -0.57591,-3.05471 -1.72827,-4.18025 -1.12572,-1.12537 -2.50561,-1.68805 -4.14004,-1.68805 v -7.3961 c 0,-2.03652 -0.72337,-3.76535 -2.17065,-5.1856 -1.42011,-1.42021 -3.14785,-2.1302 -5.18445,-2.1302 z m 0,5.86835 h 85.254596 c 0.42881,0 0.77647,0.13406 1.04441,0.40196 0.29492,0.26799 0.44238,0.61675 0.44238,1.04549 v 13.2644 h 5.86831 v 17.60507 h -5.86831 v 13.26431 c 0,0.4288 -0.14816,0.7777 -0.44238,1.04564 -0.26794,0.26793 -0.6156,0.40199 -1.04441,0.40199 H 86.730214 c -0.428274,0 -0.790579,-0.13406 -1.085502,-0.40199 -0.26776,-0.26794 -0.401816,-0.61684 -0.401816,-1.04564 v -44.13378 c 0,-0.42874 0.134056,-0.7775 0.401816,-1.04549 0.294923,-0.26797 0.657228,-0.40196 1.085502,-0.40196 z m 4.422089,5.86927 v 35.29129 h 23.513627 v -35.29129 z" />
  </g>
</svg>
