<?xml version="1.0" encoding="UTF-8" standalone="no"?>
<svg
   width="1000"
   height="1000"
   viewBox="0 0 264.58333 264.58334"
   version="1.1"
   id="svg221"
   inkscape:version="1.1.1 (3bf5ae0d25, 2021-09-20)"
   sodipodi:docname="battery zero.svg"
   xmlns:inkscape="http://www.inkscape.org/namespaces/inkscape"
   xmlns:sodipodi="http://sodipodi.sourceforge.net/DTD/sodipodi-0.dtd"
   xmlns="http://www.w3.org/2000/svg"
   xmlns:svg="http://www.w3.org/2000/svg"
   xmlns:rdf="http://www.w3.org/1999/02/22-rdf-syntax-ns#"
   xmlns:cc="http://creativecommons.org/ns#"
   xmlns:dc="http://purl.org/dc/elements/1.1/">
  <defs
     id="defs215" />
  <sodipodi:namedview
     id="base"
     pagecolor="#ffffff"
     bordercolor="#666666"
     borderopacity="1.0"
     inkscape:pageopacity="0.0"
     inkscape:pageshadow="2"
     inkscape:zoom="0.49497474"
     inkscape:cx="439.41636"
     inkscape:cy="502.04582"
     inkscape:document-units="mm"
     inkscape:current-layer="layer1"
     inkscape:document-rotation="0"
     showgrid="false"
     units="px"
     showguides="true"
     inkscape:guide-bbox="true"
     inkscape:window-width="1366"
     inkscape:window-height="740"
     inkscape:window-x="0"
     inkscape:window-y="28"
     inkscape:window-maximized="0"
     inkscape:pagecheckerboard="0"
     inkscape:snap-bbox="true"
     inkscape:bbox-nodes="true"
     inkscape:snap-midpoints="true">
    <sodipodi:guide
       position="-5.0862631e-06,52.916663"
       orientation="0,-1"
       id="guide1048" />
    <sodipodi:guide
       position="75.848259,211.66667"
       orientation="0,-1"
       id="guide144" />
    <sodipodi:guide
       position="211.66667,269.38659"
       orientation="1,0"
       id="guide146" />
    <sodipodi:guide
       position="52.916667,269.38659"
       orientation="1,0"
       id="guide148" />
    <sodipodi:guide
       position="132.29166,211.66667"
       orientation="1,0"
       id="guide133" />
    <sodipodi:guide
       position="52.916666,132.29167"
       orientation="0,-1"
       id="guide135" />
  </sodipodi:namedview>
  <metadata
     id="metadata218">
    <rdf:RDF>
      <cc:Work
         rdf:about="">
        <dc:format>image/svg+xml</dc:format>
        <dc:type
           rdf:resource="http://purl.org/dc/dcmitype/StillImage" />
      </cc:Work>
    </rdf:RDF>
  </metadata>
  <g
     inkscape:label="Layer 1"
     inkscape:groupmode="layer"
     id="layer1">
    <path
       id="text1814-7-9-3-1-6-4-0"
       style="font-size:72.1127px;line-height:1.25;font-family:sans-serif;direction:rtl;display:inline;stroke-width:0.433633"
       d="m 71.430506,52.916665 c -10.179436,0 -18.513839,8.333988 -18.513839,18.513723 V 193.15293 c 0,10.17974 8.334403,18.51374 18.513839,18.51374 H 193.15283 c 10.17979,0 18.51384,-8.334 18.51384,-18.51374 V 71.430388 c 0,-10.179735 -8.33405,-18.513723 -18.51384,-18.513723 z m 0,8.817963 H 193.15283 c 5.44832,0 9.69666,4.247471 9.69666,9.69576 V 193.15293 c 0,5.44829 -4.24834,9.69578 -9.69666,9.69573 H 71.430506 c -5.448142,0 -9.697011,-4.24744 -9.697011,-9.69573 V 71.430388 c 0,-5.448289 4.248869,-9.69576 9.697011,-9.69576 z m 44.961674,17.640493 v 10.434123 h -8.94383 c -1.98755,0.165629 -3.64385,0.910941 -4.96889,2.235936 -1.32486,1.324996 -1.9872,2.98116 -1.9872,4.968671 V 178.2524 c 0,1.98746 0.66234,3.64368 1.9872,4.96867 1.32504,1.32498 2.98134,1.98709 4.96889,1.98709 h 49.68663 c 1.98756,0 3.64368,-0.66211 4.96872,-1.98709 1.32503,-1.32499 1.98808,-2.98121 1.98808,-4.96867 V 97.013851 c 0,-1.987511 -0.66305,-3.643675 -1.98808,-4.968671 -1.32504,-1.324995 -2.98116,-2.070343 -4.96872,-2.235936 h -8.94383 V 79.375121 Z m -5.2176,21.117039 h 42.23417 v 63.59988 h -42.23417 z" />
  </g>
</svg>
