<?xml version="1.0" encoding="UTF-8" standalone="no"?>
<svg
   width="1000"
   height="1000"
   viewBox="0 0 264.58333 264.58334"
   version="1.1"
   id="svg221"
   inkscape:version="1.1.1 (3bf5ae0d25, 2021-09-20)"
   sodipodi:docname="battery v mid.svg"
   xmlns:inkscape="http://www.inkscape.org/namespaces/inkscape"
   xmlns:sodipodi="http://sodipodi.sourceforge.net/DTD/sodipodi-0.dtd"
   xmlns="http://www.w3.org/2000/svg"
   xmlns:svg="http://www.w3.org/2000/svg"
   xmlns:rdf="http://www.w3.org/1999/02/22-rdf-syntax-ns#"
   xmlns:cc="http://creativecommons.org/ns#"
   xmlns:dc="http://purl.org/dc/elements/1.1/">
  <defs
     id="defs215" />
  <sodipodi:namedview
     id="base"
     pagecolor="#ffffff"
     bordercolor="#666666"
     borderopacity="1.0"
     inkscape:pageopacity="0.0"
     inkscape:pageshadow="2"
     inkscape:zoom="0.49497474"
     inkscape:cx="439.41636"
     inkscape:cy="502.04582"
     inkscape:document-units="mm"
     inkscape:current-layer="layer1"
     inkscape:document-rotation="0"
     showgrid="false"
     units="px"
     showguides="true"
     inkscape:guide-bbox="true"
     inkscape:window-width="1366"
     inkscape:window-height="740"
     inkscape:window-x="0"
     inkscape:window-y="28"
     inkscape:window-maximized="0"
     inkscape:pagecheckerboard="0"
     inkscape:snap-bbox="true"
     inkscape:bbox-nodes="true"
     inkscape:snap-midpoints="true">
    <sodipodi:guide
       position="-5.0862631e-06,52.916663"
       orientation="0,-1"
       id="guide1048" />
    <sodipodi:guide
       position="75.848259,211.66667"
       orientation="0,-1"
       id="guide144" />
    <sodipodi:guide
       position="211.66667,269.38659"
       orientation="1,0"
       id="guide146" />
    <sodipodi:guide
       position="52.916667,269.38659"
       orientation="1,0"
       id="guide148" />
    <sodipodi:guide
       position="132.29166,211.66667"
       orientation="1,0"
       id="guide133" />
    <sodipodi:guide
       position="52.916666,132.29167"
       orientation="0,-1"
       id="guide135" />
  </sodipodi:namedview>
  <metadata
     id="metadata218">
    <rdf:RDF>
      <cc:Work
         rdf:about="">
        <dc:format>image/svg+xml</dc:format>
        <dc:type
           rdf:resource="http://purl.org/dc/dcmitype/StillImage" />
      </cc:Work>
    </rdf:RDF>
  </metadata>
  <g
     inkscape:label="Layer 1"
     inkscape:groupmode="layer"
     id="layer1">
    <path
       id="text1814-7-9-3-8-0-7-9-06-5-6-8"
       style="font-size:46.6692px;line-height:1.25;font-family:sans-serif;direction:rtl;display:inline;stroke-width:0.280635"
       d="m 71.430703,52.916665 c -10.179624,0 -18.514036,8.333984 -18.514036,18.513715 v 121.72238 c 0,10.17991 8.334412,18.51391 18.514036,18.51391 H 193.15281 c 10.18015,0 18.51386,-8.334 18.51386,-18.51391 V 71.43038 c 0,-10.179731 -8.33371,-18.513715 -18.51386,-18.513715 z m 0,8.817959 H 193.15281 c 5.44868,0 9.69702,4.247469 9.69702,9.695756 v 121.72238 c 0,5.44829 -4.24834,9.6959 -9.69702,9.6959 H 71.430703 c -5.448324,0 -9.697198,-4.24761 -9.697198,-9.6959 V 71.43038 c 0,-5.448287 4.248874,-9.695756 9.697198,-9.695756 z M 86.73039,102.90947 c -2.036595,0 -3.778796,0.70999 -5.225544,2.13019 -1.420289,1.42025 -2.130611,3.14813 -2.130611,5.1847 v 44.13441 c 0,2.03658 0.710322,3.76466 2.130611,5.18476 1.446748,1.42028 3.188949,2.13112 5.225544,2.13112 h 85.25354 c 2.0366,0 3.76522,-0.71084 5.18551,-2.13112 1.4471,-1.4201 2.17065,-3.14818 2.17065,-5.18476 v -7.39597 c 1.63425,0 3.01432,-0.56268 4.14004,-1.68804 1.15218,-1.12553 1.72809,-2.51883 1.72809,-4.18023 v -17.60585 c 0,-1.6614 -0.57591,-3.0547 -1.72809,-4.18023 -1.12572,-1.12536 -2.50579,-1.68804 -4.14004,-1.68804 v -7.39605 c 0,-2.03657 -0.72355,-3.76445 -2.17065,-5.1847 -1.42029,-1.4202 -3.14891,-2.13019 -5.18551,-2.13019 z m 0,5.86832 h 85.25354 c 0.42845,0 0.77753,0.13406 1.04546,0.40196 0.29493,0.26799 0.44186,0.61586 0.44186,1.04461 v 13.26432 h 5.86884 v 17.60585 h -5.86884 v 13.26424 c 0,0.4288 -0.1464,0.77664 -0.44186,1.04475 -0.26793,0.26793 -0.61701,0.40199 -1.04546,0.40199 H 86.73039 c -0.42898,0 -0.791108,-0.13406 -1.085502,-0.40199 -0.267936,-0.26811 -0.402345,-0.61595 -0.402345,-1.04475 v -44.13441 c 0,-0.42875 0.134056,-0.77662 0.402345,-1.04461 0.294394,-0.26797 0.656522,-0.40196 1.085502,-0.40196 z m 4.421913,5.86836 v 35.29091 h 58.764757 v -35.29091 z" />
  </g>
</svg>
