<?xml version="1.0" encoding="UTF-8" standalone="no"?>
<svg
   width="1000"
   height="1000"
   viewBox="0 0 264.58333 264.58334"
   version="1.1"
   id="svg221"
   inkscape:version="1.1.1 (3bf5ae0d25, 2021-09-20)"
   sodipodi:docname="battery v mid.svg"
   xmlns:inkscape="http://www.inkscape.org/namespaces/inkscape"
   xmlns:sodipodi="http://sodipodi.sourceforge.net/DTD/sodipodi-0.dtd"
   xmlns="http://www.w3.org/2000/svg"
   xmlns:svg="http://www.w3.org/2000/svg"
   xmlns:rdf="http://www.w3.org/1999/02/22-rdf-syntax-ns#"
   xmlns:cc="http://creativecommons.org/ns#"
   xmlns:dc="http://purl.org/dc/elements/1.1/">
  <defs
     id="defs215" />
  <sodipodi:namedview
     id="base"
     pagecolor="#ffffff"
     bordercolor="#666666"
     borderopacity="1.0"
     inkscape:pageopacity="0.0"
     inkscape:pageshadow="2"
     inkscape:zoom="0.49497474"
     inkscape:cx="439.41636"
     inkscape:cy="502.04582"
     inkscape:document-units="mm"
     inkscape:current-layer="layer1"
     inkscape:document-rotation="0"
     showgrid="false"
     units="px"
     showguides="true"
     inkscape:guide-bbox="true"
     inkscape:window-width="1366"
     inkscape:window-height="740"
     inkscape:window-x="0"
     inkscape:window-y="28"
     inkscape:window-maximized="0"
     inkscape:pagecheckerboard="0"
     inkscape:snap-bbox="true"
     inkscape:bbox-nodes="true"
     inkscape:snap-midpoints="true">
    <sodipodi:guide
       position="-5.0862631e-06,52.916663"
       orientation="0,-1"
       id="guide1048" />
    <sodipodi:guide
       position="75.848259,211.66667"
       orientation="0,-1"
       id="guide144" />
    <sodipodi:guide
       position="211.66667,269.38659"
       orientation="1,0"
       id="guide146" />
    <sodipodi:guide
       position="52.916667,269.38659"
       orientation="1,0"
       id="guide148" />
    <sodipodi:guide
       position="132.29166,211.66667"
       orientation="1,0"
       id="guide133" />
    <sodipodi:guide
       position="52.916666,132.29167"
       orientation="0,-1"
       id="guide135" />
  </sodipodi:namedview>
  <metadata
     id="metadata218">
    <rdf:RDF>
      <cc:Work
         rdf:about="">
        <dc:format>image/svg+xml</dc:format>
        <dc:type
           rdf:resource="http://purl.org/dc/dcmitype/StillImage" />
      </cc:Work>
    </rdf:RDF>
  </metadata>
  <g
     inkscape:label="Layer 1"
     inkscape:groupmode="layer"
     id="layer1">
    <path
       id="text1814-7-9-3-8-0-7-9-06-0-4-6-0"
       style="font-size:46.6692px;line-height:1.25;font-family:sans-serif;direction:rtl;display:inline;stroke-width:0.280634"
       d="m 71.430444,52.916665 c -10.179402,0 -18.513777,8.333995 -18.513777,18.513718 V 193.15278 c 0,10.1799 8.334375,18.51389 18.513777,18.51389 H 193.15289 c 10.1794,0 18.51378,-8.33399 18.51378,-18.51389 V 71.430383 c 0,-10.179723 -8.33438,-18.513718 -18.51378,-18.513718 z m 0,8.818005 H 193.15289 c 5.44689,0 9.6961,4.24743 9.6961,9.695713 V 193.15278 c 0,5.44828 -4.24921,9.69589 -9.6961,9.69589 H 71.430444 c -5.448652,0 -9.696097,-4.24761 -9.696097,-9.69589 V 71.430383 c 0,-5.448283 4.247445,-9.695713 9.696097,-9.695713 z m 15.299972,41.17485 c -2.037291,0 -3.77825,0.70997 -5.226402,2.13007 -1.419931,1.42028 -2.129014,3.14818 -2.129014,5.18476 v 44.13446 c 0,2.03658 0.709083,3.76466 2.129014,5.18476 1.448152,1.42028 3.189111,2.13112 5.226402,2.13112 h 85.254044 c 2.03553,0 3.76414,-0.71084 5.18407,-2.13112 1.44815,-1.4201 2.17135,-3.14818 2.17135,-5.18476 v -7.39596 c 1.63512,0 3.01448,-0.56268 4.13984,-1.68804 1.15182,-1.12553 1.72862,-2.51882 1.72862,-4.18022 v -17.60584 c 0,-1.6614 -0.5768,-3.05469 -1.72862,-4.18023 -1.12536,-1.12536 -2.50472,-1.68803 -4.13984,-1.68803 v -7.39614 c 0,-2.03658 -0.7232,-3.76448 -2.17135,-5.18476 -1.41993,-1.4201 -3.14678,-2.13007 -5.18407,-2.13007 z m 0,5.86827 h 85.254044 c 0.42863,0 0.77611,0.13405 1.04422,0.40199 0.29457,0.26793 0.44274,0.61577 0.44274,1.04457 v 13.2644 h 5.86846 v 17.60584 h -5.86846 v 13.26422 c 0,0.4288 -0.14111,0.77664 -0.44274,1.04475 -0.26811,0.26793 -0.61559,0.40199 -1.04422,0.40199 H 86.730416 c -0.428625,0 -0.790222,-0.13406 -1.086555,-0.40199 -0.268111,-0.26811 -0.400403,-0.61595 -0.400403,-1.04475 v -44.13446 c 0,-0.4288 0.141111,-0.77664 0.400403,-1.04457 0.296333,-0.26794 0.65793,-0.40199 1.086555,-0.40199 z m 4.42207,5.86844 v 35.29088 h 41.158584 v -35.29088 z" />
  </g>
</svg>
