<?xml version="1.0" encoding="UTF-8" standalone="no"?>
<svg
   width="1000"
   height="1000"
   viewBox="0 0 264.58333 264.58334"
   version="1.1"
   id="svg221"
   inkscape:version="1.1.1 (3bf5ae0d25, 2021-09-20)"
   sodipodi:docname="battery mid.svg"
   xmlns:inkscape="http://www.inkscape.org/namespaces/inkscape"
   xmlns:sodipodi="http://sodipodi.sourceforge.net/DTD/sodipodi-0.dtd"
   xmlns="http://www.w3.org/2000/svg"
   xmlns:svg="http://www.w3.org/2000/svg"
   xmlns:rdf="http://www.w3.org/1999/02/22-rdf-syntax-ns#"
   xmlns:cc="http://creativecommons.org/ns#"
   xmlns:dc="http://purl.org/dc/elements/1.1/">
  <defs
     id="defs215" />
  <sodipodi:namedview
     id="base"
     pagecolor="#ffffff"
     bordercolor="#666666"
     borderopacity="1.0"
     inkscape:pageopacity="0.0"
     inkscape:pageshadow="2"
     inkscape:zoom="0.49497474"
     inkscape:cx="439.41636"
     inkscape:cy="502.04582"
     inkscape:document-units="mm"
     inkscape:current-layer="layer1"
     inkscape:document-rotation="0"
     showgrid="false"
     units="px"
     showguides="true"
     inkscape:guide-bbox="true"
     inkscape:window-width="1366"
     inkscape:window-height="740"
     inkscape:window-x="0"
     inkscape:window-y="28"
     inkscape:window-maximized="0"
     inkscape:pagecheckerboard="0"
     inkscape:snap-bbox="true"
     inkscape:bbox-nodes="true"
     inkscape:snap-midpoints="true">
    <sodipodi:guide
       position="-5.0862631e-06,52.916663"
       orientation="0,-1"
       id="guide1048" />
    <sodipodi:guide
       position="75.848259,211.66667"
       orientation="0,-1"
       id="guide144" />
    <sodipodi:guide
       position="211.66667,269.38659"
       orientation="1,0"
       id="guide146" />
    <sodipodi:guide
       position="52.916667,269.38659"
       orientation="1,0"
       id="guide148" />
    <sodipodi:guide
       position="132.29166,211.66667"
       orientation="1,0"
       id="guide133" />
    <sodipodi:guide
       position="52.916666,132.29167"
       orientation="0,-1"
       id="guide135" />
  </sodipodi:namedview>
  <metadata
     id="metadata218">
    <rdf:RDF>
      <cc:Work
         rdf:about="">
        <dc:format>image/svg+xml</dc:format>
        <dc:type
           rdf:resource="http://purl.org/dc/dcmitype/StillImage" />
      </cc:Work>
    </rdf:RDF>
  </metadata>
  <g
     inkscape:label="Layer 1"
     inkscape:groupmode="layer"
     id="layer1">
    <path
       id="text1814-7-9-3-8-0-7-9-3-5"
       style="font-size:72.1127px;line-height:1.25;font-family:sans-serif;direction:rtl;display:inline;stroke-width:0.433633"
       d="m 71.430403,52.916665 c -10.179556,0 -18.513736,8.334037 -18.513736,18.513832 V 193.15282 c 0,10.1798 8.33418,18.51385 18.513736,18.51385 H 193.15293 c 10.17974,0 18.51374,-8.33405 18.51374,-18.51385 V 71.430497 c 0,-10.179795 -8.334,-18.513832 -18.51374,-18.513832 z m 0,8.817115 H 193.15293 c 5.44847,0 9.69678,4.248396 9.69678,9.696717 V 193.15282 c 0,5.44832 -4.24831,9.69672 -9.69678,9.69672 H 71.430403 c -5.448288,0 -9.695722,-4.2484 -9.695722,-9.69672 V 71.430497 c 0,-5.448321 4.247434,-9.696717 9.695722,-9.696717 z m 44.962137,17.641497 v 10.434184 h -8.94361 c -1.98754,0.16563 -3.64365,0.910946 -4.96868,2.23595 -1.32503,1.325003 -1.98808,2.981177 -1.98808,4.9687 v 81.238149 c 0,1.98747 0.66305,3.64458 1.98808,4.96958 1.32503,1.32499 2.98114,1.9871 4.96868,1.9871 h 49.68653 c 1.98755,0 3.64366,-0.66211 4.96869,-1.9871 1.32485,-1.325 1.9879,-2.98211 1.9879,-4.96958 V 97.014111 c 0,-1.987523 -0.66305,-3.643697 -1.9879,-4.9687 -1.32503,-1.325004 -2.98114,-2.070355 -4.96869,-2.23595 h -8.94378 V 79.375277 Z m -5.2174,21.117163 h 42.23411 v 21.11713 h -42.23411 z" />
  </g>
</svg>
