<?xml version="1.0" encoding="UTF-8" standalone="no"?>
<svg
   width="1000"
   height="1000"
   viewBox="0 0 264.58333 264.58334"
   version="1.1"
   id="svg221"
   inkscape:version="1.1.1 (3bf5ae0d25, 2021-09-20)"
   sodipodi:docname="bt  on.svg"
   xmlns:inkscape="http://www.inkscape.org/namespaces/inkscape"
   xmlns:sodipodi="http://sodipodi.sourceforge.net/DTD/sodipodi-0.dtd"
   xmlns="http://www.w3.org/2000/svg"
   xmlns:svg="http://www.w3.org/2000/svg"
   xmlns:rdf="http://www.w3.org/1999/02/22-rdf-syntax-ns#"
   xmlns:cc="http://creativecommons.org/ns#"
   xmlns:dc="http://purl.org/dc/elements/1.1/">
  <defs
     id="defs215" />
  <sodipodi:namedview
     id="base"
     pagecolor="#ffffff"
     bordercolor="#666666"
     borderopacity="1.0"
     inkscape:pageopacity="0.0"
     inkscape:pageshadow="2"
     inkscape:zoom="0.49497474"
     inkscape:cx="439.41636"
     inkscape:cy="502.04582"
     inkscape:document-units="mm"
     inkscape:current-layer="layer1"
     inkscape:document-rotation="0"
     showgrid="false"
     units="px"
     showguides="true"
     inkscape:guide-bbox="true"
     inkscape:window-width="1366"
     inkscape:window-height="740"
     inkscape:window-x="0"
     inkscape:window-y="28"
     inkscape:window-maximized="0"
     inkscape:pagecheckerboard="0"
     inkscape:snap-bbox="true"
     inkscape:bbox-nodes="true"
     inkscape:snap-midpoints="true">
    <sodipodi:guide
       position="-5.0862631e-06,52.916663"
       orientation="0,-1"
       id="guide1048" />
    <sodipodi:guide
       position="75.848259,211.66667"
       orientation="0,-1"
       id="guide144" />
    <sodipodi:guide
       position="211.66667,269.38659"
       orientation="1,0"
       id="guide146" />
    <sodipodi:guide
       position="52.916667,269.38659"
       orientation="1,0"
       id="guide148" />
    <sodipodi:guide
       position="132.29166,211.66667"
       orientation="1,0"
       id="guide133" />
    <sodipodi:guide
       position="52.916666,132.29167"
       orientation="0,-1"
       id="guide135" />
  </sodipodi:namedview>
  <metadata
     id="metadata218">
    <rdf:RDF>
      <cc:Work
         rdf:about="">
        <dc:format>image/svg+xml</dc:format>
        <dc:type
           rdf:resource="http://purl.org/dc/dcmitype/StillImage" />
      </cc:Work>
    </rdf:RDF>
  </metadata>
  <g
     inkscape:label="Layer 1"
     inkscape:groupmode="layer"
     id="layer1">
    <path
       id="text1814-7-9-3-8-1-9-7-5-6"
       style="font-size:72.1127px;line-height:1.25;font-family:sans-serif;direction:rtl;display:inline;stroke-width:0.433634"
       d="m 71.430527,52.916665 c -10.179625,0 -18.51386,8.334054 -18.51386,18.513832 V 193.15284 c 0,10.17978 8.334235,18.51383 18.51386,18.51383 H 193.15316 c 10.17963,0 18.51351,-8.33405 18.51351,-18.51383 V 71.430497 c 0,-10.179778 -8.33388,-18.513832 -18.51351,-18.513832 z m 0,8.81708 H 193.15316 c 5.44833,0 9.69667,4.248448 9.69667,9.696752 V 193.15284 c 0,5.4483 -4.24834,9.6967 -9.69667,9.6967 H 71.430527 c -5.448148,0 -9.696493,-4.2484 -9.696493,-9.6967 V 71.430497 c 0,-5.448304 4.248345,-9.696752 9.696493,-9.696752 z m 58.998113,17.641532 v 39.997413 l -24.34672,-24.09778 -7.452636,7.45255 29.563436,29.56421 -29.563436,29.56416 7.452636,7.4526 24.34672,-24.34669 v 40.2472 h 5.2176 l 30.30887,-30.06096 -22.85604,-22.85631 22.85604,-22.85631 -30.30887,-30.060083 z m 10.43433,20.122681 9.93797,9.937402 -9.93797,9.93733 z m 0,45.463782 9.93797,10.18624 -9.93797,9.9374 z" />
  </g>
</svg>
