<?xml version="1.0" encoding="UTF-8" standalone="no"?>
<svg
   width="1000"
   height="1000"
   viewBox="0 0 264.58333 264.58334"
   version="1.1"
   id="svg221"
   inkscape:version="1.1.1 (3bf5ae0d25, 2021-09-20)"
   sodipodi:docname="bt transfer.svg"
   xmlns:inkscape="http://www.inkscape.org/namespaces/inkscape"
   xmlns:sodipodi="http://sodipodi.sourceforge.net/DTD/sodipodi-0.dtd"
   xmlns="http://www.w3.org/2000/svg"
   xmlns:svg="http://www.w3.org/2000/svg"
   xmlns:rdf="http://www.w3.org/1999/02/22-rdf-syntax-ns#"
   xmlns:cc="http://creativecommons.org/ns#"
   xmlns:dc="http://purl.org/dc/elements/1.1/">
  <defs
     id="defs215" />
  <sodipodi:namedview
     id="base"
     pagecolor="#ffffff"
     bordercolor="#666666"
     borderopacity="1.0"
     inkscape:pageopacity="0.0"
     inkscape:pageshadow="2"
     inkscape:zoom="0.49497474"
     inkscape:cx="439.41636"
     inkscape:cy="502.04582"
     inkscape:document-units="mm"
     inkscape:current-layer="layer1"
     inkscape:document-rotation="0"
     showgrid="false"
     units="px"
     showguides="true"
     inkscape:guide-bbox="true"
     inkscape:window-width="1366"
     inkscape:window-height="740"
     inkscape:window-x="0"
     inkscape:window-y="28"
     inkscape:window-maximized="0"
     inkscape:pagecheckerboard="0"
     inkscape:snap-bbox="true"
     inkscape:bbox-nodes="true"
     inkscape:snap-midpoints="true">
    <sodipodi:guide
       position="-5.0862631e-06,52.916663"
       orientation="0,-1"
       id="guide1048" />
    <sodipodi:guide
       position="75.848259,211.66667"
       orientation="0,-1"
       id="guide144" />
    <sodipodi:guide
       position="211.66667,269.38659"
       orientation="1,0"
       id="guide146" />
    <sodipodi:guide
       position="52.916667,269.38659"
       orientation="1,0"
       id="guide148" />
    <sodipodi:guide
       position="132.29166,211.66667"
       orientation="1,0"
       id="guide133" />
    <sodipodi:guide
       position="52.916666,132.29167"
       orientation="0,-1"
       id="guide135" />
  </sodipodi:namedview>
  <metadata
     id="metadata218">
    <rdf:RDF>
      <cc:Work
         rdf:about="">
        <dc:format>image/svg+xml</dc:format>
        <dc:type
           rdf:resource="http://purl.org/dc/dcmitype/StillImage" />
      </cc:Work>
    </rdf:RDF>
  </metadata>
  <g
     inkscape:label="Layer 1"
     inkscape:groupmode="layer"
     id="layer1">
    <path
       id="text1814-7-9-4-6-0-6"
       style="font-size:72.1127px;line-height:1.25;font-family:sans-serif;direction:rtl;display:inline;stroke-width:0.43363"
       d="m 71.43058,52.916665 c -10.179557,0 -18.513913,8.334005 -18.513913,18.513723 V 193.15295 c 0,10.17972 8.334356,18.51372 18.513913,18.51372 h 121.72271 c 10.17955,0 18.51338,-8.334 18.51338,-18.51372 V 71.430388 c 0,-10.179718 -8.33383,-18.513723 -18.51338,-18.513723 z m 0,8.817963 h 121.72271 c 5.44828,0 9.6966,4.247488 9.6966,9.69576 V 193.15295 c 0,5.44827 -4.24832,9.69576 -9.6966,9.69576 H 71.43058 c -5.448288,0 -9.695723,-4.24749 -9.695723,-9.69576 V 71.430388 c 0,-5.448272 4.247435,-9.69576 9.695723,-9.69576 z m 39.74456,17.640546 V 119.6212 l -24.346551,-24.34654 -7.452061,7.45256 29.562712,29.56398 -29.562712,29.56404 7.452061,7.4525 24.346551,-24.34649 v 40.24691 h 5.21775 l 30.30849,-30.06078 -22.85502,-22.85618 22.85502,-22.85617 -30.30849,-30.059856 z m 58.13483,10.43407 -15.90089,21.364956 h 10.68314 v 15.90044 h 10.68315 V 111.1742 h 10.43391 z m -47.69951,9.688493 9.93737,9.937293 -9.93737,10.18617 z m 42.48176,38.010963 v 15.89954 h -10.68314 l 15.90089,21.36585 15.89931,-21.36585 H 174.77537 V 137.5087 Z m -42.48176,7.45255 9.93737,10.18613 -9.93737,9.93734 z" />
  </g>
</svg>
