<?xml version="1.0" encoding="UTF-8" standalone="no"?>
<svg
   width="1000"
   height="1000"
   viewBox="0 0 264.58333 264.58334"
   version="1.1"
   id="svg221"
   inkscape:version="1.1.1 (3bf5ae0d25, 2021-09-20)"
   sodipodi:docname="bt.svg"
   xmlns:inkscape="http://www.inkscape.org/namespaces/inkscape"
   xmlns:sodipodi="http://sodipodi.sourceforge.net/DTD/sodipodi-0.dtd"
   xmlns="http://www.w3.org/2000/svg"
   xmlns:svg="http://www.w3.org/2000/svg"
   xmlns:rdf="http://www.w3.org/1999/02/22-rdf-syntax-ns#"
   xmlns:cc="http://creativecommons.org/ns#"
   xmlns:dc="http://purl.org/dc/elements/1.1/">
  <defs
     id="defs215" />
  <sodipodi:namedview
     id="base"
     pagecolor="#ffffff"
     bordercolor="#666666"
     borderopacity="1.0"
     inkscape:pageopacity="0.0"
     inkscape:pageshadow="2"
     inkscape:zoom="0.49497474"
     inkscape:cx="439.41636"
     inkscape:cy="502.04582"
     inkscape:document-units="mm"
     inkscape:current-layer="layer1"
     inkscape:document-rotation="0"
     showgrid="false"
     units="px"
     showguides="true"
     inkscape:guide-bbox="true"
     inkscape:window-width="1366"
     inkscape:window-height="740"
     inkscape:window-x="0"
     inkscape:window-y="28"
     inkscape:window-maximized="0"
     inkscape:pagecheckerboard="0"
     inkscape:snap-bbox="true"
     inkscape:bbox-nodes="true"
     inkscape:snap-midpoints="true">
    <sodipodi:guide
       position="-5.0862631e-06,52.916663"
       orientation="0,-1"
       id="guide1048" />
    <sodipodi:guide
       position="75.848259,211.66667"
       orientation="0,-1"
       id="guide144" />
    <sodipodi:guide
       position="211.66667,269.38659"
       orientation="1,0"
       id="guide146" />
    <sodipodi:guide
       position="52.916667,269.38659"
       orientation="1,0"
       id="guide148" />
    <sodipodi:guide
       position="132.29166,211.66667"
       orientation="1,0"
       id="guide133" />
    <sodipodi:guide
       position="52.916666,132.29167"
       orientation="0,-1"
       id="guide135" />
  </sodipodi:namedview>
  <metadata
     id="metadata218">
    <rdf:RDF>
      <cc:Work
         rdf:about="">
        <dc:format>image/svg+xml</dc:format>
        <dc:type
           rdf:resource="http://purl.org/dc/dcmitype/StillImage" />
      </cc:Work>
    </rdf:RDF>
  </metadata>
  <g
     inkscape:label="Layer 1"
     inkscape:groupmode="layer"
     id="layer1">
    <path
       id="text1814-7-9-3-8-1-8-4-6"
       style="font-size:60px;line-height:1.25;font-family:sans-serif;direction:rtl;display:inline;stroke-width:0.360795"
       d="m 71.430506,52.916665 c -10.179436,0 -18.513839,8.334038 -18.513839,18.513769 V 193.1529 c 0,10.17972 8.334403,18.51377 18.513839,18.51377 H 193.15283 c 10.17979,0 18.51384,-8.33405 18.51384,-18.51377 V 71.430434 c 0,-10.179731 -8.33405,-18.513769 -18.51384,-18.513769 z m 0,8.818013 H 193.15283 c 5.44832,0 9.69666,4.247469 9.69666,9.695756 V 193.1529 c 0,5.44829 -4.24834,9.69669 -9.69666,9.69669 H 71.430506 c -5.448142,0 -9.697011,-4.2484 -9.697011,-9.69669 V 71.430434 c 0,-5.448287 4.248869,-9.695756 9.697011,-9.695756 z m 60.887704,17.640487 c -4.85776,0 -9.18125,0.481964 -12.97097,1.446562 -3.78956,0.964616 -7.37326,2.670345 -10.74988,5.116324 -3.34153,2.44605 -6.11419,5.650041 -8.31924,9.611902 -2.170117,3.927431 -3.892737,8.991947 -5.167327,15.193097 -1.240018,6.16672 -1.860204,13.34975 -1.860204,21.54906 0,8.19931 0.620186,15.39896 1.860204,21.6001 1.27459,6.16672 2.99721,11.21374 5.167327,15.14117 2.20505,3.96186 4.97771,7.16591 8.31924,9.6119 3.37662,2.44598 6.96032,4.15171 10.74988,5.11633 3.78972,0.9646 8.11321,1.44656 12.97097,1.44656 4.85742,0 9.1802,-0.48196 12.96975,-1.44656 3.78973,-0.96462 7.35597,-2.67035 10.69767,-5.11633 3.3417,-2.44599 6.09796,-5.65004 8.26843,-9.6119 2.20487,-3.92743 3.92714,-8.97445 5.16733,-15.14117 1.27459,-6.20114 1.91241,-13.40079 1.91241,-21.6001 0,-8.19931 -0.63782,-15.38234 -1.91241,-21.54906 -1.24019,-6.20115 -2.96246,-11.265666 -5.16733,-15.193097 -2.17047,-3.961861 -4.92673,-7.165852 -8.26843,-9.611902 -3.3417,-2.445979 -6.90794,-4.151708 -10.69767,-5.116324 -3.78955,-0.964598 -8.11233,-1.446562 -12.96975,-1.446562 z m -3.46288,7.441583 27.44021,27.388242 -18.08644,18.08712 18.08644,18.03429 -27.44021,27.44019 v -36.12145 l -15.03843,15.0892 -5.47707,-5.52925 18.86203,-18.91298 -18.86203,-18.96581 5.47707,-5.52925 15.03843,15.08917 z m 7.69959,18.655042 0.0511,17.51835 8.73322,-8.7332 z m 0.0511,36.07034 -0.0511,17.51841 8.78507,-8.78521 z" />
  </g>
</svg>
