<?xml version="1.0" encoding="UTF-8" standalone="no"?>
<svg
   width="1000"
   height="1000"
   viewBox="0 0 264.58333 264.58334"
   version="1.1"
   id="svg221"
   inkscape:version="1.1.1 (3bf5ae0d25, 2021-09-20)"
   sodipodi:docname="deck.svg"
   xmlns:inkscape="http://www.inkscape.org/namespaces/inkscape"
   xmlns:sodipodi="http://sodipodi.sourceforge.net/DTD/sodipodi-0.dtd"
   xmlns="http://www.w3.org/2000/svg"
   xmlns:svg="http://www.w3.org/2000/svg"
   xmlns:rdf="http://www.w3.org/1999/02/22-rdf-syntax-ns#"
   xmlns:cc="http://creativecommons.org/ns#"
   xmlns:dc="http://purl.org/dc/elements/1.1/">
  <defs
     id="defs215" />
  <sodipodi:namedview
     id="base"
     pagecolor="#ffffff"
     bordercolor="#666666"
     borderopacity="1.0"
     inkscape:pageopacity="0.0"
     inkscape:pageshadow="2"
     inkscape:zoom="0.49497474"
     inkscape:cx="344.46202"
     inkscape:cy="651.5484"
     inkscape:document-units="mm"
     inkscape:current-layer="layer1"
     inkscape:document-rotation="0"
     showgrid="false"
     units="px"
     showguides="true"
     inkscape:guide-bbox="true"
     inkscape:window-width="1366"
     inkscape:window-height="740"
     inkscape:window-x="0"
     inkscape:window-y="28"
     inkscape:window-maximized="0"
     inkscape:pagecheckerboard="0"
     inkscape:snap-bbox="true"
     inkscape:bbox-nodes="true"
     inkscape:snap-midpoints="true">
    <sodipodi:guide
       position="-5.0862631e-06,52.916663"
       orientation="0,-1"
       id="guide1048" />
    <sodipodi:guide
       position="75.848259,211.66667"
       orientation="0,-1"
       id="guide144" />
    <sodipodi:guide
       position="211.66667,269.38659"
       orientation="1,0"
       id="guide146" />
    <sodipodi:guide
       position="52.916667,269.38659"
       orientation="1,0"
       id="guide148" />
    <sodipodi:guide
       position="132.29166,211.66667"
       orientation="1,0"
       id="guide133" />
    <sodipodi:guide
       position="52.916666,132.29167"
       orientation="0,-1"
       id="guide135" />
  </sodipodi:namedview>
  <metadata
     id="metadata218">
    <rdf:RDF>
      <cc:Work
         rdf:about="">
        <dc:format>image/svg+xml</dc:format>
        <dc:type
           rdf:resource="http://purl.org/dc/dcmitype/StillImage" />
      </cc:Work>
    </rdf:RDF>
  </metadata>
  <g
     inkscape:label="Layer 1"
     inkscape:groupmode="layer"
     id="layer1">
    <path
       id="text1950-3-2-7-8-9-0-1-4-2-9-3-5-0-2-8"
       style="font-style:normal;font-variant:normal;font-weight:normal;font-stretch:normal;font-size:38.9562px;line-height:1.25;font-family:vi;-inkscape-font-specification:vi;direction:rtl;display:inline;fill:#000000;stroke-width:0.25768"
       d="m 71.430174,52.916665 c -10.179624,0 -18.513507,8.333999 -18.513507,18.51373 V 193.15293 c 0,10.17974 8.333883,18.51374 18.513507,18.51374 H 193.15281 c 10.17962,0 18.51386,-8.334 18.51386,-18.51374 V 71.430395 c 0,-10.179731 -8.33424,-18.51373 -18.51386,-18.51373 z m 0,8.817962 H 142.21324 V 202.84871 H 71.430174 c -5.448324,0 -9.696669,-4.24749 -9.696669,-9.69578 V 71.430395 c 0,-5.448287 4.248345,-9.695768 9.696669,-9.695768 z m 77.398026,0 h 44.32461 c 5.44815,0 9.69649,4.247481 9.69649,9.695768 V 193.15293 c 0,5.44829 -4.24834,9.69578 -9.69649,9.69578 H 148.8282 Z m 10.44703,46.131693 v 48.85162 h 13.52168 c 4.38399,-0.0448 8.22029,-0.99558 11.50872,-2.85214 3.31031,-1.85653 5.84855,-4.51873 7.61545,-7.98577 1.78947,-3.46702 2.68447,-7.50439 2.68447,-12.11217 v -3.12012 c -0.0229,-4.49595 -0.92869,-8.47743 -2.71798,-11.94445 -1.7669,-3.46702 -4.28327,-6.1397 -7.54931,-8.01857 -3.2655,-1.8789 -7.02295,-2.8184 -11.27253,-2.8184 z m 6.44175,5.30043 h 7.51614 c 4.78704,0.0448 8.47764,1.61117 11.07251,4.69794 2.61674,3.06441 3.92485,7.36981 3.92485,12.91709 v 2.85209 c 0,5.70381 -1.3866,10.09918 -4.16015,13.18595 -2.75115,3.08676 -6.60985,4.63049 -11.5754,4.63049 h -6.77795 z" />
  </g>
</svg>
