<?xml version="1.0" encoding="UTF-8" standalone="no"?>
<svg
   width="1000"
   height="1000"
   viewBox="0 0 264.58333 264.58334"
   version="1.1"
   id="svg221"
   inkscape:version="1.1.1 (3bf5ae0d25, 2021-09-20)"
   sodipodi:docname="fibonacci spiral.svg"
   xmlns:inkscape="http://www.inkscape.org/namespaces/inkscape"
   xmlns:sodipodi="http://sodipodi.sourceforge.net/DTD/sodipodi-0.dtd"
   xmlns="http://www.w3.org/2000/svg"
   xmlns:svg="http://www.w3.org/2000/svg"
   xmlns:rdf="http://www.w3.org/1999/02/22-rdf-syntax-ns#"
   xmlns:cc="http://creativecommons.org/ns#"
   xmlns:dc="http://purl.org/dc/elements/1.1/">
  <defs
     id="defs215" />
  <sodipodi:namedview
     id="base"
     pagecolor="#ffffff"
     bordercolor="#666666"
     borderopacity="1.0"
     inkscape:pageopacity="0.0"
     inkscape:pageshadow="2"
     inkscape:zoom="0.49497474"
     inkscape:cx="344.46202"
     inkscape:cy="651.5484"
     inkscape:document-units="mm"
     inkscape:current-layer="layer1"
     inkscape:document-rotation="0"
     showgrid="false"
     units="px"
     showguides="true"
     inkscape:guide-bbox="true"
     inkscape:window-width="1366"
     inkscape:window-height="740"
     inkscape:window-x="0"
     inkscape:window-y="28"
     inkscape:window-maximized="0"
     inkscape:pagecheckerboard="0"
     inkscape:snap-bbox="true"
     inkscape:bbox-nodes="true"
     inkscape:snap-midpoints="true">
    <sodipodi:guide
       position="-5.0862631e-06,52.916663"
       orientation="0,-1"
       id="guide1048" />
    <sodipodi:guide
       position="75.848259,211.66667"
       orientation="0,-1"
       id="guide144" />
    <sodipodi:guide
       position="211.66667,269.38659"
       orientation="1,0"
       id="guide146" />
    <sodipodi:guide
       position="52.916667,269.38659"
       orientation="1,0"
       id="guide148" />
    <sodipodi:guide
       position="132.29166,211.66667"
       orientation="1,0"
       id="guide133" />
    <sodipodi:guide
       position="52.916666,132.29167"
       orientation="0,-1"
       id="guide135" />
  </sodipodi:namedview>
  <metadata
     id="metadata218">
    <rdf:RDF>
      <cc:Work
         rdf:about="">
        <dc:format>image/svg+xml</dc:format>
        <dc:type
           rdf:resource="http://purl.org/dc/dcmitype/StillImage" />
      </cc:Work>
    </rdf:RDF>
  </metadata>
  <g
     inkscape:label="Layer 1"
     inkscape:groupmode="layer"
     id="layer1">
    <path
       id="rect1761-8-8-8-5-7"
       style="display:inline;opacity:0.999;fill:#000000;fill-opacity:1;stroke:none;stroke-width:10.1545;stroke-miterlimit:4;stroke-dasharray:none;stroke-opacity:1"
       d="m 71.430174,52.916665 c -10.179624,0 -18.513507,8.334004 -18.513507,18.513742 V 193.15295 c 0,10.17973 8.333883,18.51372 18.513507,18.51372 h 100.548996 6.61496 14.55868 c 10.17962,0 18.51386,-8.33399 18.51386,-18.51372 V 135.5991 128.98515 71.430407 c 0,-10.179738 -8.33424,-18.513742 -18.51386,-18.513742 z m 0,8.817962 h 70.783066 v 67.250523 6.61395 33.07333 6.61395 27.56233 H 71.430174 c -5.448324,0 -9.696669,-4.24747 -9.696669,-9.69576 V 71.430407 c 0,-5.448292 4.248345,-9.69578 9.696669,-9.69578 z m 77.398026,0 h 44.32461 c 5.44815,0 9.69649,4.247488 9.69649,9.69578 v 57.554743 h -54.0211 z m 0,73.864473 h 23.15097 v 33.07333 H 148.8282 Z m 29.76593,0 h 24.25517 v 57.55385 c 0,5.44829 -4.24834,9.69576 -9.69649,9.69576 h -14.55868 z m -29.76593,39.68728 h 23.15097 v 27.56233 H 148.8282 Z" />
  </g>
</svg>
