<?xml version="1.0" encoding="UTF-8" standalone="no"?>
<svg
   width="1000"
   height="1000"
   viewBox="0 0 264.58333 264.58334"
   version="1.1"
   id="svg221"
   inkscape:version="1.1.1 (3bf5ae0d25, 2021-09-20)"
   sodipodi:docname="fibonacci.svg"
   xmlns:inkscape="http://www.inkscape.org/namespaces/inkscape"
   xmlns:sodipodi="http://sodipodi.sourceforge.net/DTD/sodipodi-0.dtd"
   xmlns="http://www.w3.org/2000/svg"
   xmlns:svg="http://www.w3.org/2000/svg"
   xmlns:rdf="http://www.w3.org/1999/02/22-rdf-syntax-ns#"
   xmlns:cc="http://creativecommons.org/ns#"
   xmlns:dc="http://purl.org/dc/elements/1.1/">
  <defs
     id="defs215" />
  <sodipodi:namedview
     id="base"
     pagecolor="#ffffff"
     bordercolor="#666666"
     borderopacity="1.0"
     inkscape:pageopacity="0.0"
     inkscape:pageshadow="2"
     inkscape:zoom="0.49497474"
     inkscape:cx="344.46202"
     inkscape:cy="651.5484"
     inkscape:document-units="mm"
     inkscape:current-layer="layer1"
     inkscape:document-rotation="0"
     showgrid="false"
     units="px"
     showguides="true"
     inkscape:guide-bbox="true"
     inkscape:window-width="1366"
     inkscape:window-height="740"
     inkscape:window-x="0"
     inkscape:window-y="28"
     inkscape:window-maximized="0"
     inkscape:pagecheckerboard="0"
     inkscape:snap-bbox="true"
     inkscape:bbox-nodes="true"
     inkscape:snap-midpoints="true">
    <sodipodi:guide
       position="-5.0862631e-06,52.916663"
       orientation="0,-1"
       id="guide1048" />
    <sodipodi:guide
       position="75.848259,211.66667"
       orientation="0,-1"
       id="guide144" />
    <sodipodi:guide
       position="211.66667,269.38659"
       orientation="1,0"
       id="guide146" />
    <sodipodi:guide
       position="52.916667,269.38659"
       orientation="1,0"
       id="guide148" />
    <sodipodi:guide
       position="132.29166,211.66667"
       orientation="1,0"
       id="guide133" />
    <sodipodi:guide
       position="52.916666,132.29167"
       orientation="0,-1"
       id="guide135" />
  </sodipodi:namedview>
  <metadata
     id="metadata218">
    <rdf:RDF>
      <cc:Work
         rdf:about="">
        <dc:format>image/svg+xml</dc:format>
        <dc:type
           rdf:resource="http://purl.org/dc/dcmitype/StillImage" />
      </cc:Work>
    </rdf:RDF>
  </metadata>
  <g
     inkscape:label="Layer 1"
     inkscape:groupmode="layer"
     id="layer1">
    <path
       id="rect1761-8-8-8-5"
       style="display:inline;opacity:0.999;fill:#000000;fill-opacity:1;stroke:none;stroke-width:10.1545;stroke-miterlimit:4;stroke-dasharray:none;stroke-opacity:1"
       d="m 71.430527,52.916665 c -10.179625,0 -18.51386,8.334035 -18.51386,18.513881 V 193.15284 c 0,10.1798 8.334235,18.51383 18.51386,18.51383 h 103.856653 6.61391 11.25207 c 10.17963,0 18.51351,-8.33403 18.51351,-18.51383 v -17.86667 -6.61399 -33.07351 -6.61399 -57.554134 c 0,-10.179846 -8.33388,-18.513881 -18.51351,-18.513881 h -44.32461 -6.61496 z m 0,8.817113 h 70.783063 v 67.250902 6.61399 67.25089 H 71.430527 c -5.448148,0 -9.696493,-4.2484 -9.696493,-9.69672 V 71.430546 c 0,-5.44832 4.248345,-9.696768 9.696493,-9.696768 z m 77.398023,0 h 44.32461 c 5.44833,0 9.69667,4.248448 9.69667,9.696768 v 57.554134 h -54.02128 z m 0,73.864892 h 26.45863 v 33.07351 6.61399 27.56339 h -26.45863 z m 33.07254,0 h 20.94874 v 33.07351 h -20.94874 z m 0,39.6875 h 20.94874 v 17.86667 c 0,5.44832 -4.24834,9.69672 -9.69667,9.69672 h -11.25207 z" />
  </g>
</svg>
