<?xml version="1.0" encoding="UTF-8" standalone="no"?>
<svg
   width="1000"
   height="1000"
   viewBox="0 0 264.58333 264.58334"
   version="1.1"
   id="svg221"
   inkscape:version="1.1.1 (3bf5ae0d25, 2021-09-20)"
   sodipodi:docname="move from.svg"
   xmlns:inkscape="http://www.inkscape.org/namespaces/inkscape"
   xmlns:sodipodi="http://sodipodi.sourceforge.net/DTD/sodipodi-0.dtd"
   xmlns="http://www.w3.org/2000/svg"
   xmlns:svg="http://www.w3.org/2000/svg"
   xmlns:rdf="http://www.w3.org/1999/02/22-rdf-syntax-ns#"
   xmlns:cc="http://creativecommons.org/ns#"
   xmlns:dc="http://purl.org/dc/elements/1.1/">
  <defs
     id="defs215" />
  <sodipodi:namedview
     id="base"
     pagecolor="#ffffff"
     bordercolor="#666666"
     borderopacity="1.0"
     inkscape:pageopacity="0.0"
     inkscape:pageshadow="2"
     inkscape:zoom="0.69999999"
     inkscape:cx="507.85715"
     inkscape:cy="449.28572"
     inkscape:document-units="mm"
     inkscape:current-layer="layer1"
     inkscape:document-rotation="0"
     showgrid="false"
     units="px"
     showguides="true"
     inkscape:guide-bbox="true"
     inkscape:window-width="1366"
     inkscape:window-height="740"
     inkscape:window-x="0"
     inkscape:window-y="28"
     inkscape:window-maximized="0"
     inkscape:pagecheckerboard="0"
     inkscape:snap-bbox="true"
     inkscape:bbox-nodes="true"
     inkscape:snap-midpoints="true">
    <sodipodi:guide
       position="-5.0862631e-06,52.916663"
       orientation="0,-1"
       id="guide1048" />
    <sodipodi:guide
       position="75.848259,211.66667"
       orientation="0,-1"
       id="guide144" />
    <sodipodi:guide
       position="211.66667,269.38659"
       orientation="1,0"
       id="guide146" />
    <sodipodi:guide
       position="52.916667,269.38659"
       orientation="1,0"
       id="guide148" />
    <sodipodi:guide
       position="132.29166,211.66667"
       orientation="1,0"
       id="guide133" />
    <sodipodi:guide
       position="52.916666,132.29167"
       orientation="0,-1"
       id="guide135" />
  </sodipodi:namedview>
  <metadata
     id="metadata218">
    <rdf:RDF>
      <cc:Work
         rdf:about="">
        <dc:format>image/svg+xml</dc:format>
        <dc:type
           rdf:resource="http://purl.org/dc/dcmitype/StillImage" />
      </cc:Work>
    </rdf:RDF>
  </metadata>
  <g
     inkscape:label="Layer 1"
     inkscape:groupmode="layer"
     id="layer1">
    <path
       id="text1814-7-9-1-7-6-5-1-3"
       style="font-size:62.9509px;line-height:1.25;font-family:sans-serif;direction:rtl;display:inline;stroke-width:0.378539"
       d="m 71.430405,52.916665 c -10.179556,0 -18.513738,8.333837 -18.513738,18.513583 V 193.15291 c 0,10.17975 8.334182,18.51376 18.513738,18.51376 H 193.15293 c 10.17974,0 18.51374,-8.33401 18.51374,-18.51376 V 71.430248 c 0,-10.179746 -8.334,-18.513583 -18.51374,-18.513583 z m 0,8.817848 H 193.15293 c 5.44847,0 9.69573,4.24744 9.69573,9.695735 V 193.15291 c 0,5.4483 -4.24726,9.69591 -9.69573,9.69591 H 71.430405 c -5.448288,0 -9.695899,-4.24761 -9.695899,-9.69591 V 71.430248 c 0,-5.448295 4.247611,-9.695735 9.695899,-9.695735 z m 17.920189,17.640635 c -1.879419,0 -3.469562,0.650345 -4.77078,1.951564 -1.301218,1.30122 -1.952444,2.81975 -1.952444,4.55471 v 92.820488 c 0,1.73496 0.651226,3.25349 1.952444,4.55471 1.301218,1.30122 2.891361,1.95157 4.77078,1.95157 H 164.3882 c 1.73496,0 3.25278,-0.65035 4.554,-1.95157 1.30122,-1.30122 1.95244,-2.81975 1.95244,-4.55471 v -0.86695 l -0.65087,0.65 c -2.4578,2.60243 -5.49415,3.90401 -9.1087,3.90401 -3.32528,0 -6.36163,-1.22926 -9.1087,-3.68706 l -19.73523,-19.73525 c -2.4578,-2.4578 -3.68705,-5.49415 -3.68705,-9.10871 0,-3.32546 1.15675,-6.36093 3.47009,-9.10783 l 17.56671,-17.34975 h -16.26514 c -2.02406,0 -3.54276,-0.65123 -4.5547,-1.95263 -1.30122,-1.30104 -1.95157,-2.81887 -1.95157,-4.55382 V 79.375148 Z m 46.193676,0.216958 v 35.133284 h 35.13342 c -0.57838,-3.75902 -2.02459,-6.79537 -4.33793,-9.10871 L 144.65315,83.928975 c -2.31333,-2.313338 -5.34968,-3.758667 -9.10888,-4.336869 z m 25.5908,46.844434 c -0.86748,0 -1.80728,0.3609 -2.81939,1.08391 l -19.5181,19.5181 c -0.72301,1.01212 -1.08479,1.95192 -1.08479,2.8194 0,1.01194 0.36178,1.87942 1.08479,2.60226 l 19.5181,19.73614 c 1.01211,0.72301 1.95191,1.08373 2.81939,1.08373 1.01212,0 1.87942,-0.36072 2.60244,-1.08373 l 2.3853,-2.38637 c 0.72301,-0.72284 1.08479,-1.59032 1.08479,-2.60226 0,-0.86766 -0.36178,-1.80728 -1.08479,-2.8194 l -8.89175,-8.67479 h 21.25376 c 1.01212,0 1.8071,-0.43339 2.38548,-1.30087 0.72284,-0.72284 1.08461,-1.59032 1.08461,-2.60226 v -3.90401 c 0,-0.86748 -0.36177,-1.80728 -1.08461,-2.8194 -0.72302,-0.72284 -1.518,-1.08462 -2.38548,-1.08462 h -21.25376 l 8.89175,-8.67495 c 0.72301,-1.01194 1.08479,-1.95174 1.08479,-2.81922 0,-0.86748 -0.36178,-1.80728 -1.08479,-2.8194 l -2.3853,-2.16835 c -0.72302,-0.72301 -1.59032,-1.08391 -2.60244,-1.08391 z" />
  </g>
</svg>
