<?xml version="1.0" encoding="UTF-8" standalone="no"?>
<svg
   width="1000"
   height="1000"
   viewBox="0 0 264.58333 264.58334"
   version="1.1"
   id="svg221"
   inkscape:version="1.1.1 (3bf5ae0d25, 2021-09-20)"
   sodipodi:docname="G.svg"
   xmlns:inkscape="http://www.inkscape.org/namespaces/inkscape"
   xmlns:sodipodi="http://sodipodi.sourceforge.net/DTD/sodipodi-0.dtd"
   xmlns="http://www.w3.org/2000/svg"
   xmlns:svg="http://www.w3.org/2000/svg"
   xmlns:rdf="http://www.w3.org/1999/02/22-rdf-syntax-ns#"
   xmlns:cc="http://creativecommons.org/ns#"
   xmlns:dc="http://purl.org/dc/elements/1.1/">
  <defs
     id="defs215" />
  <sodipodi:namedview
     id="base"
     pagecolor="#ffffff"
     bordercolor="#666666"
     borderopacity="1.0"
     inkscape:pageopacity="0.0"
     inkscape:pageshadow="2"
     inkscape:zoom="0.49497474"
     inkscape:cx="344.46202"
     inkscape:cy="651.5484"
     inkscape:document-units="mm"
     inkscape:current-layer="layer1"
     inkscape:document-rotation="0"
     showgrid="false"
     units="px"
     showguides="true"
     inkscape:guide-bbox="true"
     inkscape:window-width="1366"
     inkscape:window-height="740"
     inkscape:window-x="0"
     inkscape:window-y="28"
     inkscape:window-maximized="0"
     inkscape:pagecheckerboard="0"
     inkscape:snap-bbox="true"
     inkscape:bbox-nodes="true"
     inkscape:snap-midpoints="true">
    <sodipodi:guide
       position="-5.0862631e-06,52.916663"
       orientation="0,-1"
       id="guide1048" />
    <sodipodi:guide
       position="-5.0862631e-06,211.66667"
       orientation="0,-1"
       id="guide144" />
    <sodipodi:guide
       position="211.66667,269.38659"
       orientation="1,0"
       id="guide146" />
    <sodipodi:guide
       position="52.916667,269.38659"
       orientation="1,0"
       id="guide148" />
    <sodipodi:guide
       position="132.29166,211.66667"
       orientation="1,0"
       id="guide133" />
    <sodipodi:guide
       position="52.916666,132.29167"
       orientation="0,-1"
       id="guide135" />
  </sodipodi:namedview>
  <metadata
     id="metadata218">
    <rdf:RDF>
      <cc:Work
         rdf:about="">
        <dc:format>image/svg+xml</dc:format>
        <dc:type
           rdf:resource="http://purl.org/dc/dcmitype/StillImage" />
      </cc:Work>
    </rdf:RDF>
  </metadata>
  <g
     inkscape:label="Layer 1"
     inkscape:groupmode="layer"
     id="layer1">
    <path
       id="text1950-3-2-7-8-9-0-1-4-2-9-3-5-9-2"
       style="font-style:normal;font-variant:normal;font-weight:normal;font-stretch:normal;font-size:82.139px;line-height:1.25;font-family:vi;-inkscape-font-specification:vi;direction:rtl;display:inline;fill:#000000;stroke-width:0.543317"
       d="m 71.430455,52.916665 c -10.17955,0 -18.513788,8.333998 -18.513788,18.51373 V 193.15295 c 0,10.17973 8.334238,18.51372 18.513788,18.51372 H 193.15288 c 10.18001,0 18.51379,-8.33399 18.51379,-18.51372 V 71.430395 c 0,-10.179732 -8.33378,-18.51373 -18.51379,-18.51373 z m 0,8.817961 H 193.15288 c 5.44867,0 9.69605,4.247482 9.69605,9.695769 V 193.15295 c 0,5.44829 -4.24738,9.69576 -9.69605,9.69576 H 71.430455 c -5.448197,0 -9.695588,-4.24747 -9.695588,-9.69576 V 71.430395 c 0,-5.448287 4.247391,-9.695769 9.695588,-9.695769 z m 62.559975,17.640545 c -13.11132,-4.6e-5 -23.29927,4.268482 -30.56197,12.804888 -7.21604,8.536451 -10.823591,20.562991 -10.823591,36.079511 v 8.98388 c 0.09428,9.57405 1.910181,17.99316 5.447262,25.2562 3.584219,7.26307 8.631059,12.87489 15.139119,16.83657 6.50852,3.91449 13.96024,5.87194 22.35516,5.87194 8.30061,0 15.56426,-1.22638 21.78951,-3.67885 6.27284,-2.49962 11.15353,-6.24881 14.64348,-11.24805 V 132.5036 h -37.35286 v 11.03658 h 23.84065 v 23.1333 c -2.49962,2.68825 -5.65963,4.59789 -9.47952,5.72976 -3.82036,1.13192 -8.27684,1.69816 -13.37033,1.69816 -9.00815,0 -16.15371,-3.39562 -21.43577,-10.18706 -5.28252,-6.83861 -7.92307,-16.03572 -7.92307,-27.59062 v -8.41781 c 0.0471,-12.12081 2.40534,-21.36491 7.07416,-27.73184 4.71642,-6.414157 11.62537,-9.621049 20.72778,-9.621049 13.67743,0 21.78999,6.814302 24.33674,20.444349 h 13.58222 c -1.46169,-10.09283 -5.4706,-17.873888 -12.02626,-23.344762 -6.55566,-5.518057 -15.20959,-8.277437 -25.96271,-8.277437 z" />
  </g>
</svg>
