<?xml version="1.0" encoding="UTF-8" standalone="no"?>
<svg
   width="1000"
   height="1000"
   viewBox="0 0 264.58333 264.58334"
   version="1.1"
   id="svg221"
   inkscape:version="1.1.1 (3bf5ae0d25, 2021-09-20)"
   sodipodi:docname="J.svg"
   xmlns:inkscape="http://www.inkscape.org/namespaces/inkscape"
   xmlns:sodipodi="http://sodipodi.sourceforge.net/DTD/sodipodi-0.dtd"
   xmlns="http://www.w3.org/2000/svg"
   xmlns:svg="http://www.w3.org/2000/svg"
   xmlns:rdf="http://www.w3.org/1999/02/22-rdf-syntax-ns#"
   xmlns:cc="http://creativecommons.org/ns#"
   xmlns:dc="http://purl.org/dc/elements/1.1/">
  <defs
     id="defs215" />
  <sodipodi:namedview
     id="base"
     pagecolor="#ffffff"
     bordercolor="#666666"
     borderopacity="1.0"
     inkscape:pageopacity="0.0"
     inkscape:pageshadow="2"
     inkscape:zoom="0.49497474"
     inkscape:cx="344.46202"
     inkscape:cy="651.5484"
     inkscape:document-units="mm"
     inkscape:current-layer="layer1"
     inkscape:document-rotation="0"
     showgrid="false"
     units="px"
     showguides="true"
     inkscape:guide-bbox="true"
     inkscape:window-width="1366"
     inkscape:window-height="740"
     inkscape:window-x="0"
     inkscape:window-y="28"
     inkscape:window-maximized="0"
     inkscape:pagecheckerboard="0"
     inkscape:snap-bbox="true"
     inkscape:bbox-nodes="true"
     inkscape:snap-midpoints="true">
    <sodipodi:guide
       position="-5.0862631e-06,52.916663"
       orientation="0,-1"
       id="guide1048" />
    <sodipodi:guide
       position="-5.0862631e-06,211.66667"
       orientation="0,-1"
       id="guide144" />
    <sodipodi:guide
       position="211.66667,269.38659"
       orientation="1,0"
       id="guide146" />
    <sodipodi:guide
       position="52.916667,269.38659"
       orientation="1,0"
       id="guide148" />
    <sodipodi:guide
       position="132.29166,211.66667"
       orientation="1,0"
       id="guide133" />
    <sodipodi:guide
       position="52.916666,132.29167"
       orientation="0,-1"
       id="guide135" />
  </sodipodi:namedview>
  <metadata
     id="metadata218">
    <rdf:RDF>
      <cc:Work
         rdf:about="">
        <dc:format>image/svg+xml</dc:format>
        <dc:type
           rdf:resource="http://purl.org/dc/dcmitype/StillImage" />
      </cc:Work>
    </rdf:RDF>
  </metadata>
  <g
     inkscape:label="Layer 1"
     inkscape:groupmode="layer"
     id="layer1">
    <path
       id="text1950-3-2-7-8-9-0-1-4-2-9-3-5-92-4"
       style="font-style:normal;font-variant:normal;font-weight:normal;font-stretch:normal;font-size:83.252px;line-height:1.25;font-family:vi;-inkscape-font-specification:vi;direction:rtl;display:inline;fill:#000000;stroke-width:0.550676"
       d="m 71.430453,52.916665 c -10.179547,0 -18.513786,8.333998 -18.513786,18.513786 V 193.15295 c 0,10.17973 8.334239,18.51372 18.513786,18.51372 H 193.15288 c 10.18003,0 18.51379,-8.33399 18.51379,-18.51372 V 71.430451 c 0,-10.179788 -8.33376,-18.513786 -18.51379,-18.513786 z m 0,8.818008 H 193.15288 c 5.44867,0 9.69607,4.247489 9.69607,9.695778 V 193.15295 c 0,5.44829 -4.2474,9.69576 -9.69607,9.69576 H 71.430453 c -5.448204,0 -9.695589,-4.24747 -9.695589,-9.69576 V 71.430451 c 0,-5.448289 4.247385,-9.695778 9.695589,-9.695778 z m 79.970037,17.640494 v 74.140653 c -0.048,6.45322 -1.83971,11.47215 -5.37726,15.0573 -3.48947,3.58509 -8.07895,5.37791 -13.7675,5.37791 -6.21403,0 -10.9706,-1.67268 -14.26873,-5.01879 -3.25053,-3.34616 -4.87556,-8.0074 -4.87556,-13.98263 H 99.344871 c 0,9.56038 2.891649,16.99417 8.675389,22.30017 5.78423,5.30603 13.8627,7.95843 24.23547,7.95843 9.99055,0 17.97383,-2.82004 23.94892,-8.46065 6.02316,-5.64062 9.03521,-13.45631 9.03521,-23.44688 V 79.375167 Z" />
  </g>
</svg>
