<?xml version="1.0" encoding="UTF-8" standalone="no"?>
<svg
   width="1000"
   height="1000"
   viewBox="0 0 264.58333 264.58334"
   version="1.1"
   id="svg221"
   inkscape:version="1.1.1 (3bf5ae0d25, 2021-09-20)"
   sodipodi:docname="light.svg"
   xmlns:inkscape="http://www.inkscape.org/namespaces/inkscape"
   xmlns:sodipodi="http://sodipodi.sourceforge.net/DTD/sodipodi-0.dtd"
   xmlns="http://www.w3.org/2000/svg"
   xmlns:svg="http://www.w3.org/2000/svg"
   xmlns:rdf="http://www.w3.org/1999/02/22-rdf-syntax-ns#"
   xmlns:cc="http://creativecommons.org/ns#"
   xmlns:dc="http://purl.org/dc/elements/1.1/">
  <defs
     id="defs215" />
  <sodipodi:namedview
     id="base"
     pagecolor="#ffffff"
     bordercolor="#666666"
     borderopacity="1.0"
     inkscape:pageopacity="0.0"
     inkscape:pageshadow="2"
     inkscape:zoom="0.49497474"
     inkscape:cx="439.41636"
     inkscape:cy="502.04582"
     inkscape:document-units="mm"
     inkscape:current-layer="layer1"
     inkscape:document-rotation="0"
     showgrid="false"
     units="px"
     showguides="true"
     inkscape:guide-bbox="true"
     inkscape:window-width="1366"
     inkscape:window-height="740"
     inkscape:window-x="0"
     inkscape:window-y="28"
     inkscape:window-maximized="0"
     inkscape:pagecheckerboard="0"
     inkscape:snap-bbox="true"
     inkscape:bbox-nodes="true"
     inkscape:snap-midpoints="true">
    <sodipodi:guide
       position="-5.0862631e-06,52.916663"
       orientation="0,-1"
       id="guide1048" />
    <sodipodi:guide
       position="75.848259,211.66667"
       orientation="0,-1"
       id="guide144" />
    <sodipodi:guide
       position="211.66667,269.38659"
       orientation="1,0"
       id="guide146" />
    <sodipodi:guide
       position="52.916667,269.38659"
       orientation="1,0"
       id="guide148" />
    <sodipodi:guide
       position="132.29166,211.66667"
       orientation="1,0"
       id="guide133" />
    <sodipodi:guide
       position="52.916666,132.29167"
       orientation="0,-1"
       id="guide135" />
  </sodipodi:namedview>
  <metadata
     id="metadata218">
    <rdf:RDF>
      <cc:Work
         rdf:about="">
        <dc:format>image/svg+xml</dc:format>
        <dc:type
           rdf:resource="http://purl.org/dc/dcmitype/StillImage" />
      </cc:Work>
    </rdf:RDF>
  </metadata>
  <g
     inkscape:label="Layer 1"
     inkscape:groupmode="layer"
     id="layer1">
    <path
       id="text1814-7-9-3-8-0-78-3"
       style="font-size:65.3617px;line-height:1.25;font-family:sans-serif;direction:rtl;display:inline;stroke-width:0.393036"
       d="m 71.430403,52.916665 c -10.179556,0 -18.513736,8.334005 -18.513736,18.51374 V 193.15295 c 0,10.17972 8.33418,18.51372 18.513736,18.51372 H 193.15293 c 10.17974,0 18.51374,-8.334 18.51374,-18.51372 V 71.430405 c 0,-10.179735 -8.334,-18.51374 -18.51374,-18.51374 z m 0,8.818016 H 193.15293 c 5.44847,0 9.69573,4.247435 9.69573,9.695724 V 193.15295 c 0,5.44829 -4.24726,9.69576 -9.69573,9.69576 H 71.430403 c -5.448288,0 -9.695722,-4.24747 -9.695722,-9.69576 V 71.430405 c 0,-5.448289 4.247434,-9.695724 9.695722,-9.695724 z m 56.132817,17.640493 v 14.411014 h 9.4569 V 79.375174 Z m -29.273259,12.159591 -6.755327,6.755222 10.133346,10.133293 6.75532,-6.75522 z m 68.003409,0 -10.13246,10.133295 6.75533,6.75522 10.13228,-10.133293 z m -34.00135,11.934415 c -8.10629,0.1501 -14.89936,2.96495 -20.37869,8.44428 -5.47916,5.47926 -8.29414,12.27234 -8.44425,20.37868 0,5.40422 1.31339,10.28272 3.94052,14.63615 2.62713,4.35341 6.11715,7.80644 10.4706,10.35841 v 8.5564 c 0,1.35107 0.45102,2.47734 1.35166,3.37807 0.90082,0.90073 2.02618,1.42589 3.37714,1.57603 h 19.36516 c 1.35114,-0.15011 2.47738,-0.6753 3.37802,-1.57603 0.90082,-0.90073 1.35096,-2.027 1.35096,-3.37807 v -8.5564 c 4.35344,-2.55197 7.84347,-6.005 10.47042,-10.35841 2.62713,-4.35343 3.94052,-9.23193 3.94052,-14.63615 -0.14993,-8.10634 -2.96491,-14.89942 -8.44425,-20.37868 -5.47933,-5.47933 -12.27134,-8.29416 -20.37781,-8.44428 z m -52.916903,24.09404 v 9.45695 h 14.411117 v -9.45695 z m 91.421983,0 v 9.45695 h 14.41094 v -9.45695 z m -48.1881,47.9629 v 4.72799 c 0.14993,1.35109 0.67539,2.47736 1.57603,3.37807 0.90081,0.90073 2.02705,1.42589 3.37819,1.57603 h 9.4569 c 1.35113,-0.1501 2.47737,-0.6753 3.37801,-1.57603 0.90082,-0.90071 1.42593,-2.02698 1.57603,-3.37807 v -4.72799 z" />
  </g>
</svg>
