<?xml version="1.0" encoding="UTF-8" standalone="no"?>
<svg
   width="1000"
   height="1000"
   viewBox="0 0 264.58333 264.58334"
   version="1.1"
   id="svg221"
   inkscape:version="1.1.1 (3bf5ae0d25, 2021-09-20)"
   sodipodi:docname="lock.svg"
   xmlns:inkscape="http://www.inkscape.org/namespaces/inkscape"
   xmlns:sodipodi="http://sodipodi.sourceforge.net/DTD/sodipodi-0.dtd"
   xmlns="http://www.w3.org/2000/svg"
   xmlns:svg="http://www.w3.org/2000/svg"
   xmlns:rdf="http://www.w3.org/1999/02/22-rdf-syntax-ns#"
   xmlns:cc="http://creativecommons.org/ns#"
   xmlns:dc="http://purl.org/dc/elements/1.1/">
  <defs
     id="defs215" />
  <sodipodi:namedview
     id="base"
     pagecolor="#ffffff"
     bordercolor="#666666"
     borderopacity="1.0"
     inkscape:pageopacity="0.0"
     inkscape:pageshadow="2"
     inkscape:zoom="0.69999999"
     inkscape:cx="439.28572"
     inkscape:cy="502.14286"
     inkscape:document-units="mm"
     inkscape:current-layer="layer1"
     inkscape:document-rotation="0"
     showgrid="false"
     units="px"
     showguides="true"
     inkscape:guide-bbox="true"
     inkscape:window-width="1366"
     inkscape:window-height="740"
     inkscape:window-x="0"
     inkscape:window-y="28"
     inkscape:window-maximized="0"
     inkscape:pagecheckerboard="0"
     inkscape:snap-bbox="true"
     inkscape:bbox-nodes="true"
     inkscape:snap-midpoints="true">
    <sodipodi:guide
       position="-5.0862631e-06,52.916663"
       orientation="0,-1"
       id="guide1048" />
    <sodipodi:guide
       position="75.848259,211.66667"
       orientation="0,-1"
       id="guide144" />
    <sodipodi:guide
       position="211.66667,269.38659"
       orientation="1,0"
       id="guide146" />
    <sodipodi:guide
       position="52.916667,269.38659"
       orientation="1,0"
       id="guide148" />
    <sodipodi:guide
       position="132.29166,211.66667"
       orientation="1,0"
       id="guide133" />
    <sodipodi:guide
       position="52.916666,132.29167"
       orientation="0,-1"
       id="guide135" />
  </sodipodi:namedview>
  <metadata
     id="metadata218">
    <rdf:RDF>
      <cc:Work
         rdf:about="">
        <dc:format>image/svg+xml</dc:format>
        <dc:type
           rdf:resource="http://purl.org/dc/dcmitype/StillImage" />
      </cc:Work>
    </rdf:RDF>
  </metadata>
  <g
     inkscape:label="Layer 1"
     inkscape:groupmode="layer"
     id="layer1">
    <path
       id="text1814-7-9-3-8-0-7-9-9-8-4"
       style="font-size:76.323px;line-height:1.25;font-family:sans-serif;direction:rtl;display:inline;stroke-width:0.458952"
       d="m 71.430703,52.916665 c -10.179624,0 -18.514036,8.334051 -18.514036,18.513841 V 193.15283 c 0,10.17979 8.334412,18.51384 18.514036,18.51384 H 193.15281 c 10.18015,0 18.51386,-8.33405 18.51386,-18.51384 V 71.430506 c 0,-10.17979 -8.33371,-18.513841 -18.51386,-18.513841 z m 0,8.817182 H 193.15281 c 5.44868,0 9.69702,4.248341 9.69702,9.696659 V 193.15283 c 0,5.44832 -4.24834,9.69666 -9.69702,9.69666 H 71.430703 c -5.448324,0 -9.697198,-4.24834 -9.697198,-9.69666 V 71.430506 c 0,-5.448318 4.248874,-9.696659 9.697198,-9.696659 z m 60.828327,17.641418 c -6.04787,0 -11.65759,1.512011 -16.82863,4.53568 -5.17104,3.023845 -9.2691,7.120667 -12.29277,12.291878 -3.02385,5.171207 -4.535862,10.780747 -4.535862,16.828437 v 14.46218 h -2.366091 c -2.015782,0 -3.724821,0.70044 -5.127295,2.10291 -1.402298,1.4023 -2.1038,3.11134 -2.1038,5.12729 v 43.25423 c 0,2.01577 0.701502,3.72481 2.1038,5.12728 1.402474,1.4023 3.111513,2.1038 5.127295,2.1038 h 72.112163 c 2.01578,0 3.72482,-0.7015 5.12711,-2.1038 1.40248,-1.40247 2.10292,-3.11151 2.10292,-5.12728 v -43.25423 c 0,-2.01595 -0.70044,-3.72499 -2.10292,-5.12729 -1.40229,-1.40247 -3.11133,-2.10291 -5.12711,-2.10291 h -2.43295 v -14.46218 c 0,-6.04769 -1.51201,-11.65723 -4.53568,-16.828437 -3.02385,-5.171211 -7.1205,-9.268033 -12.29189,-12.291878 -5.17104,-3.023669 -10.78076,-4.53568 -16.82829,-4.53568 z m 0,14.461293 c 5.30263,0 9.83797,1.884369 13.60706,5.653283 3.76857,3.768739 5.65311,8.282549 5.65311,13.541419 v 14.46218 h -38.45489 v -14.46218 c 0,-5.25887 1.8625,-9.77268 5.58732,-13.541419 3.76892,-3.768914 8.30478,-5.653283 13.6074,-5.653283 z" />
  </g>
</svg>
