<?xml version="1.0" encoding="UTF-8" standalone="no"?>
<svg
   width="1000"
   height="1000"
   viewBox="0 0 264.58333 264.58334"
   version="1.1"
   id="svg221"
   inkscape:version="1.1.1 (3bf5ae0d25, 2021-09-20)"
   sodipodi:docname="logout.svg"
   xmlns:inkscape="http://www.inkscape.org/namespaces/inkscape"
   xmlns:sodipodi="http://sodipodi.sourceforge.net/DTD/sodipodi-0.dtd"
   xmlns="http://www.w3.org/2000/svg"
   xmlns:svg="http://www.w3.org/2000/svg"
   xmlns:rdf="http://www.w3.org/1999/02/22-rdf-syntax-ns#"
   xmlns:cc="http://creativecommons.org/ns#"
   xmlns:dc="http://purl.org/dc/elements/1.1/">
  <defs
     id="defs215" />
  <sodipodi:namedview
     id="base"
     pagecolor="#ffffff"
     bordercolor="#666666"
     borderopacity="1.0"
     inkscape:pageopacity="0.0"
     inkscape:pageshadow="2"
     inkscape:zoom="0.69999999"
     inkscape:cx="439.28572"
     inkscape:cy="502.14286"
     inkscape:document-units="mm"
     inkscape:current-layer="layer1"
     inkscape:document-rotation="0"
     showgrid="false"
     units="px"
     showguides="true"
     inkscape:guide-bbox="true"
     inkscape:window-width="1366"
     inkscape:window-height="740"
     inkscape:window-x="0"
     inkscape:window-y="28"
     inkscape:window-maximized="0"
     inkscape:pagecheckerboard="0"
     inkscape:snap-bbox="true"
     inkscape:bbox-nodes="true"
     inkscape:snap-midpoints="true">
    <sodipodi:guide
       position="-5.0862631e-06,52.916663"
       orientation="0,-1"
       id="guide1048" />
    <sodipodi:guide
       position="75.848259,211.66667"
       orientation="0,-1"
       id="guide144" />
    <sodipodi:guide
       position="211.66667,269.38659"
       orientation="1,0"
       id="guide146" />
    <sodipodi:guide
       position="52.916667,269.38659"
       orientation="1,0"
       id="guide148" />
    <sodipodi:guide
       position="132.29166,211.66667"
       orientation="1,0"
       id="guide133" />
    <sodipodi:guide
       position="52.916666,132.29167"
       orientation="0,-1"
       id="guide135" />
  </sodipodi:namedview>
  <metadata
     id="metadata218">
    <rdf:RDF>
      <cc:Work
         rdf:about="">
        <dc:format>image/svg+xml</dc:format>
        <dc:type
           rdf:resource="http://purl.org/dc/dcmitype/StillImage" />
      </cc:Work>
    </rdf:RDF>
  </metadata>
  <g
     inkscape:label="Layer 1"
     inkscape:groupmode="layer"
     id="layer1">
    <path
       id="text1814-7-9-3-8-3-7-6-8-1-0"
       style="font-size:71.1111px;line-height:1.25;font-family:sans-serif;direction:rtl;display:inline;stroke-width:0.427608"
       d="m 71.43058,52.916665 c -10.179557,0 -18.513913,8.334004 -18.513913,18.513738 V 193.15293 c 0,10.17974 8.334356,18.51374 18.513913,18.51374 h 121.72271 c 10.17955,0 18.51338,-8.334 18.51338,-18.51374 V 71.430403 c 0,-10.179734 -8.33383,-18.513738 -18.51338,-18.513738 z m 0,8.818015 h 121.72271 c 5.44828,0 9.6966,4.247435 9.6966,9.695723 V 193.15293 c 0,5.44829 -4.24832,9.69573 -9.6966,9.69573 H 71.43058 c -5.448288,0 -9.695723,-4.24744 -9.695723,-9.69573 V 71.430403 c 0,-5.448288 4.247435,-9.695723 9.695723,-9.695723 z m 18.233631,18.375096 c -2.939691,0 -5.389374,0.979839 -7.349403,2.939691 -1.959676,1.959853 -2.939338,4.409713 -2.939338,7.349404 v 83.784539 c 0,2.93986 0.979662,5.38972 2.939338,7.34958 1.960029,1.95985 4.409712,2.94039 7.349403,2.94039 h 47.037349 c 2.93969,0 5.43082,-0.98054 7.47217,-2.94039 2.04187,-1.95986 3.06193,-4.40972 3.06193,-7.34958 v -21.06873 h -10.5341 v 21.06873 H 89.664211 V 90.398871 H 136.70156 V 111.4676 h 10.5341 V 90.398871 c 0,-2.939691 -1.02006,-5.389551 -3.06193,-7.349404 -2.04135,-1.959852 -4.53248,-2.939691 -7.47217,-2.939691 z m 68.105719,24.743954 v 16.90314 h -36.74755 v 21.06872 h 36.74755 v 16.90401 l 27.43846,-27.43846 z" />
  </g>
</svg>
