<?xml version="1.0" encoding="UTF-8" standalone="no"?>
<svg
   width="1000"
   height="1000"
   viewBox="0 0 264.58333 264.58334"
   version="1.1"
   id="svg221"
   inkscape:version="1.1.1 (3bf5ae0d25, 2021-09-20)"
   sodipodi:docname="magnet thick.svg"
   xmlns:inkscape="http://www.inkscape.org/namespaces/inkscape"
   xmlns:sodipodi="http://sodipodi.sourceforge.net/DTD/sodipodi-0.dtd"
   xmlns="http://www.w3.org/2000/svg"
   xmlns:svg="http://www.w3.org/2000/svg"
   xmlns:rdf="http://www.w3.org/1999/02/22-rdf-syntax-ns#"
   xmlns:cc="http://creativecommons.org/ns#"
   xmlns:dc="http://purl.org/dc/elements/1.1/">
  <defs
     id="defs215" />
  <sodipodi:namedview
     id="base"
     pagecolor="#ffffff"
     bordercolor="#666666"
     borderopacity="1.0"
     inkscape:pageopacity="0.0"
     inkscape:pageshadow="2"
     inkscape:zoom="0.69999999"
     inkscape:cx="507.85715"
     inkscape:cy="449.28572"
     inkscape:document-units="mm"
     inkscape:current-layer="layer1"
     inkscape:document-rotation="0"
     showgrid="false"
     units="px"
     showguides="true"
     inkscape:guide-bbox="true"
     inkscape:window-width="1366"
     inkscape:window-height="740"
     inkscape:window-x="0"
     inkscape:window-y="28"
     inkscape:window-maximized="0"
     inkscape:pagecheckerboard="0"
     inkscape:snap-bbox="true"
     inkscape:bbox-nodes="true"
     inkscape:snap-midpoints="true">
    <sodipodi:guide
       position="-5.0862631e-06,52.916663"
       orientation="0,-1"
       id="guide1048" />
    <sodipodi:guide
       position="75.848259,211.66667"
       orientation="0,-1"
       id="guide144" />
    <sodipodi:guide
       position="211.66667,269.38659"
       orientation="1,0"
       id="guide146" />
    <sodipodi:guide
       position="52.916667,269.38659"
       orientation="1,0"
       id="guide148" />
    <sodipodi:guide
       position="132.29166,211.66667"
       orientation="1,0"
       id="guide133" />
    <sodipodi:guide
       position="52.916666,132.29167"
       orientation="0,-1"
       id="guide135" />
  </sodipodi:namedview>
  <metadata
     id="metadata218">
    <rdf:RDF>
      <cc:Work
         rdf:about="">
        <dc:format>image/svg+xml</dc:format>
        <dc:type
           rdf:resource="http://purl.org/dc/dcmitype/StillImage" />
      </cc:Work>
    </rdf:RDF>
  </metadata>
  <g
     inkscape:label="Layer 1"
     inkscape:groupmode="layer"
     id="layer1">
    <path
       id="text1814-7-9-1-7-6-9-63-0-7-8"
       style="font-size:70.0172px;line-height:1.25;font-family:sans-serif;direction:rtl;display:inline;stroke-width:0.42103"
       d="m 71.430403,52.916665 c -10.179556,0 -18.513736,8.334051 -18.513736,18.513841 V 193.15283 c 0,10.17979 8.33418,18.51384 18.513736,18.51384 H 193.15293 c 10.17974,0 18.51374,-8.33405 18.51374,-18.51384 V 71.430506 c 0,-10.17979 -8.334,-18.513841 -18.51374,-18.513841 z m 0,8.817182 H 193.15293 c 5.44847,0 9.69573,4.248341 9.69573,9.696659 V 193.15283 c 0,5.44832 -4.24726,9.69684 -9.69573,9.69684 H 71.430403 c -5.448288,0 -9.695722,-4.24852 -9.695722,-9.69684 V 71.430506 c 0,-5.448318 4.247434,-9.696659 9.695722,-9.696659 z m 12.346489,17.670699 c -1.206144,0 -2.251246,0.422806 -3.135658,1.267006 -0.844372,0.8442 -1.266117,1.869376 -1.266117,3.075527 v 26.533391 c 0,1.20597 0.421745,2.23115 1.266117,3.07535 0.884412,0.8442 1.929514,1.26612 3.135658,1.26612 h 26.473968 c 1.20597,0 2.23114,-0.42192 3.07534,-1.26612 0.88459,-0.8442 1.32626,-1.86938 1.32626,-3.07535 V 83.747079 c 0,-1.206151 -0.44167,-2.231327 -1.32626,-3.075527 -0.8442,-0.8442 -1.86937,-1.267006 -3.07534,-1.267006 z m 70.555578,0 c -1.20614,0 -2.25125,0.422806 -3.13566,1.267006 -0.84419,0.8442 -1.26611,1.869376 -1.26611,3.075527 v 26.533391 c 0,1.20597 0.42192,2.23115 1.26611,3.07535 0.88441,0.8442 1.92952,1.26612 3.13566,1.26612 h 26.47397 c 1.20615,0 2.23114,-0.42192 3.07551,-1.26612 0.88442,-0.8442 1.32609,-1.86938 1.32609,-3.07535 V 83.747079 c 0,-1.206151 -0.44167,-2.231327 -1.32609,-3.075527 -0.84437,-0.8442 -1.86936,-1.267006 -3.07551,-1.267006 z M 83.776892,123.42713 c -1.206144,0 -2.251246,0.44186 -3.135658,1.32627 -0.844372,0.8846 -1.266117,1.9297 -1.266117,3.13568 v 8.8043 c 0,6.91499 1.326265,13.3876 3.979677,19.41819 2.653413,6.0304 6.292131,11.17674 10.91545,15.43831 4.663359,4.26157 10.271626,7.59815 16.824636,10.01028 6.59323,2.41213 13.66923,3.61792 21.2273,3.61792 7.55808,0 14.61326,-1.20579 21.16627,-3.61792 6.55301,-2.41213 12.14117,-5.74871 16.76449,-10.01028 4.66354,-4.26157 8.32219,-9.40791 10.9756,-15.43831 2.65341,-6.03059 3.9795,-12.5032 3.9795,-19.41819 v -8.8043 c 0,-1.20598 -0.44167,-2.25108 -1.32609,-3.13568 -0.84437,-0.88441 -1.86936,-1.32627 -3.07551,-1.32627 h -26.47397 c -1.20614,0 -2.25125,0.44186 -3.13566,1.32627 -0.84419,0.8846 -1.26611,1.9297 -1.26611,3.13568 v 8.8043 c 0,2.4123 -0.5424,4.48329 -1.62789,6.21208 -1.04528,1.72862 -2.27171,3.03496 -3.67894,3.91955 -1.36683,0.88442 -2.99525,1.56757 -4.88472,2.05 -1.84926,0.48243 -3.31628,0.7844 -4.40161,0.90505 -1.04545,0.11995 -2.05051,0.18045 -3.01536,0.18045 -0.96484,0 -1.99001,-0.06 -3.07551,-0.18045 -1.04528,-0.11994 -2.51301,-0.42262 -4.40248,-0.90505 -1.84943,-0.48243 -3.47785,-1.16558 -4.8849,-2.05 -1.40705,-0.88459 -2.65359,-2.19093 -3.73891,-3.91955 -1.04528,-1.72879 -1.56792,-3.79978 -1.56792,-6.21208 v -8.8043 c 0,-1.20598 -0.44167,-2.25108 -1.32626,-3.13568 -0.8442,-0.88441 -1.86937,-1.32627 -3.07534,-1.32627 z" />
  </g>
</svg>
