<?xml version="1.0" encoding="UTF-8" standalone="no"?>
<svg
   width="1000"
   height="1000"
   viewBox="0 0 264.58333 264.58334"
   version="1.1"
   id="svg221"
   inkscape:version="1.1.1 (3bf5ae0d25, 2021-09-20)"
   sodipodi:docname="media rec.svg"
   xmlns:inkscape="http://www.inkscape.org/namespaces/inkscape"
   xmlns:sodipodi="http://sodipodi.sourceforge.net/DTD/sodipodi-0.dtd"
   xmlns="http://www.w3.org/2000/svg"
   xmlns:svg="http://www.w3.org/2000/svg"
   xmlns:rdf="http://www.w3.org/1999/02/22-rdf-syntax-ns#"
   xmlns:cc="http://creativecommons.org/ns#"
   xmlns:dc="http://purl.org/dc/elements/1.1/">
  <defs
     id="defs215" />
  <sodipodi:namedview
     id="base"
     pagecolor="#ffffff"
     bordercolor="#666666"
     borderopacity="1.0"
     inkscape:pageopacity="0.0"
     inkscape:pageshadow="2"
     inkscape:zoom="0.69999999"
     inkscape:cx="507.85715"
     inkscape:cy="449.28572"
     inkscape:document-units="mm"
     inkscape:current-layer="layer1"
     inkscape:document-rotation="0"
     showgrid="false"
     units="px"
     showguides="true"
     inkscape:guide-bbox="true"
     inkscape:window-width="1366"
     inkscape:window-height="740"
     inkscape:window-x="0"
     inkscape:window-y="28"
     inkscape:window-maximized="0"
     inkscape:pagecheckerboard="0"
     inkscape:snap-bbox="true"
     inkscape:bbox-nodes="true"
     inkscape:snap-midpoints="true">
    <sodipodi:guide
       position="-5.0862631e-06,52.916663"
       orientation="0,-1"
       id="guide1048" />
    <sodipodi:guide
       position="75.848259,211.66667"
       orientation="0,-1"
       id="guide144" />
    <sodipodi:guide
       position="211.66667,269.38659"
       orientation="1,0"
       id="guide146" />
    <sodipodi:guide
       position="52.916667,269.38659"
       orientation="1,0"
       id="guide148" />
    <sodipodi:guide
       position="132.29166,211.66667"
       orientation="1,0"
       id="guide133" />
    <sodipodi:guide
       position="52.916666,132.29167"
       orientation="0,-1"
       id="guide135" />
  </sodipodi:namedview>
  <metadata
     id="metadata218">
    <rdf:RDF>
      <cc:Work
         rdf:about="">
        <dc:format>image/svg+xml</dc:format>
        <dc:type
           rdf:resource="http://purl.org/dc/dcmitype/StillImage" />
      </cc:Work>
    </rdf:RDF>
  </metadata>
  <g
     inkscape:label="Layer 1"
     inkscape:groupmode="layer"
     id="layer1">
    <path
       id="text1814-7-9-1-7-6-9-63-9-4-6-2-8"
       style="font-size:95.9999px;line-height:1.25;font-family:sans-serif;direction:rtl;display:inline;stroke-width:0.577272"
       d="m 71.430703,52.916665 c -10.179624,0 -18.514036,8.33406 -18.514036,18.513862 V 193.15281 c 0,10.1798 8.334412,18.51386 18.514036,18.51386 H 193.15281 c 10.18015,0 18.51386,-8.33406 18.51386,-18.51386 V 71.430527 c 0,-10.179802 -8.33371,-18.513862 -18.51386,-18.513862 z m 0,8.817015 H 193.15281 c 5.44868,0 9.69702,4.248522 9.69702,9.696847 V 193.15281 c 0,5.44832 -4.24834,9.69685 -9.69702,9.69685 H 71.430703 c -5.448324,0 -9.697198,-4.24853 -9.697198,-9.69685 V 71.430527 c 0,-5.448325 4.248874,-9.696847 9.697198,-9.696847 z m 60.860967,17.640733 c -14.99313,0.220487 -27.50621,5.3469 -37.538372,15.379064 -10.031986,10.032163 -15.158223,22.545073 -15.379063,37.538193 0.22084,14.99312 5.347077,27.45029 15.379063,37.37221 10.032162,9.92192 22.545242,15.10319 37.538372,15.54416 14.99312,-0.44097 27.45029,-5.62224 37.37221,-15.54416 9.92209,-9.92192 15.10336,-22.37909 15.54434,-37.37221 -0.44098,-14.99312 -5.62225,-27.50603 -15.54434,-37.538193 C 159.74196,84.721313 147.28479,79.5949 132.29167,79.374413 Z M 93.26598,114.43222 h 14.22071 c 1.98439,0.22048 3.63839,0.99236 4.96114,2.31529 1.3231,1.32292 1.98438,2.97604 1.98438,4.9606 v 6.9457 c 0,1.7639 -0.55069,3.25192 -1.65365,4.4646 -1.10226,1.21268 -2.53543,2.03924 -4.29915,2.48022 l 8.26809,14.22158 h -8.26809 l -7.93753,-14.22158 v 14.22158 h -7.2759 z m 35.38782,0 h 14.22178 v 7.27589 H 128.6538 v 6.9457 h 14.22178 v 6.94482 H 128.6538 v 7.27659 h 14.22178 v 6.94499 H 128.6538 c -1.98438,0 -3.63839,-0.66146 -4.96148,-1.98438 -1.32257,-1.32292 -1.98439,-2.97622 -1.98439,-4.96061 v -21.16711 c 0,-1.98456 0.66182,-3.63768 1.98439,-4.9606 1.32309,-1.32293 2.9771,-2.09481 4.96148,-2.31529 z m 28.11211,0 h 14.2216 v 7.27589 h -14.2216 v 21.16711 h 14.2216 v 6.94499 h -14.2216 c -1.98456,0 -3.63839,-0.66146 -4.96113,-1.98438 -1.3231,-1.32292 -1.98439,-2.97622 -1.98439,-4.96061 v -21.16711 c 0,-1.98456 0.66129,-3.63768 1.98439,-4.9606 1.32274,-1.32293 2.97657,-2.09481 4.96113,-2.31529 z m -56.22403,7.27589 v 6.9457 h 6.94481 v -6.9457 z" />
  </g>
</svg>
