<?xml version="1.0" encoding="UTF-8" standalone="no"?>
<svg
   width="1000"
   height="1000"
   viewBox="0 0 264.58333 264.58334"
   version="1.1"
   id="svg221"
   inkscape:version="1.1.1 (3bf5ae0d25, 2021-09-20)"
   sodipodi:docname="media next.svg"
   xmlns:inkscape="http://www.inkscape.org/namespaces/inkscape"
   xmlns:sodipodi="http://sodipodi.sourceforge.net/DTD/sodipodi-0.dtd"
   xmlns="http://www.w3.org/2000/svg"
   xmlns:svg="http://www.w3.org/2000/svg"
   xmlns:rdf="http://www.w3.org/1999/02/22-rdf-syntax-ns#"
   xmlns:cc="http://creativecommons.org/ns#"
   xmlns:dc="http://purl.org/dc/elements/1.1/">
  <defs
     id="defs215" />
  <sodipodi:namedview
     id="base"
     pagecolor="#ffffff"
     bordercolor="#666666"
     borderopacity="1.0"
     inkscape:pageopacity="0.0"
     inkscape:pageshadow="2"
     inkscape:zoom="0.69999999"
     inkscape:cx="439.28572"
     inkscape:cy="502.14286"
     inkscape:document-units="mm"
     inkscape:current-layer="layer1"
     inkscape:document-rotation="0"
     showgrid="false"
     units="px"
     showguides="true"
     inkscape:guide-bbox="true"
     inkscape:window-width="1366"
     inkscape:window-height="740"
     inkscape:window-x="0"
     inkscape:window-y="28"
     inkscape:window-maximized="0"
     inkscape:pagecheckerboard="0"
     inkscape:snap-bbox="true"
     inkscape:bbox-nodes="true"
     inkscape:snap-midpoints="true">
    <sodipodi:guide
       position="-5.0862631e-06,52.916663"
       orientation="0,-1"
       id="guide1048" />
    <sodipodi:guide
       position="75.848259,211.66667"
       orientation="0,-1"
       id="guide144" />
    <sodipodi:guide
       position="211.66667,269.38659"
       orientation="1,0"
       id="guide146" />
    <sodipodi:guide
       position="52.916667,269.38659"
       orientation="1,0"
       id="guide148" />
    <sodipodi:guide
       position="132.29166,211.66667"
       orientation="1,0"
       id="guide133" />
    <sodipodi:guide
       position="52.916666,132.29167"
       orientation="0,-1"
       id="guide135" />
  </sodipodi:namedview>
  <metadata
     id="metadata218">
    <rdf:RDF>
      <cc:Work
         rdf:about="">
        <dc:format>image/svg+xml</dc:format>
        <dc:type
           rdf:resource="http://purl.org/dc/dcmitype/StillImage" />
      </cc:Work>
    </rdf:RDF>
  </metadata>
  <g
     inkscape:label="Layer 1"
     inkscape:groupmode="layer"
     id="layer1">
    <path
       id="path70154-8"
       style="font-size:120px;line-height:1.25;font-family:'Hack Nerd Font';-inkscape-font-specification:'Hack Nerd Font';direction:rtl;stroke-width:0.72159"
       d="m 71.430403,52.916665 c -10.179556,0 -18.513736,8.333991 -18.513736,18.513729 V 193.15292 c 0,10.17974 8.33418,18.51375 18.513736,18.51375 H 193.15293 c 10.17974,0 18.51374,-8.33401 18.51374,-18.51375 V 71.430394 c 0,-10.179738 -8.334,-18.513729 -18.51374,-18.513729 z m 0,8.817966 H 193.15293 c 5.44847,0 9.69573,4.247472 9.69573,9.695763 V 193.15292 c 0,5.44829 -4.24726,9.69591 -9.69573,9.69591 H 71.430403 c -5.448288,0 -9.695722,-4.24762 -9.695722,-9.69591 V 71.430394 c 0,-5.448291 4.247434,-9.695763 9.695722,-9.695763 z M 176.04554,79.375183 a 8.6136571,8.6136619 0 0 0 -8.61375,8.613778 v 88.606369 a 8.6136571,8.6136619 0 0 0 8.61375,8.61376 h 0.54875 a 8.6136571,8.6136619 0 0 0 8.61375,-8.61376 V 87.988961 a 8.6136571,8.6136619 0 0 0 -8.61375,-8.613778 z m -92.716322,4.183814 a 4.4584836,4.4584861 0 0 0 -3.954101,4.429964 v 88.606369 a 4.4584836,4.4584861 0 0 0 7.032257,3.6396 l 60.762486,-42.96967 a 6.0914228,6.0914262 0 0 0 0,-9.94637 L 86.407374,84.349306 a 4.4584836,4.4584861 0 0 0 -3.078156,-0.790309 z" />
  </g>
</svg>
