<?xml version="1.0" encoding="UTF-8" standalone="no"?>
<svg
   width="1000"
   height="1000"
   viewBox="0 0 264.58333 264.58334"
   version="1.1"
   id="svg221"
   inkscape:version="1.1.1 (3bf5ae0d25, 2021-09-20)"
   sodipodi:docname="media shuffel.svg"
   xmlns:inkscape="http://www.inkscape.org/namespaces/inkscape"
   xmlns:sodipodi="http://sodipodi.sourceforge.net/DTD/sodipodi-0.dtd"
   xmlns="http://www.w3.org/2000/svg"
   xmlns:svg="http://www.w3.org/2000/svg"
   xmlns:rdf="http://www.w3.org/1999/02/22-rdf-syntax-ns#"
   xmlns:cc="http://creativecommons.org/ns#"
   xmlns:dc="http://purl.org/dc/elements/1.1/">
  <defs
     id="defs215" />
  <sodipodi:namedview
     id="base"
     pagecolor="#ffffff"
     bordercolor="#666666"
     borderopacity="1.0"
     inkscape:pageopacity="0.0"
     inkscape:pageshadow="2"
     inkscape:zoom="0.69999999"
     inkscape:cx="439.28572"
     inkscape:cy="502.14286"
     inkscape:document-units="mm"
     inkscape:current-layer="layer1"
     inkscape:document-rotation="0"
     showgrid="false"
     units="px"
     showguides="true"
     inkscape:guide-bbox="true"
     inkscape:window-width="1366"
     inkscape:window-height="740"
     inkscape:window-x="0"
     inkscape:window-y="28"
     inkscape:window-maximized="0"
     inkscape:pagecheckerboard="0"
     inkscape:snap-bbox="true"
     inkscape:bbox-nodes="true"
     inkscape:snap-midpoints="true">
    <sodipodi:guide
       position="-5.0862631e-06,52.916663"
       orientation="0,-1"
       id="guide1048" />
    <sodipodi:guide
       position="75.848259,211.66667"
       orientation="0,-1"
       id="guide144" />
    <sodipodi:guide
       position="211.66667,269.38659"
       orientation="1,0"
       id="guide146" />
    <sodipodi:guide
       position="52.916667,269.38659"
       orientation="1,0"
       id="guide148" />
    <sodipodi:guide
       position="132.29166,211.66667"
       orientation="1,0"
       id="guide133" />
    <sodipodi:guide
       position="52.916666,132.29167"
       orientation="0,-1"
       id="guide135" />
  </sodipodi:namedview>
  <metadata
     id="metadata218">
    <rdf:RDF>
      <cc:Work
         rdf:about="">
        <dc:format>image/svg+xml</dc:format>
        <dc:type
           rdf:resource="http://purl.org/dc/dcmitype/StillImage" />
      </cc:Work>
    </rdf:RDF>
  </metadata>
  <g
     inkscape:label="Layer 1"
     inkscape:groupmode="layer"
     id="layer1">
    <path
       id="text1814-7-9-1-7-3-4-5-3"
       style="font-size:89.8246px;line-height:1.25;font-family:sans-serif;direction:rtl;display:inline;stroke-width:0.54014"
       d="m 71.430403,52.916665 c -10.179556,0 -18.513736,8.334037 -18.513736,18.513832 V 193.15282 c 0,10.1798 8.33418,18.51385 18.513736,18.51385 H 193.15293 c 10.17974,0 18.51374,-8.33405 18.51374,-18.51385 V 71.430497 c 0,-10.179795 -8.334,-18.513832 -18.51374,-18.513832 z m 0,8.817115 H 193.15293 c 5.44847,0 9.69573,4.248396 9.69573,9.696717 V 193.15282 c 0,5.44832 -4.24726,9.69578 -9.69573,9.69578 H 71.430403 c -5.448288,0 -9.695899,-4.24746 -9.695899,-9.69578 V 71.430497 c 0,-5.448321 4.247611,-9.696717 9.695899,-9.696717 z m 15.383546,17.64155 -9.283855,9.282889 34.349546,34.349591 9.28385,-9.28373 z m 60.034001,0 13.61631,13.615335 -82.934166,82.934535 9.283855,9.28374 82.933991,-82.93445 13.61525,13.61618 V 79.37533 Z m 2.16676,62.20012 -9.28385,9.28391 20.7334,20.73336 -13.61631,13.61622 h 36.51524 V 148.6926 l -13.61525,13.61621 z" />
  </g>
</svg>
