<?xml version="1.0" encoding="UTF-8" standalone="no"?>
<svg
   width="1000"
   height="1000"
   viewBox="0 0 264.58333 264.58334"
   version="1.1"
   id="svg221"
   inkscape:version="1.1.1 (3bf5ae0d25, 2021-09-20)"
   sodipodi:docname="mic.svg"
   xmlns:inkscape="http://www.inkscape.org/namespaces/inkscape"
   xmlns:sodipodi="http://sodipodi.sourceforge.net/DTD/sodipodi-0.dtd"
   xmlns="http://www.w3.org/2000/svg"
   xmlns:svg="http://www.w3.org/2000/svg"
   xmlns:rdf="http://www.w3.org/1999/02/22-rdf-syntax-ns#"
   xmlns:cc="http://creativecommons.org/ns#"
   xmlns:dc="http://purl.org/dc/elements/1.1/">
  <defs
     id="defs215" />
  <sodipodi:namedview
     id="base"
     pagecolor="#ffffff"
     bordercolor="#666666"
     borderopacity="1.0"
     inkscape:pageopacity="0.0"
     inkscape:pageshadow="2"
     inkscape:zoom="0.49497474"
     inkscape:cx="439.41636"
     inkscape:cy="502.04582"
     inkscape:document-units="mm"
     inkscape:current-layer="layer1"
     inkscape:document-rotation="0"
     showgrid="false"
     units="px"
     showguides="true"
     inkscape:guide-bbox="true"
     inkscape:window-width="1366"
     inkscape:window-height="740"
     inkscape:window-x="0"
     inkscape:window-y="28"
     inkscape:window-maximized="0"
     inkscape:pagecheckerboard="0"
     inkscape:snap-bbox="true"
     inkscape:bbox-nodes="true"
     inkscape:snap-midpoints="true">
    <sodipodi:guide
       position="-5.0862631e-06,52.916663"
       orientation="0,-1"
       id="guide1048" />
    <sodipodi:guide
       position="75.848259,211.66667"
       orientation="0,-1"
       id="guide144" />
    <sodipodi:guide
       position="211.66667,269.38659"
       orientation="1,0"
       id="guide146" />
    <sodipodi:guide
       position="52.916667,269.38659"
       orientation="1,0"
       id="guide148" />
    <sodipodi:guide
       position="132.29166,211.66667"
       orientation="1,0"
       id="guide133" />
    <sodipodi:guide
       position="52.916666,132.29167"
       orientation="0,-1"
       id="guide135" />
  </sodipodi:namedview>
  <metadata
     id="metadata218">
    <rdf:RDF>
      <cc:Work
         rdf:about="">
        <dc:format>image/svg+xml</dc:format>
        <dc:type
           rdf:resource="http://purl.org/dc/dcmitype/StillImage" />
      </cc:Work>
    </rdf:RDF>
  </metadata>
  <g
     inkscape:label="Layer 1"
     inkscape:groupmode="layer"
     id="layer1">
    <path
       id="text1814-7-9-3-8-9-9"
       style="font-size:64.6057px;line-height:1.25;font-family:sans-serif;direction:rtl;display:inline;stroke-width:0.388491"
       d="m 71.430506,52.916665 c -10.179436,0 -18.513839,8.334054 -18.513839,18.513849 V 193.15284 c 0,10.17978 8.334403,18.51383 18.513839,18.51383 H 193.15283 c 10.17979,0 18.51384,-8.33405 18.51384,-18.51383 V 71.430514 c 0,-10.179795 -8.33405,-18.513849 -18.51384,-18.513849 z m 0,8.817133 H 193.15283 c 5.44832,0 9.69666,4.248395 9.69666,9.696716 V 193.15284 c 0,5.44832 -4.24834,9.6967 -9.69666,9.6967 H 71.430506 c -5.448142,0 -9.697011,-4.24838 -9.697011,-9.6967 V 71.430514 c 0,-5.448321 4.248869,-9.696716 9.697011,-9.696716 z m 60.832674,17.640597 c -5.60125,0 -10.38599,1.984824 -14.35511,5.95403 -3.96929,3.969224 -5.9542,8.773494 -5.9542,14.412034 v 32.495631 c 0,5.6385 1.98491,10.44183 5.9542,14.41109 3.96912,3.96923 8.75386,5.95403 14.35511,5.95403 5.6016,0 10.3874,-1.9848 14.35652,-5.95403 4.00633,-3.96926 6.00976,-8.77259 6.00976,-14.41109 V 99.740459 c 0,-5.63854 -2.00343,-10.44281 -6.00976,-14.412034 -3.96912,-3.969206 -8.75492,-5.95403 -14.35652,-5.95403 z M 99.711912,120.1056 c -1.112488,0 -2.076809,0.38954 -2.892964,1.16857 -0.778935,0.779 -1.16858,1.72466 -1.16858,2.83756 v 8.12436 c 0,4.67402 0.834852,9.12482 2.503672,13.35371 1.706745,4.22892 4.00616,7.93852 6.89965,11.12871 2.89367,3.19026 6.34385,5.84316 10.35001,7.95757 4.00668,2.11447 8.27231,3.4312 12.79776,3.95055 v 8.45795 h -16.24759 c -1.11302,0 -2.07716,0.38955 -2.89296,1.16856 -0.81633,0.77903 -1.22415,1.72469 -1.22415,2.83758 0,1.11288 0.40782,2.07702 1.22415,2.89314 0.8158,0.81612 1.77994,1.2242 2.89296,1.2242 h 40.67559 c 1.11285,0 2.05847,-0.40808 2.83758,-1.2242 0.81598,-0.81612 1.22415,-1.78026 1.22415,-2.89314 0,-1.11289 -0.40817,-2.05855 -1.22415,-2.83758 -0.77911,-0.77901 -1.72473,-1.16856 -2.83758,-1.16856 h -16.3042 v -8.45795 c 4.52545,-0.51935 8.79213,-1.83608 12.79846,-3.95055 4.00634,-2.11441 7.45581,-4.76731 10.3493,-7.95757 2.93054,-3.19019 5.23101,-6.89979 6.90018,-11.12871 1.7064,-4.22889 2.55959,-8.67969 2.55959,-13.35371 v -8.12436 c 0,-1.1129 -0.40799,-2.05856 -1.22414,-2.83756 -0.81616,-0.77903 -1.78118,-1.16857 -2.89402,-1.16857 -1.11285,0 -2.07717,0.38954 -2.89332,1.16857 -0.77894,0.779 -1.1684,1.72466 -1.1684,2.83756 v 8.12436 c 0,3.8579 -0.7606,7.54901 -2.2816,11.0731 -1.48379,3.52406 -3.50557,6.56562 -6.06515,9.12523 -2.55959,2.55955 -5.60125,4.58138 -9.12534,6.06521 -3.48686,1.48386 -7.15947,2.22594 -11.01764,2.22594 -3.85782,0 -7.54894,-0.74208 -11.07285,-2.22594 -3.48722,-1.48383 -6.51001,-3.50566 -9.06977,-6.06521 -2.55941,-2.55961 -4.59989,-5.60117 -6.12072,-9.12523 -1.48378,-3.52409 -2.22621,-7.2152 -2.22621,-11.0731 v -8.12436 c 0,-1.1129 -0.40781,-2.05856 -1.22414,-2.83756 -0.77894,-0.77903 -1.72438,-1.16857 -2.837578,-1.16857 z" />
  </g>
</svg>
