<?xml version="1.0" encoding="UTF-8" standalone="no"?>
<svg
   width="1000"
   height="1000"
   viewBox="0 0 264.58333 264.58334"
   version="1.1"
   id="svg221"
   inkscape:version="1.1.1 (3bf5ae0d25, 2021-09-20)"
   sodipodi:docname="P.svg"
   xmlns:inkscape="http://www.inkscape.org/namespaces/inkscape"
   xmlns:sodipodi="http://sodipodi.sourceforge.net/DTD/sodipodi-0.dtd"
   xmlns="http://www.w3.org/2000/svg"
   xmlns:svg="http://www.w3.org/2000/svg"
   xmlns:rdf="http://www.w3.org/1999/02/22-rdf-syntax-ns#"
   xmlns:cc="http://creativecommons.org/ns#"
   xmlns:dc="http://purl.org/dc/elements/1.1/">
  <defs
     id="defs215" />
  <sodipodi:namedview
     id="base"
     pagecolor="#ffffff"
     bordercolor="#666666"
     borderopacity="1.0"
     inkscape:pageopacity="0.0"
     inkscape:pageshadow="2"
     inkscape:zoom="0.49497474"
     inkscape:cx="344.46202"
     inkscape:cy="651.5484"
     inkscape:document-units="mm"
     inkscape:current-layer="layer1"
     inkscape:document-rotation="0"
     showgrid="false"
     units="px"
     showguides="true"
     inkscape:guide-bbox="true"
     inkscape:window-width="1366"
     inkscape:window-height="740"
     inkscape:window-x="0"
     inkscape:window-y="28"
     inkscape:window-maximized="0"
     inkscape:pagecheckerboard="0"
     inkscape:snap-bbox="true"
     inkscape:bbox-nodes="true"
     inkscape:snap-midpoints="true">
    <sodipodi:guide
       position="-5.0862631e-06,52.916663"
       orientation="0,-1"
       id="guide1048" />
    <sodipodi:guide
       position="-5.0862631e-06,211.66667"
       orientation="0,-1"
       id="guide144" />
    <sodipodi:guide
       position="211.66667,269.38659"
       orientation="1,0"
       id="guide146" />
    <sodipodi:guide
       position="52.916667,269.38659"
       orientation="1,0"
       id="guide148" />
    <sodipodi:guide
       position="132.29166,211.66667"
       orientation="1,0"
       id="guide133" />
    <sodipodi:guide
       position="52.916666,132.29167"
       orientation="0,-1"
       id="guide135" />
  </sodipodi:namedview>
  <metadata
     id="metadata218">
    <rdf:RDF>
      <cc:Work
         rdf:about="">
        <dc:format>image/svg+xml</dc:format>
        <dc:type
           rdf:resource="http://purl.org/dc/dcmitype/StillImage" />
      </cc:Work>
    </rdf:RDF>
  </metadata>
  <g
     inkscape:label="Layer 1"
     inkscape:groupmode="layer"
     id="layer1">
    <path
       id="text1950-3-2-7-8-9-0-1-4-2-9-3-5-36-4"
       style="font-style:normal;font-variant:normal;font-weight:normal;font-stretch:normal;font-size:84.3956px;line-height:1.25;font-family:vi;-inkscape-font-specification:vi;direction:rtl;display:inline;fill:#000000;stroke-width:0.558243"
       d="m 71.430403,52.916665 c -10.179556,0 -18.513736,8.334054 -18.513736,18.513847 V 193.15282 c 0,10.1798 8.33418,18.51385 18.513736,18.51385 H 193.15293 c 10.17974,0 18.51374,-8.33405 18.51374,-18.51385 V 71.430512 c 0,-10.179793 -8.334,-18.513847 -18.51374,-18.513847 z m 0,8.817114 H 193.15293 c 5.44829,0 9.69661,4.248413 9.69661,9.696733 V 193.15282 c 0,5.44832 -4.24832,9.69674 -9.69661,9.69674 H 71.430403 c -5.448111,0 -9.696075,-4.24842 -9.696075,-9.69674 V 71.430512 c 0,-5.44832 4.247964,-9.696733 9.696075,-9.696733 z M 94.240081,79.375292 V 185.20894 h 13.955149 v -41.43216 h 24.93269 c 11.9692,0 21.15216,-2.76231 27.54872,-8.28659 6.44488,-5.57275 9.66661,-13.49551 9.66661,-23.76876 0,-9.74018 -3.29511,-17.566916 -9.88551,-23.478877 -6.5419,-5.91196 -15.60333,-8.867261 -27.18465,-8.867261 z m 13.955149,11.48423 h 25.87672 c 6.92978,0.145345 12.38195,2.107714 16.35546,5.887495 3.97368,3.779783 5.96052,8.819723 5.96052,15.119353 0,6.63883 -1.98684,11.7268 -5.96052,15.26428 -3.97351,3.48902 -9.69202,5.23393 -17.15432,5.23393 h -25.07786 z" />
  </g>
</svg>
