<?xml version="1.0" encoding="UTF-8" standalone="no"?>
<svg
   width="1000"
   height="1000"
   viewBox="0 0 264.58333 264.58334"
   version="1.1"
   id="svg221"
   inkscape:version="1.1.1 (3bf5ae0d25, 2021-09-20)"
   sodipodi:docname="packages.svg"
   xmlns:inkscape="http://www.inkscape.org/namespaces/inkscape"
   xmlns:sodipodi="http://sodipodi.sourceforge.net/DTD/sodipodi-0.dtd"
   xmlns="http://www.w3.org/2000/svg"
   xmlns:svg="http://www.w3.org/2000/svg"
   xmlns:rdf="http://www.w3.org/1999/02/22-rdf-syntax-ns#"
   xmlns:cc="http://creativecommons.org/ns#"
   xmlns:dc="http://purl.org/dc/elements/1.1/">
  <defs
     id="defs215" />
  <sodipodi:namedview
     id="base"
     pagecolor="#ffffff"
     bordercolor="#666666"
     borderopacity="1.0"
     inkscape:pageopacity="0.0"
     inkscape:pageshadow="2"
     inkscape:zoom="0.49497474"
     inkscape:cx="439.41636"
     inkscape:cy="502.04582"
     inkscape:document-units="mm"
     inkscape:current-layer="layer1"
     inkscape:document-rotation="0"
     showgrid="false"
     units="px"
     showguides="true"
     inkscape:guide-bbox="true"
     inkscape:window-width="1366"
     inkscape:window-height="740"
     inkscape:window-x="0"
     inkscape:window-y="28"
     inkscape:window-maximized="0"
     inkscape:pagecheckerboard="0"
     inkscape:snap-bbox="true"
     inkscape:bbox-nodes="true"
     inkscape:snap-midpoints="true">
    <sodipodi:guide
       position="-5.0862631e-06,52.916663"
       orientation="0,-1"
       id="guide1048" />
    <sodipodi:guide
       position="75.848259,211.66667"
       orientation="0,-1"
       id="guide144" />
    <sodipodi:guide
       position="211.66667,269.38659"
       orientation="1,0"
       id="guide146" />
    <sodipodi:guide
       position="52.916667,269.38659"
       orientation="1,0"
       id="guide148" />
    <sodipodi:guide
       position="132.29166,211.66667"
       orientation="1,0"
       id="guide133" />
    <sodipodi:guide
       position="52.916666,132.29167"
       orientation="0,-1"
       id="guide135" />
  </sodipodi:namedview>
  <metadata
     id="metadata218">
    <rdf:RDF>
      <cc:Work
         rdf:about="">
        <dc:format>image/svg+xml</dc:format>
        <dc:type
           rdf:resource="http://purl.org/dc/dcmitype/StillImage" />
      </cc:Work>
    </rdf:RDF>
  </metadata>
  <g
     inkscape:label="Layer 1"
     inkscape:groupmode="layer"
     id="layer1">
    <path
       id="text1814-8-1-4-2-9-4"
       style="font-size:75.9541px;line-height:1.25;font-family:sans-serif;direction:rtl;display:inline;stroke-width:0.456733"
       d="m 71.43058,52.916665 c -10.179557,0 -18.513913,8.334088 -18.513913,18.513881 V 193.15372 c 0,10.1798 8.334356,18.51295 18.513913,18.51295 h 121.72271 c 10.17955,0 18.51338,-8.33315 18.51338,-18.51295 V 71.430546 c 0,-10.179793 -8.33383,-18.513881 -18.51338,-18.513881 z m 0,8.818048 h 121.72271 c 5.44828,0 9.6966,4.247513 9.6966,9.695833 V 193.15372 c 0,5.44832 -4.24832,9.69584 -9.6966,9.69584 H 71.43058 c -5.448288,0 -9.695723,-4.24752 -9.695723,-9.69584 V 71.430546 c 0,-5.44832 4.247435,-9.695833 9.695723,-9.695833 z m 60.86073,17.640593 c -1.28622,0 -2.38812,0.331084 -3.30711,0.993567 L 82.407236,103.72198 c -1.837439,0.99373 -2.848322,2.5667 -3.031766,4.71985 v 47.69973 c 0.183444,2.1531 1.194327,3.72698 3.031766,4.72073 L 128.9842,184.2154 c 0.91899,0.66248 2.02089,0.99355 3.30711,0.99355 1.28605,0 2.38936,-0.33107 3.30782,-0.99355 l 46.5775,-23.35311 c 1.83744,-0.99375 2.84779,-2.56763 3.03176,-4.72073 v -47.69973 c -0.18397,-2.15315 -1.19432,-3.72612 -3.03176,-4.71985 l -46.5775,-23.353107 c -0.91846,-0.662483 -2.02177,-0.993567 -3.30782,-0.993567 z m 0,11.427696 35.00201,17.638828 -11.57496,5.96313 -34.45098,-18.136458 z m -23.15046,11.428628 34.72579,18.13558 -11.57533,5.71428 -35.002177,-17.63966 z m -17.915072,15.15398 35.278402,17.88763 v 35.77528 L 91.225778,152.91206 Z m 82.131252,0 v 35.52645 l -35.27735,18.13646 v -35.77528 z" />
  </g>
</svg>
