<?xml version="1.0" encoding="UTF-8" standalone="no"?>
<svg
   width="1000"
   height="1000"
   viewBox="0 0 264.58333 264.58334"
   version="1.1"
   id="svg221"
   inkscape:version="1.1.1 (3bf5ae0d25, 2021-09-20)"
   sodipodi:docname="power.svg"
   xmlns:inkscape="http://www.inkscape.org/namespaces/inkscape"
   xmlns:sodipodi="http://sodipodi.sourceforge.net/DTD/sodipodi-0.dtd"
   xmlns="http://www.w3.org/2000/svg"
   xmlns:svg="http://www.w3.org/2000/svg"
   xmlns:rdf="http://www.w3.org/1999/02/22-rdf-syntax-ns#"
   xmlns:cc="http://creativecommons.org/ns#"
   xmlns:dc="http://purl.org/dc/elements/1.1/">
  <defs
     id="defs215" />
  <sodipodi:namedview
     id="base"
     pagecolor="#ffffff"
     bordercolor="#666666"
     borderopacity="1.0"
     inkscape:pageopacity="0.0"
     inkscape:pageshadow="2"
     inkscape:zoom="0.49497474"
     inkscape:cx="439.41636"
     inkscape:cy="502.04582"
     inkscape:document-units="mm"
     inkscape:current-layer="layer1"
     inkscape:document-rotation="0"
     showgrid="false"
     units="px"
     showguides="true"
     inkscape:guide-bbox="true"
     inkscape:window-width="1366"
     inkscape:window-height="740"
     inkscape:window-x="0"
     inkscape:window-y="28"
     inkscape:window-maximized="0"
     inkscape:pagecheckerboard="0"
     inkscape:snap-bbox="true"
     inkscape:bbox-nodes="true"
     inkscape:snap-midpoints="true">
    <sodipodi:guide
       position="-5.0862631e-06,52.916663"
       orientation="0,-1"
       id="guide1048" />
    <sodipodi:guide
       position="75.848259,211.66667"
       orientation="0,-1"
       id="guide144" />
    <sodipodi:guide
       position="211.66667,269.38659"
       orientation="1,0"
       id="guide146" />
    <sodipodi:guide
       position="52.916667,269.38659"
       orientation="1,0"
       id="guide148" />
    <sodipodi:guide
       position="132.29166,211.66667"
       orientation="1,0"
       id="guide133" />
    <sodipodi:guide
       position="52.916666,132.29167"
       orientation="0,-1"
       id="guide135" />
  </sodipodi:namedview>
  <metadata
     id="metadata218">
    <rdf:RDF>
      <cc:Work
         rdf:about="">
        <dc:format>image/svg+xml</dc:format>
        <dc:type
           rdf:resource="http://purl.org/dc/dcmitype/StillImage" />
      </cc:Work>
    </rdf:RDF>
  </metadata>
  <g
     inkscape:label="Layer 1"
     inkscape:groupmode="layer"
     id="layer1">
    <path
       id="text1814-7-9-3-83-7"
       style="font-size:64.6057px;line-height:1.25;font-family:sans-serif;direction:rtl;display:inline;stroke-width:0.388491"
       d="m 71.429997,52.916665 c -10.179624,0 -18.51333,8.334054 -18.51333,18.513849 V 193.15284 c 0,10.17978 8.333706,18.51383 18.51333,18.51383 H 193.15281 c 10.17962,0 18.51386,-8.33405 18.51386,-18.51383 V 71.430514 c 0,-10.179795 -8.33424,-18.513849 -18.51386,-18.513849 z m 0,8.817133 H 193.15281 c 5.44815,0 9.69649,4.248395 9.69649,9.696716 V 193.15284 c 0,5.44832 -4.24834,9.6967 -9.69649,9.6967 H 71.429997 c -5.448147,0 -9.696492,-4.24838 -9.696492,-9.6967 V 71.430514 c 0,-5.448321 4.248345,-9.696716 9.696492,-9.696716 z m 60.888653,17.641479 c -2.22568,0 -4.15397,0.797634 -5.78611,2.39276 -1.59509,1.595126 -2.39272,3.505002 -2.39272,5.730721 v 40.731212 c 0,2.22572 0.79763,4.13651 2.39272,5.7316 1.63214,1.59513 3.56043,2.39182 5.78611,2.39182 2.22569,0 4.13688,-0.79669 5.73161,-2.39182 1.5951,-1.59509 2.39273,-3.50588 2.39273,-5.7316 V 87.498758 c 0,-2.225719 -0.79763,-4.135595 -2.39273,-5.730721 -1.59473,-1.595126 -3.50592,-2.39276 -5.73161,-2.39276 z m -24.92068,16.32713 c -1.57181,0.07655 -3.03955,0.643681 -4.40286,1.70089 -6.19481,4.599853 -10.999135,10.312793 -14.412099,17.138383 -3.412435,6.82559 -5.118652,14.09585 -5.118652,21.81171 0,6.60302 1.297875,12.92849 3.894508,18.97507 2.596808,6.04658 6.065687,11.23952 10.405932,15.57966 4.377281,4.34019 9.570201,7.80921 15.579791,10.40591 6.04664,2.5967 12.37127,3.89491 18.97406,3.89491 5.26771,0 10.38742,-0.83464 15.35808,-2.50392 4.97084,-1.66933 9.45995,-4.00664 13.46612,-7.01143 4.00616,-3.00475 7.51155,-6.50982 10.51617,-10.51619 3.00462,-4.00632 5.32362,-8.49501 6.95558,-13.46584 1.66935,-4.9708 2.50438,-10.09062 2.50438,-15.35817 0,-7.71586 -1.70622,-14.98612 -5.11918,-21.81171 -3.37575,-6.82559 -8.16173,-12.53853 -14.35654,-17.138383 -1.78047,-1.409618 -3.80225,-1.947253 -6.06533,-1.613383 -2.22569,0.33387 -4.00599,1.390567 -5.34126,3.171167 -1.37266,1.780579 -1.8916,3.783929 -1.55787,6.009659 0.33373,2.22572 1.39083,4.00604 3.17113,5.34149 4.15469,3.11604 7.36357,6.95608 9.62665,11.51884 2.26255,4.56277 3.39426,9.40311 3.39426,14.52232 0,5.8611 -1.46544,11.29641 -4.39633,16.30434 -2.8935,5.00791 -6.84357,8.9766 -11.85127,11.90714 -5.00806,2.93057 -10.44333,4.39628 -16.30459,4.39628 -5.86072,0 -11.29546,-1.46571 -16.30317,-4.39628 -5.00805,-2.93054 -8.97682,-6.89923 -11.90718,-11.90714 -2.89367,-5.00793 -4.340773,-10.44324 -4.340773,-16.30434 0,-5.11921 1.131713,-9.95955 3.394793,-14.52232 2.26255,-4.56276 5.47143,-8.4028 9.62647,-11.51884 1.78048,-1.33545 2.81835,-3.11577 3.11522,-5.34149 0.33408,-2.22573 -0.18521,-4.22908 -1.55788,-6.009659 -1.33509,-1.7806 -3.11557,-2.837297 -5.34125,-3.171167 -0.54699,-0.08343 -1.08286,-0.113066 -1.60691,-0.08749 z" />
  </g>
</svg>
