<?xml version="1.0" encoding="UTF-8" standalone="no"?>
<svg
   width="1000"
   height="1000"
   viewBox="0 0 264.58333 264.58334"
   version="1.1"
   id="svg221"
   inkscape:version="1.1.1 (3bf5ae0d25, 2021-09-20)"
   sodipodi:docname="reboot.svg"
   xmlns:inkscape="http://www.inkscape.org/namespaces/inkscape"
   xmlns:sodipodi="http://sodipodi.sourceforge.net/DTD/sodipodi-0.dtd"
   xmlns="http://www.w3.org/2000/svg"
   xmlns:svg="http://www.w3.org/2000/svg"
   xmlns:rdf="http://www.w3.org/1999/02/22-rdf-syntax-ns#"
   xmlns:cc="http://creativecommons.org/ns#"
   xmlns:dc="http://purl.org/dc/elements/1.1/">
  <defs
     id="defs215" />
  <sodipodi:namedview
     id="base"
     pagecolor="#ffffff"
     bordercolor="#666666"
     borderopacity="1.0"
     inkscape:pageopacity="0.0"
     inkscape:pageshadow="2"
     inkscape:zoom="0.69999999"
     inkscape:cx="507.85715"
     inkscape:cy="563.57144"
     inkscape:document-units="mm"
     inkscape:current-layer="layer1"
     inkscape:document-rotation="0"
     showgrid="false"
     units="px"
     showguides="true"
     inkscape:guide-bbox="true"
     inkscape:window-width="1366"
     inkscape:window-height="740"
     inkscape:window-x="0"
     inkscape:window-y="28"
     inkscape:window-maximized="0"
     inkscape:pagecheckerboard="0"
     inkscape:snap-bbox="true"
     inkscape:bbox-nodes="true"
     inkscape:snap-midpoints="true">
    <sodipodi:guide
       position="-5.0862631e-06,52.916663"
       orientation="0,-1"
       id="guide1048" />
    <sodipodi:guide
       position="75.848259,211.66667"
       orientation="0,-1"
       id="guide144" />
    <sodipodi:guide
       position="211.66667,269.38659"
       orientation="1,0"
       id="guide146" />
    <sodipodi:guide
       position="52.916667,269.38659"
       orientation="1,0"
       id="guide148" />
    <sodipodi:guide
       position="132.29166,211.66667"
       orientation="1,0"
       id="guide133" />
    <sodipodi:guide
       position="52.916666,132.29167"
       orientation="0,-1"
       id="guide135" />
  </sodipodi:namedview>
  <metadata
     id="metadata218">
    <rdf:RDF>
      <cc:Work
         rdf:about="">
        <dc:format>image/svg+xml</dc:format>
        <dc:type
           rdf:resource="http://purl.org/dc/dcmitype/StillImage" />
      </cc:Work>
    </rdf:RDF>
  </metadata>
  <g
     inkscape:label="Layer 1"
     inkscape:groupmode="layer"
     id="layer1">
    <path
       id="text1814-7-9-3-8-1-9-7-9-1-8-6-5"
       style="font-size:70.0171px;line-height:1.25;font-family:sans-serif;direction:rtl;display:inline;stroke-width:0.42103"
       d="m 71.430403,52.916665 c -10.179556,0 -18.513736,8.33406 -18.513736,18.513862 V 193.15299 c 0,10.17962 8.33418,18.51368 18.513736,18.51368 H 193.15293 c 10.17974,0 18.51374,-8.33406 18.51374,-18.51368 V 71.430527 c 0,-10.179802 -8.334,-18.513862 -18.51374,-18.513862 z m 0,8.817191 H 193.15293 c 5.44847,0 9.69573,4.248346 9.69573,9.696671 V 193.15299 c 0,5.44814 -4.24726,9.69667 -9.69573,9.69667 H 71.430403 c -5.448288,0 -9.695722,-4.24853 -9.695722,-9.69667 V 71.430527 c 0,-5.448325 4.247434,-9.696671 9.695722,-9.696671 z m 60.891777,17.671601 c -7.15608,0 -14.01071,1.406885 -20.56372,4.221182 -6.5128,2.814121 -12.140999,6.572633 -16.884968,11.276416 -4.703575,4.703784 -8.462943,10.331855 -11.277222,16.884905 -2.814102,6.55305 -4.221153,13.40791 -4.221153,20.56386 0,7.15612 1.407051,13.99087 4.221153,20.50371 2.814279,6.51283 6.573647,12.14107 11.277222,16.88508 4.743969,4.74382 10.372168,8.50321 16.884968,11.27729 6.55301,2.77391 13.40764,4.16015 20.56372,4.16015 7.91985,0 15.41777,-1.64748 22.49342,-4.94402 7.11586,-3.29673 13.18574,-8.00051 18.21105,-14.11135 0.36195,-0.402 0.52335,-0.90453 0.48313,-1.50761 0,-0.60307 -0.20143,-1.06574 -0.60342,-1.3873 l -9.46783,-9.52822 c -0.44221,-0.40199 -1.00471,-0.60343 -1.68822,-0.60343 -0.76376,0.0811 -1.30721,0.32174 -1.62877,0.7239 -3.37713,4.42227 -7.49739,7.81971 -12.36201,10.19162 -4.82423,2.37192 -9.96983,3.55761 -15.43735,3.55761 -6.3521,0 -12.24242,-1.56758 -17.66972,-4.70343 -5.42729,-3.13568 -9.72835,-7.41772 -12.90423,-12.84505 -3.135831,-5.42734 -4.704277,-11.31681 -4.704277,-17.66895 0,-6.35197 1.568446,-12.24144 4.704277,-17.66878 3.17588,-5.42751 7.47694,-9.7293 12.90423,-12.90537 5.4273,-3.176076 11.31762,-4.763583 17.66972,-4.763583 4.50267,0 8.82455,0.82374 12.96544,2.472102 4.14072,1.648181 7.83941,3.959771 11.09572,6.934761 l -9.52798,9.52804 c -1.40705,1.36702 -1.72913,2.97534 -0.96537,4.82479 0.32173,0.80398 0.84419,1.44728 1.56792,1.9297 0.76376,0.48243 1.58837,0.72373 2.47279,0.72373 h 30.87574 c 1.20615,0 2.23114,-0.42281 3.07551,-1.26701 0.88442,-0.84438 1.32609,-1.86938 1.32609,-3.07553 V 88.209772 c 0,-1.929703 -0.88441,-3.296899 -2.65323,-4.100884 -1.88965,-0.723726 -3.49708,-0.402521 -4.8237,0.964323 l -8.98576,8.925495 c -4.90466,-4.663391 -10.51293,-8.26227 -16.82482,-10.795049 -6.3117,-2.53278 -12.84425,-3.7982 -19.59835,-3.7982 z" />
  </g>
</svg>
