<?xml version="1.0" encoding="UTF-8" standalone="no"?>
<svg
   width="1000"
   height="1000"
   viewBox="0 0 264.58333 264.58334"
   version="1.1"
   id="svg221"
   inkscape:version="1.1.1 (3bf5ae0d25, 2021-09-20)"
   sodipodi:docname="reload.svg"
   xmlns:inkscape="http://www.inkscape.org/namespaces/inkscape"
   xmlns:sodipodi="http://sodipodi.sourceforge.net/DTD/sodipodi-0.dtd"
   xmlns="http://www.w3.org/2000/svg"
   xmlns:svg="http://www.w3.org/2000/svg"
   xmlns:rdf="http://www.w3.org/1999/02/22-rdf-syntax-ns#"
   xmlns:cc="http://creativecommons.org/ns#"
   xmlns:dc="http://purl.org/dc/elements/1.1/">
  <defs
     id="defs215" />
  <sodipodi:namedview
     id="base"
     pagecolor="#ffffff"
     bordercolor="#666666"
     borderopacity="1.0"
     inkscape:pageopacity="0.0"
     inkscape:pageshadow="2"
     inkscape:zoom="0.69999999"
     inkscape:cx="507.85715"
     inkscape:cy="449.28572"
     inkscape:document-units="mm"
     inkscape:current-layer="layer1"
     inkscape:document-rotation="0"
     showgrid="false"
     units="px"
     showguides="true"
     inkscape:guide-bbox="true"
     inkscape:window-width="1366"
     inkscape:window-height="740"
     inkscape:window-x="0"
     inkscape:window-y="28"
     inkscape:window-maximized="0"
     inkscape:pagecheckerboard="0"
     inkscape:snap-bbox="true"
     inkscape:bbox-nodes="true"
     inkscape:snap-midpoints="true">
    <sodipodi:guide
       position="-5.0862631e-06,52.916663"
       orientation="0,-1"
       id="guide1048" />
    <sodipodi:guide
       position="75.848259,211.66667"
       orientation="0,-1"
       id="guide144" />
    <sodipodi:guide
       position="211.66667,269.38659"
       orientation="1,0"
       id="guide146" />
    <sodipodi:guide
       position="52.916667,269.38659"
       orientation="1,0"
       id="guide148" />
    <sodipodi:guide
       position="132.29166,211.66667"
       orientation="1,0"
       id="guide133" />
    <sodipodi:guide
       position="52.916666,132.29167"
       orientation="0,-1"
       id="guide135" />
  </sodipodi:namedview>
  <metadata
     id="metadata218">
    <rdf:RDF>
      <cc:Work
         rdf:about="">
        <dc:format>image/svg+xml</dc:format>
        <dc:type
           rdf:resource="http://purl.org/dc/dcmitype/StillImage" />
      </cc:Work>
    </rdf:RDF>
  </metadata>
  <g
     inkscape:label="Layer 1"
     inkscape:groupmode="layer"
     id="layer1">
    <path
       id="path78876-3"
       style="font-size:74.5631px;line-height:1.25;font-family:'Hack Nerd Font';-inkscape-font-specification:'Hack Nerd Font';direction:rtl;stroke-width:0.448365"
       d="m 71.430403,52.916665 c -10.179556,0 -18.513736,8.334004 -18.513736,18.513738 V 193.15293 c 0,10.17974 8.33418,18.51374 18.513736,18.51374 H 193.15293 c 10.17974,0 18.51374,-8.334 18.51374,-18.51374 V 71.430403 c 0,-10.179734 -8.334,-18.513738 -18.51374,-18.513738 z m 0,8.818015 H 193.15293 c 5.44847,0 9.69573,4.247435 9.69573,9.695723 V 193.15293 c 0,5.44829 -4.24726,9.69573 -9.69573,9.69573 H 71.430403 c -5.448288,0 -9.695722,-4.24744 -9.695722,-9.69573 V 71.430403 c 0,-5.448288 4.247434,-9.695723 9.695722,-9.695723 z M 124.9435,88.405505 c -11.64499,0 -22.00553,4.281478 -31.081772,12.844085 -8.562603,9.07624 -12.844081,19.4366 -12.844081,31.08177 0,11.64498 4.281478,22.00534 12.844081,31.08159 7.534962,7.19259 16.140252,11.34548 25.815862,12.45867 9.6758,1.11301 18.79473,-0.81368 27.35734,-5.78007 l -7.96306,-8.21989 c -6.33623,2.9113 -12.84391,3.85321 -19.52269,2.82557 -6.67877,-1.02746 -12.67263,-4.10967 -17.98139,-9.24717 -6.336229,-6.67895 -9.504343,-14.38501 -9.504343,-23.1187 0,-8.73388 3.168114,-16.52566 9.504343,-23.37589 6.85005,-6.33623 14.64201,-9.50434 23.37571,-9.50434 8.73387,0 16.44082,3.16811 23.11959,9.50434 3.25384,3.25384 5.65061,6.89274 7.19189,10.91722 1.54129,4.02448 2.31246,8.17737 2.31246,12.45867 h -24.91718 l 27.22875,27.22873 26.97174,-27.22873 h -18.23751 c 0,-5.65149 -1.07068,-11.13135 -3.21133,-16.44012 -2.14065,-5.30876 -5.35163,-10.18908 -9.63293,-14.64165 -8.90515,-8.562607 -19.18049,-12.844085 -30.82548,-12.844085 z" />
  </g>
</svg>
