<?xml version="1.0" encoding="UTF-8" standalone="no"?>
<svg
   width="1000"
   height="1000"
   viewBox="0 0 264.58333 264.58334"
   version="1.1"
   id="svg221"
   inkscape:version="1.1.1 (3bf5ae0d25, 2021-09-20)"
   sodipodi:docname="S.svg"
   xmlns:inkscape="http://www.inkscape.org/namespaces/inkscape"
   xmlns:sodipodi="http://sodipodi.sourceforge.net/DTD/sodipodi-0.dtd"
   xmlns="http://www.w3.org/2000/svg"
   xmlns:svg="http://www.w3.org/2000/svg"
   xmlns:rdf="http://www.w3.org/1999/02/22-rdf-syntax-ns#"
   xmlns:cc="http://creativecommons.org/ns#"
   xmlns:dc="http://purl.org/dc/elements/1.1/">
  <defs
     id="defs215" />
  <sodipodi:namedview
     id="base"
     pagecolor="#ffffff"
     bordercolor="#666666"
     borderopacity="1.0"
     inkscape:pageopacity="0.0"
     inkscape:pageshadow="2"
     inkscape:zoom="0.49497474"
     inkscape:cx="344.46202"
     inkscape:cy="651.5484"
     inkscape:document-units="mm"
     inkscape:current-layer="layer1"
     inkscape:document-rotation="0"
     showgrid="false"
     units="px"
     showguides="true"
     inkscape:guide-bbox="true"
     inkscape:window-width="1366"
     inkscape:window-height="740"
     inkscape:window-x="0"
     inkscape:window-y="28"
     inkscape:window-maximized="0"
     inkscape:pagecheckerboard="0"
     inkscape:snap-bbox="true"
     inkscape:bbox-nodes="true"
     inkscape:snap-midpoints="true">
    <sodipodi:guide
       position="-5.0862631e-06,52.916663"
       orientation="0,-1"
       id="guide1048" />
    <sodipodi:guide
       position="-5.0862631e-06,211.66667"
       orientation="0,-1"
       id="guide144" />
    <sodipodi:guide
       position="211.66667,269.38659"
       orientation="1,0"
       id="guide146" />
    <sodipodi:guide
       position="52.916667,269.38659"
       orientation="1,0"
       id="guide148" />
    <sodipodi:guide
       position="132.29166,211.66667"
       orientation="1,0"
       id="guide133" />
    <sodipodi:guide
       position="52.916666,132.29167"
       orientation="0,-1"
       id="guide135" />
  </sodipodi:namedview>
  <metadata
     id="metadata218">
    <rdf:RDF>
      <cc:Work
         rdf:about="">
        <dc:format>image/svg+xml</dc:format>
        <dc:type
           rdf:resource="http://purl.org/dc/dcmitype/StillImage" />
      </cc:Work>
    </rdf:RDF>
  </metadata>
  <g
     inkscape:label="Layer 1"
     inkscape:groupmode="layer"
     id="layer1">
    <path
       id="text1950-3-2-7-8-9-0-1-4-2-9-3-5-5-1"
       style="font-style:normal;font-variant:normal;font-weight:normal;font-stretch:normal;font-size:82.139px;line-height:1.25;font-family:vi;-inkscape-font-specification:vi;direction:rtl;display:inline;fill:#000000;stroke-width:0.543312"
       d="m 71.430247,52.916665 c -10.179567,0 -18.51358,8.334022 -18.51358,18.513756 V 193.15293 c 0,10.17974 8.334013,18.51374 18.51358,18.51374 H 193.15291 c 10.17975,0 18.51376,-8.334 18.51376,-18.51374 V 71.430421 c 0,-10.179734 -8.33401,-18.513756 -18.51376,-18.513756 z m 0,8.817997 H 193.15291 c 5.44847,0 9.69574,4.247471 9.69574,9.695759 V 193.15293 c 0,5.44829 -4.24727,9.69576 -9.69574,9.69576 H 71.430247 c -5.448293,0 -9.695733,-4.24747 -9.695733,-9.69576 V 71.430421 c 0,-5.448288 4.24744,-9.695759 9.695733,-9.695759 z m 61.710463,17.640509 c -10.37571,0 -18.81785,2.664578 -25.32641,7.993963 -6.4613,5.282219 -9.692211,11.979585 -9.692211,20.091566 0,7.16873 2.640711,13.20501 7.923031,18.10993 5.32923,4.85776 13.81934,8.96144 25.46858,12.30999 9.29111,2.68827 15.70478,5.42375 19.24207,8.20634 3.53713,2.73545 5.30595,6.62644 5.30595,11.67284 0,5.04641 -1.91064,9.03132 -5.73069,11.9554 -3.82023,2.92408 -9.3142,4.3862 -16.483,4.3862 -7.68755,0 -13.84263,-1.79265 -18.46454,-5.37701 -4.57482,-3.63154 -6.86188,-8.55927 -6.86188,-14.78474 H 94.868071 c 0,5.98966 1.650822,11.34185 4.952289,16.05813 3.34856,4.71626 8.08848,8.44243 14.21957,11.17788 6.13127,2.68827 12.73368,4.03252 19.8081,4.03252 10.89465,0 19.59555,-2.49976 26.10394,-7.49901 6.50857,-5.04641 9.76329,-11.74378 9.76329,-20.09157 0,-5.23506 -1.17951,-9.78621 -3.53765,-13.65355 -2.31086,-3.86734 -5.89544,-7.23906 -10.75318,-10.11596 -4.81047,-2.92408 -11.50689,-5.58868 -20.09068,-7.99396 -8.53633,-2.40531 -14.59757,-5.04687 -18.18197,-7.9238 -3.53712,-2.92408 -5.30489,-6.48453 -5.30489,-10.68202 0,-5.23505 1.86267,-9.314792 5.58853,-12.238872 3.77295,-2.971247 9.00817,-4.456386 15.70529,-4.456386 7.21589,0 12.80477,1.791737 16.76646,5.376093 3.96169,3.537207 5.942,8.418905 5.942,14.644375 h 13.65372 c 0,-5.70668 -1.53317,-10.965881 -4.59863,-15.776472 -3.01836,-4.810591 -7.3099,-8.583735 -12.87514,-11.319168 -5.51814,-2.735433 -11.81398,-4.102709 -18.88841,-4.102709 z" />
  </g>
</svg>
