<?xml version="1.0" encoding="UTF-8" standalone="no"?>
<svg
   width="1000"
   height="1000"
   viewBox="0 0 264.58333 264.58334"
   version="1.1"
   id="svg221"
   inkscape:version="1.1.1 (3bf5ae0d25, 2021-09-20)"
   sodipodi:docname="settings.svg"
   xmlns:inkscape="http://www.inkscape.org/namespaces/inkscape"
   xmlns:sodipodi="http://sodipodi.sourceforge.net/DTD/sodipodi-0.dtd"
   xmlns="http://www.w3.org/2000/svg"
   xmlns:svg="http://www.w3.org/2000/svg"
   xmlns:rdf="http://www.w3.org/1999/02/22-rdf-syntax-ns#"
   xmlns:cc="http://creativecommons.org/ns#"
   xmlns:dc="http://purl.org/dc/elements/1.1/">
  <defs
     id="defs215" />
  <sodipodi:namedview
     id="base"
     pagecolor="#ffffff"
     bordercolor="#666666"
     borderopacity="1.0"
     inkscape:pageopacity="0.0"
     inkscape:pageshadow="2"
     inkscape:zoom="0.69999999"
     inkscape:cx="507.85715"
     inkscape:cy="449.28572"
     inkscape:document-units="mm"
     inkscape:current-layer="layer1"
     inkscape:document-rotation="0"
     showgrid="false"
     units="px"
     showguides="true"
     inkscape:guide-bbox="true"
     inkscape:window-width="1366"
     inkscape:window-height="740"
     inkscape:window-x="0"
     inkscape:window-y="28"
     inkscape:window-maximized="0"
     inkscape:pagecheckerboard="0"
     inkscape:snap-bbox="true"
     inkscape:bbox-nodes="true"
     inkscape:snap-midpoints="true">
    <sodipodi:guide
       position="-5.0862631e-06,52.916663"
       orientation="0,-1"
       id="guide1048" />
    <sodipodi:guide
       position="75.848259,211.66667"
       orientation="0,-1"
       id="guide144" />
    <sodipodi:guide
       position="211.66667,269.38659"
       orientation="1,0"
       id="guide146" />
    <sodipodi:guide
       position="52.916667,269.38659"
       orientation="1,0"
       id="guide148" />
    <sodipodi:guide
       position="132.29166,211.66667"
       orientation="1,0"
       id="guide133" />
    <sodipodi:guide
       position="52.916666,132.29167"
       orientation="0,-1"
       id="guide135" />
  </sodipodi:namedview>
  <metadata
     id="metadata218">
    <rdf:RDF>
      <cc:Work
         rdf:about="">
        <dc:format>image/svg+xml</dc:format>
        <dc:type
           rdf:resource="http://purl.org/dc/dcmitype/StillImage" />
      </cc:Work>
    </rdf:RDF>
  </metadata>
  <g
     inkscape:label="Layer 1"
     inkscape:groupmode="layer"
     id="layer1">
    <path
       id="text1814-7-9-1-7-72-2-2"
       style="font-size:68.5715px;line-height:1.25;font-family:sans-serif;direction:rtl;display:inline;stroke-width:0.412336"
       d="m 71.430403,52.916665 c -10.179556,0 -18.513736,8.333828 -18.513736,18.513738 V 193.15293 c 0,10.17991 8.33418,18.51374 18.513736,18.51374 H 193.15293 c 10.17974,0 18.51374,-8.33383 18.51374,-18.51374 V 71.430403 c 0,-10.17991 -8.334,-18.513738 -18.51374,-18.513738 z m 0,8.818015 H 193.15293 c 5.44847,0 9.69678,4.247435 9.69678,9.695723 V 193.15293 c 0,5.44829 -4.24831,9.69573 -9.69678,9.69573 H 71.430403 c -5.448288,0 -9.695722,-4.24744 -9.695722,-9.69573 V 71.430403 c 0,-5.448288 4.247434,-9.695723 9.695722,-9.695723 z m 54.542147,17.640438 -5.02055,15.119318 -7.55913,2.539466 -13.878773,-6.319472 -8.799669,8.79967 6.319471,13.87878 -2.539466,7.56001 -15.119316,5.01966 v 12.63911 l 15.119316,5.01967 2.539466,7.5593 -6.319471,13.87861 8.799669,8.79967 13.878773,-6.31859 7.55913,2.53946 5.02055,15.11844 h 12.63824 l 5.02054,-15.11844 7.55931,-2.53946 13.8786,6.31859 8.79967,-8.79967 -6.31947,-13.87861 2.53946,-7.5593 15.11932,-6.31947 v -11.33931 l -15.11932,-5.01966 -2.53946,-7.56001 6.31947,-13.87878 -8.79967,-8.79967 -13.8786,6.319472 -7.55931,-2.539466 -5.02054,-15.119318 z m 6.31964,30.238632 c 5.86651,0 11.10243,2.32251 15.70899,6.96841 4.6459,4.60674 6.96946,9.84354 6.96946,15.71004 0,5.8665 -2.32356,11.12217 -6.96946,15.76824 -4.60656,4.60657 -9.84248,6.9102 -15.70899,6.9102 -5.8665,0 -11.12323,-2.30363 -15.7693,-6.9102 -4.60657,-4.64607 -6.91002,-9.90174 -6.91002,-15.76824 0,-5.8665 2.30345,-11.1033 6.91002,-15.71004 4.64607,-4.6459 9.9028,-6.96841 15.7693,-6.96841 z" />
  </g>
</svg>
