<?xml version="1.0" encoding="UTF-8" standalone="no"?>
<svg
   width="1000"
   height="1000"
   viewBox="0 0 264.58333 264.58334"
   version="1.1"
   id="svg221"
   inkscape:version="1.1.1 (3bf5ae0d25, 2021-09-20)"
   sodipodi:docname="spiral.svg"
   xmlns:inkscape="http://www.inkscape.org/namespaces/inkscape"
   xmlns:sodipodi="http://sodipodi.sourceforge.net/DTD/sodipodi-0.dtd"
   xmlns="http://www.w3.org/2000/svg"
   xmlns:svg="http://www.w3.org/2000/svg"
   xmlns:rdf="http://www.w3.org/1999/02/22-rdf-syntax-ns#"
   xmlns:cc="http://creativecommons.org/ns#"
   xmlns:dc="http://purl.org/dc/elements/1.1/">
  <defs
     id="defs215" />
  <sodipodi:namedview
     id="base"
     pagecolor="#ffffff"
     bordercolor="#666666"
     borderopacity="1.0"
     inkscape:pageopacity="0.0"
     inkscape:pageshadow="2"
     inkscape:zoom="0.49497474"
     inkscape:cx="344.46202"
     inkscape:cy="651.5484"
     inkscape:document-units="mm"
     inkscape:current-layer="layer1"
     inkscape:document-rotation="0"
     showgrid="false"
     units="px"
     showguides="true"
     inkscape:guide-bbox="true"
     inkscape:window-width="1366"
     inkscape:window-height="740"
     inkscape:window-x="0"
     inkscape:window-y="28"
     inkscape:window-maximized="0"
     inkscape:pagecheckerboard="0"
     inkscape:snap-bbox="true"
     inkscape:bbox-nodes="true"
     inkscape:snap-midpoints="true">
    <sodipodi:guide
       position="-5.0862631e-06,52.916663"
       orientation="0,-1"
       id="guide1048" />
    <sodipodi:guide
       position="75.848259,211.66667"
       orientation="0,-1"
       id="guide144" />
    <sodipodi:guide
       position="211.66667,269.38659"
       orientation="1,0"
       id="guide146" />
    <sodipodi:guide
       position="52.916667,269.38659"
       orientation="1,0"
       id="guide148" />
    <sodipodi:guide
       position="132.29166,211.66667"
       orientation="1,0"
       id="guide133" />
    <sodipodi:guide
       position="52.916666,132.29167"
       orientation="0,-1"
       id="guide135" />
  </sodipodi:namedview>
  <metadata
     id="metadata218">
    <rdf:RDF>
      <cc:Work
         rdf:about="">
        <dc:format>image/svg+xml</dc:format>
        <dc:type
           rdf:resource="http://purl.org/dc/dcmitype/StillImage" />
      </cc:Work>
    </rdf:RDF>
  </metadata>
  <g
     inkscape:label="Layer 1"
     inkscape:groupmode="layer"
     id="layer1">
    <path
       id="rect1761-8-8-8-5-7-9"
       style="display:inline;opacity:0.999;fill:#000000;fill-opacity:1;stroke:none;stroke-width:10.1545;stroke-miterlimit:4;stroke-dasharray:none;stroke-opacity:1"
       d="m 71.430703,52.916665 c -10.179624,0 -18.514036,8.334034 -18.514036,18.513879 V 193.15285 c 0,10.17979 8.334412,18.51382 18.514036,18.51382 h 113.778577 6.61496 1.32857 c 10.18015,0 18.51386,-8.33403 18.51386,-18.51382 v -57.55418 -6.61489 -57.553236 c 0,-10.179845 -8.33371,-18.513879 -18.51386,-18.513879 h -44.51775 -6.61356 z m 0,8.817112 H 142.0215 v 116.859363 6.61489 17.64153 H 71.430703 c -5.448324,0 -9.697198,-4.2484 -9.697198,-9.69671 V 71.430544 c 0,-5.44832 4.248874,-9.696767 9.697198,-9.696767 z m 77.204357,0 h 44.51775 c 5.44868,0 9.69702,4.248447 9.69702,9.696767 v 57.553236 h -54.21477 z m 0,73.864893 h 10.11524 v 42.99447 h -10.11524 z m 16.7302,0 h 37.48457 v 16.53677 h -37.48457 z m 0,23.15074 h 19.84402 v 19.84373 h -19.84402 z m 26.45898,0 h 11.02559 v 34.40344 c 0,5.44831 -4.24834,9.69671 -9.69702,9.69671 h -1.32857 z m -43.18918,26.45862 h 36.57422 v 17.64153 h -36.57422 z" />
  </g>
</svg>
