<?xml version="1.0" encoding="UTF-8" standalone="no"?>
<svg
   width="1000"
   height="1000"
   viewBox="0 0 264.58333 264.58334"
   version="1.1"
   id="svg221"
   inkscape:version="1.1.1 (3bf5ae0d25, 2021-09-20)"
   sodipodi:docname="sun.svg"
   xmlns:inkscape="http://www.inkscape.org/namespaces/inkscape"
   xmlns:sodipodi="http://sodipodi.sourceforge.net/DTD/sodipodi-0.dtd"
   xmlns="http://www.w3.org/2000/svg"
   xmlns:svg="http://www.w3.org/2000/svg"
   xmlns:rdf="http://www.w3.org/1999/02/22-rdf-syntax-ns#"
   xmlns:cc="http://creativecommons.org/ns#"
   xmlns:dc="http://purl.org/dc/elements/1.1/">
  <defs
     id="defs215" />
  <sodipodi:namedview
     id="base"
     pagecolor="#ffffff"
     bordercolor="#666666"
     borderopacity="1.0"
     inkscape:pageopacity="0.0"
     inkscape:pageshadow="2"
     inkscape:zoom="0.49497474"
     inkscape:cx="439.41636"
     inkscape:cy="502.04582"
     inkscape:document-units="mm"
     inkscape:current-layer="layer1"
     inkscape:document-rotation="0"
     showgrid="false"
     units="px"
     showguides="true"
     inkscape:guide-bbox="true"
     inkscape:window-width="1366"
     inkscape:window-height="740"
     inkscape:window-x="0"
     inkscape:window-y="28"
     inkscape:window-maximized="0"
     inkscape:pagecheckerboard="0"
     inkscape:snap-bbox="true"
     inkscape:bbox-nodes="true"
     inkscape:snap-midpoints="true">
    <sodipodi:guide
       position="-5.0862631e-06,52.916663"
       orientation="0,-1"
       id="guide1048" />
    <sodipodi:guide
       position="75.848259,211.66667"
       orientation="0,-1"
       id="guide144" />
    <sodipodi:guide
       position="211.66667,269.38659"
       orientation="1,0"
       id="guide146" />
    <sodipodi:guide
       position="52.916667,269.38659"
       orientation="1,0"
       id="guide148" />
    <sodipodi:guide
       position="132.29166,211.66667"
       orientation="1,0"
       id="guide133" />
    <sodipodi:guide
       position="52.916666,132.29167"
       orientation="0,-1"
       id="guide135" />
  </sodipodi:namedview>
  <metadata
     id="metadata218">
    <rdf:RDF>
      <cc:Work
         rdf:about="">
        <dc:format>image/svg+xml</dc:format>
        <dc:type
           rdf:resource="http://purl.org/dc/dcmitype/StillImage" />
      </cc:Work>
    </rdf:RDF>
  </metadata>
  <g
     inkscape:label="Layer 1"
     inkscape:groupmode="layer"
     id="layer1">
    <path
       id="text1814-7-9-3-8-3-4-4"
       style="font-size:65.3617px;line-height:1.25;font-family:sans-serif;direction:rtl;display:inline;stroke-width:0.393036"
       d="m 71.430403,52.916665 c -10.179556,0 -18.513736,8.334005 -18.513736,18.51374 V 193.15295 c 0,10.17972 8.33418,18.51372 18.513736,18.51372 H 193.15293 c 10.17974,0 18.51374,-8.334 18.51374,-18.51372 V 71.430405 c 0,-10.179735 -8.334,-18.51374 -18.51374,-18.51374 z m 0,8.818016 H 193.15293 c 5.44847,0 9.69678,4.247435 9.69678,9.695724 V 193.15295 c 0,5.44829 -4.24831,9.69576 -9.69678,9.69576 H 71.430403 c -5.448288,0 -9.695722,-4.24747 -9.695722,-9.69576 V 71.430405 c 0,-5.448289 4.247434,-9.695724 9.695722,-9.695724 z m 56.132817,17.97773 v 14.186807 h 9.4569 V 79.712411 Z m -29.048187,11.934449 -6.75515,6.755222 8.556427,8.782458 6.75603,-6.9804 z m 67.553267,0 -8.55643,8.55728 6.75515,6.9804 8.55643,-8.782458 z m -33.77611,11.70929 c -8.10646,0.30026 -14.89936,3.15213 -20.37869,8.55638 -5.47933,5.40426 -8.29414,12.16024 -8.44424,20.26658 0.14993,8.25647 2.96491,15.08656 8.44424,20.49082 5.47933,5.40424 12.27223,8.18111 20.37869,8.3312 8.1063,-0.15011 14.89849,-2.92696 20.37782,-8.3312 5.47916,-5.40426 8.29414,-12.23435 8.44407,-20.49082 -0.14993,-8.10634 -2.96491,-14.86232 -8.44407,-20.26658 -5.47933,-5.40425 -12.27152,-8.25612 -20.37782,-8.55638 z m -52.917073,24.09404 v 9.68208 h 14.411117 v -9.68208 z m 91.421983,0 v 9.68208 h 14.41112 v -9.68208 z m -70.48079,29.94866 -8.556427,8.78152 6.75515,6.75522 8.557307,-8.78152 z m 63.95071,0 -6.75515,6.75522 8.55643,8.78152 6.75515,-6.75522 z m -36.7038,13.28532 v 14.18587 h 9.4569 v -14.18587 z" />
  </g>
</svg>
