<?xml version="1.0" encoding="UTF-8" standalone="no"?>
<svg
   width="1000"
   height="1000"
   viewBox="0 0 264.58333 264.58334"
   version="1.1"
   id="svg221"
   inkscape:version="1.1.1 (3bf5ae0d25, 2021-09-20)"
   sodipodi:docname="upload disk.svg"
   xmlns:inkscape="http://www.inkscape.org/namespaces/inkscape"
   xmlns:sodipodi="http://sodipodi.sourceforge.net/DTD/sodipodi-0.dtd"
   xmlns="http://www.w3.org/2000/svg"
   xmlns:svg="http://www.w3.org/2000/svg"
   xmlns:rdf="http://www.w3.org/1999/02/22-rdf-syntax-ns#"
   xmlns:cc="http://creativecommons.org/ns#"
   xmlns:dc="http://purl.org/dc/elements/1.1/">
  <defs
     id="defs215" />
  <sodipodi:namedview
     id="base"
     pagecolor="#ffffff"
     bordercolor="#666666"
     borderopacity="1.0"
     inkscape:pageopacity="0.0"
     inkscape:pageshadow="2"
     inkscape:zoom="0.69999999"
     inkscape:cx="507.85715"
     inkscape:cy="677.85715"
     inkscape:document-units="mm"
     inkscape:current-layer="layer1"
     inkscape:document-rotation="0"
     showgrid="false"
     units="px"
     showguides="true"
     inkscape:guide-bbox="true"
     inkscape:window-width="1366"
     inkscape:window-height="740"
     inkscape:window-x="0"
     inkscape:window-y="28"
     inkscape:window-maximized="0"
     inkscape:pagecheckerboard="0"
     inkscape:snap-bbox="true"
     inkscape:bbox-nodes="true"
     inkscape:snap-midpoints="true">
    <sodipodi:guide
       position="-5.0862631e-06,52.916663"
       orientation="0,-1"
       id="guide1048" />
    <sodipodi:guide
       position="75.848259,211.66667"
       orientation="0,-1"
       id="guide144" />
    <sodipodi:guide
       position="211.66667,269.38659"
       orientation="1,0"
       id="guide146" />
    <sodipodi:guide
       position="52.916667,269.38659"
       orientation="1,0"
       id="guide148" />
    <sodipodi:guide
       position="132.29166,211.66667"
       orientation="1,0"
       id="guide133" />
    <sodipodi:guide
       position="52.916666,132.29167"
       orientation="0,-1"
       id="guide135" />
  </sodipodi:namedview>
  <metadata
     id="metadata218">
    <rdf:RDF>
      <cc:Work
         rdf:about="">
        <dc:format>image/svg+xml</dc:format>
        <dc:type
           rdf:resource="http://purl.org/dc/dcmitype/StillImage" />
      </cc:Work>
    </rdf:RDF>
  </metadata>
  <g
     inkscape:label="Layer 1"
     inkscape:groupmode="layer"
     id="layer1">
    <path
       id="text1814-7-9-1-7-6-9-7-2-3"
       style="font-size:64.6057px;line-height:1.25;font-family:sans-serif;direction:rtl;display:inline;stroke-width:0.388491"
       d="m 71.429997,52.916665 c -10.179624,0 -18.51333,8.334051 -18.51333,18.513841 V 193.15283 c 0,10.17961 8.333706,18.51384 18.51333,18.51384 H 193.15281 c 10.17962,0 18.51386,-8.33423 18.51386,-18.51384 V 71.430506 c 0,-10.17979 -8.33424,-18.513841 -18.51386,-18.513841 z m 0,8.817182 H 193.15281 c 5.44815,0 9.69649,4.248341 9.69649,9.696659 V 193.15283 c 0,5.44814 -4.24834,9.69666 -9.69649,9.69666 H 71.429997 c -5.448147,0 -9.696492,-4.24852 -9.696492,-9.69666 V 71.430506 c 0,-5.448318 4.248345,-9.696659 9.696492,-9.696659 z m 60.861673,19.699707 c -1.18728,0 -2.15143,0.389468 -2.8935,1.168404 l -28.48958,28.489552 c -1.298403,1.26118 -1.595266,2.72698 -0.89041,4.39633 0.29668,0.74189 0.79745,1.35361 1.50213,1.83568 0.70485,0.48225 1.46545,0.72373 2.28178,0.72373 h 16.2476 v 28.48954 c 0,1.11284 0.40835,2.07716 1.22415,2.89314 0.81633,0.77911 1.78047,1.16858 2.89314,1.16858 h 16.24796 c 1.11267,0 2.05953,-0.38947 2.83847,-1.16858 0.81633,-0.81598 1.22414,-1.7803 1.22414,-2.89314 v -28.48954 h 16.3037 c 1.78048,0 3.02314,-0.85302 3.72799,-2.55941 0.70468,-1.66935 0.40782,-3.13515 -0.89059,-4.39633 l -28.4894,-28.489552 c -0.74208,-0.778936 -1.6877,-1.168404 -2.83758,-1.168404 z M 85.494957,150.59851 c -1.706217,0 -3.152613,0.5932 -4.339892,1.78012 -1.186749,1.18711 -1.78083,2.63438 -1.78083,4.34077 v 20.36505 c 0,1.70639 0.594081,3.13515 1.78083,4.28521 1.187279,1.18692 2.633675,1.78012 4.339892,1.78012 h 93.592893 c 1.70622,0 3.15261,-0.5932 4.33989,-1.78012 1.18675,-1.15006 1.78083,-2.57882 1.78083,-4.28521 V 156.7194 c 0,-1.70639 -0.59408,-3.15366 -1.78083,-4.34077 -1.18728,-1.18692 -2.63367,-1.78012 -4.33989,-1.78012 h -27.15378 c -0.89059,2.41125 -2.39325,4.37764 -4.50781,5.89847 -2.07734,1.48378 -4.41451,2.22497 -7.01132,2.22497 h -16.24796 c -2.59681,0 -4.95179,-0.74119 -7.06582,-2.22497 -2.07734,-1.52083 -3.56183,-3.48722 -4.4519,-5.89847 z m 71.224033,16.30351 c 1.1132,0 2.05865,0.40798 2.83811,1.22414 0.81581,0.77894 1.22415,1.72456 1.22415,2.83758 0,1.11284 -0.40834,2.05934 -1.22415,2.83846 -0.77946,0.81597 -1.72491,1.22414 -2.83811,1.22414 -1.11249,0 -2.07769,-0.40817 -2.89385,-1.22414 -0.77893,-0.77912 -1.16875,-1.72562 -1.16875,-2.83846 0,-1.11302 0.38982,-2.05864 1.16875,-2.83758 0.81616,-0.81616 1.78136,-1.22414 2.89385,-1.22414 z m 16.24814,0 c 1.11266,0 2.05864,0.40798 2.83758,1.22414 0.81615,0.77894 1.22414,1.72456 1.22414,2.83758 0,1.11284 -0.40799,2.05934 -1.22414,2.83846 -0.77894,0.81597 -1.72492,1.22414 -2.83758,1.22414 -1.11302,0 -2.07822,-0.40817 -2.89403,-1.22414 -0.77893,-0.77912 -1.16858,-1.72562 -1.16858,-2.83846 0,-1.11302 0.38965,-2.05864 1.16858,-2.83758 0.81581,-0.81616 1.78101,-1.22414 2.89403,-1.22414 z" />
  </g>
</svg>
