<?xml version="1.0" encoding="UTF-8" standalone="no"?>
<svg
   width="1000"
   height="1000"
   viewBox="0 0 264.58333 264.58334"
   version="1.1"
   id="svg221"
   inkscape:version="1.1.1 (3bf5ae0d25, 2021-09-20)"
   sodipodi:docname="volom HIGH.svg"
   xmlns:inkscape="http://www.inkscape.org/namespaces/inkscape"
   xmlns:sodipodi="http://sodipodi.sourceforge.net/DTD/sodipodi-0.dtd"
   xmlns="http://www.w3.org/2000/svg"
   xmlns:svg="http://www.w3.org/2000/svg"
   xmlns:rdf="http://www.w3.org/1999/02/22-rdf-syntax-ns#"
   xmlns:cc="http://creativecommons.org/ns#"
   xmlns:dc="http://purl.org/dc/elements/1.1/">
  <defs
     id="defs215" />
  <sodipodi:namedview
     id="base"
     pagecolor="#ffffff"
     bordercolor="#666666"
     borderopacity="1.0"
     inkscape:pageopacity="0.0"
     inkscape:pageshadow="2"
     inkscape:zoom="0.49497474"
     inkscape:cx="439.41636"
     inkscape:cy="502.04582"
     inkscape:document-units="mm"
     inkscape:current-layer="layer1"
     inkscape:document-rotation="0"
     showgrid="false"
     units="px"
     showguides="true"
     inkscape:guide-bbox="true"
     inkscape:window-width="1366"
     inkscape:window-height="740"
     inkscape:window-x="0"
     inkscape:window-y="28"
     inkscape:window-maximized="0"
     inkscape:pagecheckerboard="0"
     inkscape:snap-bbox="true"
     inkscape:bbox-nodes="true"
     inkscape:snap-midpoints="true">
    <sodipodi:guide
       position="-5.0862631e-06,52.916663"
       orientation="0,-1"
       id="guide1048" />
    <sodipodi:guide
       position="75.848259,211.66667"
       orientation="0,-1"
       id="guide144" />
    <sodipodi:guide
       position="211.66667,269.38659"
       orientation="1,0"
       id="guide146" />
    <sodipodi:guide
       position="52.916667,269.38659"
       orientation="1,0"
       id="guide148" />
    <sodipodi:guide
       position="132.29166,211.66667"
       orientation="1,0"
       id="guide133" />
    <sodipodi:guide
       position="52.916666,132.29167"
       orientation="0,-1"
       id="guide135" />
  </sodipodi:namedview>
  <metadata
     id="metadata218">
    <rdf:RDF>
      <cc:Work
         rdf:about="">
        <dc:format>image/svg+xml</dc:format>
        <dc:type
           rdf:resource="http://purl.org/dc/dcmitype/StillImage" />
      </cc:Work>
    </rdf:RDF>
  </metadata>
  <g
     inkscape:label="Layer 1"
     inkscape:groupmode="layer"
     id="layer1">
    <path
       id="text1814-7-9-3-8-6-9-9"
       style="font-size:64.6057px;line-height:1.25;font-family:sans-serif;direction:rtl;display:inline;stroke-width:0.38849"
       d="m 71.430174,52.916665 c -10.179624,0 -18.513507,8.334005 -18.513507,18.513774 V 193.15293 c 0,10.17974 8.333883,18.51374 18.513507,18.51374 H 193.15281 c 10.17962,0 18.51386,-8.334 18.51386,-18.51374 V 71.430439 c 0,-10.179769 -8.33424,-18.513774 -18.51386,-18.513774 z m 0,8.818015 H 193.15281 c 5.44815,0 9.69649,4.247435 9.69649,9.695759 V 193.15293 c 0,5.44829 -4.24834,9.69578 -9.69649,9.69578 H 71.430174 c -5.448324,0 -9.696669,-4.24749 -9.696669,-9.69578 V 71.430439 c 0,-5.448324 4.248345,-9.695759 9.696669,-9.695759 z m 82.562896,25.319055 c -1.11302,0 -2.07823,0.408093 -2.89438,1.224189 -0.8158,0.816062 -1.22414,1.781189 -1.22414,2.894025 0,1.483815 0.83485,2.745046 2.5042,3.783727 0.29686,0.148343 0.76024,0.370469 1.39083,0.66719 0.66781,0.296774 1.15094,0.519746 1.44763,0.66816 2.00308,1.038681 3.74617,2.113893 5.23031,3.226728 5.19344,3.857936 9.25552,8.662176 12.18588,14.411946 2.93054,5.74977 4.39545,11.88924 4.39545,18.41807 0,6.45457 -1.46491,12.55703 -4.39545,18.3068 -2.93036,5.74977 -6.99244,10.55308 -12.18588,14.41101 -1.66935,1.26123 -3.41297,2.3744 -5.23031,3.33888 -0.29669,0.14834 -0.77982,0.35196 -1.44763,0.61164 -0.63059,0.25966 -1.09397,0.50114 -1.39083,0.72371 -1.66935,0.96451 -2.5042,2.1887 -2.5042,3.67251 0,1.11284 0.40834,2.07703 1.22414,2.89313 0.81615,0.81611 1.78136,1.22413 2.89438,1.22413 0.40799,0 0.94562,-0.11095 1.61343,-0.33358 8.977,-3.85794 16.15465,-9.86785 21.53348,-18.02883 5.37918,-8.16095 8.06859,-17.11893 8.06859,-26.87504 0,-9.75606 -2.68941,-18.71496 -8.06859,-26.87596 -5.37883,-8.160987 -12.55648,-14.169962 -21.53348,-18.027896 -0.66781,-0.222567 -1.20544,-0.334539 -1.61343,-0.334539 z m -29.82521,6.566539 c -1.14988,0 -2.11509,0.408075 -2.89402,1.224189 L 100.12965,115.98881 H 83.436842 c -1.113019,0 -2.077341,0.40807 -2.893143,1.22419 -0.778937,0.81606 -1.168582,1.78025 -1.168582,2.89312 v 24.37201 c 0,1.11289 0.389645,2.07708 1.168582,2.89319 0.815802,0.81607 1.780124,1.22414 2.893143,1.22414 h 16.692808 l 21.14419,21.14435 c 0.77893,0.81611 1.74414,1.22419 2.89402,1.22419 1.11302,0 2.05865,-0.40808 2.83758,-1.22419 0.81616,-0.81607 1.2245,-1.78026 1.2245,-2.89315 V 97.737588 c 0,-1.112871 -0.40834,-2.07701 -1.2245,-2.893125 -0.77893,-0.816114 -1.72456,-1.224189 -2.83758,-1.224189 z m 23.36988,8.457016 c -1.11302,0 -2.07735,0.38956 -2.8935,1.16856 -0.77894,0.77902 -1.16858,1.72561 -1.16858,2.83848 0,1.63217 0.83485,2.89337 2.5042,3.78369 2.41107,1.18704 4.00616,2.11421 4.78563,2.78191 3.15296,2.22573 5.60125,5.1007 7.34487,8.62475 1.78047,3.52406 2.67089,7.21515 2.67089,11.07309 0,3.85788 -0.89042,7.53043 -2.67089,11.01744 -1.74362,3.48695 -4.19191,6.3434 -7.34487,8.56913 -0.77947,0.6677 -2.37456,1.59487 -4.78563,2.78191 -1.66935,0.89032 -2.5042,2.15152 -2.5042,3.78373 0,1.11283 0.38964,2.07702 1.16858,2.89314 0.81615,0.8161 1.79917,1.22414 2.94906,1.22414 0.40781,0 0.9465,-0.11113 1.61432,-0.33361 5.93498,-2.52248 10.70138,-6.52909 14.29955,-12.0192 3.59835,-5.49015 5.39841,-11.48064 5.39841,-17.97232 0,-6.49167 -1.80006,-12.4831 -5.39841,-17.97319 -3.59817,-5.49011 -8.36457,-9.49584 -14.29955,-12.01832 -0.55687,-0.14834 -1.11355,-0.22333 -1.66988,-0.22333 z m -6.34333,14.91235 c -1.11302,0 -2.07734,0.38959 -2.89314,1.16861 -0.77929,0.77895 -1.16859,1.76256 -1.16859,2.94964 0,0.89026 0.24131,1.65089 0.72338,2.28148 0.51947,0.63065 1.13136,1.14975 1.83604,1.55779 0.74207,0.40807 1.46544,0.89016 2.17012,1.44656 0.74207,0.55644 1.35397,1.33554 1.83604,2.33717 0.51947,1.00157 0.77929,2.20722 0.77929,3.61688 0,1.40959 -0.25982,2.61526 -0.77929,3.61688 -0.48207,1.00157 -1.09397,1.76214 -1.83604,2.28148 -0.70468,0.51934 -1.42805,1.00143 -2.17012,1.44656 -0.70468,0.44519 -1.31657,0.96428 -1.83604,1.55779 -0.48207,0.59353 -0.72338,1.33564 -0.72338,2.22594 0,1.18704 0.3893,2.16972 1.16859,2.94872 0.8158,0.779 1.78012,1.16856 2.89314,1.16856 0.63042,0 1.15041,-0.11113 1.55876,-0.33359 2.96722,-1.18709 5.3596,-3.17185 7.17729,-5.95401 1.81734,-2.78214 2.72699,-5.76815 2.72699,-8.95833 0,-3.26444 -0.92781,-6.28741 -2.7829,-9.06956 -1.81735,-2.78216 -4.19102,-4.76696 -7.12138,-5.95405 -0.40835,-0.22257 -0.92834,-0.33452 -1.55876,-0.33452 z" />
  </g>
</svg>
