<?xml version="1.0" encoding="UTF-8" standalone="no"?>
<svg
   width="1000"
   height="1000"
   viewBox="0 0 264.58333 264.58334"
   version="1.1"
   id="svg221"
   inkscape:version="1.1.1 (3bf5ae0d25, 2021-09-20)"
   sodipodi:docname="W.svg"
   xmlns:inkscape="http://www.inkscape.org/namespaces/inkscape"
   xmlns:sodipodi="http://sodipodi.sourceforge.net/DTD/sodipodi-0.dtd"
   xmlns="http://www.w3.org/2000/svg"
   xmlns:svg="http://www.w3.org/2000/svg"
   xmlns:rdf="http://www.w3.org/1999/02/22-rdf-syntax-ns#"
   xmlns:cc="http://creativecommons.org/ns#"
   xmlns:dc="http://purl.org/dc/elements/1.1/">
  <defs
     id="defs215" />
  <sodipodi:namedview
     id="base"
     pagecolor="#ffffff"
     bordercolor="#666666"
     borderopacity="1.0"
     inkscape:pageopacity="0.0"
     inkscape:pageshadow="2"
     inkscape:zoom="0.49497474"
     inkscape:cx="344.46202"
     inkscape:cy="651.5484"
     inkscape:document-units="mm"
     inkscape:current-layer="layer1"
     inkscape:document-rotation="0"
     showgrid="false"
     units="px"
     showguides="true"
     inkscape:guide-bbox="true"
     inkscape:window-width="1366"
     inkscape:window-height="740"
     inkscape:window-x="0"
     inkscape:window-y="28"
     inkscape:window-maximized="0"
     inkscape:pagecheckerboard="0"
     inkscape:snap-bbox="true"
     inkscape:bbox-nodes="true"
     inkscape:snap-midpoints="true">
    <sodipodi:guide
       position="-5.0862631e-06,52.916663"
       orientation="0,-1"
       id="guide1048" />
    <sodipodi:guide
       position="-5.0862631e-06,211.66667"
       orientation="0,-1"
       id="guide144" />
    <sodipodi:guide
       position="211.66667,269.38659"
       orientation="1,0"
       id="guide146" />
    <sodipodi:guide
       position="52.916667,269.38659"
       orientation="1,0"
       id="guide148" />
    <sodipodi:guide
       position="132.29166,211.66667"
       orientation="1,0"
       id="guide133" />
    <sodipodi:guide
       position="52.916666,132.29167"
       orientation="0,-1"
       id="guide135" />
  </sodipodi:namedview>
  <metadata
     id="metadata218">
    <rdf:RDF>
      <cc:Work
         rdf:about="">
        <dc:format>image/svg+xml</dc:format>
        <dc:type
           rdf:resource="http://purl.org/dc/dcmitype/StillImage" />
      </cc:Work>
    </rdf:RDF>
  </metadata>
  <g
     inkscape:label="Layer 1"
     inkscape:groupmode="layer"
     id="layer1">
    <path
       id="text1950-3-2-7-8-9-0-1-4-2-9-3-5-21"
       style="font-style:normal;font-variant:normal;font-weight:normal;font-stretch:normal;font-size:71.7757px;line-height:1.25;font-family:vi;-inkscape-font-specification:vi;direction:rtl;display:inline;fill:#000000;stroke-width:0.474765"
       d="m 71.430703,52.916665 c -10.179624,0 -18.514036,8.334005 -18.514036,18.51374 V 193.15293 c 0,10.17974 8.334412,18.51374 18.514036,18.51374 H 193.15281 c 10.18015,0 18.51386,-8.334 18.51386,-18.51374 V 71.430405 c 0,-10.179735 -8.33371,-18.51374 -18.51386,-18.51374 z m 0,8.81798 H 193.15281 c 5.44868,0 9.69702,4.247471 9.69702,9.69576 V 193.15293 c 0,5.44829 -4.24834,9.69576 -9.69702,9.69576 H 71.430703 c -5.448324,0 -9.697198,-4.24747 -9.697198,-9.69576 V 71.430405 c 0,-5.448289 4.248874,-9.69576 9.697198,-9.69576 z m 7.943532,25.553354 21.760845,90.007351 h 10.81797 l 19.2256,-65.58883 1.42205,-6.86186 1.42205,6.86186 18.54562,65.58883 h 10.81798 l 21.82187,-90.007351 h -11.93118 l -13.97059,61.570881 -1.91612,12.11674 -2.47316,-10.87982 -17.37138,-62.807801 H 127.53197 L 109.7279,150.0958 107.19318,160.79057 105.46227,148.92086 91.244202,87.287999 Z" />
  </g>
</svg>
