<?xml version="1.0" encoding="UTF-8" standalone="no"?>
<svg
   width="1000"
   height="1000"
   viewBox="0 0 264.58333 264.58334"
   version="1.1"
   id="svg221"
   inkscape:version="1.1.1 (3bf5ae0d25, 2021-09-20)"
   sodipodi:docname="wifi off.svg"
   xmlns:inkscape="http://www.inkscape.org/namespaces/inkscape"
   xmlns:sodipodi="http://sodipodi.sourceforge.net/DTD/sodipodi-0.dtd"
   xmlns="http://www.w3.org/2000/svg"
   xmlns:svg="http://www.w3.org/2000/svg"
   xmlns:rdf="http://www.w3.org/1999/02/22-rdf-syntax-ns#"
   xmlns:cc="http://creativecommons.org/ns#"
   xmlns:dc="http://purl.org/dc/elements/1.1/">
  <defs
     id="defs215" />
  <sodipodi:namedview
     id="base"
     pagecolor="#ffffff"
     bordercolor="#666666"
     borderopacity="1.0"
     inkscape:pageopacity="0.0"
     inkscape:pageshadow="2"
     inkscape:zoom="0.49497474"
     inkscape:cx="439.41636"
     inkscape:cy="502.04582"
     inkscape:document-units="mm"
     inkscape:current-layer="layer1"
     inkscape:document-rotation="0"
     showgrid="false"
     units="px"
     showguides="true"
     inkscape:guide-bbox="true"
     inkscape:window-width="1366"
     inkscape:window-height="740"
     inkscape:window-x="0"
     inkscape:window-y="28"
     inkscape:window-maximized="0"
     inkscape:pagecheckerboard="0"
     inkscape:snap-bbox="true"
     inkscape:bbox-nodes="true"
     inkscape:snap-midpoints="true">
    <sodipodi:guide
       position="-5.0862631e-06,52.916663"
       orientation="0,-1"
       id="guide1048" />
    <sodipodi:guide
       position="75.848259,211.66667"
       orientation="0,-1"
       id="guide144" />
    <sodipodi:guide
       position="211.66667,269.38659"
       orientation="1,0"
       id="guide146" />
    <sodipodi:guide
       position="52.916667,269.38659"
       orientation="1,0"
       id="guide148" />
    <sodipodi:guide
       position="132.29166,211.66667"
       orientation="1,0"
       id="guide133" />
    <sodipodi:guide
       position="52.916666,132.29167"
       orientation="0,-1"
       id="guide135" />
  </sodipodi:namedview>
  <metadata
     id="metadata218">
    <rdf:RDF>
      <cc:Work
         rdf:about="">
        <dc:format>image/svg+xml</dc:format>
        <dc:type
           rdf:resource="http://purl.org/dc/dcmitype/StillImage" />
      </cc:Work>
    </rdf:RDF>
  </metadata>
  <g
     inkscape:label="Layer 1"
     inkscape:groupmode="layer"
     id="layer1">
    <path
       id="text1814-7-9-3-8-3-7-1-6"
       style="font-size:66.0645px;line-height:1.25;font-family:sans-serif;direction:rtl;display:inline;stroke-width:0.397262"
       d="m 71.430403,52.916665 c -10.179556,0 -18.513736,8.334038 -18.513736,18.513769 V 193.1529 c 0,10.17972 8.33418,18.51377 18.513736,18.51377 H 193.15293 c 10.17974,0 18.51374,-8.33405 18.51374,-18.51377 V 71.430434 c 0,-10.179731 -8.334,-18.513716 -18.51374,-18.513769 z m 0,8.818013 H 193.15293 c 5.44847,0 9.69573,4.247469 9.69573,9.695756 V 193.1529 c 0,5.44829 -4.24726,9.69576 -9.69573,9.69576 H 71.430403 c -5.448288,0 -9.695722,-4.24747 -9.695722,-9.69576 V 71.430434 c 0,-5.448287 4.247434,-9.695756 9.695722,-9.695756 z m 14.317983,26.857702 -6.372387,6.145428 7.283081,7.056012 c -2.124246,1.36558 -4.172999,2.80689 -6.145551,4.3242 l 8.648504,11.60721 c 2.579505,-1.97248 5.235387,-3.71751 7.966586,-5.23482 l 10.924441,10.92448 c -3.64154,1.66907 -7.05536,3.64157 -10.241641,5.91755 l 8.876221,11.60811 c 3.79341,-2.73118 7.96588,-4.85599 12.51794,-6.37331 l 12.51776,12.29087 c -6.22104,0.45517 -11.68344,2.4277 -16.3872,5.91755 l 17.52473,23.21436 11.83514,-15.93141 15.9323,15.93141 6.14537,-6.14451 z m 47.112484,0 c -10.46954,0 -20.33212,1.744976 -29.58776,5.234822 l 11.60813,11.608148 c 5.76579,-1.51737 11.75859,-2.27609 17.97963,-2.27609 8.19343,0 16.00832,1.28902 23.44327,3.86849 7.43478,2.57941 14.18622,6.14553 20.25557,10.69748 l 8.64939,-11.60721 c -7.28326,-5.61406 -15.36361,-9.938907 -24.24001,-12.973547 -8.87622,-3.03464 -18.24563,-4.552093 -28.10822,-4.552093 z m 0,29.13285 c -1.82086,0 -3.64101,0.0762 -5.46187,0.22788 l 15.47669,15.47657 c 6.06917,1.51733 11.45555,4.02103 16.1593,7.51087 l 8.87622,-11.60811 c -5.00714,-3.64158 -10.46954,-6.48612 -16.38702,-8.53451 -5.91766,-2.04836 -12.13888,-3.0727 -18.66332,-3.0727 z" />
  </g>
</svg>
