<?xml version="1.0" encoding="UTF-8" standalone="no"?>
<svg
   width="1000"
   height="1000"
   viewBox="0 0 264.58333 264.58334"
   version="1.1"
   id="svg221"
   inkscape:version="1.1.1 (3bf5ae0d25, 2021-09-20, custom)"
   sodipodi:docname="5.svg"
   xmlns:inkscape="http://www.inkscape.org/namespaces/inkscape"
   xmlns:sodipodi="http://sodipodi.sourceforge.net/DTD/sodipodi-0.dtd"
   xmlns="http://www.w3.org/2000/svg"
   xmlns:svg="http://www.w3.org/2000/svg"
   xmlns:rdf="http://www.w3.org/1999/02/22-rdf-syntax-ns#"
   xmlns:cc="http://creativecommons.org/ns#"
   xmlns:dc="http://purl.org/dc/elements/1.1/">
  <defs
     id="defs215" />
  <sodipodi:namedview
     id="base"
     pagecolor="#ffffff"
     bordercolor="#666666"
     borderopacity="1.0"
     inkscape:pageopacity="0.0"
     inkscape:pageshadow="2"
     inkscape:zoom="0.24748737"
     inkscape:cx="573.76665"
     inkscape:cy="325.26912"
     inkscape:document-units="mm"
     inkscape:current-layer="layer1"
     inkscape:document-rotation="0"
     showgrid="false"
     units="px"
     showguides="true"
     inkscape:guide-bbox="true"
     inkscape:window-width="605"
     inkscape:window-height="728"
     inkscape:window-x="752"
     inkscape:window-y="32"
     inkscape:window-maximized="0"
     inkscape:pagecheckerboard="0"
     inkscape:snap-intersection-paths="true"
     inkscape:snap-bbox="true"
     inkscape:bbox-nodes="true"
     inkscape:snap-nodes="false">
    <sodipodi:guide
       position="-5.0862631e-06,52.916663"
       orientation="0,-1"
       id="guide1048" />
    <sodipodi:guide
       position="-5.0862631e-06,211.66667"
       orientation="0,-1"
       id="guide144" />
    <sodipodi:guide
       position="211.66667,269.38659"
       orientation="1,0"
       id="guide146" />
    <sodipodi:guide
       position="52.916667,269.38659"
       orientation="1,0"
       id="guide148" />
  </sodipodi:namedview>
  <metadata
     id="metadata218">
    <rdf:RDF>
      <cc:Work
         rdf:about="">
        <dc:format>image/svg+xml</dc:format>
        <dc:type
           rdf:resource="http://purl.org/dc/dcmitype/StillImage" />
      </cc:Work>
    </rdf:RDF>
  </metadata>
  <g
     inkscape:label="Layer 1"
     inkscape:groupmode="layer"
     id="layer1">
    <path
       id="rect12-1-6-31-6-6"
       style="display:inline;fill:#000000;fill-opacity:1;stroke:none;stroke-width:0.302969"
       d="m 67.850952,52.916665 c -8.273503,0 -14.934285,6.660699 -14.934285,14.934321 V 196.73235 c 0,8.27362 6.660782,14.93432 14.934285,14.93432 H 196.73238 c 8.27351,0 14.93429,-6.6607 14.93429,-14.93432 V 67.850986 c 0,-8.273622 -6.66078,-14.934321 -14.93429,-14.934321 z M 108.5219,79.375309 h 53.49035 V 91.63613 h -42.23217 l -3.15577,28.46582 c 5.11438,-3.01154 10.92339,-4.51658 17.42454,-4.51658 9.51263,0 17.06453,3.15443 22.65746,9.46429 5.59292,6.26207 8.38939,14.74739 8.38939,25.45504 0,10.75548 -2.91606,19.23989 -8.74781,25.45415 -5.78414,6.16647 -13.88654,9.25009 -24.30723,9.25009 -9.22564,0 -16.75443,-2.55742 -22.58619,-7.67225 -5.83193,-5.11482 -9.15421,-12.19011 -9.966831,-21.22469 h 12.548101 c 0.81245,5.97526 2.93969,10.49311 6.38156,13.55245 3.44134,3.01153 7.98281,4.51747 13.62336,4.51747 6.16637,0 10.9943,-2.10385 14.4838,-6.31044 3.53747,-4.20657 5.30576,-10.01434 5.30576,-17.42365 0,-6.97912 -1.91205,-12.57174 -5.73597,-16.77831 -3.77613,-4.25439 -8.81925,-6.38154 -15.12938,-6.38154 -5.78378,0 -10.32525,1.2666 -13.62336,3.80012 l -3.51366,2.86763 -10.61224,-2.72453 z" />
  </g>
</svg>
