<?xml version="1.0" encoding="UTF-8" standalone="no"?>
<svg
   width="1000"
   height="1000"
   viewBox="0 0 264.58333 264.58334"
   version="1.1"
   id="svg221"
   inkscape:version="1.1.1 (3bf5ae0d25, 2021-09-20, custom)"
   sodipodi:docname="6.svg"
   xmlns:inkscape="http://www.inkscape.org/namespaces/inkscape"
   xmlns:sodipodi="http://sodipodi.sourceforge.net/DTD/sodipodi-0.dtd"
   xmlns="http://www.w3.org/2000/svg"
   xmlns:svg="http://www.w3.org/2000/svg"
   xmlns:rdf="http://www.w3.org/1999/02/22-rdf-syntax-ns#"
   xmlns:cc="http://creativecommons.org/ns#"
   xmlns:dc="http://purl.org/dc/elements/1.1/">
  <defs
     id="defs215" />
  <sodipodi:namedview
     id="base"
     pagecolor="#ffffff"
     bordercolor="#666666"
     borderopacity="1.0"
     inkscape:pageopacity="0.0"
     inkscape:pageshadow="2"
     inkscape:zoom="0.24748737"
     inkscape:cx="573.76665"
     inkscape:cy="325.26912"
     inkscape:document-units="mm"
     inkscape:current-layer="layer1"
     inkscape:document-rotation="0"
     showgrid="false"
     units="px"
     showguides="true"
     inkscape:guide-bbox="true"
     inkscape:window-width="605"
     inkscape:window-height="728"
     inkscape:window-x="752"
     inkscape:window-y="32"
     inkscape:window-maximized="0"
     inkscape:pagecheckerboard="0"
     inkscape:snap-intersection-paths="true"
     inkscape:snap-bbox="true"
     inkscape:bbox-nodes="true"
     inkscape:snap-nodes="false">
    <sodipodi:guide
       position="-5.0862631e-06,52.916663"
       orientation="0,-1"
       id="guide1048" />
    <sodipodi:guide
       position="-5.0862631e-06,211.66667"
       orientation="0,-1"
       id="guide144" />
    <sodipodi:guide
       position="211.66667,269.38659"
       orientation="1,0"
       id="guide146" />
    <sodipodi:guide
       position="52.916667,269.38659"
       orientation="1,0"
       id="guide148" />
  </sodipodi:namedview>
  <metadata
     id="metadata218">
    <rdf:RDF>
      <cc:Work
         rdf:about="">
        <dc:format>image/svg+xml</dc:format>
        <dc:type
           rdf:resource="http://purl.org/dc/dcmitype/StillImage" />
      </cc:Work>
    </rdf:RDF>
  </metadata>
  <g
     inkscape:label="Layer 1"
     inkscape:groupmode="layer"
     id="layer1">
    <path
       id="rect12-1-6-31-9-48-5"
       style="display:inline;fill:#000000;fill-opacity:1;stroke:none;stroke-width:0.302969"
       d="m 67.850742,52.916665 c -8.273484,0 -14.934075,6.660699 -14.934075,14.934321 V 196.73235 c 0,8.27362 6.660591,14.93432 14.934075,14.93432 H 196.73242 c 8.27348,0 14.93425,-6.6607 14.93425,-14.93432 V 67.850986 c 0,-8.273622 -6.66077,-14.934321 -14.93425,-14.934321 z M 148.1987,79.374392 h 2.36466 v 11.249967 h -2.43662 c -10.31818,0.191065 -18.53469,3.248249 -24.64884,9.171692 -6.11467,5.923439 -9.64931,14.259319 -10.60462,25.007509 5.49343,-6.30561 12.99362,-9.45792 22.49971,-9.45792 9.07623,0 16.31238,3.19988 21.71056,9.60102 5.44545,6.40114 8.16853,14.6652 8.16853,24.79237 0,10.74819 -2.93739,19.34706 -8.81305,25.79597 -5.82804,6.44891 -13.66197,9.67394 -23.50267,9.67394 -9.98356,0 -18.08066,-3.82192 -24.29093,-11.46507 -6.20992,-7.69092 -9.314704,-17.57962 -9.314351,-29.66535 v -5.0872 c 0,-19.2034 4.083561,-33.86906 12.252091,-43.99624 8.21669,-10.174943 20.42169,-15.381839 36.61553,-15.620688 z m -15.04714,47.006088 c -4.53812,0 -8.71798,1.36072 -12.53961,4.08359 -3.82127,2.72288 -6.47309,6.13909 -7.95387,10.24729 v 4.87206 c 0,8.59855 1.93533,15.52522 5.80476,20.77989 3.86925,5.25466 8.69346,7.88189 14.47352,7.88189 5.97128,0 10.65226,-2.19728 14.04368,-6.5921 3.43956,-4.39481 5.15935,-10.15102 5.15935,-17.26871 0,-7.16546 -1.74307,-12.94592 -5.23026,-17.34071 -3.43957,-4.44258 -8.02531,-6.6632 -13.75757,-6.6632 z" />
  </g>
</svg>
