<?xml version="1.0" encoding="UTF-8" standalone="no"?>
<svg
   width="1000"
   height="1000"
   viewBox="0 0 264.58333 264.58334"
   version="1.1"
   id="svg221"
   inkscape:version="1.1.1 (3bf5ae0d25, 2021-09-20, custom)"
   sodipodi:docname="B.svg"
   xmlns:inkscape="http://www.inkscape.org/namespaces/inkscape"
   xmlns:sodipodi="http://sodipodi.sourceforge.net/DTD/sodipodi-0.dtd"
   xmlns="http://www.w3.org/2000/svg"
   xmlns:svg="http://www.w3.org/2000/svg"
   xmlns:rdf="http://www.w3.org/1999/02/22-rdf-syntax-ns#"
   xmlns:cc="http://creativecommons.org/ns#"
   xmlns:dc="http://purl.org/dc/elements/1.1/">
  <defs
     id="defs215" />
  <sodipodi:namedview
     id="base"
     pagecolor="#ffffff"
     bordercolor="#666666"
     borderopacity="1.0"
     inkscape:pageopacity="0.0"
     inkscape:pageshadow="2"
     inkscape:zoom="0.24748737"
     inkscape:cx="573.76665"
     inkscape:cy="325.26912"
     inkscape:document-units="mm"
     inkscape:current-layer="layer1"
     inkscape:document-rotation="0"
     showgrid="false"
     units="px"
     showguides="true"
     inkscape:guide-bbox="true"
     inkscape:window-width="605"
     inkscape:window-height="728"
     inkscape:window-x="752"
     inkscape:window-y="32"
     inkscape:window-maximized="0"
     inkscape:pagecheckerboard="0"
     inkscape:snap-intersection-paths="true"
     inkscape:snap-bbox="true"
     inkscape:bbox-nodes="true"
     inkscape:snap-nodes="false">
    <sodipodi:guide
       position="-5.0862631e-06,52.916663"
       orientation="0,-1"
       id="guide1048" />
    <sodipodi:guide
       position="-5.0862631e-06,211.66667"
       orientation="0,-1"
       id="guide144" />
    <sodipodi:guide
       position="211.66667,269.38659"
       orientation="1,0"
       id="guide146" />
    <sodipodi:guide
       position="52.916667,269.38659"
       orientation="1,0"
       id="guide148" />
  </sodipodi:namedview>
  <metadata
     id="metadata218">
    <rdf:RDF>
      <cc:Work
         rdf:about="">
        <dc:format>image/svg+xml</dc:format>
        <dc:type
           rdf:resource="http://purl.org/dc/dcmitype/StillImage" />
      </cc:Work>
    </rdf:RDF>
  </metadata>
  <g
     inkscape:label="Layer 1"
     inkscape:groupmode="layer"
     id="layer1">
    <path
       id="rect12-1-6-31-76"
       style="display:inline;fill:#000000;fill-opacity:1;stroke:none;stroke-width:0.302969"
       d="m 67.850952,52.916665 c -8.273503,0 -14.934285,6.660698 -14.934285,14.934302 V 196.73237 c 0,8.2736 6.660782,14.9343 14.934285,14.9343 H 196.73238 c 8.27351,0 14.93429,-6.6607 14.93429,-14.9343 V 67.850967 c 0,-8.273604 -6.66078,-14.934302 -14.93429,-14.934302 z m 28.424476,26.457724 h 34.599312 c 11.48448,0 20.11041,2.374556 25.8769,7.123527 5.815,4.748918 8.72241,11.775694 8.72241,21.079784 0,4.94273 -1.40511,9.32857 -4.21551,13.15684 -2.81093,3.77973 -6.63979,6.71148 -11.48536,8.79524 5.71781,1.59913 10.22524,4.65134 13.52053,9.158 3.34345,4.45821 5.01508,9.78896 5.01508,15.99165 0,9.4979 -3.07692,16.96043 -9.23076,22.3878 -6.1542,5.42742 -14.85244,8.14078 -26.09475,8.14078 H 96.275428 Z m 13.956562,11.485128 v 33.654153 h 21.0786 c 6.10587,0 10.97631,-1.52656 14.61044,-4.57946 3.68317,-3.05292 5.52467,-7.19592 5.52467,-12.42947 0,-5.81505 -1.69686,-10.030527 -5.08881,-12.647301 -3.39195,-2.66521 -8.55255,-3.997922 -15.48215,-3.997922 z m 0,44.848503 v 38.08868 h 23.04198 c 6.49322,0 11.60584,-1.6724 15.33699,-5.01606 3.77983,-3.39209 5.66948,-8.04338 5.66948,-13.95535 0,-12.74462 -6.92943,-19.11727 -20.78898,-19.11727 z" />
  </g>
</svg>
