<?xml version="1.0" encoding="UTF-8" standalone="no"?>
<svg
   width="1000"
   height="1000"
   viewBox="0 0 264.58333 264.58334"
   version="1.1"
   id="svg221"
   inkscape:version="1.1.1 (3bf5ae0d25, 2021-09-20, custom)"
   sodipodi:docname="battery v charging.svg"
   xmlns:inkscape="http://www.inkscape.org/namespaces/inkscape"
   xmlns:sodipodi="http://sodipodi.sourceforge.net/DTD/sodipodi-0.dtd"
   xmlns="http://www.w3.org/2000/svg"
   xmlns:svg="http://www.w3.org/2000/svg"
   xmlns:rdf="http://www.w3.org/1999/02/22-rdf-syntax-ns#"
   xmlns:cc="http://creativecommons.org/ns#"
   xmlns:dc="http://purl.org/dc/elements/1.1/">
  <defs
     id="defs215" />
  <sodipodi:namedview
     id="base"
     pagecolor="#ffffff"
     bordercolor="#666666"
     borderopacity="1.0"
     inkscape:pageopacity="0.0"
     inkscape:pageshadow="2"
     inkscape:zoom="0.69999999"
     inkscape:cx="439.28572"
     inkscape:cy="502.14286"
     inkscape:document-units="mm"
     inkscape:current-layer="layer1"
     inkscape:document-rotation="0"
     showgrid="false"
     units="px"
     showguides="true"
     inkscape:guide-bbox="true"
     inkscape:window-width="1366"
     inkscape:window-height="740"
     inkscape:window-x="0"
     inkscape:window-y="28"
     inkscape:window-maximized="0"
     inkscape:pagecheckerboard="0"
     inkscape:snap-bbox="true"
     inkscape:bbox-nodes="true"
     inkscape:snap-midpoints="true">
    <sodipodi:guide
       position="-5.0862631e-06,52.916663"
       orientation="0,-1"
       id="guide1048" />
    <sodipodi:guide
       position="75.848259,211.66667"
       orientation="0,-1"
       id="guide144" />
    <sodipodi:guide
       position="211.66667,269.38659"
       orientation="1,0"
       id="guide146" />
    <sodipodi:guide
       position="52.916667,269.38659"
       orientation="1,0"
       id="guide148" />
    <sodipodi:guide
       position="132.29166,211.66667"
       orientation="1,0"
       id="guide133" />
    <sodipodi:guide
       position="52.916666,132.29167"
       orientation="0,-1"
       id="guide135" />
  </sodipodi:namedview>
  <metadata
     id="metadata218">
    <rdf:RDF>
      <cc:Work
         rdf:about="">
        <dc:format>image/svg+xml</dc:format>
        <dc:type
           rdf:resource="http://purl.org/dc/dcmitype/StillImage" />
      </cc:Work>
    </rdf:RDF>
  </metadata>
  <g
     inkscape:label="Layer 1"
     inkscape:groupmode="layer"
     id="layer1">
    <path
       id="rect12-1-6-31-9-8-2-3-0-6-7"
       style="display:inline;fill:#000000;fill-opacity:0.979723;stroke:none;stroke-width:0.302969"
       d="m 67.850952,52.916665 c -8.273503,0 -14.934285,6.660824 -14.934285,14.934377 V 196.73229 c 0,8.27356 6.660782,14.93438 14.934285,14.93438 H 196.73238 c 8.27351,0 14.93429,-6.66082 14.93429,-14.93438 V 67.851042 c 0,-8.273553 -6.66078,-14.934377 -14.93429,-14.934377 z m 73.655608,23.091514 v 23.534429 h 33.76728 c 2.03658,0 3.76431,0.709972 5.18441,2.130252 1.44727,1.42029 2.17117,3.14909 2.17117,5.18568 v 7.39505 c 1.63477,0 3.01483,0.56268 4.14054,1.68805 1.15217,1.12554 1.72808,2.51902 1.72808,4.18025 v 17.60597 c 0,1.66159 -0.57591,3.05489 -1.72808,4.18026 -1.12571,1.12554 -2.50577,1.68804 -4.14054,1.68804 v 7.3962 c 0,2.03641 -0.7239,3.76433 -2.17117,5.18461 -1.4201,1.42029 -3.14783,2.13026 -5.18441,2.13026 H 140.4163 l -10.76094,23.53461 V 158.30723 H 90.01981 c -2.036581,0 -3.777889,-0.70997 -5.224627,-2.13026 -1.420104,-1.42028 -2.13042,-3.1482 -2.13042,-5.18461 v -44.13382 c 0,-2.03659 0.710316,-3.76539 2.13042,-5.18568 1.446738,-1.42028 3.188046,-2.130252 5.224627,-2.130252 h 39.71898 z M 90.01981,105.41109 c -0.4288,0 -0.790044,0.13406 -1.084436,0.40199 -0.268464,0.26794 -0.402343,0.61666 -0.402343,1.04546 v 44.13382 c 0,0.4288 0.134056,0.77664 0.402343,1.04457 0.294392,0.26794 0.655636,0.402 1.084436,0.402 h 39.63555 v -5.86831 H 94.44187 v -35.29131 h 29.42971 l 2.93405,-5.86822 z m 51.48675,0 v 5.86822 h 29.34522 v 35.29131 h -25.06833 l -2.68357,5.86831 h 32.17396 c 0.4288,0 0.77646,-0.13406 1.0444,-0.402 0.29492,-0.26793 0.44291,-0.61577 0.44291,-1.04457 v -13.2645 h 5.86827 v -17.60597 h -5.86827 v -13.26335 c 0,-0.4288 -0.14817,-0.77752 -0.44291,-1.04546 -0.26794,-0.26811 -0.6156,-0.40199 -1.0444,-0.40199 z" />
  </g>
</svg>
