<?xml version="1.0" encoding="UTF-8" standalone="no"?>
<svg
   width="1000"
   height="1000"
   viewBox="0 0 264.58333 264.58334"
   version="1.1"
   id="svg221"
   inkscape:version="1.1.1 (3bf5ae0d25, 2021-09-20, custom)"
   sodipodi:docname="battery v mid.svg"
   xmlns:inkscape="http://www.inkscape.org/namespaces/inkscape"
   xmlns:sodipodi="http://sodipodi.sourceforge.net/DTD/sodipodi-0.dtd"
   xmlns="http://www.w3.org/2000/svg"
   xmlns:svg="http://www.w3.org/2000/svg"
   xmlns:rdf="http://www.w3.org/1999/02/22-rdf-syntax-ns#"
   xmlns:cc="http://creativecommons.org/ns#"
   xmlns:dc="http://purl.org/dc/elements/1.1/">
  <defs
     id="defs215" />
  <sodipodi:namedview
     id="base"
     pagecolor="#ffffff"
     bordercolor="#666666"
     borderopacity="1.0"
     inkscape:pageopacity="0.0"
     inkscape:pageshadow="2"
     inkscape:zoom="0.49497474"
     inkscape:cx="439.41636"
     inkscape:cy="502.04582"
     inkscape:document-units="mm"
     inkscape:current-layer="layer1"
     inkscape:document-rotation="0"
     showgrid="false"
     units="px"
     showguides="true"
     inkscape:guide-bbox="true"
     inkscape:window-width="1366"
     inkscape:window-height="740"
     inkscape:window-x="0"
     inkscape:window-y="28"
     inkscape:window-maximized="0"
     inkscape:pagecheckerboard="0"
     inkscape:snap-bbox="true"
     inkscape:bbox-nodes="true"
     inkscape:snap-midpoints="true">
    <sodipodi:guide
       position="-5.0862631e-06,52.916663"
       orientation="0,-1"
       id="guide1048" />
    <sodipodi:guide
       position="75.848259,211.66667"
       orientation="0,-1"
       id="guide144" />
    <sodipodi:guide
       position="211.66667,269.38659"
       orientation="1,0"
       id="guide146" />
    <sodipodi:guide
       position="52.916667,269.38659"
       orientation="1,0"
       id="guide148" />
    <sodipodi:guide
       position="132.29166,211.66667"
       orientation="1,0"
       id="guide133" />
    <sodipodi:guide
       position="52.916666,132.29167"
       orientation="0,-1"
       id="guide135" />
  </sodipodi:namedview>
  <metadata
     id="metadata218">
    <rdf:RDF>
      <cc:Work
         rdf:about="">
        <dc:format>image/svg+xml</dc:format>
        <dc:type
           rdf:resource="http://purl.org/dc/dcmitype/StillImage" />
      </cc:Work>
    </rdf:RDF>
  </metadata>
  <g
     inkscape:label="Layer 1"
     inkscape:groupmode="layer"
     id="layer1">
    <path
       id="rect12-1-6-31-6-4-7-6-9"
       style="display:inline;fill:#000000;fill-opacity:0.979723;stroke:none;stroke-width:0.302969"
       d="m 67.850952,52.916665 c -8.273503,0 -14.934285,6.660786 -14.934285,14.934293 V 196.73238 c 0,8.27368 6.660782,14.93429 14.934285,14.93429 H 196.73238 c 8.27351,0 14.93429,-6.66061 14.93429,-14.93429 V 67.850958 c 0,-8.273507 -6.66078,-14.934293 -14.93429,-14.934293 z M 86.731047,102.9096 h 85.252973 c 2.03676,0 3.76537,0.70997 5.18547,2.13007 1.44727,1.42028 2.17064,3.14819 2.17064,5.18477 v 7.39588 c 1.63424,0 3.0143,0.56268 4.14001,1.68822 1.15217,1.12536 1.72808,2.51883 1.72808,4.18023 v 17.60588 c 0,1.6614 -0.57591,3.0547 -1.72808,4.18006 -1.12571,1.12553 -2.50577,1.68821 -4.14001,1.68821 v 7.39598 c 0,2.03658 -0.72337,3.76448 -2.17064,5.18476 -1.4201,1.42011 -3.14871,2.13113 -5.18547,2.13113 H 86.731047 c -2.036582,0 -3.778771,-0.71102 -5.225509,-2.13113 -1.420281,-1.42028 -2.130421,-3.14818 -2.130421,-5.18476 v -44.13446 c 0,-2.03658 0.71014,-3.76449 2.130421,-5.18477 1.446738,-1.4201 3.188927,-2.13007 5.225509,-2.13007 z m 0,5.86828 c -0.428801,0 -0.790574,0.13405 -1.085495,0.40199 -0.267934,0.26793 -0.401813,0.61577 -0.401813,1.04457 v 44.13446 c 0,0.4288 0.134055,0.77663 0.401813,1.04457 0.294921,0.26793 0.656694,0.40199 1.085495,0.40199 h 85.252973 c 0.42898,0 0.77752,-0.13406 1.04545,-0.40199 0.29493,-0.26794 0.44186,-0.61577 0.44186,-1.04457 v -13.26425 h 5.8688 v -17.60588 h -5.8688 v -13.26433 c 0,-0.4288 -0.1464,-0.77664 -0.44186,-1.04457 -0.26793,-0.26794 -0.61647,-0.40199 -1.04545,-0.40199 z m 4.421001,5.86818 h 41.159192 v 35.29113 H 91.152048 Z" />
  </g>
</svg>
