<?xml version="1.0" encoding="UTF-8" standalone="no"?>
<svg
   width="1000"
   height="1000"
   viewBox="0 0 264.58333 264.58334"
   version="1.1"
   id="svg221"
   inkscape:version="1.1.1 (3bf5ae0d25, 2021-09-20, custom)"
   sodipodi:docname="battery zero.svg"
   xmlns:inkscape="http://www.inkscape.org/namespaces/inkscape"
   xmlns:sodipodi="http://sodipodi.sourceforge.net/DTD/sodipodi-0.dtd"
   xmlns="http://www.w3.org/2000/svg"
   xmlns:svg="http://www.w3.org/2000/svg"
   xmlns:rdf="http://www.w3.org/1999/02/22-rdf-syntax-ns#"
   xmlns:cc="http://creativecommons.org/ns#"
   xmlns:dc="http://purl.org/dc/elements/1.1/">
  <defs
     id="defs215" />
  <sodipodi:namedview
     id="base"
     pagecolor="#ffffff"
     bordercolor="#666666"
     borderopacity="1.0"
     inkscape:pageopacity="0.0"
     inkscape:pageshadow="2"
     inkscape:zoom="0.49497474"
     inkscape:cx="439.41636"
     inkscape:cy="502.04582"
     inkscape:document-units="mm"
     inkscape:current-layer="layer1"
     inkscape:document-rotation="0"
     showgrid="false"
     units="px"
     showguides="true"
     inkscape:guide-bbox="true"
     inkscape:window-width="1366"
     inkscape:window-height="740"
     inkscape:window-x="0"
     inkscape:window-y="28"
     inkscape:window-maximized="0"
     inkscape:pagecheckerboard="0"
     inkscape:snap-bbox="true"
     inkscape:bbox-nodes="true"
     inkscape:snap-midpoints="true">
    <sodipodi:guide
       position="-5.0862631e-06,52.916663"
       orientation="0,-1"
       id="guide1048" />
    <sodipodi:guide
       position="75.848259,211.66667"
       orientation="0,-1"
       id="guide144" />
    <sodipodi:guide
       position="211.66667,269.38659"
       orientation="1,0"
       id="guide146" />
    <sodipodi:guide
       position="52.916667,269.38659"
       orientation="1,0"
       id="guide148" />
    <sodipodi:guide
       position="132.29166,211.66667"
       orientation="1,0"
       id="guide133" />
    <sodipodi:guide
       position="52.916666,132.29167"
       orientation="0,-1"
       id="guide135" />
  </sodipodi:namedview>
  <metadata
     id="metadata218">
    <rdf:RDF>
      <cc:Work
         rdf:about="">
        <dc:format>image/svg+xml</dc:format>
        <dc:type
           rdf:resource="http://purl.org/dc/dcmitype/StillImage" />
      </cc:Work>
    </rdf:RDF>
  </metadata>
  <g
     inkscape:label="Layer 1"
     inkscape:groupmode="layer"
     id="layer1">
    <path
       id="rect12-1-6-31-2-9-6-0-4"
       style="display:inline;fill:#000000;fill-opacity:0.979723;stroke:none;stroke-width:0.302968"
       d="m 67.850918,52.916665 c -8.27366,0 -14.934251,6.660657 -14.934251,14.934228 V 196.73237 c 0,8.27352 6.660591,14.9343 14.934251,14.9343 H 196.73242 c 8.27366,0 14.93425,-6.66078 14.93425,-14.9343 V 67.850893 c 0,-8.273571 -6.66059,-14.934228 -14.93425,-14.934228 z M 116.39169,79.37511 h 31.79996 v 10.434117 h 8.94376 c 1.98718,0.165629 3.64347,0.910941 4.96832,2.235936 1.32503,1.324995 1.98719,2.981159 1.98719,4.968668 v 81.238519 c 0,1.98747 -0.66216,3.64367 -1.98719,4.96867 -1.32485,1.32499 -2.98114,1.98708 -4.96832,1.98708 h -49.6866 c -1.98754,0 -3.64435,-0.66209 -4.96938,-1.98708 -1.32538,-1.325 -1.98719,-2.9812 -1.98719,-4.96867 V 97.013831 c 0,-1.987509 0.66181,-3.643673 1.98719,-4.968668 1.32503,-1.324995 2.98184,-2.070342 4.96938,-2.235936 h 8.94288 z m -5.21668,21.11703 v 63.59987 h 42.23384 v -63.59987 z" />
  </g>
</svg>
