<?xml version="1.0" encoding="UTF-8" standalone="no"?>
<svg
   width="1000"
   height="1000"
   viewBox="0 0 264.58333 264.58334"
   version="1.1"
   id="svg221"
   inkscape:version="1.1.1 (3bf5ae0d25, 2021-09-20, custom)"
   sodipodi:docname="bt.svg"
   xmlns:inkscape="http://www.inkscape.org/namespaces/inkscape"
   xmlns:sodipodi="http://sodipodi.sourceforge.net/DTD/sodipodi-0.dtd"
   xmlns="http://www.w3.org/2000/svg"
   xmlns:svg="http://www.w3.org/2000/svg"
   xmlns:rdf="http://www.w3.org/1999/02/22-rdf-syntax-ns#"
   xmlns:cc="http://creativecommons.org/ns#"
   xmlns:dc="http://purl.org/dc/elements/1.1/">
  <defs
     id="defs215" />
  <sodipodi:namedview
     id="base"
     pagecolor="#ffffff"
     bordercolor="#666666"
     borderopacity="1.0"
     inkscape:pageopacity="0.0"
     inkscape:pageshadow="2"
     inkscape:zoom="0.49497474"
     inkscape:cx="439.41636"
     inkscape:cy="502.04582"
     inkscape:document-units="mm"
     inkscape:current-layer="layer1"
     inkscape:document-rotation="0"
     showgrid="false"
     units="px"
     showguides="true"
     inkscape:guide-bbox="true"
     inkscape:window-width="1366"
     inkscape:window-height="740"
     inkscape:window-x="0"
     inkscape:window-y="28"
     inkscape:window-maximized="0"
     inkscape:pagecheckerboard="0"
     inkscape:snap-bbox="true"
     inkscape:bbox-nodes="true"
     inkscape:snap-midpoints="true">
    <sodipodi:guide
       position="-5.0862631e-06,52.916663"
       orientation="0,-1"
       id="guide1048" />
    <sodipodi:guide
       position="75.848259,211.66667"
       orientation="0,-1"
       id="guide144" />
    <sodipodi:guide
       position="211.66667,269.38659"
       orientation="1,0"
       id="guide146" />
    <sodipodi:guide
       position="52.916667,269.38659"
       orientation="1,0"
       id="guide148" />
    <sodipodi:guide
       position="132.29166,211.66667"
       orientation="1,0"
       id="guide133" />
    <sodipodi:guide
       position="52.916666,132.29167"
       orientation="0,-1"
       id="guide135" />
  </sodipodi:namedview>
  <metadata
     id="metadata218">
    <rdf:RDF>
      <cc:Work
         rdf:about="">
        <dc:format>image/svg+xml</dc:format>
        <dc:type
           rdf:resource="http://purl.org/dc/dcmitype/StillImage" />
      </cc:Work>
    </rdf:RDF>
  </metadata>
  <g
     inkscape:label="Layer 1"
     inkscape:groupmode="layer"
     id="layer1">
    <path
       id="rect12-1-6-31-2-9-0-9-5"
       style="display:inline;fill:#000000;fill-opacity:0.979723;stroke:none;stroke-width:0.302968"
       d="m 67.850918,52.916665 c -8.27366,5.3e-5 -14.934251,6.660711 -14.934251,14.93423 V 196.73244 c 0,8.27357 6.660591,14.93423 14.934251,14.93423 H 196.73242 c 8.27366,0 14.93425,-6.66066 14.93425,-14.93423 V 67.850895 c 0,-8.273519 -6.66059,-14.93423 -14.93425,-14.93423 z m 64.466682,26.4585 c 4.85773,0 9.18118,0.481964 12.9707,1.446562 3.7897,0.964616 7.3552,2.670345 10.6967,5.116342 3.3415,2.446032 6.09774,5.650023 8.26837,9.611884 2.20468,3.927431 3.92728,8.991947 5.16729,15.193117 1.27441,6.1667 1.9124,13.34973 1.9124,21.54904 0,8.19931 -0.63799,15.39896 -1.9124,21.60012 -1.24001,6.1667 -2.96261,11.21372 -5.16729,15.14115 -2.17063,3.96186 -4.92687,7.16591 -8.26837,9.6119 -3.3415,2.446 -6.907,4.15171 -10.6967,5.11633 -3.78952,0.96461 -8.11297,1.44656 -12.9707,1.44656 -4.85738,0 -9.18136,-0.48195 -12.97088,-1.44656 -3.78953,-0.96462 -7.37232,-2.67033 -10.74838,-5.11633 -3.34203,-2.44599 -6.11556,-5.65004 -8.32024,-9.6119 -2.170627,-3.92743 -3.892702,-8.97445 -5.167635,-15.14115 -1.240009,-6.20116 -1.860365,-13.40081 -1.860365,-21.60012 0,-8.19931 0.620356,-15.38234 1.860365,-21.54904 1.274933,-6.20117 2.997008,-11.265686 5.167635,-15.193117 2.20468,-3.961861 4.97821,-7.165852 8.32024,-9.611884 3.37606,-2.445997 6.95885,-4.151726 10.74838,-5.116342 3.78952,-0.964598 8.1135,-1.446562 12.97088,-1.446562 z m -3.46286,7.441583 v 36.069472 l -15.03743,-15.08917 -5.47809,5.52926 18.86189,18.9658 -18.86189,18.91298 5.47809,5.52925 15.03743,-15.0892 v 36.12145 l 27.44018,-27.44019 -18.08631,-18.03429 18.08631,-18.08712 z m 7.69953,18.655042 8.785,8.78515 -8.73279,8.7332 z m 0.0529,36.07034 8.7328,8.73322 -8.78501,8.78519 z" />
  </g>
</svg>
