<?xml version="1.0" encoding="UTF-8" standalone="no"?>
<svg
   width="1000"
   height="1000"
   viewBox="0 0 264.58333 264.58334"
   version="1.1"
   id="svg221"
   inkscape:version="1.1.1 (3bf5ae0d25, 2021-09-20, custom)"
   sodipodi:docname="C.svg"
   xmlns:inkscape="http://www.inkscape.org/namespaces/inkscape"
   xmlns:sodipodi="http://sodipodi.sourceforge.net/DTD/sodipodi-0.dtd"
   xmlns="http://www.w3.org/2000/svg"
   xmlns:svg="http://www.w3.org/2000/svg"
   xmlns:rdf="http://www.w3.org/1999/02/22-rdf-syntax-ns#"
   xmlns:cc="http://creativecommons.org/ns#"
   xmlns:dc="http://purl.org/dc/elements/1.1/">
  <defs
     id="defs215" />
  <sodipodi:namedview
     id="base"
     pagecolor="#ffffff"
     bordercolor="#666666"
     borderopacity="1.0"
     inkscape:pageopacity="0.0"
     inkscape:pageshadow="2"
     inkscape:zoom="0.24748737"
     inkscape:cx="573.76665"
     inkscape:cy="325.26912"
     inkscape:document-units="mm"
     inkscape:current-layer="layer1"
     inkscape:document-rotation="0"
     showgrid="false"
     units="px"
     showguides="true"
     inkscape:guide-bbox="true"
     inkscape:window-width="605"
     inkscape:window-height="728"
     inkscape:window-x="752"
     inkscape:window-y="32"
     inkscape:window-maximized="0"
     inkscape:pagecheckerboard="0"
     inkscape:snap-intersection-paths="true"
     inkscape:snap-bbox="true"
     inkscape:bbox-nodes="true"
     inkscape:snap-nodes="false">
    <sodipodi:guide
       position="-5.0862631e-06,52.916663"
       orientation="0,-1"
       id="guide1048" />
    <sodipodi:guide
       position="-5.0862631e-06,211.66667"
       orientation="0,-1"
       id="guide144" />
    <sodipodi:guide
       position="211.66667,269.38659"
       orientation="1,0"
       id="guide146" />
    <sodipodi:guide
       position="52.916667,269.38659"
       orientation="1,0"
       id="guide148" />
  </sodipodi:namedview>
  <metadata
     id="metadata218">
    <rdf:RDF>
      <cc:Work
         rdf:about="">
        <dc:format>image/svg+xml</dc:format>
        <dc:type
           rdf:resource="http://purl.org/dc/dcmitype/StillImage" />
      </cc:Work>
    </rdf:RDF>
  </metadata>
  <g
     inkscape:label="Layer 1"
     inkscape:groupmode="layer"
     id="layer1">
    <path
       id="rect12-1-6-31-9-57"
       style="display:inline;fill:#000000;fill-opacity:1;stroke:none;stroke-width:0.302968"
       d="m 67.850742,52.916665 c -8.273484,0 -14.934075,6.660678 -14.934075,14.934235 v 128.88155 c 0,8.27356 6.660591,14.93422 14.934075,14.93422 H 196.73242 c 8.27348,0 14.93425,-6.66066 14.93425,-14.93422 V 67.8509 c 0,-8.273557 -6.66077,-14.934235 -14.93425,-14.934235 z m 66.245378,26.458474 c 10.94153,0 19.71313,3.065985 26.31587,9.197145 6.60274,6.084011 10.44694,14.526146 11.53155,25.326396 h -13.65367 c -1.17881,-8.2063 -3.74931,-14.149572 -7.71116,-17.828243 -3.91458,-3.678724 -9.40854,-5.517416 -16.48259,-5.517416 -8.67812,0 -15.49341,3.206903 -20.44533,9.621009 -4.905,6.41416 -7.35803,15.54037 -7.35803,27.37823 v 9.97464 c 0,11.17762 2.33538,20.06811 7.0042,26.67092 4.66935,6.60279 11.20064,9.90358 19.59601,9.90358 7.54589,0 13.32313,-1.69785 17.33208,-5.09356 4.05604,-3.44289 6.74455,-9.40916 8.06482,-17.89847 h 13.65367 c -1.27317,10.8946 -5.30593,19.31368 -12.09758,25.25619 -6.7442,5.89538 -15.72853,8.8426 -26.95299,8.8426 -12.16813,0 -21.93033,-4.36237 -29.28783,-13.08752 -7.310229,-8.72507 -10.96552,-20.39801 -10.96552,-35.01846 v -9.90359 c 0,-9.57406 1.697912,-17.99313 5.093559,-25.2562 3.442741,-7.263076 8.300651,-12.827941 14.573011,-16.695312 6.27289,-3.914485 13.53637,-5.871939 21.78993,-5.871939 z" />
  </g>
</svg>
