<?xml version="1.0" encoding="UTF-8" standalone="no"?>
<svg
   width="1000"
   height="1000"
   viewBox="0 0 264.58333 264.58334"
   version="1.1"
   id="svg221"
   inkscape:version="1.1.1 (3bf5ae0d25, 2021-09-20, custom)"
   sodipodi:docname="calendar.svg"
   xmlns:inkscape="http://www.inkscape.org/namespaces/inkscape"
   xmlns:sodipodi="http://sodipodi.sourceforge.net/DTD/sodipodi-0.dtd"
   xmlns="http://www.w3.org/2000/svg"
   xmlns:svg="http://www.w3.org/2000/svg"
   xmlns:rdf="http://www.w3.org/1999/02/22-rdf-syntax-ns#"
   xmlns:cc="http://creativecommons.org/ns#"
   xmlns:dc="http://purl.org/dc/elements/1.1/">
  <defs
     id="defs215" />
  <sodipodi:namedview
     id="base"
     pagecolor="#ffffff"
     bordercolor="#666666"
     borderopacity="1.0"
     inkscape:pageopacity="0.0"
     inkscape:pageshadow="2"
     inkscape:zoom="0.49497474"
     inkscape:cx="439.41636"
     inkscape:cy="502.04582"
     inkscape:document-units="mm"
     inkscape:current-layer="layer1"
     inkscape:document-rotation="0"
     showgrid="false"
     units="px"
     showguides="true"
     inkscape:guide-bbox="true"
     inkscape:window-width="1366"
     inkscape:window-height="740"
     inkscape:window-x="0"
     inkscape:window-y="28"
     inkscape:window-maximized="0"
     inkscape:pagecheckerboard="0"
     inkscape:snap-bbox="true"
     inkscape:bbox-nodes="true"
     inkscape:snap-midpoints="true">
    <sodipodi:guide
       position="-5.0862631e-06,52.916663"
       orientation="0,-1"
       id="guide1048" />
    <sodipodi:guide
       position="75.848259,211.66667"
       orientation="0,-1"
       id="guide144" />
    <sodipodi:guide
       position="211.66667,269.38659"
       orientation="1,0"
       id="guide146" />
    <sodipodi:guide
       position="52.916667,269.38659"
       orientation="1,0"
       id="guide148" />
    <sodipodi:guide
       position="132.29166,211.66667"
       orientation="1,0"
       id="guide133" />
    <sodipodi:guide
       position="52.916666,132.29167"
       orientation="0,-1"
       id="guide135" />
  </sodipodi:namedview>
  <metadata
     id="metadata218">
    <rdf:RDF>
      <cc:Work
         rdf:about="">
        <dc:format>image/svg+xml</dc:format>
        <dc:type
           rdf:resource="http://purl.org/dc/dcmitype/StillImage" />
      </cc:Work>
    </rdf:RDF>
  </metadata>
  <g
     inkscape:label="Layer 1"
     inkscape:groupmode="layer"
     id="layer1">
    <path
       id="rect12-1-6-31-9-8-8-1-8-8-7-2"
       style="display:inline;fill:#000000;fill-opacity:0.979723;stroke:none;stroke-width:0.302968"
       d="m 67.850952,52.916665 c -8.273503,0 -14.934285,6.660678 -14.934285,14.934235 v 128.88154 c 0,8.27357 6.660782,14.93423 14.934285,14.93423 H 196.73238 c 8.27351,0 14.93429,-6.66066 14.93429,-14.93423 V 67.8509 c 0,-8.273557 -6.66078,-14.934235 -14.93429,-14.934235 z m 32.715828,26.458456 h 10.6574 v 10.657448 h 42.13463 V 79.375121 h 10.65827 v 10.657448 h 5.20505 c 2.97426,0 5.49344,0.991445 7.55913,2.974246 2.06551,1.982837 3.09826,4.543698 3.09826,7.683145 v 73.86081 c 0,2.97421 -1.03275,5.49374 -3.09826,7.55914 -2.06569,2.06546 -4.58487,3.09825 -7.55913,3.09825 H 95.362088 c -2.974262,0 -5.494854,-1.03279 -7.56001,-3.09825 -2.06551,-2.0654 -3.098264,-4.58493 -3.098264,-7.55914 v -73.86081 c 0,-3.139447 0.991303,-5.700308 2.974262,-7.683145 1.98296,-1.982801 4.54465,-2.974246 7.684012,-2.974246 h 5.204692 z m -5.204692,37.177889 v 57.99776 h 73.860042 v -57.99776 z m 36.930102,21.0678 h 26.51949 v 26.51954 h -26.51949 z" />
  </g>
</svg>
