<?xml version="1.0" encoding="UTF-8" standalone="no"?>
<svg
   width="1000"
   height="1000"
   viewBox="0 0 264.58333 264.58334"
   version="1.1"
   id="svg221"
   inkscape:version="1.1.1 (3bf5ae0d25, 2021-09-20, custom)"
   sodipodi:docname="cam video.svg"
   xmlns:inkscape="http://www.inkscape.org/namespaces/inkscape"
   xmlns:sodipodi="http://sodipodi.sourceforge.net/DTD/sodipodi-0.dtd"
   xmlns="http://www.w3.org/2000/svg"
   xmlns:svg="http://www.w3.org/2000/svg"
   xmlns:rdf="http://www.w3.org/1999/02/22-rdf-syntax-ns#"
   xmlns:cc="http://creativecommons.org/ns#"
   xmlns:dc="http://purl.org/dc/elements/1.1/">
  <defs
     id="defs215" />
  <sodipodi:namedview
     id="base"
     pagecolor="#ffffff"
     bordercolor="#666666"
     borderopacity="1.0"
     inkscape:pageopacity="0.0"
     inkscape:pageshadow="2"
     inkscape:zoom="0.69999999"
     inkscape:cx="507.85715"
     inkscape:cy="563.57144"
     inkscape:document-units="mm"
     inkscape:current-layer="layer1"
     inkscape:document-rotation="0"
     showgrid="false"
     units="px"
     showguides="true"
     inkscape:guide-bbox="true"
     inkscape:window-width="1366"
     inkscape:window-height="740"
     inkscape:window-x="0"
     inkscape:window-y="28"
     inkscape:window-maximized="0"
     inkscape:pagecheckerboard="0"
     inkscape:snap-bbox="true"
     inkscape:bbox-nodes="true"
     inkscape:snap-midpoints="true">
    <sodipodi:guide
       position="-5.0862631e-06,52.916663"
       orientation="0,-1"
       id="guide1048" />
    <sodipodi:guide
       position="75.848259,211.66667"
       orientation="0,-1"
       id="guide144" />
    <sodipodi:guide
       position="211.66667,269.38659"
       orientation="1,0"
       id="guide146" />
    <sodipodi:guide
       position="52.916667,269.38659"
       orientation="1,0"
       id="guide148" />
    <sodipodi:guide
       position="132.29166,211.66667"
       orientation="1,0"
       id="guide133" />
    <sodipodi:guide
       position="52.916666,132.29167"
       orientation="0,-1"
       id="guide135" />
  </sodipodi:namedview>
  <metadata
     id="metadata218">
    <rdf:RDF>
      <cc:Work
         rdf:about="">
        <dc:format>image/svg+xml</dc:format>
        <dc:type
           rdf:resource="http://purl.org/dc/dcmitype/StillImage" />
      </cc:Work>
    </rdf:RDF>
  </metadata>
  <g
     inkscape:label="Layer 1"
     inkscape:groupmode="layer"
     id="layer1">
    <path
       id="rect12-1-6-31-0-0-9-1-2-1-1"
       style="display:inline;fill:#000000;fill-opacity:0.979723;stroke:none;stroke-width:0.302969"
       d="m 67.851051,52.916665 c -8.273557,0 -14.934384,6.660607 -14.934384,14.934286 V 196.73238 c 0,8.27368 6.660827,14.93429 14.934384,14.93429 H 196.73246 c 8.27356,0 14.93421,-6.66061 14.93421,-14.93429 V 67.850951 c 0,-8.273679 -6.66065,-14.934286 -14.93421,-14.934286 z m 28.525032,41.599643 h 41.600097 c 4.68509,0 8.6819,1.654172 11.98885,4.961456 3.34206,3.307106 5.01247,7.302836 5.01247,11.988066 v 9.81885 l 23.77168,-23.771354 c 0.6888,-0.757942 1.58486,-1.136648 2.6873,-1.136648 0.4475,0 0.92957,0.102305 1.44622,0.309915 0.68933,0.275695 1.24055,0.741008 1.65347,1.395585 0.44803,0.654578 0.67205,1.360485 0.67205,2.118252 v 64.18248 c 0,0.75794 -0.22402,1.46367 -0.67205,2.11825 -0.41292,0.65457 -0.96414,1.12006 -1.65347,1.39558 -0.51665,0.20673 -0.99872,0.30992 -1.44622,0.30992 -1.10244,0 -1.9985,-0.37871 -2.6873,-1.13665 L 154.9775,143.29866 v 9.81884 c 0,4.68523 -1.67041,8.68184 -5.01247,11.98913 -3.30695,3.30728 -7.30376,4.9604 -11.98885,4.9604 H 96.376083 c -4.719659,0 -8.732876,-1.65312 -12.040359,-4.9604 -3.306954,-3.30729 -4.961489,-7.3039 -4.961489,-11.98913 v -41.65167 c 0,-4.68523 1.654535,-8.68096 4.961489,-11.988066 3.307483,-3.307284 7.3207,-4.961456 12.040359,-4.961456 z" />
  </g>
</svg>
