<?xml version="1.0" encoding="UTF-8" standalone="no"?>
<svg
   width="1000"
   height="1000"
   viewBox="0 0 264.58333 264.58334"
   version="1.1"
   id="svg221"
   inkscape:version="1.1.1 (3bf5ae0d25, 2021-09-20, custom)"
   sodipodi:docname="cam pic.svg"
   xmlns:inkscape="http://www.inkscape.org/namespaces/inkscape"
   xmlns:sodipodi="http://sodipodi.sourceforge.net/DTD/sodipodi-0.dtd"
   xmlns="http://www.w3.org/2000/svg"
   xmlns:svg="http://www.w3.org/2000/svg"
   xmlns:rdf="http://www.w3.org/1999/02/22-rdf-syntax-ns#"
   xmlns:cc="http://creativecommons.org/ns#"
   xmlns:dc="http://purl.org/dc/elements/1.1/">
  <defs
     id="defs215" />
  <sodipodi:namedview
     id="base"
     pagecolor="#ffffff"
     bordercolor="#666666"
     borderopacity="1.0"
     inkscape:pageopacity="0.0"
     inkscape:pageshadow="2"
     inkscape:zoom="0.69999999"
     inkscape:cx="507.85715"
     inkscape:cy="449.28572"
     inkscape:document-units="mm"
     inkscape:current-layer="layer1"
     inkscape:document-rotation="0"
     showgrid="false"
     units="px"
     showguides="true"
     inkscape:guide-bbox="true"
     inkscape:window-width="1366"
     inkscape:window-height="740"
     inkscape:window-x="0"
     inkscape:window-y="28"
     inkscape:window-maximized="0"
     inkscape:pagecheckerboard="0"
     inkscape:snap-bbox="true"
     inkscape:bbox-nodes="true"
     inkscape:snap-midpoints="true">
    <sodipodi:guide
       position="-5.0862631e-06,52.916663"
       orientation="0,-1"
       id="guide1048" />
    <sodipodi:guide
       position="75.848259,211.66667"
       orientation="0,-1"
       id="guide144" />
    <sodipodi:guide
       position="211.66667,269.38659"
       orientation="1,0"
       id="guide146" />
    <sodipodi:guide
       position="52.916667,269.38659"
       orientation="1,0"
       id="guide148" />
    <sodipodi:guide
       position="132.29166,211.66667"
       orientation="1,0"
       id="guide133" />
    <sodipodi:guide
       position="52.916666,132.29167"
       orientation="0,-1"
       id="guide135" />
  </sodipodi:namedview>
  <metadata
     id="metadata218">
    <rdf:RDF>
      <cc:Work
         rdf:about="">
        <dc:format>image/svg+xml</dc:format>
        <dc:type
           rdf:resource="http://purl.org/dc/dcmitype/StillImage" />
      </cc:Work>
    </rdf:RDF>
  </metadata>
  <g
     inkscape:label="Layer 1"
     inkscape:groupmode="layer"
     id="layer1">
    <path
       id="rect12-1-6-31-6-4-7-3-1"
       style="display:inline;fill:#000000;fill-opacity:0.979723;stroke:none;stroke-width:0.302968"
       d="m 67.850952,52.916665 c -8.273503,0 -14.934285,6.660783 -14.934285,14.934286 V 196.73238 c 0,8.27368 6.660782,14.93428 14.934285,14.93428 H 196.73238 c 8.27351,0 14.93429,-6.6606 14.93429,-14.93428 V 67.850951 c 0,-8.273503 -6.66078,-14.934286 -14.93429,-14.934286 z m 50.355388,33.50094 h 28.21863 c 1.92987,0 3.81105,0.65934 5.64426,1.977844 1.86548,1.318504 3.15206,2.877955 3.85956,4.678881 l 2.8455,7.42878 h 12.34825 c 3.89131,0 7.20388,1.38271 9.93737,4.1483 2.7656,2.7656 4.14831,6.10975 4.14831,10.03298 v 49.39583 c 0,3.85903 -1.38271,7.17072 -4.14831,9.93649 -2.73349,2.7656 -6.04606,4.14813 -9.93737,4.14813 H 93.509304 c -3.891307,0 -7.220111,-1.38253 -9.985882,-4.14813 -2.765595,-2.76577 -4.148305,-6.07746 -4.148305,-9.93649 v -49.39583 c 0,-3.92323 1.38271,-7.26738 4.148305,-10.03298 2.765771,-2.76559 6.094575,-4.1483 9.985882,-4.1483 h 12.348256 l 2.7984,-7.42878 c 0.70749,-1.800926 1.99319,-3.360377 3.85815,-4.678881 1.8653,-1.318504 3.76289,-1.977844 5.69223,-1.977844 z m 14.08585,28.266785 c -3.34432,0 -6.54507,0.64329 -9.59994,1.92969 -3.02277,1.2864 -5.64373,3.03865 -7.86287,5.25761 -2.21861,2.21897 -3.98744,4.85598 -5.30594,7.91103 -1.28623,3.05505 -1.92969,6.25473 -1.92969,9.59923 0,3.3445 0.64346,6.52884 1.92969,9.55161 1.3185,3.02295 3.08733,5.64373 5.30594,7.8627 2.21914,2.21896 4.8401,3.98743 7.86287,5.30594 3.05487,1.3185 6.25562,1.97802 9.59994,1.97802 3.34433,0 6.52815,-0.65952 9.55092,-1.97802 3.05487,-1.31851 5.69223,-3.08698 7.91084,-5.30594 2.21915,-2.21897 3.97122,-4.83975 5.25779,-7.8627 1.31851,-3.02277 1.97785,-6.20711 1.97785,-9.55161 0,-3.3445 -0.65934,-6.54418 -1.97785,-9.59923 -1.28657,-3.05505 -3.03864,-5.69206 -5.25779,-7.91103 -2.21861,-2.21896 -4.85597,-3.97121 -7.91084,-5.25761 -3.02277,-1.2864 -6.20659,-1.92969 -9.55092,-1.92969 z m 0,8.77974 c 4.40549,0 8.15163,1.55945 11.23896,4.6787 3.08715,3.11944 4.63055,6.86557 4.63055,11.23912 0,4.37355 -1.5434,8.10434 -4.63055,11.1915 -3.08733,3.08715 -6.83347,4.63055 -11.23896,4.63055 -4.40565,0 -8.15267,-1.5434 -11.24,-4.63055 -3.08715,-3.08716 -4.63055,-6.81795 -4.63055,-11.1915 0,-4.37355 1.5434,-8.11968 4.63055,-11.23912 3.08733,-3.11925 6.83435,-4.6787 11.24,-4.6787 z" />
  </g>
</svg>
