<?xml version="1.0" encoding="UTF-8" standalone="no"?>
<svg
   width="1000"
   height="1000"
   viewBox="0 0 264.58333 264.58334"
   version="1.1"
   id="svg221"
   inkscape:version="1.1.1 (3bf5ae0d25, 2021-09-20, custom)"
   sodipodi:docname="deck.svg"
   xmlns:inkscape="http://www.inkscape.org/namespaces/inkscape"
   xmlns:sodipodi="http://sodipodi.sourceforge.net/DTD/sodipodi-0.dtd"
   xmlns="http://www.w3.org/2000/svg"
   xmlns:svg="http://www.w3.org/2000/svg"
   xmlns:rdf="http://www.w3.org/1999/02/22-rdf-syntax-ns#"
   xmlns:cc="http://creativecommons.org/ns#"
   xmlns:dc="http://purl.org/dc/elements/1.1/">
  <defs
     id="defs215" />
  <sodipodi:namedview
     id="base"
     pagecolor="#ffffff"
     bordercolor="#666666"
     borderopacity="1.0"
     inkscape:pageopacity="0.0"
     inkscape:pageshadow="2"
     inkscape:zoom="0.24748737"
     inkscape:cx="573.76665"
     inkscape:cy="325.26912"
     inkscape:document-units="mm"
     inkscape:current-layer="layer1"
     inkscape:document-rotation="0"
     showgrid="false"
     units="px"
     showguides="true"
     inkscape:guide-bbox="true"
     inkscape:window-width="605"
     inkscape:window-height="728"
     inkscape:window-x="752"
     inkscape:window-y="32"
     inkscape:window-maximized="0"
     inkscape:pagecheckerboard="0"
     inkscape:snap-intersection-paths="true"
     inkscape:snap-bbox="true"
     inkscape:bbox-nodes="true"
     inkscape:snap-nodes="false">
    <sodipodi:guide
       position="-5.0862631e-06,52.916663"
       orientation="0,-1"
       id="guide1048" />
    <sodipodi:guide
       position="-5.0862631e-06,211.66667"
       orientation="0,-1"
       id="guide144" />
    <sodipodi:guide
       position="211.66667,269.38659"
       orientation="1,0"
       id="guide146" />
    <sodipodi:guide
       position="52.916667,269.38659"
       orientation="1,0"
       id="guide148" />
  </sodipodi:namedview>
  <metadata
     id="metadata218">
    <rdf:RDF>
      <cc:Work
         rdf:about="">
        <dc:format>image/svg+xml</dc:format>
        <dc:type
           rdf:resource="http://purl.org/dc/dcmitype/StillImage" />
      </cc:Work>
    </rdf:RDF>
  </metadata>
  <g
     inkscape:label="Layer 1"
     inkscape:groupmode="layer"
     id="layer1">
    <path
       id="rect12-1-6-31-2-9-6-9-0-0"
       style="display:inline;fill:#000000;fill-opacity:1;stroke:none;stroke-width:0.302968"
       d="m 67.850952,52.916665 c -8.273503,0 -14.934285,6.66066 -14.934285,14.934216 V 196.73244 c 0,8.27355 6.660782,14.93423 14.934285,14.93423 H 142.21405 V 52.916665 Z m 80.977138,0 V 211.66667 h 47.90429 c 8.27351,0 14.93429,-6.66068 14.93429,-14.93423 V 67.850881 c 0,-8.273556 -6.66078,-14.934216 -14.93429,-14.934216 z m 12.3188,54.948715 h 13.7904 c 4.24973,0 8.00804,0.93949 11.27352,2.81842 3.26583,1.87886 5.78237,4.55241 7.54925,8.01943 1.78929,3.46704 2.69469,7.44856 2.71709,11.9445 v 3.12009 c 0,4.60782 -0.89464,8.64519 -2.68446,12.11221 -1.76688,3.46704 -4.30529,6.12921 -7.61557,7.98577 -3.28788,1.85656 -7.12451,2.80646 -11.50864,2.85121 h -13.52159 z m 6.44276,5.30137 v 38.28265 h 6.77685 c 4.96604,0 8.82436,-1.5428 11.57549,-4.62962 2.77354,-3.08676 4.16101,-7.4821 4.16101,-13.18595 v -2.85211 c 0,-5.54723 -1.30863,-9.85262 -3.92588,-12.91704 -2.59485,-3.08676 -6.28543,-4.65321 -11.07226,-4.69793 z" />
  </g>
</svg>
