<?xml version="1.0" encoding="UTF-8" standalone="no"?>
<svg
   width="1000"
   height="1000"
   viewBox="0 0 264.58333 264.58334"
   version="1.1"
   id="svg221"
   inkscape:version="1.1.1 (3bf5ae0d25, 2021-09-20, custom)"
   sodipodi:docname="file cut.svg"
   xmlns:inkscape="http://www.inkscape.org/namespaces/inkscape"
   xmlns:sodipodi="http://sodipodi.sourceforge.net/DTD/sodipodi-0.dtd"
   xmlns="http://www.w3.org/2000/svg"
   xmlns:svg="http://www.w3.org/2000/svg"
   xmlns:rdf="http://www.w3.org/1999/02/22-rdf-syntax-ns#"
   xmlns:cc="http://creativecommons.org/ns#"
   xmlns:dc="http://purl.org/dc/elements/1.1/">
  <defs
     id="defs215" />
  <sodipodi:namedview
     id="base"
     pagecolor="#ffffff"
     bordercolor="#666666"
     borderopacity="1.0"
     inkscape:pageopacity="0.0"
     inkscape:pageshadow="2"
     inkscape:zoom="0.69999999"
     inkscape:cx="507.85715"
     inkscape:cy="563.57144"
     inkscape:document-units="mm"
     inkscape:current-layer="layer1"
     inkscape:document-rotation="0"
     showgrid="false"
     units="px"
     showguides="true"
     inkscape:guide-bbox="true"
     inkscape:window-width="1366"
     inkscape:window-height="740"
     inkscape:window-x="0"
     inkscape:window-y="28"
     inkscape:window-maximized="0"
     inkscape:pagecheckerboard="0"
     inkscape:snap-bbox="true"
     inkscape:bbox-nodes="true"
     inkscape:snap-midpoints="true">
    <sodipodi:guide
       position="-5.0862631e-06,52.916663"
       orientation="0,-1"
       id="guide1048" />
    <sodipodi:guide
       position="75.848259,211.66667"
       orientation="0,-1"
       id="guide144" />
    <sodipodi:guide
       position="211.66667,269.38659"
       orientation="1,0"
       id="guide146" />
    <sodipodi:guide
       position="52.916667,269.38659"
       orientation="1,0"
       id="guide148" />
    <sodipodi:guide
       position="132.29166,211.66667"
       orientation="1,0"
       id="guide133" />
    <sodipodi:guide
       position="52.916666,132.29167"
       orientation="0,-1"
       id="guide135" />
  </sodipodi:namedview>
  <metadata
     id="metadata218">
    <rdf:RDF>
      <cc:Work
         rdf:about="">
        <dc:format>image/svg+xml</dc:format>
        <dc:type
           rdf:resource="http://purl.org/dc/dcmitype/StillImage" />
      </cc:Work>
    </rdf:RDF>
  </metadata>
  <g
     inkscape:label="Layer 1"
     inkscape:groupmode="layer"
     id="layer1">
    <path
       id="rect12-1-6-31-9-8-8-0-7-4-9-4"
       style="display:inline;fill:#000000;fill-opacity:0.979723;stroke:none;stroke-width:0.302969"
       d="m 67.850918,52.916665 c -8.273484,0 -14.934251,6.66082 -14.934251,14.934369 V 196.7323 c 0,8.27373 6.660767,14.93437 14.934251,14.93437 H 196.73259 c 8.27349,0 14.93408,-6.66064 14.93408,-14.93437 V 67.851034 c 0,-8.273549 -6.66059,-14.934369 -14.93408,-14.934369 z m 32.441832,26.582602 c 5.97638,0 10.95687,1.991614 14.94166,5.9759 3.98407,3.984286 6.05946,8.965172 6.22509,14.941603 0,3.15437 -0.58138,6.05968 -1.7436,8.71593 l 65.4922,65.74142 v 5.22941 H 169.27144 L 132.16731,142.9993 119.7159,155.45063 c 1.16222,2.65625 1.7436,5.56068 1.7436,8.71506 -0.16581,5.97642 -2.24102,10.95731 -6.22509,14.9416 -3.98479,3.98428 -8.96528,5.97678 -14.94166,5.97678 -5.976561,0 -10.956173,-1.9925 -14.940781,-5.97678 -3.984254,-3.98429 -5.976558,-8.96518 -5.976558,-14.9416 0,-5.97661 1.992304,-10.95644 5.976558,-14.94072 3.984608,-3.98429 8.96422,-6.05969 14.940781,-6.22567 3.15435,0 6.05946,0.58067 8.71586,1.74273 l 12.45089,-12.45027 -12.45089,-12.45133 c -2.6564,1.16205 -5.56151,1.74272 -8.71586,1.74272 -5.976561,-0.1658 -10.956173,-2.24032 -14.940781,-6.22478 -3.984254,-3.98429 -5.976558,-8.965 -5.976558,-14.9416 0,-5.976431 1.992304,-10.957317 5.976558,-14.941603 3.984608,-3.984286 8.96422,-5.9759 14.940781,-5.9759 z m 68.97869,4.980534 h 15.93666 v 5.229419 l -37.10412,37.35312 -10.70729,-10.7086 z m -68.97869,5.478305 c -2.98837,0 -5.478617,0.995718 -7.470921,2.987861 -1.991774,1.992143 -2.987838,4.482587 -2.987838,7.470803 0,2.98821 0.996064,5.47866 2.987838,7.4708 1.992304,1.99214 4.482551,3.07076 7.470921,3.23692 2.98819,-0.1658 5.47844,-1.24478 7.47074,-3.23692 1.99177,-1.99214 2.98784,-4.48259 2.98784,-7.4708 0,-2.988216 -0.99607,-5.47866 -2.98784,-7.470803 -1.9923,-1.992143 -4.48255,-2.987861 -7.47074,-2.987861 z m 31.87456,39.843214 c -1.65999,0 -2.49025,0.83026 -2.49025,2.49044 0,1.66 0.83026,2.57299 2.49025,2.73898 1.66017,-0.16581 2.49025,-1.07898 2.49025,-2.73898 0,-1.66018 -0.83008,-2.49044 -2.49025,-2.49044 z m -31.87456,23.90553 c -2.98837,0 -5.478617,0.99677 -7.470921,2.98892 -1.991774,1.99214 -2.987838,4.4817 -2.987838,7.46992 0,2.98821 0.996064,5.47865 2.987838,7.4708 1.992304,1.99214 4.482551,3.07164 7.470921,3.23763 2.98819,-0.16581 5.47844,-1.24549 7.47074,-3.23763 1.99177,-1.99215 2.98784,-4.48259 2.98784,-7.4708 0,-2.98822 -0.99607,-5.47778 -2.98784,-7.46992 -1.9923,-1.99215 -4.48255,-2.98892 -7.47074,-2.98892 z" />
  </g>
</svg>
