<?xml version="1.0" encoding="UTF-8" standalone="no"?>
<svg
   width="1000"
   height="1000"
   viewBox="0 0 264.58333 264.58334"
   version="1.1"
   id="svg221"
   inkscape:version="1.1.1 (3bf5ae0d25, 2021-09-20, custom)"
   sodipodi:docname="file move to.svg"
   xmlns:inkscape="http://www.inkscape.org/namespaces/inkscape"
   xmlns:sodipodi="http://sodipodi.sourceforge.net/DTD/sodipodi-0.dtd"
   xmlns="http://www.w3.org/2000/svg"
   xmlns:svg="http://www.w3.org/2000/svg"
   xmlns:rdf="http://www.w3.org/1999/02/22-rdf-syntax-ns#"
   xmlns:cc="http://creativecommons.org/ns#"
   xmlns:dc="http://purl.org/dc/elements/1.1/">
  <defs
     id="defs215" />
  <sodipodi:namedview
     id="base"
     pagecolor="#ffffff"
     bordercolor="#666666"
     borderopacity="1.0"
     inkscape:pageopacity="0.0"
     inkscape:pageshadow="2"
     inkscape:zoom="0.69999999"
     inkscape:cx="507.85715"
     inkscape:cy="563.57144"
     inkscape:document-units="mm"
     inkscape:current-layer="layer1"
     inkscape:document-rotation="0"
     showgrid="false"
     units="px"
     showguides="true"
     inkscape:guide-bbox="true"
     inkscape:window-width="1366"
     inkscape:window-height="740"
     inkscape:window-x="0"
     inkscape:window-y="28"
     inkscape:window-maximized="0"
     inkscape:pagecheckerboard="0"
     inkscape:snap-bbox="true"
     inkscape:bbox-nodes="true"
     inkscape:snap-midpoints="true">
    <sodipodi:guide
       position="-5.0862631e-06,52.916663"
       orientation="0,-1"
       id="guide1048" />
    <sodipodi:guide
       position="75.848259,211.66667"
       orientation="0,-1"
       id="guide144" />
    <sodipodi:guide
       position="211.66667,269.38659"
       orientation="1,0"
       id="guide146" />
    <sodipodi:guide
       position="52.916667,269.38659"
       orientation="1,0"
       id="guide148" />
    <sodipodi:guide
       position="132.29166,211.66667"
       orientation="1,0"
       id="guide133" />
    <sodipodi:guide
       position="52.916666,132.29167"
       orientation="0,-1"
       id="guide135" />
  </sodipodi:namedview>
  <metadata
     id="metadata218">
    <rdf:RDF>
      <cc:Work
         rdf:about="">
        <dc:format>image/svg+xml</dc:format>
        <dc:type
           rdf:resource="http://purl.org/dc/dcmitype/StillImage" />
      </cc:Work>
    </rdf:RDF>
  </metadata>
  <g
     inkscape:label="Layer 1"
     inkscape:groupmode="layer"
     id="layer1">
    <path
       id="rect12-1-6-31-0-0-9-1-2-6-2"
       style="display:inline;fill:#000000;fill-opacity:0.979723;stroke:none;stroke-width:0.30297"
       d="m 67.851051,52.916665 c -8.273557,0 -14.934384,6.66082 -14.934384,14.934369 V 196.7323 c 0,8.27373 6.660827,14.93437 14.934384,14.93437 H 196.73246 c 8.27356,0 14.93421,-6.66064 14.93421,-14.93437 V 67.851034 c 0,-8.273549 -6.66065,-14.934369 -14.93421,-14.934369 z M 89.150633,79.374383 H 126.76608 V 116.7776 c 0,1.84186 0.63747,3.40008 1.91242,4.6752 1.27512,1.27512 2.83335,1.9133 4.67503,1.9133 h 13.81414 c -2.55007,2.55024 -3.82554,5.59596 -3.82554,9.13803 0,1.13331 0.0723,1.98368 0.21343,2.55042 h -2.33822 c -3.82501,0 -6.9427,1.41675 -9.3513,4.25027 -2.26661,2.55024 -3.39991,5.38394 -3.39991,8.50092 v 4.03702 c 0,3.11698 1.1333,6.02229 3.39991,8.71417 2.55006,2.83352 5.66758,4.24958 9.3513,4.24958 h 2.33822 c -0.14287,0.42492 -0.21343,1.20456 -0.21343,2.33804 0,3.68354 1.27547,6.72926 3.82554,9.13786 l 2.12497,2.33804 c 2.83334,2.55024 5.8803,3.82571 9.13874,3.82571 3.40044,0 6.51654,-1.27547 9.35042,-3.82571 l 3.18754,-3.39991 v 3.39991 c 0,1.84186 -0.63712,3.40009 -1.91259,4.67521 -1.27495,1.27512 -2.83335,1.91329 -4.67486,1.91329 H 89.150633 c -1.842038,0 -3.400264,-0.63817 -4.675385,-1.91329 -1.274944,-1.27512 -1.913475,-2.83335 -1.913475,-4.67521 V 85.962884 c 0,-1.841859 0.638531,-3.400084 1.913475,-4.675204 1.275121,-1.275119 2.833347,-1.913297 4.675385,-1.913297 z m 46.540947,0.213255 c 3.82554,0.708557 6.80071,2.196049 8.92567,4.462831 l 21.67706,21.463601 c 2.40825,2.40842 3.89609,5.4552 4.46266,9.13892 h -35.06539 z m 22.7398,46.753622 c 1.13331,0 2.05442,0.35454 2.76297,1.06292 l 19.76323,19.76356 c 0.70838,0.70838 1.0631,1.62931 1.0631,2.76278 0,0.99167 -0.35472,1.84204 -1.0631,2.55042 l -19.76323,19.55101 c -0.56709,0.8502 -1.48784,1.2753 -2.76297,1.2753 -0.99166,0 -1.84203,-0.4251 -2.55041,-1.2753 l -2.33823,-2.12461 c -0.70838,-0.70838 -1.06168,-1.62949 -1.06168,-2.76279 0,-1.13348 0.3533,-2.05458 1.06168,-2.76296 l 8.92656,-8.71312 h -21.25196 c -1.13366,0 -1.9835,-0.42509 -2.55059,-1.27529 -0.70839,-0.70838 -1.06258,-1.55858 -1.06258,-2.55042 v -4.03702 c 0,-0.99184 0.35419,-1.84204 1.06258,-2.55042 0.56709,-0.85002 1.41693,-1.2753 2.55059,-1.2753 h 21.25196 l -8.92656,-8.7131 c -0.70838,-0.70838 -1.06168,-1.62948 -1.06168,-2.76279 0,-1.13348 0.3533,-2.05441 1.06168,-2.76296 l 2.33823,-2.33699 c 0.70838,-0.70838 1.55875,-1.06292 2.55041,-1.06292 z" />
  </g>
</svg>
