<?xml version="1.0" encoding="UTF-8" standalone="no"?>
<svg
   width="1000"
   height="1000"
   viewBox="0 0 264.58333 264.58334"
   version="1.1"
   id="svg221"
   inkscape:version="1.1.1 (3bf5ae0d25, 2021-09-20, custom)"
   sodipodi:docname="folder move.svg"
   xmlns:inkscape="http://www.inkscape.org/namespaces/inkscape"
   xmlns:sodipodi="http://sodipodi.sourceforge.net/DTD/sodipodi-0.dtd"
   xmlns="http://www.w3.org/2000/svg"
   xmlns:svg="http://www.w3.org/2000/svg"
   xmlns:rdf="http://www.w3.org/1999/02/22-rdf-syntax-ns#"
   xmlns:cc="http://creativecommons.org/ns#"
   xmlns:dc="http://purl.org/dc/elements/1.1/">
  <defs
     id="defs215" />
  <sodipodi:namedview
     id="base"
     pagecolor="#ffffff"
     bordercolor="#666666"
     borderopacity="1.0"
     inkscape:pageopacity="0.0"
     inkscape:pageshadow="2"
     inkscape:zoom="0.69999999"
     inkscape:cx="507.85715"
     inkscape:cy="449.28572"
     inkscape:document-units="mm"
     inkscape:current-layer="layer1"
     inkscape:document-rotation="0"
     showgrid="false"
     units="px"
     showguides="true"
     inkscape:guide-bbox="true"
     inkscape:window-width="1366"
     inkscape:window-height="740"
     inkscape:window-x="0"
     inkscape:window-y="28"
     inkscape:window-maximized="0"
     inkscape:pagecheckerboard="0"
     inkscape:snap-bbox="true"
     inkscape:bbox-nodes="true"
     inkscape:snap-midpoints="true">
    <sodipodi:guide
       position="-5.0862631e-06,52.916663"
       orientation="0,-1"
       id="guide1048" />
    <sodipodi:guide
       position="75.848259,211.66667"
       orientation="0,-1"
       id="guide144" />
    <sodipodi:guide
       position="211.66667,269.38659"
       orientation="1,0"
       id="guide146" />
    <sodipodi:guide
       position="52.916667,269.38659"
       orientation="1,0"
       id="guide148" />
    <sodipodi:guide
       position="132.29166,211.66667"
       orientation="1,0"
       id="guide133" />
    <sodipodi:guide
       position="52.916666,132.29167"
       orientation="0,-1"
       id="guide135" />
  </sodipodi:namedview>
  <metadata
     id="metadata218">
    <rdf:RDF>
      <cc:Work
         rdf:about="">
        <dc:format>image/svg+xml</dc:format>
        <dc:type
           rdf:resource="http://purl.org/dc/dcmitype/StillImage" />
      </cc:Work>
    </rdf:RDF>
  </metadata>
  <g
     inkscape:label="Layer 1"
     inkscape:groupmode="layer"
     id="layer1">
    <path
       id="rect12-1-6-5-8-7-9-4"
       style="display:inline;fill:#000000;fill-opacity:0.979723;stroke:none;stroke-width:0.302969"
       d="m 67.850968,52.916665 c -8.273688,0 -14.934301,6.660783 -14.934301,14.934286 V 196.73238 c 0,8.27368 6.660613,14.93429 14.934301,14.93429 H 196.73254 c 8.27352,0 14.93413,-6.66061 14.93413,-14.93429 V 67.850951 c 0,-8.273503 -6.66061,-14.934286 -14.93413,-14.934286 z M 89.80889,89.809204 h 31.80006 l 10.68316,10.682966 h 42.48181 c 2.98132,0 5.46593,0.99325 7.45365,2.98062 1.9872,1.98754 2.9808,4.55558 2.9808,7.70236 v 52.91601 c 0,2.98114 -0.9936,5.46593 -2.9808,7.45347 -1.98772,1.98737 -4.47233,3.06387 -7.45365,3.2295 H 89.80889 c -2.980792,-0.1658 -5.46505,-1.24213 -7.452245,-3.2295 -1.987548,-1.98754 -2.981675,-4.47233 -2.981675,-7.45347 v -63.59899 c 0,-2.981138 0.994127,-5.465923 2.981675,-7.453468 1.987195,-1.98737 4.471453,-3.063869 7.452245,-3.229498 z m 53.16497,21.365946 v 15.89948 h -21.36491 v 21.11705 h 21.36491 v 15.89948 l 26.33465,-26.58245 z" />
  </g>
</svg>
