<?xml version="1.0" encoding="UTF-8" standalone="no"?>
<svg
   width="1000"
   height="1000"
   viewBox="0 0 264.58333 264.58334"
   version="1.1"
   id="svg221"
   inkscape:version="1.1.1 (3bf5ae0d25, 2021-09-20, custom)"
   sodipodi:docname="headphone off.svg"
   xmlns:inkscape="http://www.inkscape.org/namespaces/inkscape"
   xmlns:sodipodi="http://sodipodi.sourceforge.net/DTD/sodipodi-0.dtd"
   xmlns="http://www.w3.org/2000/svg"
   xmlns:svg="http://www.w3.org/2000/svg"
   xmlns:rdf="http://www.w3.org/1999/02/22-rdf-syntax-ns#"
   xmlns:cc="http://creativecommons.org/ns#"
   xmlns:dc="http://purl.org/dc/elements/1.1/">
  <defs
     id="defs215" />
  <sodipodi:namedview
     id="base"
     pagecolor="#ffffff"
     bordercolor="#666666"
     borderopacity="1.0"
     inkscape:pageopacity="0.0"
     inkscape:pageshadow="2"
     inkscape:zoom="0.69999999"
     inkscape:cx="507.85715"
     inkscape:cy="449.28572"
     inkscape:document-units="mm"
     inkscape:current-layer="layer1"
     inkscape:document-rotation="0"
     showgrid="false"
     units="px"
     showguides="true"
     inkscape:guide-bbox="true"
     inkscape:window-width="1366"
     inkscape:window-height="740"
     inkscape:window-x="0"
     inkscape:window-y="28"
     inkscape:window-maximized="0"
     inkscape:pagecheckerboard="0"
     inkscape:snap-bbox="true"
     inkscape:bbox-nodes="true"
     inkscape:snap-midpoints="true">
    <sodipodi:guide
       position="-5.0862631e-06,52.916663"
       orientation="0,-1"
       id="guide1048" />
    <sodipodi:guide
       position="75.848259,211.66667"
       orientation="0,-1"
       id="guide144" />
    <sodipodi:guide
       position="211.66667,269.38659"
       orientation="1,0"
       id="guide146" />
    <sodipodi:guide
       position="52.916667,269.38659"
       orientation="1,0"
       id="guide148" />
    <sodipodi:guide
       position="132.29166,211.66667"
       orientation="1,0"
       id="guide133" />
    <sodipodi:guide
       position="52.916666,132.29167"
       orientation="0,-1"
       id="guide135" />
  </sodipodi:namedview>
  <metadata
     id="metadata218">
    <rdf:RDF>
      <cc:Work
         rdf:about="">
        <dc:format>image/svg+xml</dc:format>
        <dc:type
           rdf:resource="http://purl.org/dc/dcmitype/StillImage" />
      </cc:Work>
    </rdf:RDF>
  </metadata>
  <g
     inkscape:label="Layer 1"
     inkscape:groupmode="layer"
     id="layer1">
    <path
       id="rect12-1-6-31-9-8-2-3-0-5-0"
       style="display:inline;fill:#000000;fill-opacity:0.979723;stroke:none;stroke-width:0.302968"
       d="m 67.850952,52.916665 c -8.273503,0 -14.934285,6.660607 -14.934285,14.934286 V 196.73238 c 0,8.27351 6.660782,14.93429 14.934285,14.93429 H 196.73238 c 8.27351,0 14.93429,-6.66078 14.93429,-14.93429 V 67.850951 c 0,-8.273679 -6.66078,-14.934286 -14.93429,-14.934286 z M 128.6025,79.375118 c 6.30218,0.153458 12.14382,1.383239 17.52385,3.68899 5.38002,2.305574 10.14463,5.533484 14.29488,9.683905 l -6.91726,7.147969 c -3.22826,-3.381721 -6.95517,-5.99527 -11.1825,-7.839941 -4.22697,-1.844494 -8.80002,-2.766301 -13.71897,-2.766301 -9.83789,0.307445 -17.98545,3.68899 -24.44127,10.144986 -6.45635,6.456174 -9.760988,14.525774 -9.914446,24.209854 v 9.9155 h 19.599226 v 5.76437 L 86.868806,166.3006 c -1.69086,-2.30575 -2.536996,-4.99532 -2.536996,-8.06959 v -34.58643 c 0.307622,-12.45091 4.611854,-22.86454 12.91252,-31.242112 8.30067,-8.377572 18.7531,-12.719904 31.35817,-13.02735 z m 45.42234,12.450384 6.2258,6.225632 -10.14551,10.145166 c 1.84485,4.91894 2.76754,10.06825 2.76754,15.44828 v 34.58643 c -0.15346,4.15042 -1.61484,7.60887 -4.38132,10.3757 -2.767,2.767 -6.22581,4.22697 -10.37605,4.38078 h -14.75649 v -38.0447 l -29.5128,29.51385 v 8.53085 h -8.53208 l -12.220374,12.22073 -6.22475,-6.22564 z m -11.75824,24.210738 -17.52402,17.52384 h 18.21476 v -9.9155 c 0,-2.6132 -0.22966,-5.14896 -0.69074,-7.60834 z" />
  </g>
</svg>
