<?xml version="1.0" encoding="UTF-8" standalone="no"?>
<svg
   width="1000"
   height="1000"
   viewBox="0 0 264.58333 264.58334"
   version="1.1"
   id="svg221"
   inkscape:version="1.1.1 (3bf5ae0d25, 2021-09-20, custom)"
   sodipodi:docname="incognito.svg"
   xmlns:inkscape="http://www.inkscape.org/namespaces/inkscape"
   xmlns:sodipodi="http://sodipodi.sourceforge.net/DTD/sodipodi-0.dtd"
   xmlns="http://www.w3.org/2000/svg"
   xmlns:svg="http://www.w3.org/2000/svg"
   xmlns:rdf="http://www.w3.org/1999/02/22-rdf-syntax-ns#"
   xmlns:cc="http://creativecommons.org/ns#"
   xmlns:dc="http://purl.org/dc/elements/1.1/">
  <defs
     id="defs215" />
  <sodipodi:namedview
     id="base"
     pagecolor="#ffffff"
     bordercolor="#666666"
     borderopacity="1.0"
     inkscape:pageopacity="0.0"
     inkscape:pageshadow="2"
     inkscape:zoom="0.49497474"
     inkscape:cx="439.41636"
     inkscape:cy="502.04582"
     inkscape:document-units="mm"
     inkscape:current-layer="layer1"
     inkscape:document-rotation="0"
     showgrid="false"
     units="px"
     showguides="true"
     inkscape:guide-bbox="true"
     inkscape:window-width="1366"
     inkscape:window-height="740"
     inkscape:window-x="0"
     inkscape:window-y="28"
     inkscape:window-maximized="0"
     inkscape:pagecheckerboard="0"
     inkscape:snap-bbox="true"
     inkscape:bbox-nodes="true"
     inkscape:snap-midpoints="true">
    <sodipodi:guide
       position="-5.0862631e-06,52.916663"
       orientation="0,-1"
       id="guide1048" />
    <sodipodi:guide
       position="75.848259,211.66667"
       orientation="0,-1"
       id="guide144" />
    <sodipodi:guide
       position="211.66667,269.38659"
       orientation="1,0"
       id="guide146" />
    <sodipodi:guide
       position="52.916667,269.38659"
       orientation="1,0"
       id="guide148" />
    <sodipodi:guide
       position="132.29166,211.66667"
       orientation="1,0"
       id="guide133" />
    <sodipodi:guide
       position="52.916666,132.29167"
       orientation="0,-1"
       id="guide135" />
  </sodipodi:namedview>
  <metadata
     id="metadata218">
    <rdf:RDF>
      <cc:Work
         rdf:about="">
        <dc:format>image/svg+xml</dc:format>
        <dc:type
           rdf:resource="http://purl.org/dc/dcmitype/StillImage" />
      </cc:Work>
    </rdf:RDF>
  </metadata>
  <g
     inkscape:label="Layer 1"
     inkscape:groupmode="layer"
     id="layer1">
    <path
       id="rect12-1-6-31-9-48-17-9-73"
       style="display:inline;fill:#000000;fill-opacity:0.979723;stroke:none;stroke-width:0.302968"
       d="m 67.850742,52.916665 c -8.273484,0 -14.934075,6.660678 -14.934075,14.934235 v 128.88155 c 0,8.27356 6.660591,14.93422 14.934075,14.93422 H 196.73242 c 8.27348,0 14.93425,-6.66066 14.93425,-14.93422 V 67.8509 c 0,-8.273557 -6.66077,-14.934235 -14.93425,-14.934235 z m 64.441098,36.253594 c 6.60556,0.300231 11.89703,1.276506 15.87511,2.927802 3.97808,1.651262 6.04182,2.626602 6.19211,2.926833 l 6.75478,22.968326 h -57.64452 l 6.75496,-22.968326 c 0.14993,-0.300231 2.21402,-1.275571 6.1921,-2.926833 3.97808,-1.651296 9.27043,-2.627571 15.87546,-2.927802 z m 0,38.505071 c 7.3561,0 14.5231,0.41307 21.50383,1.23874 6.98039,0.82562 10.77132,1.31374 11.37192,1.46388 5.10379,1.35103 9.23215,2.7015 12.38474,4.05258 4.95386,1.65131 7.50584,2.5525 7.65559,2.70264 H 79.375411 c 0.14993,-0.15011 2.70156,-1.05133 7.655597,-2.70264 3.152408,-1.35108 7.20563,-2.70155 12.159666,-4.05258 1.200846,-0.1501 5.254076,-0.63826 12.159316,-1.46388 6.90559,-0.82567 13.88633,-1.23874 20.94185,-1.23874 z m -21.61724,14.41189 c 3.6029,0 6.7927,0.93829 9.56993,2.81477 2.77741,1.87649 4.76689,4.39029 5.96774,7.54276 1.50124,-0.45036 3.52776,-0.67544 6.07957,-0.67544 2.55234,0 4.57869,0.22508 6.0801,0.67544 1.20085,-3.15247 3.18945,-5.66627 5.96668,-7.54276 2.77724,-1.87648 5.96721,-2.81477 9.56994,-2.81477 4.80375,0 8.78184,1.61349 11.93442,4.84107 3.15241,3.22752 4.72897,7.20572 4.72897,11.93441 0,4.72873 -1.57656,8.66895 -4.72897,11.82142 -3.15258,3.15247 -7.13067,4.72892 -11.93442,4.72892 -4.80358,0 -8.78219,-1.57645 -11.93424,-4.72892 -3.15241,-3.15247 -4.80411,-7.13068 -4.95439,-11.93441 0,-0.75063 0.0759,-1.50084 0.22542,-2.25148 -1.50142,-0.30021 -3.15206,-0.45027 -4.95351,-0.45027 -1.80092,0 -3.45262,0.15011 -4.95386,0.45027 0.14993,0.75064 0.22525,1.50085 0.22525,2.25148 -0.14993,4.80373 -1.80181,8.78194 -4.95439,11.93441 -3.15205,3.15247 -7.13049,4.72892 -11.93424,4.72892 -4.80376,0 -8.78184,-1.57645 -11.934245,-4.72892 -3.152584,-3.15247 -4.728965,-7.09269 -4.728965,-11.82142 0,-4.72869 1.576381,-8.70689 4.728965,-11.93441 3.152405,-3.22758 7.130485,-4.84107 11.934245,-4.84107 z m 0,4.72804 c -3.45262,0.1501 -6.30464,1.35145 -8.55641,3.60321 -2.251773,2.25174 -3.377835,5.06662 -3.377835,8.44423 0,3.37765 1.126062,6.19252 3.377835,8.44428 2.25177,2.25174 5.10379,3.37714 8.55641,3.37714 3.45262,0 6.30464,-1.1254 8.55641,-3.37714 2.25177,-2.25176 3.37783,-5.06663 3.37783,-8.44428 0,-3.37761 -1.12606,-6.19249 -3.37783,-8.44423 -2.25177,-2.25176 -5.10379,-3.45309 -8.55641,-3.60321 z m 43.23396,0 c -3.45244,0.1501 -6.30446,1.35145 -8.55623,3.60321 -2.25177,2.25174 -3.37801,5.06662 -3.37801,8.44423 0,3.37765 1.12624,6.19252 3.37801,8.44428 2.25177,2.25174 5.10379,3.37714 8.55623,3.37714 3.45262,0 6.30464,-1.1254 8.55641,-3.37714 2.25177,-2.25176 3.37801,-5.06663 3.37801,-8.44428 0,-3.37761 -1.12624,-6.19249 -3.37801,-8.44423 -2.25177,-2.25176 -5.10379,-3.45309 -8.55641,-3.60321 z" />
  </g>
</svg>
