<?xml version="1.0" encoding="UTF-8" standalone="no"?>
<svg
   width="1000"
   height="1000"
   viewBox="0 0 264.58333 264.58334"
   version="1.1"
   id="svg221"
   inkscape:version="1.1.1 (3bf5ae0d25, 2021-09-20, custom)"
   sodipodi:docname="lock.svg"
   xmlns:inkscape="http://www.inkscape.org/namespaces/inkscape"
   xmlns:sodipodi="http://sodipodi.sourceforge.net/DTD/sodipodi-0.dtd"
   xmlns="http://www.w3.org/2000/svg"
   xmlns:svg="http://www.w3.org/2000/svg"
   xmlns:rdf="http://www.w3.org/1999/02/22-rdf-syntax-ns#"
   xmlns:cc="http://creativecommons.org/ns#"
   xmlns:dc="http://purl.org/dc/elements/1.1/">
  <defs
     id="defs215" />
  <sodipodi:namedview
     id="base"
     pagecolor="#ffffff"
     bordercolor="#666666"
     borderopacity="1.0"
     inkscape:pageopacity="0.0"
     inkscape:pageshadow="2"
     inkscape:zoom="0.69999999"
     inkscape:cx="439.28572"
     inkscape:cy="502.14286"
     inkscape:document-units="mm"
     inkscape:current-layer="layer1"
     inkscape:document-rotation="0"
     showgrid="false"
     units="px"
     showguides="true"
     inkscape:guide-bbox="true"
     inkscape:window-width="1366"
     inkscape:window-height="740"
     inkscape:window-x="0"
     inkscape:window-y="28"
     inkscape:window-maximized="0"
     inkscape:pagecheckerboard="0"
     inkscape:snap-bbox="true"
     inkscape:bbox-nodes="true"
     inkscape:snap-midpoints="true">
    <sodipodi:guide
       position="-5.0862631e-06,52.916663"
       orientation="0,-1"
       id="guide1048" />
    <sodipodi:guide
       position="75.848259,211.66667"
       orientation="0,-1"
       id="guide144" />
    <sodipodi:guide
       position="211.66667,269.38659"
       orientation="1,0"
       id="guide146" />
    <sodipodi:guide
       position="52.916667,269.38659"
       orientation="1,0"
       id="guide148" />
    <sodipodi:guide
       position="132.29166,211.66667"
       orientation="1,0"
       id="guide133" />
    <sodipodi:guide
       position="52.916666,132.29167"
       orientation="0,-1"
       id="guide135" />
  </sodipodi:namedview>
  <metadata
     id="metadata218">
    <rdf:RDF>
      <cc:Work
         rdf:about="">
        <dc:format>image/svg+xml</dc:format>
        <dc:type
           rdf:resource="http://purl.org/dc/dcmitype/StillImage" />
      </cc:Work>
    </rdf:RDF>
  </metadata>
  <g
     inkscape:label="Layer 1"
     inkscape:groupmode="layer"
     id="layer1">
    <path
       id="rect12-1-6-31-9-48-17-9-2-0"
       style="display:inline;fill:#000000;fill-opacity:0.979723;stroke:none;stroke-width:0.302969"
       d="m 67.850742,52.916665 c -8.273484,0 -14.934075,6.66082 -14.934075,14.934369 V 196.73248 c 0,8.27355 6.660591,14.93419 14.934075,14.93419 H 196.73242 c 8.27348,0 14.93425,-6.66064 14.93425,-14.93419 V 67.851034 c 0,-8.273549 -6.66077,-14.934369 -14.93425,-14.934369 z m 64.408468,26.458777 c 6.04782,0 11.65697,1.511834 16.82849,4.535679 5.17099,3.023845 9.26761,7.120668 12.29178,12.291702 3.02364,5.171207 4.53529,10.780927 4.53529,16.828437 v 14.46218 h 2.43292 c 2.01612,0 3.72514,0.70062 5.1276,2.10291 1.40194,1.4023 2.10237,3.11134 2.10237,5.12729 v 43.25423 c 0,2.01595 -0.70043,3.72499 -2.10237,5.12728 -1.40246,1.40248 -3.11148,2.1038 -5.1276,2.1038 H 96.236526 c -2.016116,0 -3.72514,-0.70132 -5.127602,-2.1038 -1.402462,-1.40229 -2.103781,-3.11133 -2.103781,-5.12728 v -43.25423 c 0,-2.01595 0.701319,-3.72499 2.103781,-5.12729 1.402462,-1.40229 3.111486,-2.10291 5.127602,-2.10291 h 2.36607 v -14.46218 c 0,-6.04751 1.512174,-11.65723 4.535824,-16.828437 3.02364,-5.171034 7.12131,-9.267857 12.29266,-12.291702 5.17099,-3.023845 10.78066,-4.535679 16.82813,-4.535679 z m 0,14.461116 c -5.30258,0 -9.8384,1.884545 -13.60693,5.653283 -3.72514,3.768739 -5.5878,8.282719 -5.5878,13.541419 v 14.46218 h 38.45508 v -14.46218 c 0,-5.2587 -1.88453,-9.77268 -5.65341,-13.541419 -3.76854,-3.768738 -8.30436,-5.653283 -13.60694,-5.653283 z" />
  </g>
</svg>
