<?xml version="1.0" encoding="UTF-8" standalone="no"?>
<svg
   width="1000"
   height="1000"
   viewBox="0 0 264.58333 264.58334"
   version="1.1"
   id="svg221"
   inkscape:version="1.1.1 (3bf5ae0d25, 2021-09-20, custom)"
   sodipodi:docname="logout.svg"
   xmlns:inkscape="http://www.inkscape.org/namespaces/inkscape"
   xmlns:sodipodi="http://sodipodi.sourceforge.net/DTD/sodipodi-0.dtd"
   xmlns="http://www.w3.org/2000/svg"
   xmlns:svg="http://www.w3.org/2000/svg"
   xmlns:rdf="http://www.w3.org/1999/02/22-rdf-syntax-ns#"
   xmlns:cc="http://creativecommons.org/ns#"
   xmlns:dc="http://purl.org/dc/elements/1.1/">
  <defs
     id="defs215" />
  <sodipodi:namedview
     id="base"
     pagecolor="#ffffff"
     bordercolor="#666666"
     borderopacity="1.0"
     inkscape:pageopacity="0.0"
     inkscape:pageshadow="2"
     inkscape:zoom="0.69999999"
     inkscape:cx="439.28572"
     inkscape:cy="502.14286"
     inkscape:document-units="mm"
     inkscape:current-layer="layer1"
     inkscape:document-rotation="0"
     showgrid="false"
     units="px"
     showguides="true"
     inkscape:guide-bbox="true"
     inkscape:window-width="1366"
     inkscape:window-height="740"
     inkscape:window-x="0"
     inkscape:window-y="28"
     inkscape:window-maximized="0"
     inkscape:pagecheckerboard="0"
     inkscape:snap-bbox="true"
     inkscape:bbox-nodes="true"
     inkscape:snap-midpoints="true">
    <sodipodi:guide
       position="-5.0862631e-06,52.916663"
       orientation="0,-1"
       id="guide1048" />
    <sodipodi:guide
       position="75.848259,211.66667"
       orientation="0,-1"
       id="guide144" />
    <sodipodi:guide
       position="211.66667,269.38659"
       orientation="1,0"
       id="guide146" />
    <sodipodi:guide
       position="52.916667,269.38659"
       orientation="1,0"
       id="guide148" />
    <sodipodi:guide
       position="132.29166,211.66667"
       orientation="1,0"
       id="guide133" />
    <sodipodi:guide
       position="52.916666,132.29167"
       orientation="0,-1"
       id="guide135" />
  </sodipodi:namedview>
  <metadata
     id="metadata218">
    <rdf:RDF>
      <cc:Work
         rdf:about="">
        <dc:format>image/svg+xml</dc:format>
        <dc:type
           rdf:resource="http://purl.org/dc/dcmitype/StillImage" />
      </cc:Work>
    </rdf:RDF>
  </metadata>
  <g
     inkscape:label="Layer 1"
     inkscape:groupmode="layer"
     id="layer1">
    <path
       id="rect12-1-6-31-0-1-5-4-9-9"
       style="display:inline;fill:#000000;fill-opacity:0.979723;stroke:none;stroke-width:0.302969"
       d="m 67.850792,52.916665 c -8.273512,0 -14.934125,6.660783 -14.934125,14.934286 V 196.73256 c 0,8.2735 6.660613,14.93411 14.934125,14.93411 H 196.73237 c 8.27369,0 14.9343,-6.66061 14.9343,-14.93411 V 67.850951 c 0,-8.273503 -6.66061,-14.934286 -14.9343,-14.934286 z m 21.81346,27.193288 h 47.036698 c 2.93969,0 5.431,0.979662 7.4727,2.939514 2.04135,1.959853 3.06158,4.409713 3.06158,7.349581 V 111.46777 H 136.70095 V 90.399048 H 89.664252 v 83.784362 h 47.036698 v -21.06855 h 10.53428 v 21.06855 c 0,2.93986 -1.02023,5.38972 -3.06158,7.34958 -2.0417,1.95985 -4.53301,2.94057 -7.4727,2.94057 H 89.664252 c -2.939694,0 -5.389909,-0.98072 -7.349588,-2.94057 -1.960031,-1.95986 -2.939694,-4.40972 -2.939694,-7.34958 V 90.399048 c 0,-2.939868 0.979663,-5.389728 2.939694,-7.349581 1.959679,-1.959852 4.409894,-2.939514 7.349588,-2.939514 z m 68.105618,24.743777 27.4385,27.43759 -27.4385,27.43828 v -16.90401 h -36.74794 v -21.06872 h 36.74794 z" />
  </g>
</svg>
