<?xml version="1.0" encoding="UTF-8" standalone="no"?>
<svg
   width="1000"
   height="1000"
   viewBox="0 0 264.58333 264.58334"
   version="1.1"
   id="svg221"
   inkscape:version="1.1.1 (3bf5ae0d25, 2021-09-20, custom)"
   sodipodi:docname="magnet thick.svg"
   xmlns:inkscape="http://www.inkscape.org/namespaces/inkscape"
   xmlns:sodipodi="http://sodipodi.sourceforge.net/DTD/sodipodi-0.dtd"
   xmlns="http://www.w3.org/2000/svg"
   xmlns:svg="http://www.w3.org/2000/svg"
   xmlns:rdf="http://www.w3.org/1999/02/22-rdf-syntax-ns#"
   xmlns:cc="http://creativecommons.org/ns#"
   xmlns:dc="http://purl.org/dc/elements/1.1/">
  <defs
     id="defs215" />
  <sodipodi:namedview
     id="base"
     pagecolor="#ffffff"
     bordercolor="#666666"
     borderopacity="1.0"
     inkscape:pageopacity="0.0"
     inkscape:pageshadow="2"
     inkscape:zoom="0.69999999"
     inkscape:cx="507.85715"
     inkscape:cy="449.28572"
     inkscape:document-units="mm"
     inkscape:current-layer="layer1"
     inkscape:document-rotation="0"
     showgrid="false"
     units="px"
     showguides="true"
     inkscape:guide-bbox="true"
     inkscape:window-width="1366"
     inkscape:window-height="740"
     inkscape:window-x="0"
     inkscape:window-y="28"
     inkscape:window-maximized="0"
     inkscape:pagecheckerboard="0"
     inkscape:snap-bbox="true"
     inkscape:bbox-nodes="true"
     inkscape:snap-midpoints="true">
    <sodipodi:guide
       position="-5.0862631e-06,52.916663"
       orientation="0,-1"
       id="guide1048" />
    <sodipodi:guide
       position="75.848259,211.66667"
       orientation="0,-1"
       id="guide144" />
    <sodipodi:guide
       position="211.66667,269.38659"
       orientation="1,0"
       id="guide146" />
    <sodipodi:guide
       position="52.916667,269.38659"
       orientation="1,0"
       id="guide148" />
    <sodipodi:guide
       position="132.29166,211.66667"
       orientation="1,0"
       id="guide133" />
    <sodipodi:guide
       position="52.916666,132.29167"
       orientation="0,-1"
       id="guide135" />
  </sodipodi:namedview>
  <metadata
     id="metadata218">
    <rdf:RDF>
      <cc:Work
         rdf:about="">
        <dc:format>image/svg+xml</dc:format>
        <dc:type
           rdf:resource="http://purl.org/dc/dcmitype/StillImage" />
      </cc:Work>
    </rdf:RDF>
  </metadata>
  <g
     inkscape:label="Layer 1"
     inkscape:groupmode="layer"
     id="layer1">
    <path
       id="rect12-1-6-31-9-4-3-4-0-2-2"
       style="display:inline;fill:#000000;fill-opacity:0.979723;stroke:none;stroke-width:0.302969"
       d="m 67.850968,52.916665 c -8.273688,0 -14.934301,6.660644 -14.934301,14.934369 V 196.7323 c 0,8.27355 6.660613,14.93437 14.934301,14.93437 H 196.73254 c 8.27352,0 14.93413,-6.66082 14.93413,-14.93437 V 67.851034 c 0,-8.273725 -6.66061,-14.934369 -14.93413,-14.934369 z m 15.925958,26.487881 h 26.472764 c 1.20633,0 2.23132,0.422629 3.07552,1.266829 0.88441,0.844377 1.32732,1.869553 1.32732,3.075528 v 26.533387 c 0,1.20615 -0.44291,2.23115 -1.32732,3.07553 -0.8442,0.8442 -1.86919,1.26595 -3.07552,1.26595 H 83.776926 c -1.206498,0 -2.251425,-0.42175 -3.135838,-1.26595 -0.844196,-0.84438 -1.267,-1.86938 -1.267,-3.07553 V 83.746903 c 0,-1.205975 0.422804,-2.231151 1.267,-3.075528 0.884413,-0.8442 1.92934,-1.266829 3.135838,-1.266829 z m 70.555304,0 h 26.4733 c 1.20597,0 2.23131,0.422629 3.07551,1.266829 0.88441,0.844377 1.3268,1.869553 1.3268,3.075528 v 26.533387 c 0,1.20615 -0.44239,2.23115 -1.3268,3.07553 -0.8442,0.8442 -1.86954,1.26595 -3.07551,1.26595 h -26.4733 c -1.20579,0 -2.2509,-0.42175 -3.13513,-1.26595 -0.84437,-0.84438 -1.26718,-1.86938 -1.26718,-3.07553 V 83.746903 c 0,-1.205975 0.42281,-2.231151 1.26718,-3.075528 0.88423,-0.8442 1.92934,-1.266829 3.13513,-1.266829 z M 83.776926,123.42713 h 26.472764 c 1.20633,0 2.23132,0.44186 3.07552,1.32627 0.88441,0.88442 1.32732,1.92953 1.32732,3.13568 v 8.8043 c 0,2.41212 0.52211,4.48329 1.56757,6.2119 1.08549,1.7288 2.33203,3.03514 3.73909,3.91955 1.40722,0.88442 3.03547,1.56758 4.8849,2.05 1.8893,0.48243 3.3565,0.78458 4.40143,0.90523 1.0855,0.11995 2.11084,0.18045 3.07551,0.18045 0.9652,0 1.96991,-0.06 3.01537,-0.18045 1.0855,-0.11994 2.55323,-0.4228 4.40284,-0.90523 1.88912,-0.48242 3.51702,-1.16558 4.88385,-2.05 1.40723,-0.88441 2.63366,-2.19075 3.67859,-3.91955 1.08549,-1.72861 1.62824,-3.79978 1.62824,-6.2119 v -8.8043 c 0,-1.20615 0.42281,-2.25126 1.26718,-3.13568 0.88423,-0.88441 1.92934,-1.32627 3.13513,-1.32627 h 26.4733 c 1.20597,0 2.23131,0.44186 3.07551,1.32627 0.88441,0.88442 1.3268,1.92953 1.3268,3.13568 v 8.8043 c 0,6.91482 -1.3268,13.3876 -3.98039,19.41801 -2.65306,6.0304 -6.31119,11.17692 -10.97438,15.43849 -4.6235,4.26139 -10.21167,7.59798 -16.76451,10.01028 -6.55337,2.41213 -13.60927,3.61775 -21.16753,3.61775 -7.55808,0 -14.6332,-1.20562 -21.22626,-3.61775 -6.55319,-2.4123 -12.161116,-5.74889 -16.824657,-10.01028 -4.623147,-4.26157 -8.262046,-9.40809 -10.915637,-15.43849 -2.653063,-6.03041 -3.980388,-12.50319 -3.980388,-19.41801 v -8.8043 c 0,-1.20615 0.422804,-2.25126 1.267,-3.13568 0.884413,-0.88441 1.92934,-1.32627 3.135838,-1.32627 z" />
  </g>
</svg>
