<?xml version="1.0" encoding="UTF-8" standalone="no"?>
<svg
   width="1000"
   height="1000"
   viewBox="0 0 264.58333 264.58334"
   version="1.1"
   id="svg221"
   inkscape:version="1.1.1 (3bf5ae0d25, 2021-09-20, custom)"
   sodipodi:docname="master center.svg"
   xmlns:inkscape="http://www.inkscape.org/namespaces/inkscape"
   xmlns:sodipodi="http://sodipodi.sourceforge.net/DTD/sodipodi-0.dtd"
   xmlns="http://www.w3.org/2000/svg"
   xmlns:svg="http://www.w3.org/2000/svg"
   xmlns:rdf="http://www.w3.org/1999/02/22-rdf-syntax-ns#"
   xmlns:cc="http://creativecommons.org/ns#"
   xmlns:dc="http://purl.org/dc/elements/1.1/">
  <defs
     id="defs215" />
  <sodipodi:namedview
     id="base"
     pagecolor="#ffffff"
     bordercolor="#666666"
     borderopacity="1.0"
     inkscape:pageopacity="0.0"
     inkscape:pageshadow="2"
     inkscape:zoom="0.24748737"
     inkscape:cx="573.76665"
     inkscape:cy="325.26912"
     inkscape:document-units="mm"
     inkscape:current-layer="layer1"
     inkscape:document-rotation="0"
     showgrid="false"
     units="px"
     showguides="true"
     inkscape:guide-bbox="true"
     inkscape:window-width="605"
     inkscape:window-height="728"
     inkscape:window-x="752"
     inkscape:window-y="32"
     inkscape:window-maximized="0"
     inkscape:pagecheckerboard="0"
     inkscape:snap-intersection-paths="true"
     inkscape:snap-bbox="true"
     inkscape:bbox-nodes="true"
     inkscape:snap-nodes="false">
    <sodipodi:guide
       position="-5.0862631e-06,52.916663"
       orientation="0,-1"
       id="guide1048" />
    <sodipodi:guide
       position="-5.0862631e-06,211.66667"
       orientation="0,-1"
       id="guide144" />
    <sodipodi:guide
       position="211.66667,269.38659"
       orientation="1,0"
       id="guide146" />
    <sodipodi:guide
       position="52.916667,269.38659"
       orientation="1,0"
       id="guide148" />
  </sodipodi:namedview>
  <metadata
     id="metadata218">
    <rdf:RDF>
      <cc:Work
         rdf:about="">
        <dc:format>image/svg+xml</dc:format>
        <dc:type
           rdf:resource="http://purl.org/dc/dcmitype/StillImage" />
      </cc:Work>
    </rdf:RDF>
  </metadata>
  <g
     inkscape:label="Layer 1"
     inkscape:groupmode="layer"
     id="layer1">
    <path
       id="rect12-1-6-31-2-9-0-3-2-2-8-1"
       style="display:inline;fill:#000000;fill-opacity:1;stroke:none;stroke-width:0.302969"
       d="m 67.850842,52.916665 c -8.27354,0 -14.934175,6.66066 -14.934175,14.934235 v 128.88154 c 0,8.27355 6.660635,14.93423 14.934175,14.93423 H 128.98437 V 188.56071 H 89.330117 c -7.314511,0 -13.304514,-5.99372 -13.304514,-13.30808 V 89.331584 c 0,-7.314321 5.990003,-13.308074 13.304514,-13.308074 H 128.98401 V 52.916665 Z m 67.747588,0 V 76.02351 h 39.65285 c 7.31451,0 13.30839,5.993753 13.30839,13.308074 v 85.921046 c 0,7.31436 -5.99388,13.30808 -13.30839,13.30808 h -39.65285 v 23.10596 h 61.13406 c 8.27354,0 14.93418,-6.66068 14.93418,-14.93423 V 67.8509 c 0,-8.273575 -6.66064,-14.934235 -14.93418,-14.934235 z M 89.330117,82.72772 c -3.717228,0 -6.604191,2.886916 -6.604191,6.603864 v 85.921046 c 0,3.71699 2.886963,6.60392 6.604191,6.60392 h 85.921163 c 3.71723,0 6.60437,-2.88693 6.60437,-6.60392 V 89.331584 c 0,-3.716948 -2.88714,-6.603864 -6.60437,-6.603864 z" />
  </g>
</svg>
