<?xml version="1.0" encoding="UTF-8" standalone="no"?>
<svg
   width="1000"
   height="1000"
   viewBox="0 0 264.58333 264.58334"
   version="1.1"
   id="svg221"
   inkscape:version="1.1.1 (3bf5ae0d25, 2021-09-20, custom)"
   sodipodi:docname="media rec.svg"
   xmlns:inkscape="http://www.inkscape.org/namespaces/inkscape"
   xmlns:sodipodi="http://sodipodi.sourceforge.net/DTD/sodipodi-0.dtd"
   xmlns="http://www.w3.org/2000/svg"
   xmlns:svg="http://www.w3.org/2000/svg"
   xmlns:rdf="http://www.w3.org/1999/02/22-rdf-syntax-ns#"
   xmlns:cc="http://creativecommons.org/ns#"
   xmlns:dc="http://purl.org/dc/elements/1.1/">
  <defs
     id="defs215" />
  <sodipodi:namedview
     id="base"
     pagecolor="#ffffff"
     bordercolor="#666666"
     borderopacity="1.0"
     inkscape:pageopacity="0.0"
     inkscape:pageshadow="2"
     inkscape:zoom="0.69999999"
     inkscape:cx="507.85715"
     inkscape:cy="449.28572"
     inkscape:document-units="mm"
     inkscape:current-layer="layer1"
     inkscape:document-rotation="0"
     showgrid="false"
     units="px"
     showguides="true"
     inkscape:guide-bbox="true"
     inkscape:window-width="1366"
     inkscape:window-height="740"
     inkscape:window-x="0"
     inkscape:window-y="28"
     inkscape:window-maximized="0"
     inkscape:pagecheckerboard="0"
     inkscape:snap-bbox="true"
     inkscape:bbox-nodes="true"
     inkscape:snap-midpoints="true">
    <sodipodi:guide
       position="-5.0862631e-06,52.916663"
       orientation="0,-1"
       id="guide1048" />
    <sodipodi:guide
       position="75.848259,211.66667"
       orientation="0,-1"
       id="guide144" />
    <sodipodi:guide
       position="211.66667,269.38659"
       orientation="1,0"
       id="guide146" />
    <sodipodi:guide
       position="52.916667,269.38659"
       orientation="1,0"
       id="guide148" />
    <sodipodi:guide
       position="132.29166,211.66667"
       orientation="1,0"
       id="guide133" />
    <sodipodi:guide
       position="52.916666,132.29167"
       orientation="0,-1"
       id="guide135" />
  </sodipodi:namedview>
  <metadata
     id="metadata218">
    <rdf:RDF>
      <cc:Work
         rdf:about="">
        <dc:format>image/svg+xml</dc:format>
        <dc:type
           rdf:resource="http://purl.org/dc/dcmitype/StillImage" />
      </cc:Work>
    </rdf:RDF>
  </metadata>
  <g
     inkscape:label="Layer 1"
     inkscape:groupmode="layer"
     id="layer1">
    <path
       id="rect12-1-6-31-9-48-1-4-6-1"
       style="display:inline;fill:#000000;fill-opacity:0.979723;stroke:none;stroke-width:0.302969"
       d="m 67.850742,52.916665 c -8.273484,0 -14.934075,6.66082 -14.934075,14.934369 V 196.7323 c 0,8.27355 6.660591,14.93437 14.934075,14.93437 H 196.73242 c 8.27348,0 14.93425,-6.66082 14.93425,-14.93437 V 67.851034 c 0,-8.273549 -6.66077,-14.934369 -14.93425,-14.934369 z m 64.441098,26.457718 c 14.993,0.220487 27.45041,5.347071 37.37241,15.379224 9.9213,10.031973 15.1027,22.544873 15.54367,37.537973 -0.44097,14.99328 -5.62237,27.45043 -15.54367,37.37234 -9.922,9.92191 -22.37941,15.10318 -37.37241,15.54415 -14.99246,-0.44097 -27.50543,-5.62224 -37.537503,-15.54415 -10.032073,-9.92191 -15.158793,-22.37906 -15.378926,-37.37234 0.220133,-14.9931 5.346853,-27.506 15.378926,-37.537973 C 104.78641,84.721454 117.29938,79.59487 132.29184,79.374383 Z M 93.265621,114.43232 v 35.38778 h 7.275659 v -14.22139 l 7.93746,14.22139 h 8.26855 l -8.26855,-14.22139 c 1.76424,-0.44097 3.19739,-1.26753 4.29964,-2.48021 1.10242,-1.21268 1.65452,-2.70088 1.65452,-4.46477 v -6.94569 c 0,-1.98438 -0.66128,-3.63751 -1.98437,-4.96043 -1.32308,-1.32292 -2.97708,-2.0948 -4.96144,-2.31529 z m 35.387859,0 c -1.98436,0.22049 -3.63782,0.99237 -4.96038,2.31529 -1.32309,1.32292 -1.98454,2.97605 -1.98454,4.96043 v 21.16726 c 0,1.98438 0.66145,3.6375 1.98454,4.96042 1.32256,1.32292 2.97602,1.98438 4.96038,1.98438 h 14.22112 v -6.9448 h -14.22112 v -7.27659 h 14.22112 v -6.94498 h -14.22112 v -6.94569 h 14.22112 v -7.27572 z m 28.11186,0 c -1.98454,0.22049 -3.63747,0.99237 -4.96056,2.31529 -1.32309,1.32292 -1.98437,2.97605 -1.98437,4.96043 v 21.16726 c 0,1.98438 0.66128,3.6375 1.98437,4.96042 1.32309,1.32292 2.97602,1.98438 4.96056,1.98438 h 14.22147 v -6.9448 h -14.22147 v -21.16726 h 14.22147 v -7.27572 z m -56.22406,7.27572 h 6.94581 v 6.94569 h -6.94581 z" />
  </g>
</svg>
