<?xml version="1.0" encoding="UTF-8" standalone="no"?>
<svg
   width="1000"
   height="1000"
   viewBox="0 0 264.58333 264.58334"
   version="1.1"
   id="svg221"
   inkscape:version="1.1.1 (3bf5ae0d25, 2021-09-20, custom)"
   sodipodi:docname="media pause.svg"
   xmlns:inkscape="http://www.inkscape.org/namespaces/inkscape"
   xmlns:sodipodi="http://sodipodi.sourceforge.net/DTD/sodipodi-0.dtd"
   xmlns="http://www.w3.org/2000/svg"
   xmlns:svg="http://www.w3.org/2000/svg"
   xmlns:rdf="http://www.w3.org/1999/02/22-rdf-syntax-ns#"
   xmlns:cc="http://creativecommons.org/ns#"
   xmlns:dc="http://purl.org/dc/elements/1.1/">
  <defs
     id="defs215" />
  <sodipodi:namedview
     id="base"
     pagecolor="#ffffff"
     bordercolor="#666666"
     borderopacity="1.0"
     inkscape:pageopacity="0.0"
     inkscape:pageshadow="2"
     inkscape:zoom="0.69999999"
     inkscape:cx="439.28572"
     inkscape:cy="502.14286"
     inkscape:document-units="mm"
     inkscape:current-layer="layer1"
     inkscape:document-rotation="0"
     showgrid="false"
     units="px"
     showguides="true"
     inkscape:guide-bbox="true"
     inkscape:window-width="1366"
     inkscape:window-height="740"
     inkscape:window-x="0"
     inkscape:window-y="28"
     inkscape:window-maximized="0"
     inkscape:pagecheckerboard="0"
     inkscape:snap-bbox="true"
     inkscape:bbox-nodes="true"
     inkscape:snap-midpoints="true">
    <sodipodi:guide
       position="-5.0862631e-06,52.916663"
       orientation="0,-1"
       id="guide1048" />
    <sodipodi:guide
       position="75.848259,211.66667"
       orientation="0,-1"
       id="guide144" />
    <sodipodi:guide
       position="211.66667,269.38659"
       orientation="1,0"
       id="guide146" />
    <sodipodi:guide
       position="52.916667,269.38659"
       orientation="1,0"
       id="guide148" />
    <sodipodi:guide
       position="132.29166,211.66667"
       orientation="1,0"
       id="guide133" />
    <sodipodi:guide
       position="52.916666,132.29167"
       orientation="0,-1"
       id="guide135" />
  </sodipodi:namedview>
  <metadata
     id="metadata218">
    <rdf:RDF>
      <cc:Work
         rdf:about="">
        <dc:format>image/svg+xml</dc:format>
        <dc:type
           rdf:resource="http://purl.org/dc/dcmitype/StillImage" />
      </cc:Work>
    </rdf:RDF>
  </metadata>
  <g
     inkscape:label="Layer 1"
     inkscape:groupmode="layer"
     id="layer1">
    <path
       id="rect12-1-6-31-9-8-8-0-4-2-7-2"
       style="display:inline;fill:#000000;fill-opacity:0.979723;stroke:none;stroke-width:0.302968"
       d="m 67.850918,52.916665 c -8.273484,0 -14.934251,6.66061 -14.934251,14.934295 v 128.88142 c 0,8.2735 6.660767,14.93429 14.934251,14.93429 H 196.73259 c 8.27349,0 14.93408,-6.66079 14.93408,-14.93429 V 67.85096 c 0,-8.273685 -6.66059,-14.934295 -14.93408,-14.934295 z m 34.049432,26.458468 h 0.0529 a 15.066947,15.066991 0 0 1 15.06725,15.067292 v 75.698485 a 15.066947,15.066991 0 0 1 -15.06725,15.06729 h -0.0529 A 15.066947,15.066991 0 0 1 86.833277,170.14091 V 94.442425 A 15.066947,15.066991 0 0 1 101.90035,79.375133 Z m 60.72954,0 h 0.0529 a 15.066947,15.066991 0 0 1 15.06725,15.067292 v 75.698485 a 15.066947,15.066991 0 0 1 -15.06725,15.06729 h -0.0529 A 15.066947,15.066991 0 0 1 147.56265,170.14091 V 94.442425 a 15.066947,15.066991 0 0 1 15.06724,-15.067292 z" />
  </g>
</svg>
