<?xml version="1.0" encoding="UTF-8" standalone="no"?>
<svg
   width="1000"
   height="1000"
   viewBox="0 0 264.58333 264.58334"
   version="1.1"
   id="svg221"
   inkscape:version="1.1.1 (3bf5ae0d25, 2021-09-20, custom)"
   sodipodi:docname="music.svg"
   xmlns:inkscape="http://www.inkscape.org/namespaces/inkscape"
   xmlns:sodipodi="http://sodipodi.sourceforge.net/DTD/sodipodi-0.dtd"
   xmlns="http://www.w3.org/2000/svg"
   xmlns:svg="http://www.w3.org/2000/svg"
   xmlns:rdf="http://www.w3.org/1999/02/22-rdf-syntax-ns#"
   xmlns:cc="http://creativecommons.org/ns#"
   xmlns:dc="http://purl.org/dc/elements/1.1/">
  <defs
     id="defs215" />
  <sodipodi:namedview
     id="base"
     pagecolor="#ffffff"
     bordercolor="#666666"
     borderopacity="1.0"
     inkscape:pageopacity="0.0"
     inkscape:pageshadow="2"
     inkscape:zoom="0.49497474"
     inkscape:cx="439.41636"
     inkscape:cy="502.04582"
     inkscape:document-units="mm"
     inkscape:current-layer="layer1"
     inkscape:document-rotation="0"
     showgrid="false"
     units="px"
     showguides="true"
     inkscape:guide-bbox="true"
     inkscape:window-width="1366"
     inkscape:window-height="740"
     inkscape:window-x="0"
     inkscape:window-y="28"
     inkscape:window-maximized="0"
     inkscape:pagecheckerboard="0"
     inkscape:snap-bbox="true"
     inkscape:bbox-nodes="true"
     inkscape:snap-midpoints="true">
    <sodipodi:guide
       position="-5.0862631e-06,52.916663"
       orientation="0,-1"
       id="guide1048" />
    <sodipodi:guide
       position="75.848259,211.66667"
       orientation="0,-1"
       id="guide144" />
    <sodipodi:guide
       position="211.66667,269.38659"
       orientation="1,0"
       id="guide146" />
    <sodipodi:guide
       position="52.916667,269.38659"
       orientation="1,0"
       id="guide148" />
    <sodipodi:guide
       position="132.29166,211.66667"
       orientation="1,0"
       id="guide133" />
    <sodipodi:guide
       position="52.916666,132.29167"
       orientation="0,-1"
       id="guide135" />
  </sodipodi:namedview>
  <metadata
     id="metadata218">
    <rdf:RDF>
      <cc:Work
         rdf:about="">
        <dc:format>image/svg+xml</dc:format>
        <dc:type
           rdf:resource="http://purl.org/dc/dcmitype/StillImage" />
      </cc:Work>
    </rdf:RDF>
  </metadata>
  <g
     inkscape:label="Layer 1"
     inkscape:groupmode="layer"
     id="layer1">
    <path
       id="rect12-1-6-31-0-1-5-4-6"
       style="display:inline;fill:#000000;fill-opacity:0.979723;stroke:none;stroke-width:0.30297"
       d="m 67.850792,52.916665 c -8.273512,0 -14.934125,6.660717 -14.934125,14.934323 V 196.73237 c 0,8.2736 6.660613,14.9343 14.934125,14.9343 H 196.73237 c 8.27369,0 14.9343,-6.6607 14.9343,-14.9343 V 67.850988 c 0,-8.273606 -6.66061,-14.934323 -14.9343,-14.934323 z m 107.203228,26.45773 c 1.70621,0 3.1339,0.594063 4.28378,1.781111 1.18727,1.187049 1.78135,2.633338 1.78135,4.339731 v 71.224213 c 0,2.11447 -0.7239,4.00581 -2.17064,5.67514 -1.40935,1.63217 -3.20798,2.91191 -5.39679,3.83928 -2.18881,0.89032 -4.39631,1.5584 -6.62199,2.00354 -2.1888,0.44513 -4.22821,0.66723 -6.12015,0.66723 -1.89195,0 -3.95058,-0.2221 -6.17625,-0.66723 -2.18881,-0.44514 -4.37815,-1.11322 -6.56643,-2.00354 -2.1888,-0.92737 -4.00614,-2.20711 -5.45288,-3.83928 -1.44674,-1.66933 -2.17011,-3.56067 -2.17011,-5.67514 0,-2.11447 0.72337,-4.00674 2.17011,-5.67602 1.44674,-1.66934 3.26408,-2.94901 5.45288,-3.83933 2.18828,-0.89028 4.37762,-1.55835 6.56643,-2.00349 2.22567,-0.48228 4.2843,-0.72286 6.17625,-0.72286 4.41448,0 8.47565,0.83464 12.18528,2.50397 v -34.16556 l -48.85456,15.08017 v 45.07091 c 0,1.70643 -0.48207,3.26464 -1.44674,4.67431 -0.96414,1.44671 -2.20697,2.61448 -3.72797,3.50475 -1.48361,0.92742 -3.15295,1.70653 -5.0075,2.33718 -1.85526,0.63059 -3.6352,1.07568 -5.34193,1.33536 -1.70621,0.25966 -3.30129,0.3901 -4.78543,0.3901 -1.89159,0 -3.950575,-0.24151 -6.176247,-0.72374 -2.188807,-0.44514 -4.378144,-1.11322 -6.566422,-2.00349 -2.188807,-0.89033 -4.00614,-2.17005 -5.45288,-3.83933 -1.44674,-1.66928 -2.17011,-3.56067 -2.17011,-5.67514 0,-2.11442 0.72337,-3.9882 2.17011,-5.62039 1.44674,-1.66933 3.264073,-2.949 5.45288,-3.83933 2.188278,-0.92737 4.377615,-1.61305 6.566422,-2.05818 2.225672,-0.44519 4.284657,-0.66817 6.176247,-0.66817 4.48874,0 8.54992,0.81616 12.18546,2.44834 v -61.48645 c 0,-1.33544 0.38912,-2.540219 1.16858,-3.616019 0.8158,-1.075783 1.87377,-1.817871 3.17217,-2.225913 l 52.91661,-16.303406 c 0.4826,-0.148344 1.0758,-0.223327 1.78047,-0.223327 z" />
  </g>
</svg>
