<?xml version="1.0" encoding="UTF-8" standalone="no"?>
<svg
   width="1000"
   height="1000"
   viewBox="0 0 264.58333 264.58334"
   version="1.1"
   id="svg221"
   inkscape:version="1.1.1 (3bf5ae0d25, 2021-09-20, custom)"
   sodipodi:docname="packages.svg"
   xmlns:inkscape="http://www.inkscape.org/namespaces/inkscape"
   xmlns:sodipodi="http://sodipodi.sourceforge.net/DTD/sodipodi-0.dtd"
   xmlns="http://www.w3.org/2000/svg"
   xmlns:svg="http://www.w3.org/2000/svg"
   xmlns:rdf="http://www.w3.org/1999/02/22-rdf-syntax-ns#"
   xmlns:cc="http://creativecommons.org/ns#"
   xmlns:dc="http://purl.org/dc/elements/1.1/">
  <defs
     id="defs215" />
  <sodipodi:namedview
     id="base"
     pagecolor="#ffffff"
     bordercolor="#666666"
     borderopacity="1.0"
     inkscape:pageopacity="0.0"
     inkscape:pageshadow="2"
     inkscape:zoom="0.49497474"
     inkscape:cx="439.41636"
     inkscape:cy="502.04582"
     inkscape:document-units="mm"
     inkscape:current-layer="layer1"
     inkscape:document-rotation="0"
     showgrid="false"
     units="px"
     showguides="true"
     inkscape:guide-bbox="true"
     inkscape:window-width="1366"
     inkscape:window-height="740"
     inkscape:window-x="0"
     inkscape:window-y="28"
     inkscape:window-maximized="0"
     inkscape:pagecheckerboard="0"
     inkscape:snap-bbox="true"
     inkscape:bbox-nodes="true"
     inkscape:snap-midpoints="true">
    <sodipodi:guide
       position="-5.0862631e-06,52.916663"
       orientation="0,-1"
       id="guide1048" />
    <sodipodi:guide
       position="75.848259,211.66667"
       orientation="0,-1"
       id="guide144" />
    <sodipodi:guide
       position="211.66667,269.38659"
       orientation="1,0"
       id="guide146" />
    <sodipodi:guide
       position="52.916667,269.38659"
       orientation="1,0"
       id="guide148" />
    <sodipodi:guide
       position="132.29166,211.66667"
       orientation="1,0"
       id="guide133" />
    <sodipodi:guide
       position="52.916666,132.29167"
       orientation="0,-1"
       id="guide135" />
  </sodipodi:namedview>
  <metadata
     id="metadata218">
    <rdf:RDF>
      <cc:Work
         rdf:about="">
        <dc:format>image/svg+xml</dc:format>
        <dc:type
           rdf:resource="http://purl.org/dc/dcmitype/StillImage" />
      </cc:Work>
    </rdf:RDF>
  </metadata>
  <g
     inkscape:label="Layer 1"
     inkscape:groupmode="layer"
     id="layer1">
    <path
       id="rect12-1-6-31-0-1-0-3-9"
       style="display:inline;fill:#000000;fill-opacity:0.979723;stroke:none;stroke-width:0.302969"
       d="m 67.850792,52.916665 c -8.273512,0 -14.934125,6.660659 -14.934125,14.934214 V 196.73246 c 0,8.2735 6.660613,14.93421 14.934125,14.93421 H 196.73237 c 8.27369,-3e-5 14.9343,-6.66071 14.9343,-14.93421 V 67.850879 c 0,-8.273555 -6.66061,-14.934214 -14.9343,-14.934214 z m 64.441318,26.458503 c 1.28622,0 2.38812,0.331064 3.30693,0.993544 l 46.5772,23.352968 c 1.83744,0.99374 2.84815,2.56669 3.03213,4.71982 v 47.69945 c -0.18398,2.15308 -1.19469,3.72696 -3.03213,4.7207 l -46.5772,23.35297 c -0.91881,0.66248 -2.02071,0.99355 -3.30693,0.99355 -1.28623,0 -2.38954,-0.33107 -3.308,-0.99355 L 82.406563,160.86165 c -1.837265,-0.99374 -2.847796,-2.56762 -3.031593,-4.7207 V 108.4415 c 0.183797,-2.15313 1.194328,-3.72608 3.031593,-4.71982 L 128.98411,80.368712 c 0.91846,-0.66248 2.02177,-0.993544 3.308,-0.993544 z m 0,11.427611 -11.02465,5.465468 34.45136,18.136353 11.57551,-5.9631 z m -23.15172,11.428561 -11.850326,6.21016 35.002046,17.63956 11.57551,-5.71425 z m -17.913687,15.15391 v 35.52622 l 35.277027,18.13635 v -35.77507 z m 82.130807,0 -35.27844,17.8875 v 35.77507 l 35.27844,-18.13635 z" />
  </g>
</svg>
