<?xml version="1.0" encoding="UTF-8" standalone="no"?>
<svg
   width="1000"
   height="1000"
   viewBox="0 0 264.58333 264.58334"
   version="1.1"
   id="svg221"
   inkscape:version="1.1.1 (3bf5ae0d25, 2021-09-20, custom)"
   sodipodi:docname="refresh.svg"
   xmlns:inkscape="http://www.inkscape.org/namespaces/inkscape"
   xmlns:sodipodi="http://sodipodi.sourceforge.net/DTD/sodipodi-0.dtd"
   xmlns="http://www.w3.org/2000/svg"
   xmlns:svg="http://www.w3.org/2000/svg"
   xmlns:rdf="http://www.w3.org/1999/02/22-rdf-syntax-ns#"
   xmlns:cc="http://creativecommons.org/ns#"
   xmlns:dc="http://purl.org/dc/elements/1.1/">
  <defs
     id="defs215" />
  <sodipodi:namedview
     id="base"
     pagecolor="#ffffff"
     bordercolor="#666666"
     borderopacity="1.0"
     inkscape:pageopacity="0.0"
     inkscape:pageshadow="2"
     inkscape:zoom="0.69999999"
     inkscape:cx="439.28572"
     inkscape:cy="502.14286"
     inkscape:document-units="mm"
     inkscape:current-layer="layer1"
     inkscape:document-rotation="0"
     showgrid="false"
     units="px"
     showguides="true"
     inkscape:guide-bbox="true"
     inkscape:window-width="1366"
     inkscape:window-height="740"
     inkscape:window-x="0"
     inkscape:window-y="28"
     inkscape:window-maximized="0"
     inkscape:pagecheckerboard="0"
     inkscape:snap-bbox="true"
     inkscape:bbox-nodes="true"
     inkscape:snap-midpoints="true">
    <sodipodi:guide
       position="-5.0862631e-06,52.916663"
       orientation="0,-1"
       id="guide1048" />
    <sodipodi:guide
       position="75.848259,211.66667"
       orientation="0,-1"
       id="guide144" />
    <sodipodi:guide
       position="211.66667,269.38659"
       orientation="1,0"
       id="guide146" />
    <sodipodi:guide
       position="52.916667,269.38659"
       orientation="1,0"
       id="guide148" />
    <sodipodi:guide
       position="132.29166,211.66667"
       orientation="1,0"
       id="guide133" />
    <sodipodi:guide
       position="52.916666,132.29167"
       orientation="0,-1"
       id="guide135" />
  </sodipodi:namedview>
  <metadata
     id="metadata218">
    <rdf:RDF>
      <cc:Work
         rdf:about="">
        <dc:format>image/svg+xml</dc:format>
        <dc:type
           rdf:resource="http://purl.org/dc/dcmitype/StillImage" />
      </cc:Work>
    </rdf:RDF>
  </metadata>
  <g
     inkscape:label="Layer 1"
     inkscape:groupmode="layer"
     id="layer1">
    <path
       id="rect12-1-6-31-6-6-0-0-5"
       style="display:inline;fill:#000000;fill-opacity:0.979723;stroke:none;stroke-width:0.302969"
       d="m 67.850952,52.916665 c -8.273503,0 -14.934285,6.66082 -14.934285,14.934369 V 196.73248 c 0,8.27355 6.660782,14.93419 14.934285,14.93419 H 196.73238 c 8.27351,0 14.93429,-6.66064 14.93429,-14.93419 V 67.851034 c 0,-8.273549 -6.66078,-14.934369 -14.93429,-14.934369 z m 64.440188,26.457718 v 21.315967 c 12.06233,0.1658 22.05932,4.25504 29.99081,12.26895 7.93095,8.01408 12.06215,17.96897 12.39305,29.8659 -0.3309,12.06222 -4.4621,22.05945 -12.39305,29.9908 -7.93149,7.93136 -17.92848,12.06152 -29.99081,12.39207 -12.06215,-0.33055 -22.05827,-4.46071 -29.98975,-12.39207 -7.930958,-7.93135 -12.062153,-17.92858 -12.392528,-29.9908 h 10.657388 c 0.16581,9.08812 3.26354,16.60619 9.29462,22.55457 6.03108,5.94856 13.50765,9.00557 22.43027,9.17085 8.92279,-0.16581 16.4006,-3.22229 22.43168,-9.17085 6.03107,-5.94838 9.12863,-13.46645 9.29373,-22.55457 -0.1658,-8.92265 -3.26266,-16.35817 -9.29373,-22.30656 -6.03108,-5.94856 -13.50889,-9.08829 -22.43168,-9.41884 v 21.31596 l -26.51931,-26.52069 z" />
  </g>
</svg>
