<?xml version="1.0" encoding="UTF-8" standalone="no"?>
<svg
   width="1000"
   height="1000"
   viewBox="0 0 264.58333 264.58334"
   version="1.1"
   id="svg221"
   inkscape:version="1.1.1 (3bf5ae0d25, 2021-09-20, custom)"
   sodipodi:docname="reload.svg"
   xmlns:inkscape="http://www.inkscape.org/namespaces/inkscape"
   xmlns:sodipodi="http://sodipodi.sourceforge.net/DTD/sodipodi-0.dtd"
   xmlns="http://www.w3.org/2000/svg"
   xmlns:svg="http://www.w3.org/2000/svg"
   xmlns:rdf="http://www.w3.org/1999/02/22-rdf-syntax-ns#"
   xmlns:cc="http://creativecommons.org/ns#"
   xmlns:dc="http://purl.org/dc/elements/1.1/">
  <defs
     id="defs215" />
  <sodipodi:namedview
     id="base"
     pagecolor="#ffffff"
     bordercolor="#666666"
     borderopacity="1.0"
     inkscape:pageopacity="0.0"
     inkscape:pageshadow="2"
     inkscape:zoom="0.69999999"
     inkscape:cx="507.85715"
     inkscape:cy="449.28572"
     inkscape:document-units="mm"
     inkscape:current-layer="layer1"
     inkscape:document-rotation="0"
     showgrid="false"
     units="px"
     showguides="true"
     inkscape:guide-bbox="true"
     inkscape:window-width="1366"
     inkscape:window-height="740"
     inkscape:window-x="0"
     inkscape:window-y="28"
     inkscape:window-maximized="0"
     inkscape:pagecheckerboard="0"
     inkscape:snap-bbox="true"
     inkscape:bbox-nodes="true"
     inkscape:snap-midpoints="true">
    <sodipodi:guide
       position="-5.0862631e-06,52.916663"
       orientation="0,-1"
       id="guide1048" />
    <sodipodi:guide
       position="75.848259,211.66667"
       orientation="0,-1"
       id="guide144" />
    <sodipodi:guide
       position="211.66667,269.38659"
       orientation="1,0"
       id="guide146" />
    <sodipodi:guide
       position="52.916667,269.38659"
       orientation="1,0"
       id="guide148" />
    <sodipodi:guide
       position="132.29166,211.66667"
       orientation="1,0"
       id="guide133" />
    <sodipodi:guide
       position="52.916666,132.29167"
       orientation="0,-1"
       id="guide135" />
  </sodipodi:namedview>
  <metadata
     id="metadata218">
    <rdf:RDF>
      <cc:Work
         rdf:about="">
        <dc:format>image/svg+xml</dc:format>
        <dc:type
           rdf:resource="http://purl.org/dc/dcmitype/StillImage" />
      </cc:Work>
    </rdf:RDF>
  </metadata>
  <g
     inkscape:label="Layer 1"
     inkscape:groupmode="layer"
     id="layer1">
    <path
       id="rect12-1-6-31-9-4-3-4-3-8-2"
       style="display:inline;fill:#000000;fill-opacity:0.979723;stroke:none;stroke-width:0.302969"
       d="m 67.850968,52.916665 c -8.273688,0 -14.934301,6.660614 -14.934301,14.934126 V 196.73254 c 0,8.27352 6.660613,14.93413 14.934301,14.93413 H 196.73254 c 8.27352,0 14.93413,-6.66061 14.93413,-14.93413 V 67.850791 c 0,-8.273512 -6.66061,-14.934126 -14.93413,-14.934126 z m 57.092612,35.488703 c 11.64501,0 21.92018,4.281659 30.82516,12.844272 4.28148,4.45258 7.4914,9.3329 9.63223,14.64167 2.14066,5.30878 3.21134,10.78864 3.21134,16.43996 h 12.6035 a 2.3497575,2.3497578 0 0 1 1.66881,4.00349 l -19.04063,19.22196 a 5.6083376,5.6083383 0 0 1 -7.95019,0.0194 l -19.25953,-19.25935 a 2.3340907,2.3340909 0 0 1 1.65029,-3.98426 h 19.28193 c 0,-4.28131 -0.77046,-8.43421 -2.31157,-12.45851 -1.54146,-4.02449 -3.93894,-7.66427 -7.1926,-10.91811 -6.67896,-6.33624 -14.38503,-9.504356 -23.11874,-9.504356 -8.73371,0 -16.52568,3.168116 -23.37591,9.504356 -6.336238,6.85005 -9.504179,14.64273 -9.504709,23.37662 0,8.7337 3.168471,16.43977 9.504709,23.11873 5.30877,5.13749 11.30245,8.21989 17.98141,9.24735 4.83817,0.74436 9.58585,0.45491 14.24445,-0.86766 2.9905,-0.84931 7.0335,-0.1464 9.1985,2.08915 l 0.1217,0.12524 c 2.16553,2.2352 1.7496,5.35234 -1.1056,6.58565 -7.08113,3.05858 -14.52438,4.13843 -22.33046,3.24043 -9.67545,-1.11318 -18.28092,-5.26502 -25.81572,-12.45762 -8.562436,-9.07626 -12.843919,-19.43769 -12.843919,-31.08268 0,-11.64519 4.281483,-22.00538 12.843919,-31.08164 9.07643,-8.562609 19.43697,-12.844269 31.08198,-12.844269 z" />
  </g>
</svg>
