<?xml version="1.0" encoding="UTF-8" standalone="no"?>
<svg
   width="1000"
   height="1000"
   viewBox="0 0 264.58333 264.58334"
   version="1.1"
   id="svg221"
   inkscape:version="1.1.1 (3bf5ae0d25, 2021-09-20, custom)"
   sodipodi:docname="settings.svg"
   xmlns:inkscape="http://www.inkscape.org/namespaces/inkscape"
   xmlns:sodipodi="http://sodipodi.sourceforge.net/DTD/sodipodi-0.dtd"
   xmlns="http://www.w3.org/2000/svg"
   xmlns:svg="http://www.w3.org/2000/svg"
   xmlns:rdf="http://www.w3.org/1999/02/22-rdf-syntax-ns#"
   xmlns:cc="http://creativecommons.org/ns#"
   xmlns:dc="http://purl.org/dc/elements/1.1/">
  <defs
     id="defs215" />
  <sodipodi:namedview
     id="base"
     pagecolor="#ffffff"
     bordercolor="#666666"
     borderopacity="1.0"
     inkscape:pageopacity="0.0"
     inkscape:pageshadow="2"
     inkscape:zoom="0.69999999"
     inkscape:cx="507.85715"
     inkscape:cy="449.28572"
     inkscape:document-units="mm"
     inkscape:current-layer="layer1"
     inkscape:document-rotation="0"
     showgrid="false"
     units="px"
     showguides="true"
     inkscape:guide-bbox="true"
     inkscape:window-width="1366"
     inkscape:window-height="740"
     inkscape:window-x="0"
     inkscape:window-y="28"
     inkscape:window-maximized="0"
     inkscape:pagecheckerboard="0"
     inkscape:snap-bbox="true"
     inkscape:bbox-nodes="true"
     inkscape:snap-midpoints="true">
    <sodipodi:guide
       position="-5.0862631e-06,52.916663"
       orientation="0,-1"
       id="guide1048" />
    <sodipodi:guide
       position="75.848259,211.66667"
       orientation="0,-1"
       id="guide144" />
    <sodipodi:guide
       position="211.66667,269.38659"
       orientation="1,0"
       id="guide146" />
    <sodipodi:guide
       position="52.916667,269.38659"
       orientation="1,0"
       id="guide148" />
    <sodipodi:guide
       position="132.29166,211.66667"
       orientation="1,0"
       id="guide133" />
    <sodipodi:guide
       position="52.916666,132.29167"
       orientation="0,-1"
       id="guide135" />
  </sodipodi:namedview>
  <metadata
     id="metadata218">
    <rdf:RDF>
      <cc:Work
         rdf:about="">
        <dc:format>image/svg+xml</dc:format>
        <dc:type
           rdf:resource="http://purl.org/dc/dcmitype/StillImage" />
      </cc:Work>
    </rdf:RDF>
  </metadata>
  <g
     inkscape:label="Layer 1"
     inkscape:groupmode="layer"
     id="layer1">
    <path
       id="rect12-1-6-31-0-0-9-4-9-9-1"
       style="display:inline;fill:#000000;fill-opacity:0.979723;stroke:none;stroke-width:0.30297"
       d="m 67.851033,52.916665 c -8.273547,0 -14.934366,6.660644 -14.934366,14.934369 V 196.7323 c 0,8.27355 6.660819,14.93437 14.934366,14.93437 H 196.73229 c 8.27354,0 14.93418,-6.66082 14.93418,-14.93437 V 67.851034 c 0,-8.273725 -6.66064,-14.934369 -14.93418,-14.934369 z m 58.121027,26.457718 h 12.63814 l 5.02075,15.119402 7.55917,2.53948 13.87902,-6.319683 8.79954,8.799895 -6.3195,13.878853 2.5393,7.56006 15.11958,5.01969 v 11.33936 l -15.11958,6.31951 -2.5393,7.55917 6.3195,13.87886 -8.79954,8.79972 -13.87902,-6.31863 -7.55917,2.53948 -5.02075,15.11834 h -12.63814 l -5.01969,-15.11834 -7.56005,-2.53948 -13.878675,6.31863 -8.80007,-8.79972 6.319505,-13.87886 -2.539302,-7.55917 -15.119575,-5.01969 v -12.63918 l 15.119575,-5.01969 2.539302,-7.56006 -6.319505,-13.878853 8.80007,-8.799895 13.878675,6.319683 7.56005,-2.53948 z m 6.31951,30.238627 c -5.86636,0 -11.12312,2.3227 -15.76922,6.96862 -4.60676,4.60659 -6.91041,9.84342 -6.91041,15.70995 0,5.86653 2.30365,11.12241 6.91041,15.76833 4.6461,4.60659 9.90286,6.91024 15.76922,6.91024 5.86636,0 11.10284,-2.30365 15.70907,-6.91024 4.64592,-4.64592 6.96968,-9.9018 6.96968,-15.76833 0,-5.86653 -2.32376,-11.10336 -6.96968,-15.70995 -4.60623,-4.64592 -9.84271,-6.96862 -15.70907,-6.96862 z" />
  </g>
</svg>
