<?xml version="1.0" encoding="UTF-8" standalone="no"?>
<svg
   width="1000"
   height="1000"
   viewBox="0 0 264.58333 264.58334"
   version="1.1"
   id="svg221"
   inkscape:version="1.1.1 (3bf5ae0d25, 2021-09-20, custom)"
   sodipodi:docname="sun.svg"
   xmlns:inkscape="http://www.inkscape.org/namespaces/inkscape"
   xmlns:sodipodi="http://sodipodi.sourceforge.net/DTD/sodipodi-0.dtd"
   xmlns="http://www.w3.org/2000/svg"
   xmlns:svg="http://www.w3.org/2000/svg"
   xmlns:rdf="http://www.w3.org/1999/02/22-rdf-syntax-ns#"
   xmlns:cc="http://creativecommons.org/ns#"
   xmlns:dc="http://purl.org/dc/elements/1.1/">
  <defs
     id="defs215" />
  <sodipodi:namedview
     id="base"
     pagecolor="#ffffff"
     bordercolor="#666666"
     borderopacity="1.0"
     inkscape:pageopacity="0.0"
     inkscape:pageshadow="2"
     inkscape:zoom="0.49497474"
     inkscape:cx="439.41636"
     inkscape:cy="502.04582"
     inkscape:document-units="mm"
     inkscape:current-layer="layer1"
     inkscape:document-rotation="0"
     showgrid="false"
     units="px"
     showguides="true"
     inkscape:guide-bbox="true"
     inkscape:window-width="1366"
     inkscape:window-height="740"
     inkscape:window-x="0"
     inkscape:window-y="28"
     inkscape:window-maximized="0"
     inkscape:pagecheckerboard="0"
     inkscape:snap-bbox="true"
     inkscape:bbox-nodes="true"
     inkscape:snap-midpoints="true">
    <sodipodi:guide
       position="-5.0862631e-06,52.916663"
       orientation="0,-1"
       id="guide1048" />
    <sodipodi:guide
       position="75.848259,211.66667"
       orientation="0,-1"
       id="guide144" />
    <sodipodi:guide
       position="211.66667,269.38659"
       orientation="1,0"
       id="guide146" />
    <sodipodi:guide
       position="52.916667,269.38659"
       orientation="1,0"
       id="guide148" />
    <sodipodi:guide
       position="132.29166,211.66667"
       orientation="1,0"
       id="guide133" />
    <sodipodi:guide
       position="52.916666,132.29167"
       orientation="0,-1"
       id="guide135" />
  </sodipodi:namedview>
  <metadata
     id="metadata218">
    <rdf:RDF>
      <cc:Work
         rdf:about="">
        <dc:format>image/svg+xml</dc:format>
        <dc:type
           rdf:resource="http://purl.org/dc/dcmitype/StillImage" />
      </cc:Work>
    </rdf:RDF>
  </metadata>
  <g
     inkscape:label="Layer 1"
     inkscape:groupmode="layer"
     id="layer1">
    <path
       id="rect12-1-6-31-0-0-9-1-2-7"
       style="display:inline;fill:#000000;fill-opacity:0.979723;stroke:none;stroke-width:0.30297"
       d="m 67.851051,52.916665 c -8.273557,0 -14.934384,6.660715 -14.934384,14.934318 V 196.73235 c 0,8.27362 6.660827,14.93432 14.934384,14.93432 H 196.73246 c 8.27356,0 14.93421,-6.6607 14.93421,-14.93432 V 67.850983 c 0,-8.273603 -6.66065,-14.934318 -14.93421,-14.934318 z M 127.56266,79.71256 h 9.45714 v 14.185968 h -9.45714 z m -29.048205,11.934532 8.557365,8.556428 -6.75537,6.98132 -8.557367,-8.782506 z m 67.553545,0 6.75555,6.755242 -8.55649,8.782506 -6.75537,-6.98132 z m -33.77633,11.709338 c 8.10652,0.30027 14.89946,3.15217 20.37883,8.55642 5.47954,5.40431 8.29331,12.16031 8.4436,20.2667 -0.14994,8.25652 -2.96406,15.08664 -8.4436,20.49095 -5.47937,5.40426 -12.27231,8.18116 -20.37883,8.33125 -8.10652,-0.15011 -14.89929,-2.92699 -20.37883,-8.33125 -5.47937,-5.40431 -8.29402,-12.23443 -8.44431,-20.49095 0.14994,-8.10639 2.96494,-14.86239 8.44431,-20.2667 5.47954,-5.40425 12.27231,-8.25615 20.37883,-8.55642 z M 79.374235,127.4506 H 93.78633 v 9.68214 H 79.374235 Z m 91.422775,0 h 14.41121 v 9.68214 h -14.41121 z m -70.48056,29.94885 6.75537,6.75524 -8.557365,8.78157 -6.755372,-6.75526 z m 63.95061,0 8.55649,8.78155 -6.75555,6.75526 -8.55631,-8.78157 z m -36.7044,13.28538 h 9.45714 v 14.18595 h -9.45714 z" />
  </g>
</svg>
