<?xml version="1.0" encoding="UTF-8" standalone="no"?>
<svg
   width="1000"
   height="1000"
   viewBox="0 0 264.58333 264.58334"
   version="1.1"
   id="svg221"
   inkscape:version="1.1.1 (3bf5ae0d25, 2021-09-20, custom)"
   sodipodi:docname="volom zero.svg"
   xmlns:inkscape="http://www.inkscape.org/namespaces/inkscape"
   xmlns:sodipodi="http://sodipodi.sourceforge.net/DTD/sodipodi-0.dtd"
   xmlns="http://www.w3.org/2000/svg"
   xmlns:svg="http://www.w3.org/2000/svg"
   xmlns:rdf="http://www.w3.org/1999/02/22-rdf-syntax-ns#"
   xmlns:cc="http://creativecommons.org/ns#"
   xmlns:dc="http://purl.org/dc/elements/1.1/">
  <defs
     id="defs215" />
  <sodipodi:namedview
     id="base"
     pagecolor="#ffffff"
     bordercolor="#666666"
     borderopacity="1.0"
     inkscape:pageopacity="0.0"
     inkscape:pageshadow="2"
     inkscape:zoom="0.49497474"
     inkscape:cx="439.41636"
     inkscape:cy="502.04582"
     inkscape:document-units="mm"
     inkscape:current-layer="layer1"
     inkscape:document-rotation="0"
     showgrid="false"
     units="px"
     showguides="true"
     inkscape:guide-bbox="true"
     inkscape:window-width="1366"
     inkscape:window-height="740"
     inkscape:window-x="0"
     inkscape:window-y="28"
     inkscape:window-maximized="0"
     inkscape:pagecheckerboard="0"
     inkscape:snap-bbox="true"
     inkscape:bbox-nodes="true"
     inkscape:snap-midpoints="true">
    <sodipodi:guide
       position="-5.0862631e-06,52.916663"
       orientation="0,-1"
       id="guide1048" />
    <sodipodi:guide
       position="75.848259,211.66667"
       orientation="0,-1"
       id="guide144" />
    <sodipodi:guide
       position="211.66667,269.38659"
       orientation="1,0"
       id="guide146" />
    <sodipodi:guide
       position="52.916667,269.38659"
       orientation="1,0"
       id="guide148" />
    <sodipodi:guide
       position="132.29166,211.66667"
       orientation="1,0"
       id="guide133" />
    <sodipodi:guide
       position="52.916666,132.29167"
       orientation="0,-1"
       id="guide135" />
  </sodipodi:namedview>
  <metadata
     id="metadata218">
    <rdf:RDF>
      <cc:Work
         rdf:about="">
        <dc:format>image/svg+xml</dc:format>
        <dc:type
           rdf:resource="http://purl.org/dc/dcmitype/StillImage" />
      </cc:Work>
    </rdf:RDF>
  </metadata>
  <g
     inkscape:label="Layer 1"
     inkscape:groupmode="layer"
     id="layer1">
    <path
       id="rect12-1-6-31-9-8-8-0-4-8-9"
       style="display:inline;fill:#000000;fill-opacity:0.979723;stroke:none;stroke-width:0.30297"
       d="m 67.850842,52.916665 c -8.27354,0 -14.934175,6.66075 -14.934175,14.934318 V 196.73235 c 0,8.27362 6.660635,14.93432 14.934175,14.93432 H 196.73249 c 8.27354,0 14.93418,-6.6607 14.93418,-14.93432 V 67.850983 c 0,-8.273568 -6.66064,-14.934318 -14.93418,-14.934318 z m 56.316338,40.702956 c 1.11301,0 2.05864,0.408042 2.83757,1.224143 0.81615,0.816172 1.22414,1.78037 1.22414,2.893212 V 166.8455 c 0,1.11282 -0.40799,2.07792 -1.22414,2.89407 -0.77893,0.81616 -1.72456,1.2242 -2.83757,1.2242 -1.14988,0 -2.11421,-0.40804 -2.89296,-1.2242 L 100.12955,148.59511 H 83.436245 c -1.113016,0 -2.077336,-0.40804 -2.893137,-1.2242 -0.779288,-0.81606 -1.168579,-1.7812 -1.168579,-2.89404 v -24.37129 c 0,-1.11284 0.389291,-2.07698 1.168579,-2.89316 0.815801,-0.81615 1.780121,-1.22414 2.893137,-1.22414 h 16.693305 l 21.14467,-21.144516 c 0.77875,-0.816101 1.74308,-1.224143 2.89296,-1.224143 z" />
  </g>
</svg>
