<?xml version="1.0" encoding="UTF-8" standalone="no"?>
<svg
   width="1000"
   height="1000"
   viewBox="0 0 264.58333 264.58334"
   version="1.1"
   id="svg221"
   inkscape:version="1.1.1 (3bf5ae0d25, 2021-09-20, custom)"
   sodipodi:docname="volom up.svg"
   xmlns:inkscape="http://www.inkscape.org/namespaces/inkscape"
   xmlns:sodipodi="http://sodipodi.sourceforge.net/DTD/sodipodi-0.dtd"
   xmlns="http://www.w3.org/2000/svg"
   xmlns:svg="http://www.w3.org/2000/svg"
   xmlns:rdf="http://www.w3.org/1999/02/22-rdf-syntax-ns#"
   xmlns:cc="http://creativecommons.org/ns#"
   xmlns:dc="http://purl.org/dc/elements/1.1/">
  <defs
     id="defs215" />
  <sodipodi:namedview
     id="base"
     pagecolor="#ffffff"
     bordercolor="#666666"
     borderopacity="1.0"
     inkscape:pageopacity="0.0"
     inkscape:pageshadow="2"
     inkscape:zoom="0.49497474"
     inkscape:cx="439.41636"
     inkscape:cy="502.04582"
     inkscape:document-units="mm"
     inkscape:current-layer="layer1"
     inkscape:document-rotation="0"
     showgrid="false"
     units="px"
     showguides="true"
     inkscape:guide-bbox="true"
     inkscape:window-width="1366"
     inkscape:window-height="740"
     inkscape:window-x="0"
     inkscape:window-y="28"
     inkscape:window-maximized="0"
     inkscape:pagecheckerboard="0"
     inkscape:snap-bbox="true"
     inkscape:bbox-nodes="true"
     inkscape:snap-midpoints="true">
    <sodipodi:guide
       position="-5.0862631e-06,52.916663"
       orientation="0,-1"
       id="guide1048" />
    <sodipodi:guide
       position="75.848259,211.66667"
       orientation="0,-1"
       id="guide144" />
    <sodipodi:guide
       position="211.66667,269.38659"
       orientation="1,0"
       id="guide146" />
    <sodipodi:guide
       position="52.916667,269.38659"
       orientation="1,0"
       id="guide148" />
    <sodipodi:guide
       position="132.29166,211.66667"
       orientation="1,0"
       id="guide133" />
    <sodipodi:guide
       position="52.916666,132.29167"
       orientation="0,-1"
       id="guide135" />
  </sodipodi:namedview>
  <metadata
     id="metadata218">
    <rdf:RDF>
      <cc:Work
         rdf:about="">
        <dc:format>image/svg+xml</dc:format>
        <dc:type
           rdf:resource="http://purl.org/dc/dcmitype/StillImage" />
      </cc:Work>
    </rdf:RDF>
  </metadata>
  <g
     inkscape:label="Layer 1"
     inkscape:groupmode="layer"
     id="layer1">
    <path
       id="rect12-1-6-31-0-1-5-1-0"
       style="display:inline;fill:#000000;fill-opacity:0.979723;stroke:none;stroke-width:0.302969"
       d="m 67.850968,52.916665 c -8.273688,0 -14.934301,6.660675 -14.934301,14.934228 V 196.73239 c 0,8.2735 6.660613,14.93428 14.934301,14.93428 H 196.73254 c 8.27352,0 14.93413,-6.66078 14.93413,-14.93428 V 67.850893 c 0,-8.273553 -6.66061,-14.934228 -14.93413,-14.934228 z m 56.014172,40.690858 c 1.11301,0 2.05845,0.407987 2.83738,1.224136 0.81633,0.816167 1.22414,1.78036 1.22414,2.893141 v 69.10908 c 0,1.11283 -0.40781,2.07697 -1.22414,2.89314 -0.77893,0.81615 -1.72437,1.22413 -2.83738,1.22413 -1.15006,0 -2.1142,-0.40798 -2.89313,-1.22413 L 99.827415,148.58268 H 83.134166 c -1.113013,0 -2.077153,-0.40804 -2.89348,-1.22419 -0.778932,-0.81617 -1.168046,-1.7803 -1.168046,-2.89314 v -24.37202 c 0,-1.11284 0.389114,-2.07698 1.168046,-2.89315 0.816327,-0.81614 1.780467,-1.22413 2.89348,-1.22413 H 99.827415 L 120.97201,94.831659 c 0.77893,-0.816149 1.74307,-1.224136 2.89313,-1.224136 z m 34.29402,12.802167 h 0.0194 a 5.5361386,5.5361312 0 0 1 5.53631,5.53655 v 14.78931 h 14.78914 a 5.5361446,5.5361372 0 0 1 5.53684,5.53648 v 0.0192 a 5.5362104,5.536203 0 0 1 -5.53684,5.53647 h -14.78914 v 14.78932 a 5.536182,5.5361746 0 0 1 -5.53631,5.5356 h -0.0194 a 5.5362412,5.5362339 0 0 1 -5.53684,-5.5356 V 137.8277 h -14.78913 a 5.5362347,5.5362273 0 0 1 -5.53597,-5.53647 v -0.0192 a 5.5361917,5.5361843 0 0 1 5.53597,-5.53648 h 14.78913 v -14.78931 a 5.5362202,5.5362129 0 0 1 5.53684,-5.53655 z" />
  </g>
</svg>
