<?xml version="1.0" encoding="UTF-8" standalone="no"?>
<svg
   xmlns:dc="http://purl.org/dc/elements/1.1/"
   xmlns:cc="http://creativecommons.org/ns#"
   xmlns:rdf="http://www.w3.org/1999/02/22-rdf-syntax-ns#"
   xmlns:svg="http://www.w3.org/2000/svg"
   xmlns="http://www.w3.org/2000/svg"
   xmlns:sodipodi="http://sodipodi.sourceforge.net/DTD/sodipodi-0.dtd"
   xmlns:inkscape="http://www.inkscape.org/namespaces/inkscape"
   width="90.000214mm"
   height="89.99968mm"
   viewBox="0 0 90.000214 89.99968"
   version="1.1"
   id="svg229"
   inkscape:version="1.0.2 (e86c870879, 2021-01-15, custom)"
   sodipodi:docname="verticalcenterdmaster.svg">
  <defs
     id="defs223" />
  <sodipodi:namedview
     id="base"
     pagecolor="#ffffff"
     bordercolor="#666666"
     borderopacity="1.0"
     inkscape:pageopacity="0.0"
     inkscape:pageshadow="2"
     inkscape:zoom="0.35"
     inkscape:cx="258.21916"
     inkscape:cy="307.22101"
     inkscape:document-units="mm"
     inkscape:current-layer="layer1"
     inkscape:document-rotation="0"
     showgrid="false"
     fit-margin-top="0"
     fit-margin-left="0"
     fit-margin-right="0"
     fit-margin-bottom="0"
     inkscape:window-width="679"
     inkscape:window-height="738"
     inkscape:window-x="683"
     inkscape:window-y="26"
     inkscape:window-maximized="0"
     showguides="true"
     inkscape:guide-bbox="true"
     inkscape:snap-bbox="true"
     inkscape:snap-bbox-midpoints="true"
     inkscape:snap-bbox-edge-midpoints="true">
    <sodipodi:guide
       position="45.000106,89.999677"
       orientation="1,0"
       id="guide509" />
    <sodipodi:guide
       position="-7.5199105e-15,44.999837"
       orientation="0,-1"
       id="guide511" />
  </sodipodi:namedview>
  <metadata
     id="metadata226">
    <rdf:RDF>
      <cc:Work
         rdf:about="">
        <dc:format>image/svg+xml</dc:format>
        <dc:type
           rdf:resource="http://purl.org/dc/dcmitype/StillImage" />
        <dc:title></dc:title>
      </cc:Work>
    </rdf:RDF>
  </metadata>
  <g
     inkscape:label="Layer 1"
     inkscape:groupmode="layer"
     id="layer1"
     transform="translate(-37.512846,-66.881107)">
    <path
       id="rect3563-9"
       style="display:inline;fill:#000000;fill-opacity:1;stroke:none;stroke-width:0.171762"
       d="m 37.512803,148.41441 c 1e-4,4.69047 3.7762,8.46658 8.4667,8.46659 l 34.6584,-1e-5 -10e-5,-20.62498 -43.1249,-3e-5 z m 1e-4,-15.90813 H 127.5131 L 127.513,91.256104 H 37.512903 Z m 0,-45.000286 h 43.125 l -10e-5,-20.62508 h -34.6583 c -4.6905,-1e-5 -8.4667,3.7761 -8.4667,8.4666 z m 46.8752,69.374986 H 119.0464 c 4.6905,1e-5 8.4667,-3.7761 8.4667,-8.4666 v -12.15839 l -43.125097,1e-5 z m -1e-4,-69.374966 43.124997,-2e-5 10e-5,-12.15851 c -10e-5,-4.69047 -3.7762,-8.46658 -8.4667,-8.46659 l -34.658397,1e-5 z" />
  </g>
</svg>
