<?xml version="1.0" encoding="UTF-8" standalone="no"?>
<svg
   xmlns:dc="http://purl.org/dc/elements/1.1/"
   xmlns:cc="http://creativecommons.org/ns#"
   xmlns:rdf="http://www.w3.org/1999/02/22-rdf-syntax-ns#"
   xmlns:svg="http://www.w3.org/2000/svg"
   xmlns="http://www.w3.org/2000/svg"
   xmlns:sodipodi="http://sodipodi.sourceforge.net/DTD/sodipodi-0.dtd"
   xmlns:inkscape="http://www.inkscape.org/namespaces/inkscape"
   width="90.000214mm"
   height="89.99968mm"
   viewBox="0 0 90.000214 89.99968"
   version="1.1"
   id="svg229"
   inkscape:version="1.0.2 (e86c870879, 2021-01-15, custom)"
   sodipodi:docname="deck.svg">
  <defs
     id="defs223" />
  <sodipodi:namedview
     id="base"
     pagecolor="#ffffff"
     bordercolor="#666666"
     borderopacity="1.0"
     inkscape:pageopacity="0.0"
     inkscape:pageshadow="2"
     inkscape:zoom="0.35"
     inkscape:cx="258.21916"
     inkscape:cy="307.22101"
     inkscape:document-units="mm"
     inkscape:current-layer="layer1"
     inkscape:document-rotation="0"
     showgrid="false"
     fit-margin-top="0"
     fit-margin-left="0"
     fit-margin-right="0"
     fit-margin-bottom="0"
     inkscape:window-width="679"
     inkscape:window-height="738"
     inkscape:window-x="683"
     inkscape:window-y="26"
     inkscape:window-maximized="0"
     showguides="true"
     inkscape:guide-bbox="true"
     inkscape:snap-bbox="true"
     inkscape:snap-bbox-midpoints="true"
     inkscape:snap-bbox-edge-midpoints="true">
    <sodipodi:guide
       position="45.000106,89.999677"
       orientation="1,0"
       id="guide509" />
    <sodipodi:guide
       position="-7.5199105e-15,44.999837"
       orientation="0,-1"
       id="guide511" />
  </sodipodi:namedview>
  <metadata
     id="metadata226">
    <rdf:RDF>
      <cc:Work
         rdf:about="">
        <dc:format>image/svg+xml</dc:format>
        <dc:type
           rdf:resource="http://purl.org/dc/dcmitype/StillImage" />
        <dc:title></dc:title>
      </cc:Work>
    </rdf:RDF>
  </metadata>
  <g
     inkscape:label="Layer 1"
     inkscape:groupmode="layer"
     id="layer1"
     transform="translate(-37.512846,-66.881107)">
    <path
       id="rect12-1-6-03"
       style="display:inline;fill:#000000;fill-opacity:1;stroke:none;stroke-width:0.171762"
       d="m 45.979524,66.880853 c -4.690533,0 -8.466666,3.776133 -8.466666,8.466667 v 73.06685 c 0,4.69054 3.776133,8.46667 8.466666,8.46667 H 88.137679 V 66.880853 Z m 45.908305,0 v 90.000187 h 27.158551 c 4.69053,0 8.46667,-3.77613 8.46667,-8.46667 V 75.34752 c 0,-4.690534 -3.77614,-8.466667 -8.46667,-8.466667 z m 7.79745,29.569781 h 6.263191 c 4.7129,0 8.18555,1.25402 10.41797,3.762026 2.23243,2.50804 3.34862,6.40789 3.34862,11.69956 0,5.25031 -1.11619,9.1295 -3.34862,11.63754 -2.23242,2.50801 -5.70507,3.76203 -10.41797,3.76203 h -6.263191 z m 4.196141,3.4313 v 23.998556 h 1.98437 c 3.52777,0 5.98067,-0.86818 7.35873,-2.60451 1.39181,-1.72254 2.08772,-4.85759 2.08772,-9.40512 0,-4.56128 -0.68903,-7.69633 -2.06706,-9.40509 -0.70281,-0.88196 -1.68122,-1.52963 -2.93523,-1.94304 -1.24024,-0.4272 -2.72161,-0.640796 -4.44416,-0.640796 z" />
  </g>
</svg>
