<?xml version="1.0" encoding="UTF-8" standalone="no"?>
<svg
   xmlns:dc="http://purl.org/dc/elements/1.1/"
   xmlns:cc="http://creativecommons.org/ns#"
   xmlns:rdf="http://www.w3.org/1999/02/22-rdf-syntax-ns#"
   xmlns:svg="http://www.w3.org/2000/svg"
   xmlns="http://www.w3.org/2000/svg"
   xmlns:sodipodi="http://sodipodi.sourceforge.net/DTD/sodipodi-0.dtd"
   xmlns:inkscape="http://www.inkscape.org/namespaces/inkscape"
   width="1000"
   height="1000"
   viewBox="0 0 264.58333 264.58334"
   version="1.1"
   id="svg221"
   inkscape:version="1.0.2 (e86c870879, 2021-01-15, custom)"
   sodipodi:docname="deck.svg">
  <defs
     id="defs215" />
  <sodipodi:namedview
     id="base"
     pagecolor="#ffffff"
     bordercolor="#666666"
     borderopacity="1.0"
     inkscape:pageopacity="0.0"
     inkscape:pageshadow="2"
     inkscape:zoom="0.35"
     inkscape:cx="654.01758"
     inkscape:cy="567.46867"
     inkscape:document-units="mm"
     inkscape:current-layer="layer1"
     inkscape:document-rotation="0"
     showgrid="false"
     units="px"
     showguides="true"
     inkscape:guide-bbox="true"
     inkscape:window-width="610"
     inkscape:window-height="738"
     inkscape:window-x="751"
     inkscape:window-y="26"
     inkscape:window-maximized="0"
     inkscape:snap-bbox="true"
     inkscape:snap-bbox-midpoints="true"
     inkscape:snap-global="true"
     inkscape:snap-nodes="true"
     inkscape:object-nodes="false"
     inkscape:snap-intersection-paths="false"
     inkscape:snap-smooth-nodes="true">
    <sodipodi:guide
       position="-5.0862631e-06,52.916663"
       orientation="0,-1"
       id="guide1048" />
    <sodipodi:guide
       position="-5.0862631e-06,211.66667"
       orientation="0,-1"
       id="guide144" />
    <sodipodi:guide
       position="211.66667,269.38659"
       orientation="1,0"
       id="guide146" />
    <sodipodi:guide
       position="52.916667,269.38659"
       orientation="1,0"
       id="guide148" />
    <sodipodi:guide
       position="132.29166,132.29167"
       orientation="1,0"
       id="guide161" />
    <sodipodi:guide
       position="132.29166,132.29167"
       orientation="0,-1"
       id="guide163" />
  </sodipodi:namedview>
  <metadata
     id="metadata218">
    <rdf:RDF>
      <cc:Work
         rdf:about="">
        <dc:format>image/svg+xml</dc:format>
        <dc:type
           rdf:resource="http://purl.org/dc/dcmitype/StillImage" />
        <dc:title></dc:title>
      </cc:Work>
    </rdf:RDF>
  </metadata>
  <g
     inkscape:label="Layer 1"
     inkscape:groupmode="layer"
     id="layer1">
    <path
       id="rect12-3-9-9"
       style="display:inline;opacity:0.999;fill:#000000;fill-opacity:1;stroke:none;stroke-width:0.30297"
       d="m 67.851026,52.916665 c -8.273725,0 -14.934368,6.660643 -14.934368,14.934368 V 196.73229 c 0,8.27355 6.660643,14.93437 14.934368,14.93437 H 138.90565 V 52.916665 Z m 84.284364,0 V 211.66666 h 44.5969 c 8.27355,0 14.93437,-6.66082 14.93437,-14.93437 V 67.851033 c 0,-8.273725 -6.66082,-14.934368 -14.93437,-14.934368 z m 13.60898,52.221865 h 16.15657 c 4.11834,0 7.33127,0.85972 9.63933,2.57952 2.35339,1.71962 4.02785,4.52492 5.02339,8.41695 0.99555,3.89203 1.49314,9.27773 1.49314,16.15657 0,6.87884 -0.49759,12.26383 -1.49314,16.15587 -0.99554,3.89185 -2.67,6.69803 -5.02339,8.41783 -2.30806,1.71962 -5.52099,2.57952 -9.63933,2.57952 h -16.15657 z m 4.75175,4.34429 v 45.61767 h 11.40482 c 2.94164,0 5.2273,-0.70167 6.85643,-2.10468 1.62931,-1.40282 2.78325,-3.73381 3.462,-6.99225 0.72408,-3.25827 1.08568,-7.8287 1.08568,-13.71199 0,-5.88312 -0.3616,-10.45443 -1.08568,-13.71287 -0.67875,-3.25827 -1.83269,-5.58837 -3.462,-6.99137 -1.62913,-1.40283 -3.91479,-2.10451 -6.85643,-2.10451 z" />
  </g>
</svg>
