<?xml version="1.0" encoding="UTF-8" standalone="no"?>
<svg
   xmlns:dc="http://purl.org/dc/elements/1.1/"
   xmlns:cc="http://creativecommons.org/ns#"
   xmlns:rdf="http://www.w3.org/1999/02/22-rdf-syntax-ns#"
   xmlns:svg="http://www.w3.org/2000/svg"
   xmlns="http://www.w3.org/2000/svg"
   width="1000"
   height="1000"
   viewBox="0 0 264.58333 264.58334"
   version="1.1"
   id="svg221">
  <defs
     id="defs215" />
  <metadata
     id="metadata218">
    <rdf:RDF>
      <cc:Work
         rdf:about="">
        <dc:format>image/svg+xml</dc:format>
        <dc:type
           rdf:resource="http://purl.org/dc/dcmitype/StillImage" />
        <dc:title></dc:title>
      </cc:Work>
    </rdf:RDF>
  </metadata>
  <g
     id="layer1">
    <path
       id="rect12-1-6-936"
       style="display:inline;fill:#000000;fill-opacity:1;stroke:none;stroke-width:0.30297"
       d="m 67.850849,52.916665 c -8.273548,0 -14.934191,6.660643 -14.934191,14.934368 V 196.73229 c 0,8.27373 6.660643,14.93437 14.934191,14.93437 H 196.73229 c 8.27355,0 14.93437,-6.66064 14.93437,-14.93437 V 67.851033 c 0,-8.273725 -6.66082,-14.934368 -14.93437,-14.934368 z m 26.457718,26.457709 h 49.507413 c 8.27355,0 14.93419,6.660819 14.93419,14.934368 v 11.525288 h 7.98868 c 10.13463,0 18.46904,8.33458 18.46904,18.46904 v 42.43666 c 0,10.13463 -8.33441,18.46921 -18.46904,18.46921 h -42.43666 c -10.13464,0 -18.46922,-8.33458 -18.46922,-18.46921 v -7.98939 H 94.308567 c -8.273548,0 -14.934191,-6.66081 -14.934191,-14.93436 V 94.308742 c 0,-8.273549 6.660643,-14.934368 14.934191,-14.934368 z m 68.220923,37.797086 v 26.88882 c 0,1.27 -0.13229,2.5109 -0.37289,3.70717 v 0 c -0.24571,1.21127 -0.60925,2.37862 -1.07474,3.48281 -0.4669,1.10755 -1.03823,2.15831 -1.7018,3.14203 -0.66411,0.98478 -1.42011,1.89866 -2.2532,2.73192 -0.83503,0.83485 -1.75014,1.59103 -2.73192,2.2532 -0.98249,0.66269 -2.03377,1.23473 -3.14185,1.70181 -1.10879,0.46743 -2.27119,0.82938 -3.47576,1.07474 -1.20315,0.24465 -2.44881,0.37183 -3.71705,0.37183 h -26.88987 v 4.21041 c 0,4.04849 3.08293,7.1279 7.13178,7.1279 h 42.43666 c 4.04884,0 7.1316,-3.07941 7.1316,-7.1279 v -42.43666 c 0,-4.04867 -3.08276,-7.13178 -7.1316,-7.13178 z" />
  </g>
</svg>
