<?xml version="1.0" encoding="UTF-8" standalone="no"?>
<svg
   xmlns:dc="http://purl.org/dc/elements/1.1/"
   xmlns:cc="http://creativecommons.org/ns#"
   xmlns:rdf="http://www.w3.org/1999/02/22-rdf-syntax-ns#"
   xmlns:svg="http://www.w3.org/2000/svg"
   xmlns="http://www.w3.org/2000/svg"
   xmlns:sodipodi="http://sodipodi.sourceforge.net/DTD/sodipodi-0.dtd"
   xmlns:inkscape="http://www.inkscape.org/namespaces/inkscape"
   width="90.000214mm"
   height="89.99968mm"
   viewBox="0 0 90.000214 89.99968"
   version="1.1"
   id="svg229"
   inkscape:version="1.0.2 (e86c870879, 2021-01-15, custom)"
   sodipodi:docname="deck.svg">
  <defs
     id="defs223" />
  <sodipodi:namedview
     id="base"
     pagecolor="#ffffff"
     bordercolor="#666666"
     borderopacity="1.0"
     inkscape:pageopacity="0.0"
     inkscape:pageshadow="2"
     inkscape:zoom="0.35"
     inkscape:cx="258.21916"
     inkscape:cy="307.22101"
     inkscape:document-units="mm"
     inkscape:current-layer="layer1"
     inkscape:document-rotation="0"
     showgrid="false"
     fit-margin-top="0"
     fit-margin-left="0"
     fit-margin-right="0"
     fit-margin-bottom="0"
     inkscape:window-width="679"
     inkscape:window-height="738"
     inkscape:window-x="683"
     inkscape:window-y="26"
     inkscape:window-maximized="0"
     showguides="true"
     inkscape:guide-bbox="true"
     inkscape:snap-bbox="true"
     inkscape:snap-bbox-midpoints="true"
     inkscape:snap-bbox-edge-midpoints="true">
    <sodipodi:guide
       position="45.000106,89.999677"
       orientation="1,0"
       id="guide509" />
    <sodipodi:guide
       position="-7.5199105e-15,44.999837"
       orientation="0,-1"
       id="guide511" />
  </sodipodi:namedview>
  <metadata
     id="metadata226">
    <rdf:RDF>
      <cc:Work
         rdf:about="">
        <dc:format>image/svg+xml</dc:format>
        <dc:type
           rdf:resource="http://purl.org/dc/dcmitype/StillImage" />
        <dc:title></dc:title>
      </cc:Work>
    </rdf:RDF>
  </metadata>
  <g
     inkscape:label="Layer 1"
     inkscape:groupmode="layer"
     id="layer1"
     transform="translate(-37.512846,-66.881107)">
    <path
       id="rect12-1-3"
       style="display:inline;fill:#000000;fill-opacity:1;stroke:none;stroke-width:0.171762"
       d="m 45.979789,66.881106 c -4.690533,0 -8.466666,3.776133 -8.466666,8.466666 v 73.066348 c 0,4.69054 3.776133,8.46667 8.466666,8.46667 H 86.262601 V 66.881106 Z m 47.783115,0 v 89.999684 h 25.283216 c 4.69053,0 8.46666,-3.77613 8.46666,-8.46667 V 75.347772 c 0,-4.690533 -3.77613,-8.466666 -8.46666,-8.466666 z m 6.860066,29.569251 h 6.26316 c 4.71289,0 8.18555,1.254019 10.41797,3.762053 2.23242,2.50802 3.34865,6.40787 3.34865,11.69954 0,5.25033 -1.11623,9.12949 -3.34865,11.63753 -2.23242,2.50804 -5.70508,3.76203 -10.41797,3.76203 h -6.26316 z m 4.1961,3.431328 v 23.998525 h 1.98438 c 3.52779,0 5.98069,-0.86818 7.35872,-2.60448 1.39184,-1.72257 2.08775,-4.85759 2.08775,-9.40511 0,-4.56131 -0.68903,-7.69636 -2.06706,-9.40512 -0.70281,-0.88194 -1.68121,-1.52964 -2.93523,-1.94305 -1.24024,-0.42717 -2.72164,-0.640765 -4.44418,-0.640765 z" />
  </g>
</svg>
