<?xml version="1.0" encoding="UTF-8" standalone="no"?>
<svg
   width="1000"
   height="1000"
   viewBox="0 0 264.58333 264.58334"
   version="1.1"
   id="svg221"
   inkscape:version="1.1.1 (3bf5ae0d25, 2021-09-20, custom)"
   sodipodi:docname="2.svg"
   xmlns:inkscape="http://www.inkscape.org/namespaces/inkscape"
   xmlns:sodipodi="http://sodipodi.sourceforge.net/DTD/sodipodi-0.dtd"
   xmlns="http://www.w3.org/2000/svg"
   xmlns:svg="http://www.w3.org/2000/svg"
   xmlns:rdf="http://www.w3.org/1999/02/22-rdf-syntax-ns#"
   xmlns:cc="http://creativecommons.org/ns#"
   xmlns:dc="http://purl.org/dc/elements/1.1/">
  <defs
     id="defs215" />
  <sodipodi:namedview
     id="base"
     pagecolor="#ffffff"
     bordercolor="#666666"
     borderopacity="1.0"
     inkscape:pageopacity="0.0"
     inkscape:pageshadow="2"
     inkscape:zoom="0.49497475"
     inkscape:cx="508.10673"
     inkscape:cy="459.61941"
     inkscape:document-units="mm"
     inkscape:current-layer="layer1"
     inkscape:document-rotation="0"
     showgrid="false"
     units="px"
     showguides="true"
     inkscape:guide-bbox="true"
     inkscape:window-width="1362"
     inkscape:window-height="736"
     inkscape:window-x="0"
     inkscape:window-y="28"
     inkscape:window-maximized="0"
     inkscape:pagecheckerboard="0"
     inkscape:snap-bbox="true"
     inkscape:bbox-nodes="true"
     inkscape:snap-midpoints="true"
     inkscape:snap-center="true"
     inkscape:snap-object-midpoints="true">
    <sodipodi:guide
       position="52.916668,26.473615"
       orientation="0,-1"
       id="guide1048" />
    <sodipodi:guide
       position="-5.0862627e-06,238.10971"
       orientation="0,-1"
       id="guide144" />
    <sodipodi:guide
       position="238.12501,264.55275"
       orientation="1,0"
       id="guide146" />
    <sodipodi:guide
       position="26.458332,264.55275"
       orientation="1,0"
       id="guide148" />
    <sodipodi:guide
       position="132.29166,211.66667"
       orientation="1,0"
       id="guide133" />
    <sodipodi:guide
       position="52.916666,132.29167"
       orientation="0,-1"
       id="guide135" />
    <sodipodi:guide
       position="-5.086263e-06,52.916664"
       orientation="1,0"
       id="guide38" />
    <sodipodi:guide
       position="26.458331,264.55276"
       orientation="0,-1"
       id="guide126" />
    <sodipodi:guide
       position="13.229164,264.55276"
       orientation="1,0"
       id="guide40" />
    <sodipodi:guide
       position="-5.0862622e-06,251.33124"
       orientation="0,-1"
       id="guide42" />
    <sodipodi:guide
       position="6.6406208,132.29166"
       orientation="1,0"
       id="guide44" />
  </sodipodi:namedview>
  <metadata
     id="metadata218">
    <rdf:RDF>
      <cc:Work
         rdf:about="">
        <dc:format>image/svg+xml</dc:format>
        <dc:type
           rdf:resource="http://purl.org/dc/dcmitype/StillImage" />
      </cc:Work>
    </rdf:RDF>
  </metadata>
  <g
     inkscape:label="Layer 1"
     inkscape:groupmode="layer"
     id="layer1">
    <path
       id="text1950-3-2-7-8-9-0-1-4-2-9-3-5-74-0-85-6"
       style="font-style:normal;font-variant:normal;font-weight:normal;font-stretch:normal;font-size:82.1262px;line-height:1.25;font-family:vi;-inkscape-font-specification:vi;direction:rtl;display:inline;fill:#000000;stroke-width:0.859927"
       d="m 35.947737,6.6405366 c -16.114325,0 -29.3071162,13.1927824 -29.3071162,29.3073664 V 228.63543 c 0,16.1146 13.1927912,29.30737 29.3071162,29.30737 H 228.63548 c 16.1146,0 29.3074,-13.19277 29.3074,-29.30737 V 35.947903 c 0,-16.114584 -13.1928,-29.3073664 -29.3074,-29.3073664 z m 0,13.9588894 H 228.63548 c 8.62496,0 15.34842,6.7238 15.34842,15.348477 V 228.63543 c 0,8.62468 -6.72346,15.34845 -15.34842,15.34845 H 35.947737 c -8.624678,0 -15.348402,-6.72377 -15.348402,-15.34845 V 35.947903 c 0,-8.624677 6.723724,-15.348477 15.348402,-15.348477 z m 94.665173,29.05774 c -16.19837,0 -29.14992,4.627638 -38.853799,13.883891 -9.629617,9.256251 -14.445394,21.386606 -14.445394,36.390718 h 20.714811 c 0,-10.450594 2.837202,-18.587579 8.510482,-24.410049 5.74784,-5.897129 13.77247,-8.845178 24.0739,-8.845178 8.58448,0 15.45144,2.724948 20.60202,8.174203 5.15085,5.449226 7.72557,12.428595 7.72557,20.938378 0,6.345001 -1.60385,12.503491 -4.81354,18.475291 -3.13512,5.89711 -8.88408,13.58504 -17.24463,23.06525 l -56.43293,62.704 v 14.89247 h 106.8201 v -16.90828 h -81.85017 l 43.66876,-47.36275 c 20.45346,-22.17021 30.67977,-41.27994 30.67977,-57.329076 0,-13.212549 -4.40477,-23.7756 -13.21291,-31.688198 -8.80841,-7.987263 -20.78881,-11.98067 -35.94204,-11.98067 z" />
  </g>
</svg>
