<?xml version="1.0" encoding="UTF-8" standalone="no"?>
<svg
   width="1000"
   height="1000"
   viewBox="0 0 264.58333 264.58334"
   version="1.1"
   id="svg221"
   inkscape:version="1.1.1 (3bf5ae0d25, 2021-09-20, custom)"
   sodipodi:docname="6.svg"
   xmlns:inkscape="http://www.inkscape.org/namespaces/inkscape"
   xmlns:sodipodi="http://sodipodi.sourceforge.net/DTD/sodipodi-0.dtd"
   xmlns="http://www.w3.org/2000/svg"
   xmlns:svg="http://www.w3.org/2000/svg"
   xmlns:rdf="http://www.w3.org/1999/02/22-rdf-syntax-ns#"
   xmlns:cc="http://creativecommons.org/ns#"
   xmlns:dc="http://purl.org/dc/elements/1.1/">
  <defs
     id="defs215" />
  <sodipodi:namedview
     id="base"
     pagecolor="#ffffff"
     bordercolor="#666666"
     borderopacity="1.0"
     inkscape:pageopacity="0.0"
     inkscape:pageshadow="2"
     inkscape:zoom="0.49497474"
     inkscape:cx="344.46202"
     inkscape:cy="651.5484"
     inkscape:document-units="mm"
     inkscape:current-layer="layer1"
     inkscape:document-rotation="0"
     showgrid="false"
     units="px"
     showguides="true"
     inkscape:guide-bbox="true"
     inkscape:window-width="1366"
     inkscape:window-height="740"
     inkscape:window-x="0"
     inkscape:window-y="28"
     inkscape:window-maximized="0"
     inkscape:pagecheckerboard="0"
     inkscape:snap-bbox="true"
     inkscape:bbox-nodes="true"
     inkscape:snap-midpoints="true">
    <sodipodi:guide
       position="-5.0862631e-06,52.916663"
       orientation="0,-1"
       id="guide1048" />
    <sodipodi:guide
       position="-5.0862631e-06,211.66667"
       orientation="0,-1"
       id="guide144" />
    <sodipodi:guide
       position="211.66667,269.38659"
       orientation="1,0"
       id="guide146" />
    <sodipodi:guide
       position="52.916667,269.38659"
       orientation="1,0"
       id="guide148" />
    <sodipodi:guide
       position="132.29166,211.66667"
       orientation="1,0"
       id="guide133" />
    <sodipodi:guide
       position="52.916666,132.29167"
       orientation="0,-1"
       id="guide135" />
  </sodipodi:namedview>
  <metadata
     id="metadata218">
    <rdf:RDF>
      <cc:Work
         rdf:about="">
        <dc:format>image/svg+xml</dc:format>
        <dc:type
           rdf:resource="http://purl.org/dc/dcmitype/StillImage" />
      </cc:Work>
    </rdf:RDF>
  </metadata>
  <g
     inkscape:label="Layer 1"
     inkscape:groupmode="layer"
     id="layer1">
    <path
       id="text1950-3-2-7-8-9-0-1-4-2-9-3-5-74-0-9-2"
       style="font-style:normal;font-variant:normal;font-weight:normal;font-stretch:normal;font-size:83.1957px;line-height:1.25;font-family:vi;-inkscape-font-specification:vi;direction:rtl;display:inline;fill:#000000;stroke-width:0.825444"
       d="m 41.001267,13.230529 c -15.269261,0 -27.770735,12.500938 -27.770735,27.770452 V 223.58235 c 0,15.26952 12.501474,27.77046 27.770735,27.77046 H 223.58233 c 15.27005,0 27.77048,-12.50094 27.77048,-27.77046 V 41.000981 c 0,-15.269514 -12.50043,-27.770452 -27.77048,-27.770452 z m 0,13.22552 H 223.58233 c 8.17293,0 14.54537,6.372546 14.54537,14.544932 V 223.58235 c 0,8.17239 -6.37244,14.54494 -14.54537,14.54494 H 41.001267 c -8.172392,0 -14.54563,-6.37255 -14.54563,-14.54494 V 41.000981 c 0,-8.172386 6.373238,-14.544932 14.54563,-14.544932 z M 156.1519,52.916665 C 131.86119,53.274934 113.55321,61.085188 101.22901,76.347428 88.976233,91.538024 82.850118,113.53623 82.850118,142.34103 v 7.63068 c 0,18.12839 4.657421,32.9613 13.972015,44.49755 9.314867,11.46459 21.460477,17.19741 36.436307,17.19741 14.76049,0 26.51187,-4.83749 35.25338,-14.51075 8.81347,-9.67325 13.22008,-22.57006 13.22008,-38.69213 0,-15.19059 -4.08328,-27.58792 -12.25198,-37.18951 -8.09673,-9.6016 -18.95276,-14.40136 -32.56655,-14.40136 -14.25909,0 -25.50935,4.72841 -33.74948,14.18672 1.43297,-16.12211 6.7365,-28.625782 15.9077,-37.510838 9.17197,-8.885063 21.49672,-13.470786 36.97394,-13.757407 h 3.65281 v -16.87473 z m -22.57066,70.508325 c 8.59863,0 15.47722,3.33086 20.63577,9.99465 5.23077,6.59214 7.84669,15.26273 7.84669,26.0108 0,10.67641 -2.57967,19.31063 -7.73821,25.90277 -5.0879,6.59215 -12.11068,9.88803 -21.06705,9.88803 -8.6698,0 -15.9069,-3.9408 -21.71102,-11.82269 -5.80385,-7.88193 -8.705,-18.27181 -8.705,-31.16948 v -7.30802 c 2.22143,-6.16222 6.19677,-11.28647 11.92945,-15.37075 5.7319,-4.08426 12.00222,-6.12531 18.80937,-6.12531 z" />
  </g>
</svg>
