<?xml version="1.0" encoding="UTF-8" standalone="no"?>
<svg
   width="1000"
   height="1000"
   viewBox="0 0 264.58333 264.58334"
   version="1.1"
   id="svg221"
   inkscape:version="1.1.1 (3bf5ae0d25, 2021-09-20, custom)"
   sodipodi:docname="8.svg"
   xmlns:inkscape="http://www.inkscape.org/namespaces/inkscape"
   xmlns:sodipodi="http://sodipodi.sourceforge.net/DTD/sodipodi-0.dtd"
   xmlns="http://www.w3.org/2000/svg"
   xmlns:svg="http://www.w3.org/2000/svg"
   xmlns:rdf="http://www.w3.org/1999/02/22-rdf-syntax-ns#"
   xmlns:cc="http://creativecommons.org/ns#"
   xmlns:dc="http://purl.org/dc/elements/1.1/">
  <defs
     id="defs215" />
  <sodipodi:namedview
     id="base"
     pagecolor="#ffffff"
     bordercolor="#666666"
     borderopacity="1.0"
     inkscape:pageopacity="0.0"
     inkscape:pageshadow="2"
     inkscape:zoom="0.49497474"
     inkscape:cx="344.46202"
     inkscape:cy="489.92399"
     inkscape:document-units="mm"
     inkscape:current-layer="layer1"
     inkscape:document-rotation="0"
     showgrid="false"
     units="px"
     showguides="true"
     inkscape:guide-bbox="true"
     inkscape:window-width="1366"
     inkscape:window-height="740"
     inkscape:window-x="0"
     inkscape:window-y="28"
     inkscape:window-maximized="0"
     inkscape:pagecheckerboard="0"
     inkscape:snap-bbox="true"
     inkscape:bbox-nodes="true"
     inkscape:snap-midpoints="true">
    <sodipodi:guide
       position="-5.0862631e-06,52.916663"
       orientation="0,-1"
       id="guide1048" />
    <sodipodi:guide
       position="-5.0862631e-06,211.66667"
       orientation="0,-1"
       id="guide144" />
    <sodipodi:guide
       position="211.66667,269.38659"
       orientation="1,0"
       id="guide146" />
    <sodipodi:guide
       position="52.916667,269.38659"
       orientation="1,0"
       id="guide148" />
    <sodipodi:guide
       position="132.29166,211.66667"
       orientation="1,0"
       id="guide133" />
    <sodipodi:guide
       position="52.916666,132.29167"
       orientation="0,-1"
       id="guide135" />
    <sodipodi:guide
       position="133.88202,14.340684"
       orientation="0,-1"
       id="guide15" />
  </sodipodi:namedview>
  <metadata
     id="metadata218">
    <rdf:RDF>
      <cc:Work
         rdf:about="">
        <dc:format>image/svg+xml</dc:format>
        <dc:type
           rdf:resource="http://purl.org/dc/dcmitype/StillImage" />
      </cc:Work>
    </rdf:RDF>
  </metadata>
  <g
     inkscape:label="Layer 1"
     inkscape:groupmode="layer"
     id="layer1">
    <path
       id="text1950-3-2-7-8-9-0-1-4-2-9-3-5-74-0-86-1"
       style="font-style:normal;font-variant:normal;font-weight:normal;font-stretch:normal;font-size:82.139px;line-height:1.25;font-family:vi;-inkscape-font-specification:vi;direction:rtl;display:inline;fill:#000000;stroke-width:0.807363"
       d="m 41.851433,14.340686 c -15.126886,0 -27.510745,12.384302 -27.510745,27.511354 V 222.7313 c 0,15.12705 12.383859,27.51135 27.510745,27.51135 H 222.73112 c 15.12688,0 27.51153,-12.3843 27.51153,-27.51135 V 41.85204 c 0,-15.127052 -12.38465,-27.511354 -27.51153,-27.511354 z m 0,13.103488 H 222.73112 c 8.09593,0 14.40895,6.311727 14.40895,14.407866 V 222.7313 c 0,8.09614 -6.31302,14.40786 -14.40895,14.40786 H 41.851433 c -8.095928,0 -14.408954,-6.31172 -14.408954,-14.40786 V 41.85204 c 0,-8.096139 6.313026,-14.407866 14.408954,-14.407866 z m 90.440237,26.21374 c -13.52616,0 -24.42409,3.784435 -32.694331,11.353466 -8.269972,7.56903 -12.40614,17.801754 -12.40614,30.697151 0,7.568999 1.963239,14.332009 5.888663,20.289129 3.92465,5.95711 9.285408,10.61719 16.083088,13.98119 -7.98925,3.43411 -14.26139,8.48 -18.816936,15.13795 -4.485034,6.65792 -6.727692,14.12146 -6.727692,22.39133 0,13.17569 4.414798,23.7245 13.245957,31.64395 8.900611,7.84936 20.709661,11.77334 35.427391,11.77334 14.57697,0 26.31655,-3.92398 35.21717,-11.77334 8.9706,-7.84936 13.45539,-18.39817 13.45539,-31.64395 0,-8.33997 -2.34751,-15.80347 -7.04329,-22.39133 -4.62552,-6.58787 -10.93305,-11.59819 -18.92229,-15.03228 6.86765,-3.36401 12.29998,-8.02545 16.29461,-13.98257 4.0646,-5.95711 6.09677,-12.75433 6.09677,-20.393419 0,-12.895397 -4.17024,-23.128121 -12.51019,-30.697151 -8.27024,-7.569031 -19.13199,-11.353466 -32.58817,-11.353466 z m 0,15.979101 c 7.42885,0 13.56076,2.453165 18.39677,7.359025 4.83575,4.905834 7.25349,11.247438 7.25349,19.026734 0,7.779286 -2.34777,14.088016 -7.04328,18.923776 -4.62579,4.76568 -10.82795,7.14772 -18.60698,7.14772 -7.77983,0 -14.01736,-2.38204 -18.71314,-7.14772 -4.62554,-4.83576 -6.93791,-11.14449 -6.93791,-18.923776 0,-8.129708 2.34828,-14.541094 7.04407,-19.236686 4.76523,-4.765682 10.96713,-7.149073 18.60698,-7.149073 z m -0.2097,68.436345 c 8.76039,0 15.83854,2.69808 21.23468,8.09453 5.46615,5.39644 8.2,12.37014 8.2,20.92032 0,8.6203 -2.59231,15.45307 -7.77903,20.49909 -5.1862,4.97595 -12.33484,7.46468 -21.44543,7.46468 -9.18135,0 -16.36564,-2.48873 -21.55236,-7.46468 -5.11596,-4.97592 -7.67288,-11.80871 -7.67288,-20.49909 0,-8.69034 2.62822,-15.69827 7.8844,-21.0246 5.32617,-5.32638 12.37024,-7.99025 21.13062,-7.99025 z" />
  </g>
</svg>
