<?xml version="1.0" encoding="UTF-8" standalone="no"?>
<svg
   width="1000"
   height="1000"
   viewBox="0 0 264.58333 264.58334"
   version="1.1"
   id="svg221"
   inkscape:version="1.1.1 (3bf5ae0d25, 2021-09-20, custom)"
   sodipodi:docname="9.svg"
   xmlns:inkscape="http://www.inkscape.org/namespaces/inkscape"
   xmlns:sodipodi="http://sodipodi.sourceforge.net/DTD/sodipodi-0.dtd"
   xmlns="http://www.w3.org/2000/svg"
   xmlns:svg="http://www.w3.org/2000/svg"
   xmlns:rdf="http://www.w3.org/1999/02/22-rdf-syntax-ns#"
   xmlns:cc="http://creativecommons.org/ns#"
   xmlns:dc="http://purl.org/dc/elements/1.1/">
  <defs
     id="defs215" />
  <sodipodi:namedview
     id="base"
     pagecolor="#ffffff"
     bordercolor="#666666"
     borderopacity="1.0"
     inkscape:pageopacity="0.0"
     inkscape:pageshadow="2"
     inkscape:zoom="0.49497474"
     inkscape:cx="344.46202"
     inkscape:cy="651.5484"
     inkscape:document-units="mm"
     inkscape:current-layer="layer1"
     inkscape:document-rotation="0"
     showgrid="false"
     units="px"
     showguides="true"
     inkscape:guide-bbox="true"
     inkscape:window-width="1366"
     inkscape:window-height="740"
     inkscape:window-x="0"
     inkscape:window-y="28"
     inkscape:window-maximized="0"
     inkscape:pagecheckerboard="0"
     inkscape:snap-bbox="true"
     inkscape:bbox-nodes="true"
     inkscape:snap-midpoints="true">
    <sodipodi:guide
       position="-5.0862631e-06,52.916663"
       orientation="0,-1"
       id="guide1048" />
    <sodipodi:guide
       position="-5.0862631e-06,211.66667"
       orientation="0,-1"
       id="guide144" />
    <sodipodi:guide
       position="211.66667,269.38659"
       orientation="1,0"
       id="guide146" />
    <sodipodi:guide
       position="52.916667,269.38659"
       orientation="1,0"
       id="guide148" />
    <sodipodi:guide
       position="132.29166,211.66667"
       orientation="1,0"
       id="guide133" />
    <sodipodi:guide
       position="52.916666,132.29167"
       orientation="0,-1"
       id="guide135" />
  </sodipodi:namedview>
  <metadata
     id="metadata218">
    <rdf:RDF>
      <cc:Work
         rdf:about="">
        <dc:format>image/svg+xml</dc:format>
        <dc:type
           rdf:resource="http://purl.org/dc/dcmitype/StillImage" />
      </cc:Work>
    </rdf:RDF>
  </metadata>
  <g
     inkscape:label="Layer 1"
     inkscape:groupmode="layer"
     id="layer1">
    <path
       id="text1950-3-2-7-8-9-0-1-4-2-9-3-5-74-0-48-6"
       style="font-style:normal;font-variant:normal;font-weight:normal;font-stretch:normal;font-size:83.1957px;line-height:1.25;font-family:vi;-inkscape-font-specification:vi;direction:rtl;display:inline;fill:#000000;stroke-width:0.825452"
       d="m 40.999655,13.228812 c -15.269199,0 -27.77084,12.501045 -27.77084,27.770692 V 223.58383 c 0,15.26966 12.501641,27.77069 27.77084,27.77069 H 223.58368 c 15.26973,0 27.77084,-12.50103 27.77084,-27.77069 V 40.999504 c 0,-15.269647 -12.50111,-27.770692 -27.77084,-27.770692 z m 0,13.227009 H 223.58368 c 8.1725,0 14.54503,6.371226 14.54503,14.543683 V 223.58383 c 0,8.17246 -6.37253,14.54368 -14.54503,14.54368 H 40.999655 c -8.172237,0 -14.545559,-6.37122 -14.545559,-14.54368 V 40.999504 c 0,-8.172457 6.373322,-14.543683 14.545559,-14.543683 z m 90.540185,26.460846 c -9.74546,0 -18.27355,2.221523 -25.58192,6.664093 -7.309159,4.44257 -12.96917,10.855335 -16.981862,19.238903 -3.941262,8.38354 -5.911887,17.805473 -5.911887,28.266997 0,9.74501 1.82802,18.66609 5.482736,26.76302 3.654445,8.02526 8.812256,14.25898 15.476103,18.70156 6.7358,4.44256 14.61832,6.66409 23.64676,6.66409 6.87947,0 13.18427,-1.50527 18.91676,-4.51475 5.80394,-3.00947 10.78422,-6.98529 14.94033,-11.92944 -0.78821,17.91358 -5.58936,31.02592 -14.40295,39.33781 -8.81332,8.24024 -21.42531,12.50422 -37.83382,12.79085 h -4.19101 v 16.76687 h 3.86823 c 24.29101,-0.35828 42.45611,-7.52368 54.4942,-21.49628 12.03809,-14.04422 18.05633,-36.29309 18.05633,-66.74617 v -5.80409 c 0,-19.991566 -4.4781,-35.754898 -13.43483,-47.291245 -8.88529,-11.607996 -21.06599,-17.412218 -36.54317,-17.412218 z m 0.1059,16.552216 c 8.67019,0 15.83568,4.08353 21.49647,12.252125 5.66054,8.168598 8.49081,18.774002 8.49081,31.815092 v 7.95344 c -2.57971,6.01895 -6.69956,11.07054 -12.36035,15.15486 -5.5891,4.08426 -11.71504,6.12674 -18.37888,6.12674 -8.59875,0 -15.47742,-3.44001 -20.63657,-10.31882 -5.08744,-6.95045 -7.63196,-15.76384 -7.63196,-26.44032 0,-10.963129 2.65247,-19.77648 7.95449,-26.440336 5.30307,-6.735505 12.32437,-10.102781 21.06599,-10.102781 z" />
  </g>
</svg>
