<?xml version="1.0" encoding="UTF-8" standalone="no"?>
<svg
   width="1000"
   height="1000"
   viewBox="0 0 264.58333 264.58334"
   version="1.1"
   id="svg221"
   inkscape:version="1.1.1 (3bf5ae0d25, 2021-09-20)"
   sodipodi:docname="avatar.svg"
   xmlns:inkscape="http://www.inkscape.org/namespaces/inkscape"
   xmlns:sodipodi="http://sodipodi.sourceforge.net/DTD/sodipodi-0.dtd"
   xmlns="http://www.w3.org/2000/svg"
   xmlns:svg="http://www.w3.org/2000/svg"
   xmlns:rdf="http://www.w3.org/1999/02/22-rdf-syntax-ns#"
   xmlns:cc="http://creativecommons.org/ns#"
   xmlns:dc="http://purl.org/dc/elements/1.1/">
  <defs
     id="defs215" />
  <sodipodi:namedview
     id="base"
     pagecolor="#ffffff"
     bordercolor="#666666"
     borderopacity="1.0"
     inkscape:pageopacity="0.0"
     inkscape:pageshadow="2"
     inkscape:zoom="0.69999999"
     inkscape:cx="507.85715"
     inkscape:cy="449.28572"
     inkscape:document-units="mm"
     inkscape:current-layer="layer1"
     inkscape:document-rotation="0"
     showgrid="false"
     units="px"
     showguides="true"
     inkscape:guide-bbox="true"
     inkscape:window-width="1366"
     inkscape:window-height="740"
     inkscape:window-x="0"
     inkscape:window-y="28"
     inkscape:window-maximized="0"
     inkscape:pagecheckerboard="0"
     inkscape:snap-bbox="true"
     inkscape:bbox-nodes="true"
     inkscape:snap-midpoints="true">
    <sodipodi:guide
       position="-5.0862631e-06,52.916663"
       orientation="0,-1"
       id="guide1048" />
    <sodipodi:guide
       position="75.848259,211.66667"
       orientation="0,-1"
       id="guide144" />
    <sodipodi:guide
       position="211.66667,269.38659"
       orientation="1,0"
       id="guide146" />
    <sodipodi:guide
       position="52.916667,269.38659"
       orientation="1,0"
       id="guide148" />
    <sodipodi:guide
       position="132.29166,211.66667"
       orientation="1,0"
       id="guide133" />
    <sodipodi:guide
       position="52.916666,132.29167"
       orientation="0,-1"
       id="guide135" />
  </sodipodi:namedview>
  <metadata
     id="metadata218">
    <rdf:RDF>
      <cc:Work
         rdf:about="">
        <dc:format>image/svg+xml</dc:format>
        <dc:type
           rdf:resource="http://purl.org/dc/dcmitype/StillImage" />
      </cc:Work>
    </rdf:RDF>
  </metadata>
  <g
     inkscape:label="Layer 1"
     inkscape:groupmode="layer"
     id="layer1">
    <path
       id="text1814-7-9-1-7-6-9-63-90-7-6"
       style="font-size:68.5715px;line-height:1.25;font-family:sans-serif;direction:rtl;display:inline;stroke-width:0.412336"
       d="m 71.430403,52.916665 c -10.179556,0 -18.513736,8.334004 -18.513736,18.513738 V 193.15293 c 0,10.17974 8.33418,18.51374 18.513736,18.51374 H 193.15293 c 10.17974,0 18.51374,-8.334 18.51374,-18.51374 V 71.430403 c 0,-10.179734 -8.334,-18.513738 -18.51374,-18.513738 z m 0,8.818015 H 193.15293 c 5.44847,0 9.69573,4.247435 9.69573,9.695723 V 193.15293 c 0,5.44829 -4.24726,9.69573 -9.69573,9.69573 H 71.430403 c -5.448288,0 -9.695899,-4.24744 -9.695899,-9.69573 V 71.430403 c 0,-5.448288 4.247611,-9.695723 9.695899,-9.695723 z m 60.860737,17.640438 c -14.29223,0 -21.85154,7.559483 -22.67845,22.678452 0,16.81211 2.51953,26.89095 7.55913,30.23775 0.82691,3.34662 0.82691,5.86703 0,7.56 l -7.55913,2.53947 c -5.03959,2.51988 -10.079543,6.29954 -15.119315,11.33931 -5.039596,5.0396 -7.559129,10.49229 -7.559129,16.3588 v 7.56019 c 0,5.03959 2.519533,7.55913 7.559129,7.55913 H 170.0889 c 5.0396,0 7.55913,-2.51954 7.55913,-7.55913 v -7.56019 c 0,-13.42599 -10.07901,-23.50483 -30.23757,-30.23758 v -7.56 c 5.03959,-3.3468 7.55913,-13.42564 7.55913,-30.23775 -0.82691,-15.118969 -8.38622,-22.678452 -22.67845,-22.678452 z" />
  </g>
</svg>
