<?xml version="1.0" encoding="UTF-8" standalone="no"?>
<svg
   width="1000"
   height="1000"
   viewBox="0 0 264.58333 264.58334"
   version="1.1"
   id="svg221"
   inkscape:version="1.1.1 (3bf5ae0d25, 2021-09-20)"
   sodipodi:docname="battery full.svg"
   xmlns:inkscape="http://www.inkscape.org/namespaces/inkscape"
   xmlns:sodipodi="http://sodipodi.sourceforge.net/DTD/sodipodi-0.dtd"
   xmlns="http://www.w3.org/2000/svg"
   xmlns:svg="http://www.w3.org/2000/svg"
   xmlns:rdf="http://www.w3.org/1999/02/22-rdf-syntax-ns#"
   xmlns:cc="http://creativecommons.org/ns#"
   xmlns:dc="http://purl.org/dc/elements/1.1/">
  <defs
     id="defs215" />
  <sodipodi:namedview
     id="base"
     pagecolor="#ffffff"
     bordercolor="#666666"
     borderopacity="1.0"
     inkscape:pageopacity="0.0"
     inkscape:pageshadow="2"
     inkscape:zoom="0.49497474"
     inkscape:cx="439.41636"
     inkscape:cy="502.04582"
     inkscape:document-units="mm"
     inkscape:current-layer="layer1"
     inkscape:document-rotation="0"
     showgrid="false"
     units="px"
     showguides="true"
     inkscape:guide-bbox="true"
     inkscape:window-width="1366"
     inkscape:window-height="740"
     inkscape:window-x="0"
     inkscape:window-y="28"
     inkscape:window-maximized="0"
     inkscape:pagecheckerboard="0"
     inkscape:snap-bbox="true"
     inkscape:bbox-nodes="true"
     inkscape:snap-midpoints="true">
    <sodipodi:guide
       position="-5.0862631e-06,52.916663"
       orientation="0,-1"
       id="guide1048" />
    <sodipodi:guide
       position="75.848259,211.66667"
       orientation="0,-1"
       id="guide144" />
    <sodipodi:guide
       position="211.66667,269.38659"
       orientation="1,0"
       id="guide146" />
    <sodipodi:guide
       position="52.916667,269.38659"
       orientation="1,0"
       id="guide148" />
    <sodipodi:guide
       position="132.29166,211.66667"
       orientation="1,0"
       id="guide133" />
    <sodipodi:guide
       position="52.916666,132.29167"
       orientation="0,-1"
       id="guide135" />
  </sodipodi:namedview>
  <metadata
     id="metadata218">
    <rdf:RDF>
      <cc:Work
         rdf:about="">
        <dc:format>image/svg+xml</dc:format>
        <dc:type
           rdf:resource="http://purl.org/dc/dcmitype/StillImage" />
      </cc:Work>
    </rdf:RDF>
  </metadata>
  <g
     inkscape:label="Layer 1"
     inkscape:groupmode="layer"
     id="layer1">
    <path
       id="text1814-7-9-3-8-3-7-6-4-9"
       style="font-size:72.1127px;line-height:1.25;font-family:sans-serif;direction:rtl;display:inline;stroke-width:0.433632"
       d="m 71.430247,52.916665 c -10.179567,0 -18.51358,8.333988 -18.51358,18.513723 V 193.15293 c 0,10.17974 8.334013,18.51374 18.51358,18.51374 H 193.15291 c 10.17975,0 18.51376,-8.334 18.51376,-18.51374 V 71.430388 c 0,-10.179735 -8.33401,-18.513723 -18.51376,-18.513723 z m 0,8.817998 H 193.15291 c 5.44847,0 9.69574,4.247436 9.69574,9.695725 V 193.15293 c 0,5.44829 -4.24727,9.69578 -9.69574,9.69578 H 71.430247 c -5.448293,0 -9.695733,-4.24749 -9.695733,-9.69578 V 71.430388 c 0,-5.448289 4.24744,-9.695725 9.695733,-9.695725 z m 44.962363,17.640511 v 10.435005 h -8.94379 c -1.98755,0.165629 -3.64366,0.910006 -4.9687,2.235001 -1.32503,1.324996 -1.98807,2.982095 -1.98807,4.969606 v 81.237674 c 0,1.98745 0.66304,3.64365 1.98807,4.96865 1.32504,1.32494 2.98115,1.9871 4.9687,1.9871 h 49.68658 c 1.98755,0 3.64366,-0.66216 4.96869,-1.9871 1.32503,-1.325 1.9879,-2.9812 1.9879,-4.96865 V 97.014786 c 0,-1.987511 -0.66287,-3.64461 -1.9879,-4.969606 -1.32503,-1.324995 -2.98114,-2.069408 -4.96869,-2.235001 h -8.94379 V 79.375174 Z" />
  </g>
</svg>
