<?xml version="1.0" encoding="UTF-8" standalone="no"?>
<svg
   width="1000"
   height="1000"
   viewBox="0 0 264.58333 264.58334"
   version="1.1"
   id="svg221"
   inkscape:version="1.1.1 (3bf5ae0d25, 2021-09-20)"
   sodipodi:docname="battery v low.svg"
   xmlns:inkscape="http://www.inkscape.org/namespaces/inkscape"
   xmlns:sodipodi="http://sodipodi.sourceforge.net/DTD/sodipodi-0.dtd"
   xmlns="http://www.w3.org/2000/svg"
   xmlns:svg="http://www.w3.org/2000/svg"
   xmlns:rdf="http://www.w3.org/1999/02/22-rdf-syntax-ns#"
   xmlns:cc="http://creativecommons.org/ns#"
   xmlns:dc="http://purl.org/dc/elements/1.1/">
  <defs
     id="defs215" />
  <sodipodi:namedview
     id="base"
     pagecolor="#ffffff"
     bordercolor="#666666"
     borderopacity="1.0"
     inkscape:pageopacity="0.0"
     inkscape:pageshadow="2"
     inkscape:zoom="0.49497474"
     inkscape:cx="439.41636"
     inkscape:cy="502.04582"
     inkscape:document-units="mm"
     inkscape:current-layer="layer1"
     inkscape:document-rotation="0"
     showgrid="false"
     units="px"
     showguides="true"
     inkscape:guide-bbox="true"
     inkscape:window-width="1366"
     inkscape:window-height="740"
     inkscape:window-x="0"
     inkscape:window-y="28"
     inkscape:window-maximized="0"
     inkscape:pagecheckerboard="0"
     inkscape:snap-bbox="true"
     inkscape:bbox-nodes="true"
     inkscape:snap-midpoints="true">
    <sodipodi:guide
       position="-5.0862631e-06,52.916663"
       orientation="0,-1"
       id="guide1048" />
    <sodipodi:guide
       position="75.848259,211.66667"
       orientation="0,-1"
       id="guide144" />
    <sodipodi:guide
       position="211.66667,269.38659"
       orientation="1,0"
       id="guide146" />
    <sodipodi:guide
       position="52.916667,269.38659"
       orientation="1,0"
       id="guide148" />
    <sodipodi:guide
       position="132.29166,211.66667"
       orientation="1,0"
       id="guide133" />
    <sodipodi:guide
       position="52.916666,132.29167"
       orientation="0,-1"
       id="guide135" />
  </sodipodi:namedview>
  <metadata
     id="metadata218">
    <rdf:RDF>
      <cc:Work
         rdf:about="">
        <dc:format>image/svg+xml</dc:format>
        <dc:type
           rdf:resource="http://purl.org/dc/dcmitype/StillImage" />
      </cc:Work>
    </rdf:RDF>
  </metadata>
  <g
     inkscape:label="Layer 1"
     inkscape:groupmode="layer"
     id="layer1">
    <path
       id="text1814-7-9-3-8-0-7-9-06-0-4-6"
       style="font-size:46.6692px;line-height:1.25;font-family:sans-serif;direction:rtl;display:inline;stroke-width:0.280635"
       d="m 71.430174,52.916665 c -10.179624,0 -18.513507,8.333984 -18.513507,18.513715 v 121.72238 c 0,10.17991 8.333883,18.51391 18.513507,18.51391 H 193.15281 c 10.17962,0 18.51386,-8.334 18.51386,-18.51391 V 71.43038 c 0,-10.179731 -8.33424,-18.513715 -18.51386,-18.513715 z m 0,8.817959 H 193.15281 c 5.44815,0 9.69649,4.247469 9.69649,9.695756 v 121.72238 c 0,5.44829 -4.24834,9.6959 -9.69649,9.6959 H 71.430174 c -5.448324,0 -9.696669,-4.24761 -9.696669,-9.6959 V 71.43038 c 0,-5.448287 4.248345,-9.695756 9.696669,-9.695756 z M 86.73039,102.90947 c -2.036771,0 -3.778972,0.70999 -5.226249,2.13019 -1.420114,1.42025 -2.129906,3.14813 -2.129906,5.1847 v 44.13441 c 0,2.03658 0.709792,3.76466 2.129906,5.18476 1.447277,1.42028 3.189478,2.13112 5.226249,2.13112 h 85.25389 c 2.03678,0 3.76487,-0.71084 5.18498,-2.13112 1.44675,-1.4201 2.17012,-3.14818 2.17012,-5.18476 v -7.39597 c 1.63496,0 3.01503,-0.56268 4.14022,-1.68804 1.15218,-1.12553 1.72809,-2.51883 1.72809,-4.18023 v -17.60585 c 0,-1.6614 -0.57591,-3.0547 -1.72809,-4.18023 -1.12519,-1.12536 -2.50526,-1.68804 -4.14022,-1.68804 v -7.39605 c 0,-2.03657 -0.72337,-3.76445 -2.17012,-5.1847 -1.42011,-1.4202 -3.1482,-2.13019 -5.18498,-2.13019 z m 0,5.86832 h 85.25389 c 0.42898,0 0.777,0.13406 1.04494,0.40196 0.29457,0.26799 0.44203,0.61586 0.44203,1.04461 v 13.26432 h 5.86813 v 17.60585 h -5.86813 v 13.26424 c 0,0.4288 -0.14817,0.77664 -0.44203,1.04475 -0.26794,0.26793 -0.61596,0.40199 -1.04494,0.40199 H 86.73039 c -0.42898,0 -0.791108,-0.13406 -1.086031,-0.40199 -0.267936,-0.26811 -0.401816,-0.61595 -0.401816,-1.04475 v -44.13441 c 0,-0.42875 0.134056,-0.77662 0.401816,-1.04461 0.294923,-0.26797 0.657051,-0.40196 1.086031,-0.40196 z m 4.421384,5.86836 v 35.29091 h 41.159996 v -35.29091 z" />
  </g>
</svg>
