<?xml version="1.0" encoding="UTF-8" standalone="no"?>
<svg
   width="1000"
   height="1000"
   viewBox="0 0 264.58333 264.58334"
   version="1.1"
   id="svg221"
   inkscape:version="1.1.1 (3bf5ae0d25, 2021-09-20)"
   sodipodi:docname="battery v full.svg"
   xmlns:inkscape="http://www.inkscape.org/namespaces/inkscape"
   xmlns:sodipodi="http://sodipodi.sourceforge.net/DTD/sodipodi-0.dtd"
   xmlns="http://www.w3.org/2000/svg"
   xmlns:svg="http://www.w3.org/2000/svg"
   xmlns:rdf="http://www.w3.org/1999/02/22-rdf-syntax-ns#"
   xmlns:cc="http://creativecommons.org/ns#"
   xmlns:dc="http://purl.org/dc/elements/1.1/">
  <defs
     id="defs215" />
  <sodipodi:namedview
     id="base"
     pagecolor="#ffffff"
     bordercolor="#666666"
     borderopacity="1.0"
     inkscape:pageopacity="0.0"
     inkscape:pageshadow="2"
     inkscape:zoom="0.49497474"
     inkscape:cx="439.41636"
     inkscape:cy="502.04582"
     inkscape:document-units="mm"
     inkscape:current-layer="layer1"
     inkscape:document-rotation="0"
     showgrid="false"
     units="px"
     showguides="true"
     inkscape:guide-bbox="true"
     inkscape:window-width="1366"
     inkscape:window-height="740"
     inkscape:window-x="0"
     inkscape:window-y="28"
     inkscape:window-maximized="0"
     inkscape:pagecheckerboard="0"
     inkscape:snap-bbox="true"
     inkscape:bbox-nodes="true"
     inkscape:snap-midpoints="true">
    <sodipodi:guide
       position="-5.0862631e-06,52.916663"
       orientation="0,-1"
       id="guide1048" />
    <sodipodi:guide
       position="75.848259,211.66667"
       orientation="0,-1"
       id="guide144" />
    <sodipodi:guide
       position="211.66667,269.38659"
       orientation="1,0"
       id="guide146" />
    <sodipodi:guide
       position="52.916667,269.38659"
       orientation="1,0"
       id="guide148" />
    <sodipodi:guide
       position="132.29166,211.66667"
       orientation="1,0"
       id="guide133" />
    <sodipodi:guide
       position="52.916666,132.29167"
       orientation="0,-1"
       id="guide135" />
  </sodipodi:namedview>
  <metadata
     id="metadata218">
    <rdf:RDF>
      <cc:Work
         rdf:about="">
        <dc:format>image/svg+xml</dc:format>
        <dc:type
           rdf:resource="http://purl.org/dc/dcmitype/StillImage" />
      </cc:Work>
    </rdf:RDF>
  </metadata>
  <g
     inkscape:label="Layer 1"
     inkscape:groupmode="layer"
     id="layer1">
    <path
       id="text1814-7-9-3-8-0-7-9-06-1-7-3"
       style="font-size:46.6692px;line-height:1.25;font-family:sans-serif;direction:rtl;display:inline;stroke-width:0.280634"
       d="m 71.430516,52.916665 c -10.179521,0 -18.513849,8.33404 -18.513849,18.513838 V 193.15282 c 0,10.17979 8.334328,18.51385 18.513849,18.51385 H 193.1528 c 10.17952,0 18.51332,-8.33406 18.51332,-18.51385 V 71.430503 c 0,-10.179798 -8.3338,-18.513838 -18.51332,-18.513838 z m 0,8.818017 H 193.1528 c 5.44827,0 9.69657,4.247498 9.69657,9.695821 V 193.15282 c 0,5.44832 -4.2483,9.69684 -9.69657,9.69684 H 71.430516 c -5.448269,0 -9.695689,-4.24852 -9.695689,-9.69684 V 71.430503 c 0,-5.448323 4.24742,-9.695821 9.695689,-9.695821 z M 86.73093,102.90981 c -2.036045,0 -3.778228,0.70998 -5.225491,2.1302 -1.420099,1.42026 -2.13006,3.14815 -2.13006,5.18473 v 44.1347 c 0,2.0366 0.709961,3.76469 2.13006,5.1848 1.447263,1.42029 3.189446,2.13114 5.225491,2.13114 h 85.25268 c 2.03675,0 3.76535,-0.71085 5.18545,-2.13114 1.44726,-1.42011 2.17063,-3.1482 2.17063,-5.1848 v -7.39601 c 1.63441,0 3.01429,-0.56269 4.14,-1.68805 1.15234,-1.12554 1.72825,-2.51885 1.72825,-4.18026 v -17.60597 c 0,-1.66141 -0.57591,-3.05472 -1.72825,-4.18026 -1.12571,-1.12536 -2.50559,-1.68805 -4.14,-1.68805 v -7.3961 c 0,-2.03658 -0.72337,-3.76447 -2.17063,-5.18473 -1.4201,-1.42022 -3.1487,-2.1302 -5.18545,-2.1302 z m 0,5.86836 h 85.25268 c 0.42898,0 0.77752,0.13405 1.04545,0.40195 0.29492,0.26799 0.44238,0.61587 0.44238,1.04462 v 13.26441 h 5.86825 v 17.60597 h -5.86825 v 13.26432 c 0,0.42881 -0.14816,0.77665 -0.44238,1.04476 -0.26793,0.26794 -0.61647,0.40199 -1.04545,0.40199 H 86.73093 c -0.428446,0 -0.79057,-0.13405 -1.085491,-0.40199 -0.267933,-0.26811 -0.401811,-0.61595 -0.401811,-1.04476 v -44.1347 c 0,-0.42875 0.134054,-0.77663 0.401811,-1.04462 0.294921,-0.26797 0.657045,-0.40195 1.085491,-0.40195 z m 4.422045,5.86839 v 35.29115 h 76.409645 v -35.29115 z" />
  </g>
</svg>
