<?xml version="1.0" encoding="UTF-8" standalone="no"?>
<svg
   width="1000"
   height="1000"
   viewBox="0 0 264.58333 264.58334"
   version="1.1"
   id="svg221"
   inkscape:version="1.1.1 (3bf5ae0d25, 2021-09-20)"
   sodipodi:docname="bt connect.svg"
   xmlns:inkscape="http://www.inkscape.org/namespaces/inkscape"
   xmlns:sodipodi="http://sodipodi.sourceforge.net/DTD/sodipodi-0.dtd"
   xmlns="http://www.w3.org/2000/svg"
   xmlns:svg="http://www.w3.org/2000/svg"
   xmlns:rdf="http://www.w3.org/1999/02/22-rdf-syntax-ns#"
   xmlns:cc="http://creativecommons.org/ns#"
   xmlns:dc="http://purl.org/dc/elements/1.1/">
  <defs
     id="defs215" />
  <sodipodi:namedview
     id="base"
     pagecolor="#ffffff"
     bordercolor="#666666"
     borderopacity="1.0"
     inkscape:pageopacity="0.0"
     inkscape:pageshadow="2"
     inkscape:zoom="0.49497474"
     inkscape:cx="439.41636"
     inkscape:cy="502.04582"
     inkscape:document-units="mm"
     inkscape:current-layer="layer1"
     inkscape:document-rotation="0"
     showgrid="false"
     units="px"
     showguides="true"
     inkscape:guide-bbox="true"
     inkscape:window-width="1366"
     inkscape:window-height="740"
     inkscape:window-x="0"
     inkscape:window-y="28"
     inkscape:window-maximized="0"
     inkscape:pagecheckerboard="0"
     inkscape:snap-bbox="true"
     inkscape:bbox-nodes="true"
     inkscape:snap-midpoints="true">
    <sodipodi:guide
       position="-5.0862631e-06,52.916663"
       orientation="0,-1"
       id="guide1048" />
    <sodipodi:guide
       position="75.848259,211.66667"
       orientation="0,-1"
       id="guide144" />
    <sodipodi:guide
       position="211.66667,269.38659"
       orientation="1,0"
       id="guide146" />
    <sodipodi:guide
       position="52.916667,269.38659"
       orientation="1,0"
       id="guide148" />
    <sodipodi:guide
       position="132.29166,211.66667"
       orientation="1,0"
       id="guide133" />
    <sodipodi:guide
       position="52.916666,132.29167"
       orientation="0,-1"
       id="guide135" />
  </sodipodi:namedview>
  <metadata
     id="metadata218">
    <rdf:RDF>
      <cc:Work
         rdf:about="">
        <dc:format>image/svg+xml</dc:format>
        <dc:type
           rdf:resource="http://purl.org/dc/dcmitype/StillImage" />
      </cc:Work>
    </rdf:RDF>
  </metadata>
  <g
     inkscape:label="Layer 1"
     inkscape:groupmode="layer"
     id="layer1">
    <path
       id="text1814-7-5-3-1-2-3"
       style="font-size:72.1127px;line-height:1.25;font-family:sans-serif;direction:rtl;display:inline;stroke-width:0.433633"
       d="m 71.430703,52.916665 c -10.179624,0 -18.514036,8.334005 -18.514036,18.513723 V 193.15295 c 0,10.17972 8.334412,18.51372 18.514036,18.51372 H 193.15281 c 10.18015,0 18.51386,-8.334 18.51386,-18.51372 V 71.430388 c 0,-10.179718 -8.33371,-18.513723 -18.51386,-18.513723 z m 0,8.817963 H 193.15281 c 5.44868,0 9.69702,4.247488 9.69702,9.69576 V 193.15295 c 0,5.44827 -4.24834,9.69576 -9.69702,9.69576 H 71.430703 c -5.448324,0 -9.697198,-4.24749 -9.697198,-9.69576 V 71.430388 c 0,-5.448272 4.248874,-9.69576 9.697198,-9.69576 z m 55.644237,17.640546 v 39.998056 l -24.34671,-24.09857 -7.453172,7.45344 29.563972,29.56404 -29.563972,29.5631 7.453172,7.45344 24.34671,-24.34654 v 40.24602 h 5.21673 l 30.30974,-30.05985 -22.85604,-22.85617 22.85604,-22.85618 -30.30974,-30.060786 z m 10.43451,20.123445 9.93744,9.937341 -9.93744,9.93727 z m -42.234392,22.110601 -10.68304,10.68292 10.68304,10.68203 10.433982,-10.68203 z m 74.034282,0 -10.43398,10.68292 10.43398,10.68203 10.68215,-10.68203 z m -31.79989,23.35292 9.93744,10.18617 -9.93744,9.93734 z" />
  </g>
</svg>
