<?xml version="1.0" encoding="UTF-8" standalone="no"?>
<svg
   width="1000"
   height="1000"
   viewBox="0 0 264.58333 264.58334"
   version="1.1"
   id="svg221"
   inkscape:version="1.1.1 (3bf5ae0d25, 2021-09-20)"
   sodipodi:docname="bt speacker.svg"
   xmlns:inkscape="http://www.inkscape.org/namespaces/inkscape"
   xmlns:sodipodi="http://sodipodi.sourceforge.net/DTD/sodipodi-0.dtd"
   xmlns="http://www.w3.org/2000/svg"
   xmlns:svg="http://www.w3.org/2000/svg"
   xmlns:rdf="http://www.w3.org/1999/02/22-rdf-syntax-ns#"
   xmlns:cc="http://creativecommons.org/ns#"
   xmlns:dc="http://purl.org/dc/elements/1.1/">
  <defs
     id="defs215" />
  <sodipodi:namedview
     id="base"
     pagecolor="#ffffff"
     bordercolor="#666666"
     borderopacity="1.0"
     inkscape:pageopacity="0.0"
     inkscape:pageshadow="2"
     inkscape:zoom="0.49497474"
     inkscape:cx="439.41636"
     inkscape:cy="502.04582"
     inkscape:document-units="mm"
     inkscape:current-layer="layer1"
     inkscape:document-rotation="0"
     showgrid="false"
     units="px"
     showguides="true"
     inkscape:guide-bbox="true"
     inkscape:window-width="1366"
     inkscape:window-height="740"
     inkscape:window-x="0"
     inkscape:window-y="28"
     inkscape:window-maximized="0"
     inkscape:pagecheckerboard="0"
     inkscape:snap-bbox="true"
     inkscape:bbox-nodes="true"
     inkscape:snap-midpoints="true">
    <sodipodi:guide
       position="-5.0862631e-06,52.916663"
       orientation="0,-1"
       id="guide1048" />
    <sodipodi:guide
       position="75.848259,211.66667"
       orientation="0,-1"
       id="guide144" />
    <sodipodi:guide
       position="211.66667,269.38659"
       orientation="1,0"
       id="guide146" />
    <sodipodi:guide
       position="52.916667,269.38659"
       orientation="1,0"
       id="guide148" />
    <sodipodi:guide
       position="132.29166,211.66667"
       orientation="1,0"
       id="guide133" />
    <sodipodi:guide
       position="52.916666,132.29167"
       orientation="0,-1"
       id="guide135" />
  </sodipodi:namedview>
  <metadata
     id="metadata218">
    <rdf:RDF>
      <cc:Work
         rdf:about="">
        <dc:format>image/svg+xml</dc:format>
        <dc:type
           rdf:resource="http://purl.org/dc/dcmitype/StillImage" />
      </cc:Work>
    </rdf:RDF>
  </metadata>
  <g
     inkscape:label="Layer 1"
     inkscape:groupmode="layer"
     id="layer1">
    <path
       id="text1814-7-9-1-7-3-0-2"
       style="font-size:72.1127px;line-height:1.25;font-family:sans-serif;direction:rtl;display:inline;stroke-width:0.433634"
       d="m 71.429997,52.916665 c -10.179624,0 -18.51333,8.334052 -18.51333,18.513826 V 193.15279 c 0,10.17978 8.333706,18.51388 18.51333,18.51388 H 193.15281 c 10.17962,0 18.51386,-8.3341 18.51386,-18.51388 V 71.430491 c 0,-10.179774 -8.33424,-18.513826 -18.51386,-18.513826 z m 0,8.81713 H 193.15281 c 5.44815,0 9.69649,4.248394 9.69649,9.696696 V 193.15279 c 0,5.44832 -4.24834,9.69675 -9.69649,9.69675 H 71.429997 c -5.448147,0 -9.696492,-4.24843 -9.696492,-9.69675 V 71.430491 c 0,-5.448302 4.248345,-9.696696 9.696492,-9.696696 z m 44.961723,17.641526 v 39.997399 l -24.346709,-24.097825 -7.453169,7.452595 29.563968,29.56416 -29.563968,29.56419 7.453169,7.45255 24.346709,-24.34662 v 40.24713 h 5.21761 L 151.9182,155.14794 129.06215,132.29165 151.9182,109.43534 121.60933,79.375321 Z m 10.68322,20.122675 9.93727,9.937344 -9.93727,9.93738 z m 45.21503,4.720734 -6.70792,6.95579 c 3.31224,6.2937 4.96854,13.33281 4.96854,21.11713 0,7.7843 -1.6563,14.82341 -4.96854,21.11715 l 6.21085,6.45899 c 5.30034,-8.28117 8.03279,-17.63858 8.19859,-28.07289 -0.1658,-10.26869 -2.73298,-19.46058 -7.70152,-27.57617 z m -15.89994,15.89959 -12.17336,12.17333 12.17336,12.42217 c 1.49067,-3.97496 2.23591,-8.11597 2.23591,-12.42217 0,-4.30622 -0.74524,-8.36397 -2.23591,-12.17333 z m -29.31509,24.84345 9.93727,10.18617 -9.93727,9.9374 z" />
  </g>
</svg>
