<?xml version="1.0" encoding="UTF-8" standalone="no"?>
<svg
   width="1000"
   height="1000"
   viewBox="0 0 264.58333 264.58334"
   version="1.1"
   id="svg221"
   inkscape:version="1.1.1 (3bf5ae0d25, 2021-09-20)"
   sodipodi:docname="C.svg"
   xmlns:inkscape="http://www.inkscape.org/namespaces/inkscape"
   xmlns:sodipodi="http://sodipodi.sourceforge.net/DTD/sodipodi-0.dtd"
   xmlns="http://www.w3.org/2000/svg"
   xmlns:svg="http://www.w3.org/2000/svg"
   xmlns:rdf="http://www.w3.org/1999/02/22-rdf-syntax-ns#"
   xmlns:cc="http://creativecommons.org/ns#"
   xmlns:dc="http://purl.org/dc/elements/1.1/">
  <defs
     id="defs215" />
  <sodipodi:namedview
     id="base"
     pagecolor="#ffffff"
     bordercolor="#666666"
     borderopacity="1.0"
     inkscape:pageopacity="0.0"
     inkscape:pageshadow="2"
     inkscape:zoom="0.49497474"
     inkscape:cx="344.46202"
     inkscape:cy="651.5484"
     inkscape:document-units="mm"
     inkscape:current-layer="layer1"
     inkscape:document-rotation="0"
     showgrid="false"
     units="px"
     showguides="true"
     inkscape:guide-bbox="true"
     inkscape:window-width="1366"
     inkscape:window-height="740"
     inkscape:window-x="0"
     inkscape:window-y="28"
     inkscape:window-maximized="0"
     inkscape:pagecheckerboard="0"
     inkscape:snap-bbox="true"
     inkscape:bbox-nodes="true"
     inkscape:snap-midpoints="true">
    <sodipodi:guide
       position="-5.0862631e-06,52.916663"
       orientation="0,-1"
       id="guide1048" />
    <sodipodi:guide
       position="-5.0862631e-06,211.66667"
       orientation="0,-1"
       id="guide144" />
    <sodipodi:guide
       position="211.66667,269.38659"
       orientation="1,0"
       id="guide146" />
    <sodipodi:guide
       position="52.916667,269.38659"
       orientation="1,0"
       id="guide148" />
    <sodipodi:guide
       position="132.29166,211.66667"
       orientation="1,0"
       id="guide133" />
    <sodipodi:guide
       position="52.916666,132.29167"
       orientation="0,-1"
       id="guide135" />
  </sodipodi:namedview>
  <metadata
     id="metadata218">
    <rdf:RDF>
      <cc:Work
         rdf:about="">
        <dc:format>image/svg+xml</dc:format>
        <dc:type
           rdf:resource="http://purl.org/dc/dcmitype/StillImage" />
      </cc:Work>
    </rdf:RDF>
  </metadata>
  <g
     inkscape:label="Layer 1"
     inkscape:groupmode="layer"
     id="layer1">
    <path
       id="text1950-3-2-7-8-9-0-1-4-2-9-3-5-2-3-5"
       style="font-style:normal;font-variant:normal;font-weight:normal;font-stretch:normal;font-size:82.1392px;line-height:1.25;font-family:vi;-inkscape-font-specification:vi;direction:rtl;display:inline;fill:#000000;stroke-width:0.543319"
       d="m 71.430703,52.916665 c -10.179624,0 -18.514036,8.334005 -18.514036,18.51374 V 193.1529 c 0,10.17973 8.334412,18.51377 18.514036,18.51377 H 193.15281 c 10.18015,0 18.51386,-8.33404 18.51386,-18.51377 V 71.430405 c 0,-10.179735 -8.33371,-18.51374 -18.51386,-18.51374 z m 0,8.817963 H 193.15281 c 5.44868,0 9.69702,4.247488 9.69702,9.695777 V 193.1529 c 0,5.44828 -4.24834,9.69576 -9.69702,9.69576 H 71.430703 c -5.448324,0 -9.697198,-4.24748 -9.697198,-9.69576 V 71.430405 c 0,-5.448289 4.248874,-9.695777 9.697198,-9.695777 z M 134.0956,79.375121 c -8.25362,0 -15.51629,1.957472 -21.78871,5.871957 -6.27294,3.867354 -11.13089,9.432236 -14.573665,16.695302 -3.395678,7.26308 -5.094487,15.68215 -5.094487,25.25621 v 9.90359 c 0,14.62045 3.655147,26.29337 10.965622,35.01846 7.35738,8.72515 17.12073,13.08752 29.28897,13.08752 11.22491,0 20.20932,-2.94722 26.95358,-8.8426 6.79153,-5.94251 10.82327,-14.36159 12.09681,-25.25621 H 158.2901 c -1.32081,8.48931 -4.00811,14.45558 -8.06419,17.89849 -4.0088,3.39571 -9.78662,5.09356 -17.33258,5.09356 -8.39491,0 -14.92786,-3.30079 -19.59672,-9.9036 -4.66921,-6.60279 -7.00319,-15.49328 -7.00319,-26.6709 v -9.97466 c 0,-11.83784 2.45199,-20.96405 7.35703,-27.37821 4.95214,-6.414106 11.76731,-9.621009 20.44515,-9.621009 7.07464,0 12.56954,1.838692 16.48415,5.517416 3.96136,3.678671 6.53136,9.621923 7.71035,17.828243 h 13.65362 c -1.08462,-10.80025 -4.9278,-19.242385 -11.5306,-25.326396 -6.60297,-6.13116 -15.37588,-9.197163 -26.31752,-9.197163 z" />
  </g>
</svg>
