<?xml version="1.0" encoding="UTF-8" standalone="no"?>
<svg
   width="1000"
   height="1000"
   viewBox="0 0 264.58333 264.58334"
   version="1.1"
   id="svg221"
   inkscape:version="1.1.1 (3bf5ae0d25, 2021-09-20)"
   sodipodi:docname="calendar.svg"
   xmlns:inkscape="http://www.inkscape.org/namespaces/inkscape"
   xmlns:sodipodi="http://sodipodi.sourceforge.net/DTD/sodipodi-0.dtd"
   xmlns="http://www.w3.org/2000/svg"
   xmlns:svg="http://www.w3.org/2000/svg"
   xmlns:rdf="http://www.w3.org/1999/02/22-rdf-syntax-ns#"
   xmlns:cc="http://creativecommons.org/ns#"
   xmlns:dc="http://purl.org/dc/elements/1.1/">
  <defs
     id="defs215" />
  <sodipodi:namedview
     id="base"
     pagecolor="#ffffff"
     bordercolor="#666666"
     borderopacity="1.0"
     inkscape:pageopacity="0.0"
     inkscape:pageshadow="2"
     inkscape:zoom="0.49497474"
     inkscape:cx="439.41636"
     inkscape:cy="502.04582"
     inkscape:document-units="mm"
     inkscape:current-layer="layer1"
     inkscape:document-rotation="0"
     showgrid="false"
     units="px"
     showguides="true"
     inkscape:guide-bbox="true"
     inkscape:window-width="1366"
     inkscape:window-height="740"
     inkscape:window-x="0"
     inkscape:window-y="28"
     inkscape:window-maximized="0"
     inkscape:pagecheckerboard="0"
     inkscape:snap-bbox="true"
     inkscape:bbox-nodes="true"
     inkscape:snap-midpoints="true">
    <sodipodi:guide
       position="-5.0862631e-06,52.916663"
       orientation="0,-1"
       id="guide1048" />
    <sodipodi:guide
       position="75.848259,211.66667"
       orientation="0,-1"
       id="guide144" />
    <sodipodi:guide
       position="211.66667,269.38659"
       orientation="1,0"
       id="guide146" />
    <sodipodi:guide
       position="52.916667,269.38659"
       orientation="1,0"
       id="guide148" />
    <sodipodi:guide
       position="132.29166,211.66667"
       orientation="1,0"
       id="guide133" />
    <sodipodi:guide
       position="52.916666,132.29167"
       orientation="0,-1"
       id="guide135" />
  </sodipodi:namedview>
  <metadata
     id="metadata218">
    <rdf:RDF>
      <cc:Work
         rdf:about="">
        <dc:format>image/svg+xml</dc:format>
        <dc:type
           rdf:resource="http://purl.org/dc/dcmitype/StillImage" />
      </cc:Work>
    </rdf:RDF>
  </metadata>
  <g
     inkscape:label="Layer 1"
     inkscape:groupmode="layer"
     id="layer1">
    <path
       id="text1814-7-9-3-8-1-9-8-5"
       style="font-size:71.9438px;line-height:1.25;font-family:sans-serif;direction:rtl;display:inline;stroke-width:0.432617"
       d="m 71.430403,52.916665 c -10.179556,0 -18.513736,8.334052 -18.513736,18.513843 V 193.15279 c 0,10.17983 8.33418,18.51388 18.513736,18.51388 H 193.15293 c 10.17974,0 18.51374,-8.33405 18.51374,-18.51388 V 71.430508 c 0,-10.179791 -8.334,-18.513843 -18.51374,-18.513843 z m 0,8.81713 H 193.15293 c 5.44847,0 9.69573,4.248394 9.69573,9.696713 V 193.15279 c 0,5.44836 -4.24726,9.69675 -9.69573,9.69675 H 71.430403 c -5.448288,0 -9.695899,-4.24839 -9.695899,-9.69675 V 71.430508 c 0,-5.448319 4.247611,-9.696713 9.695899,-9.696713 z m 29.136557,17.640591 v 10.657508 h -5.204872 c -3.139362,0 -5.701228,0.99145 -7.684012,2.974262 -1.982783,1.982847 -2.974262,4.544605 -2.974262,7.684114 v 73.86029 c 0,2.97421 1.032754,5.49377 3.098264,7.55919 2.065332,2.06547 4.585748,3.09826 7.56001,3.09826 h 73.859862 c 2.97427,0 5.4938,-1.03279 7.55931,-3.09826 2.06533,-2.06542 3.09809,-4.58498 3.09809,-7.55919 v -73.86029 c 0,-3.139509 -1.03276,-5.701267 -3.09809,-7.684114 -2.06551,-1.982812 -4.58504,-2.974262 -7.55931,-2.974262 h -5.20469 V 79.374386 h -10.65828 v 10.657508 h -42.1348 V 79.374386 Z m -5.204872,37.178094 h 73.859862 v 57.99808 H 95.362088 Z m 36.929932,21.0679 v 26.51971 h 26.51966 v -26.51971 z" />
  </g>
</svg>
