<?xml version="1.0" encoding="UTF-8" standalone="no"?>
<svg
   width="1000"
   height="1000"
   viewBox="0 0 264.58333 264.58334"
   version="1.1"
   id="svg221"
   inkscape:version="1.1.1 (3bf5ae0d25, 2021-09-20)"
   sodipodi:docname="cahtbox.svg"
   xmlns:inkscape="http://www.inkscape.org/namespaces/inkscape"
   xmlns:sodipodi="http://sodipodi.sourceforge.net/DTD/sodipodi-0.dtd"
   xmlns="http://www.w3.org/2000/svg"
   xmlns:svg="http://www.w3.org/2000/svg"
   xmlns:rdf="http://www.w3.org/1999/02/22-rdf-syntax-ns#"
   xmlns:cc="http://creativecommons.org/ns#"
   xmlns:dc="http://purl.org/dc/elements/1.1/">
  <defs
     id="defs215" />
  <sodipodi:namedview
     id="base"
     pagecolor="#ffffff"
     bordercolor="#666666"
     borderopacity="1.0"
     inkscape:pageopacity="0.0"
     inkscape:pageshadow="2"
     inkscape:zoom="0.49497474"
     inkscape:cx="439.41636"
     inkscape:cy="502.04582"
     inkscape:document-units="mm"
     inkscape:current-layer="layer1"
     inkscape:document-rotation="0"
     showgrid="false"
     units="px"
     showguides="true"
     inkscape:guide-bbox="true"
     inkscape:window-width="1366"
     inkscape:window-height="740"
     inkscape:window-x="0"
     inkscape:window-y="28"
     inkscape:window-maximized="0"
     inkscape:pagecheckerboard="0"
     inkscape:snap-bbox="true"
     inkscape:bbox-nodes="true"
     inkscape:snap-midpoints="true">
    <sodipodi:guide
       position="-5.0862631e-06,52.916663"
       orientation="0,-1"
       id="guide1048" />
    <sodipodi:guide
       position="75.848259,211.66667"
       orientation="0,-1"
       id="guide144" />
    <sodipodi:guide
       position="211.66667,269.38659"
       orientation="1,0"
       id="guide146" />
    <sodipodi:guide
       position="52.916667,269.38659"
       orientation="1,0"
       id="guide148" />
    <sodipodi:guide
       position="132.29166,211.66667"
       orientation="1,0"
       id="guide133" />
    <sodipodi:guide
       position="52.916666,132.29167"
       orientation="0,-1"
       id="guide135" />
  </sodipodi:namedview>
  <metadata
     id="metadata218">
    <rdf:RDF>
      <cc:Work
         rdf:about="">
        <dc:format>image/svg+xml</dc:format>
        <dc:type
           rdf:resource="http://purl.org/dc/dcmitype/StillImage" />
      </cc:Work>
    </rdf:RDF>
  </metadata>
  <g
     inkscape:label="Layer 1"
     inkscape:groupmode="layer"
     id="layer1">
    <path
       id="text1814-7-5-59-2"
       style="font-size:72.1127px;line-height:1.25;font-family:sans-serif;direction:rtl;display:inline;stroke-width:0.433633"
       d="m 71.430174,52.916665 c -10.179624,0 -18.513507,8.334052 -18.513507,18.513879 V 193.15285 c 0,10.17977 8.333883,18.51382 18.513507,18.51382 H 193.15281 c 10.17962,0 18.51386,-8.33405 18.51386,-18.51382 V 71.430544 c 0,-10.179827 -8.33424,-18.513879 -18.51386,-18.513879 z m 0,8.81713 H 193.15281 c 5.44815,0 9.69649,4.248394 9.69649,9.696749 V 193.15285 c 0,5.44831 -4.24834,9.69576 -9.69649,9.69576 H 71.430174 c -5.448324,0 -9.696669,-4.24745 -9.696669,-9.69576 V 71.430544 c 0,-5.448355 4.248345,-9.696749 9.696669,-9.696749 z m 18.378921,17.640591 c -2.981161,0 -5.465963,0.994114 -7.453169,2.9816 -1.987558,1.987469 -2.981691,4.471333 -2.981691,7.452598 v 95.399426 l 21.117195,-21.1171 h 74.28228 c 2.98134,0 5.46596,-1.03528 7.4537,-3.10555 1.98721,-2.07032 2.98116,-4.59533 2.98116,-7.57655 V 89.808584 c 0,-2.981265 -0.99395,-5.465129 -2.98116,-7.452598 -1.98774,-1.987486 -4.47236,-2.9816 -7.4537,-2.9816 z" />
  </g>
</svg>
