<?xml version="1.0" encoding="UTF-8" standalone="no"?>
<svg
   width="1000"
   height="1000"
   viewBox="0 0 264.58333 264.58334"
   version="1.1"
   id="svg221"
   inkscape:version="1.1.1 (3bf5ae0d25, 2021-09-20)"
   sodipodi:docname="check.svg"
   xmlns:inkscape="http://www.inkscape.org/namespaces/inkscape"
   xmlns:sodipodi="http://sodipodi.sourceforge.net/DTD/sodipodi-0.dtd"
   xmlns="http://www.w3.org/2000/svg"
   xmlns:svg="http://www.w3.org/2000/svg"
   xmlns:rdf="http://www.w3.org/1999/02/22-rdf-syntax-ns#"
   xmlns:cc="http://creativecommons.org/ns#"
   xmlns:dc="http://purl.org/dc/elements/1.1/">
  <defs
     id="defs215" />
  <sodipodi:namedview
     id="base"
     pagecolor="#ffffff"
     bordercolor="#666666"
     borderopacity="1.0"
     inkscape:pageopacity="0.0"
     inkscape:pageshadow="2"
     inkscape:zoom="0.49497474"
     inkscape:cx="439.41636"
     inkscape:cy="502.04582"
     inkscape:document-units="mm"
     inkscape:current-layer="layer1"
     inkscape:document-rotation="0"
     showgrid="false"
     units="px"
     showguides="true"
     inkscape:guide-bbox="true"
     inkscape:window-width="1366"
     inkscape:window-height="740"
     inkscape:window-x="0"
     inkscape:window-y="28"
     inkscape:window-maximized="0"
     inkscape:pagecheckerboard="0"
     inkscape:snap-bbox="true"
     inkscape:bbox-nodes="true"
     inkscape:snap-midpoints="true">
    <sodipodi:guide
       position="-5.0862631e-06,52.916663"
       orientation="0,-1"
       id="guide1048" />
    <sodipodi:guide
       position="75.848259,211.66667"
       orientation="0,-1"
       id="guide144" />
    <sodipodi:guide
       position="211.66667,269.38659"
       orientation="1,0"
       id="guide146" />
    <sodipodi:guide
       position="52.916667,269.38659"
       orientation="1,0"
       id="guide148" />
    <sodipodi:guide
       position="132.29166,211.66667"
       orientation="1,0"
       id="guide133" />
    <sodipodi:guide
       position="52.916666,132.29167"
       orientation="0,-1"
       id="guide135" />
  </sodipodi:namedview>
  <metadata
     id="metadata218">
    <rdf:RDF>
      <cc:Work
         rdf:about="">
        <dc:format>image/svg+xml</dc:format>
        <dc:type
           rdf:resource="http://purl.org/dc/dcmitype/StillImage" />
      </cc:Work>
    </rdf:RDF>
  </metadata>
  <g
     inkscape:label="Layer 1"
     inkscape:groupmode="layer"
     id="layer1">
    <path
       id="text1814-8-1-2-8-6-5"
       style="font-size:69.3454px;line-height:1.25;font-family:sans-serif;direction:rtl;display:inline;stroke-width:0.41699"
       d="m 71.430403,52.916665 c -10.179556,0 -18.513736,8.334005 -18.513736,18.51374 V 193.15295 c 0,10.17973 8.33418,18.51372 18.513736,18.51372 H 193.15293 c 10.17974,0 18.51374,-8.33399 18.51374,-18.51372 V 71.430405 c 0,-10.179735 -8.334,-18.51374 -18.51374,-18.51374 z m 0,8.817963 H 193.15293 c 5.44847,0 9.69573,4.247488 9.69573,9.695777 V 193.15295 c 0,5.44829 -4.24726,9.69576 -9.69573,9.69576 H 71.430403 c -5.448288,0 -9.695722,-4.24747 -9.695722,-9.69576 V 71.430405 c 0,-5.448289 4.247434,-9.695777 9.695722,-9.695777 z m 97.951177,30.003389 c -1.83161,0 -3.38471,0.63731 -4.65877,1.911434 L 119.9293,138.50319 99.861406,118.37605 c -1.27423,-1.27412 -2.827155,-1.91143 -4.658773,-1.91143 -1.791754,0 -3.324394,0.63731 -4.598624,1.91143 l -9.31737,9.25732 c -1.27423,1.27416 -1.911522,2.82719 -1.911522,4.65877 0,1.83155 0.637292,3.38368 1.911522,4.65779 l 24.726491,24.72666 9.2574,9.25729 c 1.27405,1.27413 2.82715,1.91146 4.65877,1.91146 1.83144,0 3.38366,-0.63733 4.65772,-1.91146 l 9.25739,-9.25729 49.45317,-49.45231 c 1.27423,-1.27418 1.91046,-2.8272 1.91046,-4.65878 0,-1.79174 -0.63623,-3.32441 -1.91046,-4.59859 l -9.31737,-9.317459 c -1.27423,-1.274124 -2.80687,-1.911434 -4.59863,-1.911434 z" />
  </g>
</svg>
