<?xml version="1.0" encoding="UTF-8" standalone="no"?>
<svg
   width="1000"
   height="1000"
   viewBox="0 0 264.58333 264.58334"
   version="1.1"
   id="svg221"
   inkscape:version="1.1.1 (3bf5ae0d25, 2021-09-20)"
   sodipodi:docname="D.svg"
   xmlns:inkscape="http://www.inkscape.org/namespaces/inkscape"
   xmlns:sodipodi="http://sodipodi.sourceforge.net/DTD/sodipodi-0.dtd"
   xmlns="http://www.w3.org/2000/svg"
   xmlns:svg="http://www.w3.org/2000/svg"
   xmlns:rdf="http://www.w3.org/1999/02/22-rdf-syntax-ns#"
   xmlns:cc="http://creativecommons.org/ns#"
   xmlns:dc="http://purl.org/dc/elements/1.1/">
  <defs
     id="defs215" />
  <sodipodi:namedview
     id="base"
     pagecolor="#ffffff"
     bordercolor="#666666"
     borderopacity="1.0"
     inkscape:pageopacity="0.0"
     inkscape:pageshadow="2"
     inkscape:zoom="0.49497474"
     inkscape:cx="344.46202"
     inkscape:cy="651.5484"
     inkscape:document-units="mm"
     inkscape:current-layer="layer1"
     inkscape:document-rotation="0"
     showgrid="false"
     units="px"
     showguides="true"
     inkscape:guide-bbox="true"
     inkscape:window-width="1366"
     inkscape:window-height="740"
     inkscape:window-x="0"
     inkscape:window-y="28"
     inkscape:window-maximized="0"
     inkscape:pagecheckerboard="0"
     inkscape:snap-bbox="true"
     inkscape:bbox-nodes="true"
     inkscape:snap-midpoints="true">
    <sodipodi:guide
       position="-5.0862631e-06,52.916663"
       orientation="0,-1"
       id="guide1048" />
    <sodipodi:guide
       position="-5.0862631e-06,211.66667"
       orientation="0,-1"
       id="guide144" />
    <sodipodi:guide
       position="211.66667,269.38659"
       orientation="1,0"
       id="guide146" />
    <sodipodi:guide
       position="52.916667,269.38659"
       orientation="1,0"
       id="guide148" />
    <sodipodi:guide
       position="132.29166,211.66667"
       orientation="1,0"
       id="guide133" />
    <sodipodi:guide
       position="52.916666,132.29167"
       orientation="0,-1"
       id="guide135" />
  </sodipodi:namedview>
  <metadata
     id="metadata218">
    <rdf:RDF>
      <cc:Work
         rdf:about="">
        <dc:format>image/svg+xml</dc:format>
        <dc:type
           rdf:resource="http://purl.org/dc/dcmitype/StillImage" />
      </cc:Work>
    </rdf:RDF>
  </metadata>
  <g
     inkscape:label="Layer 1"
     inkscape:groupmode="layer"
     id="layer1">
    <path
       id="text1950-3-2-7-8-9-0-1-4-2-9-3-5-0-5"
       style="font-style:normal;font-variant:normal;font-weight:normal;font-stretch:normal;font-size:84.3956px;line-height:1.25;font-family:vi;-inkscape-font-specification:vi;direction:rtl;display:inline;fill:#000000;stroke-width:0.558241"
       d="m 71.43058,52.916665 c -10.179557,0 -18.513913,8.334005 -18.513913,18.51374 V 193.1529 c 0,10.17973 8.334356,18.51377 18.513913,18.51377 h 121.72271 c 10.1792,0 18.51338,-8.33404 18.51338,-18.51377 V 71.430405 c 0,-10.179735 -8.33418,-18.51374 -18.51338,-18.51374 z m 0,8.817963 h 121.72271 c 5.44775,0 9.6966,4.247488 9.6966,9.695777 V 193.1529 c 0,5.44828 -4.24885,9.69576 -9.6966,9.69576 H 71.43058 c -5.448288,0 -9.695723,-4.24748 -9.695723,-9.69576 V 71.430405 c 0,-5.448289 4.247435,-9.695777 9.695723,-9.695777 z M 94.022241,79.375121 V 185.20816 H 123.3149 c 9.49764,-0.097 17.80801,-2.15617 24.93164,-6.17824 7.17178,-4.02203 12.67175,-9.78855 16.50008,-17.29958 3.87685,-7.51107 5.81536,-16.25825 5.81536,-26.24065 v -6.75979 c -0.0494,-9.7401 -2.01048,-18.36587 -5.88732,-25.8769 -3.82834,-7.511083 -9.28015,-13.301125 -16.35527,-17.371643 -7.07512,-4.0705 -15.21616,-6.106236 -24.42311,-6.106236 z m 13.955679,11.485081 h 16.2819 c 10.3704,0.09684 18.36539,3.488877 23.98672,10.176138 5.66948,6.63877 8.5051,15.96665 8.5051,27.98436 v 6.17825 c 0,12.3568 -3.00513,21.87953 -9.01381,28.56679 -5.96016,6.68727 -14.31869,10.0303 -25.07645,10.0303 h -14.68346 z" />
  </g>
</svg>
