<?xml version="1.0" encoding="UTF-8" standalone="no"?>
<svg
   width="1000"
   height="1000"
   viewBox="0 0 264.58333 264.58334"
   version="1.1"
   id="svg221"
   inkscape:version="1.1.1 (3bf5ae0d25, 2021-09-20)"
   sodipodi:docname="download disk.svg"
   xmlns:inkscape="http://www.inkscape.org/namespaces/inkscape"
   xmlns:sodipodi="http://sodipodi.sourceforge.net/DTD/sodipodi-0.dtd"
   xmlns="http://www.w3.org/2000/svg"
   xmlns:svg="http://www.w3.org/2000/svg"
   xmlns:rdf="http://www.w3.org/1999/02/22-rdf-syntax-ns#"
   xmlns:cc="http://creativecommons.org/ns#"
   xmlns:dc="http://purl.org/dc/elements/1.1/">
  <defs
     id="defs215" />
  <sodipodi:namedview
     id="base"
     pagecolor="#ffffff"
     bordercolor="#666666"
     borderopacity="1.0"
     inkscape:pageopacity="0.0"
     inkscape:pageshadow="2"
     inkscape:zoom="0.69999999"
     inkscape:cx="507.85715"
     inkscape:cy="563.57144"
     inkscape:document-units="mm"
     inkscape:current-layer="layer1"
     inkscape:document-rotation="0"
     showgrid="false"
     units="px"
     showguides="true"
     inkscape:guide-bbox="true"
     inkscape:window-width="1366"
     inkscape:window-height="740"
     inkscape:window-x="0"
     inkscape:window-y="28"
     inkscape:window-maximized="0"
     inkscape:pagecheckerboard="0"
     inkscape:snap-bbox="true"
     inkscape:bbox-nodes="true"
     inkscape:snap-midpoints="true">
    <sodipodi:guide
       position="-5.0862631e-06,52.916663"
       orientation="0,-1"
       id="guide1048" />
    <sodipodi:guide
       position="75.848259,211.66667"
       orientation="0,-1"
       id="guide144" />
    <sodipodi:guide
       position="211.66667,269.38659"
       orientation="1,0"
       id="guide146" />
    <sodipodi:guide
       position="52.916667,269.38659"
       orientation="1,0"
       id="guide148" />
    <sodipodi:guide
       position="132.29166,211.66667"
       orientation="1,0"
       id="guide133" />
    <sodipodi:guide
       position="52.916666,132.29167"
       orientation="0,-1"
       id="guide135" />
  </sodipodi:namedview>
  <metadata
     id="metadata218">
    <rdf:RDF>
      <cc:Work
         rdf:about="">
        <dc:format>image/svg+xml</dc:format>
        <dc:type
           rdf:resource="http://purl.org/dc/dcmitype/StillImage" />
      </cc:Work>
    </rdf:RDF>
  </metadata>
  <g
     inkscape:label="Layer 1"
     inkscape:groupmode="layer"
     id="layer1">
    <path
       id="text1814-7-9-1-7-6-9-43-0"
       style="font-size:64.6057px;line-height:1.25;font-family:sans-serif;direction:rtl;display:inline;stroke-width:0.38849"
       d="m 71.430506,52.916665 c -10.179436,0 -18.513839,8.334004 -18.513839,18.513738 V 193.15293 c 0,10.17956 8.334403,18.51374 18.513839,18.51374 H 193.15283 c 10.17979,0 18.51384,-8.33418 18.51384,-18.51374 V 71.430403 c 0,-10.179734 -8.33405,-18.513738 -18.51384,-18.513738 z m 0,8.818015 H 193.15283 c 5.44832,0 9.69666,4.247435 9.69666,9.695723 V 193.15293 c 0,5.44811 -4.24834,9.69573 -9.69666,9.69573 H 71.430506 c -5.448142,0 -9.697011,-4.24762 -9.697011,-9.69573 V 71.430403 c 0,-5.448288 4.248869,-9.695723 9.697011,-9.695723 z m 52.736924,21.757699 c -1.11319,0 -2.07734,0.389642 -2.89314,1.168574 -0.81633,0.779108 -1.22467,1.725609 -1.22467,2.838444 v 28.489393 h -16.24759 c -0.81615,0 -1.57639,0.22207 -2.2816,0.6671 -0.70467,0.4452 -1.20544,1.03928 -1.50178,1.78117 -0.705202,1.78064 -0.407985,3.26389 0.89042,4.45099 l 28.48954,28.4892 c 0.77894,0.81615 1.74308,1.22414 2.89297,1.22414 1.11319,0 2.05864,-0.40799 2.83757,-1.22414 l 28.48956,-28.4892 c 1.29822,-1.1871 1.59526,-2.67035 0.89059,-4.45099 -0.70486,-1.63212 -1.94752,-2.44827 -3.72817,-2.44827 h -16.3035 V 87.499397 c 0,-1.112835 -0.40799,-2.059336 -1.22415,-2.838444 -0.77893,-0.778932 -1.72562,-1.168574 -2.83846,-1.168574 z M 85.494921,148.59543 c -1.706216,0 -3.152433,0.59302 -4.339358,1.78011 -1.187277,1.1871 -1.781357,2.63419 -1.781357,4.34075 v 20.25363 c 0,1.70638 0.59408,3.15277 1.781357,4.33987 1.186925,1.18691 2.633142,1.78099 4.339358,1.78099 h 93.593139 c 1.70639,0 3.15261,-0.59408 4.33971,-1.78099 1.1871,-1.1871 1.78012,-2.63349 1.78012,-4.33987 v -20.25363 c 0,-1.70656 -0.59302,-3.15365 -1.78012,-4.34075 -1.1871,-1.18709 -2.63332,-1.78011 -4.33971,-1.78011 H 149.5968 l -8.68048,8.56913 c -2.44828,2.37401 -5.32326,3.56128 -8.62474,3.56128 -3.3387,0 -6.2322,-1.18727 -8.68048,-3.56128 l -8.569,-8.56913 z m 71.224489,16.24768 c 1.11284,0 2.05846,0.40798 2.83758,1.22413 0.81597,0.81615 1.22414,1.78029 1.22414,2.89313 0,1.11283 -0.40817,2.05863 -1.22414,2.83756 -0.77912,0.77893 -1.72474,1.16857 -2.83758,1.16857 -1.11284,0 -2.07805,-0.38964 -2.89402,-1.16857 -0.77912,-0.77893 -1.16858,-1.72473 -1.16858,-2.83756 0,-1.11284 0.38946,-2.07698 1.16858,-2.89313 0.81597,-0.81615 1.78118,-1.22413 2.89402,-1.22413 z m 16.24776,0 c 1.11284,0 2.05864,0.40798 2.83758,1.22413 0.81615,0.81615 1.22414,1.78029 1.22414,2.89313 0,1.11283 -0.40799,2.05863 -1.22414,2.83756 -0.77894,0.77893 -1.72474,1.16857 -2.83758,1.16857 -1.11284,0 -2.07804,-0.38964 -2.89402,-1.16857 -0.77911,-0.77893 -1.16858,-1.72473 -1.16858,-2.83756 0,-1.11284 0.38947,-2.07698 1.16858,-2.89313 0.81598,-0.81615 1.78118,-1.22413 2.89402,-1.22413 z" />
  </g>
</svg>
