<?xml version="1.0" encoding="UTF-8" standalone="no"?>
<svg
   width="1000"
   height="1000"
   viewBox="0 0 264.58333 264.58334"
   version="1.1"
   id="svg221"
   inkscape:version="1.1.1 (3bf5ae0d25, 2021-09-20)"
   sodipodi:docname="file paste.svg"
   xmlns:inkscape="http://www.inkscape.org/namespaces/inkscape"
   xmlns:sodipodi="http://sodipodi.sourceforge.net/DTD/sodipodi-0.dtd"
   xmlns="http://www.w3.org/2000/svg"
   xmlns:svg="http://www.w3.org/2000/svg"
   xmlns:rdf="http://www.w3.org/1999/02/22-rdf-syntax-ns#"
   xmlns:cc="http://creativecommons.org/ns#"
   xmlns:dc="http://purl.org/dc/elements/1.1/">
  <defs
     id="defs215" />
  <sodipodi:namedview
     id="base"
     pagecolor="#ffffff"
     bordercolor="#666666"
     borderopacity="1.0"
     inkscape:pageopacity="0.0"
     inkscape:pageshadow="2"
     inkscape:zoom="0.69999999"
     inkscape:cx="507.85715"
     inkscape:cy="449.28572"
     inkscape:document-units="mm"
     inkscape:current-layer="layer1"
     inkscape:document-rotation="0"
     showgrid="false"
     units="px"
     showguides="true"
     inkscape:guide-bbox="true"
     inkscape:window-width="1366"
     inkscape:window-height="740"
     inkscape:window-x="0"
     inkscape:window-y="28"
     inkscape:window-maximized="0"
     inkscape:pagecheckerboard="0"
     inkscape:snap-bbox="true"
     inkscape:bbox-nodes="true"
     inkscape:snap-midpoints="true">
    <sodipodi:guide
       position="-5.0862631e-06,52.916663"
       orientation="0,-1"
       id="guide1048" />
    <sodipodi:guide
       position="75.848259,211.66667"
       orientation="0,-1"
       id="guide144" />
    <sodipodi:guide
       position="211.66667,269.38659"
       orientation="1,0"
       id="guide146" />
    <sodipodi:guide
       position="52.916667,269.38659"
       orientation="1,0"
       id="guide148" />
    <sodipodi:guide
       position="132.29166,211.66667"
       orientation="1,0"
       id="guide133" />
    <sodipodi:guide
       position="52.916666,132.29167"
       orientation="0,-1"
       id="guide135" />
  </sodipodi:namedview>
  <metadata
     id="metadata218">
    <rdf:RDF>
      <cc:Work
         rdf:about="">
        <dc:format>image/svg+xml</dc:format>
        <dc:type
           rdf:resource="http://purl.org/dc/dcmitype/StillImage" />
      </cc:Work>
    </rdf:RDF>
  </metadata>
  <g
     inkscape:label="Layer 1"
     inkscape:groupmode="layer"
     id="layer1">
    <path
       id="text1814-7-9-1-7-6-4-1-3"
       style="font-size:64.6057px;line-height:1.25;font-family:sans-serif;direction:rtl;display:inline;stroke-width:0.388491"
       d="m 71.430174,52.916665 c -10.179624,0 -18.513507,8.334051 -18.513507,18.513841 V 193.15283 c 0,10.17979 8.333883,18.51384 18.513507,18.51384 H 193.15281 c 10.17962,0 18.51386,-8.33405 18.51386,-18.51384 V 71.430506 c 0,-10.17979 -8.33424,-18.513841 -18.51386,-18.513841 z m 0,8.817182 H 193.15281 c 5.44815,0 9.69649,4.248341 9.69649,9.696659 V 193.15283 c 0,5.44832 -4.24834,9.69578 -9.69649,9.69578 H 71.430174 c -5.448324,0 -9.696669,-4.24746 -9.696669,-9.69578 V 71.430506 c 0,-5.448318 4.248345,-9.696659 9.696669,-9.696659 z m 60.861496,18.364262 c -3.1161,0 -5.86073,0.890238 -8.23493,2.67089 -2.37403,1.780476 -4.08025,4.079889 -5.11918,6.899122 H 99.128644 c -2.670893,0 -4.934501,0.890238 -6.789062,2.67089 -1.854738,1.780476 -2.782018,4.006864 -2.782018,6.677754 v 76.119995 c 0,2.67071 0.92728,4.89622 2.782018,6.67669 1.854561,1.78066 4.118169,2.67178 6.789062,2.67178 h 66.326576 c 2.67089,0 4.93344,-0.89112 6.78818,-2.67178 1.85456,-1.78047 2.7829,-4.00598 2.7829,-6.67669 V 99.016765 c 0,-2.67089 -0.92834,-4.897278 -2.7829,-6.677754 -1.85474,-1.780652 -4.11729,-2.67089 -6.78818,-2.67089 h -19.80891 c -1.03894,-2.819233 -2.74515,-5.118646 -5.11936,-6.899122 -2.37403,-1.780652 -5.11954,-2.67089 -8.23528,-2.67089 z m 0,9.570012 c 1.33526,0 2.44828,0.445207 3.3387,1.335445 0.8906,0.890238 1.33527,2.003432 1.33527,3.338877 0,1.335445 -0.44467,2.448639 -1.33527,3.338877 -0.89042,0.890414 -2.00344,1.335445 -3.3387,1.335445 -1.33563,0 -2.44776,-0.445031 -3.33836,-1.335445 -0.88988,-0.890238 -1.33509,-2.003432 -1.33509,-3.338877 0,-1.335445 0.44521,-2.448639 1.33509,-3.338877 0.8906,-0.890238 2.00273,-1.335445 3.33836,-1.335445 z m -33.163026,9.348644 h 9.347416 V 113.2611 h 47.63069 V 99.016765 h 9.34847 V 175.13676 H 99.128644 Z" />
  </g>
</svg>
