<?xml version="1.0" encoding="UTF-8" standalone="no"?>
<svg
   width="1000"
   height="1000"
   viewBox="0 0 264.58333 264.58334"
   version="1.1"
   id="svg221"
   inkscape:version="1.1.1 (3bf5ae0d25, 2021-09-20)"
   sodipodi:docname="file cut.svg"
   xmlns:inkscape="http://www.inkscape.org/namespaces/inkscape"
   xmlns:sodipodi="http://sodipodi.sourceforge.net/DTD/sodipodi-0.dtd"
   xmlns="http://www.w3.org/2000/svg"
   xmlns:svg="http://www.w3.org/2000/svg"
   xmlns:rdf="http://www.w3.org/1999/02/22-rdf-syntax-ns#"
   xmlns:cc="http://creativecommons.org/ns#"
   xmlns:dc="http://purl.org/dc/elements/1.1/">
  <defs
     id="defs215" />
  <sodipodi:namedview
     id="base"
     pagecolor="#ffffff"
     bordercolor="#666666"
     borderopacity="1.0"
     inkscape:pageopacity="0.0"
     inkscape:pageshadow="2"
     inkscape:zoom="0.69999999"
     inkscape:cx="507.85715"
     inkscape:cy="563.57144"
     inkscape:document-units="mm"
     inkscape:current-layer="layer1"
     inkscape:document-rotation="0"
     showgrid="false"
     units="px"
     showguides="true"
     inkscape:guide-bbox="true"
     inkscape:window-width="1366"
     inkscape:window-height="740"
     inkscape:window-x="0"
     inkscape:window-y="28"
     inkscape:window-maximized="0"
     inkscape:pagecheckerboard="0"
     inkscape:snap-bbox="true"
     inkscape:bbox-nodes="true"
     inkscape:snap-midpoints="true">
    <sodipodi:guide
       position="-5.0862631e-06,52.916663"
       orientation="0,-1"
       id="guide1048" />
    <sodipodi:guide
       position="75.848259,211.66667"
       orientation="0,-1"
       id="guide144" />
    <sodipodi:guide
       position="211.66667,269.38659"
       orientation="1,0"
       id="guide146" />
    <sodipodi:guide
       position="52.916667,269.38659"
       orientation="1,0"
       id="guide148" />
    <sodipodi:guide
       position="132.29166,211.66667"
       orientation="1,0"
       id="guide133" />
    <sodipodi:guide
       position="52.916666,132.29167"
       orientation="0,-1"
       id="guide135" />
  </sodipodi:namedview>
  <metadata
     id="metadata218">
    <rdf:RDF>
      <cc:Work
         rdf:about="">
        <dc:format>image/svg+xml</dc:format>
        <dc:type
           rdf:resource="http://purl.org/dc/dcmitype/StillImage" />
      </cc:Work>
    </rdf:RDF>
  </metadata>
  <g
     inkscape:label="Layer 1"
     inkscape:groupmode="layer"
     id="layer1">
    <path
       id="text1814-7-9-1-7-6-7-5-4"
       style="font-size:72.2823px;line-height:1.25;font-family:sans-serif;direction:rtl;display:inline;stroke-width:0.434651"
       d="m 71.430247,52.916665 c -10.179567,0 -18.51358,8.33406 -18.51358,18.513862 V 193.15281 c 0,10.1798 8.334013,18.51386 18.51358,18.51386 H 193.15291 c 10.17975,0 18.51376,-8.33406 18.51376,-18.51386 V 71.430527 c 0,-10.179802 -8.33401,-18.513862 -18.51376,-18.513862 z m 0,8.817015 H 193.15291 c 5.44847,0 9.69574,4.248522 9.69574,9.696847 V 193.15281 c 0,5.44832 -4.24727,9.69685 -9.69574,9.69685 H 71.430247 c -5.448293,0 -9.695733,-4.24853 -9.695733,-9.69685 V 71.430527 c 0,-5.448325 4.24744,-9.696847 9.695733,-9.696847 z m 28.862303,17.765617 c -5.976576,0 -10.956381,1.992498 -14.940649,5.976788 -3.984268,3.98429 -5.976754,8.964124 -5.976754,14.940735 0,5.97644 1.992486,10.95733 5.976754,14.94162 3.984268,3.98429 8.964073,6.05969 14.940649,6.22567 3.15418,0 6.05966,-0.58173 8.7159,-1.74379 l 12.45127,12.45135 -12.45127,12.45134 c -2.65624,-1.16205 -5.56172,-1.74379 -8.7159,-1.74379 -5.976576,0.16581 -10.956381,2.24139 -14.940649,6.22568 -3.984268,3.98446 -5.976754,8.96518 -5.976754,14.94161 0,5.97662 1.992486,10.95645 5.976754,14.94074 3.984268,3.98447 8.964073,5.97679 14.940649,5.97679 5.9764,0 10.95709,-1.99232 14.94154,-5.97679 3.98426,-3.98429 6.05965,-8.96412 6.22563,-14.94074 0,-3.1542 -0.58173,-6.05969 -1.74377,-8.71594 l 12.45127,-12.45135 37.10407,37.10428 h 15.9369 v -5.22925 l -65.49224,-65.74149 c 1.16204,-2.65625 1.74377,-5.56174 1.74377,-8.71594 -0.1658,-5.976611 -2.24137,-10.956445 -6.22563,-14.940735 -3.98445,-3.98429 -8.96514,-5.976788 -14.94154,-5.976788 z m 68.97874,4.980539 -31.87467,31.874854 10.7075,10.70756 37.10407,-37.353165 v -5.229249 z m -68.97874,5.478135 c 2.9882,0 5.47863,0.996778 7.47077,2.988923 1.99213,1.992145 2.98785,4.481709 2.98785,7.469926 0,2.98822 -0.99572,5.47866 -2.98785,7.47081 -1.99214,1.99214 -4.48257,3.07165 -7.47077,3.23763 -2.988199,-0.1658 -5.478631,-1.24549 -7.470764,-3.23763 -1.992134,-1.99215 -2.988025,-4.48259 -2.988025,-7.47081 0,-2.988217 0.995891,-5.477781 2.988025,-7.469926 1.992133,-1.992145 4.482565,-2.988923 7.470764,-2.988923 z m 31.87467,39.843429 c 1.66017,0 2.49026,0.83009 2.49026,2.49027 0,1.66018 -0.83009,2.57318 -2.49026,2.73916 -1.66017,-0.16581 -2.49025,-1.07898 -2.49025,-2.73916 0,-1.66018 0.83008,-2.49027 2.49025,-2.49027 z m -31.87467,23.90644 c 2.9882,0 5.47863,0.99572 7.47077,2.98787 1.99213,1.99214 2.98785,4.48259 2.98785,7.4708 0,2.9884 -0.99572,5.47779 -2.98785,7.46993 -1.99214,1.99215 -4.48257,3.07165 -7.47077,3.23781 -2.988199,-0.16581 -5.478631,-1.24566 -7.470764,-3.23781 -1.992134,-1.99214 -2.988025,-4.48153 -2.988025,-7.46993 0,-2.98821 0.995891,-5.47866 2.988025,-7.4708 1.992133,-1.99215 4.482565,-2.98787 7.470764,-2.98787 z" />
  </g>
</svg>
