<?xml version="1.0" encoding="UTF-8" standalone="no"?>
<svg
   width="1000"
   height="1000"
   viewBox="0 0 264.58333 264.58334"
   version="1.1"
   id="svg221"
   inkscape:version="1.1.1 (3bf5ae0d25, 2021-09-20)"
   sodipodi:docname="file move to.svg"
   xmlns:inkscape="http://www.inkscape.org/namespaces/inkscape"
   xmlns:sodipodi="http://sodipodi.sourceforge.net/DTD/sodipodi-0.dtd"
   xmlns="http://www.w3.org/2000/svg"
   xmlns:svg="http://www.w3.org/2000/svg"
   xmlns:rdf="http://www.w3.org/1999/02/22-rdf-syntax-ns#"
   xmlns:cc="http://creativecommons.org/ns#"
   xmlns:dc="http://purl.org/dc/elements/1.1/">
  <defs
     id="defs215" />
  <sodipodi:namedview
     id="base"
     pagecolor="#ffffff"
     bordercolor="#666666"
     borderopacity="1.0"
     inkscape:pageopacity="0.0"
     inkscape:pageshadow="2"
     inkscape:zoom="0.69999999"
     inkscape:cx="507.85715"
     inkscape:cy="449.28572"
     inkscape:document-units="mm"
     inkscape:current-layer="layer1"
     inkscape:document-rotation="0"
     showgrid="false"
     units="px"
     showguides="true"
     inkscape:guide-bbox="true"
     inkscape:window-width="1366"
     inkscape:window-height="740"
     inkscape:window-x="0"
     inkscape:window-y="28"
     inkscape:window-maximized="0"
     inkscape:pagecheckerboard="0"
     inkscape:snap-bbox="true"
     inkscape:bbox-nodes="true"
     inkscape:snap-midpoints="true">
    <sodipodi:guide
       position="-5.0862631e-06,52.916663"
       orientation="0,-1"
       id="guide1048" />
    <sodipodi:guide
       position="75.848259,211.66667"
       orientation="0,-1"
       id="guide144" />
    <sodipodi:guide
       position="211.66667,269.38659"
       orientation="1,0"
       id="guide146" />
    <sodipodi:guide
       position="52.916667,269.38659"
       orientation="1,0"
       id="guide148" />
    <sodipodi:guide
       position="132.29166,211.66667"
       orientation="1,0"
       id="guide133" />
    <sodipodi:guide
       position="52.916666,132.29167"
       orientation="0,-1"
       id="guide135" />
  </sodipodi:namedview>
  <metadata
     id="metadata218">
    <rdf:RDF>
      <cc:Work
         rdf:about="">
        <dc:format>image/svg+xml</dc:format>
        <dc:type
           rdf:resource="http://purl.org/dc/dcmitype/StillImage" />
      </cc:Work>
    </rdf:RDF>
  </metadata>
  <g
     inkscape:label="Layer 1"
     inkscape:groupmode="layer"
     id="layer1">
    <path
       id="text1814-7-9-1-7-6-97-6-3"
       style="font-size:72.1127px;line-height:1.25;font-family:sans-serif;direction:rtl;display:inline;stroke-width:0.433633"
       d="m 71.429997,52.916665 c -10.179624,0 -18.51333,8.334051 -18.51333,18.513841 V 193.15283 c 0,10.17979 8.333706,18.51384 18.51333,18.51384 H 193.15281 c 10.17962,0 18.51386,-8.33405 18.51386,-18.51384 V 71.430506 c 0,-10.17979 -8.33424,-18.513841 -18.51386,-18.513841 z m 0,8.817182 H 193.15281 c 5.44815,0 9.69649,4.248341 9.69649,9.696659 V 193.15283 c 0,5.44832 -4.24834,9.69666 -9.69649,9.69666 H 71.429997 c -5.448147,0 -9.696492,-4.24834 -9.696492,-9.69666 V 71.430506 c 0,-5.448318 4.248345,-9.696659 9.696492,-9.696659 z m 29.062313,17.641418 c -2.981336,0 -5.465961,0.99325 -7.453696,2.98063 -1.987206,1.987557 -3.063889,4.472356 -3.229519,7.453514 v 84.965401 c 0.165807,2.98116 1.242313,5.46507 3.229519,7.45245 1.987735,1.98756 4.47236,2.98169 7.453696,2.98169 h 63.59924 c 2.98116,0 5.46597,-0.99413 7.45352,-2.98169 1.98774,-1.98738 3.06389,-4.47129 3.22952,-7.45245 V 111.17459 L 142.97436,79.375265 Z m 37.01661,7.949346 29.31561,29.067399 h -29.31561 z m -2.23609,52.171769 15.89994,15.89957 -15.89994,15.90046 v -10.43415 h -21.36485 v -10.68303 h 21.36485 z" />
  </g>
</svg>
