<?xml version="1.0" encoding="UTF-8" standalone="no"?>
<svg
   width="1000"
   height="1000"
   viewBox="0 0 264.58333 264.58334"
   version="1.1"
   id="svg221"
   inkscape:version="1.1.1 (3bf5ae0d25, 2021-09-20)"
   sodipodi:docname="float.svg"
   xmlns:inkscape="http://www.inkscape.org/namespaces/inkscape"
   xmlns:sodipodi="http://sodipodi.sourceforge.net/DTD/sodipodi-0.dtd"
   xmlns="http://www.w3.org/2000/svg"
   xmlns:svg="http://www.w3.org/2000/svg"
   xmlns:rdf="http://www.w3.org/1999/02/22-rdf-syntax-ns#"
   xmlns:cc="http://creativecommons.org/ns#"
   xmlns:dc="http://purl.org/dc/elements/1.1/">
  <defs
     id="defs215" />
  <sodipodi:namedview
     id="base"
     pagecolor="#ffffff"
     bordercolor="#666666"
     borderopacity="1.0"
     inkscape:pageopacity="0.0"
     inkscape:pageshadow="2"
     inkscape:zoom="0.49497474"
     inkscape:cx="344.46202"
     inkscape:cy="651.5484"
     inkscape:document-units="mm"
     inkscape:current-layer="layer1"
     inkscape:document-rotation="0"
     showgrid="false"
     units="px"
     showguides="true"
     inkscape:guide-bbox="true"
     inkscape:window-width="1366"
     inkscape:window-height="740"
     inkscape:window-x="0"
     inkscape:window-y="28"
     inkscape:window-maximized="0"
     inkscape:pagecheckerboard="0"
     inkscape:snap-bbox="true"
     inkscape:bbox-nodes="true"
     inkscape:snap-midpoints="true">
    <sodipodi:guide
       position="-5.0862631e-06,52.916663"
       orientation="0,-1"
       id="guide1048" />
    <sodipodi:guide
       position="75.848259,211.66667"
       orientation="0,-1"
       id="guide144" />
    <sodipodi:guide
       position="211.66667,269.38659"
       orientation="1,0"
       id="guide146" />
    <sodipodi:guide
       position="52.916667,269.38659"
       orientation="1,0"
       id="guide148" />
    <sodipodi:guide
       position="132.29166,211.66667"
       orientation="1,0"
       id="guide133" />
    <sodipodi:guide
       position="52.916666,132.29167"
       orientation="0,-1"
       id="guide135" />
  </sodipodi:namedview>
  <metadata
     id="metadata218">
    <rdf:RDF>
      <cc:Work
         rdf:about="">
        <dc:format>image/svg+xml</dc:format>
        <dc:type
           rdf:resource="http://purl.org/dc/dcmitype/StillImage" />
      </cc:Work>
    </rdf:RDF>
  </metadata>
  <g
     inkscape:label="Layer 1"
     inkscape:groupmode="layer"
     id="layer1">
    <path
       id="rect12-3-4-2-80-4-1-4-1-37-6-4-9"
       style="color:#000000;font-style:normal;font-variant:normal;font-weight:normal;font-stretch:normal;font-size:medium;line-height:normal;font-family:sans-serif;font-variant-ligatures:normal;font-variant-position:normal;font-variant-caps:normal;font-variant-numeric:normal;font-variant-alternates:normal;font-variant-east-asian:normal;font-feature-settings:normal;font-variation-settings:normal;text-indent:0;text-align:start;text-decoration:none;text-decoration-line:none;text-decoration-style:solid;text-decoration-color:#000000;letter-spacing:normal;word-spacing:normal;text-transform:none;writing-mode:lr-tb;direction:ltr;text-orientation:mixed;dominant-baseline:auto;baseline-shift:baseline;text-anchor:start;white-space:normal;shape-padding:0;shape-margin:0;inline-size:0;clip-rule:nonzero;display:inline;overflow:visible;visibility:visible;isolation:auto;mix-blend-mode:normal;color-interpolation:sRGB;color-interpolation-filters:linearRGB;solid-color:#000000;solid-opacity:1;vector-effect:none;fill:#000000;fill-opacity:1;fill-rule:nonzero;stroke:none;stroke-width:0.832956;stroke-linecap:butt;stroke-linejoin:miter;stroke-miterlimit:4;stroke-dasharray:none;stroke-dashoffset:0;stroke-opacity:1;color-rendering:auto;image-rendering:auto;shape-rendering:auto;text-rendering:auto;enable-background:accumulate;stop-color:#000000"
       d="m 71.43058,52.916665 c -10.179557,0 -18.513913,8.334004 -18.513913,18.513738 V 193.15295 c 0,10.17973 8.334356,18.51372 18.513913,18.51372 h 121.72271 c 10.17955,0 18.51338,-8.33399 18.51338,-18.51372 V 71.430403 c 0,-10.179734 -8.33383,-18.513738 -18.51338,-18.513738 z m 0,8.817962 h 121.72271 c 5.44828,0 9.6966,4.247488 9.6966,9.695776 V 193.15293 c 0,5.44829 -4.24832,9.69576 -9.6966,9.69576 H 71.43058 c -5.448288,0 -9.695723,-4.24747 -9.695723,-9.69576 V 71.430403 c 0,-5.448288 4.247435,-9.695776 9.695723,-9.695776 z m 17.202287,17.640509 c -5.090219,0 -9.256339,4.166597 -9.256339,9.256411 v 60.860823 c 0,5.08986 4.16612,9.25732 9.256339,9.25732 H 105.8348 v 17.20116 c 0,5.08982 4.16665,9.25641 9.25634,9.25641 h 60.86162 c 5.08987,0 9.25652,-4.16659 9.25652,-9.25641 v -60.8608 c 0,-5.08986 -4.16665,-9.25731 -9.25652,-9.25731 H 158.751 V 88.631547 c 0,-5.089814 -4.1677,-9.256411 -9.25739,-9.256411 z m 0,4.408108 h 60.860743 c 2.72414,0 4.84803,2.124158 4.84803,4.848303 v 60.860823 c 0,2.72412 -2.12389,4.84835 -4.84803,4.84835 H 88.632867 c -2.724496,0 -4.847508,-2.12423 -4.847508,-4.84835 V 88.631547 c 0,-2.724145 2.123012,-4.848303 4.847508,-4.848303 z M 158.751,110.2417 h 17.20176 c 2.72415,0 4.84769,2.12421 4.84769,4.84835 v 60.8608 c 0,2.72415 -2.12354,4.84743 -4.84769,4.84743 h -60.86162 c -2.72397,0 -4.84751,-2.12328 -4.84751,-4.84743 v -17.20114 h 39.24998 c 5.08969,0 9.25739,-4.16748 9.25739,-9.25734 z" />
  </g>
</svg>
