<?xml version="1.0" encoding="UTF-8" standalone="no"?>
<svg
   width="1000"
   height="1000"
   viewBox="0 0 264.58333 264.58334"
   version="1.1"
   id="svg221"
   inkscape:version="1.1.1 (3bf5ae0d25, 2021-09-20)"
   sodipodi:docname="folder move.svg"
   xmlns:inkscape="http://www.inkscape.org/namespaces/inkscape"
   xmlns:sodipodi="http://sodipodi.sourceforge.net/DTD/sodipodi-0.dtd"
   xmlns="http://www.w3.org/2000/svg"
   xmlns:svg="http://www.w3.org/2000/svg"
   xmlns:rdf="http://www.w3.org/1999/02/22-rdf-syntax-ns#"
   xmlns:cc="http://creativecommons.org/ns#"
   xmlns:dc="http://purl.org/dc/elements/1.1/">
  <defs
     id="defs215" />
  <sodipodi:namedview
     id="base"
     pagecolor="#ffffff"
     bordercolor="#666666"
     borderopacity="1.0"
     inkscape:pageopacity="0.0"
     inkscape:pageshadow="2"
     inkscape:zoom="0.69999999"
     inkscape:cx="507.85715"
     inkscape:cy="449.28572"
     inkscape:document-units="mm"
     inkscape:current-layer="layer1"
     inkscape:document-rotation="0"
     showgrid="false"
     units="px"
     showguides="true"
     inkscape:guide-bbox="true"
     inkscape:window-width="1366"
     inkscape:window-height="740"
     inkscape:window-x="0"
     inkscape:window-y="28"
     inkscape:window-maximized="0"
     inkscape:pagecheckerboard="0"
     inkscape:snap-bbox="true"
     inkscape:bbox-nodes="true"
     inkscape:snap-midpoints="true">
    <sodipodi:guide
       position="-5.0862631e-06,52.916663"
       orientation="0,-1"
       id="guide1048" />
    <sodipodi:guide
       position="75.848259,211.66667"
       orientation="0,-1"
       id="guide144" />
    <sodipodi:guide
       position="211.66667,269.38659"
       orientation="1,0"
       id="guide146" />
    <sodipodi:guide
       position="52.916667,269.38659"
       orientation="1,0"
       id="guide148" />
    <sodipodi:guide
       position="132.29166,211.66667"
       orientation="1,0"
       id="guide133" />
    <sodipodi:guide
       position="52.916666,132.29167"
       orientation="0,-1"
       id="guide135" />
  </sodipodi:namedview>
  <metadata
     id="metadata218">
    <rdf:RDF>
      <cc:Work
         rdf:about="">
        <dc:format>image/svg+xml</dc:format>
        <dc:type
           rdf:resource="http://purl.org/dc/dcmitype/StillImage" />
      </cc:Work>
    </rdf:RDF>
  </metadata>
  <g
     inkscape:label="Layer 1"
     inkscape:groupmode="layer"
     id="layer1">
    <path
       id="text1814-7-9-1-7-6-9-63-9-8-0-1"
       style="font-size:72.1127px;line-height:1.25;font-family:sans-serif;direction:rtl;display:inline;stroke-width:0.433633"
       d="m 71.430561,52.916665 c -10.179608,0 -18.513894,8.334048 -18.513894,18.513837 V 193.15282 c 0,10.1798 8.334286,18.51385 18.513894,18.51385 H 193.15276 c 10.18008,0 18.51389,-8.33405 18.51389,-18.51385 V 71.430502 c 0,-10.179789 -8.33381,-18.513837 -18.51389,-18.513837 z m 0,8.817079 H 193.15276 c 5.44869,0 9.69704,4.248439 9.69704,9.696758 V 193.15282 c 0,5.44832 -4.24835,9.69672 -9.69704,9.69672 H 71.430561 c -5.448228,0 -9.696576,-4.2484 -9.696576,-9.69672 V 71.430502 c 0,-5.448319 4.248348,-9.696758 9.696576,-9.696758 z M 89.80958,89.809416 c -2.981264,0.16563 -5.465963,1.242023 -7.453627,3.229547 -1.987199,1.987478 -2.980798,4.471334 -2.980798,7.452547 v 63.60031 c 0,2.98121 0.993599,5.46507 2.980798,7.45254 1.987664,1.98749 4.472363,3.06387 7.453627,3.2295 h 84.96556 c 2.98079,-0.16563 5.46503,-1.24201 7.45222,-3.2295 1.98766,-1.98747 2.98174,-4.47133 2.98174,-7.45254 V 111.1745 c 0,-3.14685 -0.99408,-5.71392 -2.98174,-7.7014 -1.98719,-1.98747 -4.47143,-2.98159 -7.45222,-2.98159 H 132.29167 L 121.60988,89.809416 Z m 53.16524,21.365084 26.33482,26.3347 -26.33482,26.58262 v -15.90057 h -21.36494 v -21.11712 h 21.36494 z" />
  </g>
</svg>
