<?xml version="1.0" encoding="UTF-8" standalone="no"?>
<svg
   width="1000"
   height="1000"
   viewBox="0 0 264.58333 264.58334"
   version="1.1"
   id="svg221"
   inkscape:version="1.1.1 (3bf5ae0d25, 2021-09-20)"
   sodipodi:docname="glob.svg"
   xmlns:inkscape="http://www.inkscape.org/namespaces/inkscape"
   xmlns:sodipodi="http://sodipodi.sourceforge.net/DTD/sodipodi-0.dtd"
   xmlns="http://www.w3.org/2000/svg"
   xmlns:svg="http://www.w3.org/2000/svg"
   xmlns:rdf="http://www.w3.org/1999/02/22-rdf-syntax-ns#"
   xmlns:cc="http://creativecommons.org/ns#"
   xmlns:dc="http://purl.org/dc/elements/1.1/">
  <defs
     id="defs215" />
  <sodipodi:namedview
     id="base"
     pagecolor="#ffffff"
     bordercolor="#666666"
     borderopacity="1.0"
     inkscape:pageopacity="0.0"
     inkscape:pageshadow="2"
     inkscape:zoom="0.49497474"
     inkscape:cx="439.41636"
     inkscape:cy="502.04582"
     inkscape:document-units="mm"
     inkscape:current-layer="layer1"
     inkscape:document-rotation="0"
     showgrid="false"
     units="px"
     showguides="true"
     inkscape:guide-bbox="true"
     inkscape:window-width="1366"
     inkscape:window-height="740"
     inkscape:window-x="0"
     inkscape:window-y="28"
     inkscape:window-maximized="0"
     inkscape:pagecheckerboard="0"
     inkscape:snap-bbox="true"
     inkscape:bbox-nodes="true"
     inkscape:snap-midpoints="true">
    <sodipodi:guide
       position="-5.0862631e-06,52.916663"
       orientation="0,-1"
       id="guide1048" />
    <sodipodi:guide
       position="75.848259,211.66667"
       orientation="0,-1"
       id="guide144" />
    <sodipodi:guide
       position="211.66667,269.38659"
       orientation="1,0"
       id="guide146" />
    <sodipodi:guide
       position="52.916667,269.38659"
       orientation="1,0"
       id="guide148" />
    <sodipodi:guide
       position="132.29166,211.66667"
       orientation="1,0"
       id="guide133" />
    <sodipodi:guide
       position="52.916666,132.29167"
       orientation="0,-1"
       id="guide135" />
  </sodipodi:namedview>
  <metadata
     id="metadata218">
    <rdf:RDF>
      <cc:Work
         rdf:about="">
        <dc:format>image/svg+xml</dc:format>
        <dc:type
           rdf:resource="http://purl.org/dc/dcmitype/StillImage" />
      </cc:Work>
    </rdf:RDF>
  </metadata>
  <g
     inkscape:label="Layer 1"
     inkscape:groupmode="layer"
     id="layer1">
    <path
       id="text1814-7-89-9"
       style="font-size:70.057px;line-height:1.25;font-family:sans-serif;direction:rtl;display:inline;stroke-width:0.421273"
       d="m 71.430527,52.916665 c -10.179625,0 -18.51386,8.334052 -18.51386,18.513879 V 193.15285 c 0,10.17977 8.334235,18.51382 18.51386,18.51382 H 193.15316 c 10.17963,0 18.51351,-8.33405 18.51351,-18.51382 V 71.430544 c 0,-10.179827 -8.33388,-18.513879 -18.51351,-18.513879 z m 0,8.81713 H 193.15316 c 5.44833,0 9.69667,4.248394 9.69667,9.696749 V 193.15285 c 0,5.44831 -4.24834,9.69669 -9.69667,9.69669 H 71.430527 c -5.448148,0 -9.696493,-4.24838 -9.696493,-9.69669 V 71.430544 c 0,-5.448355 4.248345,-9.696749 9.696493,-9.696749 z m 60.892363,17.641526 c -7.20058,0 -14.07925,1.387304 -20.63601,4.162899 -6.51636,2.775594 -12.148483,6.537065 -16.894776,11.283672 -4.706782,4.746624 -8.46741,10.377528 -11.282942,16.894108 -2.775491,6.51654 -4.163855,13.3753 -4.163855,20.5757 0,7.20039 1.388364,14.07903 4.163855,20.63585 2.815532,6.55677 6.57616,12.18855 11.282942,16.89496 4.746293,4.70641 10.378416,8.44703 16.894776,11.22262 6.55676,2.77558 13.43543,4.16382 20.63601,4.16382 7.20023,0 14.05843,-1.38824 20.5748,-4.16382 6.55675,-2.77559 12.18835,-6.51621 16.89495,-11.22262 4.70626,-4.70641 8.44766,-10.33819 11.22368,-16.89496 2.81553,-6.55682 4.22259,-13.43546 4.22259,-20.63585 0,-7.2004 -1.40706,-14.05916 -4.22259,-20.5757 -2.77602,-6.51658 -6.51742,-12.147484 -11.22368,-16.894108 -4.7066,-4.746607 -10.3382,-8.508078 -16.89495,-11.283672 -6.51637,-2.775595 -13.37457,-4.162899 -20.5748,-4.162899 z m -5.79264,9.951949 c 0.13053,-0.0071 0.27111,-0.0071 0.42192,0.0035 0.64365,0.04022 1.1266,0.180711 1.44816,0.422047 1.24708,0.64361 1.42858,1.24711 0.54328,1.810268 0.44292,0.08043 0.98567,0.281659 1.62914,0.603446 0.68386,0.321788 0.94562,0.684268 0.78458,1.086507 0.32209,-0.724026 0.68369,-1.086507 1.08603,-1.086507 0.2413,0 0.46196,0.30175 0.66323,0.905108 0.20108,0.603393 0.32296,0.90516 0.36301,0.90516 0.40234,0.482708 0.76359,0.6032 1.0855,0.361881 0.36213,-0.241389 0.74436,-0.623748 1.14671,-1.14669 0.40235,-0.522925 0.62354,-0.783911 0.66358,-0.783911 -0.48243,-0.160867 -0.50254,-0.342125 -0.06,-0.543279 0.68368,-0.362022 1.28711,-0.462582 1.81028,-0.301715 0.20127,0.04022 0.40235,0.281271 0.60343,0.723744 0.32156,0.724097 0.22137,1.086524 -0.3018,1.086524 0.44239,0.321841 0.62301,0.764031 0.54222,1.32719 -0.0811,0.563177 -0.44203,0.805112 -1.0855,0.724644 -0.20126,0 -0.52282,-0.100542 -0.9652,-0.301715 -0.44239,-0.201101 -0.78494,-0.322528 -1.02624,-0.362762 -0.24131,-0.04022 -0.56339,0.101071 -0.96556,0.422911 -0.20126,0.160867 -0.46214,0.522466 -0.7837,1.085642 -0.28187,0.563159 -0.52352,0.965504 -0.72479,1.206822 -0.68368,0.643628 -1.83039,0.885564 -3.43906,0.724696 0.16051,0 0.14111,0.140406 -0.06,0.42203 -0.16051,0.281553 -0.38223,0.58332 -0.66358,0.905107 -0.28151,0.321841 -0.44291,0.522992 -0.48313,0.603442 -0.40234,0.48271 -0.66322,1.00555 -0.78405,1.56871 -0.0406,0.16086 -0.06,0.40197 -0.06,0.72376 0,0.32178 -0.0212,0.60362 -0.0617,0.84499 -0.0406,0.24134 -0.11994,0.44253 -0.24024,0.60339 0.48243,-0.0804 0.92499,0.20139 1.3268,0.84502 0.28187,0.6838 0.28187,1.04535 0,1.08558 1.60921,-0.24133 2.93689,-0.16069 3.98271,0.24155 1.64942,0.56318 2.59433,1.16671 2.83564,1.81029 0.2413,-0.40226 0.90453,-0.4421 1.99056,-0.1203 0.11994,0.0804 0.24218,0.18103 0.36301,0.30171 0.11994,0.12066 0.2002,0.22033 0.24042,0.30078 0.0811,0.0804 0.14111,0.2019 0.1815,0.36282 0.0811,0.16087 0.11995,0.28143 0.11995,0.36188 0.0406,0.0804 0.0811,0.22089 0.12171,0.42203 l 0.06,0.30168 c 0.20108,0.72408 0.50271,1.34754 0.90488,1.87047 0.44256,0.52294 0.92551,0.6643 1.44869,0.42293 l 0.24042,-0.12118 c 0.16051,-0.0804 0.30233,-0.16105 0.4228,-0.24151 0.11995,-0.0804 0.2413,-0.18103 0.36213,-0.30174 0.16051,-0.12065 0.2413,-0.22124 0.2413,-0.30171 0.0406,-0.0804 0.0194,-0.20096 -0.06,-0.36188 -0.32209,-0.24132 -0.56286,-0.60292 -0.72391,-1.08563 -0.16051,-0.4827 -0.14111,-0.92583 0.06,-1.32809 0.16051,-0.16086 0.54328,-0.42183 1.14671,-0.78391 0.60343,-0.362 0.96555,-0.74441 1.08656,-1.14667 0.20108,-0.56316 -0.0406,-1.04521 -0.72479,-1.4475 -0.64364,-0.40224 -0.9652,-0.76469 -0.9652,-1.08653 0,-0.16087 0.14111,-0.42277 0.42192,-0.78479 0.32209,-0.36202 0.46302,-0.66289 0.42281,-0.90423 0,-0.16086 -0.0811,-0.4427 -0.2413,-0.84499 -0.16052,-0.40226 -0.26177,-0.72396 -0.30198,-0.96527 0,-0.24138 0.11994,-0.483309 0.3623,-0.724698 0.32156,-0.241319 1.08639,-0.261251 2.29324,-0.06015 1.20651,0.201137 1.97045,0.422258 2.29236,0.663598 0.11995,0.0804 0.42246,0.22182 0.90506,0.42296 0.48295,0.2011 0.8853,0.42222 1.20686,0.66356 0.36213,0.24137 0.56321,0.44251 0.60343,0.60343 h -0.36178 c 0.32156,0.24139 0.52282,0.5431 0.60343,0.90516 0.0811,0.36202 -0.10054,0.62299 -0.5431,0.78387 0.28134,-0.0402 0.623,0.0205 1.02535,0.1814 0.80451,0.32184 0.86519,0.58276 0.1815,0.78391 0.11995,0 0.30198,-0.0199 0.54328,-0.0602 0.24113,-0.0402 0.44239,-0.10001 0.60343,-0.18048 l 0.30145,-0.30171 c 0.16052,-0.12065 0.28135,-0.20133 0.36213,-0.24157 0.0811,-0.0402 0.18062,-0.0601 0.30145,-0.0601 0.12171,0 0.26141,0.0399 0.42193,0.1203 0.0406,0 0.14111,-0.10054 0.30197,-0.30171 0.16052,-0.2011 0.34202,-0.42223 0.54328,-0.66354 0.20109,-0.24139 0.36125,-0.36189 0.48208,-0.36189 0.11994,0 0.24218,0.0598 0.36266,0.18047 0.1217,0.12065 0.20055,0.24119 0.24077,0.36188 0.0811,0.12065 0.16051,0.26204 0.24165,0.42293 l 0.18115,0.36186 c 0.11995,0.24139 0.34202,0.50324 0.66358,0.78485 0.32209,0.28157 0.54275,0.50269 0.66376,0.66356 0.0794,0.16086 0.18097,0.50253 0.30197,1.02547 0.11995,0.52293 0.28188,0.90534 0.48296,1.14668 0.20108,0.24137 0.54275,0.40178 1.02535,0.48219 0.11995,0.0804 0.34167,0.0804 0.66358,0 0.32156,-0.0804 0.5835,-0.10036 0.78458,-0.0602 0.20109,0.0402 0.30198,0.22149 0.30198,0.54328 0.28134,-0.32179 0.42192,-0.52297 0.42192,-0.60343 0.0406,0.56316 0.18063,1.04615 0.42228,1.44839 0.28152,0.40229 0.68369,0.56265 1.20651,0.4822 l -0.11995,1.56875 c -0.16051,0.24134 -0.5237,0.4226 -1.08656,0.54323 -0.52317,0.12065 -0.84473,0.22126 -0.96556,0.30173 -0.11994,0 -0.46196,0.2619 -1.02535,0.78485 -0.52317,0.52292 -0.74383,0.82375 -0.66358,0.90422 -0.80469,-0.885 -1.97186,-1.126 -3.50027,-0.72376 -1.56864,0.24134 -2.75486,0.52317 -3.55955,0.84496 -0.88477,0.48271 -1.40759,0.80441 -1.56863,0.96531 -0.0406,0.0804 -0.11994,0.26169 -0.24165,0.54324 -0.0811,0.28161 -0.18116,0.52266 -0.30145,0.72375 -0.0811,0.20115 -0.18116,0.30173 -0.30198,0.30173 0.2413,0 0.54328,-0.20116 0.90541,-0.60345 0.36159,-0.40224 0.58279,-0.64329 0.66357,-0.72371 1.24655,-0.72408 2.23274,-0.96601 2.95665,-0.72467 1.04581,0.24137 1.20633,0.60379 0.48242,1.08655 -0.0811,0.0804 -0.32156,0.10037 -0.72372,0.0601 -0.40235,-0.0402 -0.66411,-0.0203 -0.78511,0.0602 0.40234,0.0804 0.7239,0.20184 0.96573,0.36276 0.28134,0.16087 0.36213,0.36118 0.24112,0.60252 0.76448,0.44247 0.88495,0.92546 0.36231,1.44838 -0.60343,0.6034 -1.28676,0.84539 -2.05124,0.7247 0.16052,0.0402 0.16052,0.13988 0,0.30078 l -1.20686,0.78479 c -0.11994,0.0804 -0.42227,0.20101 -0.90487,0.36188 -0.48314,0.16087 -0.82463,0.36211 -1.02589,0.60345 -0.16051,0.16087 -0.2413,0.42277 -0.2413,0.78479 0.0406,0.36208 0.0194,0.64298 -0.06,0.84408 -0.0406,0.20113 -0.20161,0.26185 -0.48296,0.1814 -0.1217,0.24137 -0.54328,0.44252 -1.26718,0.60344 -0.72425,0.16087 -1.20686,0.40192 -1.44869,0.72375 0.36231,0.40225 0.32262,0.78466 -0.11994,1.14667 -0.52317,0.40226 -0.9862,0.34154 -1.38854,-0.1814 -0.2413,0.0804 -0.42193,0.30247 -0.54222,0.66448 -0.12171,0.36207 -0.28187,0.62304 -0.48313,0.78391 0.36177,0.4827 0.32208,0.84519 -0.11995,1.08657 0.0406,0 0.14111,0.0598 0.30145,0.18047 l 0.4826,0.36188 c 0.20109,0.12065 0.32156,0.18136 0.3616,0.18136 -0.11994,0.40229 -0.38171,0.60343 -0.78405,0.60343 0.28187,0.72408 -0.06,1.52877 -1.02624,2.41372 -0.20108,0.16086 -0.50218,0.32127 -0.90399,0.48219 -0.36213,0.16087 -0.70468,0.32221 -1.02677,0.48308 -0.32156,0.16087 -0.50306,0.24156 -0.54328,0.24156 -0.32156,0.32183 -0.60237,0.64349 -0.84367,0.96531 -0.20126,0.32179 -0.34255,0.64349 -0.42333,0.96528 -0.0406,0.32184 0.0406,0.62361 0.24183,0.90516 0.24112,0.28155 0.62389,0.46283 1.14653,0.54328 l 0.06,0.60338 c 0,0.40224 0.0194,0.80459 0.06,1.20688 l 0.06,0.60339 c 0.16051,0.48271 0.18168,1.08531 0.0617,1.80939 -0.0811,0.72404 -0.42333,0.88537 -1.02676,0.48307 -0.4826,-0.24131 -0.92446,-1.24714 -1.3268,-3.0171 -0.0811,-0.32179 -0.36266,-0.88453 -0.84526,-1.68901 -0.20109,0.24133 -0.38224,0.40172 -0.54311,0.48219 -0.16051,0.0804 -0.28152,0.10036 -0.36177,0.0601 -0.0811,-0.0402 -0.2212,-0.14075 -0.42228,-0.30171 -0.16051,-0.16085 -0.3011,-0.2814 -0.42193,-0.36187 -0.2413,-0.16087 -0.64365,-0.28141 -1.20686,-0.36188 -0.56339,-0.0804 -0.92551,-0.20096 -1.08656,-0.36187 -1.12607,0.80453 -1.78982,0.60334 -1.99091,-0.60344 -0.11994,0.16087 -0.11994,0.46269 0,0.90516 l 0.18062,0.66358 c -0.32155,0.56316 -0.82462,0.60303 -1.5083,0.1203 -0.28187,-0.24136 -0.92499,-0.26129 -1.93076,-0.0601 -0.96556,0.20111 -1.60868,0.22109 -1.93077,0.0601 l 0.11995,0.061 c 0.0811,0.0402 0.16051,0.10002 0.24165,0.18052 0.0811,0.0804 0.14111,0.12118 0.18116,0.12118 -0.0811,0.32184 -0.26141,0.50213 -0.54328,0.54234 -0.28135,0.0402 -0.4625,0.1009 -0.54329,0.18142 -0.16051,0.0804 -0.40181,0.28161 -0.72372,0.60343 -0.28152,0.32179 -0.4826,0.56284 -0.60361,0.72376 0.28205,0.72403 0.40235,1.28766 0.36231,1.68995 0,0.40226 -0.06,0.98487 -0.18168,1.74919 -0.11995,0.76431 -0.18063,1.34786 -0.18063,1.75012 0,0.80449 0.20126,1.68981 0.60361,2.65526 0.44238,0.96541 0.98566,1.60876 1.62913,1.9306 0.32156,0.24132 0.86431,0.38179 1.62879,0.42203 0.80468,0.0402 1.3679,-0.0196 1.68998,-0.18052 0.24131,-0.0804 0.42228,-0.20096 0.54311,-0.36183 0.12171,-0.16086 0.2002,-0.32221 0.24095,-0.48313 0.0406,-0.16086 0.0811,-0.36205 0.11994,-0.60344 0.0811,-0.24132 0.16052,-0.44253 0.24077,-0.6034 0.36213,-0.88499 0.96556,-1.32719 1.81029,-1.32719 0.56339,-0.0804 0.96573,-0.0406 1.20704,0.1203 0.24112,0.16087 0.32191,0.38204 0.24112,0.6636 -0.0406,0.28155 -0.11995,0.5634 -0.24112,0.84496 -0.12171,0.2816 -0.3011,0.6033 -0.5424,0.9653 -0.20109,0.36203 -0.32244,0.66379 -0.36301,0.90517 -0.0811,0.32178 -0.16052,0.8247 -0.24042,1.50855 -0.0406,0.68386 -0.0811,1.10612 -0.12171,1.26699 h 1.02535 c 0,-0.0804 0.0212,-0.22088 0.0617,-0.42203 l 0.11994,-0.30172 c 0.2413,0.32183 0.60396,0.50305 1.08656,0.54328 0.52318,0.0402 0.90435,-0.14093 1.14566,-0.54328 0.0811,0.16087 0.34255,0.52247 0.78511,1.08563 0.48243,0.56316 0.74331,1.0063 0.78352,1.32809 0.0406,0.16086 0.11995,0.46267 0.24166,0.90516 0.16051,0.44247 0.20161,0.7433 0.12171,0.90422 -0.0406,0.16087 -0.2623,0.24155 -0.66446,0.24155 -0.20126,0 -0.32156,0.0607 -0.36178,0.18136 -0.0406,0.12066 -0.0406,0.2811 0,0.4822 l 0.2413,0.60343 0.24183,0.60345 c 0.11995,0.2011 0.1801,0.34246 0.1801,0.42292 0.84508,1.44811 1.97133,1.85045 3.37927,1.20688 0,1.36765 -0.32191,2.09168 -0.96556,2.1721 -0.3616,0.0804 -0.78405,-0.1614 -1.26665,-0.72465 -0.40693,-0.47457 -0.58191,-0.8617 -0.53146,-1.16491 -0.0741,0.17039 -0.21855,0.31796 -0.4341,0.44117 -0.20108,-0.24134 -0.62354,-0.58295 -1.26701,-1.02542 -0.60342,-0.4425 -1.00577,-0.78504 -1.20686,-1.02642 -0.0811,-0.16086 -0.20073,-0.36207 -0.36177,-0.60339 -0.16052,-0.24137 -0.36213,-0.56307 -0.60343,-0.96533 -0.2413,-0.40223 -0.42246,-0.76378 -0.54328,-1.08557 -0.12171,-0.32184 -0.14112,-0.48313 -0.06,-0.48313 -0.84473,0.32179 -2.11138,0.04 -3.80084,-0.84501 -0.28187,-0.16087 -0.76483,-0.64296 -1.44851,-1.44745 -0.64365,-0.80455 -1.30776,-1.1262 -1.99197,-0.96531 -0.2413,0 -0.56286,0.0598 -0.96503,0.18046 -0.3623,0.12065 -0.68386,0.1814 -0.9652,0.1814 -0.28187,0 -0.64312,-0.0806 -1.08551,-0.24155 -0.36212,-0.16086 -0.86536,-0.42278 -1.50883,-0.78481 -0.64365,-0.36202 -1.06593,-0.62299 -1.26719,-0.78391 -0.16051,-0.0804 -0.48242,-0.22089 -0.96502,-0.42203 -0.44239,-0.2011 -0.80505,-0.38236 -1.08656,-0.54328 -0.24131,-0.16086 -0.52318,-0.38198 -0.84509,-0.66356 -0.28151,-0.2816 -0.46249,-0.58332 -0.54328,-0.90516 -0.11994,-0.32178 -0.2413,-0.8854 -0.36177,-1.68995 -0.12171,-0.80449 -0.30092,-1.40803 -0.54222,-1.81027 -0.8853,-1.36765 -1.73056,-2.05089 -2.53508,-2.05089 0.36213,0 0.34202,-0.3217 -0.06,-0.96533 -0.36213,-0.64358 -0.66358,-1.0867 -0.90488,-1.32807 l -0.66358,-0.66356 c -0.32208,-0.36206 -0.62353,-0.68376 -0.9054,-0.96531 -0.24131,-0.28161 -0.50219,-0.62324 -0.78353,-1.02548 -0.28204,-0.40224 -0.48313,-0.78464 -0.6036,-1.14666 -0.11995,-0.36202 -0.11995,-0.66379 0,-0.90516 0.0406,0 -8.8e-4,-0.0399 -0.12171,-0.1203 -0.0811,-0.0804 -0.20126,-0.16104 -0.36178,-0.24151 -0.12171,-0.0804 -0.2824,-0.14111 -0.48348,-0.18142 -0.16052,-0.0402 -0.3011,-0.10001 -0.42192,-0.18046 -0.11995,-0.0804 -0.2212,-0.12118 -0.30145,-0.12118 0.0794,0.24133 0.18097,0.60381 0.30145,1.08652 0.16051,0.48271 0.30145,0.84425 0.42192,1.08563 0.48295,0.88493 0.86519,1.52921 1.14671,1.9315 1.16664,1.93084 1.70939,3.37885 1.62913,4.3443 -0.28187,0.0804 -0.46196,0.0198 -0.54222,-0.1814 -0.0811,-0.20115 -0.14111,-0.463 -0.1815,-0.78484 0,-0.32179 -0.0406,-0.56284 -0.11995,-0.72371 -0.16051,-0.24137 -0.54328,-0.52317 -1.14671,-0.84499 -0.56321,-0.32179 -0.90488,-0.64349 -1.02535,-0.96528 0.0406,-0.0804 0.10054,-0.1203 0.18027,-0.1203 h 0.1815 c 0.0406,-0.40223 -0.20073,-0.92509 -0.7239,-1.5687 -0.52264,-0.64363 -0.74489,-1.12661 -0.66411,-1.44839 -0.36212,-0.24132 -0.68368,-0.76421 -0.96555,-1.56871 -0.28152,-0.80454 -0.50271,-1.32738 -0.66358,-1.56875 -0.20126,-0.32179 -0.44203,-0.58366 -0.72337,-0.78479 -0.24184,-0.20116 -0.58438,-0.42223 -1.02677,-0.66362 -0.40234,-0.24132 -0.68333,-0.40172 -0.84385,-0.48218 l -0.72478,-0.78481 c -1.3679,-1.76994 -1.77025,-2.71505 -1.20686,-2.83574 -0.60343,0.16087 -1.10561,-0.28127 -1.50743,-1.32714 -0.362125,-1.04586 -0.483481,-1.85055 -0.363183,-2.41371 h -0.119945 c 0.08114,-0.24137 0.119945,-0.80501 0.119945,-1.68995 0,-0.88497 0.04057,-1.68876 0.121709,-2.41278 0.121704,-0.72408 0.341664,-1.08653 0.663754,-1.08653 -0.36213,0 -0.624066,-0.30176 -0.78511,-0.90516 -0.119945,-0.60339 -0.119945,-1.02565 0,-1.26698 0.04057,-0.0804 0.2413,0.0201 0.60343,0.30167 0.40234,0.28161 0.62354,0.50268 0.66375,0.6636 0.20109,-0.0804 0.36266,-0.26167 0.48296,-0.54325 0.16051,-0.2816 0.22172,-0.54257 0.18168,-0.78391 -0.0406,-0.16086 -0.52317,-0.64389 -1.44869,-1.44844 -1.970977,-1.2872 -2.976575,-1.89068 -3.016791,-1.81026 0.281518,-0.48271 0.221721,-0.9249 -0.180623,-1.32716 -0.442386,0.32179 -0.704148,0.40243 -0.784934,0.24157 -0.08114,-0.16087 -0.160515,-0.42277 -0.241301,-0.78485 -0.04057,-0.36202 -0.141112,-0.58312 -0.30198,-0.66354 -0.241301,0 -0.522113,-0.1614 -0.843671,-0.48313 4.062606,-6.51654 9.47248,-11.62458 16.23032,-15.325356 0.28134,-0.08043 0.7844,-0.12118 1.50831,-0.12118 0.36212,0.08043 0.70379,0.221828 1.02588,0.422965 0.32156,0.201154 0.64312,0.462087 0.96503,0.78391 0.36212,0.321788 0.64364,0.522995 0.84473,0.603393 0.0811,-0.160867 -0.0388,-0.563211 -0.3616,-1.206821 0.0811,-0.321788 0.58332,-0.602706 1.50831,-0.844077 1.1266,-0.08043 1.83092,-0.04057 2.11226,0.120298 -0.40234,-0.643575 -0.86519,-1.24711 -1.38836,-1.810268 l -0.36178,0.36188 c -0.44238,-0.321787 -1.40759,-0.160514 -2.89578,0.483114 -0.96574,0.563176 -1.48838,0.844958 -1.56917,0.844958 -0.28134,0.08043 -0.56321,0.120298 -0.84473,0.120298 2.21228,-1.206734 4.36459,-2.171814 6.45639,-2.895893 l 0.66358,0.663595 c 0.32156,0.281606 0.5835,0.502675 0.78458,0.663595 -0.0811,-0.04022 -0.16051,-0.02028 -0.2413,0.06015 -0.20108,0.482708 -0.20108,0.945766 0,1.388239 0.2413,0.32184 0.54328,0.502128 0.90488,0.542344 0.40235,0.04022 0.88442,0.02029 1.44781,-0.06015 0.56321,-0.08043 0.92534,-0.120298 1.08638,-0.120298 l 0.7239,0.06015 c 1.22556,0.136173 1.81082,0.0538 1.76831,-0.242448 0.10936,0.245164 0.23989,0.568962 0.40376,1.027293 0.20108,0.563123 0.40216,0.964586 0.60343,1.205904 0.20108,-0.241318 0.24165,-0.582949 0.1217,-1.025422 -0.0811,-0.442473 -0.06,-0.744241 0.06,-0.905161 0.0406,-0.08043 0.62248,-0.362251 1.74908,-0.844958 0.28151,-0.241372 0.1023,-0.563071 -0.54222,-0.96531 -0.11995,-0.08043 -0.32209,-0.160161 -0.60343,-0.24063 -0.28187,-0.08043 -0.54364,-0.181029 -0.78494,-0.301732 -0.2413,-0.120651 -0.4826,-0.262044 -0.7239,-0.422912 -0.2413,-0.160867 -0.34167,-0.342142 -0.30145,-0.543279 0.0406,-0.201155 0.16051,-0.462123 0.3616,-0.783911 0.21149,-0.181028 0.51294,-0.282734 0.90541,-0.305365 z m 11.83787,69.61536 c 0.0229,-0.052 0.0406,-0.10584 0.0494,-0.16228 -0.0247,0.0506 -0.0406,0.10566 -0.0494,0.16228 z m 9.71007,-3.08823 c 0.22631,0 0.38453,0.0896 0.47502,0.27072 0.20126,0.32179 0.14111,0.76492 -0.18062,1.32809 -0.28134,0.56316 -0.26124,0.96551 0.06,1.20688 0.0811,-0.16087 0.14111,-0.48356 0.1815,-0.96625 0.0406,-0.4827 0.16052,-0.8044 0.3616,-0.96527 0.2413,-0.32184 0.50271,-0.50213 0.78406,-0.54235 0.28151,-0.0402 0.50271,-3.8e-4 0.66375,0.1203 0.20108,0.12065 0.44291,0.282 0.72479,0.4831 0.32155,0.20113 0.58243,0.34161 0.78352,0.42203 0.84473,0.24137 1.69034,0.72436 2.53507,1.44844 -0.0406,-0.0804 -0.0406,-0.14111 0,-0.1814 0.0406,-0.0402 0.11995,-0.1009 0.24095,-0.18142 0.16051,-0.0804 0.3018,-0.14023 0.4228,-0.18046 0.11995,-0.0402 0.24131,-0.1009 0.3616,-0.18142 h 0.18063 c 0.20126,-0.16087 0.48313,-0.18083 0.84473,-0.0602 0.40234,0.12065 0.62353,0.20133 0.66375,0.24157 0.0811,0.0402 0.28187,0.18066 0.60343,0.42203 0.36213,0.24133 0.58332,0.40266 0.66358,0.48308 l 0.72478,0.48219 c 0.40235,0.24137 0.68422,0.4226 0.84473,0.54328 0.20109,0.12065 0.38171,0.32184 0.54275,0.60345 0.20109,0.28155 0.28135,0.58332 0.24131,0.9051 l 1.62878,0.60343 c 0.16051,0.0804 0.44291,0.16105 0.84508,0.24157 0.44256,0.0804 0.74454,0.20096 0.90506,0.36188 -6.67759,7.07971 -14.74212,11.42387 -24.19502,13.03289 -0.11995,-0.72408 -0.18151,-1.12642 -0.18151,-1.20687 -0.0406,-0.32179 0.11995,-0.8039 0.48296,-1.44751 0.36213,-0.64357 0.54222,-1.12656 0.54222,-1.4484 -0.68369,-0.16087 -0.94457,-0.72451 -0.78352,-1.68996 0.0794,-0.72402 0.74348,-1.6492 1.99055,-2.77554 0.84473,-0.80453 1.1266,-1.93086 0.84509,-3.37902 -0.11995,-0.56312 -0.2413,-1.4077 -0.36213,-2.53398 -0.11995,-1.12633 -0.22119,-1.931 -0.30145,-2.41371 0,0.0804 0.22119,0.18103 0.66358,0.30171 0.44238,0.12065 0.70432,0.26201 0.78458,0.42293 0.0811,-0.0804 0.20108,-0.3224 0.36213,-0.72464 0.16051,-0.40226 0.30109,-0.68316 0.42192,-0.84408 0.12171,-0.16087 0.32191,-0.32221 0.60343,-0.48311 0.28134,-0.16087 0.46302,-0.28143 0.54328,-0.36188 0.0811,-0.0804 0.28187,-0.24176 0.60343,-0.48308 0.36213,-0.24137 0.62301,-0.42171 0.78405,-0.54235 0.20108,-0.12065 0.48296,-0.22126 0.84473,-0.30173 0.09,-0.0201 0.17286,-0.0302 0.24871,-0.0302 z" />
  </g>
</svg>
