<?xml version="1.0" encoding="UTF-8" standalone="no"?>
<svg
   width="1000"
   height="1000"
   viewBox="0 0 264.58333 264.58334"
   version="1.1"
   id="svg221"
   inkscape:version="1.1.1 (3bf5ae0d25, 2021-09-20)"
   sodipodi:docname="grid.svg"
   xmlns:inkscape="http://www.inkscape.org/namespaces/inkscape"
   xmlns:sodipodi="http://sodipodi.sourceforge.net/DTD/sodipodi-0.dtd"
   xmlns="http://www.w3.org/2000/svg"
   xmlns:svg="http://www.w3.org/2000/svg"
   xmlns:rdf="http://www.w3.org/1999/02/22-rdf-syntax-ns#"
   xmlns:cc="http://creativecommons.org/ns#"
   xmlns:dc="http://purl.org/dc/elements/1.1/">
  <defs
     id="defs215" />
  <sodipodi:namedview
     id="base"
     pagecolor="#ffffff"
     bordercolor="#666666"
     borderopacity="1.0"
     inkscape:pageopacity="0.0"
     inkscape:pageshadow="2"
     inkscape:zoom="0.49497474"
     inkscape:cx="344.46202"
     inkscape:cy="651.5484"
     inkscape:document-units="mm"
     inkscape:current-layer="layer1"
     inkscape:document-rotation="0"
     showgrid="false"
     units="px"
     showguides="true"
     inkscape:guide-bbox="true"
     inkscape:window-width="1366"
     inkscape:window-height="740"
     inkscape:window-x="0"
     inkscape:window-y="28"
     inkscape:window-maximized="0"
     inkscape:pagecheckerboard="0"
     inkscape:snap-bbox="true"
     inkscape:bbox-nodes="true"
     inkscape:snap-midpoints="true">
    <sodipodi:guide
       position="-5.0862631e-06,52.916663"
       orientation="0,-1"
       id="guide1048" />
    <sodipodi:guide
       position="75.848259,211.66667"
       orientation="0,-1"
       id="guide144" />
    <sodipodi:guide
       position="211.66667,269.38659"
       orientation="1,0"
       id="guide146" />
    <sodipodi:guide
       position="52.916667,269.38659"
       orientation="1,0"
       id="guide148" />
    <sodipodi:guide
       position="132.29166,211.66667"
       orientation="1,0"
       id="guide133" />
    <sodipodi:guide
       position="52.916666,132.29167"
       orientation="0,-1"
       id="guide135" />
  </sodipodi:namedview>
  <metadata
     id="metadata218">
    <rdf:RDF>
      <cc:Work
         rdf:about="">
        <dc:format>image/svg+xml</dc:format>
        <dc:type
           rdf:resource="http://purl.org/dc/dcmitype/StillImage" />
      </cc:Work>
    </rdf:RDF>
  </metadata>
  <g
     inkscape:label="Layer 1"
     inkscape:groupmode="layer"
     id="layer1">
    <path
       id="rect1761-8-8-8-0-5-7-6-4-3-1-1-27"
       style="display:inline;opacity:0.999;fill:#000000;fill-opacity:1;stroke:none;stroke-width:10.1545;stroke-miterlimit:4;stroke-dasharray:none;stroke-opacity:1"
       d="m 102.52603,52.916665 v 8.85e-4 H 71.430506 c -10.179613,0 -18.513839,8.333953 -18.513839,18.513627 v 31.094283 6.6148 46.3037 6.61479 31.09429 c 0,10.17967 8.334226,18.51363 18.513839,18.51363 H 193.15283 c 10.17979,0 18.51384,-8.33396 18.51384,-18.51363 v -57.55353 -6.6148 -57.553533 c 0,-10.179674 -8.33405,-18.513627 -18.51384,-18.513627 h -31.09552 v -8.85e-4 h -6.61496 v 8.85e-4 h -46.30154 v -8.85e-4 z M 71.430506,61.735463 H 102.52603 V 102.52546 H 61.733671 V 71.431177 c 0,-5.448256 4.248517,-9.695714 9.696835,-9.695714 z m 37.710304,0 h 46.30154 v 40.789997 h -46.30154 z m 52.9165,0 h 31.09552 c 5.44849,0 9.69666,4.247458 9.69666,9.695714 V 128.98471 H 162.05731 Z M 61.733671,109.14026 h 40.792359 v 46.3037 H 61.733671 Z m 47.407139,0 h 46.30154 v 19.84445 6.6148 19.84445 h -46.30154 z m 52.9165,26.45925 h 40.79218 v 57.55351 c 0,5.44826 -4.24817,9.69572 -9.69666,9.69572 H 162.05731 Z M 61.733671,162.05875 h 40.792359 v 40.78999 H 71.430506 c -5.448318,0 -9.696835,-4.24746 -9.696835,-9.69572 z m 47.407139,0 h 46.30154 v 40.78999 h -46.30154 z" />
  </g>
</svg>
