<?xml version="1.0" encoding="UTF-8" standalone="no"?>
<svg
   width="1000"
   height="1000"
   viewBox="0 0 264.58333 264.58334"
   version="1.1"
   id="svg221"
   inkscape:version="1.1.1 (3bf5ae0d25, 2021-09-20)"
   sodipodi:docname="headphone off.svg"
   xmlns:inkscape="http://www.inkscape.org/namespaces/inkscape"
   xmlns:sodipodi="http://sodipodi.sourceforge.net/DTD/sodipodi-0.dtd"
   xmlns="http://www.w3.org/2000/svg"
   xmlns:svg="http://www.w3.org/2000/svg"
   xmlns:rdf="http://www.w3.org/1999/02/22-rdf-syntax-ns#"
   xmlns:cc="http://creativecommons.org/ns#"
   xmlns:dc="http://purl.org/dc/elements/1.1/">
  <defs
     id="defs215" />
  <sodipodi:namedview
     id="base"
     pagecolor="#ffffff"
     bordercolor="#666666"
     borderopacity="1.0"
     inkscape:pageopacity="0.0"
     inkscape:pageshadow="2"
     inkscape:zoom="0.69999999"
     inkscape:cx="507.85715"
     inkscape:cy="449.28572"
     inkscape:document-units="mm"
     inkscape:current-layer="layer1"
     inkscape:document-rotation="0"
     showgrid="false"
     units="px"
     showguides="true"
     inkscape:guide-bbox="true"
     inkscape:window-width="1366"
     inkscape:window-height="740"
     inkscape:window-x="0"
     inkscape:window-y="28"
     inkscape:window-maximized="0"
     inkscape:pagecheckerboard="0"
     inkscape:snap-bbox="true"
     inkscape:bbox-nodes="true"
     inkscape:snap-midpoints="true">
    <sodipodi:guide
       position="-5.0862631e-06,52.916663"
       orientation="0,-1"
       id="guide1048" />
    <sodipodi:guide
       position="75.848259,211.66667"
       orientation="0,-1"
       id="guide144" />
    <sodipodi:guide
       position="211.66667,269.38659"
       orientation="1,0"
       id="guide146" />
    <sodipodi:guide
       position="52.916667,269.38659"
       orientation="1,0"
       id="guide148" />
    <sodipodi:guide
       position="132.29166,211.66667"
       orientation="1,0"
       id="guide133" />
    <sodipodi:guide
       position="52.916666,132.29167"
       orientation="0,-1"
       id="guide135" />
  </sodipodi:namedview>
  <metadata
     id="metadata218">
    <rdf:RDF>
      <cc:Work
         rdf:about="">
        <dc:format>image/svg+xml</dc:format>
        <dc:type
           rdf:resource="http://purl.org/dc/dcmitype/StillImage" />
      </cc:Work>
    </rdf:RDF>
  </metadata>
  <g
     inkscape:label="Layer 1"
     inkscape:groupmode="layer"
     id="layer1">
    <path
       id="text1814-7-9-1-7-7-4-3"
       style="font-size:66.9282px;line-height:1.25;font-family:sans-serif;direction:rtl;display:inline;stroke-width:0.402456"
       d="m 71.429997,52.916665 c -10.179624,0 -18.51333,8.334004 -18.51333,18.513738 V 193.15293 c 0,10.17974 8.333706,18.51374 18.51333,18.51374 H 193.15281 c 10.17962,0 18.51386,-8.334 18.51386,-18.51374 V 71.430403 c 0,-10.179734 -8.33424,-18.513738 -18.51386,-18.513738 z m 0,8.818015 H 193.15281 c 5.44815,0 9.69649,4.247435 9.69649,9.695723 V 193.15293 c 0,5.44829 -4.24834,9.6959 -9.69649,9.6959 H 71.429997 c -5.448147,0 -9.696492,-4.24761 -9.696492,-9.6959 V 71.430403 c 0,-5.448288 4.248345,-9.695723 9.696492,-9.695723 z m 57.171423,17.640615 c -12.60446,0.307269 -23.05713,4.649777 -31.357853,13.027173 -8.300721,8.377572 -12.6041,18.791202 -12.911724,31.242282 v 34.58643 c 0,3.07428 0.844731,5.76385 2.536131,8.0696 l 26.977036,-26.97633 v -5.76437 H 94.24653 v -9.91533 c 0.153459,-9.68425 3.458649,-17.75385 9.91451,-24.209848 6.45622,-6.455996 14.60295,-9.837717 24.44038,-10.145162 4.91898,0 9.49224,0.921807 13.71959,2.766478 4.22736,1.844494 7.95535,4.458219 11.18346,7.83994 l 6.91641,-7.148145 c -4.15027,-4.150245 -8.91526,-7.378155 -14.29532,-9.683905 -5.38024,-2.305751 -11.22139,-3.535179 -17.52414,-3.688813 z m 45.42369,12.450207 -87.157136,87.157078 6.225321,6.22564 12.220805,-12.22055 h 8.53091 v -8.53086 l 29.51388,-29.51402 v 38.04488 h 14.75693 c 4.15045,-0.15346 7.60857,-1.61396 10.37577,-4.38079 2.76703,-2.76683 4.22683,-6.22545 4.38082,-10.3757 v -34.58643 c 0,-5.3802 -0.92217,-10.52951 -2.76668,-15.44845 l 10.14523,-10.14499 z m -11.75937,24.210738 c 0.46109,2.45956 0.69216,4.99532 0.69216,7.60851 v 9.91533 h -18.21612 z" />
  </g>
</svg>
