<?xml version="1.0" encoding="UTF-8" standalone="no"?>
<svg
   width="1000"
   height="1000"
   viewBox="0 0 264.58333 264.58334"
   version="1.1"
   id="svg221"
   inkscape:version="1.1.1 (3bf5ae0d25, 2021-09-20)"
   sodipodi:docname="incognito.svg"
   xmlns:inkscape="http://www.inkscape.org/namespaces/inkscape"
   xmlns:sodipodi="http://sodipodi.sourceforge.net/DTD/sodipodi-0.dtd"
   xmlns="http://www.w3.org/2000/svg"
   xmlns:svg="http://www.w3.org/2000/svg"
   xmlns:rdf="http://www.w3.org/1999/02/22-rdf-syntax-ns#"
   xmlns:cc="http://creativecommons.org/ns#"
   xmlns:dc="http://purl.org/dc/elements/1.1/">
  <defs
     id="defs215" />
  <sodipodi:namedview
     id="base"
     pagecolor="#ffffff"
     bordercolor="#666666"
     borderopacity="1.0"
     inkscape:pageopacity="0.0"
     inkscape:pageshadow="2"
     inkscape:zoom="0.49497474"
     inkscape:cx="439.41636"
     inkscape:cy="502.04582"
     inkscape:document-units="mm"
     inkscape:current-layer="layer1"
     inkscape:document-rotation="0"
     showgrid="false"
     units="px"
     showguides="true"
     inkscape:guide-bbox="true"
     inkscape:window-width="1366"
     inkscape:window-height="740"
     inkscape:window-x="0"
     inkscape:window-y="28"
     inkscape:window-maximized="0"
     inkscape:pagecheckerboard="0"
     inkscape:snap-bbox="true"
     inkscape:bbox-nodes="true"
     inkscape:snap-midpoints="true">
    <sodipodi:guide
       position="-5.0862631e-06,52.916663"
       orientation="0,-1"
       id="guide1048" />
    <sodipodi:guide
       position="75.848259,211.66667"
       orientation="0,-1"
       id="guide144" />
    <sodipodi:guide
       position="211.66667,269.38659"
       orientation="1,0"
       id="guide146" />
    <sodipodi:guide
       position="52.916667,269.38659"
       orientation="1,0"
       id="guide148" />
    <sodipodi:guide
       position="132.29166,211.66667"
       orientation="1,0"
       id="guide133" />
    <sodipodi:guide
       position="52.916666,132.29167"
       orientation="0,-1"
       id="guide135" />
  </sodipodi:namedview>
  <metadata
     id="metadata218">
    <rdf:RDF>
      <cc:Work
         rdf:about="">
        <dc:format>image/svg+xml</dc:format>
        <dc:type
           rdf:resource="http://purl.org/dc/dcmitype/StillImage" />
      </cc:Work>
    </rdf:RDF>
  </metadata>
  <g
     inkscape:label="Layer 1"
     inkscape:groupmode="layer"
     id="layer1">
    <path
       id="text1814-7-9-8-4"
       style="font-size:65.3617px;line-height:1.25;font-family:sans-serif;direction:rtl;display:inline;stroke-width:0.393037"
       d="m 71.430703,52.916665 c -10.179624,0 -18.514036,8.334005 -18.514036,18.51374 V 193.15295 c 0,10.17972 8.334412,18.51372 18.514036,18.51372 H 193.15281 c 10.18015,0 18.51386,-8.334 18.51386,-18.51372 V 71.430405 c 0,-10.179735 -8.33371,-18.51374 -18.51386,-18.51374 z m 0,8.817963 H 193.15281 c 5.44868,0 9.69702,4.247488 9.69702,9.695777 V 193.15295 c 0,5.44829 -4.24834,9.69571 -9.69702,9.69571 H 71.430703 c -5.448324,0 -9.697198,-4.24742 -9.697198,-9.69571 V 71.430405 c 0,-5.448289 4.248874,-9.695777 9.697198,-9.695777 z m 60.860967,27.435631 c -6.60509,0.300213 -11.89696,1.276506 -15.87508,2.927802 -3.97811,1.651262 -6.04293,2.626602 -6.19268,2.926833 l -6.75538,22.968326 h 57.64645 l -6.75643,-22.968326 c -0.14993,-0.300231 -2.21352,-1.275571 -6.19163,-2.926833 -3.97812,-1.651296 -9.26999,-2.627589 -15.87525,-2.927802 z m 0,38.505051 c -7.05542,0 -14.03586,0.41309 -20.94116,1.23876 -6.90566,0.82562 -10.95892,1.31374 -12.159777,1.46388 -4.953904,1.35103 -9.007339,2.7015 -12.159775,4.05258 -4.953551,1.65131 -7.506439,2.5525 -7.656723,2.70262 H 185.20822 c -0.14993,-0.15011 -2.70211,-1.05131 -7.6562,-2.70262 -3.15208,-1.35108 -7.28048,-2.70155 -12.38467,-4.05258 -0.60025,-0.1501 -4.39069,-0.63826 -11.37113,-1.46388 -6.98045,-0.82567 -14.14892,-1.23876 -21.50455,-1.23876 z m -21.61744,14.41191 c -4.80415,0 -8.78227,1.61349 -11.934702,4.84107 -3.152613,3.22752 -4.727772,7.20572 -4.727772,11.93441 0,4.72873 1.575159,8.66893 4.727772,11.82142 3.152432,3.15247 7.130552,4.72892 11.934702,4.72892 4.8038,0 8.78191,-1.57645 11.93452,-4.72892 3.15244,-3.15249 4.80362,-7.13068 4.95391,-11.93441 0,-0.75064 -0.0758,-1.50084 -0.2249,-2.25148 1.5009,-0.30023 3.15244,-0.45027 4.95391,-0.45027 1.80146,0 3.45318,0.15011 4.95408,0.45027 -0.14993,0.75064 -0.2249,1.50084 -0.2249,2.25148 0.14994,4.80373 1.80041,8.78192 4.95303,11.93441 3.15243,3.15247 7.13072,4.72892 11.93434,4.72892 4.80415,0 8.78227,-1.57645 11.93488,-4.72892 3.15209,-3.15249 4.72866,-7.09269 4.72866,-11.82142 0,-4.72869 -1.57657,-8.70689 -4.72866,-11.93441 -3.15261,-3.22758 -7.13073,-4.84107 -11.93488,-4.84107 -3.60293,0 -6.79276,0.93828 -9.57002,2.81477 -2.7769,1.87649 -4.76552,4.39029 -5.96673,7.54276 -1.5009,-0.45036 -3.5278,-0.67544 -6.0798,-0.67544 -2.55183,0 -4.57873,0.22508 -6.07963,0.67544 -1.20121,-3.15247 -3.19071,-5.66627 -5.96761,-7.54276 -2.77726,-1.87649 -5.96727,-2.81477 -9.5702,-2.81477 z m 0,4.72804 c 3.45265,0.1501 6.30558,1.35145 8.55737,3.60319 2.25196,2.25176 3.37715,5.06664 3.37715,8.44425 0,3.37765 -1.12519,6.19252 -3.37715,8.44427 -2.25179,2.25175 -5.10472,3.37715 -8.55737,3.37715 -3.453,0 -6.30452,-1.1254 -8.55631,-3.37715 -2.251791,-2.25175 -3.378392,-5.06662 -3.378392,-8.44427 0,-3.37761 1.126601,-6.19249 3.378392,-8.44425 2.25179,-2.25174 5.10331,-3.45307 8.55631,-3.60319 z m 43.23399,0 c 3.45318,0.1501 6.30558,1.35145 8.55737,3.60319 2.25179,2.25176 3.37751,5.06664 3.37751,8.44425 0,3.37765 -1.12572,6.19252 -3.37751,8.44427 -2.25179,2.25175 -5.10419,3.37715 -8.55737,3.37715 -3.45265,0 -6.30452,-1.1254 -8.55648,-3.37715 -2.25179,-2.25175 -3.37786,-5.06662 -3.37786,-8.44427 0,-3.37761 1.12607,-6.19249 3.37786,-8.44425 2.25196,-2.25174 5.10383,-3.45307 8.55648,-3.60319 z" />
  </g>
</svg>
