<?xml version="1.0" encoding="UTF-8" standalone="no"?>
<svg
   width="1000"
   height="1000"
   viewBox="0 0 264.58333 264.58334"
   version="1.1"
   id="svg221"
   inkscape:version="1.1.1 (3bf5ae0d25, 2021-09-20)"
   sodipodi:docname="info.svg"
   xmlns:inkscape="http://www.inkscape.org/namespaces/inkscape"
   xmlns:sodipodi="http://sodipodi.sourceforge.net/DTD/sodipodi-0.dtd"
   xmlns="http://www.w3.org/2000/svg"
   xmlns:svg="http://www.w3.org/2000/svg"
   xmlns:rdf="http://www.w3.org/1999/02/22-rdf-syntax-ns#"
   xmlns:cc="http://creativecommons.org/ns#"
   xmlns:dc="http://purl.org/dc/elements/1.1/">
  <defs
     id="defs215" />
  <sodipodi:namedview
     id="base"
     pagecolor="#ffffff"
     bordercolor="#666666"
     borderopacity="1.0"
     inkscape:pageopacity="0.0"
     inkscape:pageshadow="2"
     inkscape:zoom="0.49497474"
     inkscape:cx="439.41636"
     inkscape:cy="502.04582"
     inkscape:document-units="mm"
     inkscape:current-layer="layer1"
     inkscape:document-rotation="0"
     showgrid="false"
     units="px"
     showguides="true"
     inkscape:guide-bbox="true"
     inkscape:window-width="1366"
     inkscape:window-height="740"
     inkscape:window-x="0"
     inkscape:window-y="28"
     inkscape:window-maximized="0"
     inkscape:pagecheckerboard="0"
     inkscape:snap-bbox="true"
     inkscape:bbox-nodes="true"
     inkscape:snap-midpoints="true">
    <sodipodi:guide
       position="-5.0862631e-06,52.916663"
       orientation="0,-1"
       id="guide1048" />
    <sodipodi:guide
       position="75.848259,211.66667"
       orientation="0,-1"
       id="guide144" />
    <sodipodi:guide
       position="211.66667,269.38659"
       orientation="1,0"
       id="guide146" />
    <sodipodi:guide
       position="52.916667,269.38659"
       orientation="1,0"
       id="guide148" />
    <sodipodi:guide
       position="132.29166,211.66667"
       orientation="1,0"
       id="guide133" />
    <sodipodi:guide
       position="52.916666,132.29167"
       orientation="0,-1"
       id="guide135" />
  </sodipodi:namedview>
  <metadata
     id="metadata218">
    <rdf:RDF>
      <cc:Work
         rdf:about="">
        <dc:format>image/svg+xml</dc:format>
        <dc:type
           rdf:resource="http://purl.org/dc/dcmitype/StillImage" />
      </cc:Work>
    </rdf:RDF>
  </metadata>
  <g
     inkscape:label="Layer 1"
     inkscape:groupmode="layer"
     id="layer1">
    <path
       id="text1814-8-1-2-6-0-8-7"
       style="font-size:76.323px;line-height:1.25;font-family:sans-serif;direction:rtl;display:inline;stroke-width:0.45895"
       d="m 71.430506,52.916665 c -10.179436,0 -18.513839,8.334005 -18.513839,18.51374 V 193.15295 c 0,10.17973 8.334403,18.51372 18.513839,18.51372 H 193.15283 c 10.17979,0 18.51384,-8.33399 18.51384,-18.51372 V 71.430405 c 0,-10.179735 -8.33405,-18.51374 -18.51384,-18.51374 z m 0,8.817963 H 193.15283 c 5.44832,0 9.69666,4.247488 9.69666,9.695777 V 193.15295 c 0,5.44829 -4.24834,9.69576 -9.69666,9.69576 H 71.430506 c -5.448142,0 -9.697011,-4.24747 -9.697011,-9.69576 V 71.430405 c 0,-5.448289 4.248869,-9.695777 9.697011,-9.695777 z M 122.6944,79.375174 c -1.31516,0 -2.45428,0.482423 -3.41843,1.446563 -0.96432,0.964104 -1.44639,2.10345 -1.44639,3.41818 V 98.56981 c 0,1.314676 0.48207,2.45402 1.44639,3.41816 0.96415,0.96411 2.10327,1.44658 3.41843,1.44658 h 19.19453 c 1.31481,0 2.45411,-0.48247 3.41826,-1.44658 0.96414,-0.96414 1.44568,-2.103484 1.44568,-3.41816 V 84.239917 c 0,-1.31473 -0.48154,-2.454076 -1.44568,-3.41818 -0.96415,-0.96414 -2.10345,-1.446563 -3.41826,-1.446563 z m -9.59753,38.520506 c -1.3148,0 -2.45393,0.46069 -3.41807,1.38096 -0.96432,0.92027 -1.44675,2.03787 -1.44675,3.35255 v 9.5973 c 0,1.31471 0.48243,2.45406 1.44675,3.4182 0.96414,0.96409 2.10327,1.44563 3.41807,1.44563 h 4.73271 v 28.79197 h -4.73271 c -1.3148,0 -2.45393,0.48248 -3.41807,1.44657 -0.96432,0.9641 -1.44675,2.10348 -1.44675,3.41818 v 9.59733 c 0,1.31468 0.48243,2.45406 1.44675,3.41816 0.96414,0.96411 2.10327,1.44563 3.41807,1.44563 h 38.38941 c 1.31481,0 2.45411,-0.48152 3.41826,-1.44563 0.96414,-0.9641 1.44568,-2.10348 1.44568,-3.41816 v -9.59733 c 0,-1.3147 -0.48154,-2.45408 -1.44568,-3.41818 -0.96415,-0.96409 -2.10345,-1.44657 -3.41826,-1.44657 h -4.73341 v -43.2531 c 0,-1.31468 -0.48154,-2.43228 -1.44568,-3.35255 -0.96415,-0.92027 -2.10345,-1.38096 -3.41826,-1.38096 z" />
  </g>
</svg>
