<?xml version="1.0" encoding="UTF-8" standalone="no"?>
<svg
   width="1000"
   height="1000"
   viewBox="0 0 264.58333 264.58334"
   version="1.1"
   id="svg221"
   inkscape:version="1.1.1 (3bf5ae0d25, 2021-09-20)"
   sodipodi:docname="magnet slim.svg"
   xmlns:inkscape="http://www.inkscape.org/namespaces/inkscape"
   xmlns:sodipodi="http://sodipodi.sourceforge.net/DTD/sodipodi-0.dtd"
   xmlns="http://www.w3.org/2000/svg"
   xmlns:svg="http://www.w3.org/2000/svg"
   xmlns:rdf="http://www.w3.org/1999/02/22-rdf-syntax-ns#"
   xmlns:cc="http://creativecommons.org/ns#"
   xmlns:dc="http://purl.org/dc/elements/1.1/">
  <defs
     id="defs215" />
  <sodipodi:namedview
     id="base"
     pagecolor="#ffffff"
     bordercolor="#666666"
     borderopacity="1.0"
     inkscape:pageopacity="0.0"
     inkscape:pageshadow="2"
     inkscape:zoom="0.69999999"
     inkscape:cx="507.85715"
     inkscape:cy="449.28572"
     inkscape:document-units="mm"
     inkscape:current-layer="layer1"
     inkscape:document-rotation="0"
     showgrid="false"
     units="px"
     showguides="true"
     inkscape:guide-bbox="true"
     inkscape:window-width="1366"
     inkscape:window-height="740"
     inkscape:window-x="0"
     inkscape:window-y="28"
     inkscape:window-maximized="0"
     inkscape:pagecheckerboard="0"
     inkscape:snap-bbox="true"
     inkscape:bbox-nodes="true"
     inkscape:snap-midpoints="true">
    <sodipodi:guide
       position="-5.0862631e-06,52.916663"
       orientation="0,-1"
       id="guide1048" />
    <sodipodi:guide
       position="75.848259,211.66667"
       orientation="0,-1"
       id="guide144" />
    <sodipodi:guide
       position="211.66667,269.38659"
       orientation="1,0"
       id="guide146" />
    <sodipodi:guide
       position="52.916667,269.38659"
       orientation="1,0"
       id="guide148" />
    <sodipodi:guide
       position="132.29166,211.66667"
       orientation="1,0"
       id="guide133" />
    <sodipodi:guide
       position="52.916666,132.29167"
       orientation="0,-1"
       id="guide135" />
  </sodipodi:namedview>
  <metadata
     id="metadata218">
    <rdf:RDF>
      <cc:Work
         rdf:about="">
        <dc:format>image/svg+xml</dc:format>
        <dc:type
           rdf:resource="http://purl.org/dc/dcmitype/StillImage" />
      </cc:Work>
    </rdf:RDF>
  </metadata>
  <g
     inkscape:label="Layer 1"
     inkscape:groupmode="layer"
     id="layer1">
    <path
       id="text1814-7-9-1-7-6-9-63-6-0-8"
       style="font-size:72.1128px;line-height:1.25;font-family:sans-serif;direction:rtl;display:inline;stroke-width:0.433631"
       d="m 71.430506,52.916665 c -10.179436,0 -18.513839,8.334004 -18.513839,18.513738 V 193.15293 c 0,10.17974 8.334403,18.51374 18.513839,18.51374 H 193.15283 c 10.17979,0 18.51384,-8.334 18.51384,-18.51374 V 71.430403 c 0,-10.179734 -8.33405,-18.513738 -18.51384,-18.513738 z m 0,8.818015 H 193.15283 c 5.44832,0 9.69666,4.247435 9.69666,9.695723 V 193.15293 c 0,5.44829 -4.24834,9.6959 -9.69666,9.6959 H 71.430506 c -5.448142,0 -9.697011,-4.24761 -9.697011,-9.6959 V 71.430403 c 0,-5.448288 4.248869,-9.695723 9.697011,-9.695723 z M 84.591983,79.375295 V 95.274779 H 105.70898 V 79.375295 Z m 74.282197,0 v 15.899484 h 21.11717 V 79.375295 Z M 84.591983,105.70887 v 31.79984 c 0.331259,13.58121 4.968891,24.84344 13.91219,33.78704 8.943827,8.94378 20.206117,13.58121 33.787407,13.91247 13.58129,-0.33126 24.84358,-4.96869 33.78723,-13.91247 8.94383,-8.9436 13.58128,-20.20583 13.91254,-33.78704 v -31.79984 h -21.11717 v 31.79984 c -0.1658,7.61875 -2.77478,13.91246 -7.82622,18.88115 -5.05162,4.96869 -11.30322,7.53567 -18.75638,7.7013 -7.45316,-0.1658 -13.70547,-2.73261 -18.75691,-7.7013 -5.05161,-4.96869 -7.65989,-11.2624 -7.82569,-18.88115 v -31.79984 z" />
  </g>
</svg>
