<?xml version="1.0" encoding="UTF-8" standalone="no"?>
<svg
   width="1000"
   height="1000"
   viewBox="0 0 264.58333 264.58334"
   version="1.1"
   id="svg221"
   inkscape:version="1.1.1 (3bf5ae0d25, 2021-09-20)"
   sodipodi:docname="master stack.svg"
   xmlns:inkscape="http://www.inkscape.org/namespaces/inkscape"
   xmlns:sodipodi="http://sodipodi.sourceforge.net/DTD/sodipodi-0.dtd"
   xmlns="http://www.w3.org/2000/svg"
   xmlns:svg="http://www.w3.org/2000/svg"
   xmlns:rdf="http://www.w3.org/1999/02/22-rdf-syntax-ns#"
   xmlns:cc="http://creativecommons.org/ns#"
   xmlns:dc="http://purl.org/dc/elements/1.1/">
  <defs
     id="defs215" />
  <sodipodi:namedview
     id="base"
     pagecolor="#ffffff"
     bordercolor="#666666"
     borderopacity="1.0"
     inkscape:pageopacity="0.0"
     inkscape:pageshadow="2"
     inkscape:zoom="0.49497474"
     inkscape:cx="344.46202"
     inkscape:cy="651.5484"
     inkscape:document-units="mm"
     inkscape:current-layer="layer1"
     inkscape:document-rotation="0"
     showgrid="false"
     units="px"
     showguides="true"
     inkscape:guide-bbox="true"
     inkscape:window-width="1366"
     inkscape:window-height="740"
     inkscape:window-x="0"
     inkscape:window-y="28"
     inkscape:window-maximized="0"
     inkscape:pagecheckerboard="0"
     inkscape:snap-bbox="true"
     inkscape:bbox-nodes="true"
     inkscape:snap-midpoints="true">
    <sodipodi:guide
       position="-5.0862631e-06,52.916663"
       orientation="0,-1"
       id="guide1048" />
    <sodipodi:guide
       position="75.848259,211.66667"
       orientation="0,-1"
       id="guide144" />
    <sodipodi:guide
       position="211.66667,269.38659"
       orientation="1,0"
       id="guide146" />
    <sodipodi:guide
       position="52.916667,269.38659"
       orientation="1,0"
       id="guide148" />
    <sodipodi:guide
       position="132.29166,211.66667"
       orientation="1,0"
       id="guide133" />
    <sodipodi:guide
       position="52.916666,132.29167"
       orientation="0,-1"
       id="guide135" />
  </sodipodi:namedview>
  <metadata
     id="metadata218">
    <rdf:RDF>
      <cc:Work
         rdf:about="">
        <dc:format>image/svg+xml</dc:format>
        <dc:type
           rdf:resource="http://purl.org/dc/dcmitype/StillImage" />
      </cc:Work>
    </rdf:RDF>
  </metadata>
  <g
     inkscape:label="Layer 1"
     inkscape:groupmode="layer"
     id="layer1">
    <path
       id="rect1761-8-8-8-0-5-7-6-4-3-0"
       style="display:inline;opacity:0.999;fill:#000000;fill-opacity:1;stroke:none;stroke-width:5.28455;stroke-miterlimit:4;stroke-dasharray:none;stroke-opacity:1"
       d="m 71.430403,52.916665 c -10.179556,0 -18.513736,8.333953 -18.513736,18.513625 V 193.1521 c 0,10.17968 8.33418,18.51367 18.513736,18.51367 h 17.867449 v 9e-4 h 6.614039 v -9e-4 h 72.760439 v 9e-4 h 6.61492 v -9e-4 h 17.86568 c 10.17974,0 18.51374,-8.33399 18.51374,-18.51367 v -57.5526 -6.61479 -57.55442 c 0,-10.179672 -8.334,-18.513625 -18.51374,-18.513625 z m 0,8.817911 H 89.297852 V 128.98471 H 61.734681 V 71.43029 c 0,-5.448256 4.247434,-9.695714 9.695722,-9.695714 z m 24.481488,0 H 168.67233 V 202.84782 H 95.911891 Z m 79.375359,0 h 17.86568 c 5.44847,0 9.69573,4.247458 9.69573,9.695714 v 57.55442 H 175.28725 Z M 61.734681,135.5995 h 27.563171 v 67.24832 H 71.430403 c -5.448288,0 -9.695722,-4.24746 -9.695722,-9.69572 z m 113.552569,0 h 27.56141 v 57.5526 c 0,5.44826 -4.24726,9.69572 -9.69573,9.69572 h -17.86568 z" />
  </g>
</svg>
