<?xml version="1.0" encoding="UTF-8" standalone="no"?>
<svg
   width="1000"
   height="1000"
   viewBox="0 0 264.58333 264.58334"
   version="1.1"
   id="svg221"
   inkscape:version="1.1.1 (3bf5ae0d25, 2021-09-20)"
   sodipodi:docname="media pause.svg"
   xmlns:inkscape="http://www.inkscape.org/namespaces/inkscape"
   xmlns:sodipodi="http://sodipodi.sourceforge.net/DTD/sodipodi-0.dtd"
   xmlns="http://www.w3.org/2000/svg"
   xmlns:svg="http://www.w3.org/2000/svg"
   xmlns:rdf="http://www.w3.org/1999/02/22-rdf-syntax-ns#"
   xmlns:cc="http://creativecommons.org/ns#"
   xmlns:dc="http://purl.org/dc/elements/1.1/">
  <defs
     id="defs215" />
  <sodipodi:namedview
     id="base"
     pagecolor="#ffffff"
     bordercolor="#666666"
     borderopacity="1.0"
     inkscape:pageopacity="0.0"
     inkscape:pageshadow="2"
     inkscape:zoom="0.69999999"
     inkscape:cx="439.28572"
     inkscape:cy="502.14286"
     inkscape:document-units="mm"
     inkscape:current-layer="layer1"
     inkscape:document-rotation="0"
     showgrid="false"
     units="px"
     showguides="true"
     inkscape:guide-bbox="true"
     inkscape:window-width="1366"
     inkscape:window-height="740"
     inkscape:window-x="0"
     inkscape:window-y="28"
     inkscape:window-maximized="0"
     inkscape:pagecheckerboard="0"
     inkscape:snap-bbox="true"
     inkscape:bbox-nodes="true"
     inkscape:snap-midpoints="true">
    <sodipodi:guide
       position="-5.0862631e-06,52.916663"
       orientation="0,-1"
       id="guide1048" />
    <sodipodi:guide
       position="75.848259,211.66667"
       orientation="0,-1"
       id="guide144" />
    <sodipodi:guide
       position="211.66667,269.38659"
       orientation="1,0"
       id="guide146" />
    <sodipodi:guide
       position="52.916667,269.38659"
       orientation="1,0"
       id="guide148" />
    <sodipodi:guide
       position="132.29166,211.66667"
       orientation="1,0"
       id="guide133" />
    <sodipodi:guide
       position="52.916666,132.29167"
       orientation="0,-1"
       id="guide135" />
  </sodipodi:namedview>
  <metadata
     id="metadata218">
    <rdf:RDF>
      <cc:Work
         rdf:about="">
        <dc:format>image/svg+xml</dc:format>
        <dc:type
           rdf:resource="http://purl.org/dc/dcmitype/StillImage" />
      </cc:Work>
    </rdf:RDF>
  </metadata>
  <g
     inkscape:label="Layer 1"
     inkscape:groupmode="layer"
     id="layer1">
    <path
       id="path69307-3"
       style="font-size:103.087px;line-height:1.25;font-family:'Hack Nerd Font';-inkscape-font-specification:'Hack Nerd Font';direction:rtl;stroke-width:0.61989"
       d="m 71.430247,52.916665 c -10.179567,0 -18.51358,8.334037 -18.51358,18.513832 V 193.15282 c 0,10.1798 8.334013,18.51385 18.51358,18.51385 H 193.15291 c 10.17975,0 18.51376,-8.33405 18.51376,-18.51385 V 71.430497 c 0,-10.179795 -8.33401,-18.513832 -18.51376,-18.513832 z m 0,8.817115 H 193.15291 c 5.44847,0 9.69574,4.248396 9.69574,9.696717 V 193.15282 c 0,5.44832 -4.24727,9.69684 -9.69574,9.69684 H 71.430247 c -5.448293,0 -9.695733,-4.24852 -9.695733,-9.69684 V 71.430497 c 0,-5.448321 4.24744,-9.696717 9.695733,-9.696717 z M 101.90034,79.37533 A 15.066997,15.067073 0 0 0 86.833037,94.442686 v 75.698884 a 15.066997,15.067073 0 0 0 15.067303,15.06737 h 0.0529 a 15.066997,15.067073 0 0 0 15.06642,-15.06737 V 94.442686 A 15.066997,15.067073 0 0 0 101.95325,79.37533 Z m 60.72974,0 a 15.066997,15.067073 0 0 0 -15.06747,15.067356 v 75.698884 a 15.066997,15.067073 0 0 0 15.06747,15.06737 h 0.0529 A 15.066997,15.067073 0 0 0 177.7494,170.14157 V 94.442686 A 15.066997,15.067073 0 0 0 162.683,79.37533 Z" />
  </g>
</svg>
