<?xml version="1.0" encoding="UTF-8" standalone="no"?>
<svg
   width="1000"
   height="1000"
   viewBox="0 0 264.58333 264.58334"
   version="1.1"
   id="svg221"
   inkscape:version="1.1.1 (3bf5ae0d25, 2021-09-20)"
   sodipodi:docname="O.svg"
   xmlns:inkscape="http://www.inkscape.org/namespaces/inkscape"
   xmlns:sodipodi="http://sodipodi.sourceforge.net/DTD/sodipodi-0.dtd"
   xmlns="http://www.w3.org/2000/svg"
   xmlns:svg="http://www.w3.org/2000/svg"
   xmlns:rdf="http://www.w3.org/1999/02/22-rdf-syntax-ns#"
   xmlns:cc="http://creativecommons.org/ns#"
   xmlns:dc="http://purl.org/dc/elements/1.1/">
  <defs
     id="defs215" />
  <sodipodi:namedview
     id="base"
     pagecolor="#ffffff"
     bordercolor="#666666"
     borderopacity="1.0"
     inkscape:pageopacity="0.0"
     inkscape:pageshadow="2"
     inkscape:zoom="0.49497474"
     inkscape:cx="344.46202"
     inkscape:cy="651.5484"
     inkscape:document-units="mm"
     inkscape:current-layer="layer1"
     inkscape:document-rotation="0"
     showgrid="false"
     units="px"
     showguides="true"
     inkscape:guide-bbox="true"
     inkscape:window-width="1366"
     inkscape:window-height="740"
     inkscape:window-x="0"
     inkscape:window-y="28"
     inkscape:window-maximized="0"
     inkscape:pagecheckerboard="0"
     inkscape:snap-bbox="true"
     inkscape:bbox-nodes="true"
     inkscape:snap-midpoints="true">
    <sodipodi:guide
       position="-5.0862631e-06,52.916663"
       orientation="0,-1"
       id="guide1048" />
    <sodipodi:guide
       position="-5.0862631e-06,211.66667"
       orientation="0,-1"
       id="guide144" />
    <sodipodi:guide
       position="211.66667,269.38659"
       orientation="1,0"
       id="guide146" />
    <sodipodi:guide
       position="52.916667,269.38659"
       orientation="1,0"
       id="guide148" />
    <sodipodi:guide
       position="132.29166,211.66667"
       orientation="1,0"
       id="guide133" />
    <sodipodi:guide
       position="52.916666,132.29167"
       orientation="0,-1"
       id="guide135" />
  </sodipodi:namedview>
  <metadata
     id="metadata218">
    <rdf:RDF>
      <cc:Work
         rdf:about="">
        <dc:format>image/svg+xml</dc:format>
        <dc:type
           rdf:resource="http://purl.org/dc/dcmitype/StillImage" />
      </cc:Work>
    </rdf:RDF>
  </metadata>
  <g
     inkscape:label="Layer 1"
     inkscape:groupmode="layer"
     id="layer1">
    <path
       id="text1950-3-2-7-8-9-0-1-4-2-9-3-5-4-6"
       style="font-style:normal;font-variant:normal;font-weight:normal;font-stretch:normal;font-size:82.139px;line-height:1.25;font-family:vi;-inkscape-font-specification:vi;direction:rtl;display:inline;fill:#000000;stroke-width:0.543312"
       d="m 71.429895,52.916665 c -10.179568,0 -18.513228,8.334005 -18.513228,18.51374 V 193.15293 c 0,10.17974 8.33366,18.51374 18.513228,18.51374 H 193.15291 c 10.17957,0 18.51376,-8.334 18.51376,-18.51374 V 71.430405 c 0,-10.179735 -8.33419,-18.51374 -18.51376,-18.51374 z m 0,8.81798 H 193.15291 c 5.44812,0 9.69644,4.247471 9.69644,9.69576 V 193.15293 c 0,5.44829 -4.24832,9.69576 -9.69644,9.69576 H 71.429895 c -5.448118,0 -9.695557,-4.24747 -9.695557,-9.69576 V 71.430405 c 0,-5.448289 4.247439,-9.69576 9.695557,-9.69576 z m 60.826225,17.640494 c -8.11158,0 -15.32765,2.027445 -21.64712,6.083446 -6.27291,4.008835 -11.130658,9.810325 -14.573589,17.403515 -3.442754,7.59319 -5.164308,16.34194 -5.164308,26.2461 v 7.42791 c 0.09349,9.71552 1.863017,18.27553 5.305772,25.68005 3.490026,7.3574 8.371585,13.04102 14.644495,17.04986 6.27238,3.96167 13.4641,5.94216 21.57622,5.94216 8.30068,0 15.56419,-1.98049 21.79,-5.94216 6.22529,-3.96167 11.03488,-9.69227 14.43107,-17.19113 3.39566,-7.54604 5.09357,-16.36568 5.09357,-26.45848 v -6.50821 c 0,-10.04564 -1.69791,-18.84134 -5.09357,-26.38739 -3.39619,-7.593187 -8.25341,-13.370741 -14.57341,-17.33241 -6.27291,-4.008835 -13.53554,-6.013261 -21.78913,-6.013261 z m 0,11.672846 c 8.81962,0 15.68184,3.277775 20.58686,9.833395 4.90502,6.50846 7.35753,15.8704 7.35753,28.08554 v 7.64029 c -0.14111,11.93217 -2.61814,21.10537 -7.42897,27.51949 -4.81012,6.36697 -11.60143,9.54992 -20.37395,9.54992 -8.72489,0 -15.58712,-3.3717 -20.5865,-10.11597 -4.95194,-6.79142 -7.42791,-16.10641 -7.42791,-27.94424 v -7.5692 c 0.14111,-11.60203 2.66435,-20.65737 7.56937,-27.16583 4.95211,-6.55562 11.72015,-9.833395 20.30357,-9.833395 z" />
  </g>
</svg>
