<?xml version="1.0" encoding="UTF-8" standalone="no"?>
<svg
   width="1000"
   height="1000"
   viewBox="0 0 264.58333 264.58334"
   version="1.1"
   id="svg221"
   inkscape:version="1.1.1 (3bf5ae0d25, 2021-09-20)"
   sodipodi:docname="paper plane.svg"
   xmlns:inkscape="http://www.inkscape.org/namespaces/inkscape"
   xmlns:sodipodi="http://sodipodi.sourceforge.net/DTD/sodipodi-0.dtd"
   xmlns="http://www.w3.org/2000/svg"
   xmlns:svg="http://www.w3.org/2000/svg"
   xmlns:rdf="http://www.w3.org/1999/02/22-rdf-syntax-ns#"
   xmlns:cc="http://creativecommons.org/ns#"
   xmlns:dc="http://purl.org/dc/elements/1.1/">
  <defs
     id="defs215" />
  <sodipodi:namedview
     id="base"
     pagecolor="#ffffff"
     bordercolor="#666666"
     borderopacity="1.0"
     inkscape:pageopacity="0.0"
     inkscape:pageshadow="2"
     inkscape:zoom="0.69999999"
     inkscape:cx="507.85715"
     inkscape:cy="449.28572"
     inkscape:document-units="mm"
     inkscape:current-layer="layer1"
     inkscape:document-rotation="0"
     showgrid="false"
     units="px"
     showguides="true"
     inkscape:guide-bbox="true"
     inkscape:window-width="1366"
     inkscape:window-height="740"
     inkscape:window-x="0"
     inkscape:window-y="28"
     inkscape:window-maximized="0"
     inkscape:pagecheckerboard="0"
     inkscape:snap-bbox="true"
     inkscape:bbox-nodes="true"
     inkscape:snap-midpoints="true">
    <sodipodi:guide
       position="-5.0862631e-06,52.916663"
       orientation="0,-1"
       id="guide1048" />
    <sodipodi:guide
       position="75.848259,211.66667"
       orientation="0,-1"
       id="guide144" />
    <sodipodi:guide
       position="211.66667,269.38659"
       orientation="1,0"
       id="guide146" />
    <sodipodi:guide
       position="52.916667,269.38659"
       orientation="1,0"
       id="guide148" />
    <sodipodi:guide
       position="132.29166,211.66667"
       orientation="1,0"
       id="guide133" />
    <sodipodi:guide
       position="52.916666,132.29167"
       orientation="0,-1"
       id="guide135" />
  </sodipodi:namedview>
  <metadata
     id="metadata218">
    <rdf:RDF>
      <cc:Work
         rdf:about="">
        <dc:format>image/svg+xml</dc:format>
        <dc:type
           rdf:resource="http://purl.org/dc/dcmitype/StillImage" />
      </cc:Work>
    </rdf:RDF>
  </metadata>
  <g
     inkscape:label="Layer 1"
     inkscape:groupmode="layer"
     id="layer1">
    <path
       id="text1814-7-9-1-7-6-9-63-7-1"
       style="font-size:59.9865px;line-height:1.25;font-family:sans-serif;direction:rtl;display:inline;stroke-width:0.360713"
       d="m 71.43058,52.916665 c -10.179557,0 -18.513913,8.334004 -18.513913,18.513738 V 193.15293 c 0,10.17974 8.334356,18.51374 18.513913,18.51374 h 121.72271 c 10.17955,0 18.51338,-8.334 18.51338,-18.51374 V 71.430403 c 0,-10.179734 -8.33383,-18.513738 -18.51338,-18.513738 z m 0,8.818015 h 121.72271 c 5.44828,0 9.6966,4.247435 9.6966,9.695723 V 193.15293 c 0,5.44829 -4.24832,9.69573 -9.6966,9.69573 H 71.43058 c -5.448288,0 -9.695723,-4.24744 -9.695723,-9.69573 V 71.430403 c 0,-5.448288 4.247435,-9.695723 9.695723,-9.695723 z m 109.98864,17.652433 c -0.72337,0 -1.36049,0.171097 -1.91152,0.51576 L 81.293166,136.57984 c -1.343199,0.79234 -1.980137,1.94557 -1.911522,3.4611 0.03528,0.75777 0.257527,1.42981 0.670982,2.01524 0.447674,0.55121 1.016526,0.96414 1.705323,1.23966 l 23.301101,9.55814 63.13403,-54.609524 -51.04472,62.566234 v 20.56178 c 0,0.79234 0.22401,1.51606 0.67204,2.17046 0.44767,0.6888 1.04969,1.15341 1.80745,1.39453 0.44768,0.17286 0.8957,0.25894 1.3432,0.25894 1.1714,0 2.13571,-0.46567 2.89348,-1.39559 l 14.25943,-17.41078 26.76219,10.95267 c 0.51664,0.17286 0.9823,0.25894 1.39541,0.25894 0.72337,0 1.3432,-0.15522 1.85966,-0.46584 1.1019,-0.62001 1.72261,-1.49772 1.86037,-2.63419 l 15.13766,-90.723834 c 0.27534,-1.549926 -0.25859,-2.806518 -1.60161,-3.77101 -0.55121,-0.413279 -1.25729,-0.619653 -2.11842,-0.619653 z" />
  </g>
</svg>
