<?xml version="1.0" encoding="UTF-8" standalone="no"?>
<svg
   width="1000"
   height="1000"
   viewBox="0 0 264.58333 264.58334"
   version="1.1"
   id="svg221"
   inkscape:version="1.1.1 (3bf5ae0d25, 2021-09-20)"
   sodipodi:docname="progress.svg"
   xmlns:inkscape="http://www.inkscape.org/namespaces/inkscape"
   xmlns:sodipodi="http://sodipodi.sourceforge.net/DTD/sodipodi-0.dtd"
   xmlns="http://www.w3.org/2000/svg"
   xmlns:svg="http://www.w3.org/2000/svg"
   xmlns:rdf="http://www.w3.org/1999/02/22-rdf-syntax-ns#"
   xmlns:cc="http://creativecommons.org/ns#"
   xmlns:dc="http://purl.org/dc/elements/1.1/">
  <defs
     id="defs215" />
  <sodipodi:namedview
     id="base"
     pagecolor="#ffffff"
     bordercolor="#666666"
     borderopacity="1.0"
     inkscape:pageopacity="0.0"
     inkscape:pageshadow="2"
     inkscape:zoom="0.69999999"
     inkscape:cx="507.85715"
     inkscape:cy="563.57144"
     inkscape:document-units="mm"
     inkscape:current-layer="layer1"
     inkscape:document-rotation="0"
     showgrid="false"
     units="px"
     showguides="true"
     inkscape:guide-bbox="true"
     inkscape:window-width="1366"
     inkscape:window-height="740"
     inkscape:window-x="0"
     inkscape:window-y="28"
     inkscape:window-maximized="0"
     inkscape:pagecheckerboard="0"
     inkscape:snap-bbox="true"
     inkscape:bbox-nodes="true"
     inkscape:snap-midpoints="true">
    <sodipodi:guide
       position="-5.0862631e-06,52.916663"
       orientation="0,-1"
       id="guide1048" />
    <sodipodi:guide
       position="75.848259,211.66667"
       orientation="0,-1"
       id="guide144" />
    <sodipodi:guide
       position="211.66667,269.38659"
       orientation="1,0"
       id="guide146" />
    <sodipodi:guide
       position="52.916667,269.38659"
       orientation="1,0"
       id="guide148" />
    <sodipodi:guide
       position="132.29166,211.66667"
       orientation="1,0"
       id="guide133" />
    <sodipodi:guide
       position="52.916666,132.29167"
       orientation="0,-1"
       id="guide135" />
  </sodipodi:namedview>
  <metadata
     id="metadata218">
    <rdf:RDF>
      <cc:Work
         rdf:about="">
        <dc:format>image/svg+xml</dc:format>
        <dc:type
           rdf:resource="http://purl.org/dc/dcmitype/StillImage" />
      </cc:Work>
    </rdf:RDF>
  </metadata>
  <g
     inkscape:label="Layer 1"
     inkscape:groupmode="layer"
     id="layer1">
    <path
       id="text1814-7-9-1-7-1-0-3"
       style="font-size:56.0074px;line-height:1.25;font-family:sans-serif;direction:rtl;display:inline;stroke-width:0.336786"
       d="m 71.430403,52.916665 c -10.179556,0 -18.513736,8.334004 -18.513736,18.513738 V 193.15293 c 0,10.17956 8.33418,18.51374 18.513736,18.51374 H 193.15293 c 10.17974,0 18.51374,-8.33418 18.51374,-18.51374 V 71.430403 c 0,-10.179734 -8.334,-18.513738 -18.51374,-18.513738 z m 0,8.818015 H 193.15293 c 5.44847,0 9.69573,4.247435 9.69573,9.695723 V 193.15293 c 0,5.44811 -4.24726,9.69573 -9.69573,9.69573 H 71.430403 c -5.448288,0 -9.695722,-4.24762 -9.695722,-9.69573 V 71.430403 c 0,-5.448288 4.247434,-9.695723 9.695722,-9.695723 z m 85.559187,22.029337 c -0.097,0 -0.65917,0.306034 -1.68822,0.917044 -1.02905,0.578731 -2.1066,1.189741 -3.23214,1.83303 -1.12553,0.643112 -1.769,1.012822 -1.92969,1.109307 -0.12876,0.09701 -0.19226,0.224719 -0.19226,0.385585 0,0.803979 0.93221,3.345032 2.79734,7.622101 -0.61101,0.803802 -1.15746,1.752243 -1.63988,2.845676 -1.38271,0.128763 -3.10373,0.353835 -5.16183,0.675391 -2.026,0.321556 -3.039,0.658988 -3.039,1.012819 v 7.71859 c 0,0.35366 1.02922,0.70732 3.08733,1.06098 2.0902,0.32155 3.79517,0.5468 5.1135,0.67556 0.41804,1.02905 0.96449,1.97732 1.63988,2.84568 -1.86513,4.27707 -2.79734,6.81812 -2.79734,7.6221 0,0.16051 0.0635,0.2891 0.19226,0.38559 0.0317,0 0.65934,0.36953 1.88136,1.1093 1.22202,0.7396 2.33186,1.39912 3.3288,1.97785 0.99695,0.5468 1.5434,0.8195 1.63989,0.8195 0.32155,0 1.19009,-0.86766 2.60508,-2.6042 1.41499,-1.76865 2.3472,-3.0069 2.79734,-3.71439 0.7075,0.0635 1.25395,0.097 1.63989,0.097 0.41804,0 0.98054,-0.0318 1.68804,-0.097 0.45032,0.70749 1.38341,1.94574 2.7984,3.71439 1.41499,1.73654 2.28352,2.6042 2.60508,2.6042 0.097,0 0.64294,-0.28893 1.63988,-0.86783 0.99678,-0.57873 2.08968,-1.22202 3.2796,-1.92952 1.18991,-0.70749 1.81697,-1.0772 1.88136,-1.1093 0.16051,-0.097 0.24147,-0.2249 0.24147,-0.38559 0,-0.80398 -0.93221,-3.34503 -2.79734,-7.6221 0.67521,-0.86836 1.22166,-1.81663 1.6397,-2.84568 1.31851,-0.12876 3.00637,-0.35401 5.06447,-0.67556 2.0902,-0.35366 3.13548,-0.70732 3.13548,-1.06098 v -7.71859 c 0,-0.353831 -1.02905,-0.691263 -3.08715,-1.012819 -2.026,-0.321556 -3.72991,-0.546804 -5.1128,-0.675391 -0.48224,-1.093433 -1.02869,-2.041874 -1.6397,-2.845676 1.86513,-4.277069 2.79734,-6.818122 2.79734,-7.622101 0,-0.160513 -0.0811,-0.2891 -0.24147,-0.385585 -4.50214,-2.572626 -6.76856,-3.859381 -6.80084,-3.859381 l -0.33814,0.09701 c -1.54357,1.543576 -3.23232,3.601853 -5.06534,6.17448 -0.7075,-0.0635 -1.27,-0.09701 -1.68804,-0.09701 -0.38594,0 -0.93239,0.03175 -1.63989,0.09701 -0.45014,-0.707318 -1.38235,-1.929514 -2.79734,-3.666059 -1.41499,-1.736545 -2.28353,-2.605082 -2.60508,-2.605082 z m -47.46615,13.21785 c -0.80398,0 -1.35043,0.449614 -1.63989,1.349901 -0.38593,1.479371 -0.80397,4.309352 -1.25412,8.489932 -1.57585,0.51453 -2.99084,1.09414 -4.24496,1.73725 l -6.366922,-4.96869 c -0.353835,-0.25717 -0.740479,-0.38646 -1.15852,-0.38646 -0.707494,0 -2.153879,1.09378 -4.340744,3.28065 -2.186688,2.15458 -3.698514,3.77859 -4.534772,4.87202 -0.257174,0.28946 -0.385585,0.65899 -0.385585,1.10931 0,0.38594 0.128764,0.75547 0.385585,1.10931 1.865309,2.18669 3.521596,4.3097 4.968688,6.3678 -0.868184,1.67216 -1.463143,3.05487 -1.784699,4.1483 l -8.538085,1.35079 c -0.353835,0.0318 -0.659693,0.22507 -0.917044,0.5789 -0.225072,0.32156 -0.337255,0.67504 -0.337255,1.06098 v 10.22629 c 0,0.38594 0.112889,0.73942 0.337255,1.06098 0.257351,0.32156 0.579436,0.4983 0.965374,0.5304 l 8.393094,1.30263 c 0.418041,1.35061 1.061506,2.86261 1.92969,4.53477 -0.643112,0.86836 -1.576207,2.09038 -2.798403,3.66606 -1.221843,1.57586 -1.896706,2.44351 -2.025293,2.6042 -0.257351,0.35384 -0.386467,0.7082 -0.386467,1.06204 0,1.12553 2.637008,4.06751 7.911024,8.82701 0.353659,0.28945 0.739597,0.43391 1.157637,0.43391 0.482423,0 0.852839,-0.12876 1.11019,-0.38558 l 6.511912,-4.92036 c 1.51129,0.77187 2.894,1.35061 4.1483,1.73637 l 1.25412,8.39327 c 0.0318,0.38594 0.20903,0.70802 0.53058,0.9652 0.35366,0.28945 0.72337,0.43391 1.10931,0.43391 h 10.27463 c 0.83608,0 1.38341,-0.43427 1.64059,-1.30245 0.38594,-1.47937 0.80398,-4.34163 1.2543,-8.58642 1.47919,-0.41804 2.89418,-0.98072 4.24496,-1.68821 l 6.36692,4.96869 c 0.35366,0.25717 0.73942,0.38558 1.15764,0.38558 0.70732,0 2.15459,-1.07667 4.34145,-3.23126 2.18687,-2.18686 3.69781,-3.84315 4.53389,-4.96869 0.25718,-0.25735 0.38647,-0.61083 0.38647,-1.06097 0,-0.38594 -0.12876,-0.75565 -0.38647,-1.10949 -1.99389,-2.31527 -3.6493,-4.42206 -4.9678,-6.31947 0.77187,-1.47919 1.3506,-2.87813 1.73654,-4.19664 l 8.58642,-1.35078 c 0.35366,-0.0317 0.64258,-0.20902 0.86765,-0.5304 0.25735,-0.35383 0.38665,-0.72354 0.38665,-1.10948 v -10.17796 c 0,-0.38577 -0.12877,-0.74031 -0.38665,-1.06186 -0.25717,-0.35366 -0.57837,-0.56268 -0.96431,-0.62706 l -8.34494,-1.25342 c -0.38594,-1.22202 -1.013,-2.73385 -1.88136,-4.53477 0.5468,-0.7717 1.3506,-1.84926 2.41193,-3.23215 1.09344,-1.38288 1.88119,-2.39588 2.36343,-3.03899 0.25735,-0.35366 0.38559,-0.70732 0.38559,-1.06098 0,-0.45032 -0.61101,-1.35025 -1.83303,-2.70086 -1.18974,-1.38289 -2.29887,-2.55728 -3.32792,-3.52213 -0.99695,-0.96467 -1.91382,-1.83232 -2.75008,-2.6042 -0.32156,-0.28927 -0.70732,-0.43479 -1.15746,-0.43479 -0.45032,0 -0.82003,0.12876 -1.10949,0.38646 l -6.51173,4.92036 c -1.35061,-0.70749 -2.73332,-1.27088 -4.1483,-1.68892 l -1.2543,-8.441601 c -0.0318,-0.385938 -0.22507,-0.707142 -0.57873,-0.964316 -0.32156,-0.289454 -0.6761,-0.433916 -1.06186,-0.433916 z m 54.50846,0 c 1.92951,0 3.5858,0.690914 4.96869,2.073623 1.41498,1.38289 2.12283,3.03917 2.12283,4.96869 0,1.92951 -0.69179,3.60203 -2.07468,5.01702 -1.38271,1.38288 -3.05523,2.07362 -5.01684,2.07362 -1.92952,0 -3.5858,-0.69074 -4.96869,-2.07362 -1.38271,-1.38289 -2.07362,-3.05541 -2.07362,-5.01702 0,-1.92952 0.69091,-3.5858 2.07362,-4.96869 1.38289,-1.382709 3.03917,-2.073623 4.96869,-2.073623 z m -49.39496,21.176323 c 3.89113,0 7.21923,1.38271 9.98482,4.1483 2.7656,2.7656 4.14831,6.09352 4.14831,9.98465 0,3.89112 -1.38271,7.21993 -4.14831,9.9857 -2.76559,2.73332 -6.09369,4.09998 -9.98482,4.09998 -3.89113,0 -7.21993,-1.36666 -9.98553,-4.09998 -2.73349,-2.76577 -4.09997,-6.09458 -4.09997,-9.9857 0,-3.89113 1.36648,-7.21905 4.09997,-9.98465 2.7656,-2.76559 6.0944,-4.1483 9.98553,-4.1483 z m 42.35265,22.04397 c -0.097,0 -0.65917,0.30603 -1.68822,0.91704 -1.02905,0.57873 -2.1066,1.18992 -3.23214,1.83303 -1.12553,0.64311 -1.769,1.01283 -1.92969,1.10931 -0.12876,0.097 -0.19226,0.22472 -0.19226,0.38559 0,0.80397 0.93221,3.34503 2.79734,7.6221 -0.61101,0.8038 -1.15746,1.75224 -1.63988,2.84567 -1.31833,0.12876 -3.0233,0.36989 -5.1135,0.72372 -2.05811,0.32156 -3.08733,0.65899 -3.08733,1.01265 v 7.71788 c 0,0.35366 1.013,0.69197 3.039,1.01353 2.0581,0.32155 3.77912,0.5468 5.16183,0.67539 0.45032,1.09343 0.99677,2.05792 1.63988,2.89418 -1.86513,4.27707 -2.79734,6.80101 -2.79734,7.57271 0,0.16052 0.0635,0.28999 0.19226,0.38647 0.0317,0 0.65934,0.36971 1.88136,1.10948 1.22202,0.7396 2.33186,1.38289 3.3288,1.92969 0.99695,0.57874 1.5434,0.86766 1.63989,0.86766 0.32155,0 1.19009,-0.88371 2.60508,-2.65253 1.41499,-1.73655 2.3472,-2.95856 2.79734,-3.66606 0.7075,0.0635 1.25395,0.097 1.63989,0.097 0.41804,0 0.98054,-0.0317 1.68804,-0.097 0.45032,0.7075 1.38341,1.92951 2.7984,3.66606 1.41499,1.76882 2.28352,2.65253 2.60508,2.65253 0.097,0 0.64294,-0.28892 1.63988,-0.86766 0.99678,-0.5789 2.08968,-1.22219 3.2796,-1.92969 1.18991,-0.70749 1.81697,-1.0772 1.88136,-1.10948 0.16051,-0.097 0.24147,-0.2256 0.24147,-0.38647 0,-0.7717 -0.93221,-3.29564 -2.79734,-7.57271 0.64311,-0.83626 1.18956,-1.80075 1.6397,-2.89418 1.38289,-0.12876 3.0868,-0.35384 5.1128,-0.67539 2.0581,-0.32156 3.08715,-0.65987 3.08715,-1.01353 v -7.71788 c 0,-0.35366 -1.04528,-0.69109 -3.13548,-1.01265 -2.0581,-0.35383 -3.74596,-0.59513 -5.06447,-0.72372 -0.48224,-1.09343 -1.02869,-2.04187 -1.6397,-2.84567 1.86513,-4.27707 2.79734,-6.81813 2.79734,-7.6221 0,-0.16052 -0.0811,-0.28911 -0.24147,-0.38559 -4.50214,-2.5728 -6.76856,-3.85938 -6.80084,-3.85938 l -0.33814,0.097 c -1.54357,1.54358 -3.23232,3.60186 -5.06534,6.17448 -0.7075,-0.0635 -1.27,-0.097 -1.68804,-0.097 -0.38594,0 -0.93239,0.0317 -1.63989,0.097 -0.45014,-0.70749 -1.38235,-1.92951 -2.79734,-3.66606 -1.41499,-1.73654 -2.28353,-2.60508 -2.60508,-2.60508 z m 7.04231,13.21785 c 1.92951,0 3.5858,0.70696 4.96869,2.12195 1.41498,1.38289 2.12283,3.03918 2.12283,4.96869 0,1.92951 -0.69179,3.5858 -2.07468,4.96869 -1.38271,1.38271 -3.05523,2.07362 -5.01684,2.07362 -1.92952,0 -3.5858,-0.67468 -4.96869,-2.02529 -1.38271,-1.38289 -2.07362,-3.0554 -2.07362,-5.01702 0,-1.92951 0.69091,-3.5858 2.07362,-4.96869 1.38289,-1.41499 3.03917,-2.12195 4.96869,-2.12195 z" />
  </g>
</svg>
