<?xml version="1.0" encoding="UTF-8" standalone="no"?>
<svg
   width="1000"
   height="1000"
   viewBox="0 0 264.58333 264.58334"
   version="1.1"
   id="svg221"
   inkscape:version="1.1.1 (3bf5ae0d25, 2021-09-20)"
   sodipodi:docname="r master stack.svg"
   xmlns:inkscape="http://www.inkscape.org/namespaces/inkscape"
   xmlns:sodipodi="http://sodipodi.sourceforge.net/DTD/sodipodi-0.dtd"
   xmlns="http://www.w3.org/2000/svg"
   xmlns:svg="http://www.w3.org/2000/svg"
   xmlns:rdf="http://www.w3.org/1999/02/22-rdf-syntax-ns#"
   xmlns:cc="http://creativecommons.org/ns#"
   xmlns:dc="http://purl.org/dc/elements/1.1/">
  <defs
     id="defs215" />
  <sodipodi:namedview
     id="base"
     pagecolor="#ffffff"
     bordercolor="#666666"
     borderopacity="1.0"
     inkscape:pageopacity="0.0"
     inkscape:pageshadow="2"
     inkscape:zoom="0.49497474"
     inkscape:cx="344.46202"
     inkscape:cy="651.5484"
     inkscape:document-units="mm"
     inkscape:current-layer="layer1"
     inkscape:document-rotation="0"
     showgrid="false"
     units="px"
     showguides="true"
     inkscape:guide-bbox="true"
     inkscape:window-width="1366"
     inkscape:window-height="740"
     inkscape:window-x="0"
     inkscape:window-y="28"
     inkscape:window-maximized="0"
     inkscape:pagecheckerboard="0"
     inkscape:snap-bbox="true"
     inkscape:bbox-nodes="true"
     inkscape:snap-midpoints="true">
    <sodipodi:guide
       position="-5.0862631e-06,52.916663"
       orientation="0,-1"
       id="guide1048" />
    <sodipodi:guide
       position="75.848259,211.66667"
       orientation="0,-1"
       id="guide144" />
    <sodipodi:guide
       position="211.66667,269.38659"
       orientation="1,0"
       id="guide146" />
    <sodipodi:guide
       position="52.916667,269.38659"
       orientation="1,0"
       id="guide148" />
    <sodipodi:guide
       position="132.29166,211.66667"
       orientation="1,0"
       id="guide133" />
    <sodipodi:guide
       position="52.916666,132.29167"
       orientation="0,-1"
       id="guide135" />
  </sodipodi:namedview>
  <metadata
     id="metadata218">
    <rdf:RDF>
      <cc:Work
         rdf:about="">
        <dc:format>image/svg+xml</dc:format>
        <dc:type
           rdf:resource="http://purl.org/dc/dcmitype/StillImage" />
      </cc:Work>
    </rdf:RDF>
  </metadata>
  <g
     inkscape:label="Layer 1"
     inkscape:groupmode="layer"
     id="layer1">
    <path
       id="rect1761-8-8-8-0-5-7-6-4-3-0"
       style="display:inline;opacity:0.999;fill:#000000;fill-opacity:1;stroke:none;stroke-width:5.28455;stroke-miterlimit:4;stroke-dasharray:none;stroke-opacity:1"
       d="m 52.916666,193.15293 c 0,10.17956 8.333953,18.51374 18.513625,18.51374 H 193.1521 c 10.17968,0 18.51367,-8.33418 18.51367,-18.51374 v -17.86745 h 9e-4 v -6.61404 h -9e-4 V 95.911006 h 9e-4 v -6.61492 h -9e-4 v -17.86568 c 0,-10.17974 -8.33399,-18.51374 -18.51367,-18.51374 h -57.5526 -6.61479 -57.554419 c -10.179672,0 -18.513625,8.334 -18.513625,18.51374 z m 8.817911,0 v -17.86745 h 67.250133 v 27.56318 H 71.430291 c -5.448256,0 -9.695714,-4.24744 -9.695714,-9.69573 z m 0,-24.48148 V 95.911006 H 202.84782 v 72.760444 z m 0,-79.375364 v -17.86568 c 0,-5.44847 4.247458,-9.69573 9.695714,-9.69573 h 57.554419 v 27.56141 z M 135.5995,202.84866 v -27.56318 h 67.24832 v 17.86745 c 0,5.44829 -4.24746,9.69573 -9.69572,9.69573 z m 0,-113.552574 v -27.56141 h 57.5526 c 5.44826,0 9.69572,4.24726 9.69572,9.69573 v 17.86568 z" />
  </g>
</svg>
