<?xml version="1.0" encoding="UTF-8" standalone="no"?>
<svg
   width="1000"
   height="1000"
   viewBox="0 0 264.58333 264.58334"
   version="1.1"
   id="svg221"
   inkscape:version="1.1.1 (3bf5ae0d25, 2021-09-20)"
   sodipodi:docname="refresh.svg"
   xmlns:inkscape="http://www.inkscape.org/namespaces/inkscape"
   xmlns:sodipodi="http://sodipodi.sourceforge.net/DTD/sodipodi-0.dtd"
   xmlns="http://www.w3.org/2000/svg"
   xmlns:svg="http://www.w3.org/2000/svg"
   xmlns:rdf="http://www.w3.org/1999/02/22-rdf-syntax-ns#"
   xmlns:cc="http://creativecommons.org/ns#"
   xmlns:dc="http://purl.org/dc/elements/1.1/">
  <defs
     id="defs215" />
  <sodipodi:namedview
     id="base"
     pagecolor="#ffffff"
     bordercolor="#666666"
     borderopacity="1.0"
     inkscape:pageopacity="0.0"
     inkscape:pageshadow="2"
     inkscape:zoom="0.69999999"
     inkscape:cx="439.28572"
     inkscape:cy="502.14286"
     inkscape:document-units="mm"
     inkscape:current-layer="layer1"
     inkscape:document-rotation="0"
     showgrid="false"
     units="px"
     showguides="true"
     inkscape:guide-bbox="true"
     inkscape:window-width="1366"
     inkscape:window-height="740"
     inkscape:window-x="0"
     inkscape:window-y="28"
     inkscape:window-maximized="0"
     inkscape:pagecheckerboard="0"
     inkscape:snap-bbox="true"
     inkscape:bbox-nodes="true"
     inkscape:snap-midpoints="true">
    <sodipodi:guide
       position="-5.0862631e-06,52.916663"
       orientation="0,-1"
       id="guide1048" />
    <sodipodi:guide
       position="75.848259,211.66667"
       orientation="0,-1"
       id="guide144" />
    <sodipodi:guide
       position="211.66667,269.38659"
       orientation="1,0"
       id="guide146" />
    <sodipodi:guide
       position="52.916667,269.38659"
       orientation="1,0"
       id="guide148" />
    <sodipodi:guide
       position="132.29166,211.66667"
       orientation="1,0"
       id="guide133" />
    <sodipodi:guide
       position="52.916666,132.29167"
       orientation="0,-1"
       id="guide135" />
  </sodipodi:namedview>
  <metadata
     id="metadata218">
    <rdf:RDF>
      <cc:Work
         rdf:about="">
        <dc:format>image/svg+xml</dc:format>
        <dc:type
           rdf:resource="http://purl.org/dc/dcmitype/StillImage" />
      </cc:Work>
    </rdf:RDF>
  </metadata>
  <g
     inkscape:label="Layer 1"
     inkscape:groupmode="layer"
     id="layer1">
    <path
       id="text1814-7-9-3-8-6-8-1-3-2"
       style="font-size:71.9438px;line-height:1.25;font-family:sans-serif;direction:rtl;display:inline;stroke-width:0.432618"
       d="m 71.430174,52.916665 c -10.179624,0 -18.513507,8.334051 -18.513507,18.513841 V 193.15283 c 0,10.17979 8.333883,18.51384 18.513507,18.51384 H 193.15281 c 10.17962,0 18.51386,-8.33405 18.51386,-18.51384 V 71.430506 c 0,-10.17979 -8.33424,-18.513841 -18.51386,-18.513841 z m 0,8.817182 H 193.15281 c 5.44815,0 9.69649,4.248341 9.69649,9.696659 V 193.15283 c 0,5.44832 -4.24834,9.69666 -9.69649,9.69666 H 71.430174 c -5.448324,0 -9.696669,-4.24834 -9.696669,-9.69666 V 71.430506 c 0,-5.448318 4.248345,-9.696659 9.696669,-9.696659 z m 60.861496,17.640536 -26.52107,26.520687 26.52107,26.52052 V 111.0998 c 8.92285,0.33038 16.3993,3.47028 22.43042,9.41867 6.03111,5.94856 9.12957,13.3839 9.29467,22.30673 -0.1658,9.08794 -3.26356,16.60602 -9.29467,22.55457 -6.03112,5.94856 -13.50757,9.00557 -22.43042,9.17067 -8.92285,-0.16581 -16.39983,-3.22211 -22.43095,-9.17067 -6.03112,-5.94855 -9.1294,-13.46663 -9.29468,-22.55457 H 89.908579 c 0.330378,12.06222 4.460719,22.05945 12.392081,29.99063 7.93154,7.93135 17.92877,12.06169 29.99101,12.39206 12.06223,-0.33037 22.05841,-4.46071 29.9896,-12.39206 7.93153,-7.93118 12.06258,-17.92841 12.39313,-29.99063 -0.33055,-11.89711 -4.4616,-21.852 -12.39313,-29.8659 -7.93119,-8.01391 -17.92737,-12.10385 -29.9896,-12.26913 z" />
  </g>
</svg>
