<?xml version="1.0" encoding="UTF-8" standalone="no"?>
<svg
   width="1000"
   height="1000"
   viewBox="0 0 264.58333 264.58334"
   version="1.1"
   id="svg221"
   inkscape:version="1.1.1 (3bf5ae0d25, 2021-09-20)"
   sodipodi:docname="tile.svg"
   xmlns:inkscape="http://www.inkscape.org/namespaces/inkscape"
   xmlns:sodipodi="http://sodipodi.sourceforge.net/DTD/sodipodi-0.dtd"
   xmlns="http://www.w3.org/2000/svg"
   xmlns:svg="http://www.w3.org/2000/svg"
   xmlns:rdf="http://www.w3.org/1999/02/22-rdf-syntax-ns#"
   xmlns:cc="http://creativecommons.org/ns#"
   xmlns:dc="http://purl.org/dc/elements/1.1/">
  <defs
     id="defs215" />
  <sodipodi:namedview
     id="base"
     pagecolor="#ffffff"
     bordercolor="#666666"
     borderopacity="1.0"
     inkscape:pageopacity="0.0"
     inkscape:pageshadow="2"
     inkscape:zoom="0.49497474"
     inkscape:cx="344.46202"
     inkscape:cy="651.5484"
     inkscape:document-units="mm"
     inkscape:current-layer="layer1"
     inkscape:document-rotation="0"
     showgrid="false"
     units="px"
     showguides="true"
     inkscape:guide-bbox="true"
     inkscape:window-width="1366"
     inkscape:window-height="740"
     inkscape:window-x="0"
     inkscape:window-y="28"
     inkscape:window-maximized="0"
     inkscape:pagecheckerboard="0"
     inkscape:snap-bbox="true"
     inkscape:bbox-nodes="true"
     inkscape:snap-midpoints="true">
    <sodipodi:guide
       position="-5.0862631e-06,52.916663"
       orientation="0,-1"
       id="guide1048" />
    <sodipodi:guide
       position="75.848259,211.66667"
       orientation="0,-1"
       id="guide144" />
    <sodipodi:guide
       position="211.66667,269.38659"
       orientation="1,0"
       id="guide146" />
    <sodipodi:guide
       position="52.916667,269.38659"
       orientation="1,0"
       id="guide148" />
    <sodipodi:guide
       position="132.29166,211.66667"
       orientation="1,0"
       id="guide133" />
    <sodipodi:guide
       position="52.916666,132.29167"
       orientation="0,-1"
       id="guide135" />
  </sodipodi:namedview>
  <metadata
     id="metadata218">
    <rdf:RDF>
      <cc:Work
         rdf:about="">
        <dc:format>image/svg+xml</dc:format>
        <dc:type
           rdf:resource="http://purl.org/dc/dcmitype/StillImage" />
      </cc:Work>
    </rdf:RDF>
  </metadata>
  <g
     inkscape:label="Layer 1"
     inkscape:groupmode="layer"
     id="layer1">
    <path
       id="rect1761-8-8-8-0"
       style="display:inline;opacity:0.999;fill:#000000;fill-opacity:1;stroke:none;stroke-width:10.1544;stroke-miterlimit:4;stroke-dasharray:none;stroke-opacity:1"
       d="m 71.43058,52.916665 c -10.179557,0 -18.513913,8.333999 -18.513913,18.51373 V 193.152 c 0,10.17973 8.334356,18.51377 18.513913,18.51377 h 70.78259 v 9e-4 h 6.61492 v -9e-4 h 44.32378 c 10.18009,0 18.51374,-8.33404 18.51374,-18.51377 v -31.09354 h 0.001 v -6.61483 h -0.001 v -46.30212 -6.61483 -31.096285 c 0,-10.179731 -8.33365,-18.51373 -18.51374,-18.51373 z m 0,8.817074 h 70.78259 v 40.792941 6.61483 93.7072 H 71.43058 c -5.448288,0 -9.697134,-4.24842 -9.697134,-9.69671 V 71.430395 c 0,-5.448287 4.248846,-9.696656 9.697134,-9.696656 z m 77.39751,0 h 44.32378 c 5.44864,0 9.69696,4.248369 9.69696,9.696656 v 31.096285 h -54.02074 z m 0,47.407771 h 54.02074 v 46.30212 h -54.02074 z m 0,52.91695 h 54.02074 V 193.152 c 0,5.44829 -4.24832,9.69671 -9.69696,9.69671 h -44.32378 z" />
  </g>
</svg>
