<?xml version="1.0" encoding="UTF-8" standalone="no"?>
<svg
   width="1000"
   height="1000"
   viewBox="0 0 264.58333 264.58334"
   version="1.1"
   id="svg221"
   inkscape:version="1.1.1 (3bf5ae0d25, 2021-09-20)"
   sodipodi:docname="volom mid.svg"
   xmlns:inkscape="http://www.inkscape.org/namespaces/inkscape"
   xmlns:sodipodi="http://sodipodi.sourceforge.net/DTD/sodipodi-0.dtd"
   xmlns="http://www.w3.org/2000/svg"
   xmlns:svg="http://www.w3.org/2000/svg"
   xmlns:rdf="http://www.w3.org/1999/02/22-rdf-syntax-ns#"
   xmlns:cc="http://creativecommons.org/ns#"
   xmlns:dc="http://purl.org/dc/elements/1.1/">
  <defs
     id="defs215" />
  <sodipodi:namedview
     id="base"
     pagecolor="#ffffff"
     bordercolor="#666666"
     borderopacity="1.0"
     inkscape:pageopacity="0.0"
     inkscape:pageshadow="2"
     inkscape:zoom="0.49497474"
     inkscape:cx="439.41636"
     inkscape:cy="502.04582"
     inkscape:document-units="mm"
     inkscape:current-layer="layer1"
     inkscape:document-rotation="0"
     showgrid="false"
     units="px"
     showguides="true"
     inkscape:guide-bbox="true"
     inkscape:window-width="1366"
     inkscape:window-height="740"
     inkscape:window-x="0"
     inkscape:window-y="28"
     inkscape:window-maximized="0"
     inkscape:pagecheckerboard="0"
     inkscape:snap-bbox="true"
     inkscape:bbox-nodes="true"
     inkscape:snap-midpoints="true">
    <sodipodi:guide
       position="-5.0862631e-06,52.916663"
       orientation="0,-1"
       id="guide1048" />
    <sodipodi:guide
       position="75.848259,211.66667"
       orientation="0,-1"
       id="guide144" />
    <sodipodi:guide
       position="211.66667,269.38659"
       orientation="1,0"
       id="guide146" />
    <sodipodi:guide
       position="52.916667,269.38659"
       orientation="1,0"
       id="guide148" />
    <sodipodi:guide
       position="132.29166,211.66667"
       orientation="1,0"
       id="guide133" />
    <sodipodi:guide
       position="52.916666,132.29167"
       orientation="0,-1"
       id="guide135" />
  </sodipodi:namedview>
  <metadata
     id="metadata218">
    <rdf:RDF>
      <cc:Work
         rdf:about="">
        <dc:format>image/svg+xml</dc:format>
        <dc:type
           rdf:resource="http://purl.org/dc/dcmitype/StillImage" />
      </cc:Work>
    </rdf:RDF>
  </metadata>
  <g
     inkscape:label="Layer 1"
     inkscape:groupmode="layer"
     id="layer1">
    <path
       id="path903-5-6"
       style="font-style:normal;font-variant:normal;font-weight:normal;font-stretch:normal;font-size:64.6057px;line-height:1.25;font-family:'Hack Nerd Font';-inkscape-font-specification:'Hack Nerd Font';direction:rtl;stroke-width:0.38849"
       d="m 71.430527,52.916665 c -10.179625,0 -18.51386,8.334005 -18.51386,18.513776 V 193.15293 c 0,10.17974 8.334235,18.51374 18.51386,18.51374 H 193.15316 c 10.17963,0 18.51351,-8.334 18.51351,-18.51374 V 71.430441 c 0,-10.179771 -8.33388,-18.513776 -18.51351,-18.513776 z m 0,8.818016 H 193.15316 c 5.44833,0 9.69667,4.247435 9.69667,9.69576 V 193.15293 c 0,5.44829 -4.24834,9.69578 -9.69667,9.69578 H 71.430527 c -5.448148,0 -9.696493,-4.24749 -9.696493,-9.69578 V 71.430441 c 0,-5.448325 4.248345,-9.69576 9.696493,-9.69576 z m 60.889533,31.885596 c -1.14988,0 -2.11403,0.408039 -2.89296,1.224189 L 108.28239,115.98881 H 91.588691 c -1.112666,0 -2.076812,0.40804 -2.893144,1.22419 -0.778936,0.81612 -1.168581,1.78031 -1.168581,2.89313 v 24.372 c 0,1.11283 0.389645,2.07702 1.168581,2.89319 0.816332,0.8161 1.780478,1.22414 2.893144,1.22414 h 16.693699 l 21.14471,21.14434 c 0.77893,0.81615 1.74308,1.22419 2.89296,1.22419 1.11267,0 2.05865,-0.40804 2.83758,-1.22419 0.81581,-0.81611 1.22415,-1.7803 1.22415,-2.89314 V 97.737591 c 0,-1.112818 -0.40834,-2.076975 -1.22415,-2.893125 -0.77893,-0.81615 -1.72491,-1.224189 -2.83758,-1.224189 z m 23.37041,8.457953 c -1.11302,0 -2.07823,0.38947 -2.89403,1.16856 -0.77929,0.77891 -1.16858,1.72472 -1.16858,2.83754 0,1.63214 0.8345,2.89346 2.50385,3.78369 2.41142,1.18708 4.00652,2.11432 4.78545,2.78192 3.15314,2.22567 5.60178,5.10069 7.34504,8.62474 1.78083,3.52407 2.6709,7.2151 2.6709,11.07309 0,3.85793 -0.89007,7.53039 -2.6709,11.01743 -1.74326,3.48701 -4.1919,6.34346 -7.34504,8.56913 -0.77893,0.66765 -2.37403,1.59484 -4.78545,2.78192 -1.66935,0.89026 -2.50385,2.1516 -2.50385,3.78372 0,1.11284 0.38929,2.07786 1.16858,2.89403 0.8158,0.81615 1.7997,1.22419 2.94959,1.22419 0.40781,0 0.94598,-0.11201 1.61343,-0.33454 5.93534,-2.52253 10.70174,-6.5284 14.30009,-12.01832 3.59817,-5.49009 5.3977,-11.48177 5.3977,-17.97319 0,-6.49182 -1.79953,-12.4824 -5.3977,-17.97232 -3.59835,-5.49005 -8.36475,-9.49668 -14.30009,-12.0192 -0.55633,-0.14852 -1.11266,-0.22239 -1.66899,-0.22239 z m -6.34421,14.91235 c -1.11267,0 -2.07734,0.3887 -2.89314,1.16767 -0.77894,0.77909 -1.16859,1.76251 -1.16859,2.94964 0,0.89023 0.24166,1.65094 0.72391,2.28148 0.51929,0.63061 1.13065,1.14981 1.83586,1.55779 0.74172,0.40799 1.46545,0.89008 2.17012,1.44656 0.74207,0.55655 1.3545,1.33558 1.83657,2.33717 0.51947,1.00166 0.77841,2.20733 0.77841,3.61688 0,1.40951 -0.25894,2.61517 -0.77841,3.61688 -0.48207,1.00151 -1.0945,1.76219 -1.83657,2.28148 -0.70467,0.51965 -1.4284,1.00139 -2.17012,1.44656 -0.70521,0.44504 -1.31657,0.96424 -1.83586,1.55779 -0.48225,0.59339 -0.72391,1.33567 -0.72391,2.22594 0,1.18709 0.38965,2.17037 1.16859,2.94965 0.8158,0.77872 1.78047,1.16762 2.89314,1.16762 0.63094,0 1.15076,-0.11112 1.55875,-0.33358 2.96776,-1.1871 5.35943,-3.17203 7.1773,-5.95401 1.81787,-2.7822 2.72734,-5.7682 2.72734,-8.95833 0,-3.26463 -0.92728,-6.2874 -2.78202,-9.06956 -1.8177,-2.78219 -4.19225,-4.76692 -7.12262,-5.95405 -0.40799,-0.22257 -0.92781,-0.33358 -1.55875,-0.33358 z" />
  </g>
</svg>
