<?xml version="1.0" encoding="UTF-8" standalone="no"?>
<svg
   width="1000"
   height="1000"
   viewBox="0 0 264.58333 264.58334"
   version="1.1"
   id="svg221"
   inkscape:version="1.1.1 (3bf5ae0d25, 2021-09-20)"
   sodipodi:docname="weather party cloudy.svg"
   xmlns:inkscape="http://www.inkscape.org/namespaces/inkscape"
   xmlns:sodipodi="http://sodipodi.sourceforge.net/DTD/sodipodi-0.dtd"
   xmlns="http://www.w3.org/2000/svg"
   xmlns:svg="http://www.w3.org/2000/svg"
   xmlns:rdf="http://www.w3.org/1999/02/22-rdf-syntax-ns#"
   xmlns:cc="http://creativecommons.org/ns#"
   xmlns:dc="http://purl.org/dc/elements/1.1/">
  <defs
     id="defs215" />
  <sodipodi:namedview
     id="base"
     pagecolor="#ffffff"
     bordercolor="#666666"
     borderopacity="1.0"
     inkscape:pageopacity="0.0"
     inkscape:pageshadow="2"
     inkscape:zoom="0.69999999"
     inkscape:cx="507.85715"
     inkscape:cy="563.57144"
     inkscape:document-units="mm"
     inkscape:current-layer="layer1"
     inkscape:document-rotation="0"
     showgrid="false"
     units="px"
     showguides="true"
     inkscape:guide-bbox="true"
     inkscape:window-width="1366"
     inkscape:window-height="740"
     inkscape:window-x="0"
     inkscape:window-y="28"
     inkscape:window-maximized="0"
     inkscape:pagecheckerboard="0"
     inkscape:snap-bbox="true"
     inkscape:bbox-nodes="true"
     inkscape:snap-midpoints="true">
    <sodipodi:guide
       position="-5.0862631e-06,52.916663"
       orientation="0,-1"
       id="guide1048" />
    <sodipodi:guide
       position="75.848259,211.66667"
       orientation="0,-1"
       id="guide144" />
    <sodipodi:guide
       position="211.66667,269.38659"
       orientation="1,0"
       id="guide146" />
    <sodipodi:guide
       position="52.916667,269.38659"
       orientation="1,0"
       id="guide148" />
    <sodipodi:guide
       position="132.29166,211.66667"
       orientation="1,0"
       id="guide133" />
    <sodipodi:guide
       position="52.916666,132.29167"
       orientation="0,-1"
       id="guide135" />
  </sodipodi:namedview>
  <metadata
     id="metadata218">
    <rdf:RDF>
      <cc:Work
         rdf:about="">
        <dc:format>image/svg+xml</dc:format>
        <dc:type
           rdf:resource="http://purl.org/dc/dcmitype/StillImage" />
      </cc:Work>
    </rdf:RDF>
  </metadata>
  <g
     inkscape:label="Layer 1"
     inkscape:groupmode="layer"
     id="layer1">
    <path
       id="text1814-7-9-1-7-6-9-63-9-0-1-1"
       style="font-size:42.8602px;line-height:1.25;font-family:sans-serif;direction:rtl;display:inline;stroke-width:0.257729"
       d="m 71.430247,52.916665 c -10.179567,0 -18.51358,8.334014 -18.51358,18.513759 V 193.15309 c 0,10.17957 8.334013,18.51358 18.51358,18.51358 H 193.15291 c 10.17975,0 18.51376,-8.33401 18.51376,-18.51358 V 71.430424 c 0,-10.179745 -8.33401,-18.513759 -18.51376,-18.513759 z m 0,8.818024 H 193.15291 c 5.44847,0 9.69574,4.24744 9.69574,9.695735 V 193.15309 c 0,5.44812 -4.24727,9.69573 -9.69574,9.69573 H 71.430247 c -5.448293,0 -9.695733,-4.24761 -9.695733,-9.69573 V 71.430424 c 0,-5.448295 4.24744,-9.695735 9.695733,-9.695735 z m 71.732523,29.323388 c -0.93504,0 -1.70991,0.307975 -2.32516,0.923219 -0.61524,0.615244 -0.92339,1.390119 -0.92339,2.325332 v 8.047732 c 0,0.98443 0.30815,1.78382 0.92339,2.39907 0.61525,0.61524 1.39012,0.92251 2.32516,0.92251 1.00912,0 1.82121,-0.30727 2.43646,-0.92251 0.61524,-0.61525 0.92251,-1.41464 0.92251,-2.39907 v -8.047732 c 0,-0.935213 -0.31997,-1.710088 -0.95991,-2.325332 -0.61524,-0.615244 -1.41463,-0.923219 -2.39906,-0.923219 z m -27.24236,11.296283 c -0.95973,0 -1.772,0.31997 -2.43645,0.95991 -0.66446,0.63976 -0.9973,1.42646 -0.9973,2.36167 0,0.98442 0.32014,1.82121 0.9599,2.51036 l 2.5841,2.51019 c 0.98442,0.73836 1.82121,1.05833 2.51036,0.95991 0.81209,0 1.53776,-0.33179 2.17752,-0.99625 0.63994,-0.66445 0.95991,-1.47672 0.95991,-2.43663 0,-0.95973 -0.34467,-1.73549 -1.03364,-2.32604 l -2.32533,-2.58321 c -0.71367,-0.63994 -1.51307,-0.95991 -2.39907,-0.95991 z m 54.70714,0 c -0.93504,0 -1.6981,0.31997 -2.28882,0.95991 l -5.79613,5.61022 c -0.59073,0.73836 -0.88512,1.55063 -0.88512,2.43663 0,1.03346 0.29439,1.84573 0.88512,2.43646 0.83661,0.63976 1.64888,0.95973 2.43645,0.95973 0.71367,0 1.48943,-0.31997 2.32622,-0.95973 l 5.64761,-5.61128 c 0.63994,-0.73836 0.95991,-1.57515 0.95991,-2.51036 0,-0.93521 -0.31997,-1.72191 -0.95991,-2.36167 -0.63976,-0.63994 -1.41464,-0.95991 -2.32533,-0.95991 z m -27.46478,10.11413 c -5.83247,0 -10.92658,2.28917 -15.28232,6.86646 -3.0517,-1.72261 -6.59517,-2.58409 -10.63112,-2.58409 -5.53702,0 -10.43428,1.72208 -14.69177,5.1673 -4.257318,3.4454 -6.989579,7.85124 -8.195372,13.2161 -4.405131,0.98442 -8.010516,3.23602 -10.815978,6.75515 -2.780944,3.51931 -4.171063,7.56761 -4.171063,12.14507 0,3.54383 0.861306,6.81637 2.584094,9.81886 1.747306,3.00231 4.109327,5.36521 7.086945,7.088 2.977794,1.72261 6.226873,2.58304 9.746004,2.58304 h 42.63597 c 3.51913,0 6.78003,-0.86043 9.78234,-2.58304 3.00249,-1.72279 5.37721,-4.08569 7.12452,-7.088 1.74713,-3.00249 2.62061,-6.27503 2.62061,-9.81886 0,-2.60861 -0.55351,-5.24227 -1.66088,-7.9001 3.00249,-3.64225 4.50285,-7.97329 4.50285,-12.99366 0,-2.80546 -0.54045,-5.48834 -1.6233,-8.04774 -1.08285,-2.5594 -2.54776,-4.76179 -4.39349,-6.60752 -1.84574,-1.84573 -4.0483,-3.30975 -6.60752,-4.3926 -2.53489,-1.08285 -5.20506,-1.62437 -8.01052,-1.62437 z m 0,6.71882 c 3.88831,0 7.1866,1.35291 9.89364,4.05994 2.73156,2.70704 4.09716,6.00516 4.09716,9.89347 0,2.46097 -0.66446,4.8722 -1.99337,7.23475 -3.81458,-3.78989 -8.39169,-5.68429 -13.73204,-5.68429 h -1.25518 c -0.98425,-4.28202 -3.19951,-8.14634 -6.64492,-11.59174 2.73174,-2.60861 5.94325,-3.91213 9.63471,-3.91213 z m -25.91344,4.20758 c 4.3314,0 8.09624,1.44021 11.29557,4.31958 3.22386,2.87937 5.03237,6.43466 5.42625,10.66745 l 0.29527,2.28882 c 0.0988,0.44292 0.36919,0.66446 0.8121,0.66446 h 6.34964 c 3.46992,0 6.46006,1.25536 8.97025,3.76555 2.51019,2.51018 3.76449,5.48833 3.76449,8.93373 0,3.54383 -1.2543,6.58212 -3.76449,9.11701 -2.48549,2.5347 -5.47563,3.80276 -8.97025,3.80276 H 98.79219 c -3.4454,0 -6.423723,-1.27988 -8.933734,-3.83928 -2.510188,-2.5594 -3.764664,-5.58587 -3.764664,-9.08049 0,-3.29758 1.094844,-6.14009 3.285239,-8.52716 2.214737,-2.38724 4.983333,-3.77824 8.305614,-4.17212 l 1.956151,-0.14817 c 0.492124,0 0.738364,-0.22154 0.738364,-0.66445 l 0.25876,-2.14118 c 0.54151,-4.28201 2.38654,-7.85 5.53649,-10.70485 3.15012,-2.85467 6.84212,-4.28219 11.07492,-4.28219 z m 56.73719,6.34964 c -0.93504,0 -1.74731,0.33179 -2.43646,0.99624 -0.66446,0.66446 -0.99624,1.45204 -0.99624,2.36255 0,0.9107 0.3436,1.68646 1.03275,2.32622 0.63976,0.63993 1.44022,0.9599 2.39995,0.9599 h 8.04685 c 0.91052,0 1.66176,-0.30815 2.25231,-0.92339 0.61524,-0.61524 0.92251,-1.39012 0.92251,-2.32533 0,-0.93504 -0.30727,-1.73549 -0.92251,-2.39995 -0.59055,-0.66445 -1.34179,-0.99624 -2.25231,-0.99624 z m -5.83282,24.8798 c -0.93504,0 -1.73461,0.31979 -2.39907,0.95973 -0.63976,0.63976 -0.95973,1.42751 -0.95973,2.36255 0,0.93521 0.33179,1.77217 0.99625,2.51036 l 2.54758,2.43646 c 0.59072,0.63994 1.35378,0.95991 2.28882,0.95991 0.93521,0 1.71009,-0.31997 2.32533,-0.95991 0.63994,-0.63976 0.95991,-1.45203 0.95991,-2.43646 0,-0.88582 -0.31997,-1.64888 -0.95991,-2.28882 l -2.5467,-2.58409 c -0.63994,-0.63994 -1.391,-0.95973 -2.25248,-0.95973 z" />
  </g>
</svg>
